<svg xmlns="http://www.w3.org/2000/svg" viewBox="0 0 337 431.3"><defs><style>.cls-1,.cls-2,.cls-3,.cls-4,.cls-6{fill:none;}.cls-1{stroke:#804c80;}.cls-1,.cls-2,.cls-3,.cls-4,.cls-5{stroke-linecap:round;stroke-linejoin:round;}.cls-1,.cls-2,.cls-3{stroke-width:2px;}.cls-2{stroke:#a4cc52;}.cls-3{stroke:#fc9;}.cls-4,.cls-5,.cls-6{stroke:#000;stroke-width:7px;}.cls-5{fill:#fc9;}</style></defs><g id="Layer_2" data-name="Layer 2"><g id="svg2"><g id="g1411"><g id="_193714512" data-name=" 193714512"><path id="path55" class="cls-1" d="M100.4,324.1c.4.4,3.2-4.3,3.7-3.7.2.2-3.4,10.2-3.2,10.5.6.6,10.5-11.7,11.1-11.1.3.3-9,15.5-8.8,15.7.6.6,12.1-13.2,12.6-12.6s-14.1,20.3-13.8,20.6c.9.9,18.6-20,19.3-19.3.5.5-16.8,22.8-16.4,23.2.9.9,21.8-23.8,22.8-22.8.5.5-23.5,29-22.8,29.7.9.9,28.2-30.1,29.1-29.1.7.7-29,34.5-28.1,35.3,1,1,31.4-33.7,32.6-32.6.9.9-29.8,35.7-29,36.5,1.3,1.3,28.2-30.8,29.5-29.5.6.6-22.4,28.3-21.8,28.8.8.8,20.7-22.5,21.6-21.6.5.5-14.4,20.6-14,20.9.8.8,13.1-14.2,13.6-13.6.3.3-8.5,14.6-8.3,14.8.5.5,9-10.1,9.6-9.6.1.1-1.6,7.9-1.5,8,.4.4-.2-.6.2-.2"/><path id="path57" class="cls-1" d="M53.8,314.3c.5.5,1.7-2.8,2.2-2.2.2.2-5.4,11.5-5.1,11.8.6.6,11.1-12.3,11.7-11.7S46.9,334,47.4,334.6c.8.8,21.6-23.2,22.4-22.4s-24.4,29.5-23.6,30.3c1,1,26.4-28.5,27.4-27.4.9.9-28.2,34.3-27.4,35.1,1.3,1.3,34.5-36.7,35.6-35.6.7.7-31.6,36.7-30.7,37.6,1.4,1.4,35.3-38.3,36.8-36.8,1,1-31.5,36.2-30.7,37.1,1.4,1.4,34.3-36.7,35.5-35.5,1,1-31.6,36.5-30.9,37.3,1,1,34.4-36.6,35.5-35.5.9.9-27.6,33.8-27,34.4,1.2,1.2,31.6-34.1,32.8-32.8.7.7-28.7,35-28,35.6s6.3-7.1,6.7-6.7"/></g><g id="path1371"><path id="path60" class="cls-2" d="M106.6,180.8c.4.4,3.6-4.4,4-4,.8.8-24.5,29.7-23.8,30.4,1.1,1.1,25.8-28.3,27.1-27.1s-43.7,47.8-42.5,49c1.5,1.5,46.2-49.5,47.8-47.8,1.8,1.8-69,72.5-66.9,74.6,1.8,1.8,69.7-73.5,71.6-71.6S33.4,276.2,36,278.8c3,3,91.8-96.2,94-94S30.4,286.2,33.3,289.1c2.3,2.3,99.2-105.3,102.3-102.3,2.7,2.7-100.6,102.6-98.2,105,3.3,3.3,101-107.1,104.1-104.1,2.7,2.7-99.8,101.7-97.3,104.2,2.8,2.8,100.4-105.7,103.1-103.1,3,3-100.5,102-97.7,104.8C53,297,148.1,188.8,151.2,192c2.5,2.5-98.5,100-95.6,102.9C58,297.3,150,194.6,153,197.5c2.8,2.8-93,96.1-90.7,98.4,2.6,2.6,88.6-93.7,91.2-91.2,2.2,2.2-86.7,90.2-84.7,92.1,2.5,2.5,83.9-89.5,86.7-86.7,2.3,2.3-81.4,84.2-79.1,86.4,2.8,2.8,77-82.7,79.9-79.9,2,2-76.7,80.1-75.1,81.7,2,2,75.4-80.4,77.9-77.9,2,2-75.2,77.4-73.1,79.5,2.6,2.6,72.3-77.2,74.8-74.8,2,2-71.3,74.8-69.4,76.7,2.3,2.3,66.7-70.8,68.8-68.8,1.9,1.9-62.1,65.6-60.4,67.2,1.9,1.9,62-65.9,64-64,1.5,1.5-61.2,65.9-59.7,67.3s59.2-63.1,61.1-61.1c1.7,1.7-56.6,60-55.1,61.5s53.9-57,55.4-55.4-51.5,55.3-50.2,56.6,49.4-52.4,50.9-50.9-46.9,50.8-45.5,52.2c1.7,1.7,45.4-48.5,46.9-46.9,1.1,1.1-42.4,47.8-41.3,48.9,1.3,1.3,42.7-45.4,44-44,.8.8-37.3,42.5-36.2,43.6s36.3-39,37.7-37.7c1,1-32.5,37.6-31.5,38.6,1.3,1.3,31.9-33.7,32.8-32.8s-28,33-27.3,33.7c.9.9,25-27.3,26.2-26.2.5.5-20.2,26-19.5,26.7,1.1,1.1,20.1-21.9,21-21,.5.5-17.7,23.9-17.1,24.5.9.9,17.9-19.6,18.7-18.7.4.4-11.8,17.6-11.4,17.9.8.8,12-13.5,12.8-12.8.3.3-8.8,14.6-8.5,14.9.5.5,10.6-12,11.3-11.3.2.2-4.6,11.7-4.4,11.9.5.5,5.2-6.3,5.8-5.8.1.1-.8,7.2-.7,7.3.3.3.3-.9.6-.6"/></g><g id="_193712592" data-name=" 193712592"><path id="path63" class="cls-1" d="M128.4,281.7c.3.3,0-.6.3-.3l3.6,3.3c.4.4,3.1-4.2,3.7-3.7.2.2-2.4,9-2.2,9.2.5.5,10.8-11.9,11.3-11.3.2.2-7.9,13.8-7.6,14,.6.6,8.6-9.8,9.2-9.2.3.3-7.1,13-6.9,13.3.5.5,6-6.9,6.5-6.5"/></g><g id="_193709880" data-name=" 193709880"><path id="path66" class="cls-2" d="M167.7,193.5c.4.4,1.9-2.5,2.2-2.2.1.1.4,6.1.5,6.2.5.5,5.8-6.8,6.3-6.3.2.2-5.7,11.6-5.5,11.9.7.7,12-13.2,12.6-12.6.3.3-11.7,17.4-11.3,17.8.9.9,16.9-18.5,17.7-17.7.6.6-16.7,22.5-16.2,23,.7.7,18.7-20.4,19.5-19.5.4.4-17.4,22.9-16.8,23.5.8.8,16.9-18.7,17.8-17.8.5.5-18.2,24.7-17.7,25.1.9.9,20.6-22.5,21.5-21.5.5.5-16.5,22-15.9,22.5.9.9,17.2-18.5,17.9-17.9.3.3-10.7,16.9-10.3,17.2.7.7,11.6-13.2,12.4-12.4.3.3-6.2,12.9-5.9,13.2.6.6,9.3-10.4,9.9-9.9.1.1-2.5,8.7-2.3,8.8.4.4,2.2-3,2.6-2.6"/></g><g id="path1367"><path id="path69" class="cls-2" d="M57.9,185c.5.5,4.8-5.6,5.2-5.2.2.2-5.1,12.1-4.9,12.3.8.8,13.4-14.8,14.1-14.1.4.4-10.5,17.6-10.2,17.9.8.8,17.6-19.2,18.4-18.4.6.6-17.1,23.3-16.6,23.7.9.9,19-20.8,19.9-19.9.4.4-13.9,20.6-13.5,21,.8.8,19.6-21.1,20.4-20.4.5.5-15.8,21.2-15.2,21.8s20.1-21.9,21-21c.6.6-16.7,23.4-16.2,23.9.7.7,13.9-15.5,14.7-14.7"/></g><g id="_193713648" data-name=" 193713648"><path id="path72" class="cls-3" d="M102.3,56.4c.3.3,1.2-1.9,1.5-1.5.5.5-14.5,20.2-14,20.7,1.2,1.2,29.1-31,30.1-30.1.7.7-31.7,36.6-30.7,37.6,1.3,1.3,38.3-40.7,39.5-39.5S86.2,90.7,87.5,92c1.8,1.8,50.2-53.3,51.8-51.8S84.1,98.4,85.8,100.1c1.5,1.5,57.2-60.5,58.8-58.8,1.4,1.4-58.6,62.9-57.3,64.2,2.1,2.1,61-65.7,63.3-63.3,1.7,1.7-65.4,68.2-63.4,70.2S157,38.8,158.9,40.7c1.7,1.7-71.8,74.8-69.6,76.9,2.3,2.3,72.9-76.9,74.9-74.9,1.8,1.8-76.5,79.5-74.6,81.4S166.8,42.4,169,44.7c1.6,1.6-78.7,82.8-76.9,84.6,2.2,2.2,80.7-86.2,83.4-83.4,2.2,2.2-83.8,87-81.7,89.1,2.7,2.7,84.7-89.5,87.1-87.1s-87.3,90.4-85.1,92.6c2.6,2.6,86-90.8,88.4-88.4,1.9,1.9-84.6,88-82.4,90.2S187.2,51,190.2,53.9c2.1,2.1-89.4,90.9-86.8,93.6,2.4,2.4,87.1-93.2,90.1-90.1,1.8,1.8-89.8,92.4-87.3,94.9S197,55.5,200,58.5c2.6,2.6-90.1,94.1-88.2,95.9,2.5,2.5,87.6-93.5,90.6-90.6,1.9,1.9-87.5,90-85.2,92.3,3,3,88.2-92.6,90.4-90.4s-88.9,91-86.6,93.3c3,3,86.6-92.6,89.6-89.6,2.2,2.2-88.1,91.5-86.3,93.3,2.7,2.7,87.7-93.6,90.6-90.6,2.3,2.3-88.5,90.1-85.8,92.7,2.4,2.4,88.1-92.7,90.4-90.4s-88.4,91.6-86.2,93.8c2.9,2.9,85.5-91.1,88.3-88.3,2.1,2.1-86.3,87.8-83.8,90.3,2.8,2.8,84.5-88.9,86.7-86.7,1.7,1.7-82.4,85.9-80.4,87.9S226.6,84,229,86.5c2.3,2.3-81.5,84.1-79.5,86.1,2.2,2.2,79.4-84.6,82-82,2.2,2.2-79.2,82.8-77.4,84.6,2.8,2.8,79.6-84.6,82.1-82.1,2,2-78.5,81.8-76.6,83.7,2.1,2.1,74.7-78.6,76.7-76.7s-70.4,72.9-68.3,75c1.9,1.9,68.6-72.8,70.7-70.7s-67.5,70.9-65.9,72.5c2.1,2.1,64.6-69.4,67-67,1.4,1.4-59.9,64.4-58.4,66s59.1-62.6,60.9-60.9c1.2,1.2-57.1,61.1-55.4,62.8s52.6-56.3,54.4-54.4c1.2,1.2-47.2,50.9-45.8,52.4,1.7,1.7,43.6-46.9,45.3-45.3,1.2,1.2-36.3,41.5-35.2,42.6s34.7-37.7,36.2-36.2c.6.6-27.1,32.9-26.3,33.7s21.2-23,22.1-22.1"/></g><path id="_193714704" data-name=" 193714704" class="cls-4" d="M58.9,360.9l-3.4,50.7,86.2-30.8,3,25.9"/><path id="_193714608" data-name=" 193714608" class="cls-4" d="M121.7,370.2l2.5,55.1,85.5-33.4v35.9"/><path id="_193714512-2" data-name=" 193714512" class="cls-4" d="M52.6,301.6,36.4,357.9l45.8,6,10.1-32.3,9,39.4,43.9-1.9,1.8-49.5Z"/><path id="path1367-2" data-name="path1367" class="cls-4" d="M106.5,179c-15.4-10-32.1-10-50.3,0q-17.4,34,24.4,33.4Z"/><path id="path1371-2" data-name="path1371" class="cls-4" d="M156.6,183q-6.15-.9-12.6-2.4a128.48,128.48,0,0,1-31.2-13.3l-6.3,11.8L80.6,212.5,21.8,295.7l168,32.3a5.56,5.56,0,0,0,1.1-2.6l-21-94.1Z"/><path id="_193714320" data-name=" 193714320" class="cls-5" d="M87.7,64.7c-6.9,0-12.5,3.4-12.5,7.5,0,3.5,4,6.5,9.4,7.3a133.56,133.56,0,0,1,9.1-13.9A18.89,18.89,0,0,0,87.7,64.7Z"/><path id="_193713528" data-name=" 193713528" class="cls-5" d="M249,124.3h-.5a98.76,98.76,0,0,1-2.2,13.8,5.94,5.94,0,0,1-.4.8,7.75,7.75,0,0,0,3,.7,7.6,7.6,0,0,0,7.5-7.7A7.37,7.37,0,0,0,249,124.3Z"/><path id="_193713648-2" data-name=" 193713648" class="cls-4" d="M243.4,89.4q9.15,22.65,3,48.7Q218.05,197.65,144,180.5,63.15,156.8,83.6,81.1,114.8,24.85,171,35q43.65,14.25,72.4,54.4Z"/><path id="_193713720" data-name=" 193713720" class="cls-4" d="M210,203.3l116.4-26.4"/><path id="_193713792" data-name=" 193713792" class="cls-4" d="M323.2,158.9l-12,21.6-.2,26.2"/><path id="_193713912" data-name=" 193713912" class="cls-4" d="M333.5,194l-22.3-13.5,10.1,24.4"/><path id="_193714056" data-name=" 193714056" class="cls-4" d="M68.1,173.9l-34-83.7"/><path id="_193714152" data-name=" 193714152" class="cls-4" d="M65.3,101,42.9,111.7,18.7,96.2"/><path id="_193714248" data-name=" 193714248" class="cls-4" d="M16.9,113,43,111.5l5.8-23.6"/><path id="_193710048" data-name=" 193710048" class="cls-4" d="M237.8,81.3a236.63,236.63,0,0,0,76.3,23.6"/><path id="_193713360" data-name=" 193713360" class="cls-4" d="M246.2,97c23.6,10.4,45.8,17.8,66.4,22.1"/><path id="_193713384" data-name=" 193713384" class="cls-4" d="M248.6,112.3q32.7,16.5,58.9,22.1"/><path id="_189529488" data-name=" 189529488" class="cls-4" d="M255.7,135.7c19.3,8.7,38.3,16.2,56.8,22.6"/><path id="_193712040" data-name=" 193712040" class="cls-4" d="M83,79.2c-28.6,5-55.1-1.7-79.5-19.9"/><path id="_193711416" data-name=" 193711416" class="cls-4" d="M97.6,60.7q-60-.15-91.5-41.3"/><path id="_193708968" data-name=" 193708968" class="cls-4" d="M108.9,49.6q-45.6-10.5-78-33.4"/><path id="_193712400" data-name=" 193712400" class="cls-4" d="M56.2,14.4q45.3,20.25,74.6,22.9"/><path id="_193708584" data-name=" 193708584" class="cls-4" d="M113.3,76.7c-2.8,64.7,96.7,78.7,115.1,28.5"/><path id="_193711152" data-name=" 193711152" class="cls-4" d="M193.9,69.9c-4.7-9.6-9.8-10.9-15.4-3.7"/><path id="_193708128" data-name=" 193708128" class="cls-4" d="M165.8,59.8c-4.4-5.3-10.1-5-17.3.8"/><path id="_193711800" data-name=" 193711800" class="cls-4" d="M144.7,34.1C156.8,22.2,164.9,12,169.2,3.5"/><path id="_193712496" data-name=" 193712496" class="cls-4" d="M161.8,33.8a179.52,179.52,0,0,0,21.7-20.6"/><path id="_193711872" data-name=" 193711872" class="cls-4" d="M177.6,37.4a120.34,120.34,0,0,0,10.1-18"/><path id="_193707840" data-name=" 193707840" class="cls-4" d="M197.7,46.9a197.35,197.35,0,0,0-5.6-23.2"/><path id="_193709664" data-name=" 193709664" class="cls-4" d="M214.8,58.7c-4-5.4-5.9-11.1-5.6-16.9"/><path id="_193711632" data-name=" 193711632" class="cls-4" d="M228.4,71A24.46,24.46,0,0,1,225,57.9"/><path id="_193712592-2" data-name=" 193712592" class="cls-6" d="M133.9,305.8c30.2-21.1,23-43.8,2.2-28.5C122.1,263.3,110.5,275.8,133.9,305.8Z"/><path id="_193709880-2" data-name=" 193709880" class="cls-4" d="M156.7,183c13.8,2.1,26.4,1.9,37.5-.6,13.7,13.8,19.7,25.3,18,34.6-3.7,13.3-17.9,18.1-42.4,14.2Z"/><path id="_193712376" data-name=" 193712376" class="cls-4" d="M80.6,212.4,106.5,179"/></g></g></g></svg>