<svg xmlns="http://www.w3.org/2000/svg" viewBox="0 0 226 500.6"><defs><style>.cls-1,.cls-2,.cls-3,.cls-4{fill:none;}.cls-1{stroke:#7a8fcc;}.cls-1,.cls-2,.cls-3,.cls-4,.cls-6{stroke-linecap:round;stroke-linejoin:round;}.cls-1,.cls-2,.cls-3{stroke-width:2px;}.cls-2{stroke:#ff4d33;}.cls-3{stroke:#cb7a47;}.cls-4,.cls-5,.cls-6,.cls-7{stroke:#000;stroke-width:7px;}.cls-5{fill:#804080;}.cls-6{fill:#cb7a47;}</style></defs><g id="Layer_2" data-name="Layer 2"><g id="svg2"><g id="g1149"><g id="_194179816" data-name=" 194179816"><path id="path110" class="cls-1" d="M114.7,377.9c1.2,1.2,45-48,46.5-46.5,1.3,1.3-45.7,50.5-44.5,51.7,1.7,1.7,43.4-46.8,45.1-45.1,1.3,1.3-42.9,47.8-41.8,49,1.4,1.4,41.5-44.8,43.2-43.2,1.1,1.1-41.7,46.3-40.6,47.4s40.5-42.9,41.7-41.7c1,1-42.2,46.7-41.1,47.9,1.5,1.5,40-42.6,41.3-41.3.8.8-32.7,37.4-31.8,38.3,1.3,1.3,31.3-34.1,32.7-32.7.8.8-26.7,32-25.9,32.8,1.1,1.1,27.9-30.4,29.2-29.2.5.5-20.4,26.4-19.7,27,1,1,19.9-21.9,20.9-20.9.5.5-13.6,19.8-13.1,20.2s11.6-13.1,12.3-12.3c.2.2-3.6,10.2-3.4,10.4.5.5,3.5-4.5,4-4"/><path id="path112" class="cls-1" d="M57,322.5c.4.4,3.1-3.9,3.5-3.5.2.2-4.1,11-3.9,11.2.7.7,12.2-13.6,12.9-12.9.5.5-15.2,21.1-14.7,21.6,1,1,19.6-21.5,20.6-20.6.6.6-20.3,26-19.8,26.5,1.1,1.1,28.4-30.7,29.5-29.5.8.8-31.2,36-30.3,37,1.3,1.3,35.1-37.9,36.5-36.5,1.2,1.2-39.6,45-38.4,46.1,1.7,1.7,46.8-49.7,48.3-48.3,1.2,1.2-49.8,53.6-48.3,55.1s53.6-57,55.3-55.3-57.7,62-56.3,63.4c2,2,62.8-66.1,64.5-64.5,1.5,1.5-64.9,68.3-63.4,69.8,2.1,2.1,67.8-72,69.9-69.9s-73.1,76.1-71,78.3c1.9,1.9,75.7-79.9,77.8-77.8s-80.6,82.8-78.4,85.1c2.6,2.6,84.6-90.2,87.4-87.4,2.5,2.5-82.5,84.7-80.3,86.9s84.4-88.9,86.7-86.7c2.4,2.4-82.7,85-80.5,87.3,2.5,2.5,84.6-90.2,87.4-87.4,2,2-82.5,84.7-80.4,86.8,2.6,2.6,78.6-83.6,81.1-81.1,1.7,1.7-76.9,79.2-74.6,81.5,1.9,1.9,75.3-79.8,77.5-77.5,1.8,1.8-72,75.4-70.3,77.1,2.3,2.3,69.8-74.7,72.3-72.3,1.5,1.5-66.7,70.6-64.9,72.4,2.1,2.1,65.3-70.1,67.7-67.7,1.5,1.5-65,69-63.6,70.4.3.3,1.1-1.8,1.5-1.5"/></g><g id="_193488256" data-name=" 193488256"><path id="path115" class="cls-2" d="M145.8,185.1c.4.4,0-.7.4-.4.1.1.7,5.6.8,5.7.4.4,4.2-4.9,4.6-4.6.2.2-2.4,9.6-2.2,9.8.6.6,6.7-7.8,7.2-7.2.2.2-4.2,10.8-4,10.9.7.7,10-11.4,10.7-10.7.4.4-10.5,17.5-10.2,17.9.7.7,14.9-16.5,15.7-15.7.4.4-13.8,19.4-13.3,19.9.9.9,20-21.7,20.8-20.8.7.7-19.3,25.2-18.7,25.8.9.9,22.7-25,23.8-23.8.8.8-25.1,31.4-24.4,32.1,1,1,25.2-27.4,26.3-26.3.7.7-21.4,26.9-20.7,27.6s19.5-21,20.2-20.2c.4.4-12.4,18.6-11.9,19,.7.7,8-9.5,8.7-8.7.3.3-5.3,11.4-5,11.7s4.5-5.4,4.9-4.9"/></g><g id="path1105"><path id="path118" class="cls-2" d="M91.8,181.7c.3.3,1.3-2,1.6-1.6S83.2,197,83.6,197.4c.7.7,13.1-14.6,13.8-13.8.6.6-19.9,25.9-19.2,26.5,1,1,25.1-27.6,26.3-26.3,1.1,1.1-33.3,38.4-32.4,39.4,1.3,1.3,39.3-42.5,40.9-40.9,1,1-44.6,48.8-43.5,50,1.3,1.3,46.8-50.7,48.8-48.8,1.7,1.7-55.4,59.8-53.7,61.5s59.9-64.4,62.2-62.2c1.5,1.5-68.5,72-66.7,73.8s68.6-72,70.3-70.3c2,2-76.2,79.5-74.1,81.7,2.4,2.4,72-77.2,74.6-74.6,2.2,2.2-81.5,83.2-79.1,85.6,2.7,2.7,79.6-83.6,81.6-81.6,2.7,2.7-87.9,90.5-85.5,92.9s82.5-88.4,85.4-85.4c2.2,2.2-92.6,94.3-90,96.9,3.1,3.1,89.6-94,91.8-91.8s-91.9,94.4-89.7,96.5c2.8,2.8,89.9-94.9,92.4-92.4s-89.6,91.3-87.2,93.7c2,2,84.7-90.7,87.7-87.7,2,2-81.2,83.5-79.1,85.7,2.5,2.5,79.5-84.8,82.1-82.1,2,2-77.5,80.5-75.8,82.2,2.7,2.7,73.8-78,75.9-75.9,1.6,1.6-69.5,73.2-67.7,75,2.1,2.1,66.5-70,68.3-68.3,1.4,1.4-61.3,64.7-59.6,66.4,2.3,2.3,60.1-63.9,62-62,1.2,1.2-56.7,61.3-55.4,62.6,2.1,2.1,56.7-60.5,58.6-58.6,1.5,1.5-50.1,54.5-48.6,55.9s50-53,51.5-51.5c1,1-44.3,49.5-43,50.7,1.5,1.5,43.1-45.7,44.4-44.4,1.1,1.1-38.6,43.5-37.8,44.3,1.4,1.4,37.3-40.3,38.8-38.8.7.7-33.6,38.4-32.8,39.2,1.3,1.3,33.5-35.7,34.6-34.6.9.9-28.1,33.5-27.2,34.5,1.3,1.3,29.3-31.2,30.3-30.3.5.5-21.5,26.8-20.8,27.5.9.9,22.2-24,23.1-23.1.6.6-17.7,23.9-17.2,24.4.7.7,16.7-18.4,17.5-17.5.3.3-8,15-7.7,15.4.7.7,10-11.1,10.5-10.5.2.2-1.8,9.2-1.6,9.4.5.6,2.4-3.4,2.9-2.9.1.1,3.1,4.2,3.2,4.3.3.3,1.3-1.9,1.6-1.6"/></g><g id="_192543752" data-name=" 192543752"><path id="path121" class="cls-2" d="M42,191.6c.3.3,1.6-2.3,2-2,.1.1,1.5,4.9,1.6,5,.6.6,8-9.1,8.6-8.6.3.3-7.4,13.5-7.2,13.7.8.8,18.3-20.1,19.2-19.2.6.6-18.6,24.6-18,25.2,1.1,1.1,27.2-29.6,28.4-28.4.7.7-26.9,32.1-26.2,32.8,1.3,1.3,29.3-31.8,30.5-30.5.9.9-30.1,35.5-29.2,36.4s28.9-31.5,30.2-30.2c1,1-31.7,37.1-30.8,38,1.1,1.1,24.7-26.7,25.7-25.7.5.5-16,21.5-15.6,22,.6.6,9.2-10.2,9.7-9.7"/></g><g id="_192541688" data-name=" 192541688"><path id="path124" class="cls-3" d="M55.3,52.4c.3.3.5-1.2.9-.9.5.5-11.9,18.5-11.5,18.9.9.9,29.5-31.5,30.5-30.5S41,79,41.8,79.8c1.5,1.5,39.8-43.2,41.5-41.5.9.9-44.8,49.1-43.6,50.2,1.7,1.7,52.1-55.6,53.9-53.9,1.6,1.6-55.9,60.2-54.5,61.6,2.3,2.3,59.8-63.8,61.8-61.8S37.3,101,39.2,103c2.4,2.4,67-71,69-69,1.6,1.6-68.4,72.7-66.8,74.3,2.6,2.6,70.4-75.3,72.8-72.8,1.8,1.8-73.7,77.4-72.1,79,2.2,2.2,77.5-81.7,79.6-79.6S39.8,119,42.2,121.4c2.9,2.9,83.1-87.7,85.4-85.4s-86,87.7-83.5,90.2,86.2-91.9,89.1-89.1c1.8,1.8-86.9,90.6-84.9,92.5,2.8,2.8,86.4-91.9,89.1-89.1,2.3,2.3-89.9,91.7-87.4,94.2,2.9,2.9,89.6-95.8,92.7-92.7,2.6,2.6-91.3,94.8-89.2,96.8,2.8,2.8,92.8-99.3,96.1-96.1,2.3,2.3-96,98.7-94,100.7,2.4,2.4,93.4-99.3,96.3-96.3,2.4,2.4-93,96.6-91,98.6,2.4,2.4,93.4-98.9,96.1-96.1,2.9,2.9-95.2,98-92.8,100.5,2.8,2.8,94-99.5,96.8-96.8,2,2-94.2,96-91.8,98.4,3.3,3.3,92.7-98.4,95.5-95.5s-94.4,96.3-91.6,99.1c3.3,3.3,94.1-99.4,96.7-96.7,2.5,2.5-94.6,96.3-91.8,99.1,2.6,2.6,94.3-99.9,97.1-97.1s-95,97-92.7,99.4c2.7,2.7,93.2-97.8,95.5-95.5,2.1,2.1-94.4,96.2-91.9,98.6,2.2,2.2,90.7-95.4,93-93,2.2,2.2-89.3,91-87,93.3,2.5,2.5,87.8-92.1,90-90s-86.2,90-84.3,92c3,3,85.3-90.8,88.1-88.1,2.5,2.5-84.7,87.9-82.6,89.9,2.3,2.3,82.9-88.3,85.6-85.6,2.1,2.1-81.3,83.9-79.3,85.8,2.8,2.8,78.4-83.2,80.8-80.8,2.1,2.1-77.3,80.3-75,82.6s75.1-79.1,77.1-77.1S120.9,166.9,123,169s71.1-75.1,73.1-73.1c1.5,1.5-67,70.4-64.9,72.4,2.2,2.2,62.6-67,64.8-64.8,1.4,1.4-58.8,62.4-57.3,63.9,2.1,2.1,57.4-61.6,59.5-59.5,1.6,1.6-51.9,56.8-50.6,58.1,1.8,1.8,48.2-51.1,49.7-49.7,1.1,1.1-41.1,46.6-40,47.7,1.3,1.3,38.6-41.8,40.2-40.2.8.8-32.5,37.8-31.6,38.8,1.2,1.2,29.1-31.3,30.2-30.2.5.5-19.3,25-18.7,25.6s10.7-12.1,11.4-11.4"/></g><path id="_193488256-2" data-name=" 193488256" class="cls-4" d="M135.1,174.5c1.2-.1,2.4-.3,3.6-.5l53,12.3-8.6,48.8-32.3-4.9Z"/><path id="_192543752-2" data-name=" 192543752" class="cls-4" d="M92.3,173.1a91.76,91.76,0,0,1-11.7-3.2l-46,20.8,10.5,39,21.7-3.8Z"/><path id="_194178280" data-name=" 194178280" class="cls-4" d="M176.7,494.9l-45.8-7.5-1.3-86.2"/><path id="_194181976" data-name=" 194181976" class="cls-4" d="M73.4,405.6l-3.9,78L29,497.1"/><path id="_194179816-2" data-name=" 194179816" class="cls-4" d="M157.3,303,51.8,312.8l-8.6,92.4,55.5.7,9-21.7,8.3,19.1,64.9-10.5-15.7-79.9Z"/><path id="_194177728" data-name=" 194177728" class="cls-4" d="M38.7,205.9,3.5,228.6l41.2,39,3,10.7"/><path id="_194177752" data-name=" 194177752" class="cls-4" d="M169.6,274.7l52.9-38.3-35.1-25.9"/><path id="_194180104" data-name=" 194180104" class="cls-4" d="M81.4,310.1c6.7,31-5.8,43.1-33.6,46.7"/><path id="_194178952" data-name=" 194178952" class="cls-4" d="M137.9,304.8c-1.3,41.8,12.3,51.7,33.3,45.9"/><path id="path1105-2" data-name="path1105" class="cls-4" d="M135.1,174.5a131.53,131.53,0,0,1-42.8-1.4L66.9,226,34.6,314.5,179.3,301l-28.5-70.9Z"/><path id="path1110" class="cls-5" d="M73.6,211.9,62.8,179.5l-8.3,3.8L66.9,226Z"/><path id="path1114" class="cls-5" d="M150.9,230.1l18.4-47.7-12.4-2.9-10.6,34.1Z"/><path id="_193488328" data-name=" 193488328" class="cls-5" d="M146.2,213.7,73.6,212l-6.7,14.1,84,4.1Z"/><path id="_193488184" data-name=" 193488184" class="cls-6" d="M207.6,98.8a5.7,5.7,0,0,0-1.3.1,21.66,21.66,0,0,0-2.5.4,64.47,64.47,0,0,1,.4,16.4c1.1.1,2.2.1,3.4.1,6.9-.5,12.2-4.7,11.9-9.4C219.1,102,213.9,98.8,207.6,98.8Z"/><path id="_193488592" data-name=" 193488592" class="cls-6" d="M31.9,94.1a16.1,16.1,0,0,0-3.7.4c-6.7,1.4-11.5,6.3-10.7,11s7,7.4,13.7,6c.3-.1.6-.1.9-.2a65.41,65.41,0,0,1,.4-17.1C32.4,94.1,32.2,94.1,31.9,94.1Z"/><path id="_192541688-2" data-name=" 192541688" class="cls-4" d="M45.9,145.4c31.5,43.3,108.6,32.2,131.6,15,29.8-22.3,34.4-57,16.9-87.8C180.7,48.4,155.5,31.2,124.3,28,89.4,24.3,59.9,39.9,42.9,67.4c-16.9,27.1-13.5,55.3,3,78Z"/><path id="_192543848" data-name=" 192543848" class="cls-4" d="M198.1,281.5,170,274.7l19.8,19.7"/><path id="_192542480" data-name=" 192542480" class="cls-4" d="M31.2,287.9l13.5-20.3m0,0L25.4,279.8"/><path id="_192540824" data-name=" 192540824" class="cls-4" d="M68.9,40.5,62.5,18.4"/><path id="_193484920" data-name=" 193484920" class="cls-4" d="M82.6,33.4,80.3,14.6"/><path id="_193487944" data-name=" 193487944" class="cls-4" d="M100,28.6,99.6,3.5"/><path id="_192540944" data-name=" 192540944" class="cls-4" d="M116.6,27.5,117,6.9"/><path id="_192538688" data-name=" 192538688" class="cls-4" d="M135.2,29.7l2.6-21.4"/><path id="_193490704" data-name=" 193490704" class="cls-4" d="M149.4,34l7.5-18.7"/><path id="_193491184" data-name=" 193491184" class="cls-4" d="M162.4,40.3l4.1-21"/><path id="_193491448" data-name=" 193491448" class="cls-4" d="M172.6,47.3l5.6-15.8"/><path id="_193487680" data-name=" 193487680" class="cls-7" d="M119.4,79.9c0,3.4-2.1,6.2-4.7,6.2s-4.7-2.8-4.7-6.2,2.1-6.2,4.7-6.2S119.4,76.5,119.4,79.9Z"/><path id="_193486744" data-name=" 193486744" class="cls-7" d="M139.1,80.5c0,3.4-2.1,6.2-4.7,6.2s-4.7-2.8-4.7-6.2,2.1-6.2,4.7-6.2S139.1,77.1,139.1,80.5Z"/><path id="_192543056" data-name=" 192543056" class="cls-4" d="M70.6,92.9c10.4,59.8,105.9,61.8,108.8,9.4"/></g></g></g></svg>