<svg xmlns="http://www.w3.org/2000/svg" viewBox="0 0 363.1 534.37"><defs><style>.cls-1,.cls-2,.cls-3,.cls-4{fill:none;}.cls-1{stroke:#ff4d4d;}.cls-1,.cls-2,.cls-3,.cls-4,.cls-5,.cls-7,.cls-9{stroke-linecap:round;stroke-linejoin:round;}.cls-1,.cls-2{stroke-width:2px;}.cls-2{stroke:#fc9;}.cls-3{stroke:#ffb200;}.cls-3,.cls-4,.cls-5,.cls-6,.cls-7,.cls-8,.cls-9{stroke-width:7px;}.cls-4,.cls-5,.cls-6,.cls-7,.cls-8,.cls-9{stroke:#000;}.cls-5{fill:#fff;}.cls-6{fill:#fefefe;}.cls-7{fill:#fdd1a1;}.cls-9{fill:#ed3237;}</style></defs><g id="Layer_2" data-name="Layer 2"><g id="svg2"><g id="g1317"><g id="_193717272" data-name=" 193717272"><g id="g159"><path id="path157" class="cls-1" d="M221.6,222.77c.5.5,1.4-2.1,1.8-1.8.1.1-.1,6.7.1,6.8.5.5,4.2-5.3,4.8-4.8.3.3-5.7,11.9-5.4,12.1.5.5,11.1-12.2,11.7-11.7.4.4-8.9,16.2-8.7,16.4.9.9,15.4-16.8,16.1-16.1.4.4-13.9,20.4-13.5,20.8.9.9,17.4-19.1,18.3-18.3.4.4-18.1,23.5-17.5,24,.8.8,21.6-23.8,22.7-22.7.6.6-21.8,27.6-21,28.4,1,1,25.7-28,26.9-26.9.7.7-26.4,31.6-25.5,32.4s20.3-22.3,21.3-21.3c.5.5-20.5,26-19.9,26.6s14.8-16.2,15.5-15.5c.4.4-13.7,19.8-13.4,20.1.6.6,10.1-11.4,10.8-10.8.3.3-5.1,11.7-4.9,11.9.4.4,2.2-3.1,2.7-2.7"/></g></g><g id="path1107"><path id="path162" class="cls-1" d="M133.2,223.57c.4.4,4.2-4.8,4.5-4.5s-11.3,17.8-11,18.1c.7.7,15.3-16.7,16-16s-25.9,31-25.2,31.7c1.2,1.2,29.7-32,30.9-30.9,1,1-38.8,43.1-37.7,44.2,1.3,1.3,40.3-42.8,41.5-41.5,1.1,1.1-51.2,55.3-50,56.5,2.1,2.1,53.7-57.8,55.8-55.8,1.9,1.9-64.6,68.4-63.1,69.9,2,2,69.2-73.3,71.2-71.2,2.4,2.4-81.6,85.3-79.8,87.1,2.7,2.7,85.1-90.1,87.6-87.6,2.9,2.9-98.9,100.4-96.3,103.1,3.3,3.3,100.6-107.3,104-104C184.4,225.47,65,339.87,68.1,343c2.9,2.9,116.3-124.2,120.2-120.2,2.9,2.9-130.4,129.8-126.9,133.3,3.7,3.7,129.7-138.2,134-134,3.3,3.3-145.8,144.2-141.7,148.3,3.9,3.9,144.9-153.8,149.4-149.4,3.5,3.5-150.4,149.9-146.7,153.6,4.7,4.7,144.1-150.9,147.5-147.5,3.7,3.7-143.1,143.6-140,146.7,3.7,3.7,138.2-146.4,142.3-142.3,3.1,3.1-138.1,138.3-134.3,142.1,4.5,4.5,131.7-140.5,136.1-136.1,2.9,2.9-132.9,133.1-129.6,136.3s125.2-132.8,129-129c3.5,3.5-126.7,127.4-123.5,130.6s121.6-129.1,125.3-125.3c3.3,3.3-118.7,121.3-116.2,123.8,3,3,116.6-122.1,119.4-119.4,2.4,2.4-116.5,117.1-113.6,120,3.3,3.3,111.6-118.5,115.1-115.1,2.9,2.8-110.4,111.2-107.4,114.2,3.7,3.7,104.8-111.6,108.2-108.2C217,267.67,109,372,112,375s100.6-105.6,103.1-103.1-96.2,98.7-94.2,100.7c2.8,2.8,92.6-97.6,95.1-95.1,2.3,2.3-92.2,93.1-89.4,95.9,2.4,2.4,89.9-95.2,92.6-92.6,2.3,2.3-89.5,92.5-87.5,94.4,2.8,2.8,86.5-90.6,88.6-88.6,2.3,2.3-83.3,86.3-81.2,88.4,2.9,2.9,82.1-86,84-84s-78.5,81.3-76.4,83.3c1.9,1.9,74.4-78.6,76.5-76.5s-71.6,74.9-70,76.5c1.9,1.9,70.2-74.7,72.5-72.5,1.4,1.4-66.2,70.6-64.8,72,2,2,64.7-68.8,66.8-66.8,1.8,1.8-61.5,64.8-59.7,66.6,1.6,1.6,59.1-62.9,61-61,1.2,1.2-53,57.9-51.7,59.3,2,2,50.6-54,52.3-52.3,1.2,1.2-46.8,51.7-45.4,53.1,1.8,1.8,46.5-49.4,48-48,1.2,1.2-42.1,47.2-41.2,48.1,1.3,1.3,43-45.6,44.3-44.3,1.1,1.1-38.3,43.4-37.3,44.4,1.3,1.3,36.6-38.9,37.8-37.8.8.8-31.5,36.5-30.7,37.3,1.1,1.1,29.9-32.3,31.1-31.1.6.6-26.4,32.3-25.8,32.9,1.1,1.1,26.1-28.5,27.3-27.3.6.6-18.7,24.6-18.2,25.1,1,1,19.8-21.8,20.8-20.8.5.5-13.6,20.1-13.2,20.6.8.8,15.1-16.6,15.8-15.8.4.4-10.8,16.9-10.4,17.3.7.7,11.9-13.3,12.6-12.6.2.2-4.5,11.3-4.3,11.5.5.5,4.5-5.4,4.9-4.9.1.1.7,6.6.9,6.7.3.3,2-2.6,2.3-2.3"/></g><g id="_193718184" data-name=" 193718184"><g id="g167"><path id="path165" class="cls-1" d="M77.6,233.07c.4.4,1.7-2.5,2.1-2.1.1.1-1.3,8.2-1.1,8.3.7.7,10.1-11.6,10.8-10.8.3.3-8.4,14.2-8,14.6.8.8,16.9-18.5,17.7-17.7.4.4-15.1,21.5-14.7,21.9.8.8,25.5-27.5,26.5-26.5.6.6-23.2,29.2-22.6,29.8,1.4,1.4,33.3-35.8,34.5-34.5.9.9-33.2,39.2-32.3,40,1.6,1.6,37.9-40.6,39.2-39.2,1.1,1.1-39.4,44-38.1,45.2s30.7-32.7,31.7-31.7-28.7,33.9-27.9,34.7,20.1-21.8,20.9-20.9c.5.5-19,25.3-18.3,25.9s8.2-9.4,8.8-8.8c.4.4-9.1,14.9-8.8,15.2s2-2.6,2.3-2.3"/></g></g><g id="_193717896" data-name=" 193717896"><path id="path170" class="cls-2" d="M159.5,52c.4.4,2.8-3.6,3.2-3.2"/><path id="path172" class="cls-2" d="M96.9,88.77c.8.8,12.9-14.4,13.7-13.7.5.5-16.7,22.8-16.3,23.3,1.2,1.2,27.7-30.3,29-29,.8.8-33.6,39-32.7,39.8,1.4,1.4,37.8-40.5,39.1-39.1,1.2,1.2-40.5,45.2-39.6,46.1,1.7,1.7,44.3-47,45.7-45.7,1.2,1.2-46.1,50.8-45.1,51.8,1.7,1.7,52.2-56,54.1-54.1,1.2,1.2-55.5,59.5-54.2,60.7,2.4,2.4,78.7-83.4,81.1-81.1s-84.4,87.1-82.1,89.4c3,3,85.5-90.4,88-88s-87.2,90.5-85,92.7c3.2,3.2,92.5-97.1,94.8-94.8,2.7,2.7-97.7,100.1-95.5,102.3,2.6,2.6,98.3-105.1,101.7-101.7,2.6,2.6-100.8,102.6-98.5,104.9,2.7,3,100.4-106.7,103.5-103.6,2.4,2.4-106.2,107.4-103.4,110.1,3.1,3.1,104.5-110.5,107.5-107.5S96.4,160.17,98.6,162.37c3.2,3.3,108.6-113.7,111.2-111.1S96.6,166.17,99.5,169.07c3.5,3.5,110.5-117.5,114-114,2.4,2.4-115,115.4-111.5,118.8,3.2,3.2,109.7-114.7,112.2-112.2s-110,113-107.7,115.3c3,3,108.3-114,111.1-111.1,3.2,3.2-109.4,111.2-107,113.5,3.8,3.8,112.1-117.7,114.9-114.9s-114.6,116.7-112.2,119.1c2.8,2.8,113.8-121,117.4-117.4,3,3-116.3,118.7-113.7,121.3,3.4,3.4,115-122.5,118.7-118.7,3.6,3.6-119.1,120.4-116.2,123.4,3.4,3.4,116.8-123.8,120.3-120.3,3.2,3.2-117.4,117.7-114.2,121,3,3,114.6-122.4,118.5-118.5,3.1,3.1-116.4,118.8-113.8,121.4,3.3,3.3,115.9-123.3,119.6-119.6,3.4,3.4-118,119.8-115.6,122.3,3.5,3.5,114.3-120.3,117.3-117.3,2.7,2.7-116.5,119-114.1,121.5,3.2,3.2,117.4-123,120.2-120.2s-117.1,118.2-113.9,121.4c2.6,2.6,112.7-117.9,115.3-115.3,2.8,2.8-112.4,112.8-109,116.2S257.5,91,260.7,94.17c2.9,2.9-109.3,110.8-106.6,113.4,3.3,3.3,107-113.5,110.3-110.3,2.7,2.7-106.5,108.3-103.6,111.2,2.7,2.7,103.9-109.9,106.9-106.9s-104.1,105-101.1,108c2.5,2.5,97.4-104.3,100.9-100.9,2.7,2.7-96.5,99.6-94.4,101.7,2.6,2.6,94.2-98.8,96.5-96.5,2.7,2.7-90.3,93.3-88,95.6,2.6,2.6,87.4-93.1,90.3-90.3,2.4,2.4-88.1,89.6-85.5,92.2,2.3,2.3,84.9-89.2,87.1-87.1,2,2-77.8,81.9-76,83.8,2.4,2.4,72.6-76.8,74.7-74.7,1.8,1.8-70.2,73.8-68.1,75.8,1.6,1.6,66.2-70.4,68.3-68.3,1.6,1.6-60.2,63.1-58.4,64.9,1.5,1.5,56.9-61.1,59-59,1.1,1.1-50.1,54.5-48.7,55.9,1.7,1.7,46.4-49.1,47.8-47.8,1.1,1.1-36.3,41.5-35.4,42.4,1.3,1.3,29.9-32.6,31.2-31.2.4.4-14.1,20.3-13.6,20.8s2.7-3.7,3.2-3.2"/></g><path id="path1349" class="cls-3" d="M251.9,3.77c-16.7-3.4-28.2,26.9-12.5,19s-11.1-19.4-22.1-9.1.3,33,7.8,20.5-23.3-8.5-24.8,7.8"/><path id="path1353" class="cls-3" d="M180.5,41.07c-4.1-16.8-32.3-17.6-20.8-7.3s17.2-14.1,5.8-20.2-39.1,11.2-26.2,14.3S161.9-8,119.1,20"/><path id="_193718184-2" data-name=" 193718184" class="cls-4" d="M137.4,211.17c-1.9-.7-3.9-1.4-5.7-2.2l-67,22.5,30.8,56.3Z"/><path id="path1351" class="cls-3" d="M84.1,107.17c-19.1-9-24.2,14.4-13.5,8.9s-8.3-14-16.2-5.9-6.5,35.1,1.8,22.7S31.9,119,39,144.07"/><path id="path1363" class="cls-3" d="M94.7,85.87C73,72.87,63,99.47,74.6,96.67S69,80.37,59.5,83.27s-17.5,22.3-3.6,18.4-1.7-13.4-14-10.3-19.1,25.2-3.8,21.4-13.5-23.9-20.3-9.7"/><path id="path1361" class="cls-3" d="M86.5,55.57c-15.4-13.4-28,6-16.3,8.7s4-19.7-5.8-21.4-27.2,13-13,15.8,5.5-16.5-6.8-19.2-27.9,16.9-12.5,20.4-.3-31.2-21.3-5.6"/><path id="path1345" class="cls-3" d="M306.8,118.27c3.5-13-22.5-15.3-15.5-4.2s14-4.8,6.5-14.6-22.3-5.4-15.2,2.6,16-15.2-14-21"/><path id="_193717368" data-name=" 193717368" class="cls-4" d="M135.5,380.67l-17,143.8-38.9,6.4"/><path id="_193717464" data-name=" 193717464" class="cls-4" d="M187.3,380.17l-10.1,142.1,43.2,2.8"/><path id="_193719624" data-name=" 193719624" class="cls-4" d="M63.8,270.37l-27.1,34.8-6.1,20.9"/><path id="_193719528" data-name=" 193719528" class="cls-4" d="M3.5,293.87l33.2,11.2,21.5,25.8"/><path id="_193719432" data-name=" 193719432" class="cls-4" d="M43.1,332l-6.4-26.8-24.8,7.2"/><path id="_193719288" data-name=" 193719288" class="cls-4" d="M283.7,251.87l50.9,12.4,25,2.6"/><path id="_193719192" data-name=" 193719192" class="cls-4" d="M330.5,295.27l4.1-31,13.5-22.7"/><path id="_193719096" data-name=" 193719096" class="cls-4" d="M358.5,249.17l-23.9,15.1,13.1,18.9"/><path id="_193718952" data-name=" 193718952" class="cls-5" d="M64.6,231.37l30.8,56.3c-17.4,12.6-25.9.4-17.8-14.4-13,5.1-19.9-7.9-13.7-18.4-16.3-1.3-19.5-17.2.7-23.5Z"/><path id="_193718856" data-name=" 193718856" class="cls-5" d="M246.1,277.67l18.9-57.2c25,4.4,27.3,21.7,5.4,19.4,20.6,5.7,16.2,21.3-4.7,18.9,19.4,6.7,17.2,22.5-4.1,14.3,21.3,12.7-3,26.3-15.5,4.6Z"/><path id="_193718568" data-name=" 193718568" class="cls-3" d="M339.3,130.07c0-15.4-28.8-8.5-18.3-2.7s16.5-5.1,12.3-15.4-24.4-8.2-21.1-1,20.7-3.3,15-14.8-26.2-12.6-20.9-1.9,16.3-7,10-17.2-33.2-6.3-19,1.2,12.5-15.6-12.1-19.9"/><path id="path1107-2" data-name="path1107" class="cls-4" d="M209.4,212.37c-23.7,6.7-49.8,6.6-72-1.2l-42,76.6-51,93.9,214.1-2.3-30.9-98.8Z"/><path id="_193715376" data-name=" 193715376" class="cls-6" d="M124.1,235.47a8.81,8.81,0,0,0,6.1,2.2,9.88,9.88,0,0,0,9.8-10.1,10.24,10.24,0,0,0-6.4-9.6Z"/><path id="_193718088" data-name=" 193718088" class="cls-7" d="M79.5,119.57c-6.1,0-11.1,4.1-11.1,9.2s5,9.2,11.1,9.2a13.45,13.45,0,0,0,3.5-.5,99.1,99.1,0,0,1,.3-17.3A12.09,12.09,0,0,0,79.5,119.57Z"/><path id="_193717992" data-name=" 193717992" class="cls-7" d="M282.9,119a15,15,0,0,0-3.7.5c.3,3,.5,6,.6,9.1a76.05,76.05,0,0,1-.2,8.3,12.42,12.42,0,0,0,3.3.4c6.1,0,11.1-4.1,11.1-9.2s-5-9.1-11.1-9.1Z"/><path id="_193717896-2" data-name=" 193717896" class="cls-4" d="M184.5,41a124.82,124.82,0,0,0-32.7,4.7l2.4,16.8-26.8-.6a11,11,0,0,1-9.3,7.3,10.93,10.93,0,0,1-7.2-1.7c-22.1,19.4-34.3,49.2-25,87.9,23.3,97.7,196,72.6,193.9-26.8-.6-27-10.2-47.4-24.8-61.7a11.56,11.56,0,0,1-4.2.5,10.45,10.45,0,0,1-9.6-8.7L218.8,58l7.2-9.5A111.11,111.11,0,0,0,184.5,41Z"/><path id="_193717680" data-name=" 193717680" class="cls-8" d="M192.1,85.47c0,3.5-2.3,6.2-5.1,6.2s-5.1-2.8-5.1-6.2,2.3-6.2,5.1-6.2S192.1,82.07,192.1,85.47Z"/><path id="_193717656" data-name=" 193717656" class="cls-8" d="M166.3,88.27c0,3.5-2.3,6.2-5.1,6.2s-5.1-2.8-5.1-6.2,2.3-6.2,5.1-6.2S166.3,84.77,166.3,88.27Z"/><path id="_193717560" data-name=" 193717560" class="cls-4" d="M235.8,107.37c-9.2,93.7-108.8,92.8-119.5,3.1"/><path id="_193717272-2" data-name=" 193717272" class="cls-4" d="M227.6,280.47l18.5-2.8,18.9-57.2-51.5-9.4-4,1.2Z"/><path id="path1321" class="cls-9" d="M239.3,31.07,218.8,58l22.3.7a10.48,10.48,0,0,1-.1-2.5,10.31,10.31,0,0,1,5.7-8.2Z"/><path id="_193717752" data-name=" 193717752" class="cls-9" d="M287,50.67l-24.8,4.8a11.11,11.11,0,0,1,.1,2.6,10.16,10.16,0,0,1-4.3,7.4l15,14.7Z"/><path id="_193716816" data-name=" 193716816" class="cls-9" d="M262.3,58.07a10.7,10.7,0,1,1-9.7-11.2A10.51,10.51,0,0,1,262.3,58.07Z"/><path id="_193712232" data-name=" 193712232" class="cls-6" d="M146.9,281.17a11.31,11.31,0,1,1-11.3-10.9A11.08,11.08,0,0,1,146.9,281.17Z"/><path id="_193711392" data-name=" 193711392" class="cls-6" d="M195.7,244.07c0,6.6-5,12-11.3,12s-11.3-5.4-11.3-12,5-12,11.3-12S195.7,237.37,195.7,244.07Z"/><path id="_193712760" data-name=" 193712760" class="cls-6" d="M248.9,235.27a11.41,11.41,0,1,1-11.4-11.8A11.49,11.49,0,0,1,248.9,235.27Z"/><path id="_193716888" data-name=" 193716888" class="cls-6" d="M103.4,241.07A9.61,9.61,0,1,1,93.8,231C99.1,230.87,103.4,235.47,103.4,241.07Z"/><path id="_193713408" data-name=" 193713408" class="cls-6" d="M223.4,293.77a11.3,11.3,0,1,1-11.3-11.4A11.19,11.19,0,0,1,223.4,293.77Z"/><path id="_193706712" data-name=" 193706712" class="cls-6" d="M166.8,322.37c0,6.2-5.6,11.3-12.6,11.3s-12.6-5-12.6-11.3,5.6-11.3,12.6-11.3S166.8,316.17,166.8,322.37Z"/><path id="_193716456" data-name=" 193716456" class="cls-6" d="M238.4,332.87c0,5.8-4.4,10.5-9.9,10.5s-9.9-4.7-9.9-10.5,4.4-10.5,9.9-10.5S238.4,327.07,238.4,332.87Z"/><path id="_193711944" data-name=" 193711944" class="cls-6" d="M107.5,342.87c0,5.7-5.5,10.3-12.4,10.3s-12.3-4.6-12.3-10.3,5.5-10.3,12.4-10.3S107.5,337.17,107.5,342.87Z"/><path id="_193715040" data-name=" 193715040" class="cls-6" d="M200.6,367.77a12.47,12.47,0,0,1,12.7,12.1c-9.4,0-16.2,0-25.1.2a12.13,12.13,0,0,1,12.4-12.3Z"/><path id="path1330" class="cls-9" d="M150.3,35.27l-24.9,17a9.33,9.33,0,0,1,2.5,5.6,11.24,11.24,0,0,1-.4,4.1l26.8.6Z"/><path id="_193710720" data-name=" 193710720" class="cls-9" d="M86.4,45.87l3.4,30.6,17.9-12.2a9.71,9.71,0,0,1-.9-8.8Z"/><path id="_193717008" data-name=" 193717008" class="cls-9" d="M127.8,57.87a10.59,10.59,0,0,1-9.7,11.4c-6,.6-11.3-3.5-11.9-9.1a10.88,10.88,0,0,1,21.6-2.3Z"/></g></g></g></svg>