<svg xmlns="http://www.w3.org/2000/svg" viewBox="0 0 702.92 19.7"><defs><style>.cls-1{fill:#f58427;}</style></defs><g id="Layer_2" data-name="Layer 2"><g id="Layer_1-2" data-name="Layer 1"><path class="cls-1" d="M1.88,16.5c16.5-3.34,33.64-2.21,50.07-5.95,2.43-.56,9.31-1.8,8.21-5.72S51.54.46,48.45.2C45.59,0,43-.44,40.7,1.63A3.8,3.8,0,0,0,39.46,5.9C41.24,10.66,50,12,54.13,12.79c15.93,3.14,32.72,3.37,48.89,2.57a132.75,132.75,0,0,0,22.4-2.57c2.6-.58,9.34-1.71,9.57-5.37S129.28,2.55,126.85,2A57.38,57.38,0,0,0,117.18.54c-2-.13-3.92-.18-5.88-.13-1.54,0-4.17-.33-5.55.5-2.84,1.69-1.55,5.45.35,7.18,3.86,3.54,10.12,4.83,15.05,5.85,15.15,3.14,31.16,3.31,46.55,2.24,4.37-.3,33.44-1.91,30.12-10.17-1.42-3.55-8.18-4-11.24-4.4-6-.81-13.53-1.68-19.36.27-3.53,1.17-5.73,4.36-2.15,7,4.94,3.65,12.72,4,18.61,4.65a310.93,310.93,0,0,0,52.76,1.09c2.58-.16,28.73-1.89,21.22-9.25-3.52-3.45-12-4-16.45-3.44-2.88.34-9.1,1.85-9.36,5.63-.25,3.44,4.42,5.21,7,6.15,6.84,2.51,14.39,3.2,21.61,3.63a214.6,214.6,0,0,0,48.75-2.82c3.56-.61,7.12-1.31,10.61-2.22,2.84-.74,6.27-1.52,8.66-3.35,3.47-2.67.89-5.38-2.26-6.45a41.29,41.29,0,0,0-19.61-1.43c-2.8.55-8,2.29-8.12,5.86-.16,3.19,3.69,5,6.11,6,6.5,2.74,13.82,3.65,20.8,4.24a185.69,185.69,0,0,0,46-1.88c5.64-.95,12.15-2,17.19-4.85,4.67-2.69,2.81-6.19-1.64-7.43a39.25,39.25,0,0,0-8.78-1.19c-2.71-.12-6.49-.63-8.78,1.08s-3.16,4.17-1.55,6.57c2.15,3.22,6.85,4.68,10.33,5.76a102.55,102.55,0,0,0,22.21,3.81,181.75,181.75,0,0,0,45.17-1.93c3.17-.54,23-3.61,18.5-10.63-2.52-3.93-9.86-4.11-13.86-4.27-5.54-.22-13.38-.19-18.15,3.24-9.27,6.68,14.92,11.11,17.63,11.52,17.05,2.6,34.57,2.35,51.72.9a227.54,227.54,0,0,0,24.54-3.22c4.16-.8,12.61-1.69,15.15-5.83C546.43.14,518.84.34,515.53.52,512.58.68,489.1,2.39,495.62,10c3.55,4.13,11.82,5,16.72,5.77A212.33,212.33,0,0,0,537.53,18c16.93.7,34.2,1,51.06-.9,4.8-.54,11.73-.78,15.78-3.77,3-2.24,1.27-5.16-1.48-6.59-5.76-3-13.41-3.2-19.72-2.82-3.56.22-11.37.36-13.22,4.38-3.77,8.23,26.14,9.05,29.66,9.27,18.57,1.17,37.27,1.36,55.87.85,8-.22,16.18-.4,24-2.15,2.42-.55,10.81-3,6.84-6.92-1.67-1.65-4.86-2-7-2.34a101.46,101.46,0,0,0-11.54-1,137.5,137.5,0,0,0-22.23.53c-2.11.26-9.17.79-8.29,4.48s9,3.76,11.58,4.11c17.39,2.31,35.16,2.67,52.66,3.81,1.93.13,1.92-2.87,0-3-13.86-.9-27.72-1.74-41.57-2.72a108.28,108.28,0,0,1-16.26-2,26.45,26.45,0,0,0-2.7-.75c-.23,0-.53-.36-.75-.36-.45,0-.37.69,0,.73s1.4-.56,1.87-.69a26.81,26.81,0,0,1,3.45-.62,112.74,112.74,0,0,1,15.7-.69A111.26,111.26,0,0,1,679.48,10a16.21,16.21,0,0,1,3.37.8c1.53.67,1.06.77-.39,1.38a32.85,32.85,0,0,1-8.09,1.89,167.87,167.87,0,0,1-18.89,1.29c-13.72.38-27.46.28-41.18-.17-12.28-.42-25.48-.31-37.4-3.67-.71-.2-4.23-1-4.21-2s4.8-1.93,5.54-2.06a47.79,47.79,0,0,1,18.65.38c1.5.35,4.12.77,5.27,1.91.4.4.86.48.77.9-.15.67-2.64,1.22-3.11,1.36a71.78,71.78,0,0,1-14.43,2.4,342.33,342.33,0,0,1-36.52.89c-12.92-.22-26.13-.52-38.85-3-1.55-.31-12.79-2.34-12.34-4.8.39-2.08,8.23-2.9,9.74-3.14a83.71,83.71,0,0,1,16.13-.9,52.53,52.53,0,0,1,8.76,1c1.4.29,5.15.8,5.93,2.24,1.19,2.2-8.67,4.23-10.28,4.59a178.43,178.43,0,0,1-18.69,2.93,274.54,274.54,0,0,1-38.14,1.69c-11.24-.31-23.95-.69-34.51-5-.6-.25-3.67-1.37-3.63-2.3s3.93-1.94,4.71-2.14a42.2,42.2,0,0,1,18.24-.51c1.4.27,4.09.63,5.07,1.81s.14,1.46-1,2.16c-3,1.78-6.58,2.62-9.91,3.38-10.48,2.4-21.38,3.2-32.1,3.39-11.83.2-23.95-.38-35.47-3.24-3.64-.9-7.74-1.94-10.8-4.2-2.44-1.79-1.88-3.87,1.26-4.23a37.69,37.69,0,0,1,7.28.07c1.64.14,5.84.18,7.23,1.37,1,.88.2,1.22-.9,1.77a24.37,24.37,0,0,1-3.77,1.48c-2,.67-4.13,1.2-6.23,1.67a165.47,165.47,0,0,1-32.62,3.48c-11.51.22-23.64,0-34.74-3.33-1.37-.4-8-2.15-7.75-4.42.13-1.1,2.33-1.87,3.15-2.2a21,21,0,0,1,8.14-1.13,50.8,50.8,0,0,1,7.79.6c1.31.2,5.31.47,6.16,1.65.71,1-3.11,2.1-4.26,2.48a79.66,79.66,0,0,1-9.13,2.29,207.5,207.5,0,0,1-34.52,3.84c-11.95.4-24.65.43-36.25-2.8-1.42-.39-8.31-2.16-7.46-4.34.49-1.24,4-1.95,5.08-2.18a26.83,26.83,0,0,1,9.7.28c1.36.24,4.57.6,5.46,1.82.37.51.57.2.36.74s-2,1-2.64,1.23c-4.92,1.55-10.31,1.91-15.42,2.26a347.84,347.84,0,0,1-37.52.11c-6.25-.25-12.51-.61-18.72-1.4-2-.25-16.07-2.46-14.8-4.78.88-1.61,5.61-1.41,7.17-1.49a72.76,72.76,0,0,1,8.09.11,59.62,59.62,0,0,1,7,.87c1.38.26,4.36.51,5.41,1.58,1.34,1.35-1.84,2.23-3.08,2.69a54,54,0,0,1-8.95,2.23A142.57,142.57,0,0,1,166,13.29a199.76,199.76,0,0,1-34.15-.7,84.52,84.52,0,0,1-17-3.38c-1.2-.39-8.6-2.73-7.8-5.08.43-1.25,4.8-.74,6-.73a59.91,59.91,0,0,1,9.65.78,34.78,34.78,0,0,1,6.12,1.48,7,7,0,0,1,2.58,1.2c.61.73.54.14-.17.82-1.11,1.07-3.54,1.45-5,1.82a69.67,69.67,0,0,1-6.88,1.35,168.94,168.94,0,0,1-18.25,1.6,238.48,238.48,0,0,1-37.6-1.23C58,10.56,52.14,9.75,46.86,7.72c-1.16-.44-5.15-1.79-4.45-3.57.84-2.13,6.37-1,8-.73s5.15.49,6.31,1.8c.62.7.6,0-.22.75s-2.2.87-3.11,1.13C47.78,8.69,41.88,9.26,36.12,9.82,24.44,11,12.6,11.27,1.08,13.6c-1.89.39-1.09,3.28.8,2.9Z"/></g></g></svg>