<svg xmlns="http://www.w3.org/2000/svg" xmlns:xlink="http://www.w3.org/1999/xlink" viewBox="0 0 158.28 130"><defs><style>.cls-1{fill:none;}.cls-2{isolation:isolate;}.cls-3{fill:#699cb9;}.cls-4{clip-path:url(#clip-path);}.cls-5{fill:url(#linear-gradient);}.cls-19,.cls-22,.cls-23,.cls-6,.cls-70,.cls-72,.cls-74,.cls-76,.cls-77,.cls-78,.cls-79{opacity:0.55;}.cls-18,.cls-22,.cls-39,.cls-49,.cls-6,.cls-67,.cls-70,.cls-76,.cls-77,.cls-78,.cls-79,.cls-80{mix-blend-mode:screen;}.cls-56,.cls-7{fill:#fff;}.cls-8{fill:#bdc2b9;}.cls-42,.cls-50,.cls-67,.cls-8{opacity:0.75;}.cls-10,.cls-14,.cls-19,.cls-23,.cls-25,.cls-27,.cls-30,.cls-32,.cls-33,.cls-35,.cls-36,.cls-41,.cls-44,.cls-46,.cls-50,.cls-58,.cls-59,.cls-72,.cls-8{mix-blend-mode:multiply;}.cls-10,.cls-9{fill:#f9f6ef;}.cls-11{fill:#f2e7cc;}.cls-12{fill:#7b809b;}.cls-13{fill:#40a8c4;}.cls-14,.cls-41,.cls-44,.cls-56,.cls-80{opacity:0.35;}.cls-14{fill:url(#linear-gradient-2);}.cls-15{fill:#8fccd1;}.cls-16{fill:#4d626a;}.cls-17{fill:#c8d8e1;}.cls-18{fill:#bdd0db;opacity:0.25;}.cls-19{fill:#a1aba2;}.cls-20{fill:#e7a624;}.cls-21,.cls-22{fill:#ffc43a;}.cls-23{fill:#cea73a;}.cls-24{fill:#faf3e9;}.cls-25{fill:#e2e2c9;}.cls-26{fill:#b3b3b3;}.cls-27{fill:#a4a4a4;}.cls-28{fill:#ffdf4d;}.cls-29{fill:#ffab28;}.cls-30{fill:#edd19c;}.cls-31{fill:#246f99;}.cls-32{fill:#bad1e0;}.cls-33{fill:#d6d1cc;}.cls-34{fill:#f6efe4;}.cls-35{fill:#e4d7c4;opacity:0.85;}.cls-36{fill:#989c95;opacity:0.6;}.cls-37{fill:#ffa92f;}.cls-38{fill:#ea8e1a;}.cls-39{fill:#ffffc7;}.cls-39,.cls-49,.cls-58{opacity:0.45;}.cls-40{fill:#ffb54d;}.cls-41{fill:#b88e5e;}.cls-43{fill:#ffae3c;}.cls-44{fill:#ad7b43;}.cls-45{fill:#514e4e;}.cls-46{fill:#4c4949;}.cls-47{fill:#535050;}.cls-48{fill:#7f7d7d;}.cls-49{fill:#ae9c92;}.cls-50{fill:#888079;}.cls-51{fill:#3f3c3c;}.cls-52{fill:#737070;}.cls-53{fill:#918f8f;}.cls-54{opacity:0.65;}.cls-54,.cls-56{mix-blend-mode:overlay;}.cls-55{fill:#7d7b7b;}.cls-57{fill:#aba9a9;}.cls-58,.cls-59{fill:#888886;}.cls-59{opacity:0.32;}.cls-60{fill:#565553;}.cls-61{fill:#8a8a88;}.cls-62{fill:#727070;}.cls-63{fill:#e4e8e9;}.cls-64{fill:#6f6e6c;}.cls-65{fill:#d82831;}.cls-66{fill:#929190;}.cls-67{fill:#c0bfbf;}.cls-68,.cls-70{fill:#615f5f;}.cls-69{fill:#a4a2a2;}.cls-71{fill:#969494;}.cls-72{fill:#bfbebe;}.cls-73{fill:#585555;}.cls-74,.cls-82{fill:#5c595d;}.cls-75{fill:#161117;}.cls-76{fill:#90d5d6;}.cls-77{fill:#edd5a4;}.cls-78{fill:#d6d5d6;}.cls-79{fill:#44b8ba;}.cls-80{fill:#b9b8ba;}.cls-81{fill:#221d23;}.cls-83{fill:url(#radial-gradient);}</style><clipPath id="clip-path"><path class="cls-1" d="M92.93,110.75s57.67-12.31,40.26-71.94c-14.74-50.46-94.74-50.76-117.3-6.46C-.37,64.26,14.66,95,33.3,104.14,45.8,110.28,66.47,111.67,92.93,110.75Z"/></clipPath><linearGradient id="linear-gradient" x1="65.25" y1="122.66" x2="79.85" y2="0.07" gradientUnits="userSpaceOnUse"><stop offset="0.03" stop-color="#bde1f3"/><stop offset="0.98" stop-color="#68bad3"/></linearGradient><linearGradient id="linear-gradient-2" x1="443.92" y1="58.59" x2="439.58" y2="91.71" gradientTransform="matrix(-1, 0, 0, 1, 534.23, 0)" gradientUnits="userSpaceOnUse"><stop offset="0.04" stop-color="#cfc9bd"/><stop offset="0.91" stop-color="#5988a4"/></linearGradient><radialGradient id="radial-gradient" cx="70" cy="65" r="65.67" gradientTransform="translate(-0.52 -3.57) scale(1.01 1.05)" gradientUnits="userSpaceOnUse"><stop offset="0" stop-color="#ce9e6e"/><stop offset="1" stop-color="#875c42"/></radialGradient></defs><g class="cls-2"><g id="Layer_2" data-name="Layer 2"><g id="Layer_2-2" data-name="Layer 2"><path class="cls-3" d="M140,105.24S114,85.81,68.81,86C27,86.14,0,98.81,0,98.81S17.06,125,61.52,129.63C88.71,132.5,129.94,118,140,105.24Z"/><g class="cls-4"><path class="cls-5" d="M92.93,110.75s57.67-12.31,40.26-71.94c-14.74-50.46-94.74-50.76-117.3-6.46C-.37,64.26,14.66,95,33.3,104.14,45.8,110.28,66.47,111.67,92.93,110.75Z"/><g class="cls-6"><path class="cls-7" d="M19.19,61.51a9.83,9.83,0,0,1-2.47.05l-.33,0-.09-.37c-1-3.74-.43-8.74,0-11.38l1,.17c-.31,2-.92,6.85-.1,10.46a12.61,12.61,0,0,0,5.27-1l.3,1.13A16.74,16.74,0,0,1,19.19,61.51Z"/><path class="cls-7" d="M15.94,51.49l-.55-1a38,38,0,0,1,3.93-2.46l1.09-.63.45,1c-.36.22-.73.43-1.11.64A38.12,38.12,0,0,0,15.94,51.49Z"/><path class="cls-7" d="M16.65,56.36l-.54-1a16,16,0,0,1,4.51-2.08l.26,1.14A15.58,15.58,0,0,0,16.65,56.36Z"/><path class="cls-7" d="M21.26,63.52,21,63.05a1.59,1.59,0,0,1-.15-1.61c.34-.6,1.1-.73,2-.69,1.15-1.29,2.14-3,1.66-4.25-.2-.52-.5-.64-.71-.54s-.34.43-.18.94l-1,.43a2,2,0,0,1,.78-2.47c.67-.32,1.58,0,2,1.13.63,1.65-.23,3.47-1.33,4.91,1.81.24,3.17.19,3.53-1.81l1,.21c-.61,3.39-3.34,3-5,2.75L23.14,62a10.26,10.26,0,0,1-1.45,1.25Z"/><path class="cls-7" d="M31.66,53.7l-.42-1.07A19.57,19.57,0,0,1,35.7,50.8L35.89,52A18.77,18.77,0,0,0,31.66,53.7Z"/><path class="cls-7" d="M32.7,56.17l-.14,0L32.48,55a17.27,17.27,0,0,0,4.76-1.44l.35,1.1A19.57,19.57,0,0,1,32.7,56.17Z"/><path class="cls-7" d="M42.93,54.73a3.1,3.1,0,0,1-.49,0h-.32L42,54.43A19.7,19.7,0,0,1,41.1,48c0-.88-.05-1.7-.12-2.47l1-.14c.07.8.1,1.65.13,2.55a21,21,0,0,0,.66,5.62h.06c1.47-.21,4.38-1.45,4.92-2.44l.87.61C47.85,53.18,44.62,54.49,42.93,54.73Z"/><path class="cls-7" d="M41.51,47.24l-.82-.7c1.12-1.69,3.3-2.69,6.64-3.06l.08,1.17C44.38,45,42.44,45.83,41.51,47.24Z"/><path class="cls-7" d="M41.45,50.8a5.14,5.14,0,0,1-.55.06l0-1.17A14.13,14.13,0,0,0,44,49a16.13,16.13,0,0,1,3.23-.75l.06,1.17a14.25,14.25,0,0,0-3,.72A17.61,17.61,0,0,1,41.45,50.8Z"/><path class="cls-7" d="M50.26,56.11a1.35,1.35,0,0,1-1-.28,2.41,2.41,0,0,1-.71-1.09l-.41-.33.23-.37a5.18,5.18,0,0,1,0-1.62l1,.21s0,.08,0,.12A2.41,2.41,0,0,1,50.54,52a1.24,1.24,0,0,1,1.08.3,1.79,1.79,0,0,1,.6,1.49,2.68,2.68,0,0,1-1,2A2.06,2.06,0,0,1,50.26,56.11Zm-.81-1.84a1.28,1.28,0,0,0,.35.58c.08.06.31.25.85-.14a1.39,1.39,0,0,0,.55-1,.57.57,0,0,0-.2-.49.39.39,0,0,0-.31-.09C50.29,53.21,49.82,53.76,49.45,54.27Z"/><path class="cls-7" d="M57.24,54.91a1.29,1.29,0,0,1-.68-.1A3.11,3.11,0,0,1,55,51.4a2.81,2.81,0,0,1,1-1.31,3.61,3.61,0,0,1-.9-3.63c.44-1.36,2.06-2.48,3.15-2.19.29.08,1.22.48,1,2.22l-1-.14c.06-.56,0-.87-.27-.94-.55-.14-1.67.58-1.95,1.44-.33,1,.09,1.71.86,2.62a22.08,22.08,0,0,1,3.21-1.35,14.12,14.12,0,0,0,2.27-.95l1.74-1.1L63,48a5.49,5.49,0,0,0-.55,3.39s.29,0,1-.79l.7.85c-1,1.09-1.78,1.38-2.33.85s-.52-2.25-.17-3.53l-1.26.47a24.93,24.93,0,0,0-2.76,1.12,3.41,3.41,0,0,1,.77,3.44A1.5,1.5,0,0,1,57.24,54.91Zm-.59-4a1.78,1.78,0,0,0-.71.85,2,2,0,0,0,1,1.92c.19.08.35.11.5-.32C57.75,52.43,57.37,51.78,56.65,50.93Z"/><path class="cls-7" d="M63.05,45.6h0l-.16,0-.41,0-.1-.45a4,4,0,0,1-.11-.87c0-1.1.62-1.31.91-1.35a3.16,3.16,0,0,1,.75,0l.34,0,.09.38a1.89,1.89,0,0,1-.15,1.44A1.54,1.54,0,0,1,63.05,45.6Z"/><path class="cls-7" d="M64.74,54.21,65,51.27a16.69,16.69,0,0,1,.83-4.58l.92.51A7.85,7.85,0,0,0,66.25,49a5.78,5.78,0,0,1,1.8-1.55l.42-.23.23.46a4.46,4.46,0,0,1,.14,2.66c0,.27-.08.54-.1.79l.14.52a1.35,1.35,0,0,1-.74.06l-.45-.1,0-.52c0-.29.07-.61.12-.94A6.81,6.81,0,0,0,68,48.87a7,7,0,0,0-2,2.73Z"/><path class="cls-7" d="M73.83,57.67a1.68,1.68,0,0,1-1-.9c-1-1.9-.78-6.36-.51-7.73.06-.28,1.36-6.73,4-7.77l.33,1.09c-1.57.63-2.86,4.49-3.34,6.93-.27,1.38-.41,5.39.38,6.84q.18.34.39.39Z"/><path class="cls-7" d="M81.7,50.3a1.67,1.67,0,0,1-1.57-.59,2.23,2.23,0,0,1-.33-.51,4.28,4.28,0,0,1-.38.62,1.6,1.6,0,0,1-1.49.8c-1.35-.14-1.44-2.34-1.5-3.8,0-.27,0-.52,0-.7l1-.14c0,.2,0,.48,0,.79,0,.72.11,2.64.58,2.69.2,0,.42-.12.64-.41a4.77,4.77,0,0,0,.71-1.79,8.56,8.56,0,0,1,.07-1.46l.38-2.87.6,2.82a4.29,4.29,0,0,1,0,1.59,2.77,2.77,0,0,0,.46,1.55.75.75,0,0,0,.76.24c.54-.09,1.06-.86,1.21-1.78.05-.31.15-1.34-.51-1.77l.49-1a2.92,2.92,0,0,1,1,3c-.19,1.18-.91,2.53-2,2.73Z"/><path class="cls-7" d="M87.34,49.88a.93.93,0,0,1-.68-.14c-1.14-.74-.77-3.7-.17-7.49a17.93,17.93,0,0,0,.27-2l1-.15a12.54,12.54,0,0,1-.28,2.42c-.23,1.44-.93,5.86-.33,6.25,0,0,.29.09,1.17-.82l.68.86A3.38,3.38,0,0,1,87.34,49.88Z"/><polygon class="cls-7" points="89.69 43.88 84.03 44.67 83.91 43.51 89.57 42.73 89.69 43.88"/><polygon class="cls-7" points="96.8 45.63 92.82 46.18 92.69 45.03 96.67 44.47 96.8 45.63"/><path class="cls-7" d="M99,49.45,98.07,49a2.76,2.76,0,0,1,.08-.27l.46-1.4c.38-1.2.78-2.42,1.2-3.62l-.21.11-.4-1.07a6,6,0,0,0,1.25-.85c.08-.25.16-.53.25-.83.78-2.59,1.51-4.76,2.64-5.09l.44-.13.16.51c.67,2.24-1,4.74-2.65,6.26,0,.12-.08.23-.11.33-.27.69-.51,1.4-.75,2.11A9.51,9.51,0,0,1,104,42.77l0-.1.39-.06.24,0,.21,1.13a8.84,8.84,0,0,0-5.74,5.44Zm4.08-11.81a12.88,12.88,0,0,0-1,2.52A5.33,5.33,0,0,0,103.09,37.64Z"/><path class="cls-7" d="M104.38,48.47a2.31,2.31,0,0,1-1.43-.33,5,5,0,0,1-2.41-3.66l1-.06a3.89,3.89,0,0,0,1.83,2.67,1.13,1.13,0,0,0,1.27,0l.59,1A1.73,1.73,0,0,1,104.38,48.47Z"/><path class="cls-7" d="M111.67,48.22c-1,0-2-1.61-3.4-4.1-.46-.79-.89-1.55-1.19-1.94l.74-.76a22.87,22.87,0,0,1,1.28,2.07c.66,1.15,2,3.53,2.54,3.57Z"/><path class="cls-7" d="M107,49.09l-.17-1.15c.57-.11,1.17-1.55,1.7-2.82.7-1.66,1.41-3.37,2.56-4l.44,1c-.84.45-1.51,2-2.1,3.46C108.71,47.31,108.05,48.89,107,49.09Z"/><polygon class="cls-7" points="121.83 44.66 115.43 45.55 115.29 44.4 121.69 43.51 121.83 44.66"/><path class="cls-7" d="M124.82,52.66l-.06-.86c-.06-.8-.17-1.68-.28-2.58a38.92,38.92,0,0,1-.38-4.36c-1.66-.61-1.8-2.35-1.95-4.31l0-.24,1-.08,0,.24c.13,1.72.21,2.73,1,3.19a5.55,5.55,0,0,1,2.17-3.57,2,2,0,0,1,2.22-.11,1.88,1.88,0,0,1,1.06,2c-.3,1.65-2.83,3.09-3.93,3.1a5.17,5.17,0,0,1-.57,0c0,1.27.21,2.66.37,4,.11.87.22,1.73.28,2.53l.13.14a.82.82,0,0,1-.39.53Zm.29-8.74a4.27,4.27,0,0,0,.52,0c.81,0,2.82-1.27,3-2.21,0-.11.07-.38-.52-.73a1.16,1.16,0,0,0-1.29.1A4.46,4.46,0,0,0,125.11,43.92Z"/><path class="cls-7" d="M128.11,51.37a.49.49,0,0,1-.49-.23.73.73,0,0,1,0-.82l.08-.15.14-.06c2.61-1.21,5.52-3,4.89-6-.5-2.43-3-5-5.15-6.59l.51-1c1.13.83,4.88,3.82,5.6,7.31.91,4.36-3.72,6.52-5.46,7.33l-.11-.28-.22.27a.4.4,0,0,0,.36.14Z"/><path class="cls-7" d="M17,39.4l-.1-.68a49.77,49.77,0,0,1,0-11l1,.08a50.94,50.94,0,0,0-.1,10.06l1-.4a15.23,15.23,0,0,0,3.68-1.72l.67.86a13.34,13.34,0,0,1-4.05,2c-.61.23-1.18.44-1.59.63Z"/><path class="cls-7" d="M17.54,33.69l-.39-1a15.55,15.55,0,0,1,3-1.05,13.6,13.6,0,0,0,2.51-.86l.41,1.05a13.88,13.88,0,0,1-2.71.94A15.45,15.45,0,0,0,17.54,33.69Z"/><path class="cls-7" d="M17.83,29l-.32-1.09c.67-.28,1.34-.63,2-1a12.88,12.88,0,0,1,4.11-1.59l.1,1.14A11.92,11.92,0,0,0,19.9,28C19.24,28.34,18.55,28.7,17.83,29Z"/><path class="cls-7" d="M25.42,40.85l-.5-1a6.52,6.52,0,0,1,.59-.42c.59-.41.9-.64,1.07-1.13a7.6,7.6,0,0,0,.09-2.81l0-.29a17.45,17.45,0,0,1-1.27,1.63L24.65,36a11.45,11.45,0,0,0,2-3l1.42-3.56-.45,3.85a10.47,10.47,0,0,0,.06,2.06,9.08,9.08,0,0,1-.11,3.22l.62-.26c.42-.17.85-.34,1.26-.52l.35,1.09-1.29.54A22.64,22.64,0,0,0,25.42,40.85Z"/><path class="cls-7" d="M35.79,31.48a3.51,3.51,0,0,1-.41,0l0-1.15a13.36,13.36,0,0,0,4.79-1.47l.75.77C40.29,30.42,37.32,31.28,35.79,31.48Z"/><path class="cls-7" d="M38.71,33.93c-.51.07-1,.1-1.56.14s-.92.06-1.34.12L35.71,33c.44-.05.91-.09,1.4-.12a7.88,7.88,0,0,0,3.31-.67l.45,1A5.92,5.92,0,0,1,38.71,33.93Z"/><path class="cls-7" d="M49.23,30.84a7.5,7.5,0,0,1-.95.08h-.44l-.05-.5a35.85,35.85,0,0,1,.1-8.26l1,.2a33.32,33.32,0,0,0-.13,7.39c1.67-.13,4.67-1,5-1.9l.95.38C54.15,29.85,51,30.61,49.23,30.84Z"/><path class="cls-7" d="M48.87,23.69l-.46-1c.1-.06,2.42-1.43,3.66-1.06l-.27,1.11A5.42,5.42,0,0,0,48.87,23.69Z"/><path class="cls-7" d="M48.47,28.63c-.24,0-.48.06-.72.07l0-1.15a16.4,16.4,0,0,0,3.6-.76A25.37,25.37,0,0,1,54,26.13l.14,1.14a24.11,24.11,0,0,0-2.57.64A21.84,21.84,0,0,1,48.47,28.63Z"/><path class="cls-7" d="M57.52,33.47a2,2,0,0,1-.64,0c-.82-.15-1.25-.53-1.27-1.12,0-.87,1-1.7,1.91-2.22l-.06-.19a2.49,2.49,0,0,1,.84-.22,2.29,2.29,0,0,1,.36-.14l0,.16a1.07,1.07,0,0,1,.65.41,1.86,1.86,0,0,1,0,1.91A2.45,2.45,0,0,1,57.52,33.47Zm-.86-1.26a1.61,1.61,0,0,0,.38.1,1.33,1.33,0,0,0,1.41-.82.82.82,0,0,0,.12-.59s0,0-.1,0A5.7,5.7,0,0,0,56.66,32.21Z"/><path class="cls-7" d="M64.36,32.61a1.31,1.31,0,0,1-.59,0,1.62,1.62,0,0,1-1-1.72A2.24,2.24,0,0,1,64,29.15,3.23,3.23,0,0,1,63,26.73,2,2,0,0,1,64.59,25a2.37,2.37,0,0,1,2.57,1.23l-.87.58a1.43,1.43,0,0,0-1.53-.68.87.87,0,0,0-.74.76c-.07.46.33,1,.76,1.55l.12.16c.58-.29,1.22-.56,1.86-.82A9.46,9.46,0,0,0,68.52,27l1.28-1-.52,1.68a5.81,5.81,0,0,0-.18,2.44A.25.25,0,0,0,69,30l-.35,1.08c-.67-.29-.66-1.58-.53-2.58l-1,.42c-.39.16-1,.41-1.58.69a2.25,2.25,0,0,1,.06,2.09A1.62,1.62,0,0,1,64.36,32.61Zm.24-2.54c-.49.29-.84.58-.85.83s.09.49.29.55a.55.55,0,0,0,.66-.33A1,1,0,0,0,64.6,30.07Z"/><path class="cls-7" d="M69.12,25.54a.87.87,0,0,1-.57-.11c-.21-.13-.69-.54-.58-1.68l.5.07a2.22,2.22,0,0,1,1-1.25l.48-.23.19.55a2.22,2.22,0,0,1-.39,2.29A1.14,1.14,0,0,1,69.12,25.54Z"/><path class="cls-7" d="M70.9,33.28l.35-2.35c.06-.4.11-.82.16-1.25a14,14,0,0,1,1-4.43l.87.57a10.84,10.84,0,0,0-.8,3.34,14.08,14.08,0,0,1,2.12-2.05l.66-.51.11.9a11,11,0,0,1,0,2.68l-.18,0,.07.46a.29.29,0,0,0,.17-.1c-.2.29-.4.38-.62.32a.68.68,0,0,1-.43-.62V30a11.9,11.9,0,0,0,.09-1.37,14.48,14.48,0,0,0-2.3,2.7Zm4.23-3.53,0,.29.19,0A.51.51,0,0,0,75.13,29.75Z"/><path class="cls-7" d="M79.89,29.44a.91.91,0,0,1-.49-.06,1.37,1.37,0,0,1-.67-1c-.35-1.31-.2-4.32.25-5l.81.66c-.31.6-.38,3.85,0,4.3.71-.44,1.71-3.08,2.14-4.75l1,.26c-.27,1.66-.26,2.69,0,3.06a.39.39,0,0,0,.38.14c1,0,1.23-1.33,1.54-3.12a5.16,5.16,0,0,1,.68-2.25l.73.79a5.1,5.1,0,0,0-.43,1.69c-.28,1.65-.68,3.91-2.46,4a1.35,1.35,0,0,1-1.19-.53,2,2,0,0,1-.33-.7,5.22,5.22,0,0,1-1.58,2.34A1,1,0,0,1,79.89,29.44Z"/><path class="cls-7" d="M89.25,27.77a4.16,4.16,0,0,1-.61,0l-.39,0-.08-.44c-.4-2.24-.49-6.64,1-9l.81.67c-1.13,1.79-1.2,5.33-.88,7.59a3.38,3.38,0,0,0,2.36-1.32l.78.72A4.52,4.52,0,0,1,89.25,27.77Z"/><polygon class="cls-7" points="93.56 21.81 86.64 22.73 86.52 21.6 93.43 20.68 93.56 21.81"/><path class="cls-7" d="M15.49,84h0a1.56,1.56,0,0,1-1.41-.35c-1.31-1.35-.11-9.39.61-10.65l.87.63c-.69,1.23-1.46,8.38-.76,9.09,0,0,.15.14.61.07a10.2,10.2,0,0,0,4.93-2.94l.82.71A11.32,11.32,0,0,1,15.49,84Z"/><path class="cls-7" d="M15.17,74.53l-.4-1.1a20.22,20.22,0,0,1,6.49-2.17l.08,1.2A19.13,19.13,0,0,0,15.17,74.53Z"/><path class="cls-7" d="M14.71,79.49l-.16-1.19a46.79,46.79,0,0,0,6.62-2.16l.31,1.14A46.83,46.83,0,0,1,14.71,79.49Z"/><path class="cls-7" d="M25.28,79.74l-.49-1a12.78,12.78,0,0,1,4.93-2.19l.11,1.2A11.83,11.83,0,0,0,25.28,79.74Z"/><path class="cls-7" d="M26.12,81.49,26,80.3A19.42,19.42,0,0,0,29.61,79l1.56-.66.31,1.15c-.51.2-1,.42-1.53.65A19.44,19.44,0,0,1,26.12,81.49Z"/><path class="cls-7" d="M35.83,79.68a2,2,0,0,1-2-.71c-1-1.25-1-6.59,0-7.93l.79.75c-.63.87-.62,5.55,0,6.35.76,1,2.71-.18,4.13-1l.95-.54V76.4h1a.66.66,0,0,0,0,.15,2.15,2.15,0,0,1,0,.51l-.05.35-.28.13c-.35.16-.77.41-1.22.67A10.22,10.22,0,0,1,35.83,79.68Z"/><path class="cls-7" d="M33.57,72.49l-.39-1.11c.6-.3,1.19-.65,1.81-1a12.51,12.51,0,0,1,4-1.84l.14,1.19a11.41,11.41,0,0,0-3.68,1.71C34.84,71.78,34.21,72.17,33.57,72.49Z"/><path class="cls-7" d="M33.62,77.33l-.39-1.11a41.2,41.2,0,0,1,6.15-2.52l.25,1.16A40.91,40.91,0,0,0,33.62,77.33Z"/><path class="cls-7" d="M42.25,83.9l-.22-1a12.76,12.76,0,0,1-.12-3.71,6.39,6.39,0,0,1-2.1,1.51l-.31-1.15a6.13,6.13,0,0,0,2.77-2.7l1.65-3.66-.69,4A17,17,0,0,0,43,82.07l.46.31a3.78,3.78,0,0,1-.52.78Z"/><path class="cls-7" d="M47.9,76.49l-.14-1.19L49,75.11c1.51-.23,3.58-.53,4.49-1.19l.54,1C52.65,76,49.6,76.18,47.9,76.49Z"/><path class="cls-7" d="M49.78,77.69c-.56-1-.31-4.47.26-5.52l.87.64A8.54,8.54,0,0,0,50.66,77Z"/><path class="cls-7" d="M58.2,77.51c-.57.08-.74-.05-.86-.14-1.67-1.28-.2-8.94-.14-9.26l1,.25c-.62,3.23-.89,7.53-.28,8,.76.15,5.91-2.35,6.42-3l.21.22.72.27c-.32,1.08-4.92,3-5,3A10,10,0,0,1,58.2,77.51Z"/><path class="cls-7" d="M56.64,70l-.42-1.08a25.76,25.76,0,0,1,4.42-1.76c.87-.28,1.78-.58,2.65-.93l.07.27.2-.3a.34.34,0,0,0-.3-.1.52.52,0,0,1,.71.23.74.74,0,0,1-.14.86l-.09.11-.13,0c-.89.37-1.81.67-2.71,1A25,25,0,0,0,56.64,70Z"/><path class="cls-7" d="M57.16,74.33l-.3-1.14a32.7,32.7,0,0,1,3.15-1A20.32,20.32,0,0,0,63.85,71l.42,1.09a20.72,20.72,0,0,1-4,1.34C59.16,73.7,58.05,74,57.16,74.33Z"/><path class="cls-7" d="M63.06,80.62l-.21-.44a1.49,1.49,0,0,1-.06-1.41c.38-.66,1.27-.7,2.29-.61a2.68,2.68,0,0,0,1.12-2c0-.44-.1-.75-.27-.83a.36.36,0,0,0-.42.11.83.83,0,0,0-.14.8l-1,.36a2.11,2.11,0,0,1,.44-2,1.29,1.29,0,0,1,1.51-.34c.27.14.88.59.89,1.91a3.4,3.4,0,0,1-.74,2.13c1.23,0,1.94,0,2.27-1.42l1,.3c-.57,2.46-2.24,2.38-3.47,2.31H66a3.71,3.71,0,0,1-.48,0h-.14a8.37,8.37,0,0,1-1.88,1Z"/><path class="cls-7" d="M73,72.61l-.45-1.07a15,15,0,0,1,4.79-1.73L77.44,71A14.09,14.09,0,0,0,73,72.61Z"/><path class="cls-7" d="M73,75.46l-.22-1.17a40.7,40.7,0,0,0,5.75-2l.35,1.12A41.33,41.33,0,0,1,73,75.46Z"/><path class="cls-7" d="M80.5,75.4l-.08-.63c-.26-2-.46-4-.64-5.9-.09-.86-.17-1.72-.26-2.58l1-.15c.09.87.18,1.73.26,2.6.17,1.71.34,3.48.56,5.21l.2-.06c1.62-.42,4.32-1.13,5.27-2.15l.69.88c-1.15,1.24-3.8,1.93-5.74,2.44Z"/><path class="cls-7" d="M80.25,67.75l-.87-.61c.62-1.23,2.41-1.65,4.13-2.06a11.16,11.16,0,0,0,2.17-.65l.4,1.09a11.93,11.93,0,0,1-2.37.73C82.35,66.57,80.65,67,80.25,67.75Z"/><path class="cls-7" d="M80.56,71.31l-.23-.54-.06-.6a33.3,33.3,0,0,1,6-1.66l.12,1.18A33.2,33.2,0,0,0,80.56,71.31Z"/><path class="cls-7" d="M89.19,76.53a1.42,1.42,0,0,1-.58,0A1.49,1.49,0,0,1,87.5,75.4a1.77,1.77,0,0,1-.06-.56l-.3-.12a2.78,2.78,0,0,1,.82-1.3,1.88,1.88,0,0,1,.18-.24l0,0a2.49,2.49,0,0,1,1.22-.44,1.53,1.53,0,0,1,1.59.84,1.89,1.89,0,0,1-.38,1.94A2.13,2.13,0,0,1,89.19,76.53Zm-.52-2.24a1,1,0,0,0-.2.75.46.46,0,0,0,.34.3,1.06,1.06,0,0,0,1-.53c.24-.34.29-.57.26-.64s-.27-.21-.63-.19A1.55,1.55,0,0,0,88.67,74.29Z"/><path class="cls-7" d="M100.25,73.86a21.88,21.88,0,0,0-5.94.66l-.67.14.07-.78a54.84,54.84,0,0,0-.36-9.11c-.06-.61-.11-1.22-.16-1.83l0-.54.46-.09c1.14-.24,2.31-.39,3.45-.54l1.39-.19.14,1.17-1.41.19c-1,.13-2,.26-2.93.44l.12,1.27a61.35,61.35,0,0,1,.41,8.56,21.43,21.43,0,0,1,5.51-.54Z"/><path class="cls-7" d="M102.53,73.39a1.14,1.14,0,0,1-.65-.11,3.06,3.06,0,0,1-1.3-2l-.09-.4.29-.23a11.62,11.62,0,0,1,1.46-1c-.07-.23-.15-.45-.24-.68a6.3,6.3,0,0,0-.37-.69,2.22,2.22,0,0,1,.09-2.95,2.59,2.59,0,0,1,2.34-.81,1.63,1.63,0,0,1,1.25,1l-.9.52a.63.63,0,0,0-.5-.31,1.7,1.7,0,0,0-1.45.46c-.5.63-.41.79,0,1.45a6.33,6.33,0,0,1,.46.87c.07.17.16.41.25.69A32.77,32.77,0,0,1,107,67.72l.73-.25-.08.89c0,.16,0,.34-.06.52-.06.51-.18,1.45,0,1.65s.26.09.63,0l.27,1.15a1.44,1.44,0,0,1-1.57-.25,2.9,2.9,0,0,1-.39-2.3,27.61,27.61,0,0,0-3,1.25c.24,1.09.29,2.3-.46,2.82A1.14,1.14,0,0,1,102.53,73.39Zm-.84-2a1.55,1.55,0,0,0,.58.75.2.2,0,0,0,.24,0c.16-.12.16-.62,0-1.29C102.25,71.05,102,71.24,101.69,71.43Z"/><path class="cls-7" d="M108.4,66.74a2.27,2.27,0,0,1-.64,0l-.32,0-.11-.37c0-.1,0-.21-.08-.31l-.32,0a3.89,3.89,0,0,1,.23-1.12,3.27,3.27,0,0,1,.11-.65l.26.1a.89.89,0,0,1,.73-.24,1.58,1.58,0,0,1,1.17,1.61A1.12,1.12,0,0,1,108.4,66.74Zm-.2-1.17a.46.46,0,0,0,.24-.06s-.06-.09-.14-.17a.35.35,0,0,0-.13-.1A1.84,1.84,0,0,0,108.2,65.57Z"/><path class="cls-7" d="M109.24,72.93l.41-1.84c.11-.47.19-1,.28-1.46.13-.68.26-1.4.44-2.08l1,.36c-.11.42-.2.87-.29,1.32a3.13,3.13,0,0,1,1.5-1.13l.4-.11.18.44a6.24,6.24,0,0,1,.29,1.49,5.56,5.56,0,0,0,.2,1.13.23.23,0,0,0-.25-.09l.28,1.14A.63.63,0,0,1,113,72c-.42-.33-.51-1.07-.61-1.92,0-.19,0-.4-.07-.58a5.36,5.36,0,0,0-1,1.16,11,11,0,0,1-.86,1.06Z"/><path class="cls-7" d="M116.91,74.62a2.38,2.38,0,0,1-2.5-1.14c-1.13-1.86-.46-5.24.46-7.56s2.75-5.09,4.79-5.22l.08,1.17c-1.35.08-2.89,1.89-3.95,4.57s-1.26,5.21-.56,6.35a1.43,1.43,0,0,0,1.56.65Z"/><path class="cls-7" d="M120.4,69.9a1.12,1.12,0,0,1-.85-.22c-1.17-.84-.58-4.56-.55-4.72l1,.24c-.23,1.42-.19,3.24.08,3.48.09.06.2.1.4,0a5.33,5.33,0,0,0,1.48-2.9v-.09l1,0v.1c0,1.65.22,2.23.38,2.31s.48-.08.93-.68c.68-.94,1.15-2.47.72-3.32l.86-.59c.7,1.39.12,3.41-.81,4.69-.69.93-1.44,1.29-2.06,1a1.64,1.64,0,0,1-.78-1A3.94,3.94,0,0,1,121,69.68,1.26,1.26,0,0,1,120.4,69.9Z"/><path class="cls-7" d="M128.92,70a1.25,1.25,0,0,1-.61-.06c-.76-.28-1.37-1.38-1-3.21l.07-.36c.57-3,1.29-6.26,2.52-7.44l.65.91c-1.08,1-1.83,4.94-2.19,6.81l-.07.37c-.21,1.07,0,1.68.31,1.79s.86-.23,1.19-1.33l.95.42C130.32,69.26,129.59,69.89,128.92,70Z"/><path class="cls-7" d="M131.59,63.72a10,10,0,0,1-2.28-.13,5.35,5.35,0,0,0-2.61,0l-.43-1.07a5.66,5.66,0,0,1,3.13-.12,9,9,0,0,0,2.07.13Z"/><path class="cls-7" d="M132.43,67.56l-.15-1.17.29,0a15.24,15.24,0,0,0,2.9-.62l.31,1.13a16.74,16.74,0,0,1-3.06.66Z"/><path class="cls-7" d="M138.33,68.78l-.88-.58a14.41,14.41,0,0,0,.56-2.45l-.47-.62.14-.15.57-.59c.49-2.63,1.16-5.47,3.09-5.61l.54,0v.63c.06,2.3-1.37,4.17-2.72,5.65l-.12.64c0,.08,0,.17,0,.26.15-.17.3-.34.45-.49a17,17,0,0,1,2.11-1.52l.38-.26.24.44-.19-.48.68.27c.23.51-.09.71-.61,1.06a19.07,19.07,0,0,0-1.94,1.39A10.16,10.16,0,0,0,138.33,68.78Zm2.5-8.56a5.19,5.19,0,0,0-1.2,2.54A6.38,6.38,0,0,0,140.83,60.22Z"/><path class="cls-7" d="M142.68,69.68a3.15,3.15,0,0,1-2.1-.27,4.14,4.14,0,0,1-1.16-1.67,4.54,4.54,0,0,0-.44-.81l.73-.77a5.36,5.36,0,0,1,.57,1,3.36,3.36,0,0,0,.8,1.22,3,3,0,0,0,2.4-.23.35.35,0,0,0,0,.26l.93-.37a1,1,0,0,1-.27,1.05A2.76,2.76,0,0,1,142.68,69.68Z"/><path class="cls-7" d="M147.59,69.83c-1.69-.73-2.53-2.63-3.27-4.31-.18-.41-.36-.81-.54-1.18l.85-.57c.2.39.38.81.57,1.23.69,1.56,1.4,3.16,2.7,3.73Z"/><path class="cls-7" d="M144.32,70.49l-.93-.48a9.72,9.72,0,0,1,1.77-2.75,6,6,0,0,0,1.74-3.14l1,.13a7,7,0,0,1-2,3.84A8.51,8.51,0,0,0,144.32,70.49Z"/><path class="cls-7" d="M147.23,73.66l-.61-1c1.7-1.51,2.95-4.75,2.92-7.52a6.24,6.24,0,0,0-1.81-4.58l.59-.91a7.35,7.35,0,0,1,2.21,5.51C150.57,68.36,149.19,71.92,147.23,73.66Z"/><path class="cls-7" d="M158.28,67.33a17.43,17.43,0,0,1-1.93-.1,10.46,10.46,0,0,0-2.85,0l-.19-1.16a12.23,12.23,0,0,1,3.08,0,16.16,16.16,0,0,0,1.83.1Z"/><path class="cls-7" d="M155.56,69.36l-1-.34a34.24,34.24,0,0,0,.79-5l1,.14A35.6,35.6,0,0,1,155.56,69.36Z"/><path class="cls-7" d="M25.37,102.47l-.95-.5a10.16,10.16,0,0,0,.36-3.8c0-1.81-.08-3.67.76-5.12l.87.66c-.65,1.11-.61,2.77-.58,4.38A11.19,11.19,0,0,1,25.37,102.47Z"/><path class="cls-7" d="M22.25,98.48l-.32,0-.06-1.23a16.73,16.73,0,0,0,2-.39,10,10,0,0,1,3.56-.42l-.15,1.23a8.72,8.72,0,0,0-3.23.4C23.44,98.25,22.85,98.39,22.25,98.48Z"/><path class="cls-7" d="M32.16,101.64a2.57,2.57,0,0,1-2.49-.64c-.21-.31-.45-1,.26-2a2.31,2.31,0,0,1,1.55-.87,4.44,4.44,0,0,1-.86-1.87A3.17,3.17,0,0,1,32,93.09c.51-.2,1.18,0,1.56,1l-1,.51c-.06-.16-.17-.42-.29-.38A1.91,1.91,0,0,0,31.65,96a3.59,3.59,0,0,0,.85,1.61l.27.38c.88-.12,1.44-.28,1.76-.73a5.9,5.9,0,0,1,.34-1.31L36,92.85l-.17,3.32a3.84,3.84,0,0,1-.33,1.46,1.61,1.61,0,0,0,.51,1.52c.44.27,1.2-.05,1.87-1.34l.89.62c-1.11,2.12-2.45,2.31-3.26,1.83a2.34,2.34,0,0,1-1-1.57,3.74,3.74,0,0,1-1.16.41,3.93,3.93,0,0,1,.21,1.68l0,.35-.27.16A3.57,3.57,0,0,1,32.16,101.64Zm-.36-2.33a1.56,1.56,0,0,0-1.06.44,1,1,0,0,0-.23.48c.14.25,1.33.32,2.05.09a2.39,2.39,0,0,0-.3-1.07Z"/><path class="cls-7" d="M36.6,94.89a2.06,2.06,0,0,1-.51,0l-.37,0-.1-.42a5.28,5.28,0,0,1,0-2.34l.22.06a.88.88,0,0,1,.85-.47,1.7,1.7,0,0,1,1.2,1.83A1.4,1.4,0,0,1,36.6,94.89Zm-.06-1.51a2.46,2.46,0,0,0,0,.28c.17,0,.27-.09.28-.16a.76.76,0,0,0-.21-.5,1.4,1.4,0,0,0-.08.39Z"/><path class="cls-7" d="M39.75,102.19l-.11-2.85c0-.53,0-1.07,0-1.62,0-1.21-.06-2.47-.16-3.67l1-.16c.07.94.11,1.9.14,2.85a6,6,0,0,1,1.62-2.22l.53-.4.23.68a10.45,10.45,0,0,1,.33,1.44,4.7,4.7,0,0,0,.57,1.87l.43-.18a1.42,1.42,0,0,1-.22,1.22l-.32.44-.39-.33a4.61,4.61,0,0,1-1.1-2.74c0-.13,0-.26-.07-.39a12.36,12.36,0,0,0-1.58,3.37Z"/><path class="cls-7" d="M50.07,99.83a1.27,1.27,0,0,1-1-.31c-1.24-1.06-1.29-4.51-.71-7.21.64-3,1.95-4.91,3.6-5.24l.16,1.2c-1.2.24-2.22,1.85-2.75,4.31-.59,2.73-.31,5.39.33,5.94.07.06.24.2.64-.09l.53,1A1.87,1.87,0,0,1,50.07,99.83Z"/><path class="cls-7" d="M55.9,94.88a1.4,1.4,0,0,1-.74-.12c-.89-.41-1-2.34-1.06-4.82,0-.41,0-.74,0-.94l1-.16c0,.22,0,.59,0,1,0,.84.08,3.4.44,3.75a.3.3,0,0,0,.38-.06c.6-.58.83-2.8.78-3.91l0-.42,1-.18c0,.1,0,.24,0,.4.14,1.34.55,2.42,1,2.55s.85-.37,1.4-1.27a3.9,3.9,0,0,0,.16-2.4,2,2,0,0,0-.36-.89l-.08.11-.78-.78c.54-.74,1.14-.62,1.5-.3.87.79,1.23,3.59.4,5s-1.71,2-2.52,1.75a1.8,1.8,0,0,1-.93-.81,4.25,4.25,0,0,1-.93,2.12A1.4,1.4,0,0,1,55.9,94.88Z"/><path class="cls-7" d="M66.22,93.35A2.07,2.07,0,0,1,64,92c-.61-1.46-.37-7,1.07-8l.53,1c-.73.52-1.21,5.16-.67,6.45a1.11,1.11,0,0,0,1.36.67,1.49,1.49,0,0,0,1-1.5l1,0a2.68,2.68,0,0,1-1.85,2.67Z"/><path class="cls-7" d="M68.56,87.65a16.47,16.47,0,0,1-2,.12,8.42,8.42,0,0,0-4.12.76l-.47-1.07a9.08,9.08,0,0,1,4.58-.9c.69,0,1.35,0,1.95-.11Z"/><path class="cls-7" d="M73.12,90.55c-.54.08-1.16.15-1.84.21-.5,0-1,.1-1.35.16l-.12-1.21c.39-.06.88-.11,1.4-.16,1.19-.11,3-.29,3.47-.7l.6,1A4.45,4.45,0,0,1,73.12,90.55Z"/><path class="cls-7" d="M71.93,92.78c-1-.53-.84-2.73-.53-5.13,0-.23.06-.42.08-.58l1,.14c0,.17,0,.37-.08.61-.37,2.88-.24,3.68-.06,3.84Z"/><path class="cls-7" d="M79.4,92.31l-1-.22a4,4,0,0,1,.08-.46c.08-.59.12-1.42.16-2.29l0-.67a4.34,4.34,0,0,1-.36.31l-.57-1a10.38,10.38,0,0,0,1-1c.16-1.91.5-3.68,1.42-4.58a2,2,0,0,1,1.74-.54l.45.07v.52c0,1.55-1.39,3.62-2.62,5.06,0,.59-.07,1.18-.1,1.72l.22-.26a2.65,2.65,0,0,1,.53-1A2.69,2.69,0,0,1,83,87.15l3.49.67L83,88.35a4.13,4.13,0,0,0-2.16,1.26c0,.07,0,.14,0,.21a15.33,15.33,0,0,0,1.66.19,12.59,12.59,0,0,1,2.35.35l-.24,1.18a12.55,12.55,0,0,0-2.19-.32,13.58,13.58,0,0,1-2.17-.28l-.31-.08a4.25,4.25,0,0,0-.4,1A4.38,4.38,0,0,1,79.4,92.31Zm1.85-9.23a1,1,0,0,0-.41.25A4,4,0,0,0,80,85.41,8.74,8.74,0,0,0,81.25,83.08Z"/><path class="cls-7" d="M89,90.76a11,11,0,0,1-3.47-5.13l1-.34a10,10,0,0,0,3.06,4.47Z"/><path class="cls-7" d="M85.51,91.63h-1l.37-.89a21.94,21.94,0,0,1,3-4.72c.43-.57.85-1.13,1.25-1.69l.79.76c-.4.58-.84,1.16-1.28,1.74A22.05,22.05,0,0,0,86,90.92l.24.26A1.19,1.19,0,0,1,85.51,91.63Z"/><polygon class="cls-7" points="98.22 87.08 93.82 87.74 93.69 86.54 98.08 85.88 98.22 87.08"/><path class="cls-7" d="M100.28,92.39l-.2-1.13a9.34,9.34,0,0,1,.38-4,1.59,1.59,0,0,1-.27-.12c-1.2-.69-1.3-2.28-1.37-3.55,0-.28,0-.56-.06-.8l1-.15c0,.27,0,.56.07.87.07,1.27.17,2.19.8,2.55a.48.48,0,0,0,.18.06c.12-.36.25-.71.36-1l.11-.29s1-2.85,2.33-2.88c.33,0,.8.16,1.14,1a2.73,2.73,0,0,1-.72,2.75,5.13,5.13,0,0,1-2.49,1.6,10.66,10.66,0,0,0-.54,3l.58.4a5.17,5.17,0,0,1-.64,1Zm3.34-9.33a4.43,4.43,0,0,0-1.39,2.14l-.1.3a2.31,2.31,0,0,0-.1.28,4.5,4.5,0,0,0,1.29-1c.17-.2.71-.88.51-1.39-.09-.24-.17-.31-.18-.31Z"/><path class="cls-7" d="M106.36,92.49a5.77,5.77,0,0,1-1.32,0c-.27,0-.57,0-.88,0l-.08-1.21.37-.06.76-.11v.2c1.09,0,1.66,0,2.24-1a10.77,10.77,0,0,0,.85-3.37,20.71,20.71,0,0,1,.37-2.06c.12-.46.25-.92.38-1.37.2-.73.41-1.47.58-2.21a9.56,9.56,0,0,0-3.14.66l-.37-1.12a12.25,12.25,0,0,1,3.91-.78L111,80l-.15.79c-.2,1.06-.49,2.11-.78,3.13-.12.44-.25.89-.36,1.34a18.61,18.61,0,0,0-.35,1.92,11.29,11.29,0,0,1-1,3.84A2.57,2.57,0,0,1,106.36,92.49Z"/><path class="cls-7" d="M112.49,90.21h-.08l0-.79.64-.18a.9.9,0,0,1-.1.68A.63.63,0,0,1,112.49,90.21Z"/></g></g><path class="cls-8" d="M43.3,93.14,10,107.86s23,7,41.64,16.83c0,0,20.52.36,22-.23,6.52-6.75,19.3-18.28,27-23l-4.12-4.78S56,85.39,43.3,93.14Z"/><path class="cls-9" d="M44.32,91.65,11,106.37s22.94,7,41.64,16.83c7.08-.35,14.17-.32,21.26-.27,6.52-6.75,15.9-15.78,23.58-20.46V95.23S57,83.9,44.32,91.65Z"/><path class="cls-10" d="M34.72,108.76a4.84,4.84,0,0,0,.45-5.63A18.68,18.68,0,0,1,33,96.64l-22,9.73s8,2.42,18.35,6.43C31.11,111.38,32.9,110.07,34.72,108.76Z"/><path class="cls-10" d="M55.38,114.86c3.78-.65,8-2.11,11.9-2,5.24.14,8.13,2.6,11.14,5.55,1.16-1.15,2.37-2.32,3.61-3.48a120.44,120.44,0,0,0-11.45-5.53c-2.3-.93-6.61-2.93-10.24-3.5a71.32,71.32,0,0,1-10.66,5.5,4.89,4.89,0,0,1-.91.24,17.53,17.53,0,0,1-2.11,2.4c-.61.56-1.24,1.08-1.88,1.58A43,43,0,0,0,55.38,114.86Z"/><path class="cls-10" d="M75.29,90.48A9,9,0,0,0,76.5,93.8c2,3.13,5.14,4,7.79,6.36s4.7,4.48,7.32,6.45a62.41,62.41,0,0,1,5.9-4.14V95.23A219.21,219.21,0,0,0,75.29,90.48Z"/><path class="cls-11" d="M73.93,122.93s-6.17-4.73-9.29-7.83l-12,8.1S72.46,123.53,73.93,122.93Z"/><path class="cls-12" d="M36.31,98.61a2.93,2.93,0,0,1-.66-.31l-.08,0,.12-.07a22.9,22.9,0,0,1,4.18-1.77l.2.16a23.08,23.08,0,0,0-3.86,1.61,5.27,5.27,0,0,0,1.75.51l-.34.22A7.78,7.78,0,0,1,36.31,98.61Z"/><path class="cls-12" d="M39.16,96.63l.21-.22c.65,0,1.29.07,1.9.12l.51,0-.26.22-.51,0C40.4,96.7,39.78,96.65,39.16,96.63Z"/><path class="cls-12" d="M37.56,97.47l.22-.22a12.27,12.27,0,0,1,1.94.25l-.35.21A11.2,11.2,0,0,0,37.56,97.47Z"/><path class="cls-12" d="M36.1,99.2l.11-.11a1,1,0,0,1,.56-.28,1.17,1.17,0,0,1,.77.14,4.72,4.72,0,0,0,2-.46c.14-.11.11-.17,0-.18a.66.66,0,0,0-.4.13l-.41-.06a1.84,1.84,0,0,1,1.1-.29c.3,0,.44.2.13.44a4.9,4.9,0,0,1-2.16.61,1.51,1.51,0,0,0,1.59.16l.2.17a2.2,2.2,0,0,1-2.33-.2l-.12-.08c-.35,0-.65,0-.85,0Z"/><path class="cls-12" d="M42.45,99l.27-.22a11.75,11.75,0,0,1,1.82.28l-.36.2A12,12,0,0,0,42.45,99Z"/><path class="cls-12" d="M41.83,99.49l0,0,.4-.2a9.29,9.29,0,0,0,1.77.38l-.31.22A11.58,11.58,0,0,1,41.83,99.49Z"/><path class="cls-12" d="M45,100.56l-.14,0-.09,0,.09-.07a10,10,0,0,1,2-1.14l.83-.4.32.1c-.26.14-.55.27-.86.42a11,11,0,0,0-1.81,1h0a6.27,6.27,0,0,0,2.16.24v.21A6.84,6.84,0,0,1,45,100.56Z"/><path class="cls-12" d="M47.31,99.19l0-.21a5.64,5.64,0,0,1,2.79.35l-.38.2A5,5,0,0,0,47.31,99.19Z"/><path class="cls-12" d="M46.05,99.75l-.17-.06.41-.2a5.61,5.61,0,0,0,1.08.29,8.55,8.55,0,0,1,1.11.29l-.4.19a7.44,7.44,0,0,0-1-.27A9,9,0,0,1,46.05,99.75Z"/><path class="cls-12" d="M46.48,101.73c-.15,0-.18-.13-.17-.18a.42.42,0,0,1,.2-.27v-.11l.19,0a3.3,3.3,0,0,1,.57-.26l.19.16,0,0a2.27,2.27,0,0,1,.61,0c.12,0,.19.1.17.19s-.14.22-.36.32a2.7,2.7,0,0,1-1,.19A1.52,1.52,0,0,1,46.48,101.73Zm.44-.4c-.06,0-.11.1-.11.14s0,.08.28.08a1.18,1.18,0,0,0,.49-.09c.11,0,.12-.08.13-.11s0,0-.05,0A2.42,2.42,0,0,0,46.92,101.33Z"/><path class="cls-12" d="M48.76,102.44a.23.23,0,0,1-.14-.11c-.13-.21.21-.6.78-.76a2.6,2.6,0,0,1,.71-.09c.12-.25.33-.51,1-.7a2.21,2.21,0,0,1,1.57,0s.16.23-.49.48l-.22-.15c.21-.08.3-.14.26-.18a1.63,1.63,0,0,0-1,0,.89.89,0,0,0-.68.53c.44,0,.89.12,1.32.19a6.93,6.93,0,0,0,.92.14l.83,0-.94.18a4.09,4.09,0,0,0-1.31.48,1.41,1.41,0,0,0,.53,0l-.11.23c-.64,0-.95,0-.91-.16s.64-.44,1.17-.6l-.49-.09c-.34-.06-.74-.13-1.12-.17-.12.24-.34.49-1,.67A1.3,1.3,0,0,1,48.76,102.44ZM50,101.7a2.21,2.21,0,0,0-.48,0c-.28.08-.48.33-.42.44s.06.07.25,0A.79.79,0,0,0,50,101.7Z"/><path class="cls-12" d="M53.52,101.66h0l-.05,0-.11,0,.13-.09.26-.15a.92.92,0,0,1,.7-.1.52.52,0,0,1,.18.1l.08.05-.1.07a1.29,1.29,0,0,1-.53.21A1.16,1.16,0,0,1,53.52,101.66Z"/><path class="cls-12" d="M51,103.29l1.09-.46a14.3,14.3,0,0,1,1.79-.65l.07.2c-.23.06-.49.15-.75.24a4.87,4.87,0,0,1,1,0l.19,0-.09.1a2.49,2.49,0,0,1-.88.46l-.29.12-.14.1a.38.38,0,0,1-.22-.09l-.09-.07.19-.08.35-.14.48-.2a6.22,6.22,0,0,0-1.47.19Z"/><path class="cls-12" d="M52.23,105.06c-.08-.07-.06-.17,0-.29a8.86,8.86,0,0,1,2.53-1.37,11.75,11.75,0,0,1,3.66-.77l-.27.23a10.14,10.14,0,0,0-3.22.71,8.7,8.7,0,0,0-2.25,1.2q-.07.09,0,.12Z"/><path class="cls-12" d="M56.88,104.83c-.25-.09-.26-.21-.22-.31a.28.28,0,0,1,.08-.12l-.31,0a1,1,0,0,1-.67-.06c-.31-.2.41-.57.89-.82a1.83,1.83,0,0,0,.22-.13l.32.11-.26.14c-.23.12-.86.45-.75.52a.57.57,0,0,0,.31,0,4,4,0,0,0,.79-.2l.51-.24,1.06-.42-.78.54a2.73,2.73,0,0,1-.54.26.88.88,0,0,0-.4.32s0,.09.12.14a1.81,1.81,0,0,0,.92-.15c.11,0,.49-.2.46-.36l.46-.1c0,.19-.23.43-.73.63a2.64,2.64,0,0,1-1.46.19Z"/><path class="cls-12" d="M58.53,105.49c-.08,0-.12-.06-.14-.12,0-.27,1-.72,2.45-1.27.31-.13.67-.27.74-.31l.31.1a6.71,6.71,0,0,1-.86.37,9.87,9.87,0,0,0-2.16,1s.05,0,.59,0l-.11.23A2.72,2.72,0,0,1,58.53,105.49Z"/><polygon class="cls-12" points="61.15 104.78 59.39 104.18 59.74 103.97 61.5 104.57 61.15 104.78"/><polygon class="cls-12" points="62.48 105.99 61.23 105.57 61.57 105.36 62.82 105.78 62.48 105.99"/><path class="cls-12" d="M61.81,106.93l-.12-.19.12,0,.58-.18,1.51-.46h-.09l.24-.24a3.78,3.78,0,0,0,.61,0l.33-.11a6.6,6.6,0,0,1,2.32-.51l.16,0-.12.11a5.16,5.16,0,0,1-2.7.71l-.14,0-.89.27a6.45,6.45,0,0,1,1.72.07l0,0,.12,0,.08,0-.32.22a7.17,7.17,0,0,0-3.32.19Zm4.92-1.48a8.87,8.87,0,0,0-1.08.29A4.11,4.11,0,0,0,66.73,105.45Z"/><path class="cls-12" d="M63.58,107.46a.39.39,0,0,1-.27-.24c-.11-.29.13-.7.54-.94l.29.12c-.28.16-.46.48-.38.69a.31.31,0,0,0,.33.18l-.15.24A1,1,0,0,1,63.58,107.46Z"/><path class="cls-12" d="M65.63,108.38c-.26-.13,0-.54.42-1.16.13-.2.25-.39.3-.49l.44,0a3.2,3.2,0,0,1-.32.53c-.19.28-.59.88-.47,1Z"/><path class="cls-12" d="M64.08,107.91l.33-.22a5,5,0,0,0,1.38-.27,6.72,6.72,0,0,1,2-.36l-.22.24a6.46,6.46,0,0,0-1.67.33A4.27,4.27,0,0,1,64.08,107.91Z"/><polygon class="cls-12" points="69.54 109.08 67.52 108.4 67.84 108.18 69.86 108.86 69.54 109.08"/><path class="cls-12" d="M67.78,110.91l.26-.17.76-.5c.42-.29.85-.58,1.28-.83-.25-.32.26-.65.84-1l.07-.05.29.12-.07,0c-.5.32-.8.51-.73.69a4.37,4.37,0,0,1,1.7-.34c.36,0,.58.1.64.27s-.17.42-.34.49a3.64,3.64,0,0,1-2,0l-.15-.08c-.4.23-.79.5-1.18.77l-.74.49v0a.67.67,0,0,1-.28.05Zm2.88-1.53.13.07a3.2,3.2,0,0,0,1.51,0,.15.15,0,0,0,.09-.2q-.06-.14-.39-.15A3.67,3.67,0,0,0,70.66,109.38Z"/><path class="cls-12" d="M69.1,111.11c-.09,0-.08-.08-.06-.11s.12-.11.27-.14l.07,0h.06c1.1.13,2.46.19,3.24-.44a2,2,0,0,0,.65-1.83l.44-.1a2.16,2.16,0,0,1-.75,2c-1.13.9-3.08.68-3.82.6l.06-.07-.15,0a.06.06,0,0,0,.06.07Z"/><path class="cls-12" d="M53.75,99.29l.21-.11a32.19,32.19,0,0,1,3.78-1.6l.23.14a32.05,32.05,0,0,0-3.46,1.44l.41.07a9.55,9.55,0,0,0,1.53.19l-.13.21a9.34,9.34,0,0,1-1.71-.2L54,99.32Z"/><path class="cls-12" d="M55.85,98.52l.26-.2a8.92,8.92,0,0,1,1.12.21,6.61,6.61,0,0,0,.93.18l-.26.2a7,7,0,0,1-1-.19A8.86,8.86,0,0,0,55.85,98.52Z"/><path class="cls-12" d="M57.52,97.88l.28-.19.83.1a7.47,7.47,0,0,1,1.56.26l-.36.18A7,7,0,0,0,58.38,98C58.09,98,57.8,97.92,57.52,97.88Z"/><path class="cls-12" d="M55.39,100.54l.22-.21h.3a2.25,2.25,0,0,0,.66,0,5.19,5.19,0,0,0,1-.41l.09,0-.88.08.09-.2a12.53,12.53,0,0,0,1.54-.2L60,99.18l-1.41.51a6.62,6.62,0,0,0-.68.31,6.68,6.68,0,0,1-1.13.46l.24,0,.5.08-.28.21-.52-.08A11.56,11.56,0,0,0,55.39,100.54Z"/><path class="cls-12" d="M61.23,100.42l-.12,0,.38-.17a7.09,7.09,0,0,0,1.71.36l-.06.21A7.09,7.09,0,0,1,61.23,100.42Z"/><path class="cls-12" d="M61.16,101.14l-.45-.17a3,3,0,0,0-.38-.15l.36-.18a2.74,2.74,0,0,1,.4.15,3.77,3.77,0,0,0,1.07.3l-.23.21A3.09,3.09,0,0,1,61.16,101.14Z"/><path class="cls-12" d="M64.88,102l-.27-.1-.11-.06.15-.08a21,21,0,0,1,2.7-1.21l.19.15a19.51,19.51,0,0,0-2.42,1.08,4.74,4.74,0,0,0,1.88.32l.12.17A4.5,4.5,0,0,1,64.88,102Z"/><path class="cls-12" d="M67.11,100.85l.21-.2a3.33,3.33,0,0,1,1.27.29l-.43.13A3,3,0,0,0,67.11,100.85Z"/><path class="cls-12" d="M65.41,101.54l-.21-.08.37-.17a7.72,7.72,0,0,0,1.16.32c.31.07.62.14.9.23l-.33.18c-.27-.08-.57-.15-.87-.21S65.72,101.64,65.41,101.54Z"/><path class="cls-12" d="M66.15,103.39a.42.42,0,0,1-.16-.09c-.16-.12-.15-.23,0-.33a2.94,2.94,0,0,1,1.22-.1l0,0a.81.81,0,0,1,.29.07l.14,0,0,0a.11.11,0,0,1,0,.14,1,1,0,0,1-.63.29A2.08,2.08,0,0,1,66.15,103.39Zm.19-.3.07.06a.93.93,0,0,0,.63,0,.51.51,0,0,0,.22-.08,0,0,0,0,0,0,0A4.67,4.67,0,0,0,66.34,103.09Z"/><path class="cls-12" d="M68.2,104.1a.37.37,0,0,1-.14-.08c-.1-.11,0-.27.29-.39a1.94,1.94,0,0,1,.87-.11.86.86,0,0,1,.53-.49,1.66,1.66,0,0,1,1-.07c.32.1.44.31.26.51l-.4,0c.09-.11,0-.24-.18-.29a.65.65,0,0,0-.43,0,.54.54,0,0,0-.3.33l0,0,.74.1a5.33,5.33,0,0,0,.72.09h.65l-.67.2a3.69,3.69,0,0,0-.82.35s0,0,0,0l-.44.13c-.08-.13.34-.33.69-.47l-.39-.06-.63-.09a1.15,1.15,0,0,1-.66.34A1.27,1.27,0,0,1,68.2,104.1Zm.89-.36a1.18,1.18,0,0,0-.49,0c-.1,0-.14.09-.11.12a.33.33,0,0,0,.28,0A.47.47,0,0,0,69.09,103.74Z"/><path class="cls-12" d="M71.7,103.6c-.06,0-.1,0-.11-.09s0-.17.38-.33l.1.07a2.05,2.05,0,0,1,.67-.06l.19,0-.13.1a1.44,1.44,0,0,1-.81.31A1.12,1.12,0,0,1,71.7,103.6Z"/><path class="cls-12" d="M69.68,105l.85-.33.44-.17a10.23,10.23,0,0,1,1.67-.56l0,.19a8.46,8.46,0,0,0-1.26.42c.41,0,.82-.06,1.19-.06H73l-.26.15a6.22,6.22,0,0,1-.85.41l0,0-.13.08a.08.08,0,0,0,.07,0,.38.38,0,0,1-.26,0s0-.09.09-.15l0,0h0l.46-.2a12.17,12.17,0,0,0-1.46.13Zm2.23,0-.08.05.06,0S71.93,105,71.91,105Z"/><path class="cls-12" d="M73.24,105.53a.2.2,0,0,1-.1-.07c0-.06,0-.14.14-.24a6.33,6.33,0,0,1,1.64-.75v.2a5,5,0,0,0-1.35.68,10.65,10.65,0,0,0,2-.48l.17.16a2.47,2.47,0,0,0-.94.48s0,0,0,.07c.27.11.74-.06,1.37-.3a3.56,3.56,0,0,1,.87-.26l0,.21a3,3,0,0,0-.63.21,3.17,3.17,0,0,1-1.9.33c-.17-.07-.17-.17-.14-.23a.44.44,0,0,1,.13-.15,4.82,4.82,0,0,1-1.15.17Z"/><path class="cls-12" d="M76.21,106.43l-.17-.07-.1,0,.12-.08a8.8,8.8,0,0,1,3-1.28v.2a8,8,0,0,0-2.56,1.08,2.26,2.26,0,0,0,1,.08v.21A3,3,0,0,1,76.21,106.43Z"/><polygon class="cls-12" points="79.16 106.02 77.09 105.32 77.41 105.13 79.47 105.83 79.16 106.02"/><path class="cls-12" d="M26.55,101.84h0c-.21-.07-.29-.16-.24-.25.19-.41,3.72-1.59,4.41-1.71l0,.22a18.83,18.83,0,0,0-3.82,1.42s0,0,.14.1a8.76,8.76,0,0,0,2.5.16l-.06.23A9.91,9.91,0,0,1,26.55,101.84Z"/><path class="cls-12" d="M30.26,100.2l.32-.24a11.76,11.76,0,0,1,2.57.5l-.44.2A11.19,11.19,0,0,0,30.26,100.2Z"/><path class="cls-12" d="M28.17,101l.43-.22c.7.18,1.63.37,2.63.52l-.37.23A26.16,26.16,0,0,1,28.17,101Z"/><path class="cls-12" d="M30.92,102.41l.28-.24a9.1,9.1,0,0,1,2.18.28l-.43.22A8.58,8.58,0,0,0,30.92,102.41Z"/><path class="cls-12" d="M30.44,102.83l.44-.23a11.34,11.34,0,0,0,1.5.26l.68.1-.37.24-.67-.1A11.52,11.52,0,0,1,30.44,102.83Z"/><path class="cls-12" d="M33.79,103.82c-.25-.09-.38-.21-.26-.39a8.29,8.29,0,0,1,3.06-1.36l-.08.23a8,8,0,0,0-2.44,1.09c-.17.26.8.33,1.51.37l.47,0,.07,0,.28.13,0,0a2.16,2.16,0,0,1-.2.09l-.15,0h-.12l-.6,0A7.11,7.11,0,0,1,33.79,103.82Z"/><path class="cls-12" d="M36,102.28l.32-.24.88.07a7.78,7.78,0,0,1,1.77.22l-.41.21a8.22,8.22,0,0,0-1.64-.19Z"/><path class="cls-12" d="M34.11,103.11l.33-.24c1,.11,1.86.23,2.63.39l-.38.23C35.94,103.34,35.1,103.21,34.11,103.11Z"/><path class="cls-12" d="M33.88,105.43l.34-.21a9.4,9.4,0,0,1,1.42-.67,5.42,5.42,0,0,1-1.16,0l.36-.24a6.24,6.24,0,0,0,1.8-.1l1.86-.42-1.74.61a13.23,13.23,0,0,0-2,.82v.11l-.45.07Z"/><path class="cls-12" d="M38.31,104.88l.42-.23.42.14a6.23,6.23,0,0,0,1.67.39l-.24.25A8.3,8.3,0,0,1,38.31,104.88Z"/><path class="cls-12" d="M38.36,105.35a7,7,0,0,1,2.18-.94v.23a6.63,6.63,0,0,0-1.68.71Z"/><path class="cls-12" d="M40.74,106.45c-.19-.06-.19-.11-.19-.14,0-.45,3.3-1.6,3.44-1.65l.18.18a12.66,12.66,0,0,0-3.07,1.37,13.72,13.72,0,0,0,2.89.32l0,.07.09.14a10.5,10.5,0,0,1-2.49-.13A4.73,4.73,0,0,1,40.74,106.45Z"/><path class="cls-12" d="M43.15,104.91l.29-.25a15.45,15.45,0,0,1,1.84.29l1.06.19-.08,0,.16,0a0,0,0,0,0,0-.06c.17,0,.14.1.11.13a.61.61,0,0,1-.36.14H46l-1.09-.2A15.15,15.15,0,0,0,43.15,104.91Z"/><path class="cls-12" d="M41.66,105.74l.34-.24c.39.07.81.16,1.22.26a13.17,13.17,0,0,0,1.51.29l-.29.25a11.17,11.17,0,0,1-1.6-.31C42.44,105.9,42,105.8,41.66,105.74Z"/><path class="cls-12" d="M40.88,107.67l.11-.1a1,1,0,0,1,.52-.27,1.15,1.15,0,0,1,.87.2,2.81,2.81,0,0,0,1-.2c.17-.08.26-.15.24-.19s-.07,0-.16,0a.7.7,0,0,0-.33.13l-.41-.07a1.9,1.9,0,0,1,.89-.31c.29,0,.5,0,.54.15s0,.22-.47.46a3.16,3.16,0,0,1-1,.28,1.16,1.16,0,0,0,1.16.05l.16.2a1.89,1.89,0,0,1-1.83-.06l-.08,0-.12-.08,0,0a6.49,6.49,0,0,1-.92-.06Z"/><path class="cls-12" d="M46.62,107.57l.27-.26a9.08,9.08,0,0,1,2,.34l-.39.23A8.21,8.21,0,0,0,46.62,107.57Z"/><path class="cls-12" d="M45.56,108.08l.38-.24c.65.15,1.47.3,2.32.41l-.31.25A23.34,23.34,0,0,1,45.56,108.08Z"/><path class="cls-12" d="M47.67,109.1l.21-.13c.64-.39,1.32-.78,2-1.16l.87-.49.32.11-.86.49c-.57.34-1.17.68-1.74,1h.07a8.49,8.49,0,0,0,2.24.33l-.12.25a8.69,8.69,0,0,1-2.49-.33Z"/><path class="cls-12" d="M50.39,107.67l0-.22a4.14,4.14,0,0,1,1.87.18,5.37,5.37,0,0,0,.82.18l-.28.25a7.3,7.3,0,0,1-.9-.19A3.89,3.89,0,0,0,50.39,107.67Z"/><path class="cls-12" d="M49.18,108.36l.14-.13.2-.12a17.34,17.34,0,0,1,2.25.51l-.4.23A17,17,0,0,0,49.18,108.36Z"/><path class="cls-12" d="M49.66,110.5a.32.32,0,0,1-.15-.09c-.11-.09-.07-.23.1-.36l.18-.11,0-.06a2.75,2.75,0,0,1,.7-.13l.14,0v0a1.34,1.34,0,0,1,.5.08c.22.09.27.23.14.38a1.57,1.57,0,0,1-.82.31A1.8,1.8,0,0,1,49.66,110.5Zm.68-.49a.88.88,0,0,0-.33.11c-.06,0,0,.09,0,.1a.64.64,0,0,0,.49,0,.8.8,0,0,0,.3-.08s0-.08-.11-.12A.91.91,0,0,0,50.34,110Z"/><path class="cls-12" d="M53.72,111.52a8.33,8.33,0,0,0-1.9-.7l-.23-.06.3-.14A32.42,32.42,0,0,0,55,108.9l.6-.35.17-.11.16,0c.39.11.77.24,1.13.36l.45.15-.37.23-.45-.15c-.31-.11-.63-.22-1-.32-.13.09-.27.17-.41.25-.92.55-1.89,1.13-2.93,1.63a7.62,7.62,0,0,1,1.72.66Z"/><path class="cls-12" d="M54.52,111.74a.2.2,0,0,1-.14-.11c-.07-.17.17-.42.33-.54l.12-.09H55l.75,0,.17-.16a1.1,1.1,0,0,0,.14-.18c.13-.18.3-.43,1.06-.53a1.33,1.33,0,0,1,.93.17.2.2,0,0,1,0,.34l-.43,0s0-.1,0-.13a1,1,0,0,0-.57-.11c-.36,0-.39.09-.51.27a1.59,1.59,0,0,1-.18.22l-.17.17c.54,0,1.08.14,1.59.23l.29.06-.33.15-.2.09a2.38,2.38,0,0,0-.58.31s0,.06.19.09l-.33.25c-.27,0-.39-.14-.36-.26s.37-.34.71-.49c-.43-.07-.86-.14-1.29-.18a2.06,2.06,0,0,1-1.13.47A.69.69,0,0,1,54.52,111.74Zm.47-.48c-.08.08-.13.17-.11.22s0,0,.08,0a1.11,1.11,0,0,0,.47-.23Z"/><path class="cls-12" d="M58.51,111.29a.71.71,0,0,1-.18-.08l-.08-.06.1-.08.09-.07-.08,0a2.69,2.69,0,0,1,.46-.17l.25-.11,0,0a.45.45,0,0,1,.28.06c.15.1,0,.33-.23.46A.91.91,0,0,1,58.51,111.29Zm.35-.24.08,0a.14.14,0,0,0,0,0s0,0,0,0Z"/><path class="cls-12" d="M56.56,112.58l.77-.3.59-.23.85-.34.14.2-.54.21a2.46,2.46,0,0,1,.81,0l.15,0-.1.1a2.63,2.63,0,0,1-.44.33,2.06,2.06,0,0,0-.34.24s0,0,0,0l-.32.26c-.09,0-.13-.06-.14-.11s.24-.28.51-.45l.18-.12a5.05,5.05,0,0,0-.69.08c-.2,0-.41.07-.61.08Z"/><path class="cls-12" d="M58.12,114c-.45-.16-.41-.39-.3-.56A6.26,6.26,0,0,1,60.59,112a6.18,6.18,0,0,1,3.11-.32l-.38.23a5.3,5.3,0,0,0-2.66.31,5.57,5.57,0,0,0-2.37,1.14c-.1.14,0,.25.21.34Z"/><path class="cls-12" d="M60.76,113.54c-.1,0-.16-.09-.17-.16,0-.33,1.42-.95,1.48-1l.19.18a4.1,4.1,0,0,0-1.17.67s0,0,.12,0a4.56,4.56,0,0,0,1.4-.35h0l.26.14,0,0c-.57.31-.7.46-.68.5s.16.05.5,0a2.67,2.67,0,0,0,1.33-.53h.43a3.39,3.39,0,0,1-1.82.79c-.51.08-.85.05-.92-.1s0-.18.14-.3a3.68,3.68,0,0,1-.86.12A.75.75,0,0,1,60.76,113.54Z"/><path class="cls-12" d="M63.12,114.73a.28.28,0,0,1-.15-.1c-.12-.16.09-.45.82-.76l.14-.06a13.27,13.27,0,0,1,3.2-1.06L67,113a14,14,0,0,0-2.9,1l-.14.06c-.43.18-.57.33-.52.39s.32.08.79-.09l.12.21A2.14,2.14,0,0,1,63.12,114.73Z"/><path class="cls-12" d="M66,113.89a2.66,2.66,0,0,1-.59-.34,1.73,1.73,0,0,0-.74-.35l.24-.26a1.84,1.84,0,0,1,.91.4,3,3,0,0,0,.54.31Z"/><path class="cls-12" d="M64.94,114.74l.35-.25.1,0a8,8,0,0,0,1,.28l-.29.26a7.31,7.31,0,0,1-1.08-.3Z"/><path class="cls-12" d="M66.19,115.8l0-.24a9.29,9.29,0,0,0,1-.4l.08-.18h.09l.36,0c1-.44,2.13-.89,2.71-.65l.17.06-.21.12a6.64,6.64,0,0,1-2.63.72l-.24.11-.1,0,.29,0c.21,0,.66,0,1.1,0h.19l-.07.11.1-.12.1.15c-.1.13-.26.13-.52.12s-.83,0-1,0A8.15,8.15,0,0,0,66.19,115.8Zm3.56-1.32a4,4,0,0,0-1.17.33A5.9,5.9,0,0,0,69.75,114.48Z"/><path class="cls-12" d="M67.12,116.58c-.27-.09-.49-.22-.51-.35s.12-.33.24-.49a.94.94,0,0,0,.15-.21l.47,0a1.74,1.74,0,0,1-.19.28c-.1.12-.2.26-.19.35s.58.32.76.29l-.09,0,.39.06a.7.7,0,0,1-.43.17A1.44,1.44,0,0,1,67.12,116.58Z"/><path class="cls-12" d="M68.47,117.3c-.24-.38.16-.88.51-1.31l.24-.31h.43l-.25.32c-.32.4-.66.82-.47,1.11Z"/><path class="cls-12" d="M67.31,117l-.1-.22a7.57,7.57,0,0,1,1.43-.3,5,5,0,0,0,1.53-.38l.24.16a5.49,5.49,0,0,1-1.84.48A8,8,0,0,0,67.31,117Z"/><path class="cls-12" d="M67.07,118l.15-.28a8.49,8.49,0,0,0,3.35-1.1c.44-.27,1-.68,1-1.14l.46-.1c0,.45-.43.93-1.18,1.39A9.46,9.46,0,0,1,67.07,118Z"/><path class="cls-12" d="M72.35,118.29a4.19,4.19,0,0,1-.52-.29,3.48,3.48,0,0,0-.82-.4l.33-.25a3.61,3.61,0,0,1,.88.42l.49.28Z"/><path class="cls-12" d="M70.9,118.32l-.16-.2c.76-.33,1.39-.63,1.86-.89l.23.17C72.34,117.67,71.69,118,70.9,118.32Z"/><path class="cls-12" d="M21.56,106.48l0-.23a10.27,10.27,0,0,0,1.72-.65,10,10,0,0,1,2.36-.82l0,.24a9.43,9.43,0,0,0-2,.71A11.32,11.32,0,0,1,21.56,106.48Z"/><path class="cls-12" d="M22.4,105.31l-.11,0,.51-.23a6,6,0,0,0,.71.2,3.65,3.65,0,0,1,1.16.42l-.56.2a3.59,3.59,0,0,0-1.06-.38Z"/><path class="cls-12" d="M23.81,107.27c-.32-.1-.59-.27-.42-.47a1.53,1.53,0,0,1,.92-.33,1.84,1.84,0,0,1,.8,0,1.76,1.76,0,0,1,.54-.46,3.55,3.55,0,0,1,1.71-.38c.22,0,.34.16,0,.41l-.47,0c.05,0,.12-.1.07-.1a2,2,0,0,0-.9.21,1.28,1.28,0,0,0-.44.42l-.08.1a1.38,1.38,0,0,0,.79.11c.19-.06.4-.13.64-.19l1.59-.4-1.42.59a4.24,4.24,0,0,1-.7.22c-.33.13-.5.27-.49.35s.35.16,1.08,0v.24c-1.2.24-1.66.09-1.68-.12s.12-.27.39-.43a2.24,2.24,0,0,1-.5-.09,2.87,2.87,0,0,1-.65.35l-.16.06h-.14A1.81,1.81,0,0,1,23.81,107.27Zm.89-.48a1.19,1.19,0,0,0-.49-.07,1,1,0,0,0-.26.06c-.07.07.23.24.53.3a1.48,1.48,0,0,0,.37-.24Z"/><path class="cls-12" d="M27.88,106.64a.76.76,0,0,1-.16-.06l-.09-.06.14-.09a4.57,4.57,0,0,1,1-.43l0,0c.28,0,.39,0,.43,0s-.05.35-.42.49A1.29,1.29,0,0,1,27.88,106.64Zm.6-.28-.11,0a.27.27,0,0,0,.15,0,.39.39,0,0,0,.15-.12l-.19.06Z"/><path class="cls-12" d="M25.7,108.45l1.17-.56.66-.31c.5-.23,1-.46,1.48-.7l.35.12-1.13.54a7.23,7.23,0,0,1,1.37-.18h.31l-.22.15a3.92,3.92,0,0,1-.5.32,2.38,2.38,0,0,0-.62.43l.2,0a1.38,1.38,0,0,1-.57.2l-.27,0,0-.11c.05-.22.46-.46.83-.67l.14-.08a12.89,12.89,0,0,0-1.85.41Z"/><path class="cls-12" d="M29.59,109.46c-.16-.06-.17-.15-.16-.21.1-.37,1.5-1,2.76-1.45a6.24,6.24,0,0,1,3.11-.47l-.44.24a5.34,5.34,0,0,0-2.5.42A6.21,6.21,0,0,0,30,109.15s0,.07.22.08l-.29.27A1.49,1.49,0,0,1,29.59,109.46Z"/><path class="cls-12" d="M33.26,109.33a.19.19,0,0,1-.15-.12c-.09-.2.66-.58,1.64-1l.37-.18.35.11-.41.2a8.48,8.48,0,0,0-1.38.76s.06,0,.13,0a7.07,7.07,0,0,0,1.79-.62.8.8,0,0,1,.16-.08l.35.11-.14.08c-.5.27-.82.52-.75.61s.39,0,.9,0a3.46,3.46,0,0,0,1-.43c.2-.12.25-.19.26-.22H37.3l.09-.25c.44-.06.56,0,.53.15a3.24,3.24,0,0,1-1.85,1c-.81.14-1.28.14-1.4,0s0-.18.06-.29a4.62,4.62,0,0,1-1.12.27A.93.93,0,0,1,33.26,109.33Z"/><path class="cls-12" d="M36.78,110.49c-.33-.1-.37-.33-.09-.57a9.36,9.36,0,0,1,3.46-1.36l-.26.26a9.32,9.32,0,0,0-2.72,1.12c-.19.17-.06.28.11.32a1.49,1.49,0,0,0,.89-.14l.28.15a2.63,2.63,0,0,1-1.58.25Z"/><path class="cls-12" d="M39.69,109.74c-.22-.08-.41-.17-.62-.27a3.74,3.74,0,0,0-1.45-.42l.3-.27a3.87,3.87,0,0,1,1.62.47,4.87,4.87,0,0,0,.59.24Z"/><path class="cls-12" d="M39.83,110.93l-.6-.22-.44-.16.44-.25.45.17a4.63,4.63,0,0,0,1.26.35l-.22.27A2.58,2.58,0,0,1,39.83,110.93Z"/><path class="cls-12" d="M38.62,111.19c-.09-.25.84-.65,1.86-1.06l.25-.1.23.17-.26.11c-1.23.49-1.51.67-1.52.72Z"/><path class="cls-12" d="M40.91,112.15l-.2-.18.2-.08.94-.42.27-.13H41.9l.23-.27c.19,0,.42,0,.68,0a7.25,7.25,0,0,1,2.15-.67,1,1,0,0,1,.69.14l.1.07-.2.1a9.41,9.41,0,0,1-2.67.6l-.69.32.16,0a2.64,2.64,0,0,1,.53-.11,1.39,1.39,0,0,1,1,.2l.73.62-1.2-.4a3.34,3.34,0,0,0-1.1-.06l-.09,0a2.8,2.8,0,0,0,.4.27,2.45,2.45,0,0,1,.53.4l-.53.2a2,2,0,0,0-.5-.37,3.08,3.08,0,0,1-.5-.37l-.06,0a3.8,3.8,0,0,0-.51.14ZM45,110.63h-.21a3.41,3.41,0,0,0-1,.28A8.6,8.6,0,0,0,45,110.63Z"/><path class="cls-12" d="M44.23,113.2a2.46,2.46,0,0,1,1-1.49l.41.08a2.15,2.15,0,0,0-.85,1.3Z"/><path class="cls-12" d="M42.91,112.88h0l-.24-.12.45-.12a19.7,19.7,0,0,1,2.66-.5l1-.15-.06.25-1,.16c-.76.11-1.55.23-2.32.42l0,.09A.92.92,0,0,1,42.91,112.88Z"/><polygon class="cls-12" points="48.26 113.78 46.77 113.29 47.18 113.04 48.68 113.53 48.26 113.78"/><path class="cls-12" d="M46.83,115.14l.37-.26a7.44,7.44,0,0,1,1.65-.75.09.09,0,0,1,0-.06c-.08-.31.49-.63.94-.89l.29-.17.34.11-.31.18c-.45.26-.77.46-.73.62s0,0,0,0l.5-.16.14,0a4.21,4.21,0,0,1,1.73-.24c.09,0,.16.14-.06.36a2.23,2.23,0,0,1-1.22.44,3.72,3.72,0,0,1-1.31,0,10.49,10.49,0,0,0-1.29.52l0,.17-.55.1Zm4.47-1.39a4.47,4.47,0,0,0-1.19.23L50,114l-.13,0a4.9,4.9,0,0,0,.75,0,1.72,1.72,0,0,0,.66-.2c.06-.06.06-.09.06-.09Z"/><path class="cls-12" d="M48.53,116a2.22,2.22,0,0,1-.38-.18l-.25-.14.44-.25.13,0,.26.08-.07,0a1.15,1.15,0,0,0,1,.12,8.86,8.86,0,0,0,1.51-.56c.31-.13.6-.26.88-.36l.61-.22,1-.35a4.25,4.25,0,0,0-1.13-.31l.3-.27a5.43,5.43,0,0,1,1.4.39l.28.11-.33.14c-.44.18-.91.34-1.37.51l-.6.21c-.24.09-.52.21-.81.34a10.14,10.14,0,0,1-1.74.63A2.1,2.1,0,0,1,48.53,116Z"/><path class="cls-12" d="M51.16,116.45h0l.28-.17.26.06a.68.68,0,0,1-.28.12A.64.64,0,0,1,51.16,116.45Z"/><path class="cls-12" d="M51.38,92.27,51.33,92a10.51,10.51,0,0,0,1.72-.64,9.64,9.64,0,0,1,2.35-.82l0,.23a8.88,8.88,0,0,0-2,.72A11.59,11.59,0,0,1,51.38,92.27Z"/><path class="cls-12" d="M52.22,91.1l-.11,0,.5-.24a6.62,6.62,0,0,0,.71.2,3.81,3.81,0,0,1,1.16.42l-.55.21a3.31,3.31,0,0,0-1.07-.38C52.64,91.22,52.42,91.17,52.22,91.1Z"/><path class="cls-12" d="M53.62,93.07c-.31-.1-.58-.28-.42-.47s.29-.25.93-.34a1.94,1.94,0,0,1,.79.06,1.69,1.69,0,0,1,.55-.46,3.54,3.54,0,0,1,1.7-.38c.23,0,.35.15,0,.4l-.48,0s.13-.1.08-.11a2.21,2.21,0,0,0-.91.22,1.26,1.26,0,0,0-.44.41.76.76,0,0,1-.08.11,1.6,1.6,0,0,0,.79.11,6.46,6.46,0,0,1,.65-.19l1.59-.4L57,92.57a4.36,4.36,0,0,1-.7.23c-.34.13-.51.26-.5.35s.36.16,1.09,0v.24c-1.2.24-1.66.09-1.68-.11s.11-.28.38-.43a2.87,2.87,0,0,1-.49-.09,3.16,3.16,0,0,1-.65.34l-.16.06h-.15A1.83,1.83,0,0,1,53.62,93.07Zm.89-.49a1.14,1.14,0,0,0-.48-.06l-.27,0c-.06.07.24.25.54.31a1.48,1.48,0,0,0,.37-.24Z"/><path class="cls-12" d="M57.69,92.44l-.15-.07-.1-.05.15-.09a4.23,4.23,0,0,1,1-.43l0,0a.63.63,0,0,1,.43,0c.15.1-.05.35-.42.5A1.45,1.45,0,0,1,57.69,92.44Zm.61-.29-.11.06c.06,0,.11,0,.14,0a.24.24,0,0,0,.15-.12l-.18.06Z"/><path class="cls-12" d="M55.52,94.24l1.17-.55.66-.31c.5-.23,1-.47,1.48-.71l.35.12c-.37.19-.75.37-1.14.55a6.81,6.81,0,0,1,1.37-.19h.31l-.21.16c-.14.1-.33.21-.5.31a2.43,2.43,0,0,0-.62.44l.2,0a1.49,1.49,0,0,1-.57.2l-.28,0,0-.12c0-.21.47-.46.83-.67l.14-.08a14.85,14.85,0,0,0-1.84.41Z"/><path class="cls-12" d="M59.41,95.25c-.17,0-.18-.14-.16-.2.09-.38,1.5-1,2.76-1.46a6.45,6.45,0,0,1,3.1-.47l-.43.24a5.48,5.48,0,0,0-2.5.42A5.92,5.92,0,0,0,59.84,95s0,.07.22.07l-.29.27A1.07,1.07,0,0,1,59.41,95.25Z"/><path class="cls-12" d="M63.08,95.13a.24.24,0,0,1-.16-.13c-.08-.2.67-.58,1.65-1l.36-.18.35.11a3.62,3.62,0,0,1-.4.2,7.72,7.72,0,0,0-1.38.77s.06,0,.13,0a7.42,7.42,0,0,0,1.78-.62l.16-.09.36.11-.15.08c-.5.27-.81.53-.74.62s.38,0,.89,0a3.15,3.15,0,0,0,1-.43.72.72,0,0,0,.25-.21h-.06l.09-.26c.44-.06.56,0,.53.16a3.28,3.28,0,0,1-1.85,1c-.81.15-1.28.14-1.41,0s0-.17.06-.28a4.45,4.45,0,0,1-1.11.27A.91.91,0,0,1,63.08,95.13Z"/><path class="cls-12" d="M66.59,96.29c-.32-.11-.36-.33-.09-.58A9.53,9.53,0,0,1,70,94.35l-.25.27A9,9,0,0,0,67,95.74c-.2.17-.06.28.11.32a1.58,1.58,0,0,0,.89-.14l.28.14a2.63,2.63,0,0,1-1.58.25Z"/><path class="cls-12" d="M69.5,95.53a5.45,5.45,0,0,1-.62-.26,3.64,3.64,0,0,0-1.44-.43l.29-.27a4.24,4.24,0,0,1,1.63.47c.2.09.39.18.58.25Z"/><path class="cls-12" d="M69.64,96.72,69,96.5l-.43-.16.44-.24.45.16a4.24,4.24,0,0,0,1.25.35l-.21.28A2.67,2.67,0,0,1,69.64,96.72Z"/><path class="cls-12" d="M68.43,97c-.08-.25.84-.64,1.87-1l.25-.1.23.17-.26.1c-1.23.5-1.51.67-1.53.73Z"/><path class="cls-12" d="M70.73,98l-.2-.19.2-.08c.25-.1.59-.26.94-.42l.27-.12h-.22l.23-.28c.18,0,.42,0,.68,0a7.56,7.56,0,0,1,2.14-.68,1.08,1.08,0,0,1,.7.14l.09.08-.19.1a10.24,10.24,0,0,1-2.67.6l-.7.32.17,0a2.68,2.68,0,0,1,.52-.12,1.51,1.51,0,0,1,1.06.2l.72.62-1.19-.39a3.08,3.08,0,0,0-1.1-.06l-.09,0,.39.27a2.52,2.52,0,0,1,.54.4l-.53.19a2.32,2.32,0,0,0-.5-.37,3.2,3.2,0,0,1-.5-.36l-.06-.06-.51.14Zm4.08-1.52a.64.64,0,0,0-.2,0,4,4,0,0,0-1,.28A9.75,9.75,0,0,0,74.81,96.43Z"/><path class="cls-12" d="M74.05,99a2.37,2.37,0,0,1,1-1.49l.4.07a2.16,2.16,0,0,0-.84,1.3Z"/><path class="cls-12" d="M72.73,98.68l0,0-.24-.12.45-.12a24.26,24.26,0,0,1,2.66-.5l1-.15-.07.26-1,.16a20.94,20.94,0,0,0-2.32.42l0,.08A.92.92,0,0,1,72.73,98.68Z"/><polygon class="cls-12" points="78.08 99.58 76.58 99.09 77 98.83 78.49 99.33 78.08 99.58"/><path class="cls-12" d="M76.64,100.93l.38-.25a6.83,6.83,0,0,1,1.65-.75.16.16,0,0,1,0-.07c-.08-.3.49-.63,1-.89l.28-.16.34.11-.3.18c-.46.26-.77.45-.73.61s0,0,0,0l.49-.16.14,0s1.35-.41,1.73-.24c.1,0,.17.15,0,.36a2.27,2.27,0,0,1-1.23.44,3.93,3.93,0,0,1-1.3,0,8.24,8.24,0,0,0-1.29.52v.16a3.76,3.76,0,0,1-.55.1Zm4.48-1.38a4.34,4.34,0,0,0-1.19.23l-.14,0-.14,0a3.2,3.2,0,0,0,.75,0,1.43,1.43,0,0,0,.66-.2c.07-.06.07-.08.07-.09Z"/><path class="cls-12" d="M78.35,101.83a2.81,2.81,0,0,1-.39-.19l-.24-.13.44-.26.13,0,.26.09-.08,0a1.11,1.11,0,0,0,1,.12A9.69,9.69,0,0,0,81,101c.31-.14.6-.26.88-.36l.61-.22,1-.36a4.75,4.75,0,0,0-1.14-.31l.31-.27a5.34,5.34,0,0,1,1.39.4l.29.11-.33.13c-.44.18-.91.35-1.37.51l-.6.22c-.25.09-.52.21-.82.33a9.27,9.27,0,0,1-1.73.63A2,2,0,0,1,78.35,101.83Z"/><path class="cls-12" d="M81,102.24h0l.29-.16.25.05a.83.83,0,0,1-.28.13A.46.46,0,0,1,81,102.24Z"/><path class="cls-13" d="M108.11,55.19s-7.71,27.12-8.8,34.05l-9.41.18s-5-29.69-6.68-34.23C83.22,55.19,99.11,51.29,108.11,55.19Z"/><path class="cls-14" d="M99.31,89.24l-8.6.17c-.11-.68-5.06-29.74-6.68-34.22a70.24,70.24,0,0,1,9-1.45c-2.81,10-1.46,31.11,1.1,32.31a7.35,7.35,0,0,0,3.64.81,6.06,6.06,0,0,0,2.1-.24C99.6,87.66,99.42,88.55,99.31,89.24Z"/><path class="cls-15" d="M83.22,55.19A16.9,16.9,0,0,0,95,60.61c6,0,13.09-5.42,13.09-5.42C99.11,51.29,83.22,55.19,83.22,55.19Zm.79.12s14.42-3.19,23.32,0c0,0-6.68,4.4-12.27,4.4A16.55,16.55,0,0,1,84,55.31Z"/><path class="cls-16" d="M95.06,59.71a16.55,16.55,0,0,1-11-4.4s14.42-3.19,23.32,0C107.33,55.31,100.65,59.71,95.06,59.71Z"/><path class="cls-17" d="M93.7,60.54l-.12-.19c-.16-.25-.3-.51-.45-.78a13.38,13.38,0,0,0,1.93.14,17.05,17.05,0,0,0,5.53-1.1c.19.19.39.37.59.55A16.59,16.59,0,0,1,95,60.61C94.57,60.61,94.13,60.58,93.7,60.54Z"/><path class="cls-18" d="M103.47,57.93c-1.26,7.65-5.73,29.57-5.89,31.36l-1.61,0c0-.29,2.65-19.72,3.34-30.13A14,14,0,0,0,103.47,57.93Z"/><path class="cls-19" d="M96.88,83c-5.44-3.6-8.51-22.28-9.19-24.34-1.91-1.18-3.36-2-4.41-3.47l-.06,0c1.64,4.54,6.68,34.23,6.68,34.23l9.41-.18c.18-1.15.55-2.88,1-4.93A9.31,9.31,0,0,1,96.88,83Z"/><path class="cls-20" d="M95,30.24,91.71,59.33a14.33,14.33,0,0,0,8.52-.61L104.12,32l-.39-.58Z"/><path class="cls-21" d="M95.26,59.71a13.86,13.86,0,0,0,5-1L104.12,32l-8.55-1.21L92.29,59.35A13.16,13.16,0,0,0,95.26,59.71Z"/><path class="cls-22" d="M101.7,34.91l2.08-.55.34-2.32-8.55-1.21-.7,6.06C97.16,36.27,99.42,35.51,101.7,34.91Z"/><path class="cls-22" d="M101,44.11c-2.26.67-4.8,1.23-7.19,2l-.66,5.7a51.6,51.6,0,0,1,5.7-2.51c1-.36,1.93-.71,2.89-1l.68-4.61Z"/><path class="cls-23" d="M102.28,38.19a16.62,16.62,0,0,0-2.68,4.48c-.35.79-3.46,16-3.58,17l.35,0h.07a4.43,4.43,0,0,0,.51-.06H97l.54-.08.12,0,.56-.12h.05l.55-.14.1,0,.57-.18.12,0,.6-.23,2.57-17.65C102.62,40.11,102.42,39.16,102.28,38.19Z"/><path class="cls-24" d="M104.22,43.72s-.67-5.43-.94-5.41-2.16,4.23-2.53,5v0c.51,1.61,2.46,2.16,3.29.7Z"/><path class="cls-25" d="M102.46,41.34a21.56,21.56,0,0,1,.5-2.59c-.64,1.1-1.91,3.93-2.21,4.52v0a1.9,1.9,0,0,0,1.47,1.33A18.07,18.07,0,0,1,102.46,41.34Z"/><path class="cls-26" d="M103.09,40a1.31,1.31,0,0,0,.64-.15c-.18-.87-.37-1.91-.37-1.91s-.78,1.41-.91,1.76A1.43,1.43,0,0,0,103.09,40Z"/><path class="cls-27" d="M103.11,40a2.67,2.67,0,0,1-.11-.75,3.72,3.72,0,0,1,.09-.81c-.24.44-.56,1-.64,1.26a1.43,1.43,0,0,0,.64.3Z"/><path class="cls-28" d="M101.25,58.37l3-14.65a3,3,0,0,1-3.47-.45L97.53,59.45A17,17,0,0,0,99.28,59C100,58.84,100.62,58.57,101.25,58.37Z"/><path class="cls-29" d="M101.25,58.37l3-14.65a2.94,2.94,0,0,1-1,.33l-3,14.67C100.57,58.64,100.92,58.47,101.25,58.37Z"/><path class="cls-29" d="M98.76,59.19l2.92-15.36v0a3.89,3.89,0,0,1-.42-.19l-.08,0-.15-.09a2.55,2.55,0,0,1-.28-.21L97.53,59.45Z"/><path class="cls-30" d="M98.14,59.33c1.27-6.58,3-15.42,3.14-16.08a24.23,24.23,0,0,1,.91-3c-.39.78-.79,1.65-1.08,2.27l-.09.19,0,0-.08.17v0l-.08.16v0a.67.67,0,0,1-.06.12L97.53,59.45Z"/><path class="cls-24" d="M91.43,39.67s-2.25-5-2.51-4.86c0,0-1,4.7-1.12,5.52l0,0c1,1.36,3.2,1.3,3.54-.36Z"/><path class="cls-25" d="M88.84,37.94a19.09,19.09,0,0,1-.09-2.61c-.27,1.26-.85,4.34-1,5l0,0a1.82,1.82,0,0,0,1.79.77A17.33,17.33,0,0,1,88.84,37.94Z"/><path class="cls-26" d="M89.26,36.49c.13,0,.58-.31.55-.36-.43-.76-.92-1.68-.92-1.68s-.31,1.59-.33,2A1.43,1.43,0,0,0,89.26,36.49Z"/><path class="cls-27" d="M89.28,36.48a2.64,2.64,0,0,1-.34-.67,3.66,3.66,0,0,1-.16-.8c-.09.5-.21,1.18-.22,1.4a1.43,1.43,0,0,0,.7.08Z"/><path class="cls-3" d="M90,58.88a20.91,20.91,0,0,0,3.41.73L91.43,39.67a6,6,0,0,1-1.43.58,3.38,3.38,0,0,1-2.2.08l2.06,18.51Z"/><path class="cls-31" d="M91.43,39.67h0a2.15,2.15,0,0,1-.69.4,2.88,2.88,0,0,1-.4.09l2.1,19.31.93.14Z"/><path class="cls-31" d="M90,58.88c.38.12.77.22,1.15.31L88.84,40.55v0a2.45,2.45,0,0,1-.46,0l-.08,0-.18,0a2.33,2.33,0,0,1-.32-.1l2.06,18.51Z"/><path class="cls-32" d="M90,58.88l.53.16c-.82-6.71-2.06-18.15-2.2-18.91a20,20,0,0,1,.16-3.3c-.13.87-.6,3.15-.61,3.15a1.11,1.11,0,0,1,0,.19v0a.93.93,0,0,0,0,.14l2.06,18.51Z"/><path class="cls-33" d="M98.09,56.64l-.56,2.81h0l.61-.12h0l.62-.13v0l.51-.14c.32-.09.64-.2,1-.31h0c.34-.08.69-.25,1-.35l.61-3A12.21,12.21,0,0,1,98.09,56.64Z"/><path class="cls-33" d="M92.28,56.36a4.73,4.73,0,0,1-2.82-1.14l.4,3.62.1,0,.53.16h0l.5.13.12,0h0c.44.1.88.2,1.33.28h0l.93.14-.3-3.06Z"/><path class="cls-8" d="M98.05,93.23s-.17-2-3.78-1.35c-.21,0-5.93,2.15-6.21,2.23a5.81,5.81,0,0,1-.73-2.5H25l-11.6,0C14.71,93.42,6.27,94,7.53,96l43.29,14.38a4.91,4.91,0,0,0,.58.18l.18.06h0a1.52,1.52,0,0,0,.2.06Z"/><path class="cls-34" d="M90.08,83.34s-4.15,6.73.19,10.53L54.48,107.28s-6.15-2.71-1.83-10.77Z"/><path class="cls-35" d="M62,103.85c1.15-6.34,7.91-9.47,13-11.72a68.51,68.51,0,0,1,10.24-3.74c1.07-.29,2.16-.53,3.23-.81a14.17,14.17,0,0,1,1.61-4.24L52.65,96.51c-4.32,8.06,1.83,10.77,1.83,10.77l7.48-2.8A4.48,4.48,0,0,1,62,103.85Z"/><path class="cls-36" d="M53,96.6s6.13,4.38,1.41,10.68C54.42,107.28,46.77,104.66,53,96.6Z"/><path class="cls-37" d="M53.5,108.45l40-14.9s-.18-2-3.67-1.34c-5.11.9-35.69,14.16-35.69,14.16s-3.51-4.89-.44-9.34L88.33,84.82s5-1.58,4.17-3.52L50.35,95.7S44.52,106.2,53.5,108.45Z"/><path class="cls-38" d="M10.34,94.68l43,13.72a9.64,9.64,0,0,1-1.7-11.9S10.74,83.43,10.74,83.43A9.19,9.19,0,0,0,10.34,94.68Z"/><path class="cls-39" d="M10.21,84.19s31.64,10.32,40.9,13.36c.14-.34.31-.69.5-1,0,0-40.87-13.07-40.87-13.07a7.79,7.79,0,0,0-.66.92Z"/><polygon class="cls-40" points="92.5 81.3 49.55 75.3 10.74 83.43 51.52 96.66 92.5 81.3"/><path class="cls-41" d="M54.92,92.46a5.52,5.52,0,0,1,.69-7.12,32.46,32.46,0,0,1,3.83-2.91l-.7-.05c-1.93,0-3.86,0-5.81.06a44.42,44.42,0,0,1-11.8-.69,70.09,70.09,0,0,1-8.65-2.87L15.25,82.49c-.82.53-1.63,1.07-2.44,1.61L51.53,96.66s2.49-2.52,3.53-3.89C55.05,92.76,54.93,92.47,54.92,92.46Z"/><g class="cls-42"><path class="cls-43" d="M10.43,92.3a.66.66,0,0,0,.26,0c.05,0,.08-.08.09-.2a38.76,38.76,0,0,1,.4-5.78l-.33-.11.05-.36,1.5.48c0,1.14,0,1.73.08,2.92.22-1.1.35-1.64.63-2.7l1.58.5c0,.15,0,.22,0,.37l-.33-.1a50.66,50.66,0,0,0-.3,6.1l.34.11V94l-2-.63v-.39l.34.11a50,50,0,0,1,.24-5.1,49.16,49.16,0,0,0-1,5.25l-.36-.11a48.19,48.19,0,0,1-.44-5.64,42.59,42.59,0,0,0-.27,4.71.42.42,0,0,0,.08.29.9.9,0,0,0,.26.13V93l-.85-.27Z"/><path class="cls-43" d="M14.53,93.61a.44.44,0,0,0,.24,0,.22.22,0,0,0,.11-.17,51.36,51.36,0,0,1,1.28-5.92l.83.27c.22,2.69.44,4.08.9,6.88l.34.11v.39L16,94.49V94.1l.38.12c-.11-.72-.16-1.07-.25-1.79l-.85-.27c-.11.54-.15.81-.25,1.36v0a.5.5,0,0,0,0,.12l.08.09a.41.41,0,0,0,.11.07l.14.06v.39L14.52,94C14.52,93.85,14.52,93.77,14.53,93.61ZM16.11,92c-.13-1-.19-1.46-.28-2.42-.2.87-.29,1.3-.45,2.18Z"/><path class="cls-43" d="M18.89,95l.34.11c0-2.49,0-3.74.19-6.15l-.28-.08c-.25.88-.37,1.33-.59,2.23l-.14,0c.05-1.12.08-1.67.17-2.76l3,1c-.07,1.1-.09,1.66-.13,2.78l-.13,0c-.16-1-.23-1.53-.36-2.54l-.27-.09c-.15,2.41-.18,3.66-.17,6.15l.33.11v.39l-2-.65Z"/><path class="cls-43" d="M21.75,96l.34.11c0-2.49,0-3.74.15-6.16l-.33-.11c0-.15,0-.22,0-.37l1.83.59c0,.15,0,.23,0,.38l-.19-.07c-.05,1.05-.07,1.58-.1,2.63l.59.2c0-1.06.05-1.59.1-2.63L24,90.46c0-.16,0-.23,0-.38l1.83.59c0,.15,0,.23,0,.38l-.33-.11c-.12,2.44-.14,3.68-.14,6.16l.33.11c0,.16,0,.23,0,.39L23.81,97v-.38l.19.06c0-1.27,0-1.9,0-3.15l-.59-.19c0,1.25,0,1.88,0,3.14l.18.07c0,.15,0,.23,0,.38l-1.85-.59Z"/><path class="cls-43" d="M26,97.33l.33.11c0-2.48,0-3.72.13-6.16l-.33-.11c0-.15,0-.22,0-.37l2.92,1c0,1-.06,1.42-.09,2.37l-.12,0c-.19-.87-.28-1.3-.46-2.16l-.63-.21c-.05,1.15-.07,1.73-.1,2.9l.29.09c.11-.61.17-.92.29-1.53l.12,0c-.05,1.44-.06,2.17-.07,3.62l-.12,0c-.1-.68-.14-1-.23-1.71L27.68,95c0,1.15,0,1.72,0,2.87l.7.23c.22-.82.33-1.23.56-2l.13,0c0,1,0,1.56,0,2.61l-3-1Z"/><path class="cls-43" d="M29.51,98.46a.51.51,0,0,0,.25,0s.08-.08.08-.21c0-2.36,0-3.54.12-5.87l-.33-.1c0-.16,0-.23,0-.38l1.51.49c.08,1.2.13,1.8.24,3,.18-1.11.27-1.67.46-2.76l1.56.51c0,.15,0,.23,0,.38l-.33-.11C33,95.89,33,97.12,33,99.58l.32.11c0,.15,0,.23,0,.38l-1.9-.61v-.38l.33.1c0-2.05,0-3.08.08-5.12-.35,2.1-.51,3.16-.77,5.28l-.35-.11c-.29-2.27-.41-3.41-.61-5.67C30,95.45,30,96.41,30,98.32a.39.39,0,0,0,.08.28.83.83,0,0,0,.25.13v.38l-.82-.26Z"/><path class="cls-43" d="M33.45,99.74a.39.39,0,0,0,.23,0c.06,0,.09-.07.11-.16.37-2.39.6-3.58,1.08-5.94l.82.27c.33,2.74.51,4.12,1,6.85l.32.1c0,.15,0,.23,0,.38l-2.12-.67c0-.16,0-.23,0-.39l.36.12c-.11-.7-.16-1-.26-1.75l-.82-.27L34,99.64v0a.27.27,0,0,0,0,.12.28.28,0,0,0,.07.09.41.41,0,0,0,.11.07l.14.05v.39l-.86-.28ZM35,98.16c-.14-1-.2-1.44-.32-2.41-.16.87-.24,1.31-.39,2.18Z"/><path class="cls-43" d="M37.66,101.09l.33.1c-.05-2.43,0-3.66.08-6.09L37.8,95c-.22.9-.32,1.35-.53,2.25l-.12,0c0-1.11,0-1.67.09-2.78l3,1c-.05,1.1-.07,1.65-.09,2.76l-.13,0c-.16-1-.23-1.51-.37-2.53l-.27-.09c-.1,2.43-.13,3.65-.07,6.08l.33.1c0,.15,0,.23,0,.38l-1.94-.61C37.67,101.32,37.67,101.24,37.66,101.09Z"/><path class="cls-43" d="M40.44,102l.32.1c-.08-2.42,0-3.64.05-6.06l-.32-.11c0-.15,0-.22,0-.37l1.9.63c0,.15,0,.22,0,.37l-.32-.1c-.1,2.42-.12,3.63,0,6l.33.11c0,.15,0,.22,0,.37l-1.95-.6C40.45,102.19,40.44,102.12,40.44,102Z"/><path class="cls-43" d="M42.72,99.85a9.2,9.2,0,0,1,.11-1.45,4,4,0,0,1,.32-1.09,1.51,1.51,0,0,1,.51-.63.76.76,0,0,1,.69-.06,1,1,0,0,1,.51.4,2.94,2.94,0,0,1,.42.87l.25-.81.13,0c0,1.24-.07,1.86-.06,3.1l-.14,0c-.05-.52-.1-1-.17-1.32a6.42,6.42,0,0,0-.23-.88,1.49,1.49,0,0,0-.27-.51.52.52,0,0,0-.26-.21.32.32,0,0,0-.13,0,.21.21,0,0,0-.12.08.67.67,0,0,0-.11.24,2.58,2.58,0,0,0-.1.45c0,.2-.06.44-.08.74s0,.64,0,1.06,0,.82,0,1.16,0,.62.07.87a6,6,0,0,0,.1.63,2.16,2.16,0,0,0,.14.41.82.82,0,0,0,.15.25.44.44,0,0,0,.18.11.4.4,0,0,0,.34,0,.72.72,0,0,0,.26-.37,2.8,2.8,0,0,0,.17-.74c0-.32.06-.7.07-1.16l.16,0c0,.44,0,.85-.05,1.22a4.32,4.32,0,0,1-.19.94,1.06,1.06,0,0,1-.37.54.67.67,0,0,1-.61.06,1.59,1.59,0,0,1-.68-.45,3.17,3.17,0,0,1-.53-.85,5.86,5.86,0,0,1-.36-1.18A7.91,7.91,0,0,1,42.72,99.85Z"/><path class="cls-43" d="M46.25,101.61l.13,0c0,.16.08.34.13.53s.12.39.19.59.16.38.25.57a3.11,3.11,0,0,0,.3.51,2.33,2.33,0,0,0,.36.4,1,1,0,0,0,.41.22.29.29,0,0,0,.14,0,.15.15,0,0,0,.13,0,.18.18,0,0,0,.1-.12.46.46,0,0,0,0-.25,1,1,0,0,0-.09-.34,1.66,1.66,0,0,0-.2-.32l-.32-.36-.45-.43a3.2,3.2,0,0,1-.85-1.26,4.61,4.61,0,0,1-.28-1.67,5,5,0,0,1,.1-1,2.48,2.48,0,0,1,.27-.69,1,1,0,0,1,.39-.35.61.61,0,0,1,.46,0,1.34,1.34,0,0,1,.26.14A1.48,1.48,0,0,1,48,98a1.57,1.57,0,0,1,.24.32,2.58,2.58,0,0,1,.19.37c.12-.24.18-.36.29-.6l.13,0c0,.83,0,1.24,0,2.07l-.12,0a6.2,6.2,0,0,0-.2-.77,3.53,3.53,0,0,0-.28-.65,1.86,1.86,0,0,0-.35-.49.92.92,0,0,0-.41-.28l-.1,0a.28.28,0,0,0-.13,0,.26.26,0,0,0-.11.1.51.51,0,0,0-.06.25,1.18,1.18,0,0,0,.18.58,3.75,3.75,0,0,0,.55.69l.31.33a3.58,3.58,0,0,1,.28.37,4.16,4.16,0,0,1,.23.42,2.66,2.66,0,0,1,.19.52,3.91,3.91,0,0,1,.14.65,7.89,7.89,0,0,1,.09.79,5.94,5.94,0,0,1,0,.95,2.7,2.7,0,0,1-.14.73.82.82,0,0,1-.32.43.55.55,0,0,1-.49,0,1.33,1.33,0,0,1-.32-.15,1.45,1.45,0,0,1-.29-.27,3.31,3.31,0,0,1-.3-.39c-.1-.15-.2-.32-.31-.52-.09.32-.14.48-.24.81l-.14,0C46.32,103.21,46.29,102.68,46.25,101.61Z"/></g><path class="cls-44" d="M50.41,99.89a121.8,121.8,0,0,1-18-2.88C24.89,95.19,15.92,92.29,11,85.68a4.83,4.83,0,0,1-.76-1.5,9.09,9.09,0,0,0,.15,10.5l43,13.72A9.74,9.74,0,0,1,50.41,99.89Z"/><path class="cls-34" d="M86.1,72.82s-3.78,6.1.16,9.56l-32.51,12s-5.58-2.47-1.66-9.76Z"/><path class="cls-35" d="M86.1,72.82s-3.78,6.1.16,9.56l-32.51,12s-5.58-2.47-1.66-9.76Z"/><path class="cls-35" d="M60.59,91.3c1-5.74,7.18-8.55,11.79-10.57a64,64,0,0,1,9.31-3.35c1-.25,2-.47,2.94-.71a12.71,12.71,0,0,1,1.47-3.85l-34,11.78c-3.92,7.29,1.66,9.76,1.66,9.76l6.78-2.5A5.62,5.62,0,0,1,60.59,91.3Z"/><path class="cls-36" d="M52.42,84.69s5.55,4,1.27,9.67C53.69,94.36,46.75,92,52.42,84.69Z"/><path class="cls-45" d="M52.86,95.42,89.15,82.1s-.16-1.77-3.34-1.23c-4.64.79-32.42,12.67-32.42,12.67s-3.18-4.44-.4-8.46L84.51,74.16S89,72.75,88.3,71L50,83.87S44.72,93.34,52.86,95.42Z"/><path class="cls-46" d="M52.89,85.24a16.71,16.71,0,0,0-1.69-1.78L88.3,71c.71,1.77-3.79,3.18-3.79,3.18L53,85.08S52.93,85.19,52.89,85.24Z"/><path class="cls-47" d="M13.76,82.77l38.92,12.6a8.75,8.75,0,0,1-1.54-10.78s-37-12-37-12A8.3,8.3,0,0,0,13.76,82.77Z"/><path class="cls-48" d="M16.6,81.81l.15,0h.12c.05,0,.09,0,.12-.08a1,1,0,0,0,.08-.36c0-.17,0-.41,0-.72s0-.69,0-1.17a.61.61,0,0,0,0-.24.54.54,0,0,0-.1-.16L16.86,79l-.14-.09a.4.4,0,0,1-.12-.1.16.16,0,0,1,0-.12.18.18,0,0,1,0-.09l1.82.56a.58.58,0,0,1,0,.1.11.11,0,0,1,0,.1.12.12,0,0,1-.09,0h-.12a.28.28,0,0,0-.13,0,.24.24,0,0,0-.1.1.57.57,0,0,0,0,.22c0,.84,0,1.26,0,2.11a.35.35,0,0,1-.13.26.77.77,0,0,1-.34.16,1.54,1.54,0,0,1-.5,0,2.09,2.09,0,0,1-.59-.1,2.87,2.87,0,0,1-.55-.24,2.62,2.62,0,0,1-.52-.39,3,3,0,0,1-.47-.57,3.16,3.16,0,0,1-.37-.76,5.23,5.23,0,0,1-.23-1,6.62,6.62,0,0,1,0-1.19,3.76,3.76,0,0,1,.32-1.4,2.29,2.29,0,0,1,.64-.85,1.75,1.75,0,0,1,.83-.35,2.19,2.19,0,0,1,.91.08,2.83,2.83,0,0,1,.35.14,1.68,1.68,0,0,1,.3.15,2.48,2.48,0,0,1,.26.19,2.84,2.84,0,0,1,.26.24v1.46h-.08a.26.26,0,0,1-.11-.16,2.38,2.38,0,0,1-.07-.31c0-.13,0-.2-.07-.33a.59.59,0,0,0-.06-.24,2,2,0,0,0-.2-.36,1.33,1.33,0,0,0-.23-.24A1,1,0,0,0,17,76l-.21-.08a1.06,1.06,0,0,0-.68,0,1.26,1.26,0,0,0-.57.41,2.43,2.43,0,0,0-.41.75,4.48,4.48,0,0,0-.2,1,7,7,0,0,0,0,1.31,4.51,4.51,0,0,0,.27,1.11,2.69,2.69,0,0,0,.49.81,1.56,1.56,0,0,0,.7.45Z"/><path class="cls-48" d="M18.54,82.7c0-.08,0-.13.05-.15l.14,0,.17,0h.18a.26.26,0,0,0,.13-.08.41.41,0,0,0,.05-.25c0-2,0-2.95.15-4.88a.47.47,0,0,0,0-.24.57.57,0,0,0-.12-.18,1.14,1.14,0,0,0-.16-.15l-.16-.12-.13-.12a.23.23,0,0,1,0-.14s0,0,0,0,0,0,0,0l3.29,1a.33.33,0,0,0,.15,0l.16,0h.2l0,0c0,.66,0,1,0,1.66a.08.08,0,0,1-.08,0s-.07,0-.09-.13a1.43,1.43,0,0,1-.06-.26c0-.1,0-.21,0-.32s0-.23-.05-.34a1,1,0,0,0-.1-.28.33.33,0,0,0-.17-.16l-1.61-.55a.26.26,0,0,0-.11,0s-.05,0-.06,0a.19.19,0,0,0,0,.12.92.92,0,0,0,0,.19c0,.89-.07,1.33-.09,2.23l1.35.35c.06,0,.11,0,.15-.07a1.63,1.63,0,0,0,.11-.23c0-.08.07-.16.1-.23s.08-.09.13-.08l0,0,0,0c0,.75,0,1.13,0,1.89h-.07a.26.26,0,0,1-.11-.16l-.1-.29a2.49,2.49,0,0,0-.11-.29.31.31,0,0,0-.15-.18L20.05,80c0,1,0,1.49,0,2.49a1.69,1.69,0,0,0,0,.33.21.21,0,0,0,.12.17l1.63.45a.65.65,0,0,0,.19,0,.21.21,0,0,0,.14-.07.46.46,0,0,0,.1-.21,1.92,1.92,0,0,0,.08-.37c0-.09,0-.18.05-.27a1.55,1.55,0,0,1,.05-.23.91.91,0,0,1,.06-.16s0-.06.07,0h0l.06,0c0,.8-.06,1.2-.09,2,0,0,0,0,0,0l0,0L22.37,84l-.14-.08-.15-.08-.13,0-3.39-1A.08.08,0,0,1,18.54,82.7Z"/><path class="cls-48" d="M23.19,79.87a2.94,2.94,0,0,1,.26-.76,1.64,1.64,0,0,1,.38-.53,1.42,1.42,0,0,1,.46-.32,1.13,1.13,0,0,1,.51-.12,1.67,1.67,0,0,1,.54.07,2,2,0,0,1,.53.26,2.8,2.8,0,0,1,.49.43,3.1,3.1,0,0,1,.44.6,4.46,4.46,0,0,1,.35.76,6.86,6.86,0,0,1,.23.92,6,6,0,0,1,.09,1.07,5.39,5.39,0,0,1-.08,1,3.31,3.31,0,0,1-.22.8,2,2,0,0,1-.34.56,1.61,1.61,0,0,1-.45.35,1.28,1.28,0,0,1-.51.13,1.68,1.68,0,0,1-.54-.08,2.16,2.16,0,0,1-.55-.27,3.71,3.71,0,0,1-.53-.46,4.45,4.45,0,0,1-.46-.63,4.53,4.53,0,0,1-.37-.8,5.16,5.16,0,0,1-.25-.94,7.41,7.41,0,0,1-.08-1.08A4.87,4.87,0,0,1,23.19,79.87ZM24,82.32a5,5,0,0,0,.38,1.17,3.06,3.06,0,0,0,.53.82,1.38,1.38,0,0,0,.58.41.71.71,0,0,0,.5,0,.87.87,0,0,0,.41-.4,2.65,2.65,0,0,0,.28-.8,6.27,6.27,0,0,0,.1-1.24,9.19,9.19,0,0,0-.14-1.48,5.6,5.6,0,0,0-.35-1.13,2.85,2.85,0,0,0-.49-.76,1.25,1.25,0,0,0-.55-.38.78.78,0,0,0-.5,0,.92.92,0,0,0-.44.38,2.35,2.35,0,0,0-.32.76,4.42,4.42,0,0,0-.13,1.18A6.26,6.26,0,0,0,24,82.32Z"/><path class="cls-48" d="M28.73,80.87c0,1.75,0,2.65.05,4.42a.6.6,0,0,0,0,.26.42.42,0,0,0,.13.16l.16.1.16.07a.3.3,0,0,1,.13.09s.05.08.06.15a.55.55,0,0,0,0,.09l-1.67-.54a.65.65,0,0,1,0-.11c0-.06,0-.1.05-.11a.28.28,0,0,1,.13,0l.18,0a.48.48,0,0,0,.17,0,.17.17,0,0,0,.14-.08.41.41,0,0,0,0-.23c0-2,0-3,0-5a.53.53,0,0,0-.05-.26.59.59,0,0,0-.13-.18,1.1,1.1,0,0,0-.18-.14L28,79.46l-.14-.11a.22.22,0,0,1-.05-.14v-.08l1.21.38c.62,2.29.95,3.46,1.63,5.8.45-2,.68-3,1.18-4.9l1.33.43c0,.06,0,.1,0,.1s0,.09-.06.1H33l-.17,0a.35.35,0,0,0-.18,0,.2.2,0,0,0-.13.09.3.3,0,0,0-.05.23c.07,2.07.12,3.12.23,5.21a.66.66,0,0,0,.07.26.61.61,0,0,0,.15.17.78.78,0,0,0,.18.11l.18.1a.48.48,0,0,1,.14.09.16.16,0,0,1,.06.13.44.44,0,0,1,0,.09l-2.1-.69a.28.28,0,0,1,0-.11c0-.06,0-.1.05-.11a.27.27,0,0,1,.13,0l.17,0a.33.33,0,0,0,.17,0,.17.17,0,0,0,.13-.08.4.4,0,0,0,0-.24c-.09-2.08-.13-3.13-.17-5.2-.54,2.18-.8,3.28-1.28,5.45l-.19-.06C29.69,84.24,29.36,83.1,28.73,80.87Z"/><path class="cls-48" d="M33.53,87.49c0-.07,0-.12,0-.14a.19.19,0,0,1,.13,0l.16,0a.3.3,0,0,0,.16,0,.16.16,0,0,0,.12-.08.42.42,0,0,0,0-.25c-.08-2-.11-3-.15-5a.49.49,0,0,0-.06-.25.62.62,0,0,0-.12-.19.8.8,0,0,0-.17-.15l-.16-.13a.49.49,0,0,1-.12-.13.25.25,0,0,1-.06-.14s0,0,0-.06a0,0,0,0,0,0,0l3.16,1a.33.33,0,0,0,.15,0l.15,0H37l0,0a0,0,0,0,1,0,0c0,.7,0,1,.08,1.74a.12.12,0,0,1-.08,0s-.07-.06-.1-.13,0-.17-.06-.27,0-.22-.06-.35,0-.24-.07-.35a1.1,1.1,0,0,0-.11-.29.33.33,0,0,0-.17-.16l-1.55-.58h-.1a.08.08,0,0,0,0,0,.37.37,0,0,0,0,.12.73.73,0,0,0,0,.21c0,.92,0,1.39.06,2.31l1.27.36a.11.11,0,0,0,.14-.07.85.85,0,0,0,.09-.24c0-.08.05-.16.08-.23s.07-.1.11-.09l0,0,.05,0c0,.77,0,1.16.07,1.94,0,0-.05,0-.07,0s-.07-.06-.11-.16-.07-.19-.1-.3-.08-.21-.12-.3-.1-.16-.16-.18l-1.27-.47c0,1,.05,1.54.09,2.55a1.63,1.63,0,0,0,0,.33q0,.15.12.18l1.53.45a.4.4,0,0,0,.18,0,.16.16,0,0,0,.13-.07.54.54,0,0,0,.08-.21,1.59,1.59,0,0,0,.06-.38l0-.27a1.57,1.57,0,0,1,0-.23.58.58,0,0,1,0-.17s0-.06.06,0h0l.06,0c0,.82,0,1.22,0,2,0,0,0,0,0,0l0,0-.08-.06L37,88.75l-.14-.08-.13,0-3.2-1.06A.1.1,0,0,1,33.53,87.49Z"/><path class="cls-48" d="M37.59,82.23h.06a.51.51,0,0,1,.18.09.69.69,0,0,0,.19.1l1.14.4,1.26.41.08,0h.22l.08,0c.09.74.13,1.11.22,1.86a.06.06,0,0,1-.06,0s0,0-.05-.07l0-.15c0-.06,0-.13,0-.2a1.55,1.55,0,0,1,0-.21c0-.13-.06-.25-.08-.36s0-.19-.08-.27a.68.68,0,0,0-.11-.19.23.23,0,0,0-.13-.11l-.87-.34c.08,2.27.13,3.42.27,5.66a.43.43,0,0,0,.07.24.61.61,0,0,0,.15.17l.18.11.19.09.14.11a.23.23,0,0,1,.07.14s0,0,0,.09l-2.19-.72a.37.37,0,0,1,0-.11c0-.06,0-.1,0-.11a.21.21,0,0,1,.14,0l.18,0h.17A.17.17,0,0,0,39,88.9s0-.12,0-.24c-.13-2.22-.17-3.37-.24-5.63l-.74-.2a.16.16,0,0,0-.14,0,.28.28,0,0,0-.1.13,1.94,1.94,0,0,0-.07.22q0,.14-.06.3a1.16,1.16,0,0,1,0,.18.71.71,0,0,1,0,.17.83.83,0,0,1,0,.12s0,0-.05,0l-.06,0,.05-1.75Z"/><path class="cls-48" d="M42.8,90.15a.73.73,0,0,0,.14.16.62.62,0,0,0,.17.11l.17.08a.48.48,0,0,1,.14.09.25.25,0,0,1,.06.15.38.38,0,0,1,0,.1l-2-.67a.44.44,0,0,1,0-.1.11.11,0,0,1,0-.12.23.23,0,0,1,.12,0l.16,0h.15a.18.18,0,0,0,.12-.09.45.45,0,0,0,0-.23c-.15-2-.2-3-.29-5.07a.54.54,0,0,0-.06-.25.76.76,0,0,0-.12-.19L41.41,84l-.16-.13a.71.71,0,0,1-.12-.13.32.32,0,0,1-.06-.15.58.58,0,0,0,0-.1l1.31.45.49.19a4.59,4.59,0,0,1,.49.26,3.72,3.72,0,0,1,.45.33,2.6,2.6,0,0,1,.38.43,2.27,2.27,0,0,1,.27.54,2.66,2.66,0,0,1,.13.66,2.12,2.12,0,0,1-.06.66,1,1,0,0,1-.22.4.77.77,0,0,1-.33.18.93.93,0,0,1-.37,0c.42,1.15.64,1.71,1.09,2.83a1.57,1.57,0,0,0,.16.29,2.51,2.51,0,0,0,.19.24l.2.17.18.09a.14.14,0,0,1,.07.08l0,.09v.08a0,0,0,0,0,0,0l-1.26-.4c-.05-.1-.1-.24-.17-.41l-.2-.55c-.1-.26-.14-.39-.23-.66s-.15-.42-.24-.7-.14-.41-.23-.69-.13-.38-.21-.63l-.44-.27c.06,1.09.1,1.63.18,2.7A.67.67,0,0,0,42.8,90.15Zm.36-3.07a.89.89,0,0,0,.45-.07.5.5,0,0,0,.25-.31,1.43,1.43,0,0,0,.06-.62,2.32,2.32,0,0,0-.13-.72,1.75,1.75,0,0,0-.3-.5,1.8,1.8,0,0,0-.47-.33,5.08,5.08,0,0,0-.61-.26c0,1.08.07,1.62.13,2.69A4.75,4.75,0,0,0,43.16,87.08Z"/><path class="cls-48" d="M46,86a.9.9,0,0,0-.07-.14l-.14-.18-.17-.21-.15-.19-.12-.16L45.3,85a.62.62,0,0,1,0-.09l1.93.67a.65.65,0,0,1,0,.11.08.08,0,0,1,0,.08.23.23,0,0,1-.1,0l-.13,0-.14,0-.1.06a.15.15,0,0,0,0,.11.5.5,0,0,0,0,.12c.34,1,.52,1.54.87,2.55l.5-2.08a.36.36,0,0,0,0-.11.33.33,0,0,0-.08-.18.78.78,0,0,0-.16-.15l-.19-.15a1.2,1.2,0,0,1-.17-.21.08.08,0,0,1,0-.06.58.58,0,0,1,0-.1l1.52.53a.52.52,0,0,1,0,.11.14.14,0,0,1,0,.06l-.07,0-.09,0h-.08a.55.55,0,0,0-.27,0,.38.38,0,0,0-.17.24c-.26.93-.39,1.4-.63,2.31.08,1,.13,1.54.25,2.54a.57.57,0,0,0,.08.24.75.75,0,0,0,.15.16l.19.1.18.1a.67.67,0,0,1,.14.09.15.15,0,0,1,.07.12v.09l-2.14-.66a.22.22,0,0,1,0-.1c0-.06,0-.1,0-.11a.27.27,0,0,1,.13,0l.18,0h.17a.2.2,0,0,0,.12-.08.38.38,0,0,0,0-.23c-.1-.88-.14-1.33-.21-2.23C46.63,87.89,46.42,87.26,46,86Z"/><path class="cls-49" d="M13.65,73.29s28.65,9.46,37,12.26c.13-.32.28-.63.45-1,0,0-37-12-37-12a6.44,6.44,0,0,0-.6.83Z"/><path class="cls-50" d="M50.06,87.66A109.35,109.35,0,0,1,33.72,85c-6.79-1.68-14.9-4.34-19.4-10.34a4,4,0,0,1-.69-1.35,8.22,8.22,0,0,0,.13,9.49l38.92,12.6A8.82,8.82,0,0,1,50.06,87.66Z"/><polygon class="cls-51" points="88.3 70.98 49.28 65.39 14.13 72.6 51.07 84.74 88.3 70.98"/><path class="cls-41" d="M54.14,81a5,5,0,0,1,.64-6.44,29.3,29.3,0,0,1,3.47-2.63c-.21,0-.42,0-.64,0-1.75-.06-3.5,0-5.27,0a40,40,0,0,1-10.7-.68,62.23,62.23,0,0,1-7.84-2.63L18.2,71.77,16,73.21,51.07,84.74s2.27-2.27,3.21-3.5C54.27,81.22,54.15,81,54.14,81Z"/><path class="cls-34" d="M20.4,62.13s4.52,5.77.54,9.25L55,81.38s4.82-2.59.35-9Z"/><path class="cls-35" d="M38.88,70.5a75.55,75.55,0,0,0-16.7-5,12.69,12.69,0,0,0-1.78-3.38l34.94,10.2c4.47,6.46-.35,9-.35,9L47.9,79.3C46.65,74.89,43.2,72.31,38.88,70.5Z"/><path class="cls-36" d="M55,72.21s-4.62,4.09.09,9.17C55.05,81.38,61,78.57,55,72.21Z"/><path class="cls-52" d="M56.09,82.46,18.46,71.89s-.52-2.29,3-1.85c5.05.63,33.91,10.7,33.91,10.7s2.15-4.34-.89-7.89L22.35,63.54s-4.42-1-3.76-2.72L57.27,71.75S63.24,80.09,56.09,82.46Z"/><path class="cls-53" d="M86.94,70.3l-30.83,12s4-4.32.08-10c0,0,29.06-10.84,29.06-10.84S88.93,65.7,86.94,70.3Z"/><g class="cls-54"><path class="cls-7" d="M56.6,72.93c-.12-.21-.26-.42-.41-.64,0,0,29.06-10.84,29.06-10.84a5,5,0,0,1,.32.43S60.74,71.39,56.6,72.93Z"/></g><polygon class="cls-55" points="18.59 60.82 55.7 55.62 85.25 61.45 56.28 72.42 18.59 60.82"/><path class="cls-56" d="M78.72,63.92l-22.44,8.5-22-6.88C49.34,65,64.14,64.5,78.72,63.92Z"/><path class="cls-57" d="M59.65,79.23v.13l-1.06.48,0-.14.43-.47a44.57,44.57,0,0,1,1.42-6.51l.18-.08c.68,2,1,3.08,1.85,5.23h.3V78l-.7.3c-.44.19-.7-.07-.84-.42s-.22-.56-.36-.93l-1.42.59c-.12.63-.17,1-.26,1.6Zm-.15-1.92,1.3-.54c-.31-.83-.45-1.23-.74-2C59.82,75.75,59.7,76.26,59.5,77.31Z"/><path class="cls-57" d="M64.65,71.19v.13l-.38.27c-.06,2.18-.09,3.29,0,5.58l1.27-.52a2.72,2.72,0,0,1,.38-1.5l.18-.07c0,.62,0,.93,0,1.55-1.27.52-1.9.78-3.15,1.31v-.13c.13-.12.2-.17.34-.28-.1-2.29-.08-3.38,0-5.55h-.37v-.12Z"/><path class="cls-57" d="M68.84,74.67c0-.79,0-1.19.06-2h-.36v-.13l1.73-.67V72l-.37.27c0,1.14-.08,1.71-.1,2.87l-.09,0c-.69.27-.79-.37-.79-.37A1.92,1.92,0,0,1,68.05,76c-.89.36-1.68-.47-1.64-2.47s.91-3.46,2.06-3.9a.9.9,0,0,1,1,.19,2.17,2.17,0,0,1,.36-.61l.15-.06c0,.66,0,1-.08,1.64l-.24.1s-.21-1.41-1-1.09c-.49.19-1,1.06-1.1,3.31s.36,2.67.81,2.49S68.84,74.67,68.84,74.67Z"/><path class="cls-57" d="M72.78,70.94a3.75,3.75,0,0,1,.32-1l.18-.07c0,.77-.07,1.16-.11,1.94l-.18.07a1.91,1.91,0,0,1-.23-.76l-.69.28c-.06,1-.09,1.58-.13,2.66l1.4-.56a3,3,0,0,1,.47-1.48L74,72c0,.61-.06.92-.09,1.54l-3.32,1.31V74.7l.36-.27c.08-2.23.15-3.33.26-5.5h-.36v-.13l3.26-1.26c0,.62-.05.93-.08,1.55l-.19.07s-.36-.28-.32-1.18l-1.31.51c0,1.07-.08,1.62-.14,2.71Z"/><path class="cls-57" d="M74.78,67.42v-.13l1.63-.63c1.29-.5,1.74,0,1.69.81a2.4,2.4,0,0,1-1.48,1.89s1.62-.65,1.51.91a2.69,2.69,0,0,1-2,2.36l-1.73.68v-.13l.37-.27c.13-2.23.22-3.34.32-5.5ZM76,69.52l.27-.11a1.85,1.85,0,0,0,.83-1.54c0-.77-.3-1.14-.69-1l-.27.1C76.08,68,76.05,68.49,76,69.52Zm0,.21c-.07,1.13-.11,1.69-.19,2.83l.39-.15a1.93,1.93,0,0,0,.93-1.74c.07-.91-.26-1.28-.74-1.09Z"/><path class="cls-57" d="M80.4,68.37l-.38.15c-.06,1-.1,1.43-.17,2.4l.4,0V71l-1.75.7v-.13l.37-.27c.16-2.24.25-3.34.34-5.48h-.36v-.13l1.57-.6c1.41-.54,1.86-.06,1.81.92a2.53,2.53,0,0,1-1.5,2.13s.74-.3.92.38.25.9.41,1.5h.28v.13l-.83.33c-.35.14-.55-.07-.65-.45C80.68,69.38,80.59,69,80.4,68.37Zm-.13-.16a1.9,1.9,0,0,0,1-1.79c.05-.94-.29-1.3-.82-1.1l-.24.09c0,1.14-.07,1.72-.15,2.9Z"/><path class="cls-57" d="M83.32,69.67v.12l-1.09.44V70.1l.49-.45c.85-2.58,1.26-3.86,1.9-6.21l.17-.06c.62,1.91.88,2.93,1.38,5h.28v.12l-.7.28c-.44.18-.64-.07-.72-.41l-.23-.9-1.4.55c-.19.61-.29.91-.49,1.52Zm.14-1.84,1.29-.51c-.2-.79-.31-1.19-.53-2C83.94,66.33,83.78,66.82,83.46,67.83Z"/><path class="cls-58" d="M69,75c-2.66.83-8.45,2.94-11.18,3.42a7.78,7.78,0,0,1-1.72,3.83l30.83-12a7.61,7.61,0,0,0-.06-6C84.91,66.86,74.44,73.31,69,75Z"/><path class="cls-59" d="M89.78,92.21l-.73.17a7,7,0,0,1-.57-4.83c0-.21-3.34,1.34-3.28,2a54.06,54.06,0,0,0,1,6.69l7.24-2.7S93.27,91.6,89.78,92.21Z"/><path class="cls-8" d="M132.16,99.64l-36.48-1c-7.28,1.08-3.84,2.74-3,3.62,1.22,1.21,15.8,9.76,15.8,9.76h.14c1.55-.3,16.36-3.22,27.4-7.2,0,0,5-1.1.46-3.42Z"/><path class="cls-60" d="M89.29,89.05s2.53,10,3.8,11.15S108.88,110,108.88,110s15.88-3,27.54-7.22a4.38,4.38,0,0,0,.43-2.85l-15.68-8.36-5.43-7.81S89,87.67,89.29,89.05Z"/><path class="cls-61" d="M93.52,90.22c2.82,3.86,6.68,2.36,11.27,4l.65.25c.66.27,1.31.55,2,.85a40.12,40.12,0,0,1,3.77,2c.47.29.93.58,1.38.88l.16.12c-2.54,1.07-4.74,5.4-4.56,8.66A6.94,6.94,0,0,0,109,110h-.15s-14.52-8.62-15.79-9.76-3.8-11.15-3.8-11.15C89.22,88.73,91.31,90.67,93.52,90.22Z"/><path class="cls-51" d="M89.29,89.05s4.22,6.73,5.49,7.87,13.32,10.25,13.32,10.25,19.74-4.61,28.75-7.28l-15.68-8.36-5.43-7.81Z"/><path class="cls-62" d="M92.4,89.54l22.52-4.32,3.91,6s-16.2,3-22.46,5.09Z"/><polygon class="cls-63" points="114.15 86.14 116.69 90.56 97.54 95.08 94.33 90.23 114.15 86.14"/><polygon class="cls-51" points="98.7 90.39 96.16 90.75 97.81 93.87 100.29 93.42 99.94 92.7 98.17 93.03 97.41 91.54 99.11 91.24 98.7 90.39"/><path class="cls-51" d="M99.32,90.05l1.62,3.1,2.19-.51-1.59-3Zm3,2-1.25.23-.87-1.64,1.23-.23Z"/><polygon class="cls-51" points="104.15 89.11 102.22 89.57 102.93 90.98 104.47 90.69 104.91 91.45 103.34 91.75 103.73 92.49 105.73 92.03 104.73 90.15 103.25 90.38 103.02 89.94 104.46 89.69 104.15 89.11"/><path class="cls-51" d="M107.53,88.84l-.27-.5-1.68.39,1.65,3,1.81-.41-1.11-1.91-1.27.24-.32-.56Zm.34,1.21.49,1-.85.2-.51-1Z"/><path class="cls-51" d="M108.09,88.24l1.7,2.92,1.62-.39-1.78-3Zm2.57,2.11-.68.18-.49-.88.71-.13Zm-1.51-1.21-.33-.55.68-.17.33.56Z"/><path class="cls-51" d="M112,87.51l1.66,2.77,1.46-.38-1.62-2.76Zm2.5,2.11-.65.16-.52-.93.65-.12ZM113,88.36l-.32-.52.65-.14.35.57Z"/><polygon class="cls-51" points="113.21 90.33 111.51 87.56 111.03 87.66 112.7 90.46 113.21 90.33"/><polygon class="cls-51" points="111.49 90.11 111.83 90.69 112.35 90.56 111.99 89.96 111.49 90.11"/><polygon class="cls-64" points="124.44 100.64 120.57 101.61 118.31 99.88 122.11 98.87 124.44 100.64"/><polygon class="cls-64" points="113.64 103.35 111.66 101.64 116.69 100.31 118.76 102.07 113.64 103.35"/><polygon class="cls-64" points="108.47 98.9 113.6 97.67 115.86 99.59 110.81 100.91 108.47 98.9"/><polygon class="cls-64" points="121.23 98.2 117.42 99.19 114.99 97.33 118.87 96.4 121.23 98.2"/><polygon class="cls-64" points="111.95 95 115.78 94.06 117.84 95.63 114.02 96.58 111.95 95"/><polygon class="cls-65" points="107.11 99.22 108.56 100.61 108.56 100.61 108.93 100.97 109.28 101.3 109.28 101.3 112.1 103.74 108.24 104.71 102.33 100.37 107.11 99.22"/><polygon class="cls-64" points="119.16 95.3 116.95 93.78 120.3 92.96 122.97 94.35 119.16 95.3"/><polygon class="cls-64" points="105.71 96.52 105.61 96.55 110.8 95.28 112.71 96.91 107.63 98.17 105.71 96.52"/><polygon class="cls-64" points="131.6 98.84 126.27 100.18 123.74 98.44 128.44 97.19 131.6 98.84"/><polygon class="cls-64" points="124.38 95.08 127.33 96.62 122.8 97.79 120.28 96.06 124.38 95.08"/><polygon class="cls-66" points="99.25 98.1 104.58 96.8 106.35 98.49 101.45 99.72 99.25 98.1"/><path class="cls-67" d="M112.21,89.19c1.8.74,3.62,1.49,5.47,2.23l1.15-.22-3.91-6-7.85,1.51C108.76,87.57,110.45,88.46,112.21,89.19Z"/><path class="cls-67" d="M111.34,92.4C109.54,91.64,107.7,91,106,90a31.13,31.13,0,0,0-4.52-2.24l-5.06,1a42.16,42.16,0,0,0,5.72,2.07c2.43.77,4.9,1.55,7.45,2.2l2.17-.45Z"/><path class="cls-67" d="M94.15,92.53l2.22,3.76c1.14-.38,2.59-.78,4.2-1.19C98.39,94.28,96.27,93.36,94.15,92.53Z"/><path class="cls-8" d="M71.5,112s12.12-7.4,12.82-7.39c.32-.12,17.84,9.89,18.18,10.07,3.12,1.68,2.12,2.1,2.12,2.1l-13.86,9.58a.68.68,0,0,1-.75,0c-2.61-1.7-18-11.7-18.41-12C68.24,112,71.5,112,71.5,112Z"/><path class="cls-51" d="M71.19,110.68a2.25,2.25,0,0,0,.38,2.07C72,113,87.36,123,90,124.72a.66.66,0,0,0,.74,0l12.53-8.7s1-2.3.8-2.61S84.61,102.84,84.28,103,71.19,110.68,71.19,110.68Z"/><path class="cls-68" d="M71.19,110.68l19.13,12a.69.69,0,0,0,.73,0c2.15-1.46,13.22-8.95,13-9.23S84.63,103,84.28,103C83.58,103,71.19,110.68,71.19,110.68Z"/><path class="cls-9" d="M73.52,110.5l16.06,9.44s11.15-7.12,10.94-7.38-15.77-8.47-16.07-8.47C83.92,104.09,73.52,110.5,73.52,110.5Z"/><path class="cls-69" d="M95.69,117.62l0,0a.49.49,0,0,0,.52,0l.55-.39a.36.36,0,0,0,0-.58h0a.45.45,0,0,0-.54,0l-.56.37A.36.36,0,0,0,95.69,117.62Z"/><path class="cls-70" d="M92.69,107.26C88.37,105,84.44,103,84.28,103c-.52,0-7.51,4.27-11,6.46A170,170,0,0,0,92.69,107.26Z"/><path class="cls-70" d="M83.18,118.18l7.14,4.46a.69.69,0,0,0,.73,0c1.43-1,6.77-4.58,10.14-7C97.34,116.06,85.34,117.77,83.18,118.18Z"/><path class="cls-68" d="M78.23,112l-.14,0a3.83,3.83,0,0,1-1.17-1l.2-.11a3.54,3.54,0,0,0,1,.88.64.64,0,0,0,.43-.1c.2-.12.34-.29.32-.42h.26c0,.24-.2.46-.42.59A1,1,0,0,1,78.23,112Z"/><path class="cls-68" d="M78,111.56l-.25-.09a1.22,1.22,0,0,1,.36-.43,1,1,0,0,0,.3-.37l.25.09a1.19,1.19,0,0,1-.35.43A1,1,0,0,0,78,111.56Z"/><path class="cls-68" d="M77.24,111,77,111c0-.27.29-.46.55-.63a1.52,1.52,0,0,0,.23-.16l.2.16a2,2,0,0,1-.26.18C77.48,110.64,77.24,110.79,77.24,111Z"/><path class="cls-68" d="M79.43,110.16l-.22-.13a1.54,1.54,0,0,1,.53-.41,1.81,1.81,0,0,0,.41-.3l.21.15a2.48,2.48,0,0,1-.45.33A1.51,1.51,0,0,0,79.43,110.16Z"/><path class="cls-68" d="M79.91,110.47l-.15-.19c.26-.11.86-.39.88-.69l.26,0C80.87,110,80.22,110.33,79.91,110.47Z"/><path class="cls-68" d="M81.71,109.51l-.08-.23a.6.6,0,0,1,0-.23V109h.18a.45.45,0,0,0,0-.53c-.07-.08-.11-.09-.11-.09a.24.24,0,0,0,0,.25l-.2.09c-.15-.2-.15-.45,0-.53s.22-.09.46.16a.58.58,0,0,1,.08.66c.38,0,.63-.07.6-.37l.25,0c.06.55-.54.57-1,.56l-.11.15Z"/><path class="cls-68" d="M83.47,108.5h-.09a1.29,1.29,0,0,1-.7-.51,1.36,1.36,0,0,0-.47-.41l-.21-.08.16-.11a2.86,2.86,0,0,0,.3-.24,2.4,2.4,0,0,1,.48-.36l.15.21a2.67,2.67,0,0,0-.45.33c-.06.05-.12.11-.18.15a2.46,2.46,0,0,1,.4.39,1.08,1.08,0,0,0,.53.42c.31.06.41-.27.43-.48l.25.08C84,108.31,83.79,108.53,83.47,108.5Z"/><path class="cls-68" d="M82.92,108.07l-.17-.19.25-.18.26-.2.17.2a2.27,2.27,0,0,0-.25.18Z"/><path class="cls-68" d="M84.75,108.06a.43.43,0,0,1-.27-.13l0,0-.21,0a.44.44,0,0,1,.64-.52.41.41,0,0,1,.17.38c0,.17-.1.27-.23.29Zm-.15-.48h0a.21.21,0,0,0,.05.22s0,0,.07,0,.06,0,.07-.13,0-.12,0-.13A.18.18,0,0,0,84.6,107.58Z"/><path class="cls-68" d="M80.12,113.33a.72.72,0,0,1-.34-.1c-.29-.15-.41-.38-.33-.61a.56.56,0,0,1,.53-.37.3.3,0,0,1,.27.24l-.25,0s0-.05,0-.05h0a.35.35,0,0,0-.27.23c0,.1,0,.24.21.37a.33.33,0,0,0,.36,0,.89.89,0,0,0,.32-.72.38.38,0,0,1,0-.34c0-.15,0-.22.09-.37a1.34,1.34,0,0,1,.07.18.43.43,0,0,1,.74.09.37.37,0,0,1-.13.52.66.66,0,0,1-.41.1h0l0,0h0a1,1,0,0,1-.4.73A.48.48,0,0,1,80.12,113.33Zm1-1.47h0a.22.22,0,0,0-.19.17.26.26,0,0,0,.07.3.3.3,0,0,0,.18-.06.19.19,0,0,0,.07-.29S81.16,111.87,81.1,111.86Z"/><path class="cls-68" d="M82,112.3h0a1.55,1.55,0,0,0,0-.21,2.18,2.18,0,0,0,.52-.06.06.06,0,0,0,0-.08.51.51,0,0,0-.28-.15l-.18,0a.52.52,0,0,1-.37,0,.42.42,0,0,1-.23-.24.36.36,0,0,1,.08-.42A.54.54,0,0,1,82,111a1.38,1.38,0,0,1,0,.2.27.27,0,0,0-.25.08.18.18,0,0,0-.06.21.21.21,0,0,0,.1.12s.1,0,.17,0a1,1,0,0,1,.3,0,.86.86,0,0,1,.49.27.24.24,0,0,1,0,.28C82.61,112.3,82,112.3,82,112.3Z"/><path class="cls-68" d="M83.27,111.89a1.48,1.48,0,0,1-1-.72,1.11,1.11,0,0,1,0-1.14l.23.12a.9.9,0,0,0,0,.95,1.18,1.18,0,0,0,.77.59Z"/><path class="cls-68" d="M83.89,111.19,83.7,111a1.07,1.07,0,0,1-.19-.18h-.19a2.42,2.42,0,0,1,0-.27,2,2,0,0,1-.24-1v-.21l.2.16a1.16,1.16,0,0,1,.3,1,.57.57,0,0,0,.08.13c0-.34,0-.73.39-.91l.11,0,.07.11a.14.14,0,0,1,0,.2h0a.08.08,0,0,1,0,0l-.07,0c-.24.16-.24.52-.24.82a1,1,0,0,1,0,.18A1.48,1.48,0,0,1,83.89,111.19Z"/><path class="cls-68" d="M84.25,110.57l-.16,0h0a1.55,1.55,0,0,0,0-.21h0c.34,0,.56,0,.66-.14l.23.11C84.84,110.58,84.53,110.59,84.25,110.57Z"/><path class="cls-68" d="M85.74,110h0a6.28,6.28,0,0,1-1.24-.56,1.77,1.77,0,0,1,.12-.17,5.47,5.47,0,0,0,1.07.5h0l.09,0v0l.12.07a.11.11,0,0,0,0-.05s0,.06,0,.1a.14.14,0,0,1-.11.06Z"/><path class="cls-68" d="M84.91,110.27a2,2,0,0,1,0-1.24l.25.09a1.79,1.79,0,0,0,0,1.08Z"/><path class="cls-68" d="M86.24,108.9l-.22-.14a1.12,1.12,0,0,1,.27-.26c.14-.1.28-.2.28-.34l.25.07c0,.21-.18.34-.35.46A1,1,0,0,0,86.24,108.9Z"/><path class="cls-68" d="M87.19,107.62a.47.47,0,0,1-.29-.14,1.11,1.11,0,0,1-.19-.23,2,2,0,0,1-.63-.21l0-.22a2.07,2.07,0,0,0,.46.18,1.79,1.79,0,0,1-.12-.79c0-.24.18-.26.26-.25a.49.49,0,0,1,.33.26,1,1,0,0,1,0,.93.25.25,0,0,1-.12.08l.09.1a.16.16,0,0,0,.19,0l.15.23A.57.57,0,0,1,87.19,107.62Zm-.41-1.4s-.06.08-.06.11a1.42,1.42,0,0,0,.1.65s0,0,.05,0a.85.85,0,0,0,0-.67s0-.06-.07-.06Z"/><path class="cls-68" d="M87.31,108.52l-.15-.21a2.48,2.48,0,0,0,1-.75l.23.14A2.45,2.45,0,0,1,87.31,108.52Z"/><path class="cls-68" d="M87.72,109.75s0-.07,0-.12a.32.32,0,0,1,.31-.38,1.09,1.09,0,0,0,0-.18.49.49,0,0,0-.07-.19s0,.07,0,.09l-.23,0a1,1,0,0,1-.06-.29c0-.08,0-.12,0-.19l.14,0a.64.64,0,0,1,.46.54s0,.09,0,.13h.06c.37,0,.58,0,.49-.37h.24c.15.58-.34.58-.67.59h-.16a.41.41,0,0,1-.36.29Z"/><path class="cls-68" d="M89.19,108.21l-.08-.24a3,3,0,0,0-.66-1.11c-.2-.23-.7-.77-1.07-.71l-.12-.27c.31,0,.71.18,1.14.63s1,1.31.93,1.58A.13.13,0,0,1,89.19,108.21Z"/><path class="cls-68" d="M83,115.18a.66.66,0,0,1-.4-.1l-.19-.13.23,0a.76.76,0,0,0,.35-.17l-.21,0a1,1,0,0,1-.48-.17c-.19-.15-.18-.29-.16-.36a.54.54,0,0,1,.47-.29.62.62,0,0,1,.54.17l-.2.11a.35.35,0,0,0-.29-.08.31.31,0,0,0-.27.15c0,.05,0,.1.08.16a1,1,0,0,0,.36.11,1.77,1.77,0,0,1,.31.08,1.05,1.05,0,0,0,.19-.4s0,0,0-.08l.25,0s0,0,0,.06a.1.1,0,0,0,0,.11.36.36,0,0,0,.28,0s.21-.07.23-.21l.25,0a.51.51,0,0,1-.39.37.67.67,0,0,1-.51-.05,1.09,1.09,0,0,1-.14.23l0,0a.4.4,0,0,1,0,.38l0,.07H83Zm.18-.32-.15.12h.16A.22.22,0,0,0,83.22,114.86Z"/><path class="cls-68" d="M83.23,113.49h0a.24.24,0,0,1-.22-.27.14.14,0,0,1,.14-.14l0-.06h.09c.2,0,.26.14.26.22A.31.31,0,0,1,83.23,113.49Z"/><path class="cls-68" d="M84.78,114l-.13-.19-.11-.15a1.32,1.32,0,0,1-.29-.53h.25a.66.66,0,0,0,.17.33.43.43,0,0,1,.2-.44L85,113l.07.09.07.09c.16.21.23.26.31.22l.13.17c-.3.13-.5-.1-.62-.26a.66.66,0,0,0,0,.25.92.92,0,0,1,0,.29Z"/><path class="cls-68" d="M86.73,113.28a.39.39,0,0,1-.18,0,1.76,1.76,0,0,1-.78-1,1.4,1.4,0,0,1,.27-1.1l.22.12a1.28,1.28,0,0,0-.25,1,1.6,1.6,0,0,0,.65.85.16.16,0,0,0,.15,0l.13.17A.49.49,0,0,1,86.73,113.28Z"/><path class="cls-68" d="M87.35,112.41l-.11,0a1.35,1.35,0,0,1-.65-.54l.22-.08a1.1,1.1,0,0,0,.49.44.16.16,0,0,0,.12,0,.14.14,0,0,0,.1-.14.44.44,0,0,0,0-.1.77.77,0,0,1-.39-.43l0-.21.23.12a1.09,1.09,0,0,1,.4.4h0a.16.16,0,0,0,.18,0,.15.15,0,0,0,0-.22.83.83,0,0,0-.54-.33c0-.08,0-.12,0-.2a1.17,1.17,0,0,1,.76.47.32.32,0,0,1-.07.42.41.41,0,0,1-.34.09v0a.31.31,0,0,1-.21.3A.52.52,0,0,1,87.35,112.41Z"/><path class="cls-68" d="M89.12,111.58h-.07a.94.94,0,0,1-.56-.27,1.68,1.68,0,0,1-.55-1l.24,0a1.57,1.57,0,0,0,.49.86.71.71,0,0,0,.29.18v-.07h.24a.3.3,0,0,1,0,.25Z"/><path class="cls-68" d="M87.78,110.72a2.12,2.12,0,0,1-.12-.2l.34-.08a1.74,1.74,0,0,0,.62-.21l.18.17a1.82,1.82,0,0,1-.7.24A2.13,2.13,0,0,0,87.78,110.72Z"/><path class="cls-68" d="M89.27,110.93l-.15-.18.07,0a1.2,1.2,0,0,0,.54-.36l.22.12a1.38,1.38,0,0,1-.61.43Z"/><path class="cls-68" d="M90.65,110.22a.65.65,0,0,1-.43-.23,1.74,1.74,0,0,1-.23-.33.73.73,0,0,1-.64-.38l.19-.09c.12.16.24.26.35.25a1,1,0,0,1-.09-.75c.06-.12.19-.16.37-.1a.44.44,0,0,1,.32.36.62.62,0,0,1-.29.64,1.26,1.26,0,0,0,.2.28c.1.11.18.15.26.14l.1.21A.4.4,0,0,1,90.65,110.22Zm-.55-1.43a.09.09,0,0,0-.08,0,.83.83,0,0,0,.07.53.49.49,0,0,0,.16-.43c0-.1-.07-.12-.09-.12Z"/><path class="cls-68" d="M90.48,110.9l-.16-.17c.14-.08.34-.16.54-.25a2.21,2.21,0,0,0,.79-.45l.22.13a2.21,2.21,0,0,1-.87.51A5.58,5.58,0,0,0,90.48,110.9Z"/><path class="cls-68" d="M90.78,111.76l0-.12c0-.27.16-.35.39-.38a.29.29,0,0,0,0-.09.38.38,0,0,0,0-.15l-.07,0,0,0a.42.42,0,0,1-.1-.31.76.76,0,0,0,0-.16l.16.12a.56.56,0,0,1,.25.55v0h0c.42,0,.68,0,.65-.38l.25,0c0,.54-.49.54-.86.54h-.13a.6.6,0,0,1-.4.28Z"/><path class="cls-68" d="M91.82,110.71l-.23-.11a.87.87,0,0,0-.09-.78,2.84,2.84,0,0,0-1.11-1.14,1.52,1.52,0,0,0,.06-.2,3.18,3.18,0,0,1,1.27,1.3A1,1,0,0,1,91.82,110.71Z"/><path class="cls-68" d="M86.2,116.64c-.32,0-.54-.31-.7-.52l0-.06c-.37-.51,0-.8.4-1.08l.19-.14.17.14-.19.15c-.42.3-.62.48-.36.82l0,.06c.14.19.33.45.53.42a2.41,2.41,0,0,0,.84-.66l.21.1a2.44,2.44,0,0,1-1,.76Z"/><path class="cls-68" d="M85.69,116.2l-.16-.16a6.32,6.32,0,0,1,1-.6l.13.17A6.2,6.2,0,0,0,85.69,116.2Z"/><path class="cls-68" d="M87.14,116.79c.23-.26.34-.39.58-.64l0-.06s0-.11-.14-.24a.34.34,0,0,0,0,.1h-.25a1.08,1.08,0,0,1,0-.19,1.11,1.11,0,0,0,0-.17.34.34,0,0,1-.08-.27,2.13,2.13,0,0,1,0-.25l.18.21a.36.36,0,0,1,.11.27l.13.15a1.18,1.18,0,0,1,.17.22h0a2.21,2.21,0,0,0,.27-.25l.2.12a3.71,3.71,0,0,1-.29.27,1.07,1.07,0,0,0-.16.14.3.3,0,0,1-.1.09Z"/><path class="cls-68" d="M88.32,114.84l-.2-.11a1.44,1.44,0,0,1,.33-.27,1.34,1.34,0,0,0,.26-.19l.19.12a2.21,2.21,0,0,1-.29.22A1.13,1.13,0,0,0,88.32,114.84Z"/><path class="cls-68" d="M88.71,115.13l-.12-.16a1.92,1.92,0,0,0,.42-.3,1.84,1.84,0,0,1,.22-.17l.16.14-.2.16A1.86,1.86,0,0,1,88.71,115.13Z"/><path class="cls-68" d="M89.79,114.33h-.07a.83.83,0,0,1-.5-.37.84.84,0,0,0-.41-.32c0-.07,0-.11.06-.18a1,1,0,0,1,.55.41.71.71,0,0,0,.35.28.51.51,0,0,0,.29-.08c.16-.09.28-.24.27-.33h.25c0,.17-.19.36-.37.46A.79.79,0,0,1,89.79,114.33Z"/><path class="cls-68" d="M88.79,113.54l-.15-.15.26-.16a3.43,3.43,0,0,1,.63-.33l.11.17a2.7,2.7,0,0,0-.58.31Z"/><path class="cls-68" d="M89.5,114l-.19-.12a2.8,2.8,0,0,1,.33-.24,1.68,1.68,0,0,0,.33-.25l.2.12a2.51,2.51,0,0,1-.37.27A2.6,2.6,0,0,0,89.5,114Z"/><path class="cls-68" d="M91.06,113.76l-.09,0a.38.38,0,0,1-.22-.15h-.13a.3.3,0,0,1,.08-.18s0,0,0,0h0a.48.48,0,0,1,.16-.07.5.5,0,0,1,.42.06.17.17,0,0,1,0,.24A.34.34,0,0,1,91.06,113.76Zm-.11-.28a.13.13,0,0,0,.1.09s.06,0,.1,0,0,0,0,0a.24.24,0,0,0-.16,0Z"/><path class="cls-68" d="M91.7,113.08l.12-.17a2.5,2.5,0,0,1,.27-.29h-.28a.7.7,0,0,1-.47-.15.26.26,0,0,1-.06-.27.32.32,0,0,1,.2-.21.74.74,0,0,1,.47,0l0,.18a.57.57,0,0,0-.29,0s-.08,0-.09.1,0,.09,0,.12a.66.66,0,0,0,.3.07h.11a.4.4,0,0,0,.11,0,.66.66,0,0,1,.24,0,1.45,1.45,0,0,0,.22-.21l.11-.12.09.14a.33.33,0,0,0,.27.11s.08,0,.07-.11h.24a.26.26,0,0,1-.24.29.66.66,0,0,1-.43-.1l-.18.16a.62.62,0,0,1,0,.13c0,.24-.28.27-.49.3Z"/><path class="cls-68" d="M92.48,112c-.29-.12-.3-.26-.28-.33a.38.38,0,0,1,.4-.19.3.3,0,0,1,.28.19.2.2,0,0,1-.1.24.38.38,0,0,1-.26,0Zm0-.31a.06.06,0,0,0,0,.06.06.06,0,0,0,.06,0s0,0,0-.06,0,0,0,0l-.13,0Z"/><path class="cls-68" d="M93.66,112.3l-.2-.13c-.19-.12-.42-.4-.33-.57l.22.09s0,.08.05.14a.61.61,0,0,1,0-.18c.08-.12.11-.17.19-.18a.19.19,0,0,1,.15,0,.19.19,0,0,0,.08,0,.36.36,0,0,1,.15.08.12.12,0,0,0,.1,0,2,2,0,0,0,.28-.23.64.64,0,0,1,.13-.12l.17.15-.11.11c-.21.19-.33.28-.44.28a.47.47,0,0,1-.3-.12h0a.34.34,0,0,1-.12,0l0,.07a.68.68,0,0,0,0,.32C93.65,112.16,93.66,112.21,93.66,112.3Z"/><path class="cls-68" d="M89.82,117.74h0c-.92-.17-1-.83-1-1.44H89c0,.59.1,1.09.84,1.23v0h.1s0,0,0,0a.13.13,0,0,1,.06.13c0,.07-.08.09-.11.1Z"/><path class="cls-68" d="M89.81,116.76a.45.45,0,0,1-.16,0,.87.87,0,0,1-.43-.54l.24,0a.68.68,0,0,0,.29.38.11.11,0,0,0,.1,0,.22.22,0,0,0,.09-.24.88.88,0,0,0-.07-.23.44.44,0,0,1-.28-.27l0-.17.21.06a.63.63,0,0,1,.3.24.53.53,0,0,0,.12,0,.22.22,0,0,0,.19,0c.13-.16,0-.31-.28-.47a.69.69,0,0,1-.15-.13l.21-.09.1.08c.2.14.57.4.32.72a.45.45,0,0,1-.41.13l0,.12a.41.41,0,0,1-.21.44A.41.41,0,0,1,89.81,116.76Z"/><path class="cls-68" d="M91.55,115.31l-.15,0a1,1,0,0,1-.62-.89H91a.84.84,0,0,0,.48.72.54.54,0,0,0,.33-.06c.09,0,.12-.08.12-.09l.1-.16c.13,0,.17.15.11.25A.81.81,0,0,1,91.55,115.31Z"/><path class="cls-68" d="M90.85,115.18l-.13-.16a3.12,3.12,0,0,0,.8-.5l.19.11A3.63,3.63,0,0,1,90.85,115.18Z"/><path class="cls-68" d="M92.75,114.26l-.18-.11a2,2,0,0,1,.45-.26,2.25,2.25,0,0,0,.31-.16l.16.13a1.92,1.92,0,0,1-.35.18A2.36,2.36,0,0,0,92.75,114.26Z"/><path class="cls-68" d="M94.13,114.19c-.08-.17-.13-.25-.22-.43a1.09,1.09,0,0,0-.08-.15l-.09-.15-.09,0,0,0a.82.82,0,0,1-.11-.54l0-.08h.12a.44.44,0,0,1,.28.15.32.32,0,0,1,0,.21.64.64,0,0,1,.22-.11l.11.16a.25.25,0,0,0-.15.11.4.4,0,0,0,.3.11c.17,0,.19-.07.2-.09l.23,0c0,.15-.21.23-.43.22a.78.78,0,0,1-.37-.09,1.18,1.18,0,0,0,0,.26C94.14,113.92,94.14,114,94.13,114.19Z"/><path class="cls-68" d="M95.51,113.08h0a2.77,2.77,0,0,1-1.09-.49l.19-.1a2.59,2.59,0,0,0,.92.42,0,0,0,0,0,0,0l.18.12A.21.21,0,0,1,95.51,113.08Z"/><path class="cls-68" d="M95.22,113.2l-.24,0a2.46,2.46,0,0,0,0-.47c0-.11,0-.23,0-.35h.24c0,.12,0,.23,0,.34A2.67,2.67,0,0,1,95.22,113.2Z"/><path class="cls-68" d="M96.05,113.81l-.06-.06.09,0-.07,0a1.63,1.63,0,0,0,.17-.75,1.8,1.8,0,0,0-.9-.86l.11-.15a2,2,0,0,1,1,1c0,.12-.08.86-.27.92Z"/><path class="cls-8" d="M61.66,116.34c1.1-1.57-.58-2.15-1.6-2.78-.54-.33-.36-.83-1-.82l-27.65,2.54-.16.09h0l-2.84,1.69h0l-.76.44-1.5.71a.32.32,0,0,0,.09.6l1.63.19h0l2.46.5,2.09.43h0l13.4-1.36h0l1.33-.13h0v0l12.39-1.26h0A3.37,3.37,0,0,0,61.66,116.34Z"/><path class="cls-71" d="M32.56,114.81a2.45,2.45,0,0,1,.61,1.13,8.25,8.25,0,0,1,0,2.76l26-2.77-.46-4.43L32.2,114.05l-.15.08C32.25,114.39,32.42,114.67,32.56,114.81Z"/><path class="cls-51" d="M46.68,117.26c-.22-1.12-.31-2.29-.52-3.41a11.37,11.37,0,0,1-.16-1.13l-13.8,1.33-.15.08c.2.26.37.54.51.68a2.45,2.45,0,0,1,.61,1.13,8.25,8.25,0,0,1,0,2.76Z"/><polygon class="cls-37" points="46.05 117.34 47.33 117.21 46.7 112.66 45.51 112.77 46.05 117.34"/><path class="cls-9" d="M32.2,114.05l-4,2.46a2,2,0,0,1,.23,1.17l4.75,1A4.48,4.48,0,0,0,32.2,114.05Z"/><path class="cls-51" d="M28.59,116.27l-1.44.71a.32.32,0,0,0,.09.6l1.56.18A1,1,0,0,0,28.59,116.27Z"/><polygon class="cls-72" points="48.76 113.78 48.64 113.54 48.86 115.61 57.61 114.44 57.61 114.26 48.76 113.78"/><polygon class="cls-73" points="48.64 113.54 48.86 115.25 57.61 114.26 57.46 112.58 48.64 113.54"/><polygon class="cls-51" points="49.43 114.8 57.03 114.04 56.95 113.26 49.31 113.96 49.43 114.8"/><path class="cls-51" d="M58.75,111.5l.46,4.43a2.35,2.35,0,0,0,2.14-2.59C61.17,111.44,58.75,111.5,58.75,111.5Z"/><path class="cls-72" d="M35.64,117.23c-1.85,0-2.23-.57-2.23-.57a5.12,5.12,0,0,1-4-.79l-.07-.05-.73.45-1.44.71a.32.32,0,0,0,.09.6l1.56.18h0l4.37.94h0L46,117.33h0l1.28-.13v0l11.89-1.26a2.45,2.45,0,0,0,2.12-1.84C56.18,115.41,38.88,117.23,35.64,117.23Z"/><path class="cls-74" d="M68.39,57.72h0a.2.2,0,0,1-.08,0L68,57.51l-.1,0c-.15-.06-.31-.12-.48-.17a8.56,8.56,0,0,0-2.48-.37c-2.29,0-4.33.76-5.2,1.85l0,.07-.12.17,0,0,0,.06a7,7,0,0,0-1.83.07.73.73,0,0,0-.16-.14l0,0-.23-.18h0A5.4,5.4,0,0,0,56,58.21a11,11,0,0,0-3.63-.59c-2.59,0-5,2.14-6.09,3.2-4.36.7-8.66,0-13,.69,0,0-4.72,3.18-.39,2.73C35.22,64,34,62.09,34,62.09c1.55,0,9.25.17,11.57.17,0,0,.07-1.36.07-1.34s0,.07,0,.1a.3.3,0,0,0,0,.1c.09.35-.38.17-.06.47-.41.38-2.7,2.64,0,2.3,2-.25,2.39-.54,2-1a10.85,10.85,0,0,0,4.24.7c2.93-.06,5.4-1,6.15-2.32l1.69-.19c.8,1,2.59,1.58,4.7,1.54a7,7,0,0,0,4.7-1.55,2,2,0,0,0,.71-1.5A2.41,2.41,0,0,0,68.39,57.72ZM58.25,60.48a1.17,1.17,0,0,0-.07-.49,2.86,2.86,0,0,1,1.07,0,1.41,1.41,0,0,0,0,.35Z"/><path class="cls-75" d="M70,54.12,45.26,57.91s-2.81,5.25,0,4.69.92-3.68.92-3.68l23.69-2.83Z"/><path class="cls-76" d="M51.51,51.53A5.39,5.39,0,1,0,57.25,57,5.59,5.59,0,0,0,51.51,51.53Z"/><path class="cls-77" d="M51.51,51.53a5.9,5.9,0,0,0-5,2.57c3.72,1,7.28,3.5,7.72,7.52a5.29,5.29,0,0,0,3-4.65A5.61,5.61,0,0,0,51.51,51.53Z"/><path class="cls-78" d="M65.23,50.15a5.37,5.37,0,1,0,5.52,5.44A5.48,5.48,0,0,0,65.23,50.15Z"/><path class="cls-79" d="M65.23,50.15a5.37,5.37,0,1,0,5.52,5.44A5.48,5.48,0,0,0,65.23,50.15Z"/><path class="cls-77" d="M65.23,50.15a5.65,5.65,0,0,0-4.54,2.17A8.28,8.28,0,0,1,65,54.57a10.45,10.45,0,0,1,2.67,5.76,5.32,5.32,0,0,0,3.11-4.74A5.49,5.49,0,0,0,65.23,50.15Z"/><path class="cls-75" d="M45.91,54.27,33.37,58.1s-4,5.79-.25,5.14c2.16-.36,1-4,1-4l11.57-2.38Z"/><path class="cls-80" d="M35,57.6c.54.37,1.07.77,1.6,1.15l1.58-.29a17.1,17.1,0,0,1-1.82-1.28Z"/><path class="cls-80" d="M39,56.38c.75.52,1.46,1,2.18,1.53l.86-.16c-.69-.56-1.27-1.18-2-1.69Z"/><path class="cls-81" d="M59.58,54.11a4,4,0,0,0-2.38,0s-.32.2-.34.2c.2.56.63.95.69,1.58a1.72,1.72,0,0,1,1.72.12A7.55,7.55,0,0,1,59.58,54.11Z"/><path class="cls-81" d="M51.52,50.89A6,6,0,1,0,58,57,6.26,6.26,0,0,0,51.52,50.89Zm-.11,10.79A4.79,4.79,0,1,1,56.62,57,5,5,0,0,1,51.41,61.68Z"/><path class="cls-81" d="M65,49.51a6,6,0,1,0,5.92,6.08A6,6,0,0,0,65,49.51ZM64.91,60.3a4.78,4.78,0,1,1,4.81-4.72A4.78,4.78,0,0,1,64.91,60.3Z"/><path class="cls-82" d="M56.35,55.41l.33-.1,1-.25a6.12,6.12,0,0,0-2.29-3l-1.52.56A4.94,4.94,0,0,1,56.35,55.41Z"/><path class="cls-82" d="M46.45,58a4.29,4.29,0,0,1-.15-1.2,4.16,4.16,0,0,1,.2-1.27,9.07,9.07,0,0,0-1.23.82,2.51,2.51,0,0,1-.29.2c0,.08,0,.16,0,.24a5.11,5.11,0,0,0,.19,1.47Z"/><path class="cls-82" d="M68.71,52.59l1.29-.3a6.06,6.06,0,0,0-2.11-2l-1.74.62A4.74,4.74,0,0,1,68.71,52.59Z"/><path class="cls-82" d="M69.76,59.1a5.94,5.94,0,0,0,.85-1.64l-1.47.33a4.83,4.83,0,0,1-2.13,2A25.26,25.26,0,0,0,69.76,59.1Z"/><path class="cls-82" d="M60.33,54.39a4.72,4.72,0,0,1,.91-1.85L59.51,53A5.85,5.85,0,0,0,59,54.7Z"/><g class="cls-54"><path class="cls-83" d="M136.81,101.55a6.23,6.23,0,0,0,0-1.66L123.9,93c10.09-10.9,16.94-28,9.29-54.18C119-9.64,44.75-11.83,18.87,27.26c0,0-.74,1.09-1.46,2.32S16,32.1,15.89,32.35C7.3,49.21,7.45,65.74,12.25,78.94c0,.25.08.5.14.77,0,.09,0,.18.07.27s.12.4.19.61.08.22.13.33a6.64,6.64,0,0,0,.28.62c0,.1.09.2.15.3s.24.43.38.65a2.72,2.72,0,0,0,.07.33l-2.92.61a6.72,6.72,0,0,0-.55.75h0l0,0-.16.25-.08.13-.17.31,0,.06c-.13.24-.26.51-.38.79a1.17,1.17,0,0,1,0,.11c-.06.14-.11.28-.16.42s-.05.13-.07.2-.09.29-.14.45,0,.13,0,.2a9.06,9.06,0,0,0-.19,1,1.48,1.48,0,0,0,0,.19c0,.15,0,.31,0,.46s0,.24,0,.37a3.38,3.38,0,0,0,0,.45c0,.15,0,.3,0,.45s0,.28,0,.42.09.57.16.86c0,.1,0,.21.08.31s.13.44.21.67.09.24.14.36a7,7,0,0,0,.31.69c0,.11.1.22.16.33s.11.2.17.3c-1.52.54-2.82,1.12-2.39,1.93C2.62,97.58,0,98.81,0,98.81S17.06,125,61.52,129.63C88.71,132.5,129.94,118,140,105.24c0,0-.67-.5-2-1.33C138.65,103.37,138.7,102.59,136.81,101.55Z"/></g></g></g></g></svg>