<svg xmlns="http://www.w3.org/2000/svg" xmlns:xlink="http://www.w3.org/1999/xlink" viewBox="0 0 63.73 78"><defs><style>.cls-1,.cls-10,.cls-11,.cls-12,.cls-2,.cls-3,.cls-4,.cls-5,.cls-6,.cls-7,.cls-8,.cls-9{stroke:#fff;stroke-miterlimit:10;}.cls-1{fill:url(#Ñóïåðìÿãêàÿ_åðíàÿ_âèíüåòêà);}.cls-2{fill:url(#Ñóïåðìÿãêàÿ_åðíàÿ_âèíüåòêà-2);}.cls-3{fill:url(#Ñóïåðìÿãêàÿ_åðíàÿ_âèíüåòêà-3);}.cls-4{fill:url(#Ñóïåðìÿãêàÿ_åðíàÿ_âèíüåòêà-4);}.cls-5{fill:url(#Ñóïåðìÿãêàÿ_åðíàÿ_âèíüåòêà-5);}.cls-6{fill:url(#Ñóïåðìÿãêàÿ_åðíàÿ_âèíüåòêà-6);}.cls-7{fill:url(#Ñóïåðìÿãêàÿ_åðíàÿ_âèíüåòêà-7);}.cls-8{fill:url(#Ñóïåðìÿãêàÿ_åðíàÿ_âèíüåòêà-8);}.cls-9{fill:url(#Ñóïåðìÿãêàÿ_åðíàÿ_âèíüåòêà-9);}.cls-10{fill:url(#Ñóïåðìÿãêàÿ_åðíàÿ_âèíüåòêà-10);}.cls-11{fill:url(#Ñóïåðìÿãêàÿ_åðíàÿ_âèíüåòêà-11);}.cls-12{fill:url(#Ñóïåðìÿãêàÿ_åðíàÿ_âèíüåòêà-12);}</style><radialGradient id="Ñóïåðìÿãêàÿ_åðíàÿ_âèíüåòêà" cx="31.86" cy="39" r="35.11" gradientUnits="userSpaceOnUse"><stop offset="0.57" stop-color="#130c0e"/><stop offset="0.8" stop-color="#130c0e"/><stop offset="1" stop-color="#130c0e"/></radialGradient><radialGradient id="Ñóïåðìÿãêàÿ_åðíàÿ_âèíüåòêà-2" cx="34.69" cy="27.79" r="3.17" xlink:href="#Ñóïåðìÿãêàÿ_åðíàÿ_âèíüåòêà"/><radialGradient id="Ñóïåðìÿãêàÿ_åðíàÿ_âèíüåòêà-3" cx="23.46" cy="39.35" r="2.84" xlink:href="#Ñóïåðìÿãêàÿ_åðíàÿ_âèíüåòêà"/><radialGradient id="Ñóïåðìÿãêàÿ_åðíàÿ_âèíüåòêà-4" cx="11" cy="50.67" r="2.53" xlink:href="#Ñóïåðìÿãêàÿ_åðíàÿ_âèíüåòêà"/><radialGradient id="Ñóïåðìÿãêàÿ_åðíàÿ_âèíüåòêà-5" cx="14.86" cy="46.47" r="1.97" xlink:href="#Ñóïåðìÿãêàÿ_åðíàÿ_âèíüåòêà"/><radialGradient id="Ñóïåðìÿãêàÿ_åðíàÿ_âèíüåòêà-6" cx="37.04" cy="25.64" r="1.82" xlink:href="#Ñóïåðìÿãêàÿ_åðíàÿ_âèíüåòêà"/><radialGradient id="Ñóïåðìÿãêàÿ_åðíàÿ_âèíüåòêà-7" cx="26.36" cy="37.36" r="1.45" xlink:href="#Ñóïåðìÿãêàÿ_åðíàÿ_âèíüåòêà"/><radialGradient id="Ñóïåðìÿãêàÿ_åðíàÿ_âèíüåòêà-8" cx="17.37" cy="44.27" r="1.2" xlink:href="#Ñóïåðìÿãêàÿ_åðíàÿ_âèíüåòêà"/><radialGradient id="Ñóïåðìÿãêàÿ_åðíàÿ_âèíüåòêà-9" cx="29.42" cy="34.88" r="1.23" xlink:href="#Ñóïåðìÿãêàÿ_åðíàÿ_âèíüåòêà"/><radialGradient id="Ñóïåðìÿãêàÿ_åðíàÿ_âèíüåòêà-10" cx="39.43" cy="22.49" r="1.02" xlink:href="#Ñóïåðìÿãêàÿ_åðíàÿ_âèíüåòêà"/><radialGradient id="Ñóïåðìÿãêàÿ_åðíàÿ_âèíüåòêà-11" cx="8.42" cy="51.43" r="1.06" xlink:href="#Ñóïåðìÿãêàÿ_åðíàÿ_âèíüåòêà"/><radialGradient id="Ñóïåðìÿãêàÿ_åðíàÿ_âèíüåòêà-12" cx="41.56" cy="19.13" r="0.44" xlink:href="#Ñóïåðìÿãêàÿ_åðíàÿ_âèíüåòêà"/></defs><g id="Layer_2" data-name="Layer 2"><g id="final"><path class="cls-1" d="M24.09,60.92c-1.08-.85-1.35-2.08-2.3-2.85-.29.3-.19.68-.16,1,.1,1,.24,2,.41,3a1.7,1.7,0,0,1-.43,1.69c-1.45,1.48-2.85,3-4.26,4.52-2.07,2.22-4.13,4.46-6.2,6.69-.66.7-1.33,1.4-2,2.08s-1.22.61-1.76-.22c-.88-1.38-1.74-2.77-2.53-4.2A42.65,42.65,0,0,1,3,68.72c-.55-1.32-1-2.69-1.44-4-.23-.67-.39-1.35-.58-2S.39,61.26.82,60.57a.47.47,0,0,0,0-.41,3,3,0,0,1-.2-2c.22-1.52.53-3,.85-4.5a2.59,2.59,0,0,1,.56-1,19,19,0,0,1,3.63-3.75,7.81,7.81,0,0,0,.65-.64l2-1.84c.9-.82,1.83-1.61,2.73-2.43,1.2-1.11,2.35-2.27,3.59-3.33.92-.78,2-1.43,2.94-2.18s1.68-1.35,2.47-2.09c1.32-1.22,2.64-2.44,3.89-3.73,1.72-1.76,3.41-3.55,5.05-5.39s3.49-3.94,5.13-6c2.49-3.1,4.92-6.27,7.34-9.44,1.39-1.82,2.7-3.72,4.08-5.55.4-.53.94-.94,1.37-1.45a14.9,14.9,0,0,1,2.78-2.6A9.65,9.65,0,0,1,52.84.61,4.12,4.12,0,0,1,55.3.79a12.27,12.27,0,0,1,4.35,2.87C61.05,5,60.82,5.52,59.88,7a12.86,12.86,0,0,0-.71,1.1c-.39.8-.34,1.11.26,2.08.4-.14.82-.28,1.23-.44l1.26-.54a3.11,3.11,0,0,1,1.13,2.21,13.42,13.42,0,0,1-.71,7.13,7.43,7.43,0,0,1-3.08,4,21,21,0,0,1-2,.95,5.06,5.06,0,0,0-2.16,1.65c-.48.61-.9,1.26-1.38,1.87a1,1,0,0,0-.07,1.13c.34.75.67,1.51,1,2.27A1.89,1.89,0,0,1,54,33.1c-.74.67-1.4,1.41-2.12,2.1-.54.51-1.13,1-1.68,1.48l-6.32,5.76c-1.5,1.37-3,2.67-4.47,4.1s-2.79,2.52-4.19,3.78-2.66,2.65-4,4c-.64.65-1.26,1.32-1.89,2s-1.38,1.43-2,2.19a1.14,1.14,0,0,1-1.51.33l-.33-.14c-.59-.2-.71-.13-.82.45-.07.36-.12.73-.22,1.08A4.41,4.41,0,0,1,24.09,60.92Zm-.46-2.37c.63-1.44.63-1.44,2.05-1.09l.08,0a.91.91,0,0,0,1.15-.26c1.42-1.48,2.83-3,4.28-4.41s2.81-2.74,4.25-4.08c2-1.83,4-3.63,5.93-5.45q1.92-1.77,3.82-3.56c.69-.64,1.34-1.33,2.07-1.92,2.14-1.77,4.16-3.66,6.15-5.57a.9.9,0,0,0,.34-1c-.36-1-.75-2-1.19-3-.33-.75-.8-1.45-1.15-2.19-.59-1.26-1.13-2.54-1.69-3.81-.36-.79-.58-.9-1.33-.52a11.79,11.79,0,0,0-2.83,1.6,2.75,2.75,0,0,1-.89.38c-.34-.53-.1-.83.1-1.17.76-1.33,1.49-2.67,2.25-4a1.54,1.54,0,0,0,.11-1.31,15.14,15.14,0,0,1-.65-4,14.18,14.18,0,0,1,.64-5.73c.13-.38.2-.79.34-1.31a1.72,1.72,0,0,0-1.12.74q-2.4,3.13-4.79,6.28c-.65.86-1.27,1.74-1.92,2.6-.5.66-1,1.32-1.52,2q-1.48,1.84-3,3.67c-1.33,1.62-2.68,3.24-4,4.85-.3.36-.64.68-1,1C29,28.49,28,29.77,26.82,31S24.27,33.33,23,34.57A66.2,66.2,0,0,1,16.79,40a50.73,50.73,0,0,0-5,4.46c-1,1.06-2.16,2.07-3.28,3a58.62,58.62,0,0,0-5.37,5.08,1.79,1.79,0,0,0-.44.59,24.42,24.42,0,0,0-.93,3,26,26,0,0,0-.33,3.21,11.18,11.18,0,0,0,.9,4.32,28,28,0,0,0,2,5.36c1,1.73,1.79,3.53,2.72,5.28a3.4,3.4,0,0,0,1.27,1.51c.24-.21.48-.4.69-.61,1.2-1.23,2.38-2.47,3.57-3.7,1-1.08,2.06-2.16,3.1-3.22.56-.57,1.16-1.11,1.74-1.66.06-.06.13-.11.18-.17,1-1.19,2.06-2.39,3.12-3.55a1.11,1.11,0,0,0,.3-1.09c-.57-2-.07-3.94-.28-5.92a.69.69,0,0,1,.5-.87ZM50.32,8a2.73,2.73,0,0,0-.54.29,19.93,19.93,0,0,0-1.5,1.55,3.57,3.57,0,0,0-.92,2.54A20.56,20.56,0,0,0,48,16.79a2,2,0,0,1-.19,1.93A8.62,8.62,0,0,0,47,20.55a2.1,2.1,0,0,0,0,.57,2.31,2.31,0,0,0,1.57-.46c.91-.46,1.32-.31,1.76.65.66,1.48,1.32,3,2,4.44a4.19,4.19,0,0,0,.47.66c1.12-1.07,2.17-2,3.19-3.05.4-.39.34-.62-.21-1.05a13.47,13.47,0,0,1-3.88-4.78,26,26,0,0,1-1.41-3.71,8,8,0,0,1-.33-2.22c0-.88.12-1.76.17-2.64C50.36,8.69,50.33,8.41,50.32,8Zm5.31,12.82.08-.05c.31.27.62.56.95.82a2,2,0,0,0,2.12.31,3.46,3.46,0,0,0,1.72-1.52c.36-.72.73-1.44,1-2.19a12.37,12.37,0,0,0,.35-7,.69.69,0,0,0-.17-.4c-.14-.12-.39-.28-.51-.23-.87.34-1.82.58-2.05,1.72a4,4,0,0,1-1.43,2.1c-.88.79-1.87,1.47-2.81,2.2a5.85,5.85,0,0,0-.76.64,1.1,1.1,0,0,0-.11,1.56C54.53,19.45,55.1,20.1,55.63,20.77Zm2.2-12.9a5.12,5.12,0,0,0,1.66-1.82,1.28,1.28,0,0,0-.25-1.38,8.38,8.38,0,0,0-4.7-3,4.59,4.59,0,0,0-4.61,1.72,11.3,11.3,0,0,0-2.09,4.8,2.55,2.55,0,0,0,0,.65,3.6,3.6,0,0,0,.43-.28l3.2-3.25c.15-.15.34-.39.5-.37a1.51,1.51,0,0,0,1-.38,1.25,1.25,0,0,1,1.66,0,19.5,19.5,0,0,1,1.85,1.67C57,6.75,57.37,7.31,57.83,7.87Zm-6.12,2.19a3.1,3.1,0,0,0,1.36-.9c1-.84,1.16-.8,1.5.53a7.12,7.12,0,0,0,1.54,3.05,1.24,1.24,0,0,0,1.23.53,1,1,0,0,0,.67-1,4.38,4.38,0,0,0-.6-2.93,10.36,10.36,0,0,0-.7-1c-.76-.91-1.53-1.83-2.36-2.68a1,1,0,0,0-1.46-.18A4.44,4.44,0,0,0,51.71,10.06Zm1.38,7.06a7.87,7.87,0,0,0,.76-.49c.64-.53,1.27-1.07,1.9-1.61s.63-.78,0-1.41a7.68,7.68,0,0,1-1.89-2.89.59.59,0,0,0-.14-.31c-.15-.11-.4-.28-.5-.23-.59.29-1.33.5-1.5,1.21a4.49,4.49,0,0,0-.08,1.93,22.5,22.5,0,0,0,.91,2.93A4.72,4.72,0,0,0,53.09,17.12Z"/><path class="cls-2" d="M35.33,23.44c-.29,3-.57,5.86-.86,8.79-.42-.25-.38-.66-.39-1a22.1,22.1,0,0,1,0-2.82c.14-1.53.36-3,.56-4.55C34.71,23.5,34.85,23.2,35.33,23.44Z"/><path class="cls-3" d="M24.23,35.44c-.16.85-.35,1.68-.48,2.53s-.15,1.81-.32,2.69a15,15,0,0,1-.21,2.63,1.17,1.17,0,0,1-.53-1.08,23.8,23.8,0,0,1,.8-6.2C23.58,35.71,23.59,35.29,24.23,35.44Z"/><path class="cls-4" d="M10.79,54.16c-.18-.24-.33-.36-.36-.5a5.14,5.14,0,0,1-.19-1.27A18.09,18.09,0,0,1,11,47.8a1.2,1.2,0,0,1,.17-.47.51.51,0,0,1,.41-.15c.09,0,.21.21.23.32a1.63,1.63,0,0,1-.09.49c-.25,1.3-.54,2.59-.75,3.89a13.77,13.77,0,0,0,0,1.7A2.87,2.87,0,0,1,10.79,54.16Z"/><path class="cls-5" d="M14.45,49.19a6.11,6.11,0,0,1-.18-1.09,12.51,12.51,0,0,1,.43-3.87c.08-.21.1-.57.47-.45s.3.42.23.66A20.54,20.54,0,0,0,14.75,49S14.67,49,14.45,49.19Z"/><path class="cls-6" d="M37,28.18a14.73,14.73,0,0,1-.25-5.09c.46,0,.57.23.59.51a14.27,14.27,0,0,1-.11,4.33C37.23,28,37.17,28,37,28.18Z"/><path class="cls-7" d="M26.09,39.37a6.39,6.39,0,0,1-.12-1c0-.9.1-1.81.18-2.7,0-.14.18-.24.28-.36.11.15.32.31.31.44-.08,1.15-.2,2.3-.32,3.45C26.41,39.26,26.32,39.27,26.09,39.37Z"/><path class="cls-8" d="M17.78,42.63c-.1,1.17-.19,2.23-.29,3.28h-.2A4.59,4.59,0,0,1,17,43.48.82.82,0,0,1,17.78,42.63Z"/><path class="cls-9" d="M29.36,36.58a4.83,4.83,0,0,1-.12-3.19.34.34,0,0,1,.3-.2c.09,0,.2.18.25.29a.78.78,0,0,1,0,.34l-.21,2.36A2.67,2.67,0,0,1,29.36,36.58Z"/><path class="cls-10" d="M39.68,23.88a5.25,5.25,0,0,1-.63-2.38c0-.29.15-.48.58-.38A6.76,6.76,0,0,1,39.68,23.88Z"/><path class="cls-11" d="M8.26,52.86A5.18,5.18,0,0,1,8.31,50c.25.31.47.48.46.61-.07.77-.18,1.54-.28,2.31Z"/><path class="cls-12" d="M41.77,19.72c-.48-.63-.48-.63-.37-1.18C41.88,18.83,41.77,19.2,41.77,19.72Z"/></g></g></svg>