<svg xmlns="http://www.w3.org/2000/svg" xmlns:xlink="http://www.w3.org/1999/xlink" viewBox="0 0 140 130"><defs><style>.cls-1{isolation:isolate;}.cls-2{fill:url(#linear-gradient);}.cls-3,.cls-4{fill:#dde0db;}.cls-11,.cls-39,.cls-4,.cls-44,.cls-45,.cls-46,.cls-48,.cls-82,.cls-89,.cls-90,.cls-91,.cls-99{mix-blend-mode:screen;}.cls-5{fill:#8ba7a9;}.cls-6{fill:#bdc2b9;}.cls-100,.cls-105,.cls-107,.cls-109,.cls-111,.cls-113,.cls-12,.cls-15,.cls-16,.cls-25,.cls-29,.cls-31,.cls-34,.cls-42,.cls-43,.cls-58,.cls-6,.cls-65,.cls-68,.cls-75,.cls-80,.cls-83,.cls-85,.cls-86,.cls-92,.cls-94,.cls-96{mix-blend-mode:multiply;}.cls-7{fill:#fcfbf7;}.cls-8{fill:#26468f;}.cls-106,.cls-45,.cls-9,.cls-90{fill:#fff;}.cls-10{fill:#e5e2cf;}.cls-11{fill:#f2f0db;opacity:0.25;}.cls-12{fill:#cacfc7;}.cls-13{fill:#100c0c;}.cls-14,.cls-15{fill:#a29d9c;}.cls-15,.cls-25,.cls-31,.cls-44,.cls-46,.cls-48,.cls-89,.cls-90{opacity:0.55;}.cls-16{fill:#483e3c;}.cls-16,.cls-85{opacity:0.85;}.cls-17{fill:#6f6d6d;}.cls-18{fill:#52514f;}.cls-19{fill:#2f2a28;}.cls-20{fill:#615e5c;}.cls-21{fill:#2e2c2a;}.cls-22{fill:#444341;}.cls-23,.cls-25{fill:#362a28;}.cls-24{fill:#86807e;}.cls-26{fill:#87807f;}.cls-27,.cls-29,.cls-31{fill:#3f3c3c;}.cls-28{fill:#6a6868;}.cls-104,.cls-29,.cls-34{opacity:0.65;}.cls-30{fill:#666464;}.cls-32,.cls-34{fill:#2f2c2c;}.cls-33{fill:#7a7878;}.cls-35{fill:#3e3b3b;}.cls-36{fill:#807f7f;}.cls-37{fill:#a3a2a2;}.cls-38,.cls-39{fill:#656363;}.cls-40{fill:#343131;}.cls-41,.cls-44{fill:url(#radial-gradient);}.cls-42{fill:url(#radial-gradient-2);}.cls-43{fill:url(#radial-gradient-3);}.cls-45{opacity:0.24;}.cls-46{fill:url(#radial-gradient-5);}.cls-47{fill:#201d1d;}.cls-48{fill:url(#radial-gradient-6);}.cls-49{fill:#717877;}.cls-50{fill:#575f5e;}.cls-51{fill:#454e4d;}.cls-52{fill:#f9f7f0;}.cls-53{fill:#bdc2c2;}.cls-54{fill:#e6e8e8;}.cls-55{fill:#777;}.cls-56{fill:#002674;}.cls-57{fill:#63c;}.cls-58{fill:#aa951b;}.cls-106,.cls-58,.cls-92,.cls-94{opacity:0.35;}.cls-59{fill:#28a5ea;}.cls-60{fill:#e5ddae;}.cls-61{fill:#ccc;}.cls-62{fill:#999;}.cls-63,.cls-65{fill:#a1e4ff;}.cls-64{fill:#60ba25;}.cls-66{fill:#f2d9a2;}.cls-67{fill:#ff8c78;}.cls-68{fill:#ba5d54;}.cls-68,.cls-75{opacity:0.42;}.cls-69{fill:#cc9e87;}.cls-70{fill:#db9d82;}.cls-71{fill:#07ae76;}.cls-72{fill:#a8dda8;}.cls-73{fill:#9ff;}.cls-74{fill:#77d2dc;}.cls-75{fill:#5588b7;}.cls-76{fill:#ffcd50;}.cls-77{fill:#fcf09d;}.cls-78{fill:#c9a84e;}.cls-79,.cls-80{fill:#ffdf4d;}.cls-81{fill:#d84444;}.cls-82{fill:#c33;}.cls-83{fill:#dbdede;}.cls-84{fill:#f6efe4;}.cls-85{fill:#e4d7c4;}.cls-86{fill:#989c95;opacity:0.6;}.cls-87{fill:#ffa92f;}.cls-88{fill:#ea8e1a;}.cls-91{fill:#ffffc7;}.cls-105,.cls-91,.cls-99{opacity:0.45;}.cls-92{fill:#ad7b43;}.cls-93{fill:#ffb54d;}.cls-94{fill:#b88e5e;}.cls-95{fill:#514e4e;}.cls-96{fill:#4c4949;}.cls-97{fill:#535050;}.cls-104,.cls-106,.cls-114,.cls-98{mix-blend-mode:overlay;}.cls-99{fill:#ae9c92;}.cls-100{fill:#888079;opacity:0.75;}.cls-101{fill:#37a8b8;}.cls-102{fill:#0090a1;}.cls-103{fill:#93cfd7;}.cls-105{fill:#61889d;}.cls-107{fill:#bec4ba;}.cls-108{fill:#faf3e9;}.cls-109{fill:#e2e2c9;}.cls-110{fill:#b3b3b3;}.cls-111{fill:#a4a4a4;}.cls-112{fill:#ffab28;}.cls-113{fill:#edd19c;}.cls-114{fill:url(#radial-gradient-7);}</style><linearGradient id="linear-gradient" x1="52.61" y1="127.99" x2="85.31" y2="3.96" gradientUnits="userSpaceOnUse"><stop offset="0" stop-color="#ffdf9a"/><stop offset="0.04" stop-color="#f7dea1"/><stop offset="0.1" stop-color="#e0dbb3"/><stop offset="0.17" stop-color="#bcd7d2"/><stop offset="0.23" stop-color="#98d2ef"/><stop offset="0.28" stop-color="#83bee2"/><stop offset="0.42" stop-color="#4b87be"/><stop offset="0.54" stop-color="#225fa5"/><stop offset="0.64" stop-color="#094795"/><stop offset="0.7" stop-color="#003e8f"/></linearGradient><radialGradient id="radial-gradient" cx="92.18" cy="20.69" r="13.42" gradientTransform="matrix(1, -0.05, 0.05, 0.98, 6.22, 8.36)" gradientUnits="userSpaceOnUse"><stop offset="0" stop-color="#dfeaae"/><stop offset="1" stop-color="#31798d"/></radialGradient><radialGradient id="radial-gradient-2" cx="94.78" cy="21.21" r="14.88" xlink:href="#radial-gradient"/><radialGradient id="radial-gradient-3" cx="94.84" cy="24.96" r="12.57" xlink:href="#radial-gradient"/><radialGradient id="radial-gradient-5" cx="74.56" cy="60.92" r="0.88" gradientTransform="matrix(0.88, -0.05, 0.04, 0.8, 40.58, -26.17)" xlink:href="#radial-gradient"/><radialGradient id="radial-gradient-6" cx="92.13" cy="21.15" r="12.7" xlink:href="#radial-gradient"/><radialGradient id="radial-gradient-7" cx="70" cy="65" r="68.02" gradientTransform="translate(0 0.97) scale(1 0.99)" gradientUnits="userSpaceOnUse"><stop offset="0" stop-color="#d4ab8c"/><stop offset="1" stop-color="#a48470"/></radialGradient></defs><g class="cls-1"><g id="Layer_2" data-name="Layer 2"><g id="Layer_2-2" data-name="Layer 2"><path class="cls-2" d="M61.49,96.55S-2.07,88.93,14,37.52s95.33-46,112.85-7.57c10.68,23.46,6.4,47.69-11.54,60.3C104.54,97.83,87.42,97.34,61.49,96.55Z"/><polygon class="cls-3" points="117.93 55.52 115.84 55.2 116.19 53.05 115.26 55.08 113.58 53.8 114.8 55.53 113.79 55.58 114.68 55.8 113.35 57.11 115.06 56.33 115.05 57.58 115.64 56.35 117.14 57.62 116.11 55.9 117.93 55.52"/><path class="cls-4" d="M93.16,48.37a.11.11,0,0,1-.12.11.11.11,0,0,1-.11-.11.12.12,0,0,1,.11-.12A.12.12,0,0,1,93.16,48.37Z"/><path class="cls-4" d="M66.22,40.48a.19.19,0,0,1-.19.19.19.19,0,0,1-.2-.19.2.2,0,0,1,.2-.19A.2.2,0,0,1,66.22,40.48Z"/><path class="cls-4" d="M58.05,57.09a.12.12,0,1,1-.24,0,.12.12,0,1,1,.24,0Z"/><circle class="cls-4" cx="87.63" cy="71.04" r="0.18"/><path class="cls-4" d="M45.38,54.93a.14.14,0,0,1-.14.14.15.15,0,1,1,0-.29A.15.15,0,0,1,45.38,54.93Z"/><path class="cls-4" d="M41.46,47.87a.34.34,0,1,1-.33-.33A.33.33,0,0,1,41.46,47.87Z"/><path class="cls-4" d="M80.63,23a.36.36,0,0,1-.36.36.36.36,0,1,1,0-.71A.36.36,0,0,1,80.63,23Z"/><path class="cls-4" d="M67.56,51.71a.28.28,0,0,1-.28.27.27.27,0,0,1,0-.54A.28.28,0,0,1,67.56,51.71Z"/><path class="cls-4" d="M37.08,35.83a.35.35,0,1,1-.69,0,.35.35,0,0,1,.69,0Z"/><path class="cls-4" d="M122.09,58.21a.17.17,0,0,1-.16.17.18.18,0,0,1-.17-.17.17.17,0,0,1,.17-.16A.16.16,0,0,1,122.09,58.21Z"/><path class="cls-4" d="M104.05,65.67a.2.2,0,1,1-.2-.2A.2.2,0,0,1,104.05,65.67Z"/><ellipse class="cls-4" cx="84.98" cy="61.83" rx="0.41" ry="0.41"/><path class="cls-4" d="M53.65,70.76a.23.23,0,1,1-.22-.22A.22.22,0,0,1,53.65,70.76Z"/><path class="cls-4" d="M33.6,58.93a.38.38,0,0,1-.76,0,.38.38,0,0,1,.76,0Z"/><path class="cls-4" d="M28.14,61.37a.15.15,0,0,1-.15.15.15.15,0,0,1-.16-.15.16.16,0,0,1,.16-.15A.15.15,0,0,1,28.14,61.37Z"/><ellipse class="cls-4" cx="58.34" cy="72.07" rx="0.42" ry="0.41"/><path class="cls-4" d="M38.91,67.58a.18.18,0,1,1-.18-.17A.17.17,0,0,1,38.91,67.58Z"/><path class="cls-4" d="M39,62.84a.31.31,0,1,1-.31-.3A.31.31,0,0,1,39,62.84Z"/><path class="cls-4" d="M63.7,71.27a.18.18,0,0,1-.17.17.17.17,0,1,1,0-.34A.18.18,0,0,1,63.7,71.27Z"/><circle class="cls-4" cx="49.34" cy="78.07" r="0.25"/><path class="cls-4" d="M42.46,76.81a.25.25,0,1,1-.24-.24A.24.24,0,0,1,42.46,76.81Z"/><ellipse class="cls-4" cx="28.3" cy="58.83" rx="0.33" ry="0.32"/><path class="cls-4" d="M14,42.19a.15.15,0,0,1-.15.15.15.15,0,1,1,0-.3A.15.15,0,0,1,14,42.19Z"/><path class="cls-4" d="M35,30.6a.4.4,0,0,1-.4.4.4.4,0,1,1,0-.79A.4.4,0,0,1,35,30.6Z"/><path class="cls-4" d="M19.24,45a.13.13,0,0,1-.13.13A.12.12,0,0,1,19,45a.12.12,0,0,1,.12-.12A.13.13,0,0,1,19.24,45Z"/><ellipse class="cls-4" cx="25.02" cy="45.48" rx="0.3" ry="0.29"/><path class="cls-4" d="M27.36,46.23a.22.22,0,0,1-.22.22.22.22,0,1,1,0-.44A.22.22,0,0,1,27.36,46.23Z"/><path class="cls-4" d="M25,27.32a.41.41,0,0,1-.81,0,.41.41,0,0,1,.81,0Z"/><path class="cls-4" d="M35.41,50.28a.13.13,0,1,1-.13-.13A.13.13,0,0,1,35.41,50.28Z"/><circle class="cls-4" cx="43.44" cy="25.33" r="0.11"/><path class="cls-4" d="M69.54,38.08a.39.39,0,0,1-.39.38.39.39,0,1,1,0-.77A.39.39,0,0,1,69.54,38.08Z"/><path class="cls-4" d="M50.82,38a.12.12,0,0,1-.12.12.12.12,0,0,1-.13-.12.13.13,0,0,1,.13-.12A.13.13,0,0,1,50.82,38Z"/><path class="cls-4" d="M61.85,28.63a.13.13,0,1,1-.13-.13A.13.13,0,0,1,61.85,28.63Z"/><path class="cls-4" d="M47.43,22.33a.19.19,0,1,1-.19-.18A.19.19,0,0,1,47.43,22.33Z"/><circle class="cls-4" cx="54.57" cy="12.76" r="0.26"/><ellipse class="cls-4" cx="101.66" cy="33.23" rx="0.37" ry="0.36"/><path class="cls-4" d="M90.52,54a.18.18,0,1,1-.36,0,.18.18,0,0,1,.36,0Z"/><circle class="cls-4" cx="72.41" cy="80.63" r="0.21"/><path class="cls-4" d="M97.54,84.13a.28.28,0,0,1-.28.27.27.27,0,1,1,0-.54A.28.28,0,0,1,97.54,84.13Z"/><ellipse class="cls-4" cx="72.08" cy="87.83" rx="0.26" ry="0.26"/><ellipse class="cls-4" cx="52.79" cy="84.59" rx="0.41" ry="0.41"/><path class="cls-4" d="M96.41,89.75a.14.14,0,0,1-.14.14.14.14,0,0,1-.14-.14.13.13,0,0,1,.14-.13A.14.14,0,0,1,96.41,89.75Z"/><path class="cls-4" d="M110,81.1a.2.2,0,0,1-.21.2.2.2,0,1,1,0-.4A.2.2,0,0,1,110,81.1Z"/><path class="cls-4" d="M109.11,64a.14.14,0,1,1-.14-.14A.14.14,0,0,1,109.11,64Z"/><path class="cls-4" d="M117.27,46.82a.13.13,0,0,1-.26,0,.13.13,0,1,1,.26,0Z"/><path class="cls-4" d="M101,43.69a.28.28,0,1,1-.56,0,.28.28,0,0,1,.56,0Z"/><path class="cls-4" d="M89.54,23.39a.37.37,0,1,1-.37-.36A.36.36,0,0,1,89.54,23.39Z"/><path class="cls-4" d="M90.43,10a.36.36,0,0,1-.71,0,.36.36,0,0,1,.71,0Z"/><path class="cls-4" d="M71.1,8.79a.3.3,0,0,1-.3.29.29.29,0,1,1,0-.58A.3.3,0,0,1,71.1,8.79Z"/><path class="cls-4" d="M100.28,22.44a.14.14,0,0,1-.28,0,.14.14,0,0,1,.28,0Z"/><path class="cls-4" d="M74,41.52a.36.36,0,1,1-.36-.35A.36.36,0,0,1,74,41.52Z"/><ellipse class="cls-4" cx="89.92" cy="59.3" rx="0.35" ry="0.34"/><path class="cls-4" d="M64.94,68.38a.38.38,0,0,1-.39.37.37.37,0,0,1-.38-.37.38.38,0,0,1,.38-.38A.39.39,0,0,1,64.94,68.38Z"/><path class="cls-4" d="M98.74,87.28a.36.36,0,0,1-.37.36.37.37,0,0,1-.37-.36.38.38,0,0,1,.37-.37A.37.37,0,0,1,98.74,87.28Z"/><path class="cls-4" d="M91.48,92.06a.19.19,0,0,1-.19.19.19.19,0,1,1,0-.38A.19.19,0,0,1,91.48,92.06Z"/><path class="cls-4" d="M124.72,78a.36.36,0,0,1-.71,0,.36.36,0,0,1,.71,0Z"/><path class="cls-4" d="M95.53,79.64a.13.13,0,0,1-.13.13.13.13,0,0,1-.14-.13.14.14,0,0,1,.14-.14A.13.13,0,0,1,95.53,79.64Z"/><path class="cls-4" d="M82.36,82.52a.13.13,0,0,1-.13.13.13.13,0,1,1,0-.26A.13.13,0,0,1,82.36,82.52Z"/><path class="cls-4" d="M99.06,68.4a.29.29,0,1,1-.58,0,.29.29,0,0,1,.58,0Z"/><path class="cls-4" d="M99,64.27a.2.2,0,1,1-.2-.19A.2.2,0,0,1,99,64.27Z"/><ellipse class="cls-4" cx="91.5" cy="55.88" rx="0.32" ry="0.31"/><path class="cls-4" d="M79.38,51.23a.34.34,0,1,1-.34-.34A.34.34,0,0,1,79.38,51.23Z"/><ellipse class="cls-4" cx="74.04" cy="54" rx="0.37" ry="0.37"/><path class="cls-4" d="M78,63a.26.26,0,0,1-.52,0A.26.26,0,0,1,78,63Z"/><path class="cls-4" d="M101.65,55.34a.36.36,0,1,1-.36-.35A.36.36,0,0,1,101.65,55.34Z"/><path class="cls-4" d="M122,44.8a.16.16,0,0,1-.16.16.16.16,0,1,1,0-.32A.16.16,0,0,1,122,44.8Z"/><circle class="cls-4" cx="123.85" cy="27.6" r="0.23"/><path class="cls-4" d="M117.1,25.13a.36.36,0,1,1-.36-.36A.36.36,0,0,1,117.1,25.13Z"/><circle class="cls-4" cx="124.86" cy="40.49" r="0.12"/><path class="cls-4" d="M107.5,37.74a.27.27,0,1,1-.26-.26A.27.27,0,0,1,107.5,37.74Z"/><path class="cls-4" d="M109.33,52.12a.26.26,0,1,1-.26-.25A.26.26,0,0,1,109.33,52.12Z"/><path class="cls-4" d="M114.91,64.8a.18.18,0,0,1-.18.18.18.18,0,1,1,0-.36A.18.18,0,0,1,114.91,64.8Z"/><path class="cls-4" d="M116.45,39.05a.13.13,0,0,1-.13.14.14.14,0,0,1-.14-.14.13.13,0,0,1,.14-.13A.13.13,0,0,1,116.45,39.05Z"/><path class="cls-4" d="M127.88,57.83a.16.16,0,0,1-.16.16.17.17,0,0,1-.17-.16.17.17,0,0,1,.17-.16A.16.16,0,0,1,127.88,57.83Z"/><circle class="cls-4" cx="131.25" cy="57.87" r="0.23"/><path class="cls-4" d="M52.61,53.25a.39.39,0,1,1-.38-.38A.38.38,0,0,1,52.61,53.25Z"/><path class="cls-4" d="M15.64,65.31a.38.38,0,0,1-.39.38.39.39,0,1,1,0-.77A.38.38,0,0,1,15.64,65.31Z"/><path class="cls-4" d="M40.89,74.91a.16.16,0,0,1-.16.16.16.16,0,0,1-.15-.16.15.15,0,0,1,.15-.15A.16.16,0,0,1,40.89,74.91Z"/><ellipse class="cls-4" cx="24.93" cy="74.01" rx="0.43" ry="0.43"/><path class="cls-4" d="M25.19,76.91a.18.18,0,1,1-.18-.18A.18.18,0,0,1,25.19,76.91Z"/><circle class="cls-4" cx="16.64" cy="68.88" r="0.14"/><path class="cls-4" d="M35.94,82.43a.18.18,0,0,1-.18.18.18.18,0,1,1,0-.36A.18.18,0,0,1,35.94,82.43Z"/><path class="cls-4" d="M22,60.78a.39.39,0,0,1-.39.38.38.38,0,1,1,0-.76A.39.39,0,0,1,22,60.78Z"/><path class="cls-4" d="M13.93,48.52a.23.23,0,0,1-.23.23.23.23,0,1,1,0-.46A.23.23,0,0,1,13.93,48.52Z"/><path class="cls-4" d="M86.89,55.15a.16.16,0,0,1-.16.15.15.15,0,1,1,0-.3A.16.16,0,0,1,86.89,55.15Z"/><circle class="cls-4" cx="83.54" cy="35.91" r="0.26"/><ellipse class="cls-4" cx="84" cy="44.22" rx="0.3" ry="0.29"/><path class="cls-4" d="M87.27,44.29A.31.31,0,1,1,87,44,.31.31,0,0,1,87.27,44.29Z"/><ellipse class="cls-4" cx="58.46" cy="48.87" rx="0.38" ry="0.38"/><path class="cls-4" d="M38.72,42.9a.15.15,0,0,1-.15.15.14.14,0,0,1-.15-.15.14.14,0,0,1,.15-.14A.15.15,0,0,1,38.72,42.9Z"/><path class="cls-4" d="M53.53,63a.33.33,0,0,1-.66,0,.33.33,0,0,1,.66,0Z"/><path class="cls-4" d="M39,58.08a.2.2,0,1,1-.2-.2A.2.2,0,0,1,39,58.08Z"/><ellipse class="cls-4" cx="53.96" cy="66.73" rx="0.26" ry="0.26"/><path class="cls-4" d="M72,78.49a.27.27,0,1,1-.27-.27A.27.27,0,0,1,72,78.49Z"/><path class="cls-4" d="M82,79.64a.27.27,0,0,1-.28.27.27.27,0,1,1,0-.54A.27.27,0,0,1,82,79.64Z"/><path class="cls-4" d="M84.35,78.17a.3.3,0,0,1-.3.3.3.3,0,1,1,0-.59A.3.3,0,0,1,84.35,78.17Z"/><path class="cls-4" d="M63.74,78.61a.34.34,0,1,1-.33-.33A.33.33,0,0,1,63.74,78.61Z"/><circle class="cls-4" cx="60.45" cy="79.33" r="0.25"/><circle class="cls-4" cx="61.49" cy="87.65" r="0.14"/><path class="cls-4" d="M62.39,85.66a.42.42,0,0,1-.84,0,.42.42,0,0,1,.84,0Z"/><circle class="cls-4" cx="61.97" cy="74.54" r="0.25"/><circle class="cls-4" cx="77.51" cy="67.94" r="0.22"/><path class="cls-4" d="M80.53,69.55a.21.21,0,0,1-.21.21.21.21,0,0,1-.21-.21.2.2,0,0,1,.21-.2A.21.21,0,0,1,80.53,69.55Z"/><path class="cls-4" d="M108.14,78.8a.18.18,0,1,1-.18-.18A.18.18,0,0,1,108.14,78.8Z"/><path class="cls-4" d="M115.33,78.65a.46.46,0,1,1-.45-.45A.45.45,0,0,1,115.33,78.65Z"/><ellipse class="cls-4" cx="119.55" cy="69.23" rx="0.32" ry="0.32"/><path class="cls-4" d="M112.17,69.24a.36.36,0,1,1-.36-.35A.36.36,0,0,1,112.17,69.24Z"/><path class="cls-4" d="M85.82,69.86a.35.35,0,1,1-.35-.35A.35.35,0,0,1,85.82,69.86Z"/><ellipse class="cls-4" cx="82.42" cy="66.39" rx="0.4" ry="0.4"/><path class="cls-5" d="M0,99.53s31.25-14.21,72.08-12C107,89.48,126,95.54,140,100.73c0,0-17.91,20.08-61,24.35C52.71,127.69,9.74,111.18,0,99.53Z"/><path class="cls-6" d="M115.17,111.19,53,99,17.36,113.89,76.15,130l.13,0h0s13.93-2.38,17.21-3.38h0l.15,0Z"/><polygon class="cls-7" points="53.64 97.14 17.98 112.07 76.78 128.18 94.27 124.75 115.79 109.37 53.64 97.14"/><polygon class="cls-8" points="53.85 98.96 23.72 111.43 77.5 126.29 92.18 123.31 110.54 110.67 53.85 98.96"/><ellipse class="cls-9" cx="102.52" cy="111.38" rx="0.59" ry="0.55"/><path class="cls-9" d="M97.33,112.61a.61.61,0,1,1-.61-.56A.59.59,0,0,1,97.33,112.61Z"/><path class="cls-9" d="M88.75,115.76a.61.61,0,1,1-.61-.57A.59.59,0,0,1,88.75,115.76Z"/><path class="cls-9" d="M72.66,119.53a.61.61,0,0,1-1.22,0,.61.61,0,0,1,1.22,0Z"/><path class="cls-9" d="M58,115.43a.61.61,0,1,1-.61-.57A.58.58,0,0,1,58,115.43Z"/><path class="cls-9" d="M53,106.83a.61.61,0,0,1-1.21,0,.61.61,0,0,1,1.21,0Z"/><path class="cls-9" d="M53.85,102.82a.68.68,0,0,1-.7.66.66.66,0,1,1,0-1.32A.68.68,0,0,1,53.85,102.82Z"/><ellipse class="cls-9" cx="58.38" cy="105.02" rx="0.52" ry="0.48"/><path class="cls-9" d="M77.5,110.19a.6.6,0,1,1-.6-.56A.58.58,0,0,1,77.5,110.19Z"/><path class="cls-9" d="M54.07,110.67a.78.78,0,0,1-.81.76.76.76,0,1,1,0-1.52A.78.78,0,0,1,54.07,110.67Z"/><path class="cls-9" d="M67.9,107.39a.79.79,0,0,1-.82.76.76.76,0,1,1,0-1.52A.79.79,0,0,1,67.9,107.39Z"/><ellipse class="cls-9" cx="63.47" cy="119.53" rx="0.93" ry="0.87"/><polygon class="cls-9" points="102.5 111.29 96.88 112.45 96.93 112.64 102.54 111.48 102.5 111.29"/><path class="cls-9" d="M67.11,107.3l-8.69-2.37-5.35-2.25-.7,3.95-.11,0,.9,4,4.12,4.8,6.14,4.13h8.65l16.24-3.78,8.29-3.1,0,0h.13l0-.19-19.8-2.43Zm21.14,8.36-16.2,3.77H63.5l-6.08-4.08-4.07-4.72-.84-3.79h0l.69-3.89,5.12,2.16,8.7,2.37,9.83,2.79,19.4,2.38Z"/><path class="cls-10" d="M86.9,120.56s-8.43,6.54-10,7.59c0,0,13.93-2.37,17.21-3.37C94.11,124.78,87.87,121.52,86.9,120.56Z"/><path class="cls-11" d="M64.56,108.18l-3.17,2.13c-3.36,1.8-18.68,8.53-18.68,8.53l27.76,7.61s1-8.73,2.51-12.57l13-6.49C84.87,107.52,68.21,107.69,64.56,108.18Z"/><path class="cls-11" d="M93.29,104.94c1,5.87,3.52,11.39,4.53,17.26l18-12.83Z"/><path class="cls-12" d="M40.28,99.74s17.43-5.58,24.65-5.58a90.7,90.7,0,0,1,27.45,4.1s-6.49,9-27.38,9.91C51.36,108.78,40.28,99.74,40.28,99.74Z"/><path class="cls-13" d="M47.34,16.73s5.85-2.57,8.53,7.75c2.4,9.25,1.05,13.78-4.48,14.85a14.43,14.43,0,0,1-8.08-10.7c-.82-5.41,1.4-11.1,4.13-11.9Z"/><polygon class="cls-14" points="58.02 55.05 57.87 58.16 65.53 58.74 73.68 57.64 73.15 54.72 65.22 55.87 58.02 55.05"/><path class="cls-15" d="M64.24,58.42A2,2,0,0,1,66,56.94a1.83,1.83,0,0,1,1.8,1.5l-2.26.3-1.34-.1A1.74,1.74,0,0,0,64.24,58.42Z"/><path class="cls-15" d="M72,56.89a2.62,2.62,0,0,1,.66.9l-3,.41C69.68,57.36,70.51,55.94,72,56.89Z"/><path class="cls-16" d="M65.22,55.86,58,55.05l-.15,3.11,7.66.58h0C65.52,58.61,65.22,56.23,65.22,55.86Z"/><path class="cls-15" d="M61,56.65c1.23.08,1.52.8,1.59,1.76a.43.43,0,0,1,0,.11L59,58.25C59.2,57.72,59.84,56.58,61,56.65Z"/><polygon class="cls-17" points="73.15 54.72 65.23 55.99 58.02 55.05 65.3 54.26 73.15 54.72"/><path class="cls-18" d="M60.76,54.91l4.61.59,5.41-.78s-.81-4.72-4-4.55C62.7,50.38,61.36,52.12,60.76,54.91Z"/><polygon class="cls-19" points="63.17 41.32 63.59 49.37 67.86 49.15 68.01 41.07 63.17 41.32"/><polygon class="cls-20" points="65.85 41.18 65.85 49.25 67.86 49.15 68.01 41.07 65.85 41.18"/><path class="cls-19" d="M60.83,39s.12,2.9,1,3.25,6.88.07,7.2-.17,1.27-1.34,1.13-3.83Z"/><path class="cls-21" d="M66.65,50.18c-4,.3-5.29,2-5.89,4.73l4.61.59.15,0A5.23,5.23,0,0,1,66.65,50.18Z"/><polygon class="cls-13" points="56.59 36.47 58.18 40.64 72.84 39.35 74.58 34.54 56.59 36.47"/><path class="cls-22" d="M64.88,35.58c.07,1.48.13,3,.28,4.44l7.68-.67,1.74-4.81Z"/><polygon class="cls-19" points="62.42 47.71 63.7 50.83 68.36 50.63 69.11 47.75 62.42 47.71"/><path class="cls-23" d="M62.11,59.14a5.42,5.42,0,0,1-2.65-.51C58.14,64.37,49.71,95,49.83,96.14s10.29-29.09,12.6-37Z"/><path class="cls-24" d="M61.16,58.87,49.83,96.14c.11,1,10.29-29.09,12.6-37C62.32,59.12,61.16,58.87,61.16,58.87Z"/><path class="cls-23" d="M67.09,59.78a5.51,5.51,0,0,1-2.2-.32c-.08,7.46-.5,44.39,0,46.18s2.41-35.47,2.94-45.95Q67.48,59.75,67.09,59.78Z"/><path class="cls-25" d="M59.15,62l-.46-.23c.34-1.35.61-2.42.77-3.12a5.42,5.42,0,0,0,2.65.51l.32,0c-.25.87-.6,2-1,3.35A6.58,6.58,0,0,1,59.15,62Z"/><path class="cls-24" d="M67.09,59.78c-.82,0-.36-.08-1-.32L64.9,105.64c.48,1.72,2.41-35.47,2.94-45.95Q67.48,59.75,67.09,59.78Z"/><path class="cls-25" d="M64.86,62.55c0-1.28,0-2.34,0-3.09a5.51,5.51,0,0,0,2.2.32q.39,0,.75-.09c0,.76-.08,1.66-.14,2.67A4.16,4.16,0,0,1,64.86,62.55Z"/><path class="cls-23" d="M72.25,58.16A4.79,4.79,0,0,1,70,59c2.42,7.58,8.15,32.28,8.56,32.49S74,64.45,72.25,58.16Z"/><path class="cls-24" d="M72.25,58.16c-.59.42-.22.19-1.1.3l7.44,33C79,91.69,74,64.45,72.25,58.16Z"/><path class="cls-26" d="M58.31,60.65l4.13.91s1.27-3.15-1-3.82C59.29,57.13,58.52,59.07,58.31,60.65Z"/><path class="cls-25" d="M71,62.07c-.39-1.23-.73-2.28-1-3.09a4.79,4.79,0,0,0,2.22-.82l.92,3.38C72.46,61.75,71.74,61.92,71,62.07Z"/><path class="cls-23" d="M61.67,57.84l-.26-.1c-2.12-.61-2.89,1.33-3.1,2.91l3.07.68A2.88,2.88,0,0,1,61.67,57.84Z"/><path class="cls-26" d="M64.25,61.7s-.84-3.84,1.79-4c2.85-.15,2.31,3.77,2.31,3.77Z"/><path class="cls-23" d="M66.58,57.75a2.38,2.38,0,0,0-.54,0c-2.63.14-1.79,4-1.79,4L67,61.56A2.9,2.9,0,0,1,66.58,57.75Z"/><path class="cls-26" d="M70,61.38l3.55-1.27s-.46-3.35-2.89-2.51C68.78,58.26,69.44,60.17,70,61.38Z"/><path class="cls-23" d="M71.05,57.5a2.33,2.33,0,0,0-.39.11c-1.89.65-1.22,2.58-.66,3.8l1.85-.66A3,3,0,0,1,71.05,57.5Z"/><path class="cls-13" d="M28.12,27.63l-9.36,3.18s-3.48,3.24,1.2,5.41L30,35Z"/><path class="cls-27" d="M36.9,29.74a30.61,30.61,0,0,1-.53-7.46L25.86,25.44s-3.17,2.48-1.7,7.26,4.52,5.52,5.55,5.38l10-1.89A14,14,0,0,1,36.9,29.74Z"/><path class="cls-28" d="M36.85,26.33a35.18,35.18,0,0,1-.48-4L25.86,25.44a6.16,6.16,0,0,0-1.93,3.35C24.84,28.53,35.19,26.75,36.85,26.33Z"/><path class="cls-29" d="M24.19,32.78c1.48,4.71,4.49,5.44,5.52,5.3l10-1.89c-1.41-1.92-2.18-3-2.54-5.51C37.19,30.68,24.65,32.88,24.19,32.78Z"/><path class="cls-27" d="M100.3,6,37.09,20.1s-3.72,3.17-2.3,9.59,4.69,8.84,5.67,9.29l64.47-6.64Z"/><path class="cls-30" d="M101.78,14.41,100.3,6,37.09,20.1S34,22.77,34.54,28.16c.3-.07,15.69-4.17,31.75-7.44C83.14,17.29,100.72,14.69,101.78,14.41Z"/><path class="cls-31" d="M79.28,21.59c.52,3.92,3.09,10.88,6.83,12.8l18.82-2L100.3,6,81.88,10.1C80,12.27,78.87,18.49,79.28,21.59Z"/><path class="cls-31" d="M35.13,31c1.54,5.48,4.42,7.53,5.33,7.95l64.47-6.64-2.85-16.22C100.74,18.19,83.51,23.53,66.64,27A214.08,214.08,0,0,1,35.13,31Z"/><path class="cls-32" d="M47.34,16.73,36.49,19.15s-4.13,3.52-2.56,10.66,5.22,9.86,6.31,10.36l11.15-.84a15.21,15.21,0,0,1-7-12.16C44.16,24,44.35,20.19,47.34,16.73Z"/><path class="cls-33" d="M46.81,16.84c-2.46,3.35-3.4,5.82-2.59,11.79a15.88,15.88,0,0,0,6.59,10.76l.58-.06a17.52,17.52,0,0,1-6.64-12.51,13.65,13.65,0,0,1,2.59-10.09Z"/><path class="cls-33" d="M34.53,29.66c-1.55-7,2.52-10.49,2.52-10.49h0l.16-.18-.75.17s-4.13,3.52-2.56,10.66,5.22,9.86,6.31,10.36l.34,0C39.1,39,35.89,35.84,34.53,29.66Z"/><path class="cls-34" d="M33.84,29.29c0,.18,0,.34.09.52,1.58,7.15,5.22,9.86,6.31,10.36l11.15-.84a21.53,21.53,0,0,1-4.19-4.78,17.45,17.45,0,0,1-2.29-6.39C41.43,31.07,38.29,31.47,33.84,29.29Z"/><path class="cls-35" d="M104.43,4.81l-16,2.72A14,14,0,0,0,83.1,21.2a20.28,20.28,0,0,0,8.25,13.22l15.86-1.19L104.65,4.8Z"/><path class="cls-34" d="M96.55,21.55c-4,1-8.5,2.29-12.83,2.26a20.13,20.13,0,0,0,7.63,10.61l15.86-1.19L105.85,18.1C103.06,19.86,99.53,20.79,96.55,21.55Z"/><path class="cls-36" d="M83.51,21.17A14.24,14.24,0,0,1,88.84,7.45l-.45.08A14,14,0,0,0,83.1,21.2a20.28,20.28,0,0,0,8.25,13.22l.37,0A20.28,20.28,0,0,1,83.51,21.17Z"/><path class="cls-37" d="M111.14,5.66a13.29,13.29,0,0,0-10.46,0c-3.83,1.58-8.86,5.11-8.51,12.74.28,6,3.11,10.28,6.2,12.47A13.15,13.15,0,0,0,115,29.78c2.47-2.36,4.3-6.45,3.68-12.43C118,10.49,114.55,7.18,111.14,5.66Z"/><path class="cls-38" d="M118.68,17.35a15.48,15.48,0,0,0-3.11-8.3,11.8,11.8,0,0,0-4.16-3,13.51,13.51,0,0,0-10.37,0c-3.81,1.54-8.8,5-8.46,12.35.27,5.86,3.07,10,6.14,12.09a13.27,13.27,0,0,0,16.49-1.1,10.62,10.62,0,0,0,1.52-1.78A16,16,0,0,0,118.68,17.35Z"/><path class="cls-39" d="M96.08,12.16c.64,1.16,1.24,2.3,1.89,3.4a17,17,0,0,0,2.92,1.78c4.11,1.95,8.79,3.81,13.43,3.3,1.51-.17,3-.44,4.47-.74a22.52,22.52,0,0,0-.11-2.55c-.71-6.86-4.13-10.17-7.54-11.69a13.29,13.29,0,0,0-10.46,0,14.69,14.69,0,0,0-6,4.29C95.21,10.72,95.69,11.45,96.08,12.16Z"/><path class="cls-40" d="M110.09,8.53a10.43,10.43,0,0,0-8.2,0c-3,1.24-7,4-6.68,10a12.46,12.46,0,0,0,4.87,9.79,10.3,10.3,0,0,0,13-.88c1.93-1.84,3.37-5.05,2.88-9.75C115.44,12.31,112.77,9.72,110.09,8.53Z"/><path class="cls-41" d="M110.09,8.53a10.43,10.43,0,0,0-8.2,0c-3,1.24-7,4-6.68,10a12.46,12.46,0,0,0,4.87,9.79,10.3,10.3,0,0,0,13-.88c1.93-1.84,3.37-5.05,2.88-9.75C115.44,12.31,112.77,9.72,110.09,8.53Z"/><path class="cls-42" d="M116,17.34a7.11,7.11,0,0,1-.53.56,10.3,10.3,0,0,1-13,.88,12,12,0,0,1-4.6-7.55,9.46,9.46,0,0,0-2.58,7.3,12.46,12.46,0,0,0,4.87,9.79,10.3,10.3,0,0,0,13-.88c1.93-1.84,3.37-5.05,2.88-9.75C116,17.57,116,17.46,116,17.34Z"/><path class="cls-43" d="M98.92,25.09A12.28,12.28,0,0,1,96.13,23a11.38,11.38,0,0,0,4,5.28,10.3,10.3,0,0,0,13-.88,8.93,8.93,0,0,0,1.95-2.82A17,17,0,0,1,98.92,25.09Z"/><path class="cls-44" d="M110.09,8.53a10.43,10.43,0,0,0-8.2,0c-3,1.24-7,4-6.68,10a12.46,12.46,0,0,0,4.87,9.79,10.3,10.3,0,0,0,13-.88c1.93-1.84,3.37-5.05,2.88-9.75C115.44,12.31,112.77,9.72,110.09,8.53Z"/><path class="cls-45" d="M106.54,13.44a2.47,2.47,0,0,0-1.73-.14,1.82,1.82,0,0,0-1.52,1.88,2.62,2.62,0,0,0,1.15,2.09,2.37,2.37,0,0,0,2.89-.16,2,2,0,0,0,.49-1.89A2.25,2.25,0,0,0,106.54,13.44Z"/><path class="cls-46" d="M109.11,18.39a.64.64,0,0,0-.47,0,.52.52,0,0,0-.38.53.61.61,0,0,0,1,.47.58.58,0,0,0,.17-.52A.56.56,0,0,0,109.11,18.39Z"/><path class="cls-47" d="M116,17.69c-.56-5.38-3.23-8-5.91-9.16a10.43,10.43,0,0,0-8.2,0,12.75,12.75,0,0,0-3.25,1.92c.36-.18.71-.35,1.06-.49a10.47,10.47,0,0,1,8.2,0c2.67,1.2,5.35,3.79,5.91,9.17.49,4.7-1,7.91-2.89,9.75a4.36,4.36,0,0,1-.4.35,9.62,9.62,0,0,0,2.6-1.78C115.05,25.6,116.49,22.39,116,17.69Z"/><path class="cls-48" d="M107.9,10h0c-.43,6.92-2.74,14.21-9.08,17.29a10.41,10.41,0,0,0,1.27,1.08,10.14,10.14,0,0,0,2.75,1.38,31.41,31.41,0,0,0,5.81-7.22,34.07,34.07,0,0,0,3.3-9.07A9.29,9.29,0,0,0,107.9,10Z"/><path class="cls-31" d="M73.68,72.48c2.31,9.12,4.66,18.85,4.91,19S77,81.07,75.14,71.59A13.54,13.54,0,0,1,73.68,72.48Z"/><path class="cls-6" d="M58.94,100.59l-1.49-1.12H54.84l.33.25c.59.42.57.63-.09.72L46.57,102,47,100.6c-7,1.25-13.58.78-20.54,1.49-6,.61-8.36-.52-14.4-1.79,0,0-1.47-.83-3.62,1.16h0c-2,1.33-3.09,3.57.74,4.08,7.54,1,23.12,2.74,30.72,3.17a23.25,23.25,0,0,0,5.82.09,2.8,2.8,0,0,0,.93-.33l11.78-6.79C59.12,101.66,59.46,101,58.94,100.59Z"/><path class="cls-49" d="M59.38,98.64l-18.12-19-1,.4,5.89,7.48,9.52,9.94c.56.55.52.83-.14.94L41,101.63l2.15.5,15.58-2.07A.85.85,0,0,0,59.38,98.64Z"/><path class="cls-50" d="M40.49,79.94l-.21.09,5.89,7.48,9.52,9.94c.56.55.52.83-.14.94L41,101.63l1.54.36,15.06-2a.85.85,0,0,0,.64-1.41Z"/><path class="cls-51" d="M58.25,98.57,55.9,96.11a4.21,4.21,0,0,1-1.16.35l.95,1c.56.55.52.83-.14.94L41,101.63l1.54.36,15.06-2A.85.85,0,0,0,58.25,98.57Z"/><path class="cls-52" d="M25.44,57.21c-4.15-.05-4.1.5-4.78,1.42C19.49,60.22,9.94,98.4,9.85,99.54s-1.35,3.15,3.45,3.68c3.81.42,19.37,2.44,27.51,3.21,2.31.22,3.69.33,4.27,0,.76-.46,3.31-11.77,6.11-23.3,2.35-9.66,4.72-18.22,5.53-22.09.19-.91.07-2.18-1.14-2.26C45.6,58,30.31,57.41,25.44,57.21Z"/><path class="cls-53" d="M43.8,104.94a16.45,16.45,0,0,1-1.38-5.07c0-.06,0-.14,0-.21-.62,0-1.24.11-1.85.13a34.87,34.87,0,0,1-15.87-3.48H10.58c-.45,1.85-.72,3-.73,3.23-.09,1.14-1.35,3.15,3.45,3.68,3.81.42,19.37,2.44,27.51,3.21a13.31,13.31,0,0,0,4,.09A11.23,11.23,0,0,1,43.8,104.94Z"/><path class="cls-54" d="M55.81,61c.19-.89.07-2.13-1.12-2.22C44.9,58,29.9,57.41,25.12,57.22H24c-2.71.09-2.75.61-3.34,1.41C19.49,60.22,9.94,98.4,9.85,99.54c0,.3-.13.67-.18,1,.18.77,1,1.49,3.55,1.77,3.73.41,19,2.39,27,3.15,2.27.22,3.62.32,4.19,0,.75-.45,3.24-11.55,6-22.86C52.7,73.15,55,64.75,55.81,61Z"/><path class="cls-55" d="M27.06,102.46a.89.89,0,0,1-.91.87.87.87,0,0,1-.93-.81.91.91,0,0,1,.91-.88A.88.88,0,0,1,27.06,102.46Z"/><polygon class="cls-56" points="41.7 101.99 13.84 98.94 23.54 60.77 51.74 62.56 41.7 101.99"/><path class="cls-9" d="M23.65,73.1h.09l0,.39.25-.38h.09l-.15.63h-.07l.11-.49-.23.35h-.06l0-.37-.15.49h-.07Z"/><path class="cls-9" d="M24.19,73.56a.13.13,0,0,0,0,.11s0,0,.08,0l.11,0v0a.06.06,0,0,1,0,0h-.12l-.09,0s0,0-.05-.06a.14.14,0,0,1,0-.07.29.29,0,0,1,0-.09l0-.1.06-.07a.18.18,0,0,1,.07-.05h.09l.06,0a.08.08,0,0,1,0,0,.15.15,0,0,1,0,.07.22.22,0,0,1,0,.08v0Zm.21-.06a.06.06,0,0,0,0,0s0,0,0,0,0,0,0,0h0s-.05,0-.08,0a.22.22,0,0,0-.05.08Z"/><path class="cls-9" d="M24.63,73.33h.06v.07l.05,0a.11.11,0,0,1,.08,0h0v0h0v0h0s0,0,0,0l0,0,0,0,0,.07-.06.22H24.5Z"/><path class="cls-9" d="M25.06,73.73v0a.08.08,0,0,1,0,0H25c-.07,0-.11,0-.13-.07a.24.24,0,0,1,0-.17.19.19,0,0,1,0-.09l.06-.08.07,0,.09,0h.05l.05,0,0,0,0,0-.08,0a.18.18,0,0,0-.1,0,.67.67,0,0,0-.06.12.28.28,0,0,0,0,.13.1.1,0,0,0,.08,0h.09Z"/><path class="cls-9" d="M25.26,73.36h.07l-.06.24a.25.25,0,0,0,0,.07s0,0,0,0l0,0h.11l.11-.38h.07l-.12.43-.07,0h-.14l-.05,0s0,0,0-.07a.65.65,0,0,1,0-.11Z"/><path class="cls-9" d="M25.7,73.38h.06v0s0,0,0,0l.06,0a.08.08,0,0,1,.07,0h0v.08h-.06l0,0,0,.05,0,.07-.06.23h-.07Z"/><path class="cls-9" d="M26,73.85h-.06v-.46H26v.42l.23-.41h.08L26,74A.21.21,0,0,0,26,74l0,0a.05.05,0,0,1,0,0h-.1s0,0,0,0l0,0h0s0,0,0,0h0s0,0,0,0l0,0Z"/><path class="cls-9" d="M32.43,73.53h.09v.56l.29-.54h.09l-.36.63h-.1Z"/><path class="cls-9" d="M32.87,74a.13.13,0,0,0,0,.11.09.09,0,0,0,.08,0l.12,0v0s0,0,0,0l-.06,0h-.07l-.09,0a.12.12,0,0,1-.05,0,.19.19,0,0,1,0-.08.28.28,0,0,1,0-.09,1,1,0,0,1,0-.1l.06-.07a.18.18,0,0,1,.07,0l.09,0,.07,0a.1.1,0,0,1,0,0,.15.15,0,0,1,0,.07.12.12,0,0,1,0,.08v0Zm.22-.06a.43.43,0,0,0,0-.05s0,0,0,0a0,0,0,0,0,0,0l0,0a.11.11,0,0,0-.08,0,.15.15,0,0,0-.06.09Z"/><path class="cls-9" d="M33.32,73.76h.07v0a0,0,0,0,1,0,0l0,0,0,0,0,0h.05a.09.09,0,0,1,.09,0,.2.2,0,0,1,0,.13l-.07.29h-.08l.07-.27a.34.34,0,0,0,0-.09.1.1,0,0,0,0,0h0l-.05,0,0,0a.11.11,0,0,0,0,.08l-.07.23H33.2Z"/><path class="cls-9" d="M33.77,73.78h.08l-.07.25a.56.56,0,0,1,0,.07.07.07,0,0,0,0,.05l0,0h.12l.1-.39h.08l-.12.44h-.23l0,0a.14.14,0,0,1,0-.07.54.54,0,0,1,0-.11Z"/><path class="cls-9" d="M34.12,74.18h.16l0,0,0,0v0a0,0,0,0,0,0,0l0,0h0l-.06,0a.19.19,0,0,1,0-.08.16.16,0,0,1,.07-.09.12.12,0,0,1,.12,0h.06l0,0,0,0s0,0,0,0H34.3s0,0,0,0v0s0,0,0,0h.06l0,0,0,0a0,0,0,0,1,0,0v.06l0,.06-.05,0-.06,0s-.05,0-.07,0h-.07l0,0s0,0,0,0Z"/><path class="cls-9" d="M41.63,74H42v.08h-.24l0,.19h.19v.08h-.19l-.06.22.25,0s0,0,0,0v0l-.33,0Z"/><path class="cls-9" d="M42.19,74.39s0-.07,0-.08l-.07,0s0,0,0,0H42a.17.17,0,0,1,0-.07l.06,0h.07a.13.13,0,0,1,.11.05.14.14,0,0,1,0,.13l-.08.29-.07,0H42l-.05,0a.08.08,0,0,1,0,0,.2.2,0,0,1,0-.07.21.21,0,0,1,0-.07l0,0s0,0,.07,0h.14Zm0,.08h-.06l-.09,0a.21.21,0,0,0,0,.06,0,0,0,0,0,0,0s0,0,0,0h.14Z"/><path class="cls-9" d="M42.44,74.24h.07v0a0,0,0,0,1,0,0l.06,0,.08,0h0v.07h0s0,0,0,0l0,0,0,.05,0,.07-.06.24h-.08Z"/><path class="cls-9" d="M42.74,74.32h-.07l.19-.17h0l0,.12h.1v.06h-.11l-.06.21a.18.18,0,0,0,0,.06v0s0,0,0,0h.08v.07h-.08a.11.11,0,0,1-.08,0,.11.11,0,0,1,0-.11Z"/><path class="cls-9" d="M43.09,74.07h.08l-.07.27s0,0,0,0l0,0,0,0h0s.08,0,.09,0a.14.14,0,0,1,0,.13l-.08.3h-.08l.07-.28a.1.1,0,0,0,0-.09,0,0,0,0,0,0,0h0l-.05,0s0,0,0,0a.19.19,0,0,0,0,.08l-.07.24h-.08Z"/><path class="cls-9" d="M21.48,82.91h.09l0,.4.25-.38h.08l-.14.63h-.08l.12-.49-.23.35h-.06l0-.37-.15.49h-.07Z"/><path class="cls-9" d="M22.19,83.3a.08.08,0,0,0,0-.07.06.06,0,0,0-.06,0H22s0,0,0-.07h.12c.06,0,.09,0,.11.05a.14.14,0,0,1,0,.13l-.07.28H22l-.05,0a.08.08,0,0,1,0,0,.13.13,0,0,1,0-.06l0-.07a.1.1,0,0,1,.05,0l.06,0h.13Zm0,.09h-.06a.11.11,0,0,0-.08,0,.09.09,0,0,0,0,.06v0s0,0,0,0h.12Z"/><path class="cls-9" d="M22.42,83.16h.06v.07l.06,0a.08.08,0,0,1,.07,0h0v.08h-.06l0,0,0,0,0,.07-.06.22H22.3Z"/><path class="cls-9" d="M22.59,83.55l0,0h.05a0,0,0,0,0,0,0h0l0,0s0,0,0,0,0,0,0,0a0,0,0,0,0,0,0h0l0,0a.1.1,0,0,1-.06,0,.08.08,0,0,1,0-.07.15.15,0,0,1,.06-.09.16.16,0,0,1,.12,0h.05l.05,0,0,0s0,0,0,0h-.13a0,0,0,0,0,0,0,0,0,0,0,0,0,0s0,0,0,0h0l0,0h0l0,0s0,0,0,0a0,0,0,0,1,0,0s0,0,0,.05l0,.06s0,0,0,0l-.06,0H22.6l-.05,0a.08.08,0,0,1,0,0Z"/><path class="cls-9" d="M29.84,83.56h-.09v-.08H30l-.13.46a.46.46,0,0,1,0,.09l-.05.06-.06,0h-.13s0,0,0,0a.08.08,0,0,0,0,0h.11l0,0,0-.05Z"/><path class="cls-9" d="M30,83.67h.08l-.07.25A.2.2,0,0,0,30,84a.09.09,0,0,0,0,0,0,0,0,0,0,0,0h.12l.1-.39h.08l-.12.44H30l-.05,0a.14.14,0,0,1,0-.07.22.22,0,0,1,0-.11Z"/><path class="cls-9" d="M30.47,83.71h.07v.06l0,0,0,0,0,0h0a.08.08,0,0,1,.06,0s0,0,0,0a.19.19,0,0,1,0,.08.44.44,0,0,1,0,.1.32.32,0,0,1-.1.18.23.23,0,0,1-.18.05h-.06l-.06.21h-.08Zm0,.38h.12s0,0,.05,0l0,0,0-.07a.26.26,0,0,0,0-.12s0,0-.07,0h0l0,0a.08.08,0,0,0,0,0,.14.14,0,0,0,0,.06Z"/><path class="cls-9" d="M30.94,83.81h-.05v-.06H31l-.13.45h-.07Zm0-.17v-.09h.09v.09H31Z"/><path class="cls-9" d="M31.16,83.83H31.1l.18-.16h0l0,.11h.1a0,0,0,0,1,0,0v0h-.1l-.06.21a.13.13,0,0,0,0,.06s0,0,0,0,0,0,0,0h.08s0,0,0,0v0h-.08a.12.12,0,0,1-.08,0,.17.17,0,0,1,0-.1Z"/><path class="cls-9" d="M31.44,84s0,.09,0,.11,0,0,.09,0a.22.22,0,0,0,.11,0v.07H31.5l-.09,0-.05,0a.19.19,0,0,1,0-.08.44.44,0,0,1,0-.1.36.36,0,0,1,0-.09.18.18,0,0,1,.05-.07l.07,0a.14.14,0,0,1,.09,0s.06,0,.07,0,0,0,0,0a.19.19,0,0,1,0,.07.28.28,0,0,1,0,.09v0Zm.21,0a.11.11,0,0,0,0,0s0,0,0,0,0,0,0,0h0a.08.08,0,0,0-.08,0,.35.35,0,0,0-.06.09Z"/><path class="cls-9" d="M31.88,83.81H32v0a0,0,0,0,0,0,0s0,0,.06,0a.08.08,0,0,1,.07,0h0v.08H32l0,0a.1.1,0,0,0,0,0l0,.07-.06.23h-.08Z"/><path class="cls-9" d="M38.44,84.66l.05,0h.07a.18.18,0,0,0,.11,0,.16.16,0,0,0,.06-.08v0a0,0,0,0,0,0,0l0,0,0,0,0,0a.07.07,0,0,1-.06-.06.06.06,0,0,1,0,0v-.06a.25.25,0,0,1,.09-.13.19.19,0,0,1,.15,0h.08l0,0a.16.16,0,0,1,0,.07l0,0h-.07l-.08,0a.13.13,0,0,0,0,.07v0s0,0,0,0l0,0,0,0,0,0,.05,0s0,0,0,0a.08.08,0,0,1,0,0s0,0,0,.07a.24.24,0,0,1-.1.14.22.22,0,0,1-.18,0H38.4s0,0,0,0Z"/><path class="cls-9" d="M39.17,84.5s0-.07,0-.08,0,0-.07,0H39a.2.2,0,0,1,0-.07h.13a.13.13,0,0,1,.11.05.2.2,0,0,1,0,.14l-.08.29H39l-.07,0s0,0,0,0,0,0,0,0a.17.17,0,0,1,0-.07l0-.07.05,0,.07,0h.14Zm0,.08h-.06l-.09,0a.09.09,0,0,0,0,.06s0,0,0,0,0,0,0,0h.14Z"/><path class="cls-9" d="M39.41,84.42h-.06l.18-.17h0l0,.12h.11a0,0,0,0,0,0,0v0h-.11l-.06.21a.35.35,0,0,1,0,.06v0s0,0,0,0h.08v.07h-.07a.12.12,0,0,1-.09,0,.2.2,0,0,1,0-.11Z"/><path class="cls-9" d="M39.7,84.37h.08l-.07.25a.23.23,0,0,0,0,.07.07.07,0,0,0,0,0l0,0h.12l.11-.39h.08l-.13.45h-.23a.1.1,0,0,1,0,0,.12.12,0,0,1,0-.07.22.22,0,0,1,0-.11Z"/><path class="cls-9" d="M40.17,84.4h.07v0s0,0,0,0l.06,0a.11.11,0,0,1,.08,0h0v.08H40.3l0,0,0,0,0,.07-.06.24h-.08Z"/><path class="cls-9" d="M40.48,84.43h0a0,0,0,0,1,0,0h0v0a.06.06,0,0,1,0,0l0,0,0,0,0,0h0a.11.11,0,0,1,.1,0,.23.23,0,0,1,0,.14l-.08.3h-.08l.08-.27a.17.17,0,0,0,0-.1s0,0-.05,0h0a.05.05,0,0,0,0,0,.1.1,0,0,0,0,0s0,0,0,.07l-.07.24h-.08Z"/><path class="cls-9" d="M18.4,92.42h.08l-.1.36a.64.64,0,0,1,0,.09.15.15,0,0,0,0,.07s0,0,0,0l.05,0h.06s0,0,.05,0a.16.16,0,0,0,0-.06.46.46,0,0,0,0-.09l.1-.36h.08l-.1.37,0,.11-.06.09-.07,0h-.1l-.08,0L18.29,93a.28.28,0,0,1,0-.09.52.52,0,0,1,0-.11Z"/><path class="cls-9" d="M18.86,92.64h.06v0a.08.08,0,0,0,0,0l.05,0a.11.11,0,0,1,.08,0h0v.08H19a.05.05,0,0,0,0,0,.08.08,0,0,0,0,0l0,.07-.06.23h-.07Z"/><path class="cls-9" d="M19.29,92.84s0-.06,0-.07a.06.06,0,0,0-.06,0h-.1v-.07h.13a.11.11,0,0,1,.1,0,.14.14,0,0,1,0,.13l-.07.28h-.15l-.06,0a.05.05,0,0,1,0,0s0,0,0,0A.2.2,0,0,1,19,93l0-.06s0,0,.05,0l.06,0h.13Zm0,.08h-.06a.08.08,0,0,0-.07,0,.07.07,0,0,0,0,.06.06.06,0,0,0,0,0l0,0s0,0,0,0h.1Z"/><path class="cls-9" d="M19.52,92.7h.06v0a.08.08,0,0,0,0,0l0,0,0,0,0,0h0c.05,0,.08,0,.09.05a.32.32,0,0,1,0,.14l-.08.28h-.07l.07-.26a.14.14,0,0,0,0-.09s0,0,0,0h0s0,0,0,0a.08.08,0,0,0,0,0l0,.07-.06.23H19.4Z"/><path class="cls-9" d="M20,92.74H20L20,93a.17.17,0,0,0,0,.07v0l0,0h.11l.11-.37h.07l-.12.44H20l-.07,0a.05.05,0,0,1-.05,0,.14.14,0,0,1,0-.07.22.22,0,0,1,0-.11Z"/><path class="cls-9" d="M20.28,93.15l0,0h.11l0,0a309063205122,309063205122,0,0,1,0-.06s0,0,0,0l0,0H20.4a.17.17,0,0,1-.06-.06.08.08,0,0,1,0-.07.15.15,0,0,1,.06-.09.21.21,0,0,1,.12,0l.06,0,0,0s0,0,0,0l0,0,0,0h-.1s0,0,0,0v0s0,0,0,0,0,0,0,0h0l0,0,0,0,0,0s0,0,0,0a.11.11,0,0,1,0,.05s0,0,0,.06a.08.08,0,0,1,0,0l-.06,0h-.13l-.05,0,0,0Z"/><path class="cls-9" d="M26.68,93.17h.07l.11.5L27,93.2h.08l-.17.63h-.08l-.11-.5-.13.47h-.07Z"/><path class="cls-9" d="M27.14,93.66a.13.13,0,0,0,0,.11.09.09,0,0,0,.08,0h.11v.07h-.06a.08.08,0,0,1-.07,0l-.09,0s0,0-.05-.06a.19.19,0,0,1,0-.08.31.31,0,0,1,0-.09l0-.09a.24.24,0,0,1,.06-.08l.07,0a.14.14,0,0,1,.09,0l.07,0,0,0a.15.15,0,0,1,0,.07.25.25,0,0,1,0,.08v.05Zm.22,0v-.09l0,0h0a.1.1,0,0,0-.09,0,.19.19,0,0,0-.05.09Z"/><path class="cls-9" d="M27.58,93.44h.07v0h0l0,0,0,0h.08l.06,0a.08.08,0,0,1,0,0,.19.19,0,0,1,0,.08.44.44,0,0,1,0,.1.39.39,0,0,1-.1.18.23.23,0,0,1-.18,0h-.06l-.06.21H27.4Zm0,.39h.12s0,0,.05,0l0,0,0-.07a.57.57,0,0,0,0-.12s0,0-.07,0h0l0,0,0,0a.08.08,0,0,0,0,0Z"/><path class="cls-9" d="M28,93.55H28l.18-.16h0l0,.11h.11s0,0,0,0v0h-.1l-.06.21a.13.13,0,0,0,0,.06s0,0,0,0,0,0,0,0h.08s0,0,0,0v0h-.07a.15.15,0,0,1-.08,0,.2.2,0,0,1,0-.11Z"/><path class="cls-9" d="M28.32,93.51h.08l-.07.25a.17.17,0,0,0,0,.07s0,0,0,0,0,0,0,0h.12l.1-.38h.08l-.12.44h-.22a.1.1,0,0,1,0,0s0,0,0-.07a.65.65,0,0,1,0-.11Z"/><path class="cls-9" d="M28.77,93.55h.07v.07l0,0,0,0,0,0H29a.11.11,0,0,1,.09,0,.23.23,0,0,1,0,.14L29,94h-.07l.07-.27a.34.34,0,0,0,0-.09,0,0,0,0,0,0,0s0,0,0,0l0,0,0,0,0,.07-.06.23h-.08Z"/><path class="cls-9" d="M29.22,93.85a.11.11,0,0,0,0,.11.11.11,0,0,0,.09,0,.22.22,0,0,0,.11,0v0s0,0,0,0l-.06,0h-.07l-.09,0a.1.1,0,0,1-.05-.06.14.14,0,0,1,0-.07.45.45,0,0,1,.06-.19.22.22,0,0,1,.05-.08l.07,0a.14.14,0,0,1,.09,0l.07,0a.1.1,0,0,1,0,0,.14.14,0,0,1,0,.07s0,.05,0,.08v.05Zm.21,0a.09.09,0,0,0,0,0,.06.06,0,0,0,0,0l0,0h0a.08.08,0,0,0-.08,0,.35.35,0,0,0-.06.09Z"/><path class="cls-9" d="M36.11,94h.14l.08,0a.09.09,0,0,1,.06,0,.09.09,0,0,1,0,.07.12.12,0,0,1,0,.1.28.28,0,0,1,0,.11l-.07.06-.08,0h-.14l-.06.24h-.08Zm0,.34h.11l0,0s0,0,0,0a.33.33,0,0,0,0-.06.2.2,0,0,0,0-.07s0,0,0,0l0,0h-.1Z"/><path class="cls-9" d="M36.57,94.06h.07l-.14.52v.06s0,0,0,0h.06s0,0,0,.07h-.11l0,0a.43.43,0,0,1,0,0,.18.18,0,0,1,0-.06Z"/><path class="cls-9" d="M36.75,94.28h.08l-.07.25a.25.25,0,0,0,0,.08.06.06,0,0,0,0,0s0,0,0,0h.12l.1-.39h.08l-.12.45H36.9a.14.14,0,0,1-.09,0h-.07a.1.1,0,0,1-.05,0,.24.24,0,0,1,0-.07.65.65,0,0,1,0-.11Z"/><path class="cls-9" d="M37.22,94.4h-.07l.19-.16h0l0,.11h.11a.08.08,0,0,1,0,0v0H37.3l-.06.22s0,0,0,.06v0s0,0,0,0h.08a0,0,0,0,1,0,0v0h-.08a.09.09,0,0,1-.08,0s0-.06,0-.11Z"/><path class="cls-9" d="M37.55,94.84l-.08,0,0-.06a.19.19,0,0,1,0-.08.38.38,0,0,1,0-.1.36.36,0,0,1,0-.09.24.24,0,0,1,.06-.08l.07,0a.14.14,0,0,1,.09,0l.08,0,.05.06a.11.11,0,0,1,0,.08.38.38,0,0,1,0,.1.36.36,0,0,1,0,.09.22.22,0,0,1-.05.08l-.08,0A.14.14,0,0,1,37.55,94.84Zm0-.07a.1.1,0,0,0,.09,0,.35.35,0,0,0,.07-.12.28.28,0,0,0,0-.13.07.07,0,0,0-.07,0,.11.11,0,0,0-.09,0,.2.2,0,0,0-.06.12.2.2,0,0,0,0,.13A.07.07,0,0,0,37.57,94.77Z"/><path class="cls-57" d="M28.51,92a3.41,3.41,0,0,0,3.28-2.63c.43-1.58-.36-2.94-1.74-3A3.44,3.44,0,0,0,26.79,89C26.37,90.56,27.13,91.92,28.51,92Z"/><path class="cls-58" d="M28,91.38a.53.53,0,1,0-.22-.78A.59.59,0,0,0,28,91.38Z"/><path class="cls-59" d="M28,91.27a.46.46,0,0,0,.65-.06.45.45,0,0,0-.18-.62.46.46,0,0,0-.65.06A.45.45,0,0,0,28,91.27Z"/><path class="cls-58" d="M27.55,89.42a.44.44,0,0,0,.21-.46c0-.22-.13-.35-.26-.31a.44.44,0,0,0-.21.46C27.3,89.32,27.42,89.46,27.55,89.42Z"/><path class="cls-59" d="M27.54,89.3a.36.36,0,0,0,.17-.37c0-.17-.11-.28-.21-.25a.35.35,0,0,0-.17.37C27.34,89.22,27.44,89.33,27.54,89.3Z"/><path class="cls-58" d="M31,90a.83.83,0,0,0,.29-1c-.17-.27-.57-.26-.9,0a.85.85,0,0,0-.29,1C30.26,90.28,30.66,90.26,31,90Z"/><path class="cls-59" d="M31,89.89a.68.68,0,0,0,.24-.8c-.14-.21-.46-.2-.72,0a.66.66,0,0,0-.24.79C30.37,90.12,30.69,90.11,31,89.89Z"/><path class="cls-58" d="M30.45,87.79a.28.28,0,0,0,.4,0,.32.32,0,0,0-.06-.43.28.28,0,0,0-.4,0A.31.31,0,0,0,30.45,87.79Z"/><path class="cls-59" d="M30.51,87.7a.23.23,0,0,0,.32,0,.26.26,0,0,0,0-.35.22.22,0,0,0-.32,0A.27.27,0,0,0,30.51,87.7Z"/><path class="cls-58" d="M28.88,88.78a.38.38,0,0,0,.39-.26.24.24,0,0,0-.24-.31.36.36,0,0,0-.38.26A.24.24,0,0,0,28.88,88.78Z"/><path class="cls-58" d="M30.17,91.23c.13-.11.2-.27.15-.37s-.21-.07-.34,0-.21.28-.16.37S30,91.34,30.17,91.23Z"/><path class="cls-58" d="M29.12,87.11c.11,0,.19-.14.17-.22s-.1-.1-.21-.06a.25.25,0,0,0-.17.22C28.92,87.13,29,87.16,29.12,87.11Z"/><path class="cls-58" d="M29.11,90.06a.17.17,0,0,0,.24,0,.17.17,0,0,0-.06-.23.16.16,0,0,0-.24,0A.17.17,0,0,0,29.11,90.06Z"/><path class="cls-58" d="M28.93,88.3a3.81,3.81,0,0,1,1.24-1.92l-.12,0A3.44,3.44,0,0,0,26.79,89c-.42,1.56.34,2.92,1.72,3a2.88,2.88,0,0,0,2-.68C29.22,91.14,28.52,89.82,28.93,88.3Z"/><path class="cls-60" d="M26.75,66.4a3.45,3.45,0,0,0-3.07,2.67c-.41,1.52.29,2.8,1.58,2.85a3.44,3.44,0,0,0,3.09-2.66C28.77,67.72,28.05,66.44,26.75,66.4Z"/><path class="cls-58" d="M26.18,69.68a.41.41,0,0,0-.37.27.22.22,0,0,0,.22.29.36.36,0,0,0,.36-.27A.22.22,0,0,0,26.18,69.68Z"/><path class="cls-58" d="M25,71a.09.09,0,0,0-.12-.08.19.19,0,0,0-.08.18c0,.06.06.1.11.07A.16.16,0,0,0,25,71Z"/><path class="cls-58" d="M24.78,69.55a.4.4,0,0,0-.37.27.21.21,0,0,0,.21.29.38.38,0,0,0,.37-.26A.23.23,0,0,0,24.78,69.55Z"/><path class="cls-58" d="M26.89,67.07a.38.38,0,0,0-.37.27.22.22,0,0,0,.22.29.39.39,0,0,0,.36-.27A.21.21,0,0,0,26.89,67.07Z"/><path class="cls-58" d="M25.19,67.26c-.12.11-.19.27-.14.36s.19.06.32-.06.19-.27.14-.35S25.32,67.15,25.19,67.26Z"/><path class="cls-58" d="M26.13,71.17c-.1,0-.18.15-.17.22s.1.1.21,0a.24.24,0,0,0,.16-.22C26.32,71.15,26.23,71.13,26.13,71.17Z"/><path class="cls-58" d="M27.26,68.87c-.1,0-.18.15-.17.22s.11.1.21,0a.26.26,0,0,0,.16-.22C27.45,68.85,27.36,68.82,27.26,68.87Z"/><path class="cls-58" d="M27.18,70.22a.26.26,0,0,0-.17.22c0,.07.1.1.2,0a.26.26,0,0,0,.17-.22C27.37,70.2,27.28,70.17,27.18,70.22Z"/><path class="cls-58" d="M26.17,68.33a.17.17,0,0,0-.23,0,.17.17,0,0,0,0,.22.16.16,0,1,0,.18-.26Z"/><path class="cls-58" d="M27.73,67.63a.16.16,0,1,0-.18.26.17.17,0,0,0,.23,0A.16.16,0,0,0,27.73,67.63Z"/><path class="cls-58" d="M24.46,68.6a.16.16,0,1,0-.18.26.16.16,0,0,0,.22,0A.16.16,0,0,0,24.46,68.6Z"/><path class="cls-58" d="M25.69,68.31a4,4,0,0,1,1.17-1.9h-.11a3.45,3.45,0,0,0-3.07,2.67c-.41,1.52.29,2.8,1.58,2.85a2.73,2.73,0,0,0,1.88-.74C25.94,71,25.29,69.78,25.69,68.31Z"/><path class="cls-61" d="M38.89,87a3.54,3.54,0,0,0-3.39,2.71c-.44,1.6.37,3,1.81,3.13a3.53,3.53,0,0,0,3.42-2.7C41.17,88.53,40.35,87.12,38.89,87Z"/><path class="cls-62" d="M38.31,90.5a.39.39,0,0,0-.41.27.26.26,0,0,0,.25.32.39.39,0,0,0,.4-.27A.25.25,0,0,0,38.31,90.5Z"/><path class="cls-62" d="M37,91.87a.1.1,0,0,0-.13-.09.16.16,0,0,0-.08.18c0,.08.07.12.13.09A.15.15,0,0,0,37,91.87Z"/><path class="cls-62" d="M36.73,90.29a.39.39,0,0,0-.4.27.25.25,0,0,0,.24.32.39.39,0,0,0,.41-.27A.26.26,0,0,0,36.73,90.29Z"/><path class="cls-62" d="M39.06,87.73a.42.42,0,0,0-.41.27.26.26,0,0,0,.25.33.39.39,0,0,0,.4-.28A.25.25,0,0,0,39.06,87.73Z"/><path class="cls-62" d="M37.17,87.86c-.15.11-.22.28-.16.37s.21.08.35,0,.22-.28.16-.37S37.31,87.74,37.17,87.86Z"/><path class="cls-62" d="M38.27,92.09a.25.25,0,0,0-.18.22c0,.08.12.11.23.07s.19-.15.18-.23S38.38,92,38.27,92.09Z"/><path class="cls-62" d="M39.5,89.68c-.11,0-.19.15-.18.23s.12.11.23.06a.26.26,0,0,0,.18-.23C39.72,89.66,39.61,89.64,39.5,89.68Z"/><path class="cls-62" d="M39.43,91.12c-.11,0-.19.15-.18.23s.12.11.23.06a.25.25,0,0,0,.18-.22C39.65,91.1,39.54,91.08,39.43,91.12Z"/><path class="cls-62" d="M38.27,89.05a.18.18,0,0,0-.25,0,.18.18,0,0,0,.06.24.17.17,0,0,0,.25,0A.17.17,0,0,0,38.27,89.05Z"/><path class="cls-62" d="M40,88.37a.2.2,0,0,0-.26,0,.18.18,0,0,0,.06.24.2.2,0,0,0,.26,0A.19.19,0,0,0,40,88.37Z"/><path class="cls-62" d="M36.36,89.25a.18.18,0,0,0-.25,0,.18.18,0,0,0,.06.24.17.17,0,0,0,.25,0A.18.18,0,0,0,36.36,89.25Z"/><path class="cls-58" d="M37.74,89A3.84,3.84,0,0,1,39,87l-.13,0a3.54,3.54,0,0,0-3.39,2.71c-.44,1.6.37,3,1.81,3.13a3,3,0,0,0,2.1-.7A2.34,2.34,0,0,1,37.74,89Z"/><path class="cls-63" d="M46.14,70a3.65,3.65,0,0,1-3.37,2.75c-1.41-.07-2.21-1.39-1.79-2.95A3.67,3.67,0,0,1,44.32,67C45.75,67.06,46.57,68.38,46.14,70Z"/><path class="cls-64" d="M44.33,67A3.7,3.7,0,0,0,41,69.76c-.42,1.57.39,2.91,1.82,3A3.72,3.72,0,0,0,46.17,70C46.6,68.37,45.77,67,44.33,67Zm-1.52,5.59c-1.35-.06-2.12-1.33-1.72-2.82a3.78,3.78,0,0,1,1.83-2.28.1.1,0,0,0,.09,0s.05,0-.32.25-.44.61-.29.39.22-.14,0,.18,0,.22,0,.42.12,0,0,.34c0,0,.06.13.25.07s-.07.17-.3.35-.19.24-.13.36a.25.25,0,0,1,0,.33c-.12.13.08.18.12.25a.43.43,0,0,1-.2.41c-.16.1,0,.34-.14.66S41.9,72,42,72s.06-.28.15-.41.1.1.33-.26c0,0,.22.07.43-.32,0,0,.22,0,.29-.15s.05-.2.42-.46-.08-.49-.35-.51c0,0-.11,0,.16-.3.12-.15-.12-.12-.14-.26a.31.31,0,0,0-.38-.28c-.27,0-.38.13-.34,0s.19-.26.06-.28-.06,0,.12-.18c0,0-.07-.06-.18,0s-.22-.06,0-.26.56-.35.43,0,.16-.17.16-.17a1,1,0,0,1,.53-.28c.25,0,.1,0,.13-.13s.07.16.22.11-.12-.09-.07-.2.21-.06.24.08.16-.07,0-.3-.12-.08-.3,0-.14.15-.12,0,0,0-.1-.08.15,0,.26,0,.09-.07.09-.07l.13-.05s0,.12.13.1,0-.17.07-.15.21,0,.19.07-.15.29.22.12L45,67.3l.06,0a.08.08,0,0,0,0,.09c.1.08.09,0,.22.12s0,.22.11.25.19.21.09.22-.08-.12-.21-.14,0,0,.11.15a.15.15,0,0,1-.07.25c-.1,0-.1.28.06.26s.16-.21.23-.17,0,.15.15.22-.06.15.11.16.23.1.06.16-.12.14-.2-.05-.12,0-.09-.18-.22,0-.34,0-.06.15-.17.16-.15,0-.19.26-.13.33-.25.33.06.15.06.34,0,.3.26.24.19-.07.18.08.15-.08.13.07-.29.17-.17.27,0,.31-.13.36-.08.24-.25.32,0,.23-.1.32-.37.2-.35.43.06.1.29-.06.45-.43.53-.42,0,0,0,0A3.12,3.12,0,0,1,42.81,72.58Z"/><path class="cls-65" d="M44.49,71.31c-1.43-.06-2.23-1.38-1.81-3a4,4,0,0,1,.53-1.14A3.89,3.89,0,0,0,41,69.76c-.42,1.56.38,2.88,1.79,2.95a3.41,3.41,0,0,0,2.83-1.6A2.87,2.87,0,0,1,44.49,71.31Z"/><path class="cls-66" d="M37.19,69.35a2.72,2.72,0,0,0,0-1.14h0c-1-.22-2.17.17-3.15-.06a2.77,2.77,0,0,1-.91-.41,4.15,4.15,0,0,0-.42.52,3.42,3.42,0,0,0-.41.78c1.58.3,3.16.63,4.73,1a4,4,0,0,0,.15-.45Z"/><path class="cls-67" d="M37,67.7a1.83,1.83,0,0,0-1.62-1,2.61,2.61,0,0,0-1,.19,3.67,3.67,0,0,0-1.27.86,2.77,2.77,0,0,0,.91.41c1,.23,2.16-.16,3.15.06h0A2.21,2.21,0,0,0,37,67.7Z"/><path class="cls-67" d="M32.25,69a2.29,2.29,0,0,0-.12.37,2.82,2.82,0,0,0-.11,1,2.28,2.28,0,0,0,.24.92,7.34,7.34,0,0,1,3.22.53,3.71,3.71,0,0,0,.85-.74,4.14,4.14,0,0,0,.65-1C35.41,69.66,33.83,69.33,32.25,69Z"/><path class="cls-66" d="M32.26,71.3a1.75,1.75,0,0,0,.5.61,1.58,1.58,0,0,0,1.09.4,2.6,2.6,0,0,0,.73-.08,3.27,3.27,0,0,0,.9-.4A7.34,7.34,0,0,0,32.26,71.3Z"/><path class="cls-68" d="M34.06,68.47a4,4,0,0,1,1.06-1.78,2.61,2.61,0,0,0-.77.18,3.67,3.67,0,0,0-1.27.86,4.15,4.15,0,0,0-.42.52,3.42,3.42,0,0,0-.41.78,2.29,2.29,0,0,0-.12.37,2.82,2.82,0,0,0-.11,1,2.28,2.28,0,0,0,.24.92,1.75,1.75,0,0,0,.5.61,1.3,1.3,0,0,0,1.09.4,5.82,5.82,0,0,0,.73-.08,3.27,3.27,0,0,0,.9-.4,5,5,0,0,0,.53-.41h-.19C34.42,71.36,33.63,70,34.06,68.47Z"/><path class="cls-66" d="M33.39,79A9.66,9.66,0,0,0,30,78.08a4.37,4.37,0,0,0-.41.77c1.57.32,3.12.69,4.68,1.11a4,4,0,0,0,.15-.45l.06-.25A1.51,1.51,0,0,1,33.39,79Z"/><path class="cls-69" d="M29.41,79.58a2.57,2.57,0,0,0,0,.61,13.22,13.22,0,0,1,2,.24,2.91,2.91,0,0,1,1.07.21c.17.08.32.2.49.3s.53,0,.72,0a3,3,0,0,0,.27-.35,5.32,5.32,0,0,0-1.85-1A5,5,0,0,0,29.41,79.58Z"/><path class="cls-70" d="M29.6,78.85l-.12.36a2.41,2.41,0,0,0-.07.37,5,5,0,0,1,2.64.07,5.32,5.32,0,0,1,1.85,1,3.48,3.48,0,0,0,.38-.68c-.86-.23-1.63-.77-2.49-1C31.09,78.83,30.31,79,29.6,78.85Z"/><path class="cls-69" d="M34.44,78.11c-1-.24-2.14.13-3.11-.11a3.12,3.12,0,0,1-.9-.43,3.57,3.57,0,0,0-.42.51,9.66,9.66,0,0,1,3.38.94,1.51,1.51,0,0,0,1.1.24,2.91,2.91,0,0,0,0-1.14Z"/><path class="cls-66" d="M33.3,77.43a4.26,4.26,0,0,1-1.6-.69h0a3.41,3.41,0,0,0-1.25.84,3.12,3.12,0,0,0,.9.43c1,.24,2.13-.13,3.11.11h0a2.45,2.45,0,0,0-.17-.5C34,77.57,33.63,77.51,33.3,77.43Z"/><path class="cls-69" d="M32.7,76.56a2.8,2.8,0,0,0-1,.17h0a4.26,4.26,0,0,0,1.6.69c.33.08.67.14,1,.19A1.86,1.86,0,0,0,32.7,76.56Z"/><path class="cls-69" d="M29.61,81.12a2,2,0,0,0,.49.62,2.84,2.84,0,0,1,1.81.35,2.83,2.83,0,0,0,.88-.38C32.92,80.66,30.7,80.05,29.61,81.12Z"/><path class="cls-69" d="M30.1,81.74a1.61,1.61,0,0,0,1.09.41,2,2,0,0,0,.72-.06A2.84,2.84,0,0,0,30.1,81.74Z"/><path class="cls-66" d="M30.51,80.39a1.21,1.21,0,0,1-.31.1c.14.1.12.14.31.15a.86.86,0,0,0,.43-.08S30.69,80.3,30.51,80.39Z"/><path class="cls-66" d="M30.43,80.82a.68.68,0,0,1-.53-.22l-.45.07a2.18,2.18,0,0,0,.16.45c.39-.11.78.06,1.54-.09a1.91,1.91,0,0,1,1.64.68c.13-.08.25-.17.37-.26a4.44,4.44,0,0,0-1.91-.76A2,2,0,0,1,30.43,80.82Z"/><path class="cls-66" d="M30.44,80.24c.26-.13.6.08.8.24h0a5.84,5.84,0,0,1,2.13.78,2.23,2.23,0,0,0,.26-.27,2.69,2.69,0,0,1-.54-.26,4,4,0,0,0-.49-.3,2.91,2.91,0,0,0-1.07-.21c-.4,0-.47-.54-1.23-.25a3.49,3.49,0,0,1-.93.22c0,.1,0,.2,0,.3l.34,0A2.68,2.68,0,0,0,30.44,80.24Z"/><path class="cls-66" d="M30.51,80.39a1.21,1.21,0,0,1-.31.1c.14.1.12.14.31.15a.86.86,0,0,0,.43-.08S30.69,80.3,30.51,80.39Z"/><path class="cls-69" d="M31.24,80.48h0c-.2-.16-.54-.37-.8-.24a2.68,2.68,0,0,1-.69.22l-.34,0a1.16,1.16,0,0,0,0,.18l.45-.07a.68.68,0,0,0,.53.22,2,2,0,0,0,.82-.13,4.44,4.44,0,0,1,1.91.76l.21-.19A5.84,5.84,0,0,0,31.24,80.48Zm-.73.16c-.19,0-.17,0-.31-.15a1.21,1.21,0,0,0,.31-.1c.18-.09.43.17.43.17A.86.86,0,0,1,30.51,80.64Z"/><path class="cls-68" d="M31.4,78.32a3.82,3.82,0,0,1,1.05-1.76,3,3,0,0,0-.77.17,3.41,3.41,0,0,0-1.25.84,3.57,3.57,0,0,0-.42.51,4.37,4.37,0,0,0-.41.77l-.12.36a3.39,3.39,0,0,0-.11,1,2.5,2.5,0,0,0,.24.93,2,2,0,0,0,.49.62,1.63,1.63,0,0,0,1.09.41,1.9,1.9,0,0,0,.72-.06,2.83,2.83,0,0,0,.88-.38,3.35,3.35,0,0,0,.53-.4h-.19C31.75,81.22,31,79.88,31.4,78.32Z"/><path class="cls-71" d="M23.21,87.31c-.95-.26-2.09.08-3-.18a2.82,2.82,0,0,1-.88-.45,3.31,3.31,0,0,0-.41.5,9.29,9.29,0,0,1,3.29,1,1.51,1.51,0,0,0,1.06.26,3.11,3.11,0,0,0,0-1.14Z"/><path class="cls-72" d="M22.11,86.6a4.06,4.06,0,0,1-1.56-.72h0a3.3,3.3,0,0,0-1.22.81,2.82,2.82,0,0,0,.88.45c.93.26,2.07-.08,3,.18h0a2.12,2.12,0,0,0-.17-.52A9.79,9.79,0,0,1,22.11,86.6Z"/><path class="cls-73" d="M22.19,88.2a9.29,9.29,0,0,0-3.29-1,3.75,3.75,0,0,0-.4.77c1.52.35,3,.75,4.54,1.2a4,4,0,0,0,.15-.45l.06-.24A1.51,1.51,0,0,1,22.19,88.2Z"/><path class="cls-74" d="M21.53,85.72a2.46,2.46,0,0,0-1,.15h0a4.06,4.06,0,0,0,1.56.72,9.79,9.79,0,0,0,1,.2A1.85,1.85,0,0,0,21.53,85.72Z"/><path class="cls-71" d="M18.5,90.22a1.83,1.83,0,0,0,.47.63,2.74,2.74,0,0,1,1.75.38,2.58,2.58,0,0,0,.86-.36A6.79,6.79,0,0,0,18.5,90.22Z"/><path class="cls-72" d="M21.41,89.58a3,3,0,0,0-1-.22,13.33,13.33,0,0,0-2.1-.07,2.55,2.55,0,0,0,.23.93,6.79,6.79,0,0,1,3.08.65,3.25,3.25,0,0,0,.83-.7,3.3,3.3,0,0,1-.53-.27A4.87,4.87,0,0,0,21.41,89.58Z"/><path class="cls-74" d="M18.38,88.31a3.39,3.39,0,0,0-.11,1,13.33,13.33,0,0,1,2.1.07,3,3,0,0,1,1,.22,4.87,4.87,0,0,1,.47.32,3.3,3.3,0,0,0,.53.27,4,4,0,0,0,.63-1c-1.51-.45-3-.85-4.54-1.2C18.45,88.07,18.42,88.18,18.38,88.31Z"/><path class="cls-73" d="M19,90.85a1.48,1.48,0,0,0,1.05.43,1.85,1.85,0,0,0,.7,0A2.74,2.74,0,0,0,19,90.85Z"/><path class="cls-75" d="M22.24,90.32c-1.43-.12-2.22-1.55-1.78-3.2a4,4,0,0,1,.69-1.39,2.4,2.4,0,0,0-.62.14,3.56,3.56,0,0,0-1.63,1.31,3.75,3.75,0,0,0-.4.77c-.05.12-.08.23-.12.36a3.39,3.39,0,0,0-.11,1,2.55,2.55,0,0,0,.23.93,1.83,1.83,0,0,0,.47.63,1.51,1.51,0,0,0,1.05.43,1.7,1.7,0,0,0,.7,0,2.58,2.58,0,0,0,.86-.36,3,3,0,0,0,.68-.55Z"/><path class="cls-76" d="M40.91,82.35a3.44,3.44,0,0,0,2.2-3.19,16.87,16.87,0,0,1-2.48,1.24,14.11,14.11,0,0,1-2.52.76A2,2,0,0,0,40.91,82.35Z"/><path class="cls-77" d="M42.66,78.24l0,.09c.79-.16,1.32-.13,1.35.12s-.47.73-1.3,1.22a16.42,16.42,0,0,1-2.05,1,12.85,12.85,0,0,1-2.09.66c-.85.19-1.43.17-1.46-.1s.41-.66,1.14-1.11V80c-1.11.63-1.82,1.23-1.77,1.58s1,.34,2.29,0a15.56,15.56,0,0,0,1.92-.65A19,19,0,0,0,42.63,80c1.29-.68,2.14-1.37,2.08-1.74S43.84,78,42.66,78.24Z"/><path class="cls-78" d="M42.78,78.06s0,.08,0,.11c1.06-.21,2.54-.51,2.59-.17s-.63,1-1.74,1.62a20.12,20.12,0,0,1-2.74,1.32,18.31,18.31,0,0,1-2.77.88c-1.13.24-1.89.22-1.94-.14s1-1,1.93-1.64c0,0,0-.09,0-.13-1.48.83-2.84,1.79-2.77,2.24s1.29.45,3,0A21.9,21.9,0,0,0,41,81.27a21.58,21.58,0,0,0,2.54-1.17c1.73-.91,2.87-1.83,2.79-2.33S44.36,77.67,42.78,78.06Z"/><path class="cls-78" d="M42.71,78.39l0,.1c.26,0,.42.05.44.17s-.12.3-.37.51a9.92,9.92,0,0,1-2.17,1.17,7.65,7.65,0,0,1-2.24.59c-.27,0-.44,0-.46-.17s.11-.28.34-.47v-.11c-.53.35-.84.66-.81.86s.43.25,1.05.14a11.29,11.29,0,0,0,2.15-.65,12.79,12.79,0,0,0,2.1-1c.6-.38.95-.72.92-.93S43.29,78.3,42.71,78.39Z"/><path class="cls-79" d="M43.11,78.72c0-.09,0-.17,0-.25a.49.49,0,0,0,0-.11.24.24,0,0,0,0-.08l0-.1a2,2,0,0,0-2.77-1h0a3.65,3.65,0,0,0-2.16,3v.2a.57.57,0,0,0,0,.13,2.11,2.11,0,0,0,0,.25,2.21,2.21,0,0,0,.07.3,8.67,8.67,0,0,0,2.28-.59h0l.26-.1c.33-.13.64-.27.93-.41A10.64,10.64,0,0,0,43,79.12l.1-.08C43.13,78.93,43.12,78.83,43.11,78.72Z"/><path class="cls-80" d="M39.8,78.3a3.14,3.14,0,0,1,.59-1.15l-.2.07h0a3.65,3.65,0,0,0-2.16,3v.2a.57.57,0,0,0,0,.13,2.11,2.11,0,0,0,0,.25,2.21,2.21,0,0,0,.07.3,8.27,8.27,0,0,0,2.24-.58A2.05,2.05,0,0,1,39.8,78.3Z"/><path class="cls-81" d="M24.14,76.06A3.43,3.43,0,0,0,21,78.69c-.41,1.53.32,2.83,1.65,2.92A3.41,3.41,0,0,0,25.81,79C26.23,77.44,25.48,76.13,24.14,76.06Z"/><path class="cls-58" d="M24.63,76.69a.57.57,0,0,0-.78.1.6.6,0,1,0,.78-.1Z"/><path class="cls-82" d="M24.6,76.75a.46.46,0,0,0-.63.08.48.48,0,1,0,.63-.08Z"/><path class="cls-58" d="M25.06,78.59a.45.45,0,0,0-.2.46c0,.2.13.34.26.29a.45.45,0,0,0,.2-.46C25.31,78.68,25.19,78.55,25.06,78.59Z"/><path class="cls-82" d="M25.08,78.67c-.1,0-.17.2-.16.36s.11.27.21.24a.39.39,0,0,0,.17-.37C25.28,78.73,25.19,78.63,25.08,78.67Z"/><path class="cls-58" d="M21.75,78.12a.83.83,0,0,0-.28,1c.16.25.54.23.85,0a.84.84,0,0,0,.29-1C22.45,77.82,22.06,77.84,21.75,78.12Z"/><path class="cls-82" d="M21.8,78.17a.65.65,0,0,0-.23.77c.13.2.43.19.69,0a.65.65,0,0,0,.22-.77C22.35,77.93,22.05,78,21.8,78.17Z"/><path class="cls-58" d="M22.26,80.23a.27.27,0,0,0-.39,0,.31.31,0,0,0,.06.41.26.26,0,0,0,.38,0A.31.31,0,0,0,22.26,80.23Z"/><path class="cls-82" d="M22.21,80.28a.21.21,0,0,0-.31,0,.25.25,0,0,0,.05.33.21.21,0,0,0,.3,0A.24.24,0,0,0,22.21,80.28Z"/><path class="cls-82" d="M23.57,79.37a.37.37,0,0,0-.37.26.22.22,0,0,0,.22.3.39.39,0,0,0,.38-.26A.23.23,0,0,0,23.57,79.37Z"/><path class="cls-82" d="M22.54,76.9c-.13.11-.2.27-.15.36s.2.06.33-.05.2-.27.15-.36S22.67,76.79,22.54,76.9Z"/><path class="cls-82" d="M23.53,80.87c-.1,0-.18.14-.17.22s.11.1.21.06.18-.15.17-.22S23.63,80.83,23.53,80.87Z"/><path class="cls-82" d="M23.55,78a.16.16,0,0,0-.23,0,.15.15,0,0,0,.05.22.16.16,0,0,0,.23,0A.16.16,0,0,0,23.55,78Z"/><path class="cls-58" d="M23.06,78a3.89,3.89,0,0,1,1.19-1.9h-.11A3.43,3.43,0,0,0,21,78.69c-.41,1.53.32,2.83,1.65,2.92a2.79,2.79,0,0,0,1.94-.71C23.33,80.72,22.66,79.45,23.06,78Z"/><path class="cls-83" d="M27,83c-3.35-4.22-8.51-17.47-8.51-17.47-3.19,11.45-8.59,33.2-8.66,34.06,0,.3-.13.67-.18,1,.18.77,1,1.49,3.55,1.77,3.73.41,19,2.39,27,3.15,2.27.22,3.62.32,4.19,0s1.63-4.76,3.1-10.85C45.46,94,30.3,87.07,27,83Z"/><path class="cls-6" d="M136.49,101.9c-1.2-2.43-4.27-1.5-6.43-1a5.41,5.41,0,0,1-.58-2.58l-50.94-1a3.25,3.25,0,0,1-1.17.21,30.54,30.54,0,0,0-4.15.41c-1.1.17-6,2.31-4.32,4.37h0C84.16,107.58,100,113,102.81,113.13,102.87,113.15,136.49,101.9,136.49,101.9Z"/><path class="cls-84" d="M133.81,93.62s-3.6,5-.24,8l-28.9,9.08s-4.72-2.17-1.09-8Z"/><path class="cls-85" d="M110.7,108.34c1.12-4.71,6.57-6.87,10.69-8.44a58.43,58.43,0,0,1,8.33-2.58c.87-.18,1.76-.34,2.63-.53a10.5,10.5,0,0,1,1.46-3.17l-30.23,9c-3.63,5.88,1.09,8,1.09,8l6-1.87A2.57,2.57,0,0,1,110.7,108.34Z"/><path class="cls-86" d="M103.86,102.7s4.66,3.42.76,8C104.62,110.67,98.73,108.52,103.86,102.7Z"/><path class="cls-87" d="M103.86,111.52l32.29-10.09s-.07-1.48-2.91-1.1c-4.15.55-28.85,9.66-28.85,9.66s-2.59-3.73,0-7l28-8.33s4.07-1.09,3.5-2.58l-34,9.84S96.94,109.59,103.86,111.52Z"/><path class="cls-88" d="M71.07,100.23l32.64,11.24a6.91,6.91,0,0,1-.94-8.88S71.69,92,71.69,92A6.61,6.61,0,0,0,71.07,100.23Z"/><g class="cls-89"><path class="cls-9" d="M72.83,99.36v-.1l.21,0a28.69,28.69,0,0,1,.21-4.32l-.37-.12a1.77,1.77,0,0,1-.33.92l-.1,0c0-.46.08-.69.15-1.14l1.88.61c0,.46-.06.7-.08,1.17l-.1,0a2.07,2.07,0,0,1-.14-1.08l-.37-.12a30.59,30.59,0,0,0-.17,4.34l.21.18v.1Z"/><path class="cls-9" d="M74.72,95.33v-.1l.92.32v.09l-.2,0c0,.81-.06,1.23-.06,2.08l.73.26c0-.86,0-1.28,0-2.09l-.2-.17v-.1l.93.32v.1l-.2,0c0,1.71,0,2.63,0,4.46l.21.19v.11c-.4-.15-.6-.23-1-.37v-.11l.21,0c0-.88,0-1.31,0-2.17l-.74-.26c0,.85,0,1.28,0,2.15l.22.18v.11l-1-.36v-.11l.21,0a37,37,0,0,1,.07-4.37Z"/><path class="cls-9" d="M78.39,98.84a2.39,2.39,0,0,1,.14-.65l.1,0c0,.63,0,1,.06,1.6l-.1,0A3.81,3.81,0,0,1,78.4,99l-.4-.15c0,.89,0,1.33.09,2.24l.83.31a1.61,1.61,0,0,1,.18-1l.1,0c0,.52,0,.79.07,1.31l-2-.74v-.11l.21,0c-.08-1.84-.12-2.76-.09-4.49l-.2-.17v-.1l1.78.63c0,.49,0,.74,0,1.24l-.1,0a2.61,2.61,0,0,1-.25-1.15L78,96.52c0,.85,0,1.29,0,2.17Z"/><path class="cls-9" d="M82.22,98.19l-.29-.32v-.1l.66.24v.1l-.27.11c.08,1.17.12,1.76.21,3s-.23,1.83-.7,1.65c-.72-.28-1.12-1.16-1.19-2.37s-.11-1.83-.16-3l-.21-.18v-.1l1,.35v.11l-.2,0c.06,1.18.1,1.79.17,3s.33,1.86.67,2,.61-.42.53-1.54S82.29,99.35,82.22,98.19Z"/><path class="cls-9" d="M84.78,99.12l-.31-.32v-.11l.69.25V99l-.27.12c.17,2,.26,3,.4,5l-.11,0c-.79-1.86-1.2-2.83-2-4.69.11,1.42.17,2.16.27,3.59l.3.34v.11l-.69-.26v-.12l.28-.11c-.13-1.83-.2-2.77-.34-4.57l-.25-.23v-.11l.37.14c.28.1.43.43.53.68L85,102.09Z"/><path class="cls-9" d="M85.43,99.14V99l1,.38v.11l-.21,0c.19,1.91.27,2.91.41,4.8l.23.2v.11l-1.06-.4v-.11l.21,0c-.14-1.9-.22-2.89-.4-4.79Z"/><path class="cls-9" d="M88.84,100.58l-.31-.32v-.12l.7.25v.12l-.28.11c-.17,1.9-.28,2.87-.5,4.68l-.12,0c-.58-2.15-.9-3.31-1.55-5.52l-.2-.18v-.11l.45.16a1.14,1.14,0,0,1,.56.81c.39,1.32.58,2,.94,3.3C88.66,102.48,88.72,101.84,88.84,100.58Z"/><path class="cls-9" d="M90.87,103.49a2.65,2.65,0,0,1,.11-.7l.12,0c.06.69.08,1,.13,1.71l-.11,0a4,4,0,0,1-.23-.82l-.44-.16c.07,1,.1,1.42.16,2.33l.9.32a1.68,1.68,0,0,1,.17-1.06l.12,0c0,.54,0,.81.08,1.33l-2.11-.76v-.11l.22,0c-.13-1.87-.21-2.88-.4-4.84l-.24-.19,0-.12,2.07.73c.06.55.08.83.13,1.38l-.12,0a3.34,3.34,0,0,1-.36-1.28l-.83-.29c.09,1,.14,1.45.21,2.4Z"/><path class="cls-9" d="M93.2,104.7l-.25-.09c0,.85.07,1.27.12,2.07l.27.2V107l-1.13-.39v-.11l.23,0c-.11-1.84-.17-2.85-.35-4.84l-.25-.2v-.11l1,.36a2,2,0,0,1,1.38,1.94c.09,1.43-.85,1.09-.85,1.09a1.27,1.27,0,0,1,.68.9l.41,1.58.2.17v.1l-.53-.18c-.23-.08-.39-.37-.49-.77C93.49,105.8,93.4,105.44,93.2,104.7Zm-.11-.23c.35.13.56-.24.5-1.09s-.34-1.4-.7-1.52l-.16,0c.1,1,.14,1.58.2,2.61Z"/><path class="cls-9" d="M96.2,107c0-1.11-1.4-1.66-1.52-3.51-.05-.74.22-1.25.89-1,.39.13.68.72.68.72a.76.76,0,0,1,.2-.35l.1,0c0,.6,0,.9.07,1.48l-.16-.06s-.25-1.41-.79-1.6c-.21-.07-.36.23-.33.73.08,1.32,1.48,1.91,1.51,3.49,0,.75-.31,1.25-1,1a1.43,1.43,0,0,1-.7-.68.61.61,0,0,1-.2.31l-.09,0c0-.53,0-.8-.06-1.36l.15,0s.23,1.32.82,1.51C96,107.83,96.22,107.55,96.2,107Z"/><path class="cls-9" d="M98.46,106.13a2.11,2.11,0,0,1,.17-.69l.12,0v1.66l-.12,0a3.76,3.76,0,0,1-.17-.79l-.46-.15c0,.93,0,1.37,0,2.2l.89.27a1.5,1.5,0,0,1,.26-1l.11,0c0,.5,0,.74,0,1.21l-2.1-.65v-.1l.23,0c0-1.73,0-2.73-.11-4.75l-.25-.19v-.12l2.2.72c0,.56,0,.84,0,1.39l-.12,0a3,3,0,0,1-.28-1.29l-.88-.28c0,1,0,1.47,0,2.41Z"/></g><ellipse class="cls-90" cx="71.76" cy="96.72" rx="0.42" ry="0.42"/><ellipse class="cls-90" cx="100.41" cy="106.33" rx="0.42" ry="0.42"/><path class="cls-91" d="M71.26,92.54s24,8.33,31.08,10.82c.13-.25.27-.51.43-.77,0,0-31.08-10.6-31.08-10.6a6.51,6.51,0,0,0-.53.66Z"/><path class="cls-92" d="M101.73,105.08a98.1,98.1,0,0,1-13.89-2.6c-5.71-1.53-12.46-3.87-16-8.84a3.25,3.25,0,0,1-.54-1.11,6.51,6.51,0,0,0-.18,7.7l32.64,11.24A7,7,0,0,1,101.73,105.08Z"/><polygon class="cls-93" points="135.84 92.12 101.85 86.74 71.69 91.99 102.7 102.7 135.84 92.12"/><path class="cls-94" d="M105.49,99.66a4,4,0,0,1,.78-5.29,24.32,24.32,0,0,1,3.12-2.1l-.56,0c-1.52-.08-3-.09-4.57-.08a35.78,35.78,0,0,1-9.19-.77,53.93,53.93,0,0,1-6.61-2.3L75.14,91.39l-1.9,1.13L102.7,102.7s2-1.81,2.9-2.8C105.59,99.89,105.5,99.67,105.49,99.66Z"/><path class="cls-84" d="M131,85.56s-3.27,4.54-.21,7.24l-26.25,8.25s-4.29-2-1-7.31Z"/><path class="cls-85" d="M131,85.56s-3.27,4.54-.21,7.24l-26.25,8.25s-4.29-2-1-7.31Z"/><path class="cls-85" d="M110,98.93c1-4.27,6-6.24,9.71-7.66a51.65,51.65,0,0,1,7.57-2.34c.79-.17,1.59-.32,2.39-.48A9.47,9.47,0,0,1,131,85.56l-27.45,8.18c-3.3,5.33,1,7.31,1,7.31l5.41-1.7A3,3,0,0,1,110,98.93Z"/><path class="cls-86" d="M103.79,93.81s4.23,3.11.68,7.24C104.47,101.05,99.13,99.09,103.79,93.81Z"/><path class="cls-95" d="M103.78,101.82l29.33-9.17s-.07-1.34-2.65-1c-3.76.51-26.2,8.78-26.2,8.78s-2.35-3.39,0-6.32l25.43-7.56s3.69-1,3.17-2.35l-30.89,8.94S97.49,100.07,103.78,101.82Z"/><path class="cls-96" d="M104.14,94.23a12.45,12.45,0,0,0-1.26-1.36l29.94-8.67c.52,1.36-3.17,2.35-3.17,2.35l-25.43,7.56Z"/><path class="cls-97" d="M74,91.57l29.65,10.21a6.28,6.28,0,0,1-.86-8.07s-28.22-9.63-28.22-9.63A6,6,0,0,0,74,91.57Z"/><g class="cls-98"><path class="cls-9" d="M74.48,90.17v.1L73.74,90v-.1l.3-.08A25.31,25.31,0,0,1,74.9,86L75,86a49,49,0,0,0,1.45,4.78l.22.17v.11l-.49-.19a1.16,1.16,0,0,1-.62-.77c-.12-.35-.18-.53-.29-.88l-1-.35c-.07.38-.1.57-.16,1Zm-.13-1.41.89.32c-.24-.76-.36-1.13-.55-1.84C74.54,87.83,74.47,88.14,74.35,88.76Z"/><path class="cls-9" d="M78.15,90.76c-.11-1.05-1.6-1.67-1.69-3.2,0-.6.26-1,.92-.77a1.61,1.61,0,0,1,.66.64.55.55,0,0,1,.2-.28l.1,0c0,.48,0,.73.09,1.23l-.16-.06S78,87.16,77.46,87c-.19-.07-.36.15-.34.57.07,1.08,1.54,1.68,1.7,3.16.08.71-.21,1.19-1,.9a1.88,1.88,0,0,1-.8-.72.47.47,0,0,1-.18.29l-.1,0c-.07-.51-.09-.77-.15-1.27l.17.06s.32,1.24,1,1.48C78.05,91.53,78.21,91.26,78.15,90.76Z"/><path class="cls-9" d="M79.8,92.25v-.11H80c-.21-1.75-.31-2.63-.45-4.32l-.47-.17c.06.69-.18.92-.18.92l-.12,0c0-.48-.06-.71-.09-1.18l2.39.85c0,.48.07.72.12,1.21l-.13-.05a2.49,2.49,0,0,1-.37-1.13l-.47-.17c.15,1.7.25,2.58.46,4.34l.26.19,0,.11Z"/><path class="cls-9" d="M82.9,91.37l-.27-.09c.08.76.12,1.14.21,1.9l.31.21v.1L81.93,93l0-.1h.24c-.2-1.74-.3-2.61-.48-4.33l-.25-.19v-.1l1.1.4A2,2,0,0,1,84,90.51c.14,1.25-.87.88-.87.88a1.43,1.43,0,0,1,.76.87c.22.6.32.9.53,1.49l.22.18V94l-.58-.21a1.17,1.17,0,0,1-.57-.76C83.25,92.38,83.13,92.05,82.9,91.37Zm-.13-.2c.38.14.59-.18.51-.93s-.38-1.24-.75-1.37l-.17-.06c.09.91.14,1.37.25,2.3Z"/><path class="cls-9" d="M86.2,94.7c-.81-.3-1.45-1.37-1.63-3s.28-2.28,1.1-2,1.48,1.39,1.65,3S87,95,86.2,94.7Zm-.51-4.81c-.3-.11-.57.31-.38,2.11s.58,2.46.88,2.57.57-.31.39-2.11S86,90,85.69,89.89Z"/><path class="cls-9" d="M89.87,91.67l-.36-.33v-.1l.81.29v.11l-.32.08c.18,1.82.25,2.7.41,4.49l-.13,0c-.9-1.73-1.36-2.6-2.31-4.37.14,1.32.2,2,.33,3.27l.35.32v.1l-.8-.28v-.1l.32-.09c-.16-1.66-.24-2.5-.42-4.19l-.31-.24v-.1l.44.16a1.32,1.32,0,0,1,.65.69c.66,1.23,1,1.83,1.6,3C90,93.29,90,92.76,89.87,91.67Z"/><path class="cls-9" d="M92.4,96.92c-.82-.29-1.43-1.35-1.57-2.92s.33-2.26,1.16-2,1.47,1.38,1.59,2.94S93.22,97.21,92.4,96.92ZM92,92.18c-.3-.11-.59.32-.44,2.09s.52,2.41.82,2.52.59-.31.45-2.07S92.31,92.29,92,92.18Z"/><path class="cls-9" d="M97.6,94.13v.1h-.26c.11,1.68.13,2.5.28,4.23l.27.19v.11l-1.22-.43v-.1h.24c-.12-1.47-.15-2.18-.24-3.61-.31,1.4-.47,2.09-.73,3.52l-.13,0c-.65-1.75-.93-2.59-1.57-4.34.1,1.41.14,2.1.25,3.52l.36.32v.1l-.8-.28v-.1l.32-.09c-.13-1.66-.18-2.47-.31-4.15l-.27-.19v-.1l.54.19a1.12,1.12,0,0,1,.62.77c.46,1.24.67,1.85,1.12,3.08.2-1,.31-1.5.53-2.5.07-.33.17-.48.54-.36Z"/><path class="cls-9" d="M98,94.48l-.22-.18v-.1l.54.19a1.07,1.07,0,0,1,.61.76c.29.86.43,1.28.73,2.15.21-.8.32-1.19.54-2L99.9,95v-.1l.82.28v.1l-.33.08c-.26.9-.38,1.35-.61,2.27,0,.64.06,1,.13,1.62l.27.2v.1L99,99.14V99h.25c-.06-.63-.08-.93-.12-1.55C98.65,96.27,98.45,95.68,98,94.48Z"/></g><path class="cls-99" d="M74.18,84.59S96,92.15,102.41,94.41c.11-.23.24-.46.38-.7,0,0-28.22-9.63-28.22-9.63a5.49,5.49,0,0,0-.48.61Z"/><path class="cls-100" d="M101.84,96a87.67,87.67,0,0,1-12.61-2.36c-5.18-1.38-11.31-3.51-14.57-8a3,3,0,0,1-.49-1,5.92,5.92,0,0,0-.17,7l29.65,10.21A6.37,6.37,0,0,1,101.84,96Z"/><polygon class="cls-27" points="132.82 84.2 101.95 79.32 74.57 84.08 102.73 93.81 132.82 84.2"/><path class="cls-94" d="M105.27,91.05a3.64,3.64,0,0,1,.7-4.81,24.61,24.61,0,0,1,2.83-1.91l-.5,0c-1.38-.07-2.76-.08-4.15-.07a32.82,32.82,0,0,1-8.35-.69,49.09,49.09,0,0,1-6-2.1L77.7,83.54l-1.73,1,26.76,9.24s1.85-1.64,2.63-2.54A2,2,0,0,1,105.27,91.05Z"/><path class="cls-84" d="M79.67,76.44s3.3,4.35.14,6.86l26.11,8.09s3.88-1.84.57-6.77Z"/><path class="cls-85" d="M93.67,83a58.68,58.68,0,0,0-12.74-4,8.85,8.85,0,0,0-1.26-2.54l26.82,8.18c3.31,4.93-.57,6.77-.57,6.77l-5.5-1.7C99.59,86.38,97,84.39,93.67,83Z"/><path class="cls-86" d="M106.19,84.53s-3.76,3-.23,6.86C106,91.39,110.75,89.41,106.19,84.53Z"/><path class="cls-101" d="M106.75,92.22,77.89,83.63s-.33-1.7,2.35-1.31c3.86.55,26,8.6,26,8.6s1.83-3.21-.45-5.92L81.12,77.52s-3.35-.83-2.81-2.07L108,84.22S112.46,90.59,106.75,92.22Z"/><path class="cls-102" d="M131.76,83.66l-25,8.41a5.7,5.7,0,0,0,.39-7.46s23.55-7.7,23.55-7.7S133.53,80.19,131.76,83.66Z"/><path class="cls-103" d="M110.55,85.37c.77-.25,1.14.38,1.1,1.67s-.42,2.2-1.25,2.48-1.18-.33-1.14-1.6S109.75,85.63,110.55,85.37Zm.37,1.74c0-1.18,0-1.75-.4-1.61s-.48.76-.51,1.94v.41c0,1.09,0,1.69.42,1.55s.46-.72.49-1.87Z"/><path class="cls-103" d="M113.83,87l.07-2.54-.23.07v-.11l.51-.16v.11l-.19.06-.06,2.5c0,.87-.21,1.45-.92,1.69s-1,0-1-1.12l.07-2.47-.2.06V85l1.11-.36v.11l-.23.07-.07,2.65c0,.62.06,1.05.49.9S113.81,87.8,113.83,87Z"/><path class="cls-103" d="M116.39,84.92l-.07,0c-.16-.85-.25-1.19-.56-1.09l0,0-.09,3.66.29-.1v.12l-1.24.42v-.11l.29-.1.09-3.68h0c-.31.1-.44.56-.64,1.49l-.06,0,.07-1.42,2-.64Z"/><path class="cls-103" d="M118.33,82.92V84l-.06,0c-.16-.66-.31-.85-.71-.73l-.12,0,0,1.7.11,0c.22-.07.36-.42.43-.85l0,0,0,1.63-.06,0c-.06-.53-.18-.7-.41-.62l-.08,0,0,1.77.13,0a1.7,1.7,0,0,0,.83-1.35l.06,0,0,1.2-1.81.63v-.13l.2-.06.09-3.63-.2.06v-.12Z"/><path class="cls-103" d="M119.44,84.42l0,1.82.21-.07v.11l-1,.36v-.1l.21-.08.09-3.61-.21.07v-.1l1-.32c.67-.21,1-.2,1,.59s-.23.92-.57,1.08v0c.35,0,.46.14.44.77v.29c0,.35,0,.47.08.44s.11-.08.16-.52h0c-.06.63-.15.81-.45.92s-.51,0-.49-.82v-.39c0-.39,0-.57-.21-.51Zm0-.1.1,0c.24-.08.36-.35.38-.93V83.2c0-.6-.11-.66-.34-.59l-.1,0Z"/><path class="cls-103" d="M122.79,84.56c0-.44-.18-.52-.55-.58s-.66-.21-.64-1a1.48,1.48,0,0,1,.77-1.4c.29-.1.44,0,.55,0s.06-.06.09-.13h0v1.06l-.05,0c-.15-.44-.34-.9-.66-.8a.69.69,0,0,0-.4.66c0,.4.2.46.51.5s.72.13.69,1a1.58,1.58,0,0,1-.78,1.53,2.66,2.66,0,0,1-.65.06s-.07.08-.1.2h0V84.39l0,0c.15.48.43,1,.77.88A.71.71,0,0,0,122.79,84.56Z"/><path class="cls-103" d="M124.26,81c.57-.18.89-.07.87.76a1.36,1.36,0,0,1-1,1.45h0l0,1.42.38-.13v.1l-1.17.4v-.1l.2-.07.08-3.5-.2.06v-.1Zm-.15,2.11.06,0c.26-.08.33-.41.34-1v-.25c0-.6,0-.78-.28-.71l-.08,0Z"/><path class="cls-103" d="M126.24,82.76l-.58.2-.26,1.21.23-.08v.1l-.45.16v-.1l.14,0,.84-3.84.24-.07.66,3.31.13,0v.1l-1,.33v-.1l.21-.07Zm-.55.08.53-.18L126,81.38Z"/><path class="cls-103" d="M128,81.38v.41c0,.94.12,1.5.43,1.4s.43-.58.6-1.3H129L129,83h0c0-.06,0-.09-.08-.07a3.37,3.37,0,0,1-.57.35c-.61.21-1-.23-.94-1.47s.45-2,1-2.23c.3-.09.43,0,.53,0s.06,0,.08-.13h0v1.1l-.05,0c-.14-.58-.3-1-.55-.88S128,80.32,128,81.38Z"/><path class="cls-103" d="M130.77,78.9v1l-.05,0c-.14-.61-.27-.8-.6-.69l-.1,0,0,1.57.1,0c.18-.06.3-.38.36-.78h0l0,1.49-.05,0c-.06-.49-.16-.65-.35-.58L130,81l0,1.63.11,0c.35-.12.61-.65.7-1.22l.06,0,0,1.1-1.54.54v-.12l.16,0,.08-3.34-.17.06v-.12Z"/><g class="cls-104"><path class="cls-9" d="M107.46,85.09q-.13-.24-.3-.48s23.55-7.7,23.55-7.7a4.16,4.16,0,0,1,.33.36S110.78,84,107.46,85.09Z"/></g><path class="cls-105" d="M117.21,86.89c4.67-1.46,11.78-5.77,13.57-8.74a2.2,2.2,0,0,0,.3-.83,6.21,6.21,0,0,1,.68,6.34l-25,8.41a5.91,5.91,0,0,0,1.48-2.83A80.91,80.91,0,0,0,117.21,86.89Z"/><polygon class="cls-101" points="78.31 75.44 107.32 72.08 130.81 77.02 107.33 84.82 78.31 75.44"/><path class="cls-106" d="M125.37,78.68l-18.14,6L90.29,79.19C102,79,113.71,78.88,125.37,78.68Z"/><path class="cls-107" d="M61,113.55h0a1.34,1.34,0,0,0-.23-.16l0,0-.31-.2L33.55,118s-1.71,1-2.93,1.87l-1.54,1,.55.06h.21l.15,0h0l.16,0h0l.19,0H31c1,.09,2.22.16,3,.21h.67l.14,0,27-5.13S62.36,115.81,61,113.55Z"/><path class="cls-108" d="M33.89,116.79s-4.24,2.59-4.12,2.83,4.59.44,5.39.51l0,0a1.87,1.87,0,0,0-1-3.28Z"/><path class="cls-109" d="M32.78,119.27a22.06,22.06,0,0,1-2.5.49c1.23.18,4.24.32,4.88.37l0,0a1.85,1.85,0,0,0,.61-1.83A17.48,17.48,0,0,1,32.78,119.27Z"/><path class="cls-110" d="M31.35,119.18a1.39,1.39,0,0,0-.37-.53l-1.56,1s1.56.19,1.91.19A1.32,1.32,0,0,0,31.35,119.18Z"/><path class="cls-111" d="M31.35,119.15a2.52,2.52,0,0,1-.63.38,2.69,2.69,0,0,1-.75.21c.48.06,1.15.13,1.36.13a1.32,1.32,0,0,0,0-.69Z"/><path class="cls-79" d="M60.75,112l-26.86,4.83a3,3,0,0,1,1.27,3.34l26.5-5a2.59,2.59,0,0,0,.36-1.83C61.91,112.84,61.63,112.49,60.75,112Z"/><path class="cls-112" d="M34.76,117.64l26.92-5a3.8,3.8,0,0,0-.93-.71l-26.86,4.83a3.25,3.25,0,0,1,.87.84Z"/><path class="cls-112" d="M62.07,113.78l-26.78,5.3h0a3.42,3.42,0,0,1,0,.45.28.28,0,0,0,0,.09l0,.17c0,.11,0,.22-.07.33l26.5-5a3.85,3.85,0,0,0,.27-.57A2.49,2.49,0,0,0,62.07,113.78Z"/><path class="cls-113" d="M62.07,113.78h0a1.48,1.48,0,0,0,0-.21c-1.59.61-3.19,1.24-4.81,1.7-2.36.66-21.36,4.14-22.32,4.39a25.38,25.38,0,0,1-3,.26l2.44.16h.81l26.5-5a2.78,2.78,0,0,0,.32-.74v0A2.31,2.31,0,0,0,62.07,113.78Z"/><path class="cls-114" d="M140,100.73c-2.44-.9-5-1.83-7.84-2.76a8.66,8.66,0,0,1,1.18-3.59c1.16-.43,2.88-1.26,2.5-2.26l-6.18-1a6.34,6.34,0,0,1,.89-4.89c1.06-.39,2.62-1.14,2.27-2L131,83.91l.76-.25a6.11,6.11,0,0,0-.68-6.34s0,.05,0,.07a1,1,0,0,0-.08-.11h0a4.16,4.16,0,0,0-.33-.36l-.17,0-2.93-.62c4.7-8.86,5.88-19.16,4.46-29-1.53-10.64-5.69-21.3-13.32-29.13a16.39,16.39,0,0,0-3.18-9.18h0a12.66,12.66,0,0,0-13.63-3.82l-2.33.4A75.63,75.63,0,0,0,53.45,2.07C38,5.85,24.31,15.35,17.18,29.63c-6.52,13.08-8.55,29.69-.48,42.55q-3.09,11.66-5.94,23.38A111.31,111.31,0,0,0,0,99.53c3.21,3.84,10,8.21,18.69,12.25l-.7.29,2.25.62-2.88,1.2,14.72,4c-.38.24-.76.49-1.1.73h0l-1.56,1,.55.06h0l.72.08-1.61,1.07a17.1,17.1,0,0,0,1.88.19c1.28.11,2.57.15,3.86.27l5.75-1.1L76.15,130l.13,0s13.93-2.38,17.21-3.38l.15,0,7.73-5.52C128.38,113.75,140,100.73,140,100.73Z"/></g></g></g></svg>