<svg xmlns="http://www.w3.org/2000/svg" xmlns:xlink="http://www.w3.org/1999/xlink" viewBox="0 0 140 130"><defs><style>.cls-1{isolation:isolate;}.cls-2{fill:url(#linear-gradient);}.cls-3{fill:url(#linear-gradient-2);}.cls-4{fill:url(#linear-gradient-3);}.cls-5{fill:url(#linear-gradient-4);}.cls-15,.cls-45,.cls-6,.cls-65{opacity:0.65;}.cls-13,.cls-35,.cls-36,.cls-42,.cls-58,.cls-6,.cls-64,.cls-71{mix-blend-mode:screen;}.cls-6{fill:url(#linear-gradient-5);}.cls-7{fill:#699cb9;}.cls-8{fill:#bdbdb9;}.cls-10,.cls-100,.cls-102,.cls-105,.cls-15,.cls-17,.cls-18,.cls-37,.cls-38,.cls-39,.cls-40,.cls-45,.cls-48,.cls-50,.cls-53,.cls-62,.cls-65,.cls-8,.cls-96,.cls-97,.cls-98{mix-blend-mode:multiply;}.cls-10,.cls-9{fill:#f9f6ef;}.cls-11{fill:#f2e7cc;}.cls-12,.cls-13{fill:#666464;}.cls-13,.cls-17,.cls-35,.cls-36,.cls-42,.cls-48,.cls-64,.cls-97{opacity:0.55;}.cls-14,.cls-15,.cls-17,.cls-18{fill:#3f3c3c;}.cls-16{fill:#343131;}.cls-19{fill:url(#radial-gradient);}.cls-20{fill:url(#linear-gradient-6);}.cls-21{fill:url(#linear-gradient-7);}.cls-22{fill:url(#linear-gradient-8);}.cls-23{fill:url(#linear-gradient-9);}.cls-24{fill:url(#linear-gradient-10);}.cls-25{fill:url(#linear-gradient-11);}.cls-26{fill:url(#linear-gradient-12);}.cls-27{fill:url(#linear-gradient-13);}.cls-28{fill:url(#linear-gradient-14);}.cls-29{fill:url(#linear-gradient-15);}.cls-30{fill:url(#linear-gradient-16);}.cls-31{fill:url(#linear-gradient-17);}.cls-32{fill:url(#linear-gradient-18);}.cls-33{fill:url(#linear-gradient-19);}.cls-34{fill:url(#linear-gradient-20);}.cls-35{fill:#80bfea;}.cls-36{fill:#cce5f6;}.cls-37,.cls-38,.cls-39,.cls-40,.cls-53,.cls-58,.cls-71{opacity:0.35;}.cls-37{fill:url(#radial-gradient-2);}.cls-38{fill:url(#radial-gradient-3);}.cls-39{fill:url(#radial-gradient-4);}.cls-40{fill:url(#radial-gradient-5);}.cls-41{fill:#9f9f9a;}.cls-42{fill:#b7b7b3;}.cls-43,.cls-45{fill:#2c2b29;}.cls-44{fill:#575654;}.cls-46,.cls-53{fill:#504e4e;}.cls-47,.cls-48{fill:#7f7d7d;}.cls-49{fill:#e4e8e9;}.cls-50{fill:#565553;opacity:0.32;}.cls-51{fill:#615f5f;}.cls-52{fill:#4d4b4b;}.cls-54{fill:#484646;}.cls-55{fill:#343232;}.cls-56{fill:#777575;}.cls-57,.cls-58{fill:#2ee28b;}.cls-59{fill:#312e2e;}.cls-60{fill:#868482;}.cls-61,.cls-62{fill:#9b9a98;}.cls-62{opacity:0.5;}.cls-63,.cls-64,.cls-65{fill:#c0bfbe;}.cls-66{fill:#8d8c89;}.cls-67{fill:#f9f7f0;}.cls-68,.cls-71{fill:#e6e8e8;}.cls-69{fill:#777;}.cls-70{fill:url(#linear-gradient-21);}.cls-72{fill:#fff;}.cls-73{fill:url(#radial-gradient-6);}.cls-74{fill:url(#radial-gradient-7);}.cls-75{fill:url(#radial-gradient-8);}.cls-76{fill:url(#linear-gradient-22);}.cls-77{fill:url(#radial-gradient-9);}.cls-78{fill:url(#linear-gradient-23);}.cls-79{fill:url(#radial-gradient-10);}.cls-80{fill:url(#linear-gradient-24);}.cls-81{fill:url(#radial-gradient-11);}.cls-82{fill:url(#linear-gradient-25);}.cls-83{fill:url(#radial-gradient-12);}.cls-84{fill:url(#linear-gradient-26);}.cls-85{fill:url(#radial-gradient-13);}.cls-86{fill:url(#linear-gradient-27);}.cls-87{fill:url(#linear-gradient-28);}.cls-88{fill:url(#radial-gradient-14);}.cls-89{fill:url(#linear-gradient-29);}.cls-90{fill:url(#radial-gradient-15);}.cls-91{fill:url(#linear-gradient-30);}.cls-92{fill:#f17f21;}.cls-93{fill:#d82831;}.cls-94{fill:#ffb148;}.cls-95{fill:#ffda50;}.cls-96{fill:#cc9550;}.cls-97{fill:url(#linear-gradient-31);}.cls-98{fill:#bec4ba;}.cls-99{fill:#faf3e9;}.cls-100{fill:#e2e2c9;}.cls-101{fill:#b3b3b3;}.cls-102{fill:#a4a4a4;}.cls-103{fill:#ffdf4d;}.cls-104{fill:#ffab28;}.cls-105{fill:#edd19c;}.cls-106{mix-blend-mode:overlay;fill:url(#radial-gradient-16);}</style><linearGradient id="linear-gradient" x1="60.42" y1="86.41" x2="94.69" y2="-21.08" gradientUnits="userSpaceOnUse"><stop offset="0.13" stop-color="#9fdeef"/><stop offset="1" stop-color="#def5fd"/></linearGradient><linearGradient id="linear-gradient-2" x1="70.17" y1="27.44" x2="69.91" y2="57.45" gradientUnits="userSpaceOnUse"><stop offset="0.1" stop-color="#99a29d"/><stop offset="1" stop-color="#aeb5b1"/></linearGradient><linearGradient id="linear-gradient-3" x1="69.67" y1="36.75" x2="69.93" y2="76.93" gradientUnits="userSpaceOnUse"><stop offset="0.06" stop-color="#859491"/><stop offset="1" stop-color="#a6b1af"/></linearGradient><linearGradient id="linear-gradient-4" x1="70.43" y1="54.99" x2="70.43" y2="99.86" gradientUnits="userSpaceOnUse"><stop offset="0.26" stop-color="#607e88"/><stop offset="1" stop-color="#859ca4"/></linearGradient><linearGradient id="linear-gradient-5" x1="68.01" y1="30.3" x2="73.88" y2="112.09" gradientUnits="userSpaceOnUse"><stop offset="0.3" stop-color="#385d6a"/><stop offset="1" stop-color="#859ca4"/></linearGradient><radialGradient id="radial-gradient" cx="62.91" cy="40.31" r="36.91" gradientTransform="translate(-0.23 -2.81) scale(1 1.04)" gradientUnits="userSpaceOnUse"><stop offset="0" stop-color="#45a1e0"/><stop offset="0.92" stop-color="#0983d6"/></radialGradient><linearGradient id="linear-gradient-6" x1="57.78" y1="25.86" x2="80.99" y2="4.19" gradientUnits="userSpaceOnUse"><stop offset="0.05" stop-color="#7ce2c2"/><stop offset="1" stop-color="#5cdbb3"/></linearGradient><linearGradient id="linear-gradient-7" x1="65.43" y1="34.69" x2="88.45" y2="13.21" xlink:href="#linear-gradient-6"/><linearGradient id="linear-gradient-8" x1="65.77" y1="35.02" x2="88.83" y2="13.5" xlink:href="#linear-gradient-6"/><linearGradient id="linear-gradient-9" x1="89.41" y1="61.57" x2="112.29" y2="40.21" xlink:href="#linear-gradient-6"/><linearGradient id="linear-gradient-10" x1="91.99" y1="64.29" x2="115.05" y2="42.76" xlink:href="#linear-gradient-6"/><linearGradient id="linear-gradient-11" x1="90.84" y1="62.89" x2="114.2" y2="41.09" xlink:href="#linear-gradient-6"/><linearGradient id="linear-gradient-12" x1="85.98" y1="57.63" x2="108.98" y2="36.17" xlink:href="#linear-gradient-6"/><linearGradient id="linear-gradient-13" x1="82.36" y1="53.27" x2="105.81" y2="31.38" xlink:href="#linear-gradient-6"/><linearGradient id="linear-gradient-14" x1="84.38" y1="55.85" x2="107.7" y2="34.08" xlink:href="#linear-gradient-6"/><linearGradient id="linear-gradient-15" x1="85.61" y1="57.21" x2="108.92" y2="35.46" xlink:href="#linear-gradient-6"/><linearGradient id="linear-gradient-16" x1="84.21" y1="55.66" x2="107.52" y2="33.9" xlink:href="#linear-gradient-6"/><linearGradient id="linear-gradient-17" x1="60.58" y1="29.25" x2="83.68" y2="7.69" xlink:href="#linear-gradient-6"/><linearGradient id="linear-gradient-18" x1="68.64" y1="36.5" x2="89.99" y2="16.58" xlink:href="#linear-gradient-6"/><linearGradient id="linear-gradient-19" x1="69.13" y1="38.99" x2="92.18" y2="17.48" xlink:href="#linear-gradient-6"/><linearGradient id="linear-gradient-20" x1="54.98" y1="23.1" x2="77.93" y2="1.68" xlink:href="#linear-gradient-6"/><radialGradient id="radial-gradient-2" cx="62.62" cy="46.72" r="39.36" gradientTransform="translate(-0.23 -2.81) scale(1 1.04)" gradientUnits="userSpaceOnUse"><stop offset="0" stop-color="#81a6b5"/><stop offset="0.09" stop-color="#769db2"/><stop offset="0.71" stop-color="#2e66a2"/><stop offset="1" stop-color="#12509b"/></radialGradient><radialGradient id="radial-gradient-3" cx="69.87" cy="50.67" r="61.15" xlink:href="#radial-gradient-2"/><radialGradient id="radial-gradient-4" cx="43.44" cy="27.19" r="203.78" xlink:href="#radial-gradient-2"/><radialGradient id="radial-gradient-5" cx="56.46" cy="31.82" r="146.95" xlink:href="#radial-gradient-2"/><linearGradient id="linear-gradient-21" x1="60.52" y1="105.76" x2="114.38" y2="63.09" gradientUnits="userSpaceOnUse"><stop offset="0.05" stop-color="#3f3c3c"/><stop offset="1" stop-color="#336d9d"/></linearGradient><radialGradient id="radial-gradient-6" cx="87.22" cy="90.63" r="13.61" gradientTransform="matrix(0.98, -0.22, 0.22, 1.07, -16.56, -1.48)" xlink:href="#radial-gradient"/><radialGradient id="radial-gradient-7" cx="87.22" cy="90.63" r="13.61" gradientTransform="matrix(0.98, -0.22, 0.22, 1.07, -16.56, -1.48)" xlink:href="#radial-gradient"/><radialGradient id="radial-gradient-8" cx="87.22" cy="90.63" r="13.61" gradientTransform="matrix(0.98, -0.22, 0.22, 1.07, -16.56, -1.48)" xlink:href="#radial-gradient"/><linearGradient id="linear-gradient-22" x1="84.63" y1="96.68" x2="93.66" y2="88.26" gradientTransform="translate(-15.73 5.41) rotate(-11.92)" xlink:href="#linear-gradient-6"/><radialGradient id="radial-gradient-9" cx="87.23" cy="90.64" r="13.6" gradientTransform="matrix(0.98, -0.22, 0.22, 1.07, -16.56, -1.48)" xlink:href="#radial-gradient"/><linearGradient id="linear-gradient-23" x1="84.57" y1="96.61" x2="93.58" y2="88.19" gradientTransform="translate(-15.73 5.41) rotate(-11.92)" xlink:href="#linear-gradient-6"/><radialGradient id="radial-gradient-10" cx="87.22" cy="90.63" r="13.61" gradientTransform="matrix(0.98, -0.22, 0.22, 1.07, -16.56, -1.48)" xlink:href="#radial-gradient"/><linearGradient id="linear-gradient-24" x1="86.54" y1="99.03" x2="95.15" y2="90.99" gradientTransform="translate(-15.73 5.41) rotate(-11.92)" xlink:href="#linear-gradient-6"/><radialGradient id="radial-gradient-11" cx="87.22" cy="90.63" r="13.6" gradientTransform="matrix(0.98, -0.22, 0.22, 1.07, -16.56, -1.48)" xlink:href="#radial-gradient"/><linearGradient id="linear-gradient-25" x1="87.47" y1="99.96" x2="96.28" y2="91.75" gradientTransform="translate(-15.73 5.41) rotate(-11.92)" xlink:href="#linear-gradient-6"/><radialGradient id="radial-gradient-12" cx="87.22" cy="90.63" r="13.61" gradientTransform="matrix(0.98, -0.22, 0.22, 1.07, -16.56, -1.48)" xlink:href="#radial-gradient"/><linearGradient id="linear-gradient-26" x1="87.08" y1="99.4" x2="96.14" y2="90.95" gradientTransform="translate(-15.73 5.41) rotate(-11.92)" xlink:href="#linear-gradient-6"/><radialGradient id="radial-gradient-13" cx="87.22" cy="90.63" r="13.61" gradientTransform="matrix(0.98, -0.22, 0.22, 1.07, -16.56, -1.48)" xlink:href="#radial-gradient"/><linearGradient id="linear-gradient-27" x1="85.27" y1="97.42" x2="94.03" y2="89.25" gradientTransform="translate(-15.73 5.41) rotate(-11.92)" xlink:href="#linear-gradient-6"/><linearGradient id="linear-gradient-28" x1="84.04" y1="95.69" x2="93.18" y2="87.16" gradientTransform="translate(-15.73 5.41) rotate(-11.92)" xlink:href="#linear-gradient-6"/><radialGradient id="radial-gradient-14" cx="87.22" cy="90.63" r="13.61" gradientTransform="matrix(0.98, -0.22, 0.22, 1.07, -16.56, -1.48)" xlink:href="#radial-gradient"/><linearGradient id="linear-gradient-29" x1="85.1" y1="97.21" x2="94.11" y2="88.8" gradientTransform="translate(-15.73 5.41) rotate(-11.92)" xlink:href="#linear-gradient-6"/><radialGradient id="radial-gradient-15" cx="87.22" cy="90.63" r="13.61" gradientTransform="matrix(0.98, -0.22, 0.22, 1.07, -16.56, -1.48)" xlink:href="#radial-gradient"/><linearGradient id="linear-gradient-30" x1="80.86" y1="92.18" x2="89.66" y2="83.96" gradientTransform="translate(-15.73 5.41) rotate(-11.92)" xlink:href="#linear-gradient-6"/><linearGradient id="linear-gradient-31" x1="96.96" y1="94.8" x2="93.56" y2="121.36" gradientUnits="userSpaceOnUse"><stop offset="0.06" stop-color="#b8e2ee"/><stop offset="1" stop-color="#3fb1d1"/></linearGradient><radialGradient id="radial-gradient-16" cx="70" cy="65" r="66.14" gradientTransform="translate(-0.23 -2.81) scale(1 1.04)" gradientUnits="userSpaceOnUse"><stop offset="0" stop-color="#dcc086"/><stop offset="1" stop-color="#8e664d"/></radialGradient></defs><g class="cls-1"><g id="Layer_2" data-name="Layer 2"><g id="Layer_2-2" data-name="Layer 2"><path class="cls-2" d="M68.7,109.71c-16.14.16-24.84-2.76-38.05-12.4C15.73,86.44,2.27,68.34,9.76,39.86,23.52-12.43,105.12-12.1,127,34,140,61.12,126.64,97.4,106,104,95,107.57,86.84,109.54,68.7,109.71Z"/><path class="cls-3" d="M115.94,39.4c-6.86,2.89-12.4-9.33-13.25-9.92s-8.75,5.68-13,7.83S80,27.72,77.15,31.63s-6,13.11-15.15,11-3.06-12.72-9.26-8.8-15,8.67-19.59,8.67-7.9-5.48-8.4-5.15-2.7,7.5-5.84,7.5-1.75-6.52-4.39-4.31a20.66,20.66,0,0,1-5.59,2.9,60.25,60.25,0,0,0-1.19,8.66C22.83,74.17,119.49,74.71,129.89,73.12l.26-.05a62.32,62.32,0,0,0,1.7-21.38c-.3-.07-.61-.14-.93-.19C117.65,49.25,122.34,36.71,115.94,39.4Z"/><path class="cls-4" d="M132,61.35c-4.95-.36-2.48-12.39-6.89-8.52-4.83,4.24-2.32-2.54-5.4-3.78s-5.52,11.74-7,1.11-3.2-8.16-9-4.44-1.94-7-5.77-7S96.45,50.29,85.53,47.4,76.25,43,65,50.94s-9.16-.65-17.82-4.62-6.9,8.47-15,3.9-7.28-5.61-10.85-.54-1.64-4.35-6.21-1.15-3.83.06-5.34-1.13c-.34-.27-.9-.17-1.55.15C6.14,62.09,9.82,73.61,16,82.63,39.13,86.3,95,90,122.16,91A59.72,59.72,0,0,0,132,61.35Z"/><path class="cls-5" d="M131.56,65.87c-3.19,1.62-4.57,5.89-5.88-.51-1.63-8-1.38-4.37-5.64-1.46s-1.38-8.26-7.4-4-4,16.31-9.16,6.66-8.66-14.09-9.54-7.88-16.06,8.14-29.11,6.44-9.53-8.22-17.69-2.35-13.67,4-17.19,2.52-.5-8.78-6-3-3-7.3-5.52-2.48c-1.36,2.62-5.55,6-9.1,8.49,3.54,12.89,12.16,22.32,21.34,29,13.21,9.64,21.91,12.56,38.05,12.4C86.84,109.54,95,107.57,106,104,119,99.85,129.1,83.89,131.56,65.87Z"/><path class="cls-6" d="M131.61,65.43c.08-.63.16-1.26.22-1.9l0-.29c0-.6.1-1.21.14-1.81a.19.19,0,0,1,0-.08h0a60,60,0,0,0-.16-9.66c-.3-.07-.61-.14-.93-.19-13.27-2.25-7.48-14.51-15-12.1-7.07,2.27-12.4-9.33-13.25-9.92s-8.75,5.68-13,7.83S80,27.72,77.15,31.63s-6,13.11-15.15,11-3.06-12.72-9.26-8.8-15,8.67-19.59,8.67-7.9-5.48-8.4-5.15-2.7,7.5-5.84,7.5-1.75-6.52-4.39-4.31a20.66,20.66,0,0,1-5.59,2.9c-.3,1.41-.54,2.79-.73,4.14h0c0,.09,0,.17,0,.26v.08c-.09.66-.17,1.32-.23,2a.37.37,0,0,0,0,.11c0,.28-.06.56-.08.84l0,.32L7.74,52v.11h0A48.46,48.46,0,0,0,10,70.66v0c.12.36.25.72.38,1.08l0,.1c.12.35.25.69.38,1l0,.1c.14.35.28.69.43,1l0,0A48,48,0,0,0,14,79.38l0,0c.19.31.37.63.56.93l.06.11.55.86.07.12.56.84.07.1.17.25h0A61.76,61.76,0,0,0,30.65,97.31c13.21,9.64,21.91,12.56,38.05,12.4C86.84,109.54,95,107.57,106,104c6.23-2,11.79-6.71,16.16-13h0l.14-.22c.25-.36.5-.73.74-1.11.08-.13.16-.26.25-.39l.7-1.16.21-.35c.29-.5.57-1,.85-1.52h0c.28-.53.56-1.08.83-1.62.06-.11.11-.22.16-.33.21-.43.41-.85.6-1.29l.24-.52c.17-.38.33-.76.49-1.15.08-.19.16-.37.23-.56.17-.4.32-.8.48-1.21l.19-.51c.21-.55.4-1.12.6-1.68v0c.2-.58.38-1.17.56-1.76.06-.19.11-.37.16-.56.12-.41.24-.82.35-1.24.06-.22.12-.44.17-.66v0h0c0-.14.07-.29.1-.43s.05-.19.07-.29c.07-.26.13-.53.19-.8l0-.13.09-.4a1.74,1.74,0,0,0,.05-.22c.09-.39.17-.78.25-1.17l0-.17c.12-.61.23-1.22.33-1.84l0-.09c0-.06,0-.11,0-.16.07-.44.14-.89.2-1.33l0-.17h0c0-.1,0-.2,0-.3A.78.78,0,0,0,131.61,65.43Z"/><path class="cls-7" d="M0,103.91S26.17,88,72.49,88.19c37,.16,67.51,18.32,67.51,18.32s-16.67,18.12-62.2,22.88C50,132.3,10.3,116.91,0,103.91Z"/><path class="cls-8" d="M61,129.84l1.49-.2,1.45-.19,1.1-.14,2.76-.37.2,0,1.22-.16,2.26-.3.43-.06.85-.11.74-.1,1.1-.15.9-.12,23.34-18.65-55-14.48L5.75,105.08,59.83,130h.08l.26,0Z"/><polygon class="cls-9" points="6.24 103.25 44.38 92.95 99.34 107.43 76 126.09 60.32 128.17 6.24 103.25"/><path class="cls-10" d="M62.48,114c-1.92,0-3.85-.17-5.77-.06a98.76,98.76,0,0,0-15.9,2.62c-1.22.28-2.49.59-3.78.87L51.22,124c3.41-2.24,7.09-5.61,11.06-6.54A4.47,4.47,0,0,1,62.48,114Z"/><path class="cls-10" d="M87.14,113.11a26.26,26.26,0,0,1-8.73-2.29.05.05,0,0,0,0,0c-.19.24-.38.5-.56.75l-.18.27c-1.24,1.91-2.27,4.06-4.18,5.36a13.13,13.13,0,0,1-1.54.87l1.55.62c1.12.47,2.23,1,3.32,1.5a17.26,17.26,0,0,1,3.63,2.32l11.82-9.46A41.5,41.5,0,0,1,87.14,113.11Z"/><path class="cls-11" d="M70.14,119.2s-6.56,7-9.82,9L76,126.09S70.81,120.77,70.14,119.2Z"/><path class="cls-8" d="M78.77,105.79c0,2.71-6.94,4.9-15.51,4.9s-17-2.33-16.17-4.9c1-3.25,7.61-4.91,16.17-4.91S78.77,103.08,78.77,105.79Z"/><path class="cls-12" d="M51.16,103.3a22.2,22.2,0,0,1,12-3.83,27.86,27.86,0,0,1,12.3,3.5s-3.66,4.25-11.7,4.11S51.16,103.3,51.16,103.3Z"/><path class="cls-13" d="M66.44,102.26a20.84,20.84,0,0,0-4-.47,19.44,19.44,0,0,0-9.28,2.51A21.13,21.13,0,0,0,63.51,107a17.73,17.73,0,0,0,4.85-.57C67.71,105.06,67,103.68,66.44,102.26Z"/><path class="cls-14" d="M51.16,103.3l-.82,2.22a24.87,24.87,0,0,0,25.6,0l-.5-2.55s-8.16,4.37-13,3.79S51.16,103.3,51.16,103.3Z"/><path class="cls-15" d="M75.44,103s-6.43,3.44-11.29,3.81a9,9,0,0,1-1.4,2.3,24.91,24.91,0,0,0,13.19-3.56Z"/><path class="cls-14" d="M61.45,94.25l-2.83,7.94a7.41,7.41,0,0,0,8.72,0l-1.85-7.67A11.67,11.67,0,0,1,61.45,94.25Z"/><path class="cls-16" d="M63.71,96c0,.38.11.76.16,1.13a41.85,41.85,0,0,1,.14,6.43,8,8,0,0,0,3.33-1.34l-1.59-6.6A6.64,6.64,0,0,1,63.71,96Z"/><path class="cls-15" d="M62.85,99.81c1.73,0,3.34-.59,3.54-1.58l-.9-3.71a11.67,11.67,0,0,1-4-.27l-1.59,4.47A5.6,5.6,0,0,0,62.85,99.81Z"/><path class="cls-14" d="M57.44,93.66s.2,1,.23,1.22S59.72,97,63.3,97a8.05,8.05,0,0,0,5.57-2.1l.27-1.26Z"/><path class="cls-17" d="M64.78,93.66A8.63,8.63,0,0,1,63.59,97a8,8,0,0,0,5.28-2.09l.27-1.26Z"/><path class="cls-12" d="M62.47,91.39s-4.2.62-4.92,1.83,2.33,2.85,5.9,2.8,6.07-2,5.65-2.57A8.62,8.62,0,0,0,62.47,91.39Z"/><path class="cls-13" d="M64.84,93.22a5.85,5.85,0,0,0-2.73-.15s-3,.47-4.18,1.4A8.82,8.82,0,0,0,63.45,96a9.66,9.66,0,0,0,2.45-.34C65.52,94.87,65.18,94.05,64.84,93.22Z"/><path class="cls-14" d="M58,84.77l3.44,8.48a3,3,0,0,0,3.6,0s2.48-6.21,3.27-7.92C68.32,85.33,61.88,86.32,58,84.77Z"/><path class="cls-15" d="M58,84.77l1.6,3.93a15.93,15.93,0,0,0,3.68.51,15.77,15.77,0,0,0,3.84-1.09c.48-1.16.93-2.23,1.19-2.79C68.32,85.33,61.88,86.32,58,84.77Z"/><path class="cls-14" d="M75.44,16.64l-3.7-1.27-2.83,9L73.34,26,74.68,20c4.91,1.93,28.13,12.72,20.45,42.2C89.69,83.14,72.19,83.15,53.62,81L55,75l-3.71-1.57L48.13,83.77c17.38,4.6,45.75,6.74,52.65-21.57C109.3,27.24,75.44,16.64,75.44,16.64Z"/><path class="cls-18" d="M76.78,20.92C84.13,24.4,102,35.82,95.13,62.2,89.69,83.14,72.19,83.15,53.62,81L55,75l-2-.85-2.22,7.32c15.78,4.18,41.54,6.12,47.81-19.58C105.36,33.94,82.44,23.13,76.78,20.92Z"/><polygon class="cls-18" points="73.33 25.95 74.64 20.16 72.18 19.31 70.43 24.88 73.33 25.95"/><path class="cls-19" d="M92.88,50.35C91.5,70.81,78.82,80,61.45,80S30,66,30,50.35s9.46-29.63,32.79-29.63C80.14,20.72,94,33.91,92.88,50.35Z"/><path class="cls-20" d="M34.39,42.34c-.42,1.87-.4,3.32-1.33,5.14A7.93,7.93,0,0,0,31.83,52c0,2.6-.76,10.4,3.66,9.19,3.66-1,1.66-6,4.25-8.19,1.23-1,2.83-.63,3.58-2.29.69-1.5-.21-3.13,1-4.52,2.15-2.48,6.61-1.44,8.21-4.42-2.62-1.6-5.57-3-4.1-7,.55-1.53,2.3-2.77,2.29-4.57,0-2.39-1.66-.69-3.16-1.9-1.25-1,0-2.9-1.13-3.76a1.87,1.87,0,0,0-1.72,0A25.57,25.57,0,0,0,33.84,34.7C37.87,34.15,34.74,40.78,34.39,42.34Z"/><path class="cls-21" d="M45.37,53.38l.27-.1a2.12,2.12,0,0,0,.46-.67Z"/><path class="cls-22" d="M45.64,53.28c-.93.91-2.22,0-3.2.85-.39.35-.93,3.81-.55,4.39,1.3,2,4.31-3.81,4.36-5.11A.57.57,0,0,0,45.64,53.28Z"/><path class="cls-23" d="M81.45,70.22l1.4-.42c-2.27-.24-2.91,1.12-4.76,1.94-1.65.73-3.68.23-5.4,1-2.67,1.23-7,6.21-1.25,5,.71-.15,1.6-.73,2.26-.31a.72.72,0,0,1,.26.29,29.06,29.06,0,0,0,9.35-5.55A2,2,0,0,0,81.45,70.22Z"/><path class="cls-24" d="M85.66,70.29a1.83,1.83,0,0,0,1-1.2c-.31.41-.62.8-1,1.18Z"/><path class="cls-25" d="M85.27,65.55c-1,1.46.45,3.07.39,4.72.33-.38.64-.77,1-1.18C87.12,67.58,86.73,65.28,85.27,65.55Z"/><path class="cls-26" d="M82.15,60.8c-1,.84-2.5.35-3.47,1.19a1.77,1.77,0,0,0,.54,3c2.1.88,2-1.27,2.61-2.49.25-.53,1.29-1.09,1.25-1.71C83,59.77,82.58,60.44,82.15,60.8Z"/><path class="cls-27" d="M73,58.33c.2.27.33-.51.53-.39-.53,1.18.39,2.53.38,3.81,0,.69-.5,4.28,1.14,1.9C75.9,62.45,74.65,56,73,58.33Z"/><path class="cls-28" d="M84.35,56.23l.15-.78-.12,0A3,3,0,0,0,84.35,56.23Z"/><path class="cls-29" d="M85.79,55.31a1.92,1.92,0,0,0-1.25.12c.15,2.37-1.56,3.21,0,5.53a4.16,4.16,0,0,0,.88-2.64c0-.31-.17-1-.15-1.32C85.34,56.39,85.92,56.09,85.79,55.31Z"/><path class="cls-30" d="M84.5,55.45l0,0a.76.76,0,0,0,0-.15Z"/><path class="cls-31" d="M58,36.78c-.66-1-.74-.77-.93-2.05-.21-1.48.29-2.8-.5-4a4.45,4.45,0,0,0-1.71-1.47h0a1.28,1.28,0,0,0-1.2,0c-1.13,0-2.33.09-2.86,1.17-.44.9-.23,3.22-.45,4.38-.87,4.55,1.9,4.56,5.44,4.56,1.23,0,3.46.63,3.31-1.15C59.05,37.56,58.29,37.21,58,36.78Z"/><path class="cls-32" d="M79,25q1.23.72,2.37,1.53A6.18,6.18,0,0,0,79,25Z"/><path class="cls-33" d="M76.89,25.45c-2.1,1.81.51,2.32.15,3.76-.2.85-1.25.64-1.85.77.13,0-2.29.3-2,.43a.15.15,0,0,1-.19.11c-.14-1.79-1.79-3.53-3.47-2.29-1.57-1.7,1-3,1.21-4.7-.94,0-2.08-.23-2.85.39-1,.82-.52,1.81-1.84,2.21-.18.05-.89-.54-1.32-.36-.66.27-.68,1-1.06,1.54a15.73,15.73,0,0,1-1.87,2.85c-.84.77-1.34,1.51-1.87,0s1.09-1.56,1.32-2.86c.33-1.83-3.43-2.75-3.14.17-1.35.11-2.39-1.31-4-1.11-2.15.26-1.48.89.37,1.52,3.7,1.25,3.37,2.85,4.25,6.23,1,3.73,4.79,2,4.9,5.76.06,1.88.6,2.36,1.24,4,.69,1.8.06,2.51-.33,4.18-.28,1.16-1,3.19.37,3.43,1.45-.76,2.53-1,3.3-2.66.37-.84-.16-1.19.73-1.77.74-.48,1.66.13,2.38.07,1.33-.13,2.57-1.35,3.84-.4,1.75,1.3.28,2.87.55,4.38s2.24,1.84,2.62,3.19-2,2.11-1.71,3.47c.64,2.76,1.74-1.32,2-1.57.46-.42,1.55,0,1.89-.47s.19-1.79.14-2.33c-.14-1.52-.94-2.49.91-3.05,1.31-.4,3,1.05,4.21.39,1.94-1-.29-1.78-.52-2.9-.28-1.42,1.31-2.45.72-4,2.06-1.2,2,2.33,2,3.6,1.9,0,.11-3-.07-3.93-.32-1.64.57-2.8.37-4.42-.38-3-1.94-7.35-4-9.36-.77-.76-1.83-2.13-3-3.22Q80.2,25.71,79,25A2.15,2.15,0,0,0,76.89,25.45Z"/><path class="cls-34" d="M52.83,22.59c.54,1-.92,2.42.41,2.82.79.23.87-.76,1.47-.92a5.47,5.47,0,0,1,1.46-.08c1,0,1.91.75,2.58-.52-.16-.1-.28-.3-.54-.42.08-.87.51-1.16,0-1.87a4.84,4.84,0,0,0-.56-.63,41.44,41.44,0,0,0-6.28,1.08C51.92,22,52.46,21.91,52.83,22.59Z"/><path class="cls-35" d="M82.17,43.54c-4,9.11-11.35,11-19.3,7.88s-12.09-12-9.49-19.19,9.25-11.86,19.93-7.66C81.26,27.69,85.41,36.21,82.17,43.54Z"/><path class="cls-36" d="M75.47,36.53c-1.43,3.09-4.38,3.57-7.72,2.26s-5.25-4.56-4.36-7,3.5-3.92,8-2.16C74.7,30.93,76.61,34,75.47,36.53Z"/><path class="cls-37" d="M70.34,70.15c-17.37,0-31.49-14-31.49-29.59A31.78,31.78,0,0,1,42.17,26C33.67,31.42,30,40.56,30,50.35,30,66,44.08,80,61.45,80,73.8,80,83.76,75.33,89,65.32,83.89,68.59,77.52,70.15,70.34,70.15Z"/><path class="cls-38" d="M94.06,38c0,.09.08.17.11.26.15.35.29.7.43,1.06.07.19.15.38.22.58.16.44.3.89.44,1.35,0,.12.09.24.12.37.18.59.33,1.2.47,1.82,0,.13.06.28.09.42.1.48.2,1,.28,1.47,0,.23.07.46.1.69.06.43.12.85.16,1.29,0,.27,0,.54.07.81,0,.42.06.84.08,1.26s0,.59,0,.89,0,.85,0,1.29,0,.61,0,.93,0,.89-.08,1.35,0,.63-.07,1-.11,1-.17,1.45c0,.31-.08.62-.13.94-.08.55-.19,1.1-.29,1.66-.06.28-.1.55-.16.82q-.26,1.27-.6,2.58C90.77,79,78.69,82.31,64.53,81.88a45.92,45.92,0,0,1,.59,8A53.28,53.28,0,0,0,66,99.7c.43,2.56.7,5.43-.51,7.84a10,10,0,0,1-1,1.5l1-.08.34,0c.47,0,1-.12,1.44-.2l.14,0c.44-.08.89-.18,1.34-.28l.41-.11c.41-.1.82-.22,1.24-.35l.29-.09c.51-.17,1-.36,1.53-.56l.37-.16c.41-.17.82-.35,1.23-.55l.45-.22c.52-.26,1.05-.54,1.59-.85l-.5-2.55a29,29,0,0,0-8.66-3.13L66,96.67l0-.09h0a6.93,6.93,0,0,0,.73-.27l.09,0a7,7,0,0,0,.67-.34h0a6.81,6.81,0,0,0,1.37-1l.27-1.26h0a.3.3,0,0,0,0-.21,8.27,8.27,0,0,0-3.39-1.83l1.42-3.5c.23-.56.45-1.09.65-1.56l0,0c14.13-.06,28.36-5.36,33-24.31,2.52-10.33,1.33-18.54-1.59-25C97.48,37.41,95.77,37.66,94.06,38Z"/><path class="cls-39" d="M92.61,44.77c-.25.09-26.54,3.34-26.8,3.37-2.31.31-3.18.63-3.44,1.06-.13.22-.13.67-.25.89-.12,1.55.06,8.65-.2,10.16-.65,8.41-2.44,14.81-7.16,19,.33.07.67.15,1,.21l.19,0c.5.08,1,.16,1.52.22l.35,0c.47.06.94.1,1.42.13l.41,0c.59,0,1.19.06,1.79.06s1.37,0,2,0l.55,0h.14c1-.06,1.95-.15,2.93-.28h.1a34,34,0,0,0,9.71-2.75,32.2,32.2,0,0,0,.25-6.6A31.81,31.81,0,0,0,73,55.69C72.25,54.41,95.48,47,92.61,44.77Z"/><path class="cls-40" d="M72.23,81.66c-.34,0-.68.06-1,.09l-.34,0-1,.06h-.28c-1.64.08-3.32.09-5,0-.27,0-.54,0-.81,0a27.77,27.77,0,0,0,7.44.64,6.82,6.82,0,0,0,3.12-1.09c-.65.1-1.29.18-2,.25Z"/><path class="cls-8" d="M69.23,116.66l-1.79.3a6.43,6.43,0,0,0-.27-1.23l2-.32a1.12,1.12,0,0,0-.37-1.77c-.23-.15-1.44.38-1.71.45-.11,0-.47.21-.59.17a8.32,8.32,0,0,0-1.14-1.56c-.19-.21-.61-.82-.94-.77A20.65,20.65,0,0,0,57,114.35c-1.12.68-2.32,1.71-2.38,3.17-1.51,0-2.19.8-3.33,1.68s-2.72.74-4,1.16C45.32,121,41,116.84,46,117c2.4.08,4.88.71,6.92-.79a4.22,4.22,0,0,0,1.85-3.7,4.16,4.16,0,0,0-.21-1,3.48,3.48,0,0,0,.29-.69,2.18,2.18,0,0,0,0-1.36c-.71-1.92-3.55-2.53-5.24-2.9A30.84,30.84,0,0,0,46,106a9.93,9.93,0,0,1-1.7-.3c-.54-.16-.58-.2-1.06.09.71-1.2,1.42-2.4,2.12-3.61-.57.2,0-2.69.06-2.93s.73-3.2,0-3.2c-6.65,0-13.28-.53-19.92-.64a32.31,32.31,0,0,0-4.72.23c-.43,1.17.21,2.13.27,3.29,0,.9-.3,1.27.53,1.84a17.85,17.85,0,0,1,2,1.22c.8.73-.62,1.42-1.1,1.83l-3.66,3.05-1.21,1,1.49.45c-1.38.5-9.85,2.87-9.32-.89,1.29.16,4.93-.58,3.45-2.71-1.36-1.93-3.57.2-4.21,1.7-.76-.32-2.84-1.45-2.24-2.6.51-1,2.17-1.13,3.07-1.26a29.46,29.46,0,0,1,3.52-.26c.3,0,.71-.18.77.19a5.29,5.29,0,0,0,.13.54,4,4,0,0,0,.55,1.09c1.42,2,5.24,2.59,6.6.2.7-1.22.52-3.43-.85-4-1.57-.71-3.58-.18-5.19.12.74-.14,1.48-.3,2.22-.49,1.22-.3,2.22-1,3.41-1.42-.31-.2-1.1-1-1.42-.89s-.73.27-1.1.39a16.71,16.71,0,0,0-2.83,1.09,2.66,2.66,0,0,0-1.51,1.73,8.68,8.68,0,0,1-2.23.61,37.55,37.55,0,0,0-5.06.93c-1.51.5-1.86,1.4-.89,2.75a5.86,5.86,0,0,0,2.8,2.15A2.42,2.42,0,0,0,10,110c2.2,1.09,5.36.8,7.65.19a24.56,24.56,0,0,0,3.63-1.31,1.91,1.91,0,0,1,.47.07l3,.45,9.2,1.39,3.66.56c.31,0,1.2.36,1.49.22l6.78-3.13,1.43-.66c.59-.28,1.08,0,1.72.12s5.68,1.26,4.88,2.55c-1.76-1.75-5.36-.67-6.84,1a1.32,1.32,0,0,0,.39,2.24,5.36,5.36,0,0,0,6-1c.2,2.25-2.55,3.48-4.32,3.25s-3.95-1.35-5.75,0-1.6,2-.69,3.53A5.8,5.8,0,0,0,48,122a9,9,0,0,0,4.74-1.62,2.7,2.7,0,0,1,1.56-.82c.59,0,.63-.06.9.42a4.34,4.34,0,0,0,1.44,1.45,10.08,10.08,0,0,0,5.86,1.09,22.53,22.53,0,0,0,2.59-.28c.71-.12,1.14-.06,1.48-.75a9.32,9.32,0,0,0,.76-2.19c.17-.86.13-.72,1-.78.59,0,1.3.14,1.54-.55A1.21,1.21,0,0,0,69.23,116.66ZM12,104.92c1.26.47.55,1.9-2.05,1.73C10.14,105.71,11.34,104.69,12,104.92ZM20.61,103c.09,3.12-4.94,1.81-5.36-.92C16.78,101.46,20.53,100.11,20.61,103Zm30.47,9.65c-.62.21-3.17.81-2.94-.69.11-.72,1.09-1.06,1.66-1.17a3.61,3.61,0,0,1,3.11.77,5.43,5.43,0,0,1-1.83,1.09C48.6,113.52,51.79,112.41,51.08,112.66Z"/><polygon class="cls-41" points="24.1 79.02 17.94 81.83 45.46 85.59 51.32 81.83 24.1 79.02"/><path class="cls-42" d="M43,85.25c-.2-1.44-.36-2.89-.52-4.33l-2.7-.28A15.8,15.8,0,0,1,38.38,82c-.89.72-1.74,1.49-2.58,2.28Z"/><polygon class="cls-42" points="27.24 83.1 31.4 83.67 36.17 80.27 34.63 80.11 27.24 83.1"/><path class="cls-42" d="M45.85,81.27c.14,1.25.29,2.51.49,3.76l5-3.2Z"/><polygon class="cls-43" points="21.21 107.49 40.11 109.59 44.9 107.36 48.13 101.35 42.97 102.81 17.94 99.22 21.21 107.49"/><path class="cls-44" d="M43.81,102.57c-.59,1-3.52,6.85-3.58,7l4.67-2.18,3.23-6Z"/><polygon class="cls-45" points="42.63 104.85 47.04 103.38 48.13 101.35 42.97 102.81 17.94 99.22 19.04 102 42.63 104.85"/><polygon class="cls-46" points="17.94 81.83 16.88 100.13 43.66 103.34 45.84 85.34 17.94 81.83"/><polygon class="cls-47" points="51.32 81.83 48.46 101.79 43.54 103.34 45.84 85.34 51.32 81.83"/><path class="cls-48" d="M44.3,97.4l-.76,5.94,4.92-1.55,1.12-7.86A12.87,12.87,0,0,1,44.3,97.4Z"/><polygon class="cls-49" points="20.32 84.3 19.4 97.83 41.39 100.58 42.86 86.99 20.32 84.3"/><polygon class="cls-50" points="30.47 92.31 30.13 95.8 30.3 96.01 32.8 96.43 33.14 92.72 32.97 92.59 30.47 92.31"/><polygon class="cls-50" points="34.43 92.91 33.87 96.37 34.04 96.55 36.39 96.95 36.9 93.28 36.73 93.15 34.43 92.91"/><polygon class="cls-51" points="30.3 92.17 30.13 95.8 32.62 96.22 32.97 92.59 30.3 92.17"/><polygon class="cls-52" points="30.62 92.69 30.49 95.39 32.35 95.71 32.61 93 30.62 92.69"/><path class="cls-53" d="M17.3,92.87l-.42,7.25,26.78,3.22.61-5.53C33.22,99.56,20.08,97.19,17.3,92.87Z"/><polygon class="cls-51" points="34.26 92.78 33.87 96.37 36.22 96.77 36.73 93.15 34.26 92.78"/><polygon class="cls-52" points="34.47 93.17 34.15 96.06 36.04 96.38 36.45 93.47 34.47 93.17"/><path class="cls-50" d="M40.37,94.36a.93.93,0,1,1-.93-1A.95.95,0,0,1,40.37,94.36Z"/><path class="cls-50" d="M40,97.39a.89.89,0,1,1-.89-.88A.88.88,0,0,1,40,97.39Z"/><path class="cls-51" d="M40.11,94.3a.93.93,0,1,1-.93-1A.94.94,0,0,1,40.11,94.3Z"/><path class="cls-51" d="M39.69,97.33a.89.89,0,1,1-.88-.88A.88.88,0,0,1,39.69,97.33Z"/><path class="cls-50" d="M28.72,94.14a3.06,3.06,0,1,1-3-2.91A3,3,0,0,1,28.72,94.14Z"/><path class="cls-51" d="M28.45,93.85a2.89,2.89,0,1,1-2.88-2.75A2.82,2.82,0,0,1,28.45,93.85Z"/><path class="cls-54" d="M27.16,93.92a1.83,1.83,0,1,1-1.83-1.74A1.79,1.79,0,0,1,27.16,93.92Z"/><path class="cls-55" d="M26.13,94A1.13,1.13,0,0,1,25,95.35c-.58,0-1-.72-1-1.35s.32-1.22.9-1.22A1.19,1.19,0,0,1,26.13,94Z"/><path class="cls-14" d="M24.84,93l-4.29,1.53a16.18,16.18,0,0,0-3.17,6.36c-1.29,4.41-1.43,6.34-4.62,6.5a1.74,1.74,0,0,1-2-2c2.54.32,4.79-1.21,3.27-3-1.21-1.41-3.25.09-4,2a4.83,4.83,0,0,1-2.85-3.89,4.77,4.77,0,0,1,2.62-4.4c.62,5.14,6.83,6.35,5,.53-.67-2.14-2.17-2.77-3.75-2.47a5.86,5.86,0,0,1,1.19-1.55,9.23,9.23,0,0,1,5.2-1.49l.09-1.51s-7,.09-7.71,5c-2.65,1.28-5,4.82-3.24,7.85a6,6,0,0,0,3.18,2.8,2.43,2.43,0,0,0,1.6,2.91,4.56,4.56,0,0,0,4.75-.94c1.25-1.15,1.57-2.77,2.83-7.27a10.82,10.82,0,0,1,2.16-4.07l4.33-.67C26.22,93.4,24.84,93,24.84,93ZM13.9,98.31c.08,3.18-2.52.33-2.94-2.46C12.49,95.21,13.82,95.34,13.9,98.31Zm-.9,4.51c1.27.48.55,1.94-2.05,1.77C11.17,103.63,12.37,102.58,13,102.82Z"/><path class="cls-56" d="M12.67,99.36c.77.9,1.55,1,1.5-.77,0-1.37-.34-2.13-.81-2.49a3.94,3.94,0,0,1,.54,2.21C13.94,99.86,13.34,100,12.67,99.36Z"/><path class="cls-56" d="M14,95.07a2.87,2.87,0,0,0-2.46-1c-.12.2-.2.35-.2.35A3,3,0,0,1,14,95.07Z"/><path class="cls-56" d="M13.54,103.24c.31.57-.44,1.37-2.23,1.36a1.43,1.43,0,0,0-.09.27C13.61,105,14.41,103.81,13.54,103.24Z"/><path class="cls-56" d="M9.83,96.5a5.46,5.46,0,0,0,1.56,3A5.61,5.61,0,0,1,10,96.36Z"/><path class="cls-56" d="M14.07,102.48a.18.18,0,0,0-.05-.07c-1.21-1.41-3.25.09-4,2a4.8,4.8,0,0,1-1.4-1,4.58,4.58,0,0,0,1.68,1.23C11,102.89,12.85,101.46,14.07,102.48Z"/><path class="cls-56" d="M10,105.49l-.29-.12a2.36,2.36,0,0,0,.75,2.23A2.51,2.51,0,0,1,10,105.49Z"/><path class="cls-56" d="M6.83,102.69c-1.72-3,.59-6.57,3.25-7.85.65-4.28,6.1-4.87,7.42-5v-.3s-7,.09-7.71,5c-2.65,1.28-5,4.82-3.24,7.85A6.8,6.8,0,0,0,7.74,104,7.43,7.43,0,0,1,6.83,102.69Z"/><path class="cls-56" d="M12.76,107.38a2.09,2.09,0,0,1-1.44-.42,2,2,0,0,0,1.72.7c3.18-.16,3.33-2.09,4.61-6.5a16.34,16.34,0,0,1,3.17-6.36l4.3-1.53a1.32,1.32,0,0,1,.34.18,1.3,1.3,0,0,0-.62-.46l-4.29,1.53a16.18,16.18,0,0,0-3.17,6.36C16.09,105.29,16,107.22,12.76,107.38Z"/><path class="cls-14" d="M49.6,93.85s6.8,2.65,3.54,7.88-7-2.54.26-1.56,3,14.11-4.18,11.88c-5.69-1.77,5.18-7.74,6.48-2.1a4.15,4.15,0,0,1-1.19,3.91c-1.22,1.15-3.43,2.33-7.08,1.42,0,0-3.15-1.42-2.26,2.2s4.55,2.39,8.62-1.35c1-.92,3.87-.2,3.87-.2v2.16s-2.32-.69-3.17,0-6.83,6.29-9.88,1.35.65-6.94,4.65-5.52,7.19-3.33,3.88-4.8c-1.86-.83-3.72,0-4,.84-.18.62.44,1.68,2.92.8a6.23,6.23,0,0,0,3.83-6.61,3.78,3.78,0,0,0-2.8-2.91,5.05,5.05,0,0,0-1.88-.08c-1.37.24-1.85,1.25-.57,1.67.78.25,2.39-2,2.24-4-.11-1.56-1.26-3-3.55-3.4Z"/><path class="cls-56" d="M55.47,110.37a4.11,4.11,0,0,1-.29,2.66A4.1,4.1,0,0,0,55.7,110a3.57,3.57,0,0,0-.1-.35l-.24.37C55.4,110.1,55.44,110.23,55.47,110.37Z"/><path class="cls-56" d="M53.6,100.67c3.68.78,4,5,2.43,8.18,1.85-3.27,1.64-7.79-2.2-8.61C55.1,96,49.6,93.85,49.6,93.85l-.07.49C50.41,94.73,54.75,96.85,53.6,100.67Z"/><path class="cls-56" d="M52.57,100.53l.09-.43c-2.08-.12-3.07.58-3.35,1.38C49.77,100.86,50.78,100.4,52.57,100.53Z"/><path class="cls-56" d="M50.46,103.2c.47.15,1.22-.59,1.73-1.64-.49.82-1.1,1.34-1.5,1.22s-.77-.47-.74-.75C49.55,102.42,49.64,102.93,50.46,103.2Z"/><path class="cls-56" d="M49,110.33c-.18.62.44,1.68,2.91.8a5.47,5.47,0,0,0,1.84-1.1l-.14-.12a5.47,5.47,0,0,1-1.47.8c-2.39.85-3-.11-2.93-.74A1,1,0,0,0,49,110.33Z"/><path class="cls-56" d="M49,114.29a4,4,0,0,0,5-1.93,4.06,4.06,0,0,1-4.81,1.51c-2.51-.89-4.9-.44-5.59,1.25C44.56,113.79,46.75,113.48,49,114.29Z"/><path class="cls-56" d="M53.79,116.13c-4.07,3.74-7.73,5-8.62,1.35a3.41,3.41,0,0,1-.09-1.7c-.3.34-.42,1-.14,2.13.9,3.62,4.55,2.38,8.62-1.36,1-.91,3.87-.2,3.87-.2V118l.23.06v-2.16S54.78,115.21,53.79,116.13Z"/><path class="cls-56" d="M54.69,108.87a7.74,7.74,0,0,0,.43-.73l-.2.31c-2-2-6.57-.13-7.25,1.68C48.82,108.47,52.87,107,54.69,108.87Z"/><path class="cls-15" d="M53.79,116.13l-.35.31a1.68,1.68,0,0,1,.61.58,1.89,1.89,0,0,1,.23,1.19l.21-.17c.85-.64,3.17,0,3.17,0v-2.16S54.78,115.21,53.79,116.13Z"/><polygon class="cls-57" points="21.62 86.06 21.24 89.36 39.69 91.6 40.11 88.36 21.62 86.06"/><polygon class="cls-58" points="21.24 89.36 39.69 91.6 40.11 88.36 21.24 89.36"/><polygon class="cls-59" points="22.56 86.81 40.08 88.63 40.11 88.36 21.62 86.06 21.24 89.36 22.25 89.49 22.56 86.81"/><path class="cls-51" d="M35.15,89.42l.08-.57,1.22.11-.11.68.26,0,.17-1L35,88.47l-.14.91Z"/><path class="cls-51" d="M36.28,90l-.1.6L35,90.43l.1-.66-.27,0-.15,1,1.71.21.16-.93Z"/><path class="cls-51" d="M37.88,89.72l.08-.56,1.18.11-.11.66.25,0,.16-1-1.69-.17-.13.9Z"/><path class="cls-51" d="M39,90.27l-.1.59-1.14-.15.09-.65-.26,0-.15,1,1.66.21.14-.92Z"/><polygon class="cls-51" points="36.79 90.72 36.72 91.02 37.04 91.09 37.08 90.78 36.79 90.72"/><path class="cls-14" d="M67.35,120.27s-11.41,2.84-11.71-4.37c-.18-4.48,10-6,10-6Z"/><path class="cls-17" d="M55.72,116.67c2.07,1.91,4.63,2.65,7.38,1A23.52,23.52,0,0,0,66.46,115l.89,5.24S56.77,122.9,55.72,116.67Z"/><path class="cls-60" d="M65.59,110a8,8,0,0,1,1.76,10.32,6.42,6.42,0,0,1-3.79-5.06C63,111.18,65.59,110,65.59,110Z"/><path class="cls-61" d="M65.68,110.68a6.86,6.86,0,0,1,1.52,8.9,5.54,5.54,0,0,1-3.28-4.36C63.42,111.75,65.68,110.68,65.68,110.68Z"/><path class="cls-62" d="M64.74,115.82a2.39,2.39,0,0,1-1.06,0,6.4,6.4,0,0,0,3.67,4.41,8.3,8.3,0,0,0,1-5.69A27.51,27.51,0,0,1,64.74,115.82Z"/><path class="cls-63" d="M65.61,112.89l4.23-1.19.4,1.81-4.49.72A.89.89,0,0,1,65.61,112.89Z"/><path class="cls-64" d="M70,112.08c-1.5.25-4.53,1.12-4.53,1.12a.73.73,0,0,0,0,.44c1.45-.56,3.13-.76,4.62-1.27Z"/><path class="cls-65" d="M69.74,113l-4.3.85a1.38,1.38,0,0,0,.31.43l4.49-.72-.21-1C69.73,112.62,70.18,112.72,69.74,113Z"/><path class="cls-66" d="M69.84,111.7s1.31.81.4,1.81A1.16,1.16,0,0,1,69.84,111.7Z"/><path class="cls-63" d="M66,115.52l4.28-.73.35,1.83-4.43.32A1.13,1.13,0,0,1,66,115.52Z"/><path class="cls-64" d="M70.32,115.12l-4.46.73a.88.88,0,0,0,0,.42s3-.46,4.55-.84Z"/><path class="cls-65" d="M65.92,116.55a2.39,2.39,0,0,0,.26.39l4.43-.32,0-.73A27,27,0,0,1,65.92,116.55Z"/><path class="cls-66" d="M70.26,114.79a1.17,1.17,0,0,1,.35,1.83S69.38,115.79,70.26,114.79Z"/><path class="cls-8" d="M123.27,104.9c-.1-.33-.92-1.05-1-1.37h-36c.24,1-1.63,2.25-2.18,2.71-1.64,1.37-3.38,2.61-5.1,3.86-1.54,1.13-.34-1.45-1.76-.15-.62.57-3.14,3-3.77,5.6a3,3,0,0,0,2,3.36,10.44,10.44,0,0,0,4.21.2c6.54-.65,13-2.08,19.5-3.27s12.59-2.35,18.58-3.46l3.2-.59c1.48-.27,3.2-.5,4.14-1.52a2,2,0,0,0,.47-.86C125.92,107.06,123.44,105.49,123.27,104.9Z"/><path class="cls-67" d="M107.62,42.45c6-.73,5.85.14,6.72,1.48,1.48,2.32,10,58,10,59.62s1.43,4.31-5.23,5.55c-5.25,1-26.23,5.32-37.07,7.19-3.07.53-5.24.93-6.12-.05-1-.55-3.29-15.4-6.31-31.4C67,71.09,64.23,58.68,63.33,53c-.22-1.35,0-3.3,1.7-3.61C79,46.74,100.62,43.5,107.62,42.45Z"/><path class="cls-68" d="M64.58,52.73c-.21-1.33,0-3.24,1.67-3.55,13.68-2.56,35-5.74,41.83-6.77.6-.07,1.13-.13,1.61-.17,3.9-.28,3.9.53,4.65,1.69,1.48,2.32,10,58,10,59.62,0,.43.09.93.11,1.47,0,2-1,3.46-4.59,4.13-5.16,1-26.27,5.34-36.93,7.18-3,.52-4.8.8-5.52.39-1-.54-3.74-16.94-6.69-32.67C68.13,70.54,65.46,58.35,64.58,52.73Z"/><path class="cls-69" d="M99.93,109.24a1.36,1.36,0,0,0,1.28,1.45,1.42,1.42,0,0,0,1.57-1.4,1.38,1.38,0,0,0-1.47-1.33A1.43,1.43,0,0,0,99.93,109.24Z"/><polygon class="cls-70" points="80.93 110.33 118.86 103.14 109.94 47.71 70.09 54.58 80.93 110.33"/><path class="cls-71" d="M117.66,65.4c-1.75-10.57-3.39-19.67-4-20.54-.69-1.08-.69-1.83-4.3-1.57-.45,0-.94.09-1.5.16-5.79.87-22.59,3.38-35.12,5.61C76.21,50.77,114.79,64.45,117.66,65.4Z"/><path class="cls-72" d="M93.6,57.47l-.7.14a.39.39,0,0,0-.48-.36c-.31.06-.39.31-.33.63l0,.22c.06.32.23.52.52.46A.4.4,0,0,0,93,58l.67-.14a1,1,0,0,1-.9,1.22,1.07,1.07,0,0,1-1.41-1,1.11,1.11,0,0,1,.94-1.47A1,1,0,0,1,93.6,57.47Z"/><path class="cls-72" d="M95.11,56.71l.11.58-.21,0c-.28.06-.35.24-.3.51l.15.81-.65.14L93.86,57l.54-.11.09.26a.53.53,0,0,1,.62-.42Z"/><path class="cls-72" d="M97.58,58.09,97,58.2,97,57.93a.8.8,0,0,1-.56.45c-.41.08-.66-.13-.74-.55l-.22-1.18.65-.13.21,1.09c0,.15.13.24.27.21a.28.28,0,0,0,.22-.34l-.2-1.06.65-.14Z"/><path class="cls-72" d="M99.4,56.4l-.61.12a.15.15,0,0,0-.12-.12.26.26,0,0,0-.15,0c-.06,0-.24,0-.22.16s1.13-.24,1.27.5c.09.49-.3.72-.78.82s-.93,0-1-.44l.61-.13h0c0,.18.24.17.33.15s.27-.06.25-.19-1.13.21-1.27-.5c-.09-.48.3-.7.76-.79S99.31,56,99.4,56.4Z"/><path class="cls-72" d="M100.44,55.62l.36-.08.09.46-.37.08.14.69c0,.15.08.23.22.2l.19,0,.08.4a1.7,1.7,0,0,1-.41.15c-.36.07-.63,0-.7-.36l-.17-.9-.25.05-.08-.47.27,0,0-.58.49-.1Z"/><path class="cls-72" d="M100.71,66.87,100,67l-.16-.85a6.06,6.06,0,0,1-.09-.76h0l-.12,1.68-.57.12-.72-1.51h0a4.47,4.47,0,0,1,.2.73l.17.85-.67.13-.45-2.35,1-.22.6,1.29h0l.08-1.43,1-.2Z"/><path class="cls-72" d="M102.63,65.17l.13.7c0,.08.06.13.13.11l.12,0,.08.39a.7.7,0,0,1-.33.14.48.48,0,0,1-.53-.12,1,1,0,0,1-.6.36c-.36.07-.64,0-.71-.38-.1-.55.32-.74,1.08-.9l0-.09c0-.14-.15-.19-.29-.16s-.25.09-.22.21h0l-.65.14a.09.09,0,0,0,0,0c-.06-.33.21-.62.8-.75S102.54,64.72,102.63,65.17Zm-.57.61c-.39.08-.53.21-.5.34s.14.15.26.13.3-.17.27-.32Z"/><path class="cls-72" d="M104.89,64.79l.22,1.17-.65.14L104.25,65c0-.15-.13-.24-.27-.21a.28.28,0,0,0-.22.34l.2,1.06-.65.14L103,64.53l.54-.11.09.26a.79.79,0,0,1,.56-.44C104.56,64.15,104.81,64.36,104.89,64.79Z"/><path class="cls-72" d="M106,63.91l.37-.07.09.46-.37.07.13.69c0,.16.08.23.23.2l.18,0,.08.4a1.56,1.56,0,0,1-.41.15c-.36.08-.63,0-.7-.36l-.17-.9-.24,0-.09-.46.27-.06,0-.58.48-.1Z"/><path class="cls-72" d="M107.64,65.44l-.65.14-.48-2.49.66-.13Z"/><path class="cls-72" d="M109.77,64.06l0,.12-1.3.27c.05.25.17.37.42.32s.3-.18.27-.33l.64-.13c.08.43-.18.76-.81.89a.88.88,0,0,1-1.2-.73.91.91,0,0,1,.8-1.15A.85.85,0,0,1,109.77,64.06Zm-1.34.06.64-.13a.27.27,0,0,0-.35-.24A.32.32,0,0,0,108.43,64.12Z"/><path class="cls-72" d="M105.35,91.2a1.14,1.14,0,0,1-1,1.47,1.11,1.11,0,0,1-1.46-1,1.14,1.14,0,0,1,1-1.47A1.1,1.1,0,0,1,105.35,91.2Zm-1.72.24,0,.22c.06.32.26.51.58.44a.49.49,0,0,0,.38-.64l0-.22c-.06-.32-.26-.51-.58-.44A.48.48,0,0,0,103.63,91.44Z"/><path class="cls-72" d="M107.72,91.93l-.54.11-.09-.26a.79.79,0,0,1-.56.44c-.41.09-.66-.12-.74-.55l-.22-1.17.65-.14.21,1.09c0,.15.13.24.27.21a.28.28,0,0,0,.22-.34l-.2-1.06.65-.14Z"/><path class="cls-72" d="M108.56,89.88l.37-.08.09.46-.37.08.13.69c0,.15.08.23.23.2l.19,0,.07.4a1.82,1.82,0,0,1-.41.15c-.35.07-.62,0-.69-.36l-.17-.9-.25,0-.09-.47.27,0,0-.58.49-.1Z"/><path class="cls-72" d="M111.29,90.25l0,.12-1.3.27c0,.25.17.37.42.32s.3-.18.27-.33l.64-.13c.08.43-.19.77-.81.9s-1.08-.09-1.2-.74a.91.91,0,0,1,.8-1.15A.85.85,0,0,1,111.29,90.25Zm-1.34.07.64-.13a.28.28,0,0,0-.35-.25A.33.33,0,0,0,110,90.32Z"/><path class="cls-72" d="M112.68,89l.11.57-.21,0c-.28.06-.35.24-.3.51l.15.81-.65.13-.35-1.81.54-.11.1.27a.5.5,0,0,1,.41-.42A.54.54,0,0,1,112.68,89Z"/><path class="cls-72" d="M109.3,93.28l-.63.13c0-.21-.18-.28-.39-.24s-.29.21-.24.45l0,.2c.05.24.17.36.41.31s.32-.16.28-.38l.61-.13c.1.55-.28.87-.81,1a.88.88,0,0,1-1.16-.75.9.9,0,0,1,.8-1.14C108.73,92.6,109.2,92.73,109.3,93.28Z"/><path class="cls-72" d="M111.56,93a.91.91,0,0,1-.81,1.15.87.87,0,0,1-1.15-.74.9.9,0,0,1,.79-1.15A.88.88,0,0,1,111.56,93Zm-1.33.18,0,.19c0,.24.17.37.4.32s.3-.21.25-.45l0-.2c0-.24-.17-.36-.4-.32S110.19,92.93,110.23,93.17Z"/><path class="cls-72" d="M113,91.76l.11.58-.21,0c-.28.06-.36.24-.3.51l.15.81-.65.13L111.7,92l.54-.12.09.27a.52.52,0,0,1,.42-.42A.54.54,0,0,1,113,91.76Z"/><path class="cls-72" d="M115.27,92.23l0,.11-1.3.27c0,.25.17.38.42.33s.3-.19.27-.33l.64-.13c.08.43-.19.76-.81.89a.89.89,0,0,1-1.2-.74.9.9,0,0,1,.8-1.14A.86.86,0,0,1,115.27,92.23Zm-1.34.06.64-.13a.27.27,0,0,0-.35-.24A.32.32,0,0,0,113.93,92.29Z"/><path class="cls-72" d="M90.91,100.73l-.72.15-.45-2.35.72-.16Z"/><path class="cls-72" d="M93,99.09l.22,1.17-.65.14-.21-1.09c0-.15-.12-.24-.27-.21a.28.28,0,0,0-.22.34l.2,1.06-.65.13L91,98.83l.54-.12.1.27a.77.77,0,0,1,.55-.44C92.65,98.45,92.89,98.66,93,99.09Z"/><path class="cls-72" d="M95.17,98.64l.22,1.17-.65.13-.21-1.09c0-.15-.13-.24-.27-.21A.28.28,0,0,0,94,99l.2,1.07-.65.13-.35-1.81.54-.11.09.27a.82.82,0,0,1,.56-.45C94.84,98,95.09,98.21,95.17,98.64Z"/><path class="cls-72" d="M97.49,98.43l0,.12-1.3.27c.05.25.17.37.42.32s.3-.18.27-.33l.64-.13c.08.43-.18.76-.81.89a.88.88,0,0,1-1.2-.73.91.91,0,0,1,.8-1.15A.85.85,0,0,1,97.49,98.43Zm-1.34.07.64-.14a.28.28,0,0,0-.35-.24A.33.33,0,0,0,96.15,98.5Z"/><path class="cls-72" d="M98.89,97.2l.11.57-.21,0c-.29.06-.36.24-.31.51l.16.81-.66.13-.34-1.81.53-.11.1.27a.5.5,0,0,1,.41-.42A.58.58,0,0,1,98.89,97.2Z"/><path class="cls-72" d="M96.56,101.19l-.63.13a.28.28,0,0,0-.38-.24c-.24,0-.3.22-.25.46l0,.19c0,.24.17.37.41.32s.32-.17.28-.39l.61-.12c.1.55-.28.86-.81,1a.88.88,0,0,1-1.16-.74.9.9,0,0,1,.8-1.15C96,100.51,96.46,100.64,96.56,101.19Z"/><path class="cls-72" d="M98.82,100.91a.92.92,0,0,1-.8,1.15.88.88,0,0,1-1.16-.75.9.9,0,0,1,.79-1.14A.87.87,0,0,1,98.82,100.91Zm-1.33.17,0,.2c0,.24.17.36.4.31s.3-.21.25-.45l0-.19c0-.24-.17-.37-.4-.32S97.45,100.84,97.49,101.08Z"/><path class="cls-72" d="M100.21,99.68l.11.57-.21,0c-.28.06-.35.24-.3.52l.15.8-.65.14L99,99.94l.54-.11.09.26a.5.5,0,0,1,.42-.41A.36.36,0,0,1,100.21,99.68Z"/><path class="cls-72" d="M102.53,100.14l0,.12-1.3.27c0,.25.17.37.42.32s.3-.18.27-.33l.64-.13c.08.43-.19.76-.81.89s-1.08-.08-1.2-.73a.9.9,0,0,1,.8-1.15A.85.85,0,0,1,102.53,100.14Zm-1.34.06.64-.13a.27.27,0,0,0-.35-.24A.32.32,0,0,0,101.19,100.2Z"/><path class="cls-73" d="M100.49,78.79c1.08,7.87-2.79,12.34-9.06,13.71A11.49,11.49,0,0,1,77.8,83.78c-1.21-5.94,1.13-12,9.55-13.84A10.67,10.67,0,0,1,100.49,78.79Z"/><path class="cls-74" d="M83.14,84.35c.1.09.08-.22.17-.19-.11.49.33.93.43,1.42.05.26.14,1.66.55.63C84.5,85.69,83.55,83.33,83.14,84.35Z"/><path class="cls-75" d="M87.07,82.66v-.31l0,0A.9.9,0,0,0,87.07,82.66Z"/><path class="cls-76" d="M87.07,82.66v-.31l0,0A.9.9,0,0,0,87.07,82.66Z"/><path class="cls-77" d="M87.06,82.35h0s0,0,0,0Z"/><path class="cls-78" d="M87.06,82.35h0s0,0,0,0Z"/><path class="cls-79" d="M84.86,91.55a.27.27,0,0,1,.12.09,10.78,10.78,0,0,0,2.94-2.85.74.74,0,0,0-.82-.6l.47-.26c-.83.08-1,.65-1.56,1.11s-1.31.37-1.87.81a3.87,3.87,0,0,0-1,1.3,11.87,11.87,0,0,0,1.12.58C84.46,91.61,84.66,91.47,84.86,91.55Z"/><path class="cls-80" d="M84.86,91.55a.27.27,0,0,1,.12.09,10.78,10.78,0,0,0,2.94-2.85.74.74,0,0,0-.82-.6l.47-.26c-.83.08-1,.65-1.56,1.11s-1.31.37-1.87.81a3.87,3.87,0,0,0-1,1.3,11.87,11.87,0,0,0,1.12.58C84.46,91.61,84.66,91.47,84.86,91.55Z"/><path class="cls-81" d="M88.63,87.89a.76.76,0,0,0,.25-.53c-.08.18-.17.35-.26.52Z"/><path class="cls-82" d="M88.63,87.89a.76.76,0,0,0,.25-.53c-.08.18-.17.35-.26.52Z"/><path class="cls-83" d="M88.12,86.12c-.24.63.4,1.13.5,1.76.09-.17.18-.34.26-.52C88.94,86.74,88.63,85.9,88.12,86.12Z"/><path class="cls-84" d="M88.12,86.12c-.24.63.4,1.13.5,1.76.09-.17.18-.34.26-.52C88.94,86.74,88.63,85.9,88.12,86.12Z"/><path class="cls-85" d="M86.63,84.57c-.3.4-.88.33-1.16.72a.7.7,0,0,0,.42,1.1c.83.17.63-.64.75-1.15,0-.22.38-.52.32-.75S86.76,84.4,86.63,84.57Z"/><path class="cls-86" d="M86.63,84.57c-.3.4-.88.33-1.16.72a.7.7,0,0,0,.42,1.1c.83.17.63-.64.75-1.15,0-.22.38-.52.32-.75S86.76,84.4,86.63,84.57Z"/><path class="cls-87" d="M83.14,84.35c.1.09.08-.22.17-.19-.11.49.33.93.43,1.42.05.26.14,1.66.55.63C84.5,85.69,83.55,83.33,83.14,84.35Z"/><path class="cls-88" d="M87.47,82.88c0-.24.16-.4,0-.68a.68.68,0,0,0-.44.14c.23.89-.32,1.34.44,2.09a1.65,1.65,0,0,0,.11-1.06C87.62,83.24,87.49,83,87.47,82.88Z"/><path class="cls-89" d="M87.47,82.88c0-.24.16-.4,0-.68a.68.68,0,0,0-.44.14c.23.89-.32,1.34.44,2.09a1.65,1.65,0,0,0,.11-1.06C87.62,83.24,87.49,83,87.47,82.88Z"/><path class="cls-90" d="M79.1,79.51c.39.63.22.95.21,1.61,0,.46-.13,1.29.4,1.27.46-.4.84-.56,1-1.27.07-.34-.15-.44.13-.72s.61-.09.86-.17c.47-.15.82-.71,1.35-.45.74.35.33,1.06.54,1.61s1,.52,1.19,1-.57,1-.35,1.45c.45,1,.53-.64.61-.76s.56-.13.64-.32-.07-.7-.13-.9c-.16-.56-.53-.87.1-1.23.44-.26,1.15.16,1.55-.19.61-.55-.25-.65-.41-1s.28-1,0-1.56c.65-.62.9.72,1,1.2.69-.15-.18-1.13-.32-1.48-.24-.6,0-1.11-.21-1.71A7.14,7.14,0,0,0,85,72.62c-.34-.23-.83-.66-1.33-1l-.51-.22a12.63,12.63,0,0,0-1.34.83c.13.26.51.39.5.75s-.4.34-.6.43c0,0-.81.3-.68.32a.05.05,0,0,1-.06.06,1.26,1.26,0,0,0-.35-.59A9.78,9.78,0,0,0,78,77.46a1.17,1.17,0,0,1,.33.63A3.79,3.79,0,0,0,79.1,79.51Z"/><path class="cls-91" d="M79.1,79.51c.39.63.22.95.21,1.61,0,.46-.13,1.29.4,1.27.46-.4.84-.56,1-1.27.07-.34-.15-.44.13-.72s.61-.09.86-.17c.47-.15.82-.71,1.35-.45.74.35.33,1.06.54,1.61s1,.52,1.19,1-.57,1-.35,1.45c.45,1,.53-.64.61-.76s.56-.13.64-.32-.07-.7-.13-.9c-.16-.56-.53-.87.1-1.23.44-.26,1.15.16,1.55-.19.61-.55-.25-.65-.41-1s.28-1,0-1.56c.65-.62.9.72,1,1.2.69-.15-.18-1.13-.32-1.48-.24-.6,0-1.11-.21-1.71A7.14,7.14,0,0,0,85,72.62c-.34-.23-.83-.66-1.33-1l-.51-.22a12.63,12.63,0,0,0-1.34.83c.13.26.51.39.5.75s-.4.34-.6.43c0,0-.81.3-.68.32a.05.05,0,0,1-.06.06,1.26,1.26,0,0,0-.35-.59A9.78,9.78,0,0,0,78,77.46a1.17,1.17,0,0,1,.33.63A3.79,3.79,0,0,0,79.1,79.51Z"/><path class="cls-92" d="M87.35,69.94c-.63.14-5.42,4.6-3.9,12.09a14.82,14.82,0,0,0,7.88,10.49l.1,0c6.27-1.37,10.14-5.84,9.06-13.71A10.67,10.67,0,0,0,87.35,69.94Z"/><path class="cls-93" d="M87.65,72c-.71.16-3.36,5.12-2.53,9.8.68,3.88,2.76,7.16,5.82,8.58,5.1-1.09,8.78-4.81,7.91-11.19C98.15,74.05,92.7,70.85,87.65,72Z"/><path class="cls-94" d="M88.15,74.59c-1.49,1.44-2.2,4.52-1.78,7A8.72,8.72,0,0,0,90.55,88c3.22-.71,5.84-3.41,5.1-8.07A6.67,6.67,0,0,0,88.15,74.59Z"/><path class="cls-95" d="M88.68,77.46s-1.92,1.26-1.23,4.35A4,4,0,0,0,90,84.9c2.21-.66,2.76-2.45,2.36-4.43A3.52,3.52,0,0,0,88.68,77.46Z"/><path class="cls-96" d="M83.45,82a14.82,14.82,0,0,0,7.88,10.49S87.86,72.39,87.23,70C87.23,70,81.8,73.87,83.45,82Z"/><polygon class="cls-72" points="90.15 71.03 89.89 70.95 93.08 60.18 93.34 60.26 90.15 71.03"/><path class="cls-72" d="M90.5,70.92a.48.48,0,1,1-1,0,.48.48,0,1,1,1,0Z"/><polygon class="cls-72" points="94.99 74.72 94.77 74.56 98.39 68.43 98.61 68.59 94.99 74.72"/><path class="cls-72" d="M95.41,74.46a.51.51,0,0,1-.38.59.48.48,0,0,1-.56-.39.48.48,0,1,1,.94-.2Z"/><polygon class="cls-72" points="102.49 89.6 94.53 81.8 94.73 81.57 102.7 89.37 102.49 89.6"/><path class="cls-72" d="M95.22,81.79a.53.53,0,0,1-.64.42.56.56,0,0,1-.4-.67.54.54,0,0,1,.64-.42A.56.56,0,0,1,95.22,81.79Z"/><polygon class="cls-72" points="95.69 95.95 90.68 82.63 90.95 82.52 95.95 95.84 95.69 95.95"/><path class="cls-72" d="M91.33,82.61a.52.52,0,1,1-1,0,.52.52,0,1,1,1,0Z"/><path class="cls-97" d="M124.3,103.92v0c0-.12,0-.23,0-.33h0c0-.27-.24-2.11-.65-5l0-.21c-.34-2.36-.79-5.4-1.31-8.82a31.23,31.23,0,0,1-17.49,6.55c-9.81.53-19.75-2.71-28.36-7.4a77.51,77.51,0,0,1-7-4.29c0,.14,0,.29.08.44,3,16,5.34,30.85,6.31,31.4a2.4,2.4,0,0,0,1.8.6c.87.22,2.56,0,5.21-.51,10.66-1.84,31.77-6.21,36.93-7.18,2.73-.51,4-1.48,4.41-2.83a4.37,4.37,0,0,0,.11-2.11Z"/><path class="cls-98" d="M115.2,118.71h0l-.22-.19,0,0-.29-.22-27.12,2.94s-1.78,1-3.06,1.73l-1.61,1,.54.11h0l.16,0h0l.14,0h0l.16,0h0l.18,0h0l.14,0h.05l.1,0h.23c1,.17,2.2.34,3,.46l.2,0H88l.18,0h0l.17,0h0l.13,0,27.24-3.24S116.4,121.19,115.2,118.71Z"/><path class="cls-99" d="M88,120s-4.42,2.38-4.32,2.65,4.54.83,5.32,1l0,0a2,2,0,0,0-.71-3.52Z"/><path class="cls-100" d="M86.69,122.48a18.58,18.58,0,0,1-2.53.31c1.2.29,4.19.68,4.82.79l0,0a2,2,0,0,0,.75-1.87A16.24,16.24,0,0,1,86.69,122.48Z"/><path class="cls-101" d="M85.27,122.27a1.58,1.58,0,0,0-.33-.59c-.74.45-1.63,1-1.63,1s1.53.33,1.89.36A1.66,1.66,0,0,0,85.27,122.27Z"/><path class="cls-102" d="M85.26,122.25a2.82,2.82,0,0,1-.64.35,4.05,4.05,0,0,1-.77.16c.48.09,1.13.22,1.35.24a1.66,1.66,0,0,0,.07-.73Z"/><path class="cls-103" d="M115.1,117,88,120a3.25,3.25,0,0,1,1,3.62l26.78-3.13a2.87,2.87,0,0,0,.5-1.89C116.18,118,115.93,117.64,115.1,117Z"/><path class="cls-104" d="M88.78,120.92,116,117.84a3.68,3.68,0,0,0-.87-.82L88,120a3.38,3.38,0,0,1,.8,1Z"/><path class="cls-104" d="M116.28,119,89.2,122.48h0a2.74,2.74,0,0,1,0,.48s0,0,0,.08a1.16,1.16,0,0,1,0,.18,1.54,1.54,0,0,1-.1.35l26.78-3.13a4.89,4.89,0,0,0,.31-.58A2.8,2.8,0,0,0,116.28,119Z"/><path class="cls-105" d="M116.28,119h0v-.23a51.08,51.08,0,0,1-4.93,1.41c-2.39.51-21.58,2.65-22.56,2.84a22.18,22.18,0,0,1-3,0c.84.14,1.75.27,2.41.37l.21,0h0l.18,0h0l.18,0h0l.13,0,26.78-3.13a3,3,0,0,0,.37-.75v0A2.42,2.42,0,0,0,116.28,119Z"/><path class="cls-106" d="M140,106.51a129.66,129.66,0,0,0-16.33-7.72c-.39-2.75-.8-5.49-1.22-8.24a50.92,50.92,0,0,0,3.44-5.94h0c.35-.71.69-1.41,1-2.14.79-1.64,1.35-3.4,2-5.12.47-1.4.88-2.83,1.25-4.26h0v0h0l.1-.43h0c.15-.61.3-1.23.43-1.84h0c.36-1.63.65-3.28.88-4.93h0c.21-1.5.36-3,.46-4.52h0a61.09,61.09,0,0,0-.16-9.66h0c-1.68-17.26-11.51-31.84-25.57-40.77A72.75,72.75,0,0,0,66.7,0C53.25.14,39.51,3.83,28.49,12A51.66,51.66,0,0,0,8.94,43.39h0c-.29,1.37-.54,2.76-.73,4.15h0c-.21,1.5-.37,3-.46,4.51h0A49.55,49.55,0,0,0,9.32,68.29h0A47.5,47.5,0,0,0,16,82.63h0c.56.81,1.13,1.6,1.73,2.37l-.27,4.59c-.24,0-7,.18-7.69,5-2.22,1.07-4.18,3.65-3.77,6.3a62.89,62.89,0,0,0-6,3c7.91,10,33.13,21.37,57,24.8l2.8,1.29h.08l.26,0,.84-.11,1.49-.2,1.31-.17c9.13.71,18.16-.32,27.16-2A141.77,141.77,0,0,0,112.36,122l3.43-.41s.24-.16.12-.91C133.05,114.05,140,106.51,140,106.51ZM11,95.85c1-.4,1.86-.5,2.4.25h0a3.16,3.16,0,0,1,.49,1.59l-1.93.73a7.14,7.14,0,0,1-1-2.57C11.93,95.45,11.1,96.78,11,95.85Zm1.26-3.26A9.2,9.2,0,0,1,17.4,91.1l-.1,1.77h0l-.22,3.69L15,97.3a4.92,4.92,0,0,0-1-2.26l0,0a3,3,0,0,0-2.46-1h0a3.75,3.75,0,0,0-.47,0A5.86,5.86,0,0,1,12.22,92.59ZM9.76,96.08c0,.14.06.27.08.41h0a5.74,5.74,0,0,0,1,2.34c-1.36.54-2.58,1-3.69,1.53a4.79,4.79,0,0,1,2.62-4.29C9.78,96.22,7.74,97.31,9.76,96.08Z"/></g></g></g></svg>