<svg xmlns="http://www.w3.org/2000/svg" xmlns:xlink="http://www.w3.org/1999/xlink" viewBox="0 0 140 130"><defs><style>.cls-1,.cls-10,.cls-13,.cls-14,.cls-15,.cls-24,.cls-27,.cls-33,.cls-35,.cls-37,.cls-4,.cls-40,.cls-48,.cls-55,.cls-57,.cls-59,.cls-61,.cls-64,.cls-66,.cls-67,.cls-68,.cls-71,.cls-8{mix-blend-mode:multiply;}.cls-1{fill:url(#radial-gradient);}.cls-2{isolation:isolate;}.cls-3{fill:url(#linear-gradient);}.cls-4{fill:#126594;}.cls-4,.cls-5,.cls-68{opacity:0.25;}.cls-17,.cls-18,.cls-20,.cls-23,.cls-28,.cls-30,.cls-31,.cls-32,.cls-34,.cls-46,.cls-5,.cls-56{mix-blend-mode:screen;}.cls-6{fill:#d6eff4;}.cls-7{fill:#a9bdc4;}.cls-37,.cls-49,.cls-8{fill:#bdc2b9;}.cls-18,.cls-27,.cls-32,.cls-48,.cls-8{opacity:0.75;}.cls-10,.cls-9{fill:#f9f6ef;}.cls-11,.cls-14{fill:#e5e9ea;}.cls-12{fill:#77be00;}.cls-13{fill:#c8c8cc;}.cls-13,.cls-15,.cls-17,.cls-225,.cls-24,.cls-34,.cls-35,.cls-37,.cls-56,.cls-71{opacity:0.55;}.cls-15{fill:#9d9da4;}.cls-16{fill:#d0d7d9;}.cls-17,.cls-24,.cls-55{fill:#a4cad3;}.cls-18,.cls-19,.cls-23{fill:#ffc43a;}.cls-20,.cls-47{fill:#fff;}.cls-21{fill:#ffe29d;}.cls-22{fill:#e2eef1;}.cls-25{fill:#eff6f7;}.cls-26,.cls-27,.cls-28{fill:#615f5f;}.cls-29,.cls-30{fill:#898787;}.cls-31,.cls-32{fill:#ffff83;}.cls-31,.cls-381{opacity:0.32;}.cls-34{fill:#5b2f20;}.cls-35{fill:#c9c4b5;}.cls-36,.cls-67,.cls-68{fill:#565353;}.cls-38{fill:#686d70;}.cls-39,.cls-40{fill:#bdc2b0;}.cls-40,.cls-67{opacity:0.5;}.cls-41{fill:#ccd0c2;}.cls-42{fill:#905601;}.cls-43{fill:#e3e3d1;}.cls-44{fill:#d82831;}.cls-45{fill:#ecece0;}.cls-46{fill:#f4f4e6;}.cls-47,.cls-66{opacity:0.35;}.cls-227,.cls-228,.cls-381,.cls-382,.cls-47{mix-blend-mode:overlay;}.cls-50{fill:#b8b8a6;}.cls-51{fill:#d3e995;}.cls-52{fill:#94ca00;}.cls-53{fill:#c1e1e8;}.cls-54{fill:#ddecee;}.cls-56{fill:#a9c43a;}.cls-57{fill:#bec4ba;}.cls-58{fill:#faf3e9;}.cls-59{fill:#e2e2c9;}.cls-60{fill:#b3b3b3;}.cls-61{fill:#a4a4a4;}.cls-62{fill:#94cf00;}.cls-63{fill:#76b000;}.cls-64{fill:#ccc2bd;}.cls-65{fill:url(#radial-gradient-2);}.cls-66{fill:url(#radial-gradient-3);}.cls-69{fill:#ec9a36;}.cls-70{fill:#da7f20;}.cls-71{fill:#e3a436;}.cls-72{fill:#ffca70;}.cls-73{fill:#fff450;}.cls-74{fill:#fff451;}.cls-75{fill:#fff452;}.cls-76{fill:#fff453;}.cls-77{fill:#fff454;}.cls-78{fill:#fff455;}.cls-79{fill:#fff456;}.cls-80{fill:#fff457;}.cls-81{fill:#fff458;}.cls-82{fill:#fff459;}.cls-83{fill:#fff45a;}.cls-84{fill:#fff45b;}.cls-85{fill:#fff45c;}.cls-86{fill:#fff45d;}.cls-87{fill:#fff45e;}.cls-88{fill:#fff45f;}.cls-89{fill:#fff460;}.cls-90{fill:#fff461;}.cls-91{fill:#fff462;}.cls-92{fill:#fff463;}.cls-93{fill:#fff464;}.cls-94{fill:#fff465;}.cls-95{fill:#fff466;}.cls-96{fill:#fff467;}.cls-97{fill:#fff468;}.cls-98{fill:#fff469;}.cls-99{fill:#fff569;}.cls-100{fill:#fff56a;}.cls-101{fill:#fff56b;}.cls-102{fill:#fff56c;}.cls-103{fill:#fff56d;}.cls-104{fill:#fff56e;}.cls-105{fill:#fff56f;}.cls-106{fill:#fff570;}.cls-107{fill:#fff571;}.cls-108{fill:#fff572;}.cls-109{fill:#fff573;}.cls-110{fill:#fff574;}.cls-111{fill:#fff575;}.cls-112{fill:#fff576;}.cls-113{fill:#fff577;}.cls-114{fill:#fff578;}.cls-115{fill:#fff579;}.cls-116{fill:#fff57a;}.cls-117{fill:#fff57b;}.cls-118{fill:#fff57c;}.cls-119{fill:#fff57d;}.cls-120{fill:#fff57e;}.cls-121{fill:#fff57f;}.cls-122{fill:#fff580;}.cls-123{fill:#fff581;}.cls-124{fill:#fff582;}.cls-125{fill:#fff583;}.cls-126{fill:#fff584;}.cls-127{fill:#fff585;}.cls-128{fill:#fff586;}.cls-129{fill:#fff587;}.cls-130{fill:#fff588;}.cls-131{fill:#fff589;}.cls-132{fill:#fff58a;}.cls-133{fill:#fff58b;}.cls-134{fill:#fff58c;}.cls-135{fill:#fff58d;}.cls-136{fill:#fff58e;}.cls-137{fill:#fff58f;}.cls-138{fill:#fff590;}.cls-139{fill:#fff591;}.cls-140{fill:#fff592;}.cls-141{fill:#fff593;}.cls-142{fill:#fff594;}.cls-143{fill:#fff595;}.cls-144{fill:#fff596;}.cls-145{fill:#fff597;}.cls-146{fill:#fff598;}.cls-147{fill:#fff599;}.cls-148{fill:#fff59a;}.cls-149{fill:#fff69a;}.cls-150{fill:#fff69b;}.cls-151{fill:#fff69c;}.cls-152{fill:#fff69d;}.cls-153{fill:#fff69e;}.cls-154{fill:#fff69f;}.cls-155{fill:#fff6a0;}.cls-156{fill:#fff6a1;}.cls-157{fill:#fff6a2;}.cls-158{fill:#fff6a3;}.cls-159{fill:#fff6a4;}.cls-160{fill:#fff6a5;}.cls-161{fill:#fff6a6;}.cls-162{fill:#fff6a7;}.cls-163{fill:#fff6a8;}.cls-164{fill:#fff6a9;}.cls-165{fill:#fff6aa;}.cls-166{fill:#fff6ab;}.cls-167{fill:#fff6ac;}.cls-168{fill:#fff6ad;}.cls-169{fill:#fff6ae;}.cls-170{fill:#fff6af;}.cls-171{fill:#fff6b0;}.cls-172{fill:#fff6b1;}.cls-173{fill:#fff6b2;}.cls-174{fill:#fff6b3;}.cls-175{fill:#fff6b4;}.cls-176{fill:#fff6b5;}.cls-177{fill:#fff6b6;}.cls-178{fill:#fff6b7;}.cls-179{fill:#fff6b8;}.cls-180{fill:#fff6b9;}.cls-181{fill:#fff6ba;}.cls-182{fill:#fff6bb;}.cls-183{fill:#fff6bc;}.cls-184{fill:#fff6bd;}.cls-185{fill:#fff6be;}.cls-186{fill:#fff6bf;}.cls-187{fill:#fff6c0;}.cls-188{fill:#fff6c1;}.cls-189{fill:#fff6c2;}.cls-190{fill:#fff6c3;}.cls-191{fill:#fff6c4;}.cls-192{fill:#fff6c5;}.cls-193{fill:#fff6c6;}.cls-194{fill:#fff6c7;}.cls-195{fill:#fff6c8;}.cls-196{fill:#fff6c9;}.cls-197{fill:#fff6ca;}.cls-198{fill:#fff6cb;}.cls-199{fill:#fff7cb;}.cls-200{fill:#fff7cc;}.cls-201{fill:#fff7cd;}.cls-202{fill:#fff7ce;}.cls-203{fill:#fff7cf;}.cls-204{fill:#fff7d0;}.cls-205{fill:#fff7d1;}.cls-206{fill:#fff7d2;}.cls-207{fill:#fff7d3;}.cls-208{fill:#fff7d4;}.cls-209{fill:#fff7d5;}.cls-210{fill:#fff7d6;}.cls-211{fill:#fff7d7;}.cls-212{fill:#fff7d8;}.cls-213{fill:#fff7d9;}.cls-214{fill:#fff7da;}.cls-215{fill:#fff7db;}.cls-216{fill:#fff7dc;}.cls-217{fill:#fff7dd;}.cls-218{fill:#fff7de;}.cls-219{fill:#fff7df;}.cls-220{fill:#fff7e0;}.cls-221{fill:#fff7e1;}.cls-222{fill:#fff7e2;}.cls-223{fill:#fff7e3;}.cls-224{fill:#fff7e4;}.cls-225{fill:#ffff4a;}.cls-226{mask:url(#mask);}.cls-227{fill:url(#radial-gradient-4);}.cls-229{fill:url(#radial-gradient-5);}.cls-230{fill:url(#radial-gradient-6);}.cls-231{fill:url(#radial-gradient-7);}.cls-232{fill:url(#radial-gradient-8);}.cls-233{fill:url(#radial-gradient-9);}.cls-234{fill:url(#radial-gradient-10);}.cls-235{fill:url(#radial-gradient-11);}.cls-236{fill:url(#radial-gradient-12);}.cls-237{fill:url(#radial-gradient-13);}.cls-238{fill:url(#radial-gradient-14);}.cls-239{fill:url(#radial-gradient-15);}.cls-240{fill:url(#radial-gradient-16);}.cls-241{fill:url(#radial-gradient-17);}.cls-242{fill:url(#radial-gradient-18);}.cls-243{fill:url(#radial-gradient-19);}.cls-244{fill:url(#radial-gradient-20);}.cls-245{fill:url(#radial-gradient-21);}.cls-246{fill:url(#radial-gradient-22);}.cls-247{fill:url(#radial-gradient-23);}.cls-248{fill:url(#radial-gradient-24);}.cls-249{fill:url(#radial-gradient-25);}.cls-250{fill:url(#radial-gradient-26);}.cls-251{fill:url(#radial-gradient-27);}.cls-252{fill:url(#radial-gradient-28);}.cls-253{fill:url(#radial-gradient-29);}.cls-254{fill:url(#radial-gradient-30);}.cls-255{fill:url(#radial-gradient-31);}.cls-256{fill:url(#radial-gradient-32);}.cls-257{fill:url(#radial-gradient-33);}.cls-258{fill:url(#radial-gradient-34);}.cls-259{fill:url(#radial-gradient-35);}.cls-260{fill:url(#radial-gradient-36);}.cls-261{fill:url(#radial-gradient-37);}.cls-262{fill:url(#radial-gradient-38);}.cls-263{fill:url(#radial-gradient-39);}.cls-264{fill:url(#radial-gradient-40);}.cls-265{fill:url(#radial-gradient-41);}.cls-266{fill:url(#radial-gradient-42);}.cls-267{fill:url(#radial-gradient-43);}.cls-268{fill:url(#radial-gradient-44);}.cls-269{fill:url(#radial-gradient-45);}.cls-270{fill:url(#radial-gradient-46);}.cls-271{fill:url(#radial-gradient-47);}.cls-272{fill:url(#radial-gradient-48);}.cls-273{fill:url(#radial-gradient-49);}.cls-274{fill:url(#radial-gradient-50);}.cls-275{fill:url(#radial-gradient-51);}.cls-276{fill:url(#radial-gradient-52);}.cls-277{fill:url(#radial-gradient-53);}.cls-278{fill:url(#radial-gradient-54);}.cls-279{fill:url(#radial-gradient-55);}.cls-280{fill:url(#radial-gradient-56);}.cls-281{fill:url(#radial-gradient-57);}.cls-282{fill:url(#radial-gradient-58);}.cls-283{fill:url(#radial-gradient-59);}.cls-284{fill:url(#radial-gradient-60);}.cls-285{fill:url(#radial-gradient-61);}.cls-286{fill:url(#radial-gradient-62);}.cls-287{fill:url(#radial-gradient-63);}.cls-288{fill:url(#radial-gradient-64);}.cls-289{fill:url(#radial-gradient-65);}.cls-290{fill:url(#radial-gradient-66);}.cls-291{fill:url(#radial-gradient-67);}.cls-292{fill:url(#radial-gradient-68);}.cls-293{fill:url(#radial-gradient-69);}.cls-294{fill:url(#radial-gradient-70);}.cls-295{fill:url(#radial-gradient-71);}.cls-296{fill:url(#radial-gradient-72);}.cls-297{fill:url(#radial-gradient-73);}.cls-298{fill:url(#radial-gradient-74);}.cls-299{fill:url(#radial-gradient-75);}.cls-300{fill:url(#radial-gradient-76);}.cls-301{fill:url(#radial-gradient-77);}.cls-302{fill:url(#radial-gradient-78);}.cls-303{fill:url(#radial-gradient-79);}.cls-304{fill:url(#radial-gradient-80);}.cls-305{fill:url(#radial-gradient-81);}.cls-306{fill:url(#radial-gradient-82);}.cls-307{fill:url(#radial-gradient-83);}.cls-308{fill:url(#radial-gradient-84);}.cls-309{fill:url(#radial-gradient-85);}.cls-310{fill:url(#radial-gradient-86);}.cls-311{fill:url(#radial-gradient-87);}.cls-312{fill:url(#radial-gradient-88);}.cls-313{fill:url(#radial-gradient-89);}.cls-314{fill:url(#radial-gradient-90);}.cls-315{fill:url(#radial-gradient-91);}.cls-316{fill:url(#radial-gradient-92);}.cls-317{fill:url(#radial-gradient-93);}.cls-318{fill:url(#radial-gradient-94);}.cls-319{fill:url(#radial-gradient-95);}.cls-320{fill:url(#radial-gradient-96);}.cls-321{fill:url(#radial-gradient-97);}.cls-322{fill:url(#radial-gradient-98);}.cls-323{fill:url(#radial-gradient-99);}.cls-324{fill:url(#radial-gradient-100);}.cls-325{fill:url(#radial-gradient-101);}.cls-326{fill:url(#radial-gradient-102);}.cls-327{fill:url(#radial-gradient-103);}.cls-328{fill:url(#radial-gradient-104);}.cls-329{fill:url(#radial-gradient-105);}.cls-330{fill:url(#radial-gradient-106);}.cls-331{fill:url(#radial-gradient-107);}.cls-332{fill:url(#radial-gradient-108);}.cls-333{fill:url(#radial-gradient-109);}.cls-334{fill:url(#radial-gradient-110);}.cls-335{fill:url(#radial-gradient-111);}.cls-336{fill:url(#radial-gradient-112);}.cls-337{fill:url(#radial-gradient-113);}.cls-338{fill:url(#radial-gradient-114);}.cls-339{fill:url(#radial-gradient-115);}.cls-340{fill:url(#radial-gradient-116);}.cls-341{fill:url(#radial-gradient-117);}.cls-342{fill:url(#radial-gradient-118);}.cls-343{fill:url(#radial-gradient-119);}.cls-344{fill:url(#radial-gradient-120);}.cls-345{fill:url(#radial-gradient-121);}.cls-346{fill:url(#radial-gradient-122);}.cls-347{fill:url(#radial-gradient-123);}.cls-348{fill:url(#radial-gradient-124);}.cls-349{fill:url(#radial-gradient-125);}.cls-350{fill:url(#radial-gradient-126);}.cls-351{fill:url(#radial-gradient-127);}.cls-352{fill:url(#radial-gradient-128);}.cls-353{fill:url(#radial-gradient-129);}.cls-354{fill:url(#radial-gradient-130);}.cls-355{fill:url(#radial-gradient-131);}.cls-356{fill:url(#radial-gradient-132);}.cls-357{fill:url(#radial-gradient-133);}.cls-358{fill:url(#radial-gradient-134);}.cls-359{fill:url(#radial-gradient-135);}.cls-360{fill:url(#radial-gradient-136);}.cls-361{fill:url(#radial-gradient-137);}.cls-362{fill:url(#radial-gradient-138);}.cls-363{fill:url(#radial-gradient-139);}.cls-364{fill:url(#radial-gradient-140);}.cls-365{fill:url(#radial-gradient-141);}.cls-366{fill:url(#radial-gradient-142);}.cls-367{fill:url(#radial-gradient-143);}.cls-368{fill:url(#radial-gradient-144);}.cls-369{fill:url(#radial-gradient-145);}.cls-370{fill:url(#radial-gradient-146);}.cls-371{fill:url(#radial-gradient-147);}.cls-372{fill:url(#radial-gradient-148);}.cls-373{fill:url(#radial-gradient-149);}.cls-374{fill:url(#radial-gradient-150);}.cls-375{fill:url(#radial-gradient-151);}.cls-376{fill:url(#radial-gradient-152);}.cls-377{fill:url(#radial-gradient-153);}.cls-378{fill:url(#radial-gradient-154);}.cls-379{fill:url(#radial-gradient-155);}.cls-380{fill:url(#radial-gradient-156);}.cls-381{fill:url(#radial-gradient-157);}.cls-382{fill:url(#radial-gradient-158);}</style><radialGradient id="radial-gradient" cx="94.62" cy="76.12" r="32.49" gradientTransform="translate(-3.98 -0.16) scale(1.06 1)" gradientUnits="userSpaceOnUse"><stop offset="0" stop-color="#fff"/><stop offset="0.14" stop-color="#e2e2e2"/><stop offset="0.43" stop-color="#999"/><stop offset="0.87" stop-color="#262626"/><stop offset="1"/></radialGradient><linearGradient id="linear-gradient" x1="81.67" y1="10.16" x2="38.24" y2="174.39" gradientUnits="userSpaceOnUse"><stop offset="0.05" stop-color="#98d2ef"/><stop offset="1" stop-color="#336d9d"/></linearGradient><radialGradient id="radial-gradient-2" cx="93.52" cy="91.02" r="24.91" gradientTransform="translate(-3.98 -0.15) scale(1.06 1)" gradientUnits="userSpaceOnUse"><stop offset="0.08" stop-color="#878585"/><stop offset="1" stop-color="#737171"/></radialGradient><radialGradient id="radial-gradient-3" cx="93.77" cy="89.76" r="25.06" xlink:href="#radial-gradient-2"/><mask id="mask" x="64.7" y="46.17" width="62.64" height="59.34" maskUnits="userSpaceOnUse"><ellipse class="cls-1" cx="96.02" cy="75.84" rx="31.32" ry="29.67"/></mask><radialGradient id="radial-gradient-4" cx="94.62" cy="76.12" r="32.49" gradientTransform="translate(-3.98 -0.16) scale(1.06 1)" gradientUnits="userSpaceOnUse"><stop offset="0" stop-color="#ececd1"/><stop offset="0.4" stop-color="#c4c4b3"/><stop offset="1" stop-color="#828282"/></radialGradient><radialGradient id="radial-gradient-5" cx="94.41" cy="73.78" r="8.99" gradientTransform="translate(-3.98 -0.15) scale(1.06 1)" gradientUnits="userSpaceOnUse"><stop offset="0" stop-color="#c9b677"/><stop offset="1" stop-color="#a48470"/></radialGradient><radialGradient id="radial-gradient-6" cx="94.4" cy="73.79" r="8.97" xlink:href="#radial-gradient-5"/><radialGradient id="radial-gradient-7" cx="94.4" cy="73.81" r="8.95" xlink:href="#radial-gradient-5"/><radialGradient id="radial-gradient-8" cx="94.4" cy="73.83" r="8.93" xlink:href="#radial-gradient-5"/><radialGradient id="radial-gradient-9" cx="94.4" cy="73.85" r="8.91" xlink:href="#radial-gradient-5"/><radialGradient id="radial-gradient-10" cx="94.4" cy="73.87" r="8.89" xlink:href="#radial-gradient-5"/><radialGradient id="radial-gradient-11" cx="94.4" cy="73.89" r="8.86" xlink:href="#radial-gradient-5"/><radialGradient id="radial-gradient-12" cx="94.4" cy="73.91" r="8.84" xlink:href="#radial-gradient-5"/><radialGradient id="radial-gradient-13" cx="94.4" cy="73.93" r="8.82" xlink:href="#radial-gradient-5"/><radialGradient id="radial-gradient-14" cx="94.4" cy="73.94" r="8.8" xlink:href="#radial-gradient-5"/><radialGradient id="radial-gradient-15" cx="94.4" cy="73.96" r="8.77" xlink:href="#radial-gradient-5"/><radialGradient id="radial-gradient-16" cx="94.4" cy="73.98" r="8.75" xlink:href="#radial-gradient-5"/><radialGradient id="radial-gradient-17" cx="94.39" cy="74" r="8.73" xlink:href="#radial-gradient-5"/><radialGradient id="radial-gradient-18" cx="94.39" cy="74.02" r="8.71" xlink:href="#radial-gradient-5"/><radialGradient id="radial-gradient-19" cx="94.39" cy="74.04" r="8.69" xlink:href="#radial-gradient-5"/><radialGradient id="radial-gradient-20" cx="94.39" cy="74.06" r="8.67" xlink:href="#radial-gradient-5"/><radialGradient id="radial-gradient-21" cx="94.39" cy="74.08" r="8.64" xlink:href="#radial-gradient-5"/><radialGradient id="radial-gradient-22" cx="94.39" cy="74.1" r="8.62" xlink:href="#radial-gradient-5"/><radialGradient id="radial-gradient-23" cx="94.39" cy="74.11" r="8.6" xlink:href="#radial-gradient-5"/><radialGradient id="radial-gradient-24" cx="94.39" cy="74.13" r="8.58" xlink:href="#radial-gradient-5"/><radialGradient id="radial-gradient-25" cx="94.39" cy="74.15" r="8.56" xlink:href="#radial-gradient-5"/><radialGradient id="radial-gradient-26" cx="94.39" cy="74.17" r="8.54" xlink:href="#radial-gradient-5"/><radialGradient id="radial-gradient-27" cx="94.38" cy="74.19" r="8.51" xlink:href="#radial-gradient-5"/><radialGradient id="radial-gradient-28" cx="94.38" cy="74.21" r="8.49" xlink:href="#radial-gradient-5"/><radialGradient id="radial-gradient-29" cx="94.38" cy="74.23" r="8.47" xlink:href="#radial-gradient-5"/><radialGradient id="radial-gradient-30" cx="94.38" cy="74.25" r="8.45" xlink:href="#radial-gradient-5"/><radialGradient id="radial-gradient-31" cx="94.38" cy="74.27" r="8.43" xlink:href="#radial-gradient-5"/><radialGradient id="radial-gradient-32" cx="94.38" cy="74.28" r="8.41" xlink:href="#radial-gradient-5"/><radialGradient id="radial-gradient-33" cx="94.38" cy="74.3" r="8.39" xlink:href="#radial-gradient-5"/><radialGradient id="radial-gradient-34" cx="94.38" cy="74.32" r="8.36" xlink:href="#radial-gradient-5"/><radialGradient id="radial-gradient-35" cx="94.38" cy="74.34" r="8.34" xlink:href="#radial-gradient-5"/><radialGradient id="radial-gradient-36" cx="94.37" cy="74.36" r="8.32" xlink:href="#radial-gradient-5"/><radialGradient id="radial-gradient-37" cx="94.37" cy="74.38" r="8.3" xlink:href="#radial-gradient-5"/><radialGradient id="radial-gradient-38" cx="94.37" cy="74.4" r="8.28" xlink:href="#radial-gradient-5"/><radialGradient id="radial-gradient-39" cx="94.37" cy="74.42" r="8.26" xlink:href="#radial-gradient-5"/><radialGradient id="radial-gradient-40" cx="94.37" cy="74.44" r="8.23" xlink:href="#radial-gradient-5"/><radialGradient id="radial-gradient-41" cx="94.37" cy="74.46" r="8.21" xlink:href="#radial-gradient-5"/><radialGradient id="radial-gradient-42" cx="94.37" cy="74.48" r="8.19" xlink:href="#radial-gradient-5"/><radialGradient id="radial-gradient-43" cx="94.37" cy="74.49" r="8.17" xlink:href="#radial-gradient-5"/><radialGradient id="radial-gradient-44" cx="94.37" cy="74.51" r="8.15" xlink:href="#radial-gradient-5"/><radialGradient id="radial-gradient-45" cx="94.36" cy="74.53" r="8.13" xlink:href="#radial-gradient-5"/><radialGradient id="radial-gradient-46" cx="94.36" cy="74.55" r="8.11" xlink:href="#radial-gradient-5"/><radialGradient id="radial-gradient-47" cx="94.36" cy="74.57" r="8.08" xlink:href="#radial-gradient-5"/><radialGradient id="radial-gradient-48" cx="94.36" cy="74.59" r="8.06" xlink:href="#radial-gradient-5"/><radialGradient id="radial-gradient-49" cx="94.36" cy="74.61" r="8.04" xlink:href="#radial-gradient-5"/><radialGradient id="radial-gradient-50" cx="94.36" cy="74.63" r="8.02" xlink:href="#radial-gradient-5"/><radialGradient id="radial-gradient-51" cx="94.36" cy="74.65" r="8" xlink:href="#radial-gradient-5"/><radialGradient id="radial-gradient-52" cx="94.36" cy="74.67" r="7.98" xlink:href="#radial-gradient-5"/><radialGradient id="radial-gradient-53" cx="94.35" cy="74.69" r="7.96" xlink:href="#radial-gradient-5"/><radialGradient id="radial-gradient-54" cx="94.35" cy="74.71" r="7.94" xlink:href="#radial-gradient-5"/><radialGradient id="radial-gradient-55" cx="94.35" cy="74.73" r="7.91" xlink:href="#radial-gradient-5"/><radialGradient id="radial-gradient-56" cx="94.35" cy="74.74" r="7.89" xlink:href="#radial-gradient-5"/><radialGradient id="radial-gradient-57" cx="94.35" cy="74.76" r="7.87" xlink:href="#radial-gradient-5"/><radialGradient id="radial-gradient-58" cx="94.35" cy="74.78" r="7.85" xlink:href="#radial-gradient-5"/><radialGradient id="radial-gradient-59" cx="94.35" cy="74.8" r="7.83" xlink:href="#radial-gradient-5"/><radialGradient id="radial-gradient-60" cx="94.35" cy="74.82" r="7.81" xlink:href="#radial-gradient-5"/><radialGradient id="radial-gradient-61" cx="94.35" cy="74.84" r="7.79" xlink:href="#radial-gradient-5"/><radialGradient id="radial-gradient-62" cx="94.34" cy="74.86" r="7.77" xlink:href="#radial-gradient-5"/><radialGradient id="radial-gradient-63" cx="94.34" cy="74.88" r="7.74" xlink:href="#radial-gradient-5"/><radialGradient id="radial-gradient-64" cx="94.34" cy="74.9" r="7.72" xlink:href="#radial-gradient-5"/><radialGradient id="radial-gradient-65" cx="94.34" cy="74.92" r="7.7" xlink:href="#radial-gradient-5"/><radialGradient id="radial-gradient-66" cx="94.34" cy="74.94" r="7.68" xlink:href="#radial-gradient-5"/><radialGradient id="radial-gradient-67" cx="94.34" cy="74.96" r="7.66" xlink:href="#radial-gradient-5"/><radialGradient id="radial-gradient-68" cx="94.34" cy="74.98" r="7.64" xlink:href="#radial-gradient-5"/><radialGradient id="radial-gradient-69" cx="94.33" cy="75" r="7.62" xlink:href="#radial-gradient-5"/><radialGradient id="radial-gradient-70" cx="94.33" cy="75.02" r="7.6" xlink:href="#radial-gradient-5"/><radialGradient id="radial-gradient-71" cx="94.33" cy="75.04" r="7.57" xlink:href="#radial-gradient-5"/><radialGradient id="radial-gradient-72" cx="94.33" cy="75.05" r="7.55" xlink:href="#radial-gradient-5"/><radialGradient id="radial-gradient-73" cx="94.33" cy="75.07" r="7.53" xlink:href="#radial-gradient-5"/><radialGradient id="radial-gradient-74" cx="94.33" cy="75.09" r="7.51" xlink:href="#radial-gradient-5"/><radialGradient id="radial-gradient-75" cx="94.33" cy="75.11" r="7.49" xlink:href="#radial-gradient-5"/><radialGradient id="radial-gradient-76" cx="94.33" cy="75.13" r="7.47" xlink:href="#radial-gradient-5"/><radialGradient id="radial-gradient-77" cx="94.32" cy="75.15" r="7.45" xlink:href="#radial-gradient-5"/><radialGradient id="radial-gradient-78" cx="94.32" cy="75.17" r="7.43" xlink:href="#radial-gradient-5"/><radialGradient id="radial-gradient-79" cx="94.32" cy="75.19" r="7.41" xlink:href="#radial-gradient-5"/><radialGradient id="radial-gradient-80" cx="94.32" cy="75.21" r="7.39" xlink:href="#radial-gradient-5"/><radialGradient id="radial-gradient-81" cx="94.32" cy="75.23" r="7.36" xlink:href="#radial-gradient-5"/><radialGradient id="radial-gradient-82" cx="94.32" cy="75.25" r="7.34" xlink:href="#radial-gradient-5"/><radialGradient id="radial-gradient-83" cx="94.32" cy="75.27" r="7.32" xlink:href="#radial-gradient-5"/><radialGradient id="radial-gradient-84" cx="94.31" cy="75.29" r="7.3" xlink:href="#radial-gradient-5"/><radialGradient id="radial-gradient-85" cx="94.31" cy="75.31" r="7.28" xlink:href="#radial-gradient-5"/><radialGradient id="radial-gradient-86" cx="94.31" cy="75.33" r="7.26" xlink:href="#radial-gradient-5"/><radialGradient id="radial-gradient-87" cx="94.31" cy="75.35" r="7.24" xlink:href="#radial-gradient-5"/><radialGradient id="radial-gradient-88" cx="94.31" cy="75.37" r="7.22" xlink:href="#radial-gradient-5"/><radialGradient id="radial-gradient-89" cx="94.31" cy="75.39" r="7.2" xlink:href="#radial-gradient-5"/><radialGradient id="radial-gradient-90" cx="94.31" cy="75.41" r="7.18" xlink:href="#radial-gradient-5"/><radialGradient id="radial-gradient-91" cx="94.3" cy="75.43" r="7.16" xlink:href="#radial-gradient-5"/><radialGradient id="radial-gradient-92" cx="94.3" cy="75.45" r="7.14" xlink:href="#radial-gradient-5"/><radialGradient id="radial-gradient-93" cx="94.3" cy="75.47" r="7.11" xlink:href="#radial-gradient-5"/><radialGradient id="radial-gradient-94" cx="94.3" cy="75.49" r="7.09" xlink:href="#radial-gradient-5"/><radialGradient id="radial-gradient-95" cx="94.3" cy="75.51" r="7.07" xlink:href="#radial-gradient-5"/><radialGradient id="radial-gradient-96" cx="94.3" cy="75.53" r="7.05" xlink:href="#radial-gradient-5"/><radialGradient id="radial-gradient-97" cx="94.29" cy="75.55" r="7.03" xlink:href="#radial-gradient-5"/><radialGradient id="radial-gradient-98" cx="94.29" cy="75.57" r="7.01" xlink:href="#radial-gradient-5"/><radialGradient id="radial-gradient-99" cx="94.29" cy="75.59" r="6.99" xlink:href="#radial-gradient-5"/><radialGradient id="radial-gradient-100" cx="94.29" cy="75.61" r="6.97" xlink:href="#radial-gradient-5"/><radialGradient id="radial-gradient-101" cx="94.29" cy="75.63" r="6.95" xlink:href="#radial-gradient-5"/><radialGradient id="radial-gradient-102" cx="94.29" cy="75.65" r="6.93" xlink:href="#radial-gradient-5"/><radialGradient id="radial-gradient-103" cx="94.29" cy="75.67" r="6.91" xlink:href="#radial-gradient-5"/><radialGradient id="radial-gradient-104" cx="94.28" cy="75.69" r="6.89" xlink:href="#radial-gradient-5"/><radialGradient id="radial-gradient-105" cx="94.28" cy="75.71" r="6.87" xlink:href="#radial-gradient-5"/><radialGradient id="radial-gradient-106" cx="94.28" cy="75.73" r="6.85" xlink:href="#radial-gradient-5"/><radialGradient id="radial-gradient-107" cx="94.28" cy="75.75" r="6.83" xlink:href="#radial-gradient-5"/><radialGradient id="radial-gradient-108" cx="94.28" cy="75.77" r="6.81" xlink:href="#radial-gradient-5"/><radialGradient id="radial-gradient-109" cx="94.28" cy="75.79" r="6.79" xlink:href="#radial-gradient-5"/><radialGradient id="radial-gradient-110" cx="94.27" cy="75.81" r="6.76" xlink:href="#radial-gradient-5"/><radialGradient id="radial-gradient-111" cx="94.27" cy="75.83" r="6.74" xlink:href="#radial-gradient-5"/><radialGradient id="radial-gradient-112" cx="94.27" cy="75.85" r="6.72" xlink:href="#radial-gradient-5"/><radialGradient id="radial-gradient-113" cx="94.27" cy="75.87" r="6.7" xlink:href="#radial-gradient-5"/><radialGradient id="radial-gradient-114" cx="94.27" cy="75.89" r="6.68" xlink:href="#radial-gradient-5"/><radialGradient id="radial-gradient-115" cx="94.27" cy="75.91" r="6.66" xlink:href="#radial-gradient-5"/><radialGradient id="radial-gradient-116" cx="94.27" cy="75.93" r="6.64" xlink:href="#radial-gradient-5"/><radialGradient id="radial-gradient-117" cx="94.26" cy="75.95" r="6.62" xlink:href="#radial-gradient-5"/><radialGradient id="radial-gradient-118" cx="94.26" cy="75.97" r="6.6" xlink:href="#radial-gradient-5"/><radialGradient id="radial-gradient-119" cx="94.26" cy="75.99" r="6.58" xlink:href="#radial-gradient-5"/><radialGradient id="radial-gradient-120" cx="94.26" cy="76.01" r="6.56" xlink:href="#radial-gradient-5"/><radialGradient id="radial-gradient-121" cx="94.26" cy="76.03" r="6.54" xlink:href="#radial-gradient-5"/><radialGradient id="radial-gradient-122" cx="94.26" cy="76.05" r="6.52" xlink:href="#radial-gradient-5"/><radialGradient id="radial-gradient-123" cx="94.25" cy="76.07" r="6.5" xlink:href="#radial-gradient-5"/><radialGradient id="radial-gradient-124" cx="94.25" cy="76.09" r="6.48" xlink:href="#radial-gradient-5"/><radialGradient id="radial-gradient-125" cx="94.25" cy="76.12" r="6.46" xlink:href="#radial-gradient-5"/><radialGradient id="radial-gradient-126" cx="94.25" cy="76.14" r="6.44" xlink:href="#radial-gradient-5"/><radialGradient id="radial-gradient-127" cx="94.25" cy="76.16" r="6.42" xlink:href="#radial-gradient-5"/><radialGradient id="radial-gradient-128" cx="94.25" cy="76.18" r="6.4" xlink:href="#radial-gradient-5"/><radialGradient id="radial-gradient-129" cx="94.24" cy="76.2" r="6.38" xlink:href="#radial-gradient-5"/><radialGradient id="radial-gradient-130" cx="94.24" cy="76.22" r="6.36" xlink:href="#radial-gradient-5"/><radialGradient id="radial-gradient-131" cx="94.24" cy="76.24" r="6.34" xlink:href="#radial-gradient-5"/><radialGradient id="radial-gradient-132" cx="94.24" cy="76.26" r="6.32" xlink:href="#radial-gradient-5"/><radialGradient id="radial-gradient-133" cx="94.24" cy="76.28" r="6.3" xlink:href="#radial-gradient-5"/><radialGradient id="radial-gradient-134" cx="94.24" cy="76.3" r="6.28" xlink:href="#radial-gradient-5"/><radialGradient id="radial-gradient-135" cx="94.23" cy="76.32" r="6.26" xlink:href="#radial-gradient-5"/><radialGradient id="radial-gradient-136" cx="94.23" cy="76.34" r="6.24" xlink:href="#radial-gradient-5"/><radialGradient id="radial-gradient-137" cx="94.23" cy="76.36" r="6.22" xlink:href="#radial-gradient-5"/><radialGradient id="radial-gradient-138" cx="94.23" cy="76.39" r="6.2" xlink:href="#radial-gradient-5"/><radialGradient id="radial-gradient-139" cx="94.23" cy="76.41" r="6.18" xlink:href="#radial-gradient-5"/><radialGradient id="radial-gradient-140" cx="94.23" cy="76.43" r="6.16" xlink:href="#radial-gradient-5"/><radialGradient id="radial-gradient-141" cx="94.22" cy="76.45" r="6.14" xlink:href="#radial-gradient-5"/><radialGradient id="radial-gradient-142" cx="94.22" cy="76.47" r="6.12" xlink:href="#radial-gradient-5"/><radialGradient id="radial-gradient-143" cx="94.22" cy="76.49" r="6.1" xlink:href="#radial-gradient-5"/><radialGradient id="radial-gradient-144" cx="94.22" cy="76.51" r="6.08" xlink:href="#radial-gradient-5"/><radialGradient id="radial-gradient-145" cx="94.22" cy="76.53" r="6.06" xlink:href="#radial-gradient-5"/><radialGradient id="radial-gradient-146" cx="94.22" cy="76.55" r="6.04" xlink:href="#radial-gradient-5"/><radialGradient id="radial-gradient-147" cx="94.21" cy="76.57" r="6.02" xlink:href="#radial-gradient-5"/><radialGradient id="radial-gradient-148" cx="94.21" cy="76.6" r="6" xlink:href="#radial-gradient-5"/><radialGradient id="radial-gradient-149" cx="94.21" cy="76.62" r="5.98" xlink:href="#radial-gradient-5"/><radialGradient id="radial-gradient-150" cx="94.21" cy="76.64" r="5.96" xlink:href="#radial-gradient-5"/><radialGradient id="radial-gradient-151" cx="94.21" cy="76.66" r="5.95" xlink:href="#radial-gradient-5"/><radialGradient id="radial-gradient-152" cx="94.21" cy="76.68" r="5.93" xlink:href="#radial-gradient-5"/><radialGradient id="radial-gradient-153" cx="94.2" cy="76.7" r="5.91" xlink:href="#radial-gradient-5"/><radialGradient id="radial-gradient-154" cx="94.2" cy="76.72" r="5.89" xlink:href="#radial-gradient-5"/><radialGradient id="radial-gradient-155" cx="94.2" cy="76.75" r="5.87" xlink:href="#radial-gradient-5"/><radialGradient id="radial-gradient-156" cx="94.2" cy="76.77" r="5.85" xlink:href="#radial-gradient-5"/><radialGradient id="radial-gradient-157" cx="72.23" cy="76.16" r="119.32" gradientTransform="translate(-3.98 -0.15) scale(1.06 1)" gradientUnits="userSpaceOnUse"><stop offset="0" stop-color="#86361b"/><stop offset="1" stop-color="#b29889"/></radialGradient><radialGradient id="radial-gradient-158" cx="92.13" cy="127.24" r="8.73" xlink:href="#radial-gradient-5"/></defs><g class="cls-2"><g id="Layer_2" data-name="Layer 2"><g id="Layer_2-2" data-name="Layer 2"><path class="cls-3" d="M46.69,102S-9.53,90.67,8.89,36.1c15.69-46.51,96.72-47.47,118.37-6,12.75,24.45,5.55,55.79-13.94,64.18C100.25,99.94,74.37,102.81,46.69,102Z"/><path class="cls-4" d="M124.53,54.82l1.93-5.17c1.49.52,3,.8,3.64-.08,1.34-1.78-2.56-3.6-3.87-4s-5.51-2-6.58-.61c-.74,1,.69,2,2.12,2.68L118.05,53c-10.56-8-24.2-4.72-24.2-4.72C80,44,70.4,47.6,70.4,47.6l-.69-5.55c1.42-.34,2.76-1.54,1.08-2.67-1.87-1.25-4.91-.84-7-.54-1.16.16-4.94,1-3.4,2.63a3.11,3.11,0,0,0,2.22.77l-.4,6c-8.71-1.61-13.78,2.27-13.78,2.27L42.14,55C38.58,46.48,28,50.7,28,50.7L26.11,45c1.12-.77,1.93-1.8.69-2.81a2.33,2.33,0,0,0-1.16-.47,12.21,12.21,0,0,0-7.39.71c-1.43.59-5.14,2.21-3.74,4.13a3.26,3.26,0,0,0,2.71,1l2.27,6.57C12,55.63,8.13,61.51,6.23,66.42,12.68,95.13,46.69,102,46.69,102c27.68.84,53.56-2,66.63-7.65C124,89.74,130.94,78.31,133,64.9A39.83,39.83,0,0,0,124.53,54.82Z"/><g class="cls-5"><path class="cls-6" d="M27.43,29.49A2.28,2.28,0,0,1,25,31.57a2.28,2.28,0,0,1-2.44-2.08A2.28,2.28,0,0,1,25,27.41,2.28,2.28,0,0,1,27.43,29.49Z"/><path class="cls-6" d="M30.39,36.24A1.49,1.49,0,1,1,28.91,35,1.39,1.39,0,0,1,30.39,36.24Z"/><ellipse class="cls-6" cx="14.5" cy="39.28" rx="1.9" ry="1.74"/><path class="cls-6" d="M38.58,18a3.1,3.1,0,0,1-6.17,0,3.1,3.1,0,0,1,6.17,0Z"/><ellipse class="cls-6" cx="44.58" cy="23.47" rx="1.41" ry="1.35"/><path class="cls-6" d="M56.34,9.37a2.25,2.25,0,0,1-4.45,0,2.25,2.25,0,0,1,4.45,0Z"/><path class="cls-6" d="M80.89,6.37a1.31,1.31,0,0,1-2.58,0,1.31,1.31,0,0,1,2.58,0Z"/><path class="cls-6" d="M114.34,20.72a3,3,0,0,1-6,0,3,3,0,0,1,6,0Z"/><path class="cls-6" d="M113.71,31.94a1.51,1.51,0,1,1-1.51-1.44A1.47,1.47,0,0,1,113.71,31.94Z"/><path class="cls-6" d="M126.43,34.43a2.62,2.62,0,1,1-2.62-2.49A2.55,2.55,0,0,1,126.43,34.43Z"/></g><path class="cls-7" d="M140,100.54S110.22,83.29,64.47,83.47C28,83.62,0,98.74,0,98.74s18,18.59,62.92,22.88C90.43,124.25,129.83,112.26,140,100.54Z"/><path class="cls-8" d="M35.12,94.82,5.86,112c10.42,3.92,21.21,7,32.4,8.08,6,.57,12.37,3.78,16.9,7.56,0,0,18.27-18.11,22.42-19.46C77.58,108.21,46.74,94.94,35.12,94.82Z"/><path class="cls-9" d="M35.49,92.76,6.23,110c10.42,3.91,21.22,7,32.4,8.07,6,.57,12.37,3.78,16.91,7.56,0,0,18.26-18.11,22.41-19.46C78,106.15,47.12,92.88,35.49,92.76Z"/><path class="cls-10" d="M9.61,108.52c1.39-.09,2.77-.24,4.17-.34,1.19-.09,2.38-.13,3.57-.17l1-.09c2.25-.21,4.5-.31,6.75-.36l.32,0,.22,0a21.22,21.22,0,0,0,2.24-.63l.93-.35.16-.08c.55-.27,1.1-.55,1.63-.86a41.24,41.24,0,0,0,4.1-2.68l.56-.42c.07-.06.18-.16.36-.3l.84-.71c-1.75-.32-3.51-.64-5.27-.9-.55-.08-1.09-.14-1.64-.2l-.53,0c-.69-.06-1.38-.1-2.08-.14A14.63,14.63,0,0,1,19.75,102l-11.1,6.53Q9.13,108.55,9.61,108.52Z"/><path class="cls-10" d="M40.12,103a15.79,15.79,0,0,1,4.42,3.56h.14c.53,0,1.07,0,1.59,0,2.8.09,5.59-.1,8.38,0a36.38,36.38,0,0,1,5.8.64c.65.12,1.3.26,2,.37.19,0,1.71.14,1.2.14a8.19,8.19,0,0,0,1,0c.27-.06.86-.17,1-.22l.5-.15a28.1,28.1,0,0,1,2.44-1.41c1.3-.68,2.65-1.33,4-1.88C68.3,102.19,62,99.72,55.5,97.54a22.74,22.74,0,0,1-13,5.34C41.71,102.92,40.91,102.93,40.12,103Z"/><path class="cls-10" d="M35.61,113.48a18.75,18.75,0,0,1,6.8-1.07c.86-.26,1.71-.56,2.54-.9.17-.07.59-.31.87-.47l.23-.15c-1.22-.1-2.44-.21-3.64-.41a54,54,0,0,1-7.52-1.87l-.33,0c-.7.11-1.4.2-2.1.3l-.16,0c-1.35.31-2.69.71-4,1.14-2.72.91-5.39,2-8,3l-2.14.83a120.61,120.61,0,0,0,12.49,3A11.65,11.65,0,0,1,35.61,113.48Z"/><path class="cls-10" d="M64.45,114.11c-.17,0-1.87-.18-1.09-.13-.51,0-1-.07-1.53-.08-1.29,0-2.59-.05-3.88,0-.63,0-1.26.07-1.9.14l-.37,0-.14,0a23.76,23.76,0,0,0-3.34,1c-.19.07-1.19.52-1.05.45l-.39.19c-2,1-4,2.19-5.95,3.33-.13.08-.26.16-.4.23a35.91,35.91,0,0,1,11.13,6.28s5.81-5.76,11.62-11C66.26,114.4,65.36,114.23,64.45,114.11Z"/><path class="cls-8" d="M67.56,94.4Z"/><path class="cls-8" d="M123,93.21l-8.3-2a97,97,0,0,0-10.85-2.91L102,84.52l-6.64-.18-2.75-.08h-.29l-1.69,2.38L80.27,89.74a30,30,0,0,0-3.41,1l-8.59,4-.52-.24h0l-.19-.08.19.08c-.64-.28-1.3-.56-2-.82a50.83,50.83,0,0,0-7.41-2c-1.13-.21-2.28-.42-3.43-.55L53.89,91,53.48,91s-.16,0-.09,0c-7.8-.58-15.59.19-23.35,1a7.61,7.61,0,0,1-3.54,2.61,6.38,6.38,0,0,1-2.25.39c-.82,0-1.55-.31-2.35-.37-1.29,0-2.61,0-3.91.11-.12,0-1.21.24-1.23.2l.64-.16c-1.07.25-2.15.49-3.19.84-.36.12-.47.1-.62-.25,0,0-.16-.55-.17-.55-1.7.73-5.74,2.74-5.74,2.74a4.22,4.22,0,0,0,2.37,2.5,13,13,0,0,0,4,1.24c3.46.57,12.33-.58,12.33-.58a24.83,24.83,0,0,0,3.24,1.57c2.77,1.16,7.37,3.12,10.35,3.63a74.4,74.4,0,0,0,21.29-.2c1.16.5,2.43,1,3.86,1.55a185,185,0,0,0,22.45,6.92l1.94.45h0c2.26.5,4.54.94,6.82,1.34h0a9.74,9.74,0,0,0,3,0,18.9,18.9,0,0,0,2.84-.76c2-.62,4-1.27,6-2s4-1.35,6-2.19c.92-.4,1.83-.83,2.77-1.2a29.57,29.57,0,0,1,3-.86,37.27,37.27,0,0,0,15.27-8,16.23,16.23,0,0,0,1.45-1.42Z"/><path class="cls-11" d="M11.89,97.15,10.23,60.87l15.42-2,5.22,35.71S22.33,101.88,11.89,97.15Z"/><path class="cls-12" d="M17.25,67.48a25.07,25.07,0,0,1-3.83-.3l1.12,24.36c7.24,3.28,13.17-1.8,13.17-1.8L24.28,66.26A20.61,20.61,0,0,1,17.25,67.48Z"/><path class="cls-13" d="M26.8,79.47c-2.4-.17-5.31,1.55-7.68,1.13-2.57-.45-5.7-2.13-8.27-6.22l1,22.77c10.44,4.73,19-2.59,19-2.59l-2.19-15Z"/><path class="cls-14" d="M14.22,60.35l-4,.52,1.66,36.28a17.2,17.2,0,0,0,7.88,1.57C15.15,95.07,14.52,67.69,14.22,60.35Z"/><path class="cls-9" d="M14.19,56.18l-4,4.69A14.51,14.51,0,0,0,19.54,62c5.49-1.07,6.11-3.12,6.11-3.12l-4.42-3.57Z"/><path class="cls-15" d="M15.64,58.9a9,9,0,0,1,.84-2.27c.11-.2.22-.41.32-.62-.05.08-.06,0,0-.16l-2.59.33-4,4.69a13.22,13.22,0,0,0,5.12,1.35A16,16,0,0,1,15.64,58.9Z"/><path class="cls-16" d="M14,51.79l.22,4.39s4.34,2.33,6.92-.9l-1.36-4.5Z"/><path class="cls-15" d="M16.28,51.39l-2.31.4.22,4.39a7.93,7.93,0,0,0,2.15.71A38.85,38.85,0,0,1,16.28,51.39Z"/><path class="cls-9" d="M10.12,50.25a10.92,10.92,0,0,1,6-2.72,14.43,14.43,0,0,1,6.83.93,14.72,14.72,0,0,1-5.86,2.28A26.57,26.57,0,0,1,10.12,50.25Z"/><path class="cls-11" d="M10.61,52.3a17.27,17.27,0,0,0,7,.78A15.19,15.19,0,0,0,23,51V48.46a12.86,12.86,0,0,1-6.05,2.15,43.68,43.68,0,0,1-6.78-.36Z"/><path class="cls-15" d="M17.84,52.54a7.12,7.12,0,0,1-1.48-1.91,46.1,46.1,0,0,1-6.24-.38l.49,2a17.27,17.27,0,0,0,7,.78l.68-.14C18.15,52.81,18,52.68,17.84,52.54Z"/><path class="cls-17" d="M37,39.28l5.06,16.53s-20.3,5.35-21,19.52A30.14,30.14,0,0,0,29.8,97.94,38.77,38.77,0,0,0,49,102.58a42.19,42.19,0,0,0,19.46-5s14.82-12.48,6.4-28.8c-5.6-10.84-17.2-12.26-20.76-13l3.68-16.53Z"/><path class="cls-18" d="M41.17,66.5a.84.84,0,1,1-.84-.78A.8.8,0,0,1,41.17,66.5Z"/><path class="cls-18" d="M33.77,73.46a1.13,1.13,0,1,1-1.12-1.14A1.13,1.13,0,0,1,33.77,73.46Z"/><path class="cls-19" d="M45.1,74.65a1.22,1.22,0,1,1-1.22-1.19A1.21,1.21,0,0,1,45.1,74.65Z"/><path class="cls-20" d="M45.26,76.56a1,1,0,1,1-1-1A1,1,0,0,1,45.26,76.56Z"/><path class="cls-21" d="M48,72.85c-10,0-21.56,2.23-25.5,4.69a28.63,28.63,0,0,0,8.27,19.9s9.58,3.41,18.25,3.31a53.8,53.8,0,0,0,18.48-3.64s10.61-11.54,8.48-22C66.92,72.94,58.86,72.85,48,72.85Z"/><path class="cls-19" d="M49.39,83.06c-12.89.41-23.21-2.36-26.88-5.52a28.63,28.63,0,0,0,8.27,19.9s9.58,3.41,18.25,3.31a53.8,53.8,0,0,0,18.48-3.64s10.61-11.54,8.48-22C72.88,78.8,63.36,82.62,49.39,83.06Z"/><path class="cls-22" d="M74.87,68.8c-5.6-10.84-17.2-12.26-20.76-13l3.68-16.53H37l5.06,16.53s-20.3,5.35-21,19.52A30.14,30.14,0,0,0,29.8,97.94,38.77,38.77,0,0,0,49,102.58a42.19,42.19,0,0,0,19.46-5S83.29,85.12,74.87,68.8ZM67.25,96a46.31,46.31,0,0,1-18.18,4.72c-8.75.18-18.2-4.37-18.2-4.37s-7.28-7.95-6.75-21.3,21-18.26,21-18.26L41.2,41.25H53.92L51.06,56.82c2.76.69,16.82,1.86,21.17,12.08C78.77,84.27,67.25,96,67.25,96Z"/><path class="cls-23" d="M63.38,88.25a1.17,1.17,0,1,1-1.17-1.09A1.13,1.13,0,0,1,63.38,88.25Z"/><path class="cls-23" d="M70,82.33a.59.59,0,1,1-.59-.54A.56.56,0,0,1,70,82.33Z"/><path class="cls-23" d="M49.1,93.55a.59.59,0,1,1-.58-.54A.56.56,0,0,1,49.1,93.55Z"/><path class="cls-23" d="M36.73,79.18a.72.72,0,0,1-.75.7.73.73,0,0,1-.76-.7.74.74,0,0,1,.76-.71A.73.73,0,0,1,36.73,79.18Z"/><ellipse class="cls-23" cx="46.81" cy="60.84" rx="1.12" ry="1.04"/><path class="cls-23" d="M50.53,52.87a1.1,1.1,0,1,1-1.1-1A1.06,1.06,0,0,1,50.53,52.87Z"/><path class="cls-23" d="M46.44,49a.76.76,0,1,1-.76-.71A.74.74,0,0,1,46.44,49Z"/><path class="cls-23" d="M42.79,90.73a1.07,1.07,0,1,1-1.07-1A1,1,0,0,1,42.79,90.73Z"/><path class="cls-24" d="M47.37,46.29c2.92.13,5.83.07,8.5-1.19l.7-.32,1.22-5.5H37l1.58,5.14A34.22,34.22,0,0,0,47.37,46.29Z"/><path class="cls-25" d="M47.35,33.05S34,33.62,34.25,37s5.45,5.88,13.46,5.83,12.45-3,12.16-5.07S55.77,33.24,47.35,33.05Z"/><path class="cls-26" d="M37,30.14l1.54,7.65s3.15,2.3,8.84,2.25,8.48-2.76,8.48-2.76l1.3-6.75Z"/><path class="cls-27" d="M44.88,30.29,37,30.14l1.54,7.65s3.15,2.3,8.84,2.25h.2A17.9,17.9,0,0,1,44.88,30.29Z"/><path class="cls-28" d="M49.15,33.3c0,.86,0,1.71-.12,2.56s-.23,1.88-.36,2.83l1.22-.18a17.79,17.79,0,0,0,2.88-.7c.12-1.25.27-2.49.45-3.73.06-.45.14-.9.23-1.35A8.89,8.89,0,0,1,49.15,33.3Z"/><path class="cls-29" d="M37,30.14s3.35,2.67,10.59,2.42,9.57-2,9.57-2-2.27-2.77-10.08-2.78C40.18,27.73,37.66,29.46,37,30.14Z"/><path class="cls-30" d="M43.27,30.88c-.66.37-1.32.73-2,1.08a21.08,21.08,0,0,0,3.95.57,44.82,44.82,0,0,1,2.85-3.91l.65-.82-.74,0A39.61,39.61,0,0,1,43.27,30.88Z"/><path class="cls-31" d="M70.35,75.6c-1.37,5.27-8,8.49-15.16,6.84-7.8-1.8-12.68-8.39-10.39-14.29,2.16-5.58,9.81-7.82,16.67-5.43C67.84,65,71.66,70.56,70.35,75.6Z"/><path class="cls-32" d="M62.54,71.32c-1.22,2.59-4.9,3.55-8.21,2.15s-5-4.64-3.79-7.23,4.9-3.55,8.21-2.15S63.76,68.73,62.54,71.32Z"/><g class="cls-33"><path class="cls-34" d="M36.55,62.72c-3.93,2.57-8.79,7.42-9,12.83-.56,11.66,7.41,19.52,7.41,19.52s17.24,7,29,1A105.06,105.06,0,0,1,45.65,83C40,77.79,36.12,64,36.55,62.72Z"/></g><path class="cls-35" d="M75.34,69.79C74,74.91,71.57,80.37,67.41,83.54c-3,2.23-6.19,2.57-9.61,3.74-3.59,1.24-5.55,3.59-7,6.88-1.2,2.7-2,5.79-3.48,8.41.57,0,1.13,0,1.71,0a42.34,42.34,0,0,0,14.27-2.64,50.1,50.1,0,0,0,5.19-2.34,27.66,27.66,0,0,0,4.24-4.81c.18-.25.36-.52.54-.79a28.7,28.7,0,0,0,2.06-3.67c.16-.34.31-.68.45-1a22.84,22.84,0,0,0,1.36-4.58c.07-.41.13-.82.19-1.24a22,22,0,0,0,.15-2.6A21.76,21.76,0,0,0,75.34,69.79Z"/><path class="cls-36" d="M87.92,86.35V1s1.78-2.19,4.15,0V87Z"/><path class="cls-37" d="M121.33,110.45l-4.62-1.51-8.07,3c1.13,2.85.6,8.72-2.78,8.22-4.69-.68-7.09-.91-11.81,1.89l18.75,6.56.2-.08,22.29-8.38-4-3.19Z"/><polygon class="cls-38" points="94.86 116.22 95.58 121.99 113.18 127.57 113.36 121.45 94.86 116.22"/><polygon class="cls-39" points="96.1 121.92 112.65 127.17 112.78 122.47 95.56 116.99 96.1 121.92"/><path class="cls-40" d="M102.65,123.94l-.12,0,10.12,3.21.13-4.7-1.65-.53A70.55,70.55,0,0,1,102.65,123.94Z"/><polygon class="cls-41" points="134.62 113.58 133.65 119.87 113.18 127.57 113.36 121.45 134.62 113.58"/><polygon class="cls-42" points="132.47 115.63 132.04 119.51 114.85 125.96 114.99 122.35 132.47 115.63"/><polygon class="cls-43" points="117.09 107.87 94.86 116.22 113.36 121.99 134.62 113.58 117.09 107.87"/><polygon class="cls-44" points="116.63 110.08 101.44 115.71 113.36 119.51 129.19 113.94 116.63 110.08"/><path class="cls-45" d="M109.56,115.14a2.69,2.69,0,0,1,2-1.38c-.09.22-.5.61-.25.91s1-.23,1.26-.41.46-.8.81-1.12a5.89,5.89,0,0,1,1.32-.74,3,3,0,0,0-.71,1.12c-.17.53,0,.54.5.31a8.33,8.33,0,0,0,1.24-1,3,3,0,0,1,1.45-.38c-.48.23-1.3,1.44-.27,1.41.79,0,1.85-1,2.64-.64-.26.09-1,.48-.79.88s1.34,0,1.64,0a5,5,0,0,1,1.81.06c.29.08.69.47.93.41a12.45,12.45,0,0,0-1.61,0c-.58.08-1,.5-1.53.61a2.06,2.06,0,0,1-.74,0c-.22,0-.47-.2-.69,0-.54.4.46.57.71.59-.64,0-1,.4-1.63.16-.38-.13-1.48-.4-1.79,0s1.05.93,1.05.93c-.33.23-1.71,0-2.1-.12s-1-.2-1.21.17.13.59.34.78a10.6,10.6,0,0,1-3.57-.9A1.47,1.47,0,0,1,109.56,115.14Z"/><path class="cls-46" d="M134.44,113.52l-21.21,8.4L95,116.15l-.18.07,0,.17,18.21,5.73L113,127.5l.22.07.2-.08.07-5.4,21.14-8.35,0-.16Z"/><path class="cls-47" d="M108.09,111.25l-13.23,5,14.44,4.5C109.24,119.4,108.37,113.09,108.09,111.25Z"/><path class="cls-47" d="M121.71,109.37l-4.62-1.5L111.5,110c.06.07,11.23,8.31,11.23,8.31l3.12-1.24C124.53,114.49,123,112,121.71,109.37Z"/><path class="cls-40" d="M126.48,122c-3.56.3-7.11.26-10.68.26a8.26,8.26,0,0,1-2.45-.38l-.17,5.72,15.42-5.8C127.9,121.85,127.19,121.92,126.48,122Z"/><g class="cls-48"><path class="cls-49" d="M103,127.21a2.78,2.78,0,0,0-1.67.31h0l-18.65-2c-1.34.75-.33,2.12-.33,2.12l18.78,1.6v0a2.69,2.69,0,0,0,1.55.65c1.18.13,2.2-.39,2.29-1.16S104.13,127.33,103,127.21Z"/><path class="cls-49" d="M88.53,121.89a3,3,0,0,0,1.13.11c1.09-.1,1.86-.82,1.74-1.6a1.89,1.89,0,0,0-2.09-1.29,2.2,2.2,0,0,0-1.57.72l.06.12-18,4.51a1.24,1.24,0,0,0,.9,2l17.8-4.63A.24.24,0,0,0,88.53,121.89Z"/></g><path class="cls-43" d="M82.55,124.73c-1.35.75-.34,2.12-.34,2.12l20.19,1.71.18-1.74Z"/><path class="cls-42" d="M102.87,126.36a2.68,2.68,0,0,0-1.67.31h0a6.5,6.5,0,0,1-.21,1.81,2.7,2.7,0,0,0,1.55.65c1.17.13,2.2-.39,2.29-1.16S104,126.48,102.87,126.36Z"/><polygon class="cls-43" points="69.73 123.61 70.62 125.59 90.01 120.54 88.96 118.79 69.73 123.61"/><path class="cls-42" d="M91.32,119.55a1.89,1.89,0,0,0-2.09-1.29,2.18,2.18,0,0,0-1.58.72,6.21,6.21,0,0,1,.79,2.06,3,3,0,0,0,1.14.1C90.66,121.05,91.43,120.33,91.32,119.55Z"/><path class="cls-50" d="M69.73,123.61a1.24,1.24,0,0,0,.89,2A1.26,1.26,0,0,0,69.73,123.61Z"/><path class="cls-17" d="M91.12,27.75l1.24,8.44S78.43,37.31,77.06,49s7,16.23,20,16.4S116.92,57.7,116.29,49s-10.4-12.39-15.12-12.84l1.22-8.44Z"/><path class="cls-51" d="M85.24,55.2l1.16.43c.62.19,1.23.38,1.86.53s1.27.29,1.92.4l1.3.16c2.17.18,4.34.26,6.52.32a58.35,58.35,0,0,0,7.12-.06l.38,0h0c.57-.1,1.14-.21,1.7-.36l1.07-.31c.2-.09.88-.39,1-.47,2.16-1.22,4-2.72,6-4a8.58,8.58,0,0,0,0-2.86C109.07,47.48,103.48,47.26,96,47c-6.91-.21-15,.91-17.78,2.33a16,16,0,0,0,.06,1.85A53.71,53.71,0,0,0,85.24,55.2Z"/><path class="cls-52" d="M96.7,53.3c-9,0-16-1.93-18.53-3.94A15.28,15.28,0,0,0,79.09,55a13,13,0,0,0,9.49,8.08,38.06,38.06,0,0,0,7.51,1,41.74,41.74,0,0,0,7.77-.61A13.31,13.31,0,0,0,112.63,58c1.74-2.51,3.32-5.84,2.69-9.06C113.09,51.18,106.4,53.32,96.7,53.3Z"/><path class="cls-22" d="M116.29,49c-.62-8.66-10.4-12.39-15.12-12.84l1.22-8.44H91.12l1.24,8.44S78.43,37.31,77.06,49s7,16.23,20,16.4S116.92,57.7,116.29,49ZM97,64c-11-.16-18.07-4.41-16.92-15.21s14-11.84,14-11.84L92.9,28.27h7.55l-1.22,8.67c4,.42,13.49,3.88,14,11.91S108,64.14,97,64Z"/><path class="cls-24" d="M95.94,31.12a18.11,18.11,0,0,0,6-.47l.42-2.9H91.12l.35,2.35A25,25,0,0,0,95.94,31.12Z"/><path class="cls-25" d="M96.81,23.06s-8.32.36-8.18,2.46S92,29.18,97,29.15s7.77-1.86,7.58-3.16S102.06,23.18,96.81,23.06Z"/><path class="cls-26" d="M90.58,21.34l.92,4.07a10.23,10.23,0,0,0,5.3,1.19,8.26,8.26,0,0,0,5.09-1.46l.78-3.59Z"/><path class="cls-27" d="M95.39,22.05c0-.21,0-.42,0-.63l-4.82-.08.92,4.07a10.23,10.23,0,0,0,5.3,1.19q.38,0,.72,0A6.4,6.4,0,0,1,95.39,22.05Z"/><path class="cls-28" d="M97.88,23a12.26,12.26,0,0,1-.08,1.36c0,.5-.13,1-.21,1.5l.73-.09a12.67,12.67,0,0,0,1.73-.37c.07-.67.16-1.33.27-2,0-.23.08-.47.13-.71A6,6,0,0,1,97.88,23Z"/><path class="cls-29" d="M90.58,21.34s2,1.42,6.35,1.29,5.74-1.08,5.74-1.08-1.36-1.47-6-1.48C92.5,20.06,91,21,90.58,21.34Z"/><path class="cls-30" d="M96.09,20.75l-2.34,1.46-.22.17a15.42,15.42,0,0,0,3.12.25l.15-.39c.32-.73.67-1.43,1-2.13l-.66,0C96.82,20.3,96.45,20.52,96.09,20.75Z"/><path class="cls-53" d="M49.65,29.49S50.73,6,64,12.56c0,0,10,14.1.33,20.34a1.63,1.63,0,0,1-1.68,0,9.73,9.73,0,0,1-4.05-10.48c.72-3.51,1.71-6.34,5.63-11.18,0,0,4.27-4.39,8.43,1s4.38,20.87-3.06,21.43S64.25,11.22,75.17,9.59s7.94,26.54.89,23.78-2.49-22.5,7.71-22.89,4.68,26.38-1.19,22.89c-5.46-3.24-4.3-18.68,9.3-23.18A6.15,6.15,0,0,1,99.32,13c.89,1.75,1.43,4.3,1,8,0,0-.62.51-2.48,0,0,0,1.62-7.36-2.88-8.84S77.46,19.29,83.2,30.6c.19.38,1,.1,1.14-.28,1.57-3.06,6.17-13.39-.65-18,0,0-4.25-.13-7.93,9.22-2.58,6.57-.84,9,.43,9.93a.92.92,0,0,0,1.36-.38c1.33-3.28,5.54-15.14-1.43-19.82,0,0-5.19.41-7.89,9.22s.83,11.59,2.43,11.08,5.81-17.38-2.25-19.91c0,0-5.93.91-7.42,11s5.4,11.46,5.52,1.34-6.76-11.86-9.79-8.09-4.06,9.18-4.12,13.64C52.6,29.52,50.84,30.38,49.65,29.49Z"/><path class="cls-54" d="M98.91,13.46A4.6,4.6,0,0,0,97,11.53a8.19,8.19,0,0,1,1.68,3.06A13.82,13.82,0,0,1,99,20.07a1.14,1.14,0,0,0,.62-.18A12,12,0,0,0,98.91,13.46Z"/><path class="cls-54" d="M55,15.4c-2.8,4-3.71,10.56-4,13.33a3.51,3.51,0,0,0,.89-.32c.23-4.21,1.14-9.39,3.79-12.7l.31-.38a5.27,5.27,0,0,1,1.06-1,4.07,4.07,0,0,1,.5-1.08A6.18,6.18,0,0,0,55,15.4Z"/><path class="cls-55" d="M74.64,29.11a20.3,20.3,0,0,0,.91-6.66A11.37,11.37,0,0,0,74.64,29.11Z"/><path class="cls-55" d="M65.5,29.18v0c-.72,1.44-1.72,1.93-2.61,1.57a12.37,12.37,0,0,1-.24,2,.3.3,0,0,1,0,.1h0a1.64,1.64,0,0,0,1.72-.05,11.71,11.71,0,0,0,1.82-1.49A12.55,12.55,0,0,1,65.5,29.18Z"/><path class="cls-55" d="M68,21.16c-1.06,3.77-.93,6.37-.33,8A11.8,11.8,0,0,0,68,21.16Z"/><path class="cls-55" d="M71.56,14.09c1.35,2.08,1.73,5.06,1.61,8a21.13,21.13,0,0,1,1.72-4.71A15,15,0,0,0,73,12.72,10,10,0,0,0,71.56,14.09Z"/><path class="cls-55" d="M71.56,14.09c1.35,2.08,1.73,5.06,1.61,8a21.13,21.13,0,0,1,1.72-4.71A15,15,0,0,0,73,12.72,10,10,0,0,0,71.56,14.09Z"/><path class="cls-55" d="M63.59,15.3a8.4,8.4,0,0,1,2.5,4.53c.21-.73.45-1.46.73-2.16a32.3,32.3,0,0,0-2-3.87A10.27,10.27,0,0,0,63.59,15.3Z"/><path class="cls-55" d="M63.59,15.3a8.4,8.4,0,0,1,2.5,4.53c.21-.73.45-1.46.73-2.16a32.3,32.3,0,0,0-2-3.87A10.27,10.27,0,0,0,63.59,15.3Z"/><path class="cls-55" d="M61,11.53a3.39,3.39,0,0,0-1.62,2.65,4.48,4.48,0,0,1,2.63.15c.45-.66.94-1.34,1.48-2A10.5,10.5,0,0,0,61,11.53Z"/><path class="cls-55" d="M82,25.58a29.56,29.56,0,0,0,.41-4.36A11.19,11.19,0,0,0,82,25.58Z"/><path class="cls-55" d="M85.06,10.6a3.14,3.14,0,0,0-.87,1.11,4.57,4.57,0,0,0-.25.79,8.77,8.77,0,0,1,1.44,1.33,16.78,16.78,0,0,1,2.19-1.62A4.36,4.36,0,0,0,85.06,10.6Z"/><path class="cls-55" d="M68.42,9.6a4.55,4.55,0,0,0-1.49,2.61,5.54,5.54,0,0,1,1.48-.55,5.82,5.82,0,0,1,1.58.78,10.28,10.28,0,0,1,1.58-1.38A5.22,5.22,0,0,0,68.42,9.6Z"/><path class="cls-55" d="M73.66,31.13a10.29,10.29,0,0,1-1-4.75c-.56,2.85-1.43,5-2,5.19l-.1,0a9.73,9.73,0,0,0-.18,2A5.3,5.3,0,0,0,73.66,31.13Z"/><path class="cls-55" d="M77.32,31.4a3.32,3.32,0,0,0,.16.8,5.63,5.63,0,0,0,.57,1.12,5.58,5.58,0,0,0,2.32-2.62c-1.47-3.32-1.1-8.61,1.79-13.15a15.84,15.84,0,0,0-1.06-4.12,10.64,10.64,0,0,0-1.85,1.81c2.12,5.52-.66,13.29-1.7,15.84A.75.75,0,0,1,77.32,31.4Z"/><path class="cls-55" d="M79.88,22.33l.27-.31a17.21,17.21,0,0,1,2-4.47,15.84,15.84,0,0,0-1.06-4.12,10.64,10.64,0,0,0-1.85,1.81A15.19,15.19,0,0,1,79.88,22.33Z"/><path class="cls-55" d="M88.52,13.92a21.51,21.51,0,0,0-2,1.63,11.5,11.5,0,0,1,.66,6.56,17.13,17.13,0,0,1,2.25-.78A17.22,17.22,0,0,0,88.52,13.92Z"/><path class="cls-55" d="M77.87,9.86a3.44,3.44,0,0,0-1,2A7.72,7.72,0,0,1,78,13.06a10.1,10.1,0,0,1,2-1.49A5.31,5.31,0,0,0,77.87,9.86Z"/><path class="cls-54" d="M60.1,26.41a12.94,12.94,0,0,1,0-2.94,18.49,18.49,0,0,1,5-10.92l-1,.09a17.13,17.13,0,0,0-4.45,9.17,14.23,14.23,0,0,0,.1,6.46C59.84,27.68,60,27,60.1,26.41Z"/><path class="cls-54" d="M73,11.18a15.9,15.9,0,0,0-3.58,3.27A18.13,18.13,0,0,0,66,22.33a13.86,13.86,0,0,0,.35,7.37l0,0c0-.78.09-1.56.15-2.34A12.94,12.94,0,0,1,66.48,24a18.06,18.06,0,0,1,3.11-8.53,17.16,17.16,0,0,1,4.09-4.09l.06-.07A4.88,4.88,0,0,0,73,11.18Z"/><path class="cls-54" d="M81.17,11.72a15.37,15.37,0,0,0-3.86,3.18,18.9,18.9,0,0,0-3.8,8.24,12.55,12.55,0,0,0,.16,6.63A15,15,0,0,1,73.88,28,12.64,12.64,0,0,1,74,24.8,18.57,18.57,0,0,1,77.48,16a16.8,16.8,0,0,1,4.41-4L82,11.9A4,4,0,0,0,81.17,11.72Z"/><path class="cls-54" d="M88.66,12.28a15,15,0,0,0-4,3,18.08,18.08,0,0,0-4,8.16,12.07,12.07,0,0,0,0,6.12A9.25,9.25,0,0,1,81,27.26a13.43,13.43,0,0,1,.17-2.16,17.66,17.66,0,0,1,3.68-8.72,16.38,16.38,0,0,1,4.59-3.81l.06-.07A5.82,5.82,0,0,0,88.66,12.28Z"/><path class="cls-31" d="M110.83,49.38c-1,3.87-5.73,6.2-10.94,4.93-5.6-1.36-9-6.17-7.41-10.41,1.55-4,7-5.58,11.85-3.87C108.92,41.63,111.73,45.7,110.83,49.38Z"/><path class="cls-32" d="M106.83,46.94c-.79,1.68-3.12,2.32-5.2,1.44s-3.13-3-2.34-4.63,3.12-2.32,5.2-1.44S107.62,45.27,106.83,46.94Z"/><g class="cls-33"><path class="cls-34" d="M87.66,40.13c-2.47,1.62-5.53,4.67-5.69,8.08,0,.18,0,.37,0,.55-.08,7,5.63,12.94,13,13.73a18,18,0,0,0,9.91-1.37A66.56,66.56,0,0,1,93.39,52.9C89.8,49.62,87.4,40.93,87.66,40.13Z"/></g><path class="cls-56" d="M95.39,39.85a1,1,0,1,1-1-.93A1,1,0,0,1,95.39,39.85Z"/><path class="cls-56" d="M106.85,57.7a1,1,0,1,1-1-.94A1,1,0,0,1,106.85,57.7Z"/><path class="cls-56" d="M90.45,58a.43.43,0,0,1-.86,0,.43.43,0,0,1,.86,0Z"/><path class="cls-56" d="M95.79,55.88a.7.7,0,0,1-1.39,0,.7.7,0,0,1,1.39,0Z"/><ellipse class="cls-56" cx="98.32" cy="61.36" rx="0.43" ry="0.41"/><path class="cls-56" d="M87.46,47.94a1,1,0,1,1-1-.94A1,1,0,0,1,87.46,47.94Z"/><path class="cls-56" d="M96.63,49.71a.49.49,0,0,1-.5.47.47.47,0,1,1,0-.93A.49.49,0,0,1,96.63,49.71Z"/><path class="cls-56" d="M98.09,33.72a.5.5,0,1,1-.5-.47A.48.48,0,0,1,98.09,33.72Z"/><ellipse class="cls-56" cx="111.81" cy="49.71" rx="0.49" ry="0.47"/><path class="cls-57" d="M75.11,116.92h0l-.17-.25,0,0-.23-.32L45,110.45s-2.21.36-3.81.69c-.93.2-2,.4-2,.4l.54.29h0l.16.08,0,0L40,112l0,0,.16.08,0,0,.18.09h0l.13.07.06,0,.1,0,.05,0,.08,0h0l.06,0c1,.47,2.22,1,3.06,1.42l.2.09.06,0,.18.08,0,0,.17.08h0l.14.06,29.94,5.62S75.57,119.71,75.11,116.92Z"/><path class="cls-58" d="M45.39,109.17s-5.47.89-5.45,1.18,4.54,2.26,5.33,2.65l0,0a2,2,0,0,0,.39-3.63Z"/><path class="cls-59" d="M43.19,111.2a24.41,24.41,0,0,1-2.78-.51c1.18.66,4.23,2,4.86,2.31l0,0a2,2,0,0,0,1.41-1.57A19.65,19.65,0,0,1,43.19,111.2Z"/><path class="cls-60" d="M41.76,110.54a1.56,1.56,0,0,0-.17-.68c-.93.2-2,.41-2,.41s1.51.81,1.88,1A1.62,1.62,0,0,0,41.76,110.54Z"/><path class="cls-61" d="M41.76,110.51a2.68,2.68,0,0,1-.8.13,3.68,3.68,0,0,1-.87-.09c.48.25,1.13.58,1.35.67a1.62,1.62,0,0,0,.32-.68Z"/><path class="cls-62" d="M75.1,115.05l-29.71-5.88a3.12,3.12,0,0,1-.12,3.83l29.41,5.58a2.85,2.85,0,0,0,1.15-1.67C75.92,116.38,75.78,115.92,75.1,115.05Z"/><path class="cls-63" d="M45.92,110.36l29.84,5.76a4.13,4.13,0,0,0-.66-1.07l-29.71-5.88a3.55,3.55,0,0,1,.53,1.19Z"/><path class="cls-63" d="M75.69,117.38,45.85,112h0c-.06.14-.13.29-.21.44l0,.08-.1.17-.22.3,29.41,5.58a4.12,4.12,0,0,0,.52-.46A2.89,2.89,0,0,0,75.69,117.38Z"/><path class="cls-64" d="M75.69,117.38h0a1.43,1.43,0,0,0,.08-.22c-1.9,0-3.81,0-5.68-.22-2.71-.28-23.76-4.37-24.85-4.51A27,27,0,0,1,42,111.5c.84.4,1.77.82,2.44,1.12l.2.09.06,0,.18.09h0l.18.08h0l.13.07,29.41,5.58a3.35,3.35,0,0,0,.65-.61v0A2.49,2.49,0,0,0,75.69,117.38Z"/><path class="cls-65" d="M59.88,93.89l-2.74,6.79A167.55,167.55,0,0,0,88.69,112a29.32,29.32,0,0,0,17.24-1.06c6.69-2.52,17.19-6.65,25.87-12.19L127.89,92,90.58,84Z"/><path class="cls-66" d="M106.18,93a6,6,0,0,1-4.94,2.12c-6.31-.53-12.65-1.11-18.89-2.2-2.71-.47,12.82-.87,10.19-1.67-.72-.22-9.17-1.88-9.9-2.08-.44,0-11.28,1.2-11.72,1.16l-8.74,2.82c4.29.48,22.8,4.26,27,5,3.36.57-7.6-1.76-4.23-1.27a38.16,38.16,0,0,1,10,2.39H98.1l.09,0a40.4,40.4,0,0,1,6.12-4.35c1.07-.6,2.15-1.18,3.27-1.68l.34-.14Z"/><path class="cls-36" d="M91.28,112.59l2,.42.14,0,2,.38.12,0h0a8.42,8.42,0,0,0,4.11-.28c5.16-1.69,20-6.68,32.17-14.42L127.89,92s-25.82,12.44-30.63,12.6C92.11,104.74,60,93.85,60,93.85l-.11,0-2.74,6.79a167.22,167.22,0,0,0,32,11.42h0c.67.17,1.35.32,2,.47Z"/><path class="cls-67" d="M95.9,104.47C88,103.35,60,93.85,60,93.85l-.11,0-2.74,6.79a167.22,167.22,0,0,0,32,11.42h0c.67.17,1.35.32,2,.47l.08,0,2,.42.14,0,2,.38.12,0h0a8.39,8.39,0,0,0,2.5.07A64.43,64.43,0,0,1,95.9,104.47Z"/><path class="cls-67" d="M97.86,113.53l-.33,0Z"/><path class="cls-67" d="M97,113.57h0Z"/><path class="cls-68" d="M128.2,92.52c-4.14,7-13.17,11.32-21.33,13.38a55,55,0,0,1-10.44,1.59c.45,2,1.06,4,1.59,6a9.08,9.08,0,0,0,1.61-.35c5.16-1.69,20-6.68,32.17-14.42Z"/><path class="cls-67" d="M78.86,106.38c-4.41-1.08-8.2-3.08-12.11-5.2a20.31,20.31,0,0,1-7.34-6.11l-2.27,5.61a167.22,167.22,0,0,0,32,11.42h0c.67.17,1.35.32,2,.47l.08,0,2,.42.14,0,2,.38.12,0h0a8.39,8.39,0,0,0,2.5.07c-.6-2.27-1.31-4.54-1.77-6.85A42.11,42.11,0,0,1,78.86,106.38Z"/><path class="cls-67" d="M81.38,93.55l-3.8,2.76c2.35.78,6.07,2.22,8.44,3,1.88.58,3.76,1.14,5.66,1.65.88.23,1.76.46,2.64.65a10.16,10.16,0,0,0,2.11.32h.25a17.33,17.33,0,0,0,3.75-.88c1.37-.41,2.73-.87,4.08-1.35C107,98.77,112,97,114.46,96l-3.15-1.41Z"/><path class="cls-69" d="M77.37,88.25l2,7.33s14.59,4.89,17.49,4.89,15.48-5,15.48-5l2.31-6s-14,4.93-18.64,4.4S77.37,88.25,77.37,88.25Z"/><path class="cls-70" d="M95.8,93.83c-4.81-.66-18.43-5.58-18.43-5.58l2,7.33s14.59,4.89,17.49,4.89h.25A11.29,11.29,0,0,1,95.8,93.83Z"/><path class="cls-71" d="M100.24,97.19a32.14,32.14,0,0,1-4.37-.54,9.52,9.52,0,0,0,1.25,3.81c3.3-.24,15.23-5,15.23-5l1.45-3.78C109.54,94.58,106.38,96.86,100.24,97.19Z"/><path class="cls-71" d="M85.52,95.59c-2.47-.75-5-2.61-7.24-4l1.1,4s14.59,4.89,17.49,4.89h.25a9.72,9.72,0,0,1-1.29-4.17S92.39,97.69,85.52,95.59Z"/><path class="cls-72" d="M96,85.15s-12.06.44-18.65,3.1c0,0,13.16,6.19,18.91,6.11s18.38-4.91,18.38-4.91S102.33,84.66,96,85.15Z"/><path class="cls-36" d="M91.77,81.74l-3.85,5.79s4.15,2.87,7.47,2.76a27.45,27.45,0,0,0,8.27-2L100.82,82Z"/><path class="cls-67" d="M94.61,81.82l-2.84-.08-3.85,5.79s4.15,2.87,7.47,2.76a14.9,14.9,0,0,0,1.78-.17A21.4,21.4,0,0,1,94.61,81.82Z"/><path class="cls-73" d="M98.35,64.08s-1.72,3.48-6.93,6.24-6.29,8.89,0,12c7.11,3.46,15.06-.88,12.63-6.73S96.34,70.35,98.35,64.08Z"/><path class="cls-74" d="M98.34,64.12s-1.71,3.48-6.92,6.23-6.26,8.88,0,11.93c7.1,3.45,15-.88,12.58-6.71S96.33,70.38,98.34,64.12Z"/><path class="cls-75" d="M98.33,64.16s-1.71,3.47-6.9,6.21-6.25,8.88,0,11.92c7.07,3.43,15-.89,12.53-6.71S96.33,70.4,98.33,64.16Z"/><path class="cls-76" d="M98.32,64.2s-1.7,3.46-6.88,6.2-6.23,8.87,0,11.9c7.06,3.41,14.9-.9,12.49-6.71S96.32,70.43,98.32,64.2Z"/><path class="cls-77" d="M98.31,64.24s-1.7,3.45-6.87,6.18-6.2,8.87.08,11.88c7,3.4,14.84-.9,12.43-6.69S96.32,70.45,98.31,64.24Z"/><path class="cls-78" d="M98.3,64.28s-1.7,3.44-6.85,6.17-6.18,8.86.09,11.86c7,3.38,14.79-.91,12.39-6.69S96.31,70.48,98.3,64.28Z"/><path class="cls-79" d="M98.29,64.32s-1.69,3.44-6.83,6.15-6.16,8.86.11,11.85c7,3.35,14.73-.92,12.33-6.69S96.31,70.51,98.29,64.32Z"/><path class="cls-80" d="M98.28,64.36s-1.69,3.43-6.82,6.14-6.13,8.84.13,11.82c7,3.33,14.68-.93,12.29-6.68S96.3,70.53,98.28,64.36Z"/><path class="cls-81" d="M98.27,64.41s-1.68,3.41-6.8,6.12-6.11,8.83.15,11.8c7,3.3,14.62-.94,12.24-6.67S96.3,70.56,98.27,64.41Z"/><path class="cls-82" d="M98.26,64.45s-1.68,3.4-6.78,6.1-6.09,8.83.16,11.79c7,3.28,14.57-1,12.19-6.67S96.29,70.58,98.26,64.45Z"/><path class="cls-83" d="M98.25,64.49s-1.68,3.39-6.77,6.09-6.07,8.82.19,11.76c6.93,3.27,14.51-1,12.14-6.66S96.29,70.61,98.25,64.49Z"/><path class="cls-84" d="M98.24,64.53s-1.67,3.39-6.75,6.07-6,8.82.2,11.75c6.92,3.24,14.46-1,12.09-6.65S96.28,70.63,98.24,64.53Z"/><path class="cls-85" d="M98.23,64.57S96.56,68,91.49,70.63s-6,8.81.23,11.73c6.89,3.22,14.4-1,12-6.65S96.27,70.66,98.23,64.57Z"/><path class="cls-86" d="M98.22,64.61s-1.66,3.37-6.72,6-6,8.81.24,11.71c6.88,3.2,14.35-1,12-6.64S96.27,70.68,98.22,64.61Z"/><path class="cls-87" d="M98.21,64.65s-1.66,3.36-6.7,6-6,8.79.26,11.69c6.86,3.18,14.29-1,11.94-6.64S96.26,70.71,98.21,64.65Z"/><path class="cls-88" d="M98.2,64.69s-1.66,3.36-6.69,6-6,8.79.28,11.67c6.84,3.17,14.24-1,11.9-6.62S96.26,70.73,98.2,64.69Z"/><path class="cls-89" d="M98.19,64.73s-1.65,3.35-6.67,6-5.93,8.78.3,11.65c6.82,3.14,14.18-1,11.84-6.62S96.25,70.76,98.19,64.73Z"/><path class="cls-90" d="M98.18,64.77s-1.65,3.34-6.65,6-5.92,8.77.31,11.63c6.81,3.12,14.13-1,11.8-6.62S96.25,70.79,98.18,64.77Z"/><path class="cls-91" d="M98.17,64.81s-1.64,3.33-6.64,6-5.89,8.77.34,11.61c6.78,3.11,14.07-1,11.75-6.6S96.24,70.81,98.17,64.81Z"/><path class="cls-92" d="M98.16,64.85s-1.64,3.32-6.62,6-5.87,8.76.35,11.59c6.77,3.08,14-1,11.7-6.6S96.24,70.84,98.16,64.85Z"/><path class="cls-93" d="M98.15,64.89s-1.64,3.32-6.6,5.94-5.85,8.76.37,11.58c6.75,3.06,14-1,11.65-6.6S96.23,70.86,98.15,64.89Z"/><path class="cls-94" d="M98.14,64.93s-1.63,3.31-6.59,5.93-5.82,8.75.39,11.55c6.73,3,13.91-1,11.61-6.59S96.23,70.89,98.14,64.93Z"/><path class="cls-95" d="M98.13,65s-1.63,3.3-6.57,5.91-5.8,8.75.41,11.54c6.71,3,13.85-1,11.55-6.58S96.22,70.91,98.13,65Z"/><path class="cls-96" d="M98.12,65s-1.62,3.29-6.55,5.9-5.79,8.74.42,11.52c6.7,3,13.8-1.05,11.51-6.58S96.22,70.94,98.12,65Z"/><path class="cls-97" d="M98.11,65.06s-1.62,3.28-6.54,5.87-5.76,8.73.45,11.5c6.67,3,13.74-1.06,11.45-6.57S96.21,71,98.11,65.06Z"/><path class="cls-98" d="M98.1,65.1S96.48,68.37,91.58,71s-5.74,8.72.46,11.48c6.66,3,13.69-1.07,11.41-6.56S96.21,71,98.1,65.1Z"/><path class="cls-99" d="M98.09,65.14S96.48,68.4,91.59,71s-5.72,8.71.48,11.46c6.64,2.94,13.63-1.08,11.36-6.56S96.2,71,98.09,65.14Z"/><path class="cls-100" d="M98.08,65.18S96.47,68.43,91.59,71s-5.69,8.71.5,11.44c6.62,2.92,13.58-1.08,11.31-6.55S96.2,71,98.08,65.18Z"/><path class="cls-101" d="M98.07,65.22S96.47,68.46,91.6,71s-5.67,8.7.52,11.42c6.6,2.9,13.52-1.09,11.26-6.54S96.19,71.07,98.07,65.22Z"/><path class="cls-102" d="M98.06,65.26s-1.6,3.24-6.45,5.8-5.66,8.7.53,11.41c6.59,2.88,13.48-1.1,11.21-6.54S96.18,71.09,98.06,65.26Z"/><path class="cls-103" d="M98.05,65.3s-1.6,3.23-6.44,5.79-5.63,8.69.56,11.38c6.56,2.86,13.42-1.1,11.16-6.53S96.18,71.12,98.05,65.3Z"/><path class="cls-104" d="M98,65.34s-1.59,3.22-6.42,5.77S86,79.8,92.19,82.48c6.55,2.84,13.37-1.11,11.12-6.53S96.17,71.14,98,65.34Z"/><path class="cls-105" d="M98,65.38s-1.59,3.21-6.4,5.76-5.59,8.68.59,11.35c6.52,2.82,13.31-1.13,11.06-6.52S96.17,71.17,98,65.38Z"/><path class="cls-106" d="M98,65.42s-1.58,3.21-6.39,5.74-5.56,8.68.61,11.33c6.51,2.8,13.26-1.13,11-6.51S96.16,71.19,98,65.42Z"/><path class="cls-107" d="M98,65.46s-1.58,3.2-6.37,5.73-5.55,8.67.63,11.31c6.49,2.78,13.2-1.14,11-6.51S96.16,71.22,98,65.46Z"/><path class="cls-108" d="M98,65.5s-1.58,3.19-6.35,5.71-5.53,8.67.64,11.3c6.47,2.76,13.15-1.15,10.92-6.5S96.15,71.24,98,65.5Z"/><path class="cls-109" d="M98,65.54s-1.57,3.18-6.34,5.7-5.5,8.65.67,11.27c6.45,2.74,13.09-1.15,10.87-6.49S96.15,71.27,98,65.54Z"/><path class="cls-110" d="M98,65.58s-1.57,3.17-6.32,5.69-5.48,8.64.68,11.25c6.44,2.72,13-1.16,10.82-6.49S96.14,71.29,98,65.58Z"/><path class="cls-111" d="M98,65.62s-1.56,3.17-6.3,5.67-5.46,8.64.7,11.24c6.41,2.7,13-1.17,10.77-6.49S96.14,71.32,98,65.62Z"/><path class="cls-112" d="M98,65.66s-1.56,3.16-6.29,5.66-5.43,8.63.72,11.21c6.4,2.68,12.93-1.17,10.72-6.47S96.13,71.35,98,65.66Z"/><path class="cls-113" d="M98,65.7s-1.56,3.15-6.27,5.64-5.42,8.63.74,11.2c6.38,2.66,12.87-1.19,10.67-6.47S96.13,71.37,98,65.7Z"/><path class="cls-114" d="M97.94,65.75s-1.55,3.13-6.25,5.62-5.4,8.62.75,11.18c6.36,2.64,12.82-1.2,10.63-6.47S96.12,71.4,97.94,65.75Z"/><path class="cls-115" d="M97.93,65.79s-1.55,3.13-6.24,5.6-5.37,8.62.78,11.16c6.34,2.62,12.76-1.2,10.57-6.45S96.12,71.42,97.93,65.79Z"/><path class="cls-116" d="M97.92,65.83S96.38,69,91.7,71.42s-5.35,8.61.79,11.14c6.32,2.6,12.71-1.21,10.53-6.45S96.11,71.45,97.92,65.83Z"/><path class="cls-117" d="M97.91,65.87s-1.54,3.11-6.2,5.57-5.33,8.61.81,11.13c6.3,2.58,12.65-1.22,10.48-6.45S96.11,71.47,97.91,65.87Z"/><path class="cls-118" d="M97.9,65.91s-1.54,3.1-6.19,5.56-5.31,8.6.83,11.1,12.6-1.22,10.43-6.44S96.1,71.5,97.9,65.91Z"/><path class="cls-119" d="M97.89,66S96.36,69,91.72,71.5s-5.29,8.59.85,11.08,12.54-1.23,10.38-6.43S96.09,71.52,97.89,66Z"/><path class="cls-120" d="M97.88,66s-1.53,3.09-6.15,5.53-5.27,8.59.86,11.07,12.49-1.24,10.33-6.43S96.09,71.55,97.88,66Z"/><path class="cls-121" d="M97.87,66s-1.52,3.08-6.14,5.52-5.24,8.58.89,11,12.43-1.25,10.28-6.42S96.08,71.57,97.87,66Z"/><path class="cls-122" d="M97.86,66.07s-1.52,3.07-6.12,5.5-5.22,8.58.9,11,12.38-1.26,10.24-6.41S96.08,71.6,97.86,66.07Z"/><path class="cls-123" d="M97.85,66.11s-1.52,3.06-6.1,5.49-5.21,8.57.92,11S105,81.34,102.85,76.2,96.07,71.63,97.85,66.11Z"/><path class="cls-124" d="M97.84,66.15s-1.51,3-6.09,5.47-5.18,8.57.94,11,12.27-1.27,10.14-6.4S96.07,71.65,97.84,66.15Z"/><path class="cls-125" d="M97.83,66.19s-1.51,3-6.07,5.46-5.16,8.56,1,11,12.21-1.28,10.08-6.4S96.06,71.68,97.83,66.19Z"/><path class="cls-126" d="M97.82,66.23s-1.5,3-6,5.44-5.14,8.56,1,11,12.16-1.29,10-6.39S96.06,71.7,97.82,66.23Z"/><path class="cls-127" d="M97.81,66.27s-1.5,3-6,5.43-5.11,8.54,1,10.93,12.1-1.29,10-6.38S96.05,71.73,97.81,66.27Z"/><path class="cls-128" d="M97.8,66.31s-1.5,3-6,5.42-5.1,8.53,1,10.91,12-1.3,9.93-6.38S96.05,71.75,97.8,66.31Z"/><path class="cls-129" d="M97.79,66.35s-1.49,3-6,5.4-5.08,8.53,1,10.9,12-1.32,9.89-6.37S96,71.78,97.79,66.35Z"/><path class="cls-130" d="M97.78,66.4s-1.49,3-6,5.38-5.05,8.52,1.06,10.87,11.93-1.32,9.83-6.36S96,71.8,97.78,66.4Z"/><path class="cls-131" d="M97.76,66.44s-1.47,3-6,5.36-5,8.52,1.07,10.86,11.88-1.33,9.79-6.36S96,71.83,97.76,66.44Z"/><path class="cls-132" d="M97.75,66.48s-1.47,3-5.94,5.35-5,8.51,1.09,10.84,11.82-1.34,9.74-6.36S96,71.85,97.75,66.48Z"/><path class="cls-133" d="M97.74,66.52s-1.47,3-5.93,5.33-5,8.51,1.11,10.82,11.77-1.34,9.69-6.34S96,71.88,97.74,66.52Z"/><path class="cls-134" d="M97.73,66.56s-1.46,3-5.91,5.32-5,8.5,1.13,10.8,11.71-1.35,9.64-6.34S96,71.91,97.73,66.56Z"/><path class="cls-135" d="M97.72,66.6s-1.46,3-5.89,5.3-5,8.5,1.14,10.79,11.66-1.36,9.59-6.34S96,71.93,97.72,66.6Z"/><path class="cls-136" d="M97.71,66.64s-1.45,3-5.88,5.29S86.91,80.42,93,82.69c5.94,2.22,11.6-1.36,9.54-6.32S96,72,97.71,66.64Z"/><path class="cls-137" d="M97.7,66.68S96.25,69.62,91.84,72,86.93,80.44,93,82.7c5.92,2.19,11.55-1.38,9.5-6.32S96,72,97.7,66.68Z"/><path class="cls-138" d="M97.69,66.72S96.24,69.66,91.84,72,87,80.46,93.05,82.71c5.9,2.17,11.49-1.39,9.44-6.32S96,72,97.69,66.72Z"/><path class="cls-139" d="M97.68,66.76S96.24,69.69,91.85,72,87,80.48,93.07,82.71c5.89,2.16,11.44-1.39,9.4-6.3S96,72,97.68,66.76Z"/><path class="cls-140" d="M97.67,66.8A13.65,13.65,0,0,1,91.86,72C87.48,74.34,87,80.5,93.1,82.72c5.86,2.14,11.38-1.4,9.35-6.3S96,72.06,97.67,66.8Z"/><path class="cls-141" d="M97.66,66.84s-1.43,2.91-5.8,5.22S87,80.52,93.12,82.73c5.85,2.11,11.33-1.41,9.3-6.3S96,72.08,97.66,66.84Z"/><path class="cls-142" d="M97.65,66.88s-1.43,2.9-5.78,5.2-4.8,8.46,1.28,10.65c5.82,2.1,11.27-1.41,9.25-6.29S96,72.11,97.65,66.88Z"/><path class="cls-143" d="M97.64,66.92a13.55,13.55,0,0,1-5.76,5.19c-4.34,2.29-4.78,8.45,1.29,10.63,5.81,2.08,11.22-1.42,9.2-6.28S96,72.13,97.64,66.92Z"/><path class="cls-144" d="M97.63,67a13.44,13.44,0,0,1-5.75,5.17c-4.32,2.29-4.75,8.45,1.32,10.62,5.78,2.06,11.16-1.43,9.15-6.28S96,72.16,97.63,67Z"/><path class="cls-145" d="M97.62,67a13.47,13.47,0,0,1-5.73,5.16c-4.31,2.28-4.73,8.44,1.33,10.59,5.77,2,11.11-1.44,9.11-6.27S96,72.19,97.62,67Z"/><path class="cls-146" d="M97.61,67a13.43,13.43,0,0,1-5.71,5.15c-4.3,2.27-4.72,8.43,1.35,10.57,5.75,2,11-1.45,9-6.26S96,72.21,97.61,67Z"/><path class="cls-147" d="M97.6,67.09a13.35,13.35,0,0,1-5.7,5.12c-4.28,2.27-4.69,8.43,1.37,10.55,5.73,2,11-1.45,9-6.25S96,72.24,97.6,67.09Z"/><path class="cls-148" d="M97.59,67.13a13.38,13.38,0,0,1-5.68,5.11c-4.27,2.25-4.67,8.42,1.39,10.53,5.71,2,10.94-1.46,9-6.25S95.94,72.26,97.59,67.13Z"/><path class="cls-149" d="M97.58,67.17a13.29,13.29,0,0,1-5.66,5.09c-4.26,2.25-4.65,8.42,1.4,10.52,5.69,2,10.9-1.47,8.91-6.25S95.94,72.29,97.58,67.17Z"/><path class="cls-150" d="M97.57,67.21a13.31,13.31,0,0,1-5.65,5.08c-4.24,2.24-4.63,8.41,1.43,10.49,5.67,2,10.84-1.47,8.86-6.23S95.93,72.31,97.57,67.21Z"/><path class="cls-151" d="M97.56,67.25a13.21,13.21,0,0,1-5.63,5.06c-4.23,2.24-4.61,8.41,1.44,10.48,5.66,1.93,10.79-1.48,8.81-6.23S95.93,72.34,97.56,67.25Z"/><path class="cls-152" d="M97.55,67.29a13.18,13.18,0,0,1-5.61,5c-4.23,2.23-4.59,8.4,1.46,10.46,5.63,1.91,10.73-1.49,8.76-6.23S95.92,72.36,97.55,67.29Z"/><path class="cls-153" d="M97.54,67.33a13.15,13.15,0,0,1-5.6,5c-4.21,2.23-4.56,8.4,1.48,10.44,5.62,1.9,10.68-1.5,8.71-6.21S95.91,72.39,97.54,67.33Z"/><path class="cls-154" d="M97.53,67.37a13.1,13.1,0,0,1-5.58,5c-4.2,2.22-4.55,8.39,1.5,10.42,5.59,1.88,10.62-1.51,8.66-6.21S95.91,72.41,97.53,67.37Z"/><path class="cls-155" d="M97.52,67.41a13.09,13.09,0,0,1-5.56,5c-4.19,2.22-4.53,8.4,1.51,10.41,5.58,1.86,10.57-1.52,8.62-6.21S95.9,72.44,97.52,67.41Z"/><path class="cls-156" d="M97.51,67.45a13,13,0,0,1-5.55,5c-4.17,2.21-4.5,8.39,1.54,10.38,5.55,1.84,10.51-1.52,8.56-6.2S95.9,72.47,97.51,67.45Z"/><path class="cls-157" d="M97.5,67.49a13,13,0,0,1-5.53,5c-4.16,2.19-4.48,8.38,1.55,10.36C99.06,84.65,104,81.3,102,76.64S95.89,72.49,97.5,67.49Z"/><path class="cls-158" d="M97.49,67.53a13,13,0,0,1-5.51,5c-4.15,2.19-4.47,8.38,1.57,10.35,5.52,1.8,10.4-1.54,8.46-6.19S95.89,72.52,97.49,67.53Z"/><path class="cls-159" d="M97.48,67.57a12.92,12.92,0,0,1-5.5,5c-4.13,2.18-4.44,8.37,1.59,10.32,5.5,1.79,10.35-1.54,8.42-6.18S95.88,72.54,97.48,67.57Z"/><path class="cls-160" d="M97.47,67.61A12.91,12.91,0,0,1,92,72.54c-4.12,2.18-4.42,8.37,1.61,10.31,5.48,1.77,10.29-1.55,8.37-6.17S95.88,72.57,97.47,67.61Z"/><path class="cls-161" d="M97.46,67.65A12.79,12.79,0,0,1,92,72.57c-4.11,2.17-4.4,8.36,1.62,10.29,5.46,1.75,10.24-1.57,8.32-6.17S95.87,72.59,97.46,67.65Z"/><path class="cls-162" d="M97.45,67.69A12.76,12.76,0,0,1,92,72.59c-4.09,2.17-4.38,8.36,1.65,10.27,5.44,1.73,10.18-1.57,8.27-6.16S95.87,72.62,97.45,67.69Z"/><path class="cls-163" d="M97.44,67.74A12.82,12.82,0,0,1,92,72.62c-4.08,2.16-4.36,8.35,1.66,10.25,5.42,1.71,10.13-1.58,8.23-6.16S95.86,72.64,97.44,67.74Z"/><path class="cls-164" d="M97.43,67.78A12.72,12.72,0,0,1,92,72.64C87.94,74.8,87.68,81,93.7,82.88c5.4,1.69,10.07-1.59,8.17-6.15S95.86,72.67,97.43,67.78Z"/><path class="cls-165" d="M97.42,67.82A12.75,12.75,0,0,1,92,72.67C88,74.82,87.71,81,93.72,82.88c5.39,1.68,10-1.59,8.13-6.14S95.85,72.69,97.42,67.82Z"/><path class="cls-166" d="M97.41,67.86A12.63,12.63,0,0,1,92,72.7c-4,2.13-4.3,8.33,1.72,10.19,5.36,1.66,10-1.6,8.07-6.14S95.85,72.72,97.41,67.86Z"/><path class="cls-167" d="M97.4,67.9A12.61,12.61,0,0,1,92,72.72c-4,2.13-4.28,8.33,1.73,10.18,5.35,1.64,9.91-1.61,8-6.13S95.84,72.75,97.4,67.9Z"/><path class="cls-168" d="M97.39,67.94A12.64,12.64,0,0,1,92,72.75c-4,2.12-4.25,8.32,1.76,10.15,5.32,1.62,9.85-1.61,8-6.12S95.84,72.77,97.39,67.94Z"/><path class="cls-169" d="M97.38,68a12.54,12.54,0,0,1-5.33,4.79c-4,2.12-4.23,8.32,1.77,10.14,5.31,1.6,9.8-1.63,7.93-6.12S95.83,72.8,97.38,68Z"/><path class="cls-170" d="M97.37,68a12.5,12.5,0,0,1-5.31,4.78c-4,2.11-4.22,8.32,1.79,10.12,5.28,1.58,9.74-1.64,7.88-6.12S95.82,72.82,97.37,68Z"/><path class="cls-171" d="M97.36,68.06a12.4,12.4,0,0,1-5.3,4.76c-4,2.11-4.19,8.32,1.81,10.1,5.27,1.57,9.69-1.64,7.83-6.1S95.82,72.85,97.36,68.06Z"/><path class="cls-172" d="M97.35,68.1a12.43,12.43,0,0,1-5.28,4.75c-4,2.1-4.17,8.31,1.83,10.08,5.24,1.55,9.63-1.65,7.78-6.1S95.81,72.87,97.35,68.1Z"/><path class="cls-173" d="M97.34,68.14a12.41,12.41,0,0,1-5.26,4.73c-4,2.1-4.15,8.31,1.84,10.07,5.23,1.53,9.58-1.66,7.74-6.1S95.81,72.9,97.34,68.14Z"/><path class="cls-174" d="M97.33,68.18a12.36,12.36,0,0,1-5.25,4.72C88.14,75,88,81.2,94,82.94c5.21,1.52,9.52-1.66,7.68-6.08S95.8,72.92,97.33,68.18Z"/><path class="cls-175" d="M97.32,68.22a12.32,12.32,0,0,1-5.23,4.71C88.16,75,88,81.22,94,83c5.19,1.5,9.47-1.67,7.64-6.08S95.8,73,97.32,68.22Z"/><path class="cls-176" d="M97.31,68.26A12.22,12.22,0,0,1,92.1,73C88.18,75,88,81.24,94,83c5.17,1.47,9.41-1.68,7.58-6.08S95.79,73,97.31,68.26Z"/><path class="cls-177" d="M97.3,68.3A12.25,12.25,0,0,1,92.1,73C88.19,75,88,81.26,94,83c5.15,1.46,9.36-1.69,7.54-6.07S95.79,73,97.3,68.3Z"/><path class="cls-178" d="M97.29,68.34A12.23,12.23,0,0,1,92.11,73c-3.9,2.06-4,8.29,1.94,10,5.13,1.44,9.3-1.7,7.49-6.06S95.78,73,97.29,68.34Z"/><path class="cls-179" d="M97.28,68.38A12.12,12.12,0,0,1,92.12,73c-3.89,2-4,8.28,1.95,10,5.11,1.42,9.25-1.71,7.44-6.06S95.78,73.05,97.28,68.38Z"/><path class="cls-180" d="M97.27,68.43a12.11,12.11,0,0,1-5.15,4.62c-3.87,2-4,8.28,2,9.93,5.09,1.41,9.19-1.71,7.39-6S95.77,73.08,97.27,68.43Z"/><path class="cls-181" d="M97.26,68.47a12.06,12.06,0,0,1-5.13,4.61c-3.86,2-4,8.27,2,9.91,5.07,1.39,9.14-1.72,7.34-6S95.77,73.1,97.26,68.47Z"/><path class="cls-182" d="M97.25,68.51a12,12,0,0,1-5.11,4.59c-3.85,2-4,8.27,2,9.9,5,1.37,9.08-1.73,7.29-6S95.76,73.13,97.25,68.51Z"/><path class="cls-183" d="M97.24,68.55a12.07,12.07,0,0,1-5.1,4.58c-3.83,2-3.94,8.26,2,9.87,5,1.36,9-1.73,7.25-6S95.76,73.15,97.24,68.55Z"/><path class="cls-184" d="M97.23,68.59a12,12,0,0,1-5.08,4.57c-3.82,2-3.93,8.25,2,9.85,5,1.34,9-1.74,7.19-6S95.75,73.18,97.23,68.59Z"/><path class="cls-185" d="M97.22,68.63a11.94,11.94,0,0,1-5.06,4.55c-3.81,2-3.91,8.26,2.06,9.84,5,1.32,8.92-1.76,7.15-6S95.75,73.2,97.22,68.63Z"/><path class="cls-186" d="M97.21,68.67a11.88,11.88,0,0,1-5,4.54c-3.79,2-3.88,8.25,2.09,9.81,5,1.31,8.86-1.76,7.1-6S95.74,73.23,97.21,68.67Z"/><path class="cls-187" d="M97.2,68.71a11.86,11.86,0,0,1-5,4.52c-3.78,2-3.86,8.25,2.1,9.8,5,1.28,8.81-1.77,7-6S95.73,73.25,97.2,68.71Z"/><path class="cls-188" d="M97.19,68.75a11.82,11.82,0,0,1-5,4.51c-3.76,2-3.84,8.24,2.13,9.78,4.93,1.26,8.75-1.78,7-6S95.73,73.28,97.19,68.75Z"/><path class="cls-189" d="M97.18,68.79a11.72,11.72,0,0,1-5,4.49c-3.75,2-3.82,8.24,2.15,9.76,4.91,1.25,8.69-1.78,6.94-6S95.72,73.31,97.18,68.79Z"/><path class="cls-190" d="M97.17,68.83a11.76,11.76,0,0,1-5,4.48c-3.75,2-3.8,8.24,2.16,9.74,4.89,1.23,8.64-1.79,6.9-6S95.72,73.33,97.17,68.83Z"/><path class="cls-191" d="M97.16,68.87a11.65,11.65,0,0,1-5,4.46c-3.73,2-3.77,8.24,2.19,9.73,4.87,1.21,8.58-1.8,6.85-6S95.71,73.36,97.16,68.87Z"/><path class="cls-192" d="M97.15,68.91a11.68,11.68,0,0,1-5,4.45c-3.72,2-3.76,8.23,2.2,9.7,4.85,1.2,8.53-1.8,6.8-6S95.71,73.38,97.15,68.91Z"/><path class="cls-193" d="M97.14,69a11.65,11.65,0,0,1-4.93,4.44c-3.71,2-3.74,8.22,2.22,9.68,4.83,1.18,8.47-1.82,6.75-6S95.7,73.41,97.14,69Z"/><path class="cls-194" d="M97.12,69a11.47,11.47,0,0,1-4.91,4.42c-3.69,2-3.71,8.22,2.24,9.67,4.81,1.16,8.42-1.83,6.7-6S95.7,73.43,97.12,69Z"/><path class="cls-195" d="M97.11,69a11.5,11.5,0,0,1-4.89,4.41c-3.68,1.94-3.7,8.22,2.26,9.64,4.79,1.15,8.36-1.83,6.65-6S95.69,73.46,97.11,69Z"/><path class="cls-196" d="M97.1,69.08a11.42,11.42,0,0,1-4.87,4.38c-3.67,1.94-3.68,8.22,2.27,9.63,4.78,1.13,8.32-1.84,6.61-6S95.69,73.48,97.1,69.08Z"/><path class="cls-197" d="M97.09,69.12a11.38,11.38,0,0,1-4.86,4.37c-3.65,1.93-3.65,8.21,2.3,9.61,4.75,1.11,8.26-1.85,6.55-5.95S95.68,73.51,97.09,69.12Z"/><path class="cls-198" d="M97.08,69.16a11.36,11.36,0,0,1-4.84,4.35c-3.64,1.93-3.64,8.21,2.31,9.59,4.74,1.1,8.21-1.85,6.51-5.93S95.68,73.53,97.08,69.16Z"/><path class="cls-199" d="M97.07,69.2a11.31,11.31,0,0,1-4.82,4.34c-3.63,1.92-3.62,8.21,2.33,9.57,4.71,1.08,8.15-1.86,6.45-5.93S95.67,73.56,97.07,69.2Z"/><path class="cls-200" d="M97.06,69.24a11.29,11.29,0,0,1-4.81,4.32c-3.61,1.92-3.59,8.21,2.35,9.56,4.7,1.06,8.1-1.87,6.41-5.93S95.67,73.59,97.06,69.24Z"/><path class="cls-201" d="M97.05,69.28a11.24,11.24,0,0,1-4.79,4.31c-3.6,1.9-3.57,8.2,2.37,9.53,4.67,1,8-1.88,6.36-5.92S95.66,73.61,97.05,69.28Z"/><path class="cls-202" d="M97,69.32a11.15,11.15,0,0,1-4.77,4.29c-3.6,1.9-3.56,8.2,2.38,9.52,4.66,1,8-1.89,6.31-5.91S95.66,73.64,97,69.32Z"/><path class="cls-203" d="M97,69.36a11.18,11.18,0,0,1-4.76,4.28c-3.58,1.89-3.53,8.2,2.41,9.49,4.63,1,7.93-1.89,6.26-5.9S95.65,73.66,97,69.36Z"/><path class="cls-204" d="M97,69.4a11.13,11.13,0,0,1-4.74,4.27c-3.57,1.88-3.51,8.19,2.42,9.47,4.62,1,7.88-1.9,6.21-5.9S95.65,73.69,97,69.4Z"/><path class="cls-205" d="M97,69.44a11.12,11.12,0,0,1-4.72,4.25c-3.56,1.88-3.5,8.19,2.44,9.46,4.59,1,7.82-1.91,6.16-5.89S95.64,73.71,97,69.44Z"/><path class="cls-206" d="M97,69.48a11,11,0,0,1-4.71,4.24c-3.54,1.87-3.47,8.19,2.46,9.43,4.58,1,7.77-1.91,6.12-5.88S95.63,73.74,97,69.48Z"/><path class="cls-207" d="M97,69.52a11,11,0,0,1-4.69,4.22c-3.53,1.87-3.45,8.19,2.48,9.42,4.55,1,7.71-1.92,6.06-5.88S95.63,73.76,97,69.52Z"/><path class="cls-208" d="M97,69.56a11,11,0,0,1-4.67,4.21c-3.52,1.86-3.43,8.18,2.49,9.4,4.54.93,7.66-1.93,6-5.88S95.62,73.79,97,69.56Z"/><path class="cls-209" d="M97,69.6a10.9,10.9,0,0,1-4.66,4.19c-3.5,1.86-3.41,8.19,2.52,9.38,4.52.92,7.6-1.94,6-5.86S95.62,73.81,97,69.6Z"/><path class="cls-210" d="M97,69.64a10.93,10.93,0,0,1-4.64,4.18c-3.49,1.84-3.39,8.18,2.53,9.36,4.5.9,7.55-2,5.92-5.86S95.61,73.84,97,69.64Z"/><path class="cls-211" d="M97,69.68a10.77,10.77,0,0,1-4.62,4.16C88.85,75.68,89,82,94.88,83.19c4.48.88,7.49-2,5.87-5.86S95.61,73.87,97,69.68Z"/><path class="cls-212" d="M96.94,69.73a10.81,10.81,0,0,1-4.61,4.14C88.87,75.7,89,82.05,94.9,83.19c4.46.87,7.44-2,5.82-5.84S95.6,73.89,96.94,69.73Z"/><path class="cls-213" d="M96.93,69.77a10.85,10.85,0,0,1-4.59,4.13c-3.45,1.82-3.33,8.17,2.59,9.3,4.44.85,7.38-2,5.77-5.84S95.6,73.92,96.93,69.77Z"/><path class="cls-214" d="M96.92,69.81a10.75,10.75,0,0,1-4.57,4.11C88.91,75.74,89,82.09,95,83.21c4.42.83,7.33-2,5.73-5.84S95.59,73.94,96.92,69.81Z"/><path class="cls-215" d="M96.91,69.85A10.77,10.77,0,0,1,92.35,74c-3.43,1.81-3.29,8.17,2.63,9.26,4.4.82,7.27-2,5.67-5.83S95.59,74,96.91,69.85Z"/><path class="cls-216" d="M96.9,69.89A10.6,10.6,0,0,1,92.36,74c-3.42,1.81-3.27,8.17,2.64,9.25,4.38.8,7.22-2,5.63-5.82S95.58,74,96.9,69.89Z"/><path class="cls-217" d="M96.89,69.93A10.64,10.64,0,0,1,92.37,74C89,75.8,89.12,82.16,95,83.23c4.36.78,7.16-2,5.57-5.82S95.58,74,96.89,69.93Z"/><path class="cls-218" d="M96.88,70a10.61,10.61,0,0,1-4.51,4c-3.39,1.8-3.22,8.17,2.68,9.21,4.34.77,7.11-2,5.53-5.81S95.57,74,96.88,70Z"/><path class="cls-219" d="M96.87,70a10.57,10.57,0,0,1-4.49,4c-3.38,1.78-3.21,8.16,2.7,9.19,4.32.75,7-2,5.48-5.8S95.57,74.07,96.87,70Z"/><path class="cls-220" d="M96.86,70.05a10.48,10.48,0,0,1-4.47,4C89,75.85,89.2,82.24,95.1,83.25c4.31.73,7-2,5.43-5.8S95.56,74.09,96.86,70.05Z"/><path class="cls-221" d="M96.85,70.09a10.42,10.42,0,0,1-4.46,4c-3.35,1.77-3.16,8.17,2.74,9.15,4.28.73,6.94-2,5.38-5.79S95.56,74.12,96.85,70.09Z"/><path class="cls-222" d="M96.84,70.13a10.46,10.46,0,0,1-4.44,4c-3.34,1.76-3.15,8.16,2.75,9.13,4.27.71,6.89-2,5.33-5.79S95.55,74.15,96.84,70.13Z"/><path class="cls-223" d="M96.83,70.17a10.44,10.44,0,0,1-4.42,4c-3.33,1.76-3.13,8.16,2.77,9.12,4.24.69,6.83-2,5.28-5.78S95.54,74.17,96.83,70.17Z"/><path class="cls-224" d="M96.82,70.21a10.39,10.39,0,0,1-4.41,4c-3.31,1.75-3.1,8.15,2.79,9.09,4.23.68,6.78-2,5.24-5.77S95.54,74.2,96.82,70.21Z"/><path class="cls-225" d="M94.3,77.29a4.2,4.2,0,0,0-1,.85,1.89,1.89,0,0,0,.12,2.07,5.73,5.73,0,0,0,1.66,1.51l.85.61a4.29,4.29,0,0,0,2.46-2.91,4.09,4.09,0,0,0-1-3.61c-.51-.55-1.21-1.09-1.18-1.81A5.26,5.26,0,0,1,94.3,77.29Z"/><g class="cls-226"><ellipse class="cls-227" cx="96.02" cy="75.84" rx="31.32" ry="29.67"/></g><g class="cls-228"><path class="cls-229" d="M98.35,64.08s-1.72,3.48-6.93,6.24-6.29,8.89,0,12c7.11,3.46,15.06-.88,12.63-6.73S96.34,70.35,98.35,64.08Z"/><path class="cls-230" d="M98.34,64.12s-1.71,3.48-6.92,6.23-6.26,8.88,0,11.93c7.1,3.45,15-.88,12.58-6.71S96.33,70.38,98.34,64.12Z"/><path class="cls-231" d="M98.33,64.16s-1.71,3.47-6.9,6.21-6.25,8.88,0,11.92c7.07,3.43,15-.89,12.53-6.71S96.33,70.4,98.33,64.16Z"/><path class="cls-232" d="M98.32,64.2s-1.7,3.46-6.88,6.2-6.23,8.87,0,11.9c7.06,3.41,14.9-.9,12.49-6.71S96.32,70.43,98.32,64.2Z"/><path class="cls-233" d="M98.31,64.24s-1.7,3.45-6.87,6.18-6.2,8.87.08,11.88c7,3.4,14.84-.9,12.43-6.69S96.32,70.45,98.31,64.24Z"/><path class="cls-234" d="M98.3,64.28s-1.7,3.44-6.85,6.17-6.18,8.86.09,11.86c7,3.38,14.79-.91,12.39-6.69S96.31,70.48,98.3,64.28Z"/><path class="cls-235" d="M98.29,64.32s-1.69,3.44-6.83,6.15-6.16,8.86.11,11.85c7,3.35,14.73-.92,12.33-6.69S96.31,70.51,98.29,64.32Z"/><path class="cls-236" d="M98.28,64.36s-1.69,3.43-6.82,6.14-6.13,8.84.13,11.82c7,3.33,14.68-.93,12.29-6.68S96.3,70.53,98.28,64.36Z"/><path class="cls-237" d="M98.27,64.41s-1.68,3.41-6.8,6.12-6.11,8.83.15,11.8c7,3.3,14.62-.94,12.24-6.67S96.3,70.56,98.27,64.41Z"/><path class="cls-238" d="M98.26,64.45s-1.68,3.4-6.78,6.1-6.09,8.83.16,11.79c7,3.28,14.57-1,12.19-6.67S96.29,70.58,98.26,64.45Z"/><path class="cls-239" d="M98.25,64.49s-1.68,3.39-6.77,6.09-6.07,8.82.19,11.76c6.93,3.27,14.51-1,12.14-6.66S96.29,70.61,98.25,64.49Z"/><path class="cls-240" d="M98.24,64.53s-1.67,3.39-6.75,6.07-6,8.82.2,11.75c6.92,3.24,14.46-1,12.09-6.65S96.28,70.63,98.24,64.53Z"/><path class="cls-241" d="M98.23,64.57S96.56,68,91.49,70.63s-6,8.81.23,11.73c6.89,3.22,14.4-1,12-6.65S96.27,70.66,98.23,64.57Z"/><path class="cls-242" d="M98.22,64.61s-1.66,3.37-6.72,6-6,8.81.24,11.71c6.88,3.2,14.35-1,12-6.64S96.27,70.68,98.22,64.61Z"/><path class="cls-243" d="M98.21,64.65s-1.66,3.36-6.7,6-6,8.79.26,11.69c6.86,3.18,14.29-1,11.94-6.64S96.26,70.71,98.21,64.65Z"/><path class="cls-244" d="M98.2,64.69s-1.66,3.36-6.69,6-6,8.79.28,11.67c6.84,3.17,14.24-1,11.9-6.62S96.26,70.73,98.2,64.69Z"/><path class="cls-245" d="M98.19,64.73s-1.65,3.35-6.67,6-5.93,8.78.3,11.65c6.82,3.14,14.18-1,11.84-6.62S96.25,70.76,98.19,64.73Z"/><path class="cls-246" d="M98.18,64.77s-1.65,3.34-6.65,6-5.92,8.77.31,11.63c6.81,3.12,14.13-1,11.8-6.62S96.25,70.79,98.18,64.77Z"/><path class="cls-247" d="M98.17,64.81s-1.64,3.33-6.64,6-5.89,8.77.34,11.61c6.78,3.11,14.07-1,11.75-6.6S96.24,70.81,98.17,64.81Z"/><path class="cls-248" d="M98.16,64.85s-1.64,3.32-6.62,6-5.87,8.76.35,11.59c6.77,3.08,14-1,11.7-6.6S96.24,70.84,98.16,64.85Z"/><path class="cls-249" d="M98.15,64.89s-1.64,3.32-6.6,5.94-5.85,8.76.37,11.58c6.75,3.06,14-1,11.65-6.6S96.23,70.86,98.15,64.89Z"/><path class="cls-250" d="M98.14,64.93s-1.63,3.31-6.59,5.93-5.82,8.75.39,11.55c6.73,3,13.91-1,11.61-6.59S96.23,70.89,98.14,64.93Z"/><path class="cls-251" d="M98.13,65s-1.63,3.3-6.57,5.91-5.8,8.75.41,11.54c6.71,3,13.85-1,11.55-6.58S96.22,70.91,98.13,65Z"/><path class="cls-252" d="M98.12,65s-1.62,3.29-6.55,5.9-5.79,8.74.42,11.52c6.7,3,13.8-1.05,11.51-6.58S96.22,70.94,98.12,65Z"/><path class="cls-253" d="M98.11,65.06s-1.62,3.28-6.54,5.87-5.76,8.73.45,11.5c6.67,3,13.74-1.06,11.45-6.57S96.21,71,98.11,65.06Z"/><path class="cls-254" d="M98.1,65.1S96.48,68.37,91.58,71s-5.74,8.72.46,11.48c6.66,3,13.69-1.07,11.41-6.56S96.21,71,98.1,65.1Z"/><path class="cls-255" d="M98.09,65.14S96.48,68.4,91.59,71s-5.72,8.71.48,11.46c6.64,2.94,13.63-1.08,11.36-6.56S96.2,71,98.09,65.14Z"/><path class="cls-256" d="M98.08,65.18S96.47,68.43,91.59,71s-5.69,8.71.5,11.44c6.62,2.92,13.58-1.08,11.31-6.55S96.2,71,98.08,65.18Z"/><path class="cls-257" d="M98.07,65.22S96.47,68.46,91.6,71s-5.67,8.7.52,11.42c6.6,2.9,13.52-1.09,11.26-6.54S96.19,71.07,98.07,65.22Z"/><path class="cls-258" d="M98.06,65.26s-1.6,3.24-6.45,5.8-5.66,8.7.53,11.41c6.59,2.88,13.48-1.1,11.21-6.54S96.18,71.09,98.06,65.26Z"/><path class="cls-259" d="M98.05,65.3s-1.6,3.23-6.44,5.79-5.63,8.69.56,11.38c6.56,2.86,13.42-1.1,11.16-6.53S96.18,71.12,98.05,65.3Z"/><path class="cls-260" d="M98,65.34s-1.59,3.22-6.42,5.77S86,79.8,92.19,82.48c6.55,2.84,13.37-1.11,11.12-6.53S96.17,71.14,98,65.34Z"/><path class="cls-261" d="M98,65.38s-1.59,3.21-6.4,5.76-5.59,8.68.59,11.35c6.52,2.82,13.31-1.13,11.06-6.52S96.17,71.17,98,65.38Z"/><path class="cls-262" d="M98,65.42s-1.58,3.21-6.39,5.74-5.56,8.68.61,11.33c6.51,2.8,13.26-1.13,11-6.51S96.16,71.19,98,65.42Z"/><path class="cls-263" d="M98,65.46s-1.58,3.2-6.37,5.73-5.55,8.67.63,11.31c6.49,2.78,13.2-1.14,11-6.51S96.16,71.22,98,65.46Z"/><path class="cls-264" d="M98,65.5s-1.58,3.19-6.35,5.71-5.53,8.67.64,11.3c6.47,2.76,13.15-1.15,10.92-6.5S96.15,71.24,98,65.5Z"/><path class="cls-265" d="M98,65.54s-1.57,3.18-6.34,5.7-5.5,8.65.67,11.27c6.45,2.74,13.09-1.15,10.87-6.49S96.15,71.27,98,65.54Z"/><path class="cls-266" d="M98,65.58s-1.57,3.17-6.32,5.69-5.48,8.64.68,11.25c6.44,2.72,13-1.16,10.82-6.49S96.14,71.29,98,65.58Z"/><path class="cls-267" d="M98,65.62s-1.56,3.17-6.3,5.67-5.46,8.64.7,11.24c6.41,2.7,13-1.17,10.77-6.49S96.14,71.32,98,65.62Z"/><path class="cls-268" d="M98,65.66s-1.56,3.16-6.29,5.66-5.43,8.63.72,11.21c6.4,2.68,12.93-1.17,10.72-6.47S96.13,71.35,98,65.66Z"/><path class="cls-269" d="M98,65.7s-1.56,3.15-6.27,5.64-5.42,8.63.74,11.2c6.38,2.66,12.87-1.19,10.67-6.47S96.13,71.37,98,65.7Z"/><path class="cls-270" d="M97.94,65.75s-1.55,3.13-6.25,5.62-5.4,8.62.75,11.18c6.36,2.64,12.82-1.2,10.63-6.47S96.12,71.4,97.94,65.75Z"/><path class="cls-271" d="M97.93,65.79s-1.55,3.13-6.24,5.6-5.37,8.62.78,11.16c6.34,2.62,12.76-1.2,10.57-6.45S96.12,71.42,97.93,65.79Z"/><path class="cls-272" d="M97.92,65.83S96.38,69,91.7,71.42s-5.35,8.61.79,11.14c6.32,2.6,12.71-1.21,10.53-6.45S96.11,71.45,97.92,65.83Z"/><path class="cls-273" d="M97.91,65.87s-1.54,3.11-6.2,5.57-5.33,8.61.81,11.13c6.3,2.58,12.65-1.22,10.48-6.45S96.11,71.47,97.91,65.87Z"/><path class="cls-274" d="M97.9,65.91s-1.54,3.1-6.19,5.56-5.31,8.6.83,11.1,12.6-1.22,10.43-6.44S96.1,71.5,97.9,65.91Z"/><path class="cls-275" d="M97.89,66S96.36,69,91.72,71.5s-5.29,8.59.85,11.08,12.54-1.23,10.38-6.43S96.09,71.52,97.89,66Z"/><path class="cls-276" d="M97.88,66s-1.53,3.09-6.15,5.53-5.27,8.59.86,11.07,12.49-1.24,10.33-6.43S96.09,71.55,97.88,66Z"/><path class="cls-277" d="M97.87,66s-1.52,3.08-6.14,5.52-5.24,8.58.89,11,12.43-1.25,10.28-6.42S96.08,71.57,97.87,66Z"/><path class="cls-278" d="M97.86,66.07s-1.52,3.07-6.12,5.5-5.22,8.58.9,11,12.38-1.26,10.24-6.41S96.08,71.6,97.86,66.07Z"/><path class="cls-279" d="M97.85,66.11s-1.52,3.06-6.1,5.49-5.21,8.57.92,11S105,81.34,102.85,76.2,96.07,71.63,97.85,66.11Z"/><path class="cls-280" d="M97.84,66.15s-1.51,3-6.09,5.47-5.18,8.57.94,11,12.27-1.27,10.14-6.4S96.07,71.65,97.84,66.15Z"/><path class="cls-281" d="M97.83,66.19s-1.51,3-6.07,5.46-5.16,8.56,1,11,12.21-1.28,10.08-6.4S96.06,71.68,97.83,66.19Z"/><path class="cls-282" d="M97.82,66.23s-1.5,3-6,5.44-5.14,8.56,1,11,12.16-1.29,10-6.39S96.06,71.7,97.82,66.23Z"/><path class="cls-283" d="M97.81,66.27s-1.5,3-6,5.43-5.11,8.54,1,10.93,12.1-1.29,10-6.38S96.05,71.73,97.81,66.27Z"/><path class="cls-284" d="M97.8,66.31s-1.5,3-6,5.42-5.1,8.53,1,10.91,12-1.3,9.93-6.38S96.05,71.75,97.8,66.31Z"/><path class="cls-285" d="M97.79,66.35s-1.49,3-6,5.4-5.08,8.53,1,10.9,12-1.32,9.89-6.37S96,71.78,97.79,66.35Z"/><path class="cls-286" d="M97.78,66.4s-1.49,3-6,5.38-5.05,8.52,1.06,10.87,11.93-1.32,9.83-6.36S96,71.8,97.78,66.4Z"/><path class="cls-287" d="M97.76,66.44s-1.47,3-6,5.36-5,8.52,1.07,10.86,11.88-1.33,9.79-6.36S96,71.83,97.76,66.44Z"/><path class="cls-288" d="M97.75,66.48s-1.47,3-5.94,5.35-5,8.51,1.09,10.84,11.82-1.34,9.74-6.36S96,71.85,97.75,66.48Z"/><path class="cls-289" d="M97.74,66.52s-1.47,3-5.93,5.33-5,8.51,1.11,10.82,11.77-1.34,9.69-6.34S96,71.88,97.74,66.52Z"/><path class="cls-290" d="M97.73,66.56s-1.46,3-5.91,5.32-5,8.5,1.13,10.8,11.71-1.35,9.64-6.34S96,71.91,97.73,66.56Z"/><path class="cls-291" d="M97.72,66.6s-1.46,3-5.89,5.3-5,8.5,1.14,10.79,11.66-1.36,9.59-6.34S96,71.93,97.72,66.6Z"/><path class="cls-292" d="M97.71,66.64s-1.45,3-5.88,5.29S86.91,80.42,93,82.69c5.94,2.22,11.6-1.36,9.54-6.32S96,72,97.71,66.64Z"/><path class="cls-293" d="M97.7,66.68S96.25,69.62,91.84,72,86.93,80.44,93,82.7c5.92,2.19,11.55-1.38,9.5-6.32S96,72,97.7,66.68Z"/><path class="cls-294" d="M97.69,66.72S96.24,69.66,91.84,72,87,80.46,93.05,82.71c5.9,2.17,11.49-1.39,9.44-6.32S96,72,97.69,66.72Z"/><path class="cls-295" d="M97.68,66.76S96.24,69.69,91.85,72,87,80.48,93.07,82.71c5.89,2.16,11.44-1.39,9.4-6.3S96,72,97.68,66.76Z"/><path class="cls-296" d="M97.67,66.8A13.65,13.65,0,0,1,91.86,72C87.48,74.34,87,80.5,93.1,82.72c5.86,2.14,11.38-1.4,9.35-6.3S96,72.06,97.67,66.8Z"/><path class="cls-297" d="M97.66,66.84s-1.43,2.91-5.8,5.22S87,80.52,93.12,82.73c5.85,2.11,11.33-1.41,9.3-6.3S96,72.08,97.66,66.84Z"/><path class="cls-298" d="M97.65,66.88s-1.43,2.9-5.78,5.2-4.8,8.46,1.28,10.65c5.82,2.1,11.27-1.41,9.25-6.29S96,72.11,97.65,66.88Z"/><path class="cls-299" d="M97.64,66.92a13.55,13.55,0,0,1-5.76,5.19c-4.34,2.29-4.78,8.45,1.29,10.63,5.81,2.08,11.22-1.42,9.2-6.28S96,72.13,97.64,66.92Z"/><path class="cls-300" d="M97.63,67a13.44,13.44,0,0,1-5.75,5.17c-4.32,2.29-4.75,8.45,1.32,10.62,5.78,2.06,11.16-1.43,9.15-6.28S96,72.16,97.63,67Z"/><path class="cls-301" d="M97.62,67a13.47,13.47,0,0,1-5.73,5.16c-4.31,2.28-4.73,8.44,1.33,10.59,5.77,2,11.11-1.44,9.11-6.27S96,72.19,97.62,67Z"/><path class="cls-302" d="M97.61,67a13.43,13.43,0,0,1-5.71,5.15c-4.3,2.27-4.72,8.43,1.35,10.57,5.75,2,11-1.45,9-6.26S96,72.21,97.61,67Z"/><path class="cls-303" d="M97.6,67.09a13.35,13.35,0,0,1-5.7,5.12c-4.28,2.27-4.69,8.43,1.37,10.55,5.73,2,11-1.45,9-6.25S96,72.24,97.6,67.09Z"/><path class="cls-304" d="M97.59,67.13a13.38,13.38,0,0,1-5.68,5.11c-4.27,2.25-4.67,8.42,1.39,10.53,5.71,2,10.94-1.46,9-6.25S95.94,72.26,97.59,67.13Z"/><path class="cls-305" d="M97.58,67.17a13.29,13.29,0,0,1-5.66,5.09c-4.26,2.25-4.65,8.42,1.4,10.52,5.69,2,10.9-1.47,8.91-6.25S95.94,72.29,97.58,67.17Z"/><path class="cls-306" d="M97.57,67.21a13.31,13.31,0,0,1-5.65,5.08c-4.24,2.24-4.63,8.41,1.43,10.49,5.67,2,10.84-1.47,8.86-6.23S95.93,72.31,97.57,67.21Z"/><path class="cls-307" d="M97.56,67.25a13.21,13.21,0,0,1-5.63,5.06c-4.23,2.24-4.61,8.41,1.44,10.48,5.66,1.93,10.79-1.48,8.81-6.23S95.93,72.34,97.56,67.25Z"/><path class="cls-308" d="M97.55,67.29a13.18,13.18,0,0,1-5.61,5c-4.23,2.23-4.59,8.4,1.46,10.46,5.63,1.91,10.73-1.49,8.76-6.23S95.92,72.36,97.55,67.29Z"/><path class="cls-309" d="M97.54,67.33a13.15,13.15,0,0,1-5.6,5c-4.21,2.23-4.56,8.4,1.48,10.44,5.62,1.9,10.68-1.5,8.71-6.21S95.91,72.39,97.54,67.33Z"/><path class="cls-310" d="M97.53,67.37a13.1,13.1,0,0,1-5.58,5c-4.2,2.22-4.55,8.39,1.5,10.42,5.59,1.88,10.62-1.51,8.66-6.21S95.91,72.41,97.53,67.37Z"/><path class="cls-311" d="M97.52,67.41a13.09,13.09,0,0,1-5.56,5c-4.19,2.22-4.53,8.4,1.51,10.41,5.58,1.86,10.57-1.52,8.62-6.21S95.9,72.44,97.52,67.41Z"/><path class="cls-312" d="M97.51,67.45a13,13,0,0,1-5.55,5c-4.17,2.21-4.5,8.39,1.54,10.38,5.55,1.84,10.51-1.52,8.56-6.2S95.9,72.47,97.51,67.45Z"/><path class="cls-313" d="M97.5,67.49a13,13,0,0,1-5.53,5c-4.16,2.19-4.48,8.38,1.55,10.36C99.06,84.65,104,81.3,102,76.64S95.89,72.49,97.5,67.49Z"/><path class="cls-314" d="M97.49,67.53a13,13,0,0,1-5.51,5c-4.15,2.19-4.47,8.38,1.57,10.35,5.52,1.8,10.4-1.54,8.46-6.19S95.89,72.52,97.49,67.53Z"/><path class="cls-315" d="M97.48,67.57a12.92,12.92,0,0,1-5.5,5c-4.13,2.18-4.44,8.37,1.59,10.32,5.5,1.79,10.35-1.54,8.42-6.18S95.88,72.54,97.48,67.57Z"/><path class="cls-316" d="M97.47,67.61A12.91,12.91,0,0,1,92,72.54c-4.12,2.18-4.42,8.37,1.61,10.31,5.48,1.77,10.29-1.55,8.37-6.17S95.88,72.57,97.47,67.61Z"/><path class="cls-317" d="M97.46,67.65A12.79,12.79,0,0,1,92,72.57c-4.11,2.17-4.4,8.36,1.62,10.29,5.46,1.75,10.24-1.57,8.32-6.17S95.87,72.59,97.46,67.65Z"/><path class="cls-318" d="M97.45,67.69A12.76,12.76,0,0,1,92,72.59c-4.09,2.17-4.38,8.36,1.65,10.27,5.44,1.73,10.18-1.57,8.27-6.16S95.87,72.62,97.45,67.69Z"/><path class="cls-319" d="M97.44,67.74A12.82,12.82,0,0,1,92,72.62c-4.08,2.16-4.36,8.35,1.66,10.25,5.42,1.71,10.13-1.58,8.23-6.16S95.86,72.64,97.44,67.74Z"/><path class="cls-320" d="M97.43,67.78A12.72,12.72,0,0,1,92,72.64C87.94,74.8,87.68,81,93.7,82.88c5.4,1.69,10.07-1.59,8.17-6.15S95.86,72.67,97.43,67.78Z"/><path class="cls-321" d="M97.42,67.82A12.75,12.75,0,0,1,92,72.67C88,74.82,87.71,81,93.72,82.88c5.39,1.68,10-1.59,8.13-6.14S95.85,72.69,97.42,67.82Z"/><path class="cls-322" d="M97.41,67.86A12.63,12.63,0,0,1,92,72.7c-4,2.13-4.3,8.33,1.72,10.19,5.36,1.66,10-1.6,8.07-6.14S95.85,72.72,97.41,67.86Z"/><path class="cls-323" d="M97.4,67.9A12.61,12.61,0,0,1,92,72.72c-4,2.13-4.28,8.33,1.73,10.18,5.35,1.64,9.91-1.61,8-6.13S95.84,72.75,97.4,67.9Z"/><path class="cls-324" d="M97.39,67.94A12.64,12.64,0,0,1,92,72.75c-4,2.12-4.25,8.32,1.76,10.15,5.32,1.62,9.85-1.61,8-6.12S95.84,72.77,97.39,67.94Z"/><path class="cls-325" d="M97.38,68a12.54,12.54,0,0,1-5.33,4.79c-4,2.12-4.23,8.32,1.77,10.14,5.31,1.6,9.8-1.63,7.93-6.12S95.83,72.8,97.38,68Z"/><path class="cls-326" d="M97.37,68a12.5,12.5,0,0,1-5.31,4.78c-4,2.11-4.22,8.32,1.79,10.12,5.28,1.58,9.74-1.64,7.88-6.12S95.82,72.82,97.37,68Z"/><path class="cls-327" d="M97.36,68.06a12.4,12.4,0,0,1-5.3,4.76c-4,2.11-4.19,8.32,1.81,10.1,5.27,1.57,9.69-1.64,7.83-6.1S95.82,72.85,97.36,68.06Z"/><path class="cls-328" d="M97.35,68.1a12.43,12.43,0,0,1-5.28,4.75c-4,2.1-4.17,8.31,1.83,10.08,5.24,1.55,9.63-1.65,7.78-6.1S95.81,72.87,97.35,68.1Z"/><path class="cls-329" d="M97.34,68.14a12.41,12.41,0,0,1-5.26,4.73c-4,2.1-4.15,8.31,1.84,10.07,5.23,1.53,9.58-1.66,7.74-6.1S95.81,72.9,97.34,68.14Z"/><path class="cls-330" d="M97.33,68.18a12.36,12.36,0,0,1-5.25,4.72C88.14,75,88,81.2,94,82.94c5.21,1.52,9.52-1.66,7.68-6.08S95.8,72.92,97.33,68.18Z"/><path class="cls-331" d="M97.32,68.22a12.32,12.32,0,0,1-5.23,4.71C88.16,75,88,81.22,94,83c5.19,1.5,9.47-1.67,7.64-6.08S95.8,73,97.32,68.22Z"/><path class="cls-332" d="M97.31,68.26A12.22,12.22,0,0,1,92.1,73C88.18,75,88,81.24,94,83c5.17,1.47,9.41-1.68,7.58-6.08S95.79,73,97.31,68.26Z"/><path class="cls-333" d="M97.3,68.3A12.25,12.25,0,0,1,92.1,73C88.19,75,88,81.26,94,83c5.15,1.46,9.36-1.69,7.54-6.07S95.79,73,97.3,68.3Z"/><path class="cls-334" d="M97.29,68.34A12.23,12.23,0,0,1,92.11,73c-3.9,2.06-4,8.29,1.94,10,5.13,1.44,9.3-1.7,7.49-6.06S95.78,73,97.29,68.34Z"/><path class="cls-335" d="M97.28,68.38A12.12,12.12,0,0,1,92.12,73c-3.89,2-4,8.28,1.95,10,5.11,1.42,9.25-1.71,7.44-6.06S95.78,73.05,97.28,68.38Z"/><path class="cls-336" d="M97.27,68.43a12.11,12.11,0,0,1-5.15,4.62c-3.87,2-4,8.28,2,9.93,5.09,1.41,9.19-1.71,7.39-6S95.77,73.08,97.27,68.43Z"/><path class="cls-337" d="M97.26,68.47a12.06,12.06,0,0,1-5.13,4.61c-3.86,2-4,8.27,2,9.91,5.07,1.39,9.14-1.72,7.34-6S95.77,73.1,97.26,68.47Z"/><path class="cls-338" d="M97.25,68.51a12,12,0,0,1-5.11,4.59c-3.85,2-4,8.27,2,9.9,5,1.37,9.08-1.73,7.29-6S95.76,73.13,97.25,68.51Z"/><path class="cls-339" d="M97.24,68.55a12.07,12.07,0,0,1-5.1,4.58c-3.83,2-3.94,8.26,2,9.87,5,1.36,9-1.73,7.25-6S95.76,73.15,97.24,68.55Z"/><path class="cls-340" d="M97.23,68.59a12,12,0,0,1-5.08,4.57c-3.82,2-3.93,8.25,2,9.85,5,1.34,9-1.74,7.19-6S95.75,73.18,97.23,68.59Z"/><path class="cls-341" d="M97.22,68.63a11.94,11.94,0,0,1-5.06,4.55c-3.81,2-3.91,8.26,2.06,9.84,5,1.32,8.92-1.76,7.15-6S95.75,73.2,97.22,68.63Z"/><path class="cls-342" d="M97.21,68.67a11.88,11.88,0,0,1-5,4.54c-3.79,2-3.88,8.25,2.09,9.81,5,1.31,8.86-1.76,7.1-6S95.74,73.23,97.21,68.67Z"/><path class="cls-343" d="M97.2,68.71a11.86,11.86,0,0,1-5,4.52c-3.78,2-3.86,8.25,2.1,9.8,5,1.28,8.81-1.77,7-6S95.73,73.25,97.2,68.71Z"/><path class="cls-344" d="M97.19,68.75a11.82,11.82,0,0,1-5,4.51c-3.76,2-3.84,8.24,2.13,9.78,4.93,1.26,8.75-1.78,7-6S95.73,73.28,97.19,68.75Z"/><path class="cls-345" d="M97.18,68.79a11.72,11.72,0,0,1-5,4.49c-3.75,2-3.82,8.24,2.15,9.76,4.91,1.25,8.69-1.78,6.94-6S95.72,73.31,97.18,68.79Z"/><path class="cls-346" d="M97.17,68.83a11.76,11.76,0,0,1-5,4.48c-3.75,2-3.8,8.24,2.16,9.74,4.89,1.23,8.64-1.79,6.9-6S95.72,73.33,97.17,68.83Z"/><path class="cls-347" d="M97.16,68.87a11.65,11.65,0,0,1-5,4.46c-3.73,2-3.77,8.24,2.19,9.73,4.87,1.21,8.58-1.8,6.85-6S95.71,73.36,97.16,68.87Z"/><path class="cls-348" d="M97.15,68.91a11.68,11.68,0,0,1-5,4.45c-3.72,2-3.76,8.23,2.2,9.7,4.85,1.2,8.53-1.8,6.8-6S95.71,73.38,97.15,68.91Z"/><path class="cls-349" d="M97.14,69a11.65,11.65,0,0,1-4.93,4.44c-3.71,2-3.74,8.22,2.22,9.68,4.83,1.18,8.47-1.82,6.75-6S95.7,73.41,97.14,69Z"/><path class="cls-350" d="M97.12,69a11.47,11.47,0,0,1-4.91,4.42c-3.69,2-3.71,8.22,2.24,9.67,4.81,1.16,8.42-1.83,6.7-6S95.7,73.43,97.12,69Z"/><path class="cls-351" d="M97.11,69a11.5,11.5,0,0,1-4.89,4.41c-3.68,1.94-3.7,8.22,2.26,9.64,4.79,1.15,8.36-1.83,6.65-6S95.69,73.46,97.11,69Z"/><path class="cls-352" d="M97.1,69.08a11.42,11.42,0,0,1-4.87,4.38c-3.67,1.94-3.68,8.22,2.27,9.63,4.78,1.13,8.32-1.84,6.61-6S95.69,73.48,97.1,69.08Z"/><path class="cls-353" d="M97.09,69.12a11.38,11.38,0,0,1-4.86,4.37c-3.65,1.93-3.65,8.21,2.3,9.61,4.75,1.11,8.26-1.85,6.55-5.95S95.68,73.51,97.09,69.12Z"/><path class="cls-354" d="M97.08,69.16a11.36,11.36,0,0,1-4.84,4.35c-3.64,1.93-3.64,8.21,2.31,9.59,4.74,1.1,8.21-1.85,6.51-5.93S95.68,73.53,97.08,69.16Z"/><path class="cls-355" d="M97.07,69.2a11.31,11.31,0,0,1-4.82,4.34c-3.63,1.92-3.62,8.21,2.33,9.57,4.71,1.08,8.15-1.86,6.45-5.93S95.67,73.56,97.07,69.2Z"/><path class="cls-356" d="M97.06,69.24a11.29,11.29,0,0,1-4.81,4.32c-3.61,1.92-3.59,8.21,2.35,9.56,4.7,1.06,8.1-1.87,6.41-5.93S95.67,73.59,97.06,69.24Z"/><path class="cls-357" d="M97.05,69.28a11.24,11.24,0,0,1-4.79,4.31c-3.6,1.9-3.57,8.2,2.37,9.53,4.67,1,8-1.88,6.36-5.92S95.66,73.61,97.05,69.28Z"/><path class="cls-358" d="M97,69.32a11.15,11.15,0,0,1-4.77,4.29c-3.6,1.9-3.56,8.2,2.38,9.52,4.66,1,8-1.89,6.31-5.91S95.66,73.64,97,69.32Z"/><path class="cls-359" d="M97,69.36a11.18,11.18,0,0,1-4.76,4.28c-3.58,1.89-3.53,8.2,2.41,9.49,4.63,1,7.93-1.89,6.26-5.9S95.65,73.66,97,69.36Z"/><path class="cls-360" d="M97,69.4a11.13,11.13,0,0,1-4.74,4.27c-3.57,1.88-3.51,8.19,2.42,9.47,4.62,1,7.88-1.9,6.21-5.9S95.65,73.69,97,69.4Z"/><path class="cls-361" d="M97,69.44a11.12,11.12,0,0,1-4.72,4.25c-3.56,1.88-3.5,8.19,2.44,9.46,4.59,1,7.82-1.91,6.16-5.89S95.64,73.71,97,69.44Z"/><path class="cls-362" d="M97,69.48a11,11,0,0,1-4.71,4.24c-3.54,1.87-3.47,8.19,2.46,9.43,4.58,1,7.77-1.91,6.12-5.88S95.63,73.74,97,69.48Z"/><path class="cls-363" d="M97,69.52a11,11,0,0,1-4.69,4.22c-3.53,1.87-3.45,8.19,2.48,9.42,4.55,1,7.71-1.92,6.06-5.88S95.63,73.76,97,69.52Z"/><path class="cls-364" d="M97,69.56a11,11,0,0,1-4.67,4.21c-3.52,1.86-3.43,8.18,2.49,9.4,4.54.93,7.66-1.93,6-5.88S95.62,73.79,97,69.56Z"/><path class="cls-365" d="M97,69.6a10.9,10.9,0,0,1-4.66,4.19c-3.5,1.86-3.41,8.19,2.52,9.38,4.52.92,7.6-1.94,6-5.86S95.62,73.81,97,69.6Z"/><path class="cls-366" d="M97,69.64a10.93,10.93,0,0,1-4.64,4.18c-3.49,1.84-3.39,8.18,2.53,9.36,4.5.9,7.55-2,5.92-5.86S95.61,73.84,97,69.64Z"/><path class="cls-367" d="M97,69.68a10.77,10.77,0,0,1-4.62,4.16C88.85,75.68,89,82,94.88,83.19c4.48.88,7.49-2,5.87-5.86S95.61,73.87,97,69.68Z"/><path class="cls-368" d="M96.94,69.73a10.81,10.81,0,0,1-4.61,4.14C88.87,75.7,89,82.05,94.9,83.19c4.46.87,7.44-2,5.82-5.84S95.6,73.89,96.94,69.73Z"/><path class="cls-369" d="M96.93,69.77a10.85,10.85,0,0,1-4.59,4.13c-3.45,1.82-3.33,8.17,2.59,9.3,4.44.85,7.38-2,5.77-5.84S95.6,73.92,96.93,69.77Z"/><path class="cls-370" d="M96.92,69.81a10.75,10.75,0,0,1-4.57,4.11C88.91,75.74,89,82.09,95,83.21c4.42.83,7.33-2,5.73-5.84S95.59,73.94,96.92,69.81Z"/><path class="cls-371" d="M96.91,69.85A10.77,10.77,0,0,1,92.35,74c-3.43,1.81-3.29,8.17,2.63,9.26,4.4.82,7.27-2,5.67-5.83S95.59,74,96.91,69.85Z"/><path class="cls-372" d="M96.9,69.89A10.6,10.6,0,0,1,92.36,74c-3.42,1.81-3.27,8.17,2.64,9.25,4.38.8,7.22-2,5.63-5.82S95.58,74,96.9,69.89Z"/><path class="cls-373" d="M96.89,69.93A10.64,10.64,0,0,1,92.37,74C89,75.8,89.12,82.16,95,83.23c4.36.78,7.16-2,5.57-5.82S95.58,74,96.89,69.93Z"/><path class="cls-374" d="M96.88,70a10.61,10.61,0,0,1-4.51,4c-3.39,1.8-3.22,8.17,2.68,9.21,4.34.77,7.11-2,5.53-5.81S95.57,74,96.88,70Z"/><path class="cls-375" d="M96.87,70a10.57,10.57,0,0,1-4.49,4c-3.38,1.78-3.21,8.16,2.7,9.19,4.32.75,7-2,5.48-5.8S95.57,74.07,96.87,70Z"/><path class="cls-376" d="M96.86,70.05a10.48,10.48,0,0,1-4.47,4C89,75.85,89.2,82.24,95.1,83.25c4.31.73,7-2,5.43-5.8S95.56,74.09,96.86,70.05Z"/><path class="cls-377" d="M96.85,70.09a10.42,10.42,0,0,1-4.46,4c-3.35,1.77-3.16,8.17,2.74,9.15,4.28.73,6.94-2,5.38-5.79S95.56,74.12,96.85,70.09Z"/><path class="cls-378" d="M96.84,70.13a10.46,10.46,0,0,1-4.44,4c-3.34,1.76-3.15,8.16,2.75,9.13,4.27.71,6.89-2,5.33-5.79S95.55,74.15,96.84,70.13Z"/><path class="cls-379" d="M96.83,70.17a10.44,10.44,0,0,1-4.42,4c-3.33,1.76-3.13,8.16,2.77,9.12,4.24.69,6.83-2,5.28-5.78S95.54,74.17,96.83,70.17Z"/><path class="cls-380" d="M96.82,70.21a10.39,10.39,0,0,1-4.41,4c-3.31,1.75-3.1,8.15,2.79,9.09,4.23.68,6.78-2,5.24-5.77S95.54,74.2,96.82,70.21Z"/></g><g class="cls-228"><path class="cls-381" d="M140,100.54a93,93,0,0,0-9.84-4.64L127.89,92l-4.91-1a28.84,28.84,0,0,0,3.48-8.14l.05-.09c.25-.39.49-.79.73-1.19l.42-.7c.26-.47.51-1,.76-1.43.09-.19.19-.37.29-.55.33-.68.65-1.38,1-2.08l0-.12c.29-.67.56-1.34.81-2l.24-.69c.17-.5.35-1,.51-1.52.09-.28.17-.57.25-.86.14-.47.28-.94.4-1.42.08-.31.16-.62.23-.93.11-.47.22-.94.32-1.41s.14-.65.2-1,.17-.94.25-1.42l.09-.47v0a57.22,57.22,0,0,0-5.74-34.74c-7-13.36-20.08-22.31-35.19-26.77V1c-2.37-2.19-4.15,0-4.15,0v1.3C56.78-5.08,19.07,5.91,8.89,36.1,4.8,48.22,4.39,58.21,6.24,66.41h0a1.05,1.05,0,0,1,0,.19c.18.77.37,1.52.59,2.25a2.76,2.76,0,0,0,.08.27c.23.78.48,1.54.76,2.29l.12.33c.27.72.56,1.43.87,2.12l0,.08c.32.71.67,1.41,1,2.09l.17.32c.35.66.72,1.32,1.11,2l.7,15.27A109.68,109.68,0,0,0,0,98.74s3.57,3.69,11.48,8.15L6.23,110l1.93.7L5.86,112c10.42,3.92,21.21,7,32.4,8.08,6,.57,12.37,3.78,16.9,7.56,0,0,2.78-2.75,6.41-6.19l1.35.14a93.56,93.56,0,0,0,14,.2l-7.16,1.79a1.49,1.49,0,0,0-.12,1.35c-.12.48-.07,1.2,1.1,1.48l17.8-4.63a.24.24,0,0,0,0,.08,3,3,0,0,0,1.13.11c1.09-.1,1.86-.82,1.74-1.6a.73.73,0,0,0-.06-.21c1.31-.22,2.62-.46,3.92-.71l.23,1.81c-.46.23-.93.49-1.44.79l18.75,6.56.2-.08,22.29-8.38-1.51-1.2.84-5.4-.18-.06h0l-9.58-3.12C131.68,107.33,137.06,103.93,140,100.54Z"/><path class="cls-382" d="M104.83,128c.09-.76-.79-1.49-2-1.61a2.68,2.68,0,0,0-1.67.31h0l-18.65-2A1.22,1.22,0,0,0,82,126.4a1.83,1.83,0,0,0,.32,1.3l18.78,1.6v0a2.69,2.69,0,0,0,1.55.65c1.18.13,2.2-.39,2.29-1.16a.93.93,0,0,1-.08-.85Z"/></g></g></g></g></svg>