<svg xmlns="http://www.w3.org/2000/svg" xmlns:xlink="http://www.w3.org/1999/xlink" viewBox="0 0 125.25 87.41"><defs><style>.cls-1{stroke:#fff;stroke-miterlimit:10;fill:url(#Ñóïåðìÿãêàÿ_åðíàÿ_âèíüåòêà);}</style><radialGradient id="Ñóïåðìÿãêàÿ_åðíàÿ_âèíüåòêà" cx="62.62" cy="43.71" r="53.51" gradientUnits="userSpaceOnUse"><stop offset="0.57" stop-color="#130c0e"/><stop offset="0.8" stop-color="#130c0e"/><stop offset="1" stop-color="#130c0e"/></radialGradient></defs><g id="Layer_2" data-name="Layer 2"><g id="final"><path class="cls-1" d="M53,45.94c.55.21,1,.41,1.46.54,3.55,1,4.67,3.2,4.55,6.59a7.37,7.37,0,0,1-6.66,7.4,6,6,0,0,1-3.58-.69,18.68,18.68,0,0,1-3.62-3.44c-1.18-1.33-.49-6.35,1-7.5s3-2.76,5.27-3c0-.54.06-1,.08-1.48.09-3.48.2-7,.26-10.42,0-1.94-.06-3.89,0-5.83.26-6.57.56-13.14.84-19.7,0-.84,0-1.67,0-2.64-4-.09-7.73-.2-11.48-.24-2.12,0-2.07.05-2.83,2C35.63,14.21,33,20.83,30.39,27.46c-1.3,3.32-2.52,6.67-3.84,10-.67,1.68-1.48,3.3-2.33,5.18,3.24-.19,4.72,2.1,6.12,4.2a8.58,8.58,0,0,1,.91,6.68c-.79,3.74-3.54,6.88-8.8,5.86-4.16-.81-6.15-3.17-6.44-7.56C15.76,47.89,17,45,21.64,43a2.83,2.83,0,0,0,1.63-1.74c2.84-7.07,5.72-14.13,8.58-21.19,1.91-4.74,3.8-9.48,5.8-14.47-.86-.06-1.52-.14-2.18-.14-3.56,0-7.11.08-10.69-.11-5.21-.27-10.45,0-15.68.19-1.53,0-1.89.42-2,1.83-.18,2.44-.43,4.89-.37,7.32.15,5.68,0,11.34-.45,17-.16,2.09,0,4.2-.06,6.3Q6,46.83,5.8,55.65c-.12,4.26-.3,8.53-.41,12.8C5.26,73.2,5.2,78,5.1,82.71a10.35,10.35,0,0,1-.17,2.09,1.91,1.91,0,0,1-2.17,1.55A1.8,1.8,0,0,1,.9,84.69a21.9,21.9,0,0,1-.22-3.14c0-8.89.06-17.79,0-26.68,0-2.71-.29-5.42-.22-8.12.11-4,.43-8.09.64-12.14s.42-7.82.58-11.74c.18-4.26.23-8.53.45-12.8.11-2.21.06-4.52,1.32-6.5A3,3,0,0,1,5,2.26,29.64,29.64,0,0,1,10.88,1c2.91-.21,5.86,0,8.79-.06,5-.05,10.07-.17,15.1-.22,1.32,0,2.64.23,3.95.19C42.21.8,45.7.55,49.19.51c4.07,0,8.13,0,12.2.13C66.63.74,71.88,1,77.13,1,84.33,1,91.54.79,98.74.69c2.43,0,4.87,0,7.3,0,3.77,0,7.54,0,11.3-.12,4.36-.11,6.85,1.72,7.24,6.09a94,94,0,0,1,0,10.62c-.11,4.61-.31,9.23-.53,13.84-.19,3.84-.54,7.67-.7,11.51-.21,4.88-.28,9.77-.42,14.66-.18,6.43-.28,12.86-.61,19.28a62.39,62.39,0,0,1-1.19,8.49,2,2,0,0,1-3.32,1.35,1.78,1.78,0,0,1-.76-1.82c.12-1.33.4-2.65.39-4-.06-6.87.56-13.69,1.14-20.52.32-3.83.33-7.68.58-11.51.31-4.67.72-9.33,1.09-14,0-.21,0-.42,0-.63.14-5.88.33-11.76.4-17.64a59.92,59.92,0,0,0-.37-7.09c-.25-2.36-1.66-3.3-4-3.16-1.8.11-3.62,0-5.42,0-3.22,0-6.43.12-9.64.13-3,0-6,0-9,0h-2.1V9.14c0,2,.05,4,0,6-.14,4-.45,8-.52,11.93-.09,5.65,0,11.3,0,16.95a1.59,1.59,0,0,0,1,1.63,5.92,5.92,0,0,1,3.73,3.72,10.11,10.11,0,0,1-.21,7c-1.36,3.23-3.43,4.17-6.38,4.23-2.59,0-5.74-2.61-6.4-5.3a14.26,14.26,0,0,1-.44-3.73,6,6,0,0,1,4.64-6c.86-.26,1.73-.46,2.71-.71-.12-4-.33-7.88-.32-11.76,0-3.29.31-6.57.44-9.85q.28-7.14.48-14.27a25.7,25.7,0,0,0-.22-2.85H72c0,1.35,0,2.73,0,4.1-.12,4.61-.31,9.22-.4,13.84s-.1,9.35-.16,14c0,2.16,0,4.32-.17,6.46a1.37,1.37,0,0,0,.88,1.63c1.3.62,2.74,1,3.36,2.63A11.57,11.57,0,0,1,76.07,55a10.84,10.84,0,0,1-.3,1.22c-.8,3.17-3.53,5.66-6.15,5.35-3.76-.45-6.42-2.26-7.3-5.9A8.87,8.87,0,0,1,62.8,50a6.12,6.12,0,0,1,6-4,6.57,6.57,0,0,0,.87-.13,4.86,4.86,0,0,0,.2-.82c.16-5.81.29-11.61.45-17.42.12-4.4.32-8.81.39-13.22,0-2.72-.11-5.44-.18-8.41H54c-.07,2.91-.1,5.84-.24,8.77-.16,3.34-.46,6.68-.64,10-.11,2-.16,3.92-.17,5.88C52.94,35.71,53,40.81,53,45.94Zm65.79,39.13.57.17a11.1,11.1,0,0,0,.66-1.55,37.11,37.11,0,0,0,.91-8.54c.17-6.08.45-12.16.65-18.24.17-4.94.26-9.89.44-14.84.14-3.91.39-7.82.55-11.74s.3-8.09.45-12.13c.13-3.64.28-7.27.38-10.91a5.27,5.27,0,0,0-2-4.2c-.79-.7-1.58-1.46-2.74-.57-.23.17-.67.11-1,.1-2.59-.09-5.17-.25-7.75-.3-3.85-.07-7.7-.09-11.54-.09-2.73,0-5.45.07-8.17.09-3.22,0-6.44,0-9.66,0-1.46,0-2.93.27-4.39.24-3.35-.08-6.7-.31-10.06-.38C60.32,2.07,54.65,1.91,49,2c-7.75.1-15.51.46-23.26.58-3.35.06-6.71-.2-10.06-.36a33.26,33.26,0,0,0-8.95.92A3,3,0,0,0,4.25,5.68,37.62,37.62,0,0,0,3.71,10c-.18,3.42-.22,6.85-.42,10.27C3,26.09,2.43,31.86,2.19,37.64,2,42.81,2,48,2,53.17c0,7.69.08,15.37.12,23.06,0,2.31,0,4.63,0,6.94,0,.74,0,1.56,1.28,1.66a13.12,13.12,0,0,0,.24-1.63c0-2.24-.06-4.49,0-6.73.25-7.2.57-14.39.82-21.59.18-5.32.3-10.64.43-16,.16-6.72.27-13.44.45-20.16.1-3.78.17-7.56.46-11.32C6.05,5.08,7.16,4.12,9.56,4c3.21-.14,6.44-.16,9.65-.11s6.42.24,9.63.36c.49,0,1,0,1.47,0,2.59-.12,5.18-.36,7.76-.34,4.06,0,8.11.34,12.16.37,9.24.07,18.49,0,27.73.06,1.89,0,3.79.06,5.68.11,4.18.1,8.36.29,12.54.29,3.64,0,7.28-.27,10.91-.28,3.08,0,6.15.2,9.23.32.56,0,1.12,0,1.67.08,2.09.27,3,1,3.49,3.06a17.4,17.4,0,0,1,.47,3.94c0,4.47-.14,9-.26,13.42-.11,4.06-.22,8.11-.43,12.17-.28,5.37-.63,10.75-1,16.12-.32,4.74-.81,9.46-1.07,14.21-.28,5.29-.4,10.59-.57,15.88A9.87,9.87,0,0,0,118.75,85.07ZM30.23,51.67a7.18,7.18,0,0,0-2.66-6.11c-1.36-1.16-2.82-2.35-4.76-1-2.16-.6-3.13,1.13-4.24,2.34-1.45,1.57-1.13,3.62-1,5.56.35,4.55,6.09,7.34,10,4.83C29.57,55.94,30.11,53.9,30.23,51.67Zm39.46-4.46a5.84,5.84,0,0,0-4.59,1.6,7.13,7.13,0,0,0-.53,8.37,6.37,6.37,0,0,0,6.18,2.68c2.36-.57,3.69-2.17,4.12-4.94.07-.41.14-.82.18-1.24C75.4,49.68,73.71,47.27,69.69,47.21Zm12.45,4.88a29.5,29.5,0,0,0,1.15,4,5.49,5.49,0,0,0,6,2.87,5,5,0,0,0,4.08-4.45A16.26,16.26,0,0,0,93.48,52c0-2.85-2.62-5.66-5.24-5.54C85.24,46.55,82.05,48,82.14,52.09ZM45.93,53.56c0,1.8.15,2.12,1.86,3.76a5.42,5.42,0,0,0,6.52,1.1c2.54-1.24,3.36-3.56,3.47-6.21.1-2.47-1.5-3.58-3.53-4.3a9.86,9.86,0,0,0-2-.6,4.6,4.6,0,0,0-1.85.11A6.67,6.67,0,0,0,45.93,53.56Z"/></g></g></svg>