<svg xmlns="http://www.w3.org/2000/svg" xmlns:xlink="http://www.w3.org/1999/xlink" viewBox="0 0 84.8 103.03"><defs><style>.cls-1,.cls-10,.cls-11,.cls-12,.cls-13,.cls-14,.cls-15,.cls-16,.cls-17,.cls-18,.cls-19,.cls-2,.cls-20,.cls-21,.cls-22,.cls-23,.cls-24,.cls-25,.cls-26,.cls-27,.cls-28,.cls-29,.cls-3,.cls-30,.cls-31,.cls-32,.cls-33,.cls-34,.cls-35,.cls-36,.cls-37,.cls-38,.cls-39,.cls-4,.cls-40,.cls-41,.cls-42,.cls-43,.cls-44,.cls-45,.cls-46,.cls-47,.cls-48,.cls-49,.cls-5,.cls-50,.cls-51,.cls-52,.cls-6,.cls-7,.cls-8,.cls-9{stroke:#fff;stroke-miterlimit:10;}.cls-1{fill:url(#Ñóïåðìÿãêàÿ_åðíàÿ_âèíüåòêà);}.cls-2{fill:url(#Ñóïåðìÿãêàÿ_åðíàÿ_âèíüåòêà-2);}.cls-3{fill:url(#Ñóïåðìÿãêàÿ_åðíàÿ_âèíüåòêà-3);}.cls-4{fill:url(#Ñóïåðìÿãêàÿ_åðíàÿ_âèíüåòêà-4);}.cls-5{fill:url(#Ñóïåðìÿãêàÿ_åðíàÿ_âèíüåòêà-5);}.cls-6{fill:url(#Ñóïåðìÿãêàÿ_åðíàÿ_âèíüåòêà-6);}.cls-7{fill:url(#Ñóïåðìÿãêàÿ_åðíàÿ_âèíüåòêà-7);}.cls-8{fill:url(#Ñóïåðìÿãêàÿ_åðíàÿ_âèíüåòêà-8);}.cls-9{fill:url(#Ñóïåðìÿãêàÿ_åðíàÿ_âèíüåòêà-9);}.cls-10{fill:url(#Ñóïåðìÿãêàÿ_åðíàÿ_âèíüåòêà-10);}.cls-11{fill:url(#Ñóïåðìÿãêàÿ_åðíàÿ_âèíüåòêà-11);}.cls-12{fill:url(#Ñóïåðìÿãêàÿ_åðíàÿ_âèíüåòêà-12);}.cls-13{fill:url(#Ñóïåðìÿãêàÿ_åðíàÿ_âèíüåòêà-13);}.cls-14{fill:url(#Ñóïåðìÿãêàÿ_åðíàÿ_âèíüåòêà-14);}.cls-15{fill:url(#Ñóïåðìÿãêàÿ_åðíàÿ_âèíüåòêà-15);}.cls-16{fill:url(#Ñóïåðìÿãêàÿ_åðíàÿ_âèíüåòêà-16);}.cls-17{fill:url(#Ñóïåðìÿãêàÿ_åðíàÿ_âèíüåòêà-17);}.cls-18{fill:url(#Ñóïåðìÿãêàÿ_åðíàÿ_âèíüåòêà-18);}.cls-19{fill:url(#Ñóïåðìÿãêàÿ_åðíàÿ_âèíüåòêà-19);}.cls-20{fill:url(#Ñóïåðìÿãêàÿ_åðíàÿ_âèíüåòêà-20);}.cls-21{fill:url(#Ñóïåðìÿãêàÿ_åðíàÿ_âèíüåòêà-21);}.cls-22{fill:url(#Ñóïåðìÿãêàÿ_åðíàÿ_âèíüåòêà-22);}.cls-23{fill:url(#Ñóïåðìÿãêàÿ_åðíàÿ_âèíüåòêà-23);}.cls-24{fill:url(#Ñóïåðìÿãêàÿ_åðíàÿ_âèíüåòêà-24);}.cls-25{fill:url(#Ñóïåðìÿãêàÿ_åðíàÿ_âèíüåòêà-25);}.cls-26{fill:url(#Ñóïåðìÿãêàÿ_åðíàÿ_âèíüåòêà-26);}.cls-27{fill:url(#Ñóïåðìÿãêàÿ_åðíàÿ_âèíüåòêà-27);}.cls-28{fill:url(#Ñóïåðìÿãêàÿ_åðíàÿ_âèíüåòêà-28);}.cls-29{fill:url(#Ñóïåðìÿãêàÿ_åðíàÿ_âèíüåòêà-29);}.cls-30{fill:url(#Ñóïåðìÿãêàÿ_åðíàÿ_âèíüåòêà-30);}.cls-31{fill:url(#Ñóïåðìÿãêàÿ_åðíàÿ_âèíüåòêà-31);}.cls-32{fill:url(#Ñóïåðìÿãêàÿ_åðíàÿ_âèíüåòêà-32);}.cls-33{fill:url(#Ñóïåðìÿãêàÿ_åðíàÿ_âèíüåòêà-33);}.cls-34{fill:url(#Ñóïåðìÿãêàÿ_åðíàÿ_âèíüåòêà-34);}.cls-35{fill:url(#Ñóïåðìÿãêàÿ_åðíàÿ_âèíüåòêà-35);}.cls-36{fill:url(#Ñóïåðìÿãêàÿ_åðíàÿ_âèíüåòêà-36);}.cls-37{fill:url(#Ñóïåðìÿãêàÿ_åðíàÿ_âèíüåòêà-37);}.cls-38{fill:url(#Ñóïåðìÿãêàÿ_åðíàÿ_âèíüåòêà-38);}.cls-39{fill:url(#Ñóïåðìÿãêàÿ_åðíàÿ_âèíüåòêà-39);}.cls-40{fill:url(#Ñóïåðìÿãêàÿ_åðíàÿ_âèíüåòêà-40);}.cls-41{fill:url(#Ñóïåðìÿãêàÿ_åðíàÿ_âèíüåòêà-41);}.cls-42{fill:url(#Ñóïåðìÿãêàÿ_åðíàÿ_âèíüåòêà-42);}.cls-43{fill:url(#Ñóïåðìÿãêàÿ_åðíàÿ_âèíüåòêà-43);}.cls-44{fill:url(#Ñóïåðìÿãêàÿ_åðíàÿ_âèíüåòêà-44);}.cls-45{fill:url(#Ñóïåðìÿãêàÿ_åðíàÿ_âèíüåòêà-45);}.cls-46{fill:url(#Ñóïåðìÿãêàÿ_åðíàÿ_âèíüåòêà-46);}.cls-47{fill:url(#Ñóïåðìÿãêàÿ_åðíàÿ_âèíüåòêà-47);}.cls-48{fill:url(#Ñóïåðìÿãêàÿ_åðíàÿ_âèíüåòêà-48);}.cls-49{fill:url(#Ñóïåðìÿãêàÿ_åðíàÿ_âèíüåòêà-49);}.cls-50{fill:url(#Ñóïåðìÿãêàÿ_åðíàÿ_âèíüåòêà-50);}.cls-51{fill:url(#Ñóïåðìÿãêàÿ_åðíàÿ_âèíüåòêà-51);}.cls-52{fill:url(#Ñóïåðìÿãêàÿ_åðíàÿ_âèíüåòêà-52);}</style><radialGradient id="Ñóïåðìÿãêàÿ_åðíàÿ_âèíüåòêà" cx="32.36" cy="31.51" r="12.56" gradientUnits="userSpaceOnUse"><stop offset="0.57" stop-color="#130c0e"/><stop offset="0.8" stop-color="#130c0e"/><stop offset="1" stop-color="#130c0e"/></radialGradient><radialGradient id="Ñóïåðìÿãêàÿ_åðíàÿ_âèíüåòêà-2" cx="53.49" cy="44.02" r="10.63" xlink:href="#Ñóïåðìÿãêàÿ_åðíàÿ_âèíüåòêà"/><radialGradient id="Ñóïåðìÿãêàÿ_åðíàÿ_âèíüåòêà-3" cx="61.13" cy="68.9" r="6.34" xlink:href="#Ñóïåðìÿãêàÿ_åðíàÿ_âèíüåòêà"/><radialGradient id="Ñóïåðìÿãêàÿ_åðíàÿ_âèíüåòêà-4" cx="72.7" cy="88.94" r="5.36" xlink:href="#Ñóïåðìÿãêàÿ_åðíàÿ_âèíüåòêà"/><radialGradient id="Ñóïåðìÿãêàÿ_åðíàÿ_âèíüåòêà-5" cx="53.78" cy="89.01" r="5.16" xlink:href="#Ñóïåðìÿãêàÿ_åðíàÿ_âèíüåòêà"/><radialGradient id="Ñóïåðìÿãêàÿ_åðíàÿ_âèíüåòêà-6" cx="63.21" cy="89.01" r="5.36" xlink:href="#Ñóïåðìÿãêàÿ_åðíàÿ_âèíüåòêà"/><radialGradient id="Ñóïåðìÿãêàÿ_åðíàÿ_âèíüåòêà-7" cx="25.79" cy="89.06" r="5.31" xlink:href="#Ñóïåðìÿãêàÿ_åðíàÿ_âèíüåòêà"/><radialGradient id="Ñóïåðìÿãêàÿ_åðíàÿ_âèíüåòêà-8" cx="37.09" cy="89.24" r="5.18" xlink:href="#Ñóïåðìÿãêàÿ_åðíàÿ_âèíüåòêà"/><radialGradient id="Ñóïåðìÿãêàÿ_åðíàÿ_âèíüåòêà-9" cx="51.31" cy="68.15" r="4.86" xlink:href="#Ñóïåðìÿãêàÿ_åðíàÿ_âèíüåòêà"/><radialGradient id="Ñóïåðìÿãêàÿ_åðíàÿ_âèíüåòêà-10" cx="42.59" cy="68.09" r="5.21" xlink:href="#Ñóïåðìÿãêàÿ_åðíàÿ_âèíüåòêà"/><radialGradient id="Ñóïåðìÿãêàÿ_åðíàÿ_âèíüåòêà-11" cx="19.82" cy="67.15" r="5.38" xlink:href="#Ñóïåðìÿãêàÿ_åðíàÿ_âèíüåòêà"/><radialGradient id="Ñóïåðìÿãêàÿ_åðíàÿ_âèíüåòêà-12" cx="9.14" cy="15.28" r="4.92" xlink:href="#Ñóïåðìÿãêàÿ_åðíàÿ_âèíüåòêà"/><radialGradient id="Ñóïåðìÿãêàÿ_åðíàÿ_âèíüåòêà-13" cx="18.37" cy="15.16" r="5.14" xlink:href="#Ñóïåðìÿãêàÿ_åðíàÿ_âèíüåòêà"/><radialGradient id="Ñóïåðìÿãêàÿ_åðíàÿ_âèíüåòêà-14" cx="14.01" cy="89.07" r="4.72" xlink:href="#Ñóïåðìÿãêàÿ_åðíàÿ_âèíüåòêà"/><radialGradient id="Ñóïåðìÿãêàÿ_åðíàÿ_âèíüåòêà-15" cx="33.14" cy="67.68" r="4.63" xlink:href="#Ñóïåðìÿãêàÿ_åðíàÿ_âèíüåòêà"/><radialGradient id="Ñóïåðìÿãêàÿ_åðíàÿ_âèíüåòêà-16" cx="26.69" cy="67.12" r="3.86" xlink:href="#Ñóïåðìÿãêàÿ_åðíàÿ_âèíüåòêà"/><radialGradient id="Ñóïåðìÿãêàÿ_åðíàÿ_âèíüåòêà-17" cx="68.67" cy="101.68" r="2.56" xlink:href="#Ñóïåðìÿãêàÿ_åðíàÿ_âèíüåòêà"/><radialGradient id="Ñóïåðìÿãêàÿ_åðíàÿ_âèíüåòêà-18" cx="79.15" cy="101.4" r="2.56" xlink:href="#Ñóïåðìÿãêàÿ_åðíàÿ_âèíüåòêà"/><radialGradient id="Ñóïåðìÿãêàÿ_åðíàÿ_âèíüåòêà-19" cx="48.46" cy="100.8" r="2.69" xlink:href="#Ñóïåðìÿãêàÿ_åðíàÿ_âèíüåòêà"/><radialGradient id="Ñóïåðìÿãêàÿ_åðíàÿ_âèíüåòêà-20" cx="79.15" cy="5.83" r="2.51" xlink:href="#Ñóïåðìÿãêàÿ_åðíàÿ_âèíüåòêà"/><radialGradient id="Ñóïåðìÿãêàÿ_åðíàÿ_âèíüåòêà-21" cx="58.76" cy="101.17" r="2.41" xlink:href="#Ñóïåðìÿãêàÿ_åðíàÿ_âèíüåòêà"/><radialGradient id="Ñóïåðìÿãêàÿ_åðíàÿ_âèíüåòêà-22" cx="37.86" cy="101.13" r="2.41" xlink:href="#Ñóïåðìÿãêàÿ_åðíàÿ_âèíüåòêà"/><radialGradient id="Ñóïåðìÿãêàÿ_åðíàÿ_âèíüåòêà-23" cx="83.11" cy="61.65" r="2.39" xlink:href="#Ñóïåðìÿãêàÿ_åðíàÿ_âèíüåòêà"/><radialGradient id="Ñóïåðìÿãêàÿ_åðíàÿ_âèíüåòêà-24" cx="27.76" cy="100.8" r="2.26" xlink:href="#Ñóïåðìÿãêàÿ_åðíàÿ_âèíüåòêà"/><radialGradient id="Ñóïåðìÿãêàÿ_åðíàÿ_âèíüåòêà-25" cx="38.58" cy="1.8" r="2.55" xlink:href="#Ñóïåðìÿãêàÿ_åðíàÿ_âèíüåòêà"/><radialGradient id="Ñóïåðìÿãêàÿ_åðíàÿ_âèíüåòêà-26" cx="62.62" cy="2.24" r="2.55" xlink:href="#Ñóïåðìÿãêàÿ_åðíàÿ_âèíüåòêà"/><radialGradient id="Ñóïåðìÿãêàÿ_åðíàÿ_âèíüåòêà-27" cx="1.33" cy="97.04" r="2.34" xlink:href="#Ñóïåðìÿãêàÿ_åðíàÿ_âèíüåòêà"/><radialGradient id="Ñóïåðìÿãêàÿ_åðíàÿ_âèíüåòêà-28" cx="1.33" cy="86.18" r="2.4" xlink:href="#Ñóïåðìÿãêàÿ_åðíàÿ_âèíüåòêà"/><radialGradient id="Ñóïåðìÿãêàÿ_åðíàÿ_âèíüåòêà-29" cx="82.8" cy="50.28" r="2.39" xlink:href="#Ñóïåðìÿãêàÿ_åðíàÿ_âèíüåòêà"/><radialGradient id="Ñóïåðìÿãêàÿ_åðíàÿ_âèíüåòêà-30" cx="83.63" cy="84.32" r="2.24" xlink:href="#Ñóïåðìÿãêàÿ_åðíàÿ_âèíüåòêà"/><radialGradient id="Ñóïåðìÿãêàÿ_åðíàÿ_âèíüåòêà-31" cx="17.93" cy="100.49" r="2.05" xlink:href="#Ñóïåðìÿãêàÿ_åðíàÿ_âèíüåòêà"/><radialGradient id="Ñóïåðìÿãêàÿ_åðíàÿ_âèíüåòêà-32" cx="80.64" cy="16.14" r="2.17" xlink:href="#Ñóïåðìÿãêàÿ_åðíàÿ_âèíüåòêà"/><radialGradient id="Ñóïåðìÿãêàÿ_åðíàÿ_âèíüåòêà-33" cx="83.4" cy="94.74" r="1.94" xlink:href="#Ñóïåðìÿãêàÿ_åðíàÿ_âèíüåòêà"/><radialGradient id="Ñóïåðìÿãêàÿ_åðíàÿ_âèíüåòêà-34" cx="81.67" cy="38.9" r="2.16" xlink:href="#Ñóïåðìÿãêàÿ_åðíàÿ_âèíüåòêà"/><radialGradient id="Ñóïåðìÿãêàÿ_åðíàÿ_âèíüåòêà-35" cx="50.39" cy="1.57" r="2.21" xlink:href="#Ñóïåðìÿãêàÿ_åðíàÿ_âèíüåòêà"/><radialGradient id="Ñóïåðìÿãêàÿ_åðíàÿ_âèíüåòêà-36" cx="83.32" cy="73.47" r="2.14" xlink:href="#Ñóïåðìÿãêàÿ_åðíàÿ_âèíüåòêà"/><radialGradient id="Ñóïåðìÿãêàÿ_åðíàÿ_âèíüåòêà-37" cx="1.33" cy="75.31" r="2.01" xlink:href="#Ñóïåðìÿãêàÿ_åðíàÿ_âèíüåòêà"/><radialGradient id="Ñóïåðìÿãêàÿ_åðíàÿ_âèíüåòêà-38" cx="72.55" cy="3.03" r="1.83" xlink:href="#Ñóïåðìÿãêàÿ_åðíàÿ_âèíüåòêà"/><radialGradient id="Ñóïåðìÿãêàÿ_åðíàÿ_âèíüåòêà-39" cx="81.34" cy="28.24" r="1.96" xlink:href="#Ñóïåðìÿãêàÿ_åðíàÿ_âèíüåòêà"/><radialGradient id="Ñóïåðìÿãêàÿ_åðíàÿ_âèíüåòêà-40" cx="7.32" cy="100.67" r="1.85" xlink:href="#Ñóïåðìÿãêàÿ_åðíàÿ_âèíüåòêà"/><radialGradient id="Ñóïåðìÿãêàÿ_åðíàÿ_âèíüåòêà-41" cx="6.94" cy="1.17" r="1.99" xlink:href="#Ñóïåðìÿãêàÿ_åðíàÿ_âèíüåòêà"/><radialGradient id="Ñóïåðìÿãêàÿ_åðíàÿ_âèíüåòêà-42" cx="27.85" cy="1.48" r="2.05" xlink:href="#Ñóïåðìÿãêàÿ_åðíàÿ_âèíüåòêà"/><radialGradient id="Ñóïåðìÿãêàÿ_åðíàÿ_âèíüåòêà-43" cx="17.01" cy="1.53" r="2.05" xlink:href="#Ñóïåðìÿãêàÿ_åðíàÿ_âèíüåòêà"/><radialGradient id="Ñóïåðìÿãêàÿ_åðíàÿ_âèíüåòêà-44" cx="1.33" cy="65.18" r="1.96" xlink:href="#Ñóïåðìÿãêàÿ_åðíàÿ_âèíüåòêà"/><radialGradient id="Ñóïåðìÿãêàÿ_åðíàÿ_âèíüåòêà-45" cx="1.33" cy="26.08" r="1.84" xlink:href="#Ñóïåðìÿãêàÿ_åðíàÿ_âèíüåòêà"/><radialGradient id="Ñóïåðìÿãêàÿ_åðíàÿ_âèíüåòêà-46" cx="1.33" cy="5.43" r="2.04" xlink:href="#Ñóïåðìÿãêàÿ_åðíàÿ_âèíüåòêà"/><radialGradient id="Ñóïåðìÿãêàÿ_åðíàÿ_âèíüåòêà-47" cx="1.33" cy="55.61" r="1.64" xlink:href="#Ñóïåðìÿãêàÿ_åðíàÿ_âèíüåòêà"/><radialGradient id="Ñóïåðìÿãêàÿ_åðíàÿ_âèíüåòêà-48" cx="1.33" cy="45.8" r="1.8" xlink:href="#Ñóïåðìÿãêàÿ_åðíàÿ_âèíüåòêà"/><radialGradient id="Ñóïåðìÿãêàÿ_åðíàÿ_âèíüåòêà-49" cx="1.33" cy="15.38" r="1.69" xlink:href="#Ñóïåðìÿãêàÿ_åðíàÿ_âèíüåòêà"/><radialGradient id="Ñóïåðìÿãêàÿ_åðíàÿ_âèíüåòêà-50" cx="1.33" cy="35.85" r="1.68" xlink:href="#Ñóïåðìÿãêàÿ_åðíàÿ_âèíüåòêà"/><radialGradient id="Ñóïåðìÿãêàÿ_åðíàÿ_âèíüåòêà-51" cx="45.31" cy="93.82" r="0.74" xlink:href="#Ñóïåðìÿãêàÿ_åðíàÿ_âèíüåòêà"/><radialGradient id="Ñóïåðìÿãêàÿ_åðíàÿ_âèíüåòêà-52" cx="27.57" cy="57.39" r="0.63" xlink:href="#Ñóïåðìÿãêàÿ_åðíàÿ_âèíüåòêà"/></defs><g id="Layer_2" data-name="Layer 2"><g id="final"><path class="cls-1" d="M43.34,44.63a1.42,1.42,0,0,1-1.62.75,7.09,7.09,0,0,0-1.31-.1c-.4,0-.8,0-1.2,0s-.49.06-.73.08l-.51,0a5,5,0,0,0-.67,0,.82.82,0,0,1-1-.46.91.91,0,0,1,.41-1.13c.2-.11.41-.18.64-.28,0-.26,0-.51-.06-.75-.22-1.47-.47-2.93-.68-4.4-.12-.84-.17-1.68-.24-2.52,0-.42-.07-.48-.48-.53-1.19-.15-2.38-.35-3.57-.45a7.8,7.8,0,0,0-2.55.21.73.73,0,0,0-.55.59c-.18.67-.42,1.31-.61,2-.37,1.34-.73,2.69-1.1,4-.07.26-.15.51-.23.77s-.05.6.34.71a4.25,4.25,0,0,0,.95.1,8.62,8.62,0,0,1,1.14.07,1.17,1.17,0,0,1,.55.37A1.55,1.55,0,0,1,30,45a1,1,0,0,1-.6.08,15.43,15.43,0,0,0-3.25-.24,5.51,5.51,0,0,1-.57-.06l-1.13-.08a2,2,0,0,1-.34,0c-.67-.09-1.33-.18-2-.29a1.33,1.33,0,0,1-.43-.13.55.55,0,0,1-.34-.6c0-.26.2-.37.41-.41s.68-.11,1-.15c.17,0,.35,0,.52,0s.43-.18.51-.51c.16-.74.4-1.46.63-2.19.35-1.09.71-2.18,1.07-3.26l.81-2.39a5.44,5.44,0,0,0,.15-.61c.14-.59.29-1.18.42-1.78.28-1.2.54-2.41.82-3.62.22-.94.45-1.89.7-2.83.3-1.14.64-2.27,1-3.41a1.73,1.73,0,0,1,.11-.32c.41-.88.59-1.84,1-2.72,0,0,0-.07,0-.14a.85.85,0,0,0-.24-.09.64.64,0,0,1-.63-.67.53.53,0,0,1,.46-.67,16.89,16.89,0,0,1,3.41-.39,28.53,28.53,0,0,1,3.58.34L38,18a.64.64,0,0,1,.66.65c.09.57.16,1.13.23,1.7.18,1.61.34,3.23.56,4.84.28,2,.61,4,.91,6,.14.91.26,1.81.4,2.72.09.54.19,1.09.3,1.63.24,1.19.43,2.4.75,3.57s.3,2.23.53,3.33a4.06,4.06,0,0,0,.45,1.51C43,44.16,43.15,44.38,43.34,44.63Zm-3.32-1c.37,0,.62,0,.86-.08a.35.35,0,0,0,.32-.45c-.15-1.09-.29-2.19-.45-3.28-.12-.73-.26-1.46-.41-2.19-.19-.9-.41-1.78-.59-2.68-.13-.69-.21-1.39-.32-2.09a13.92,13.92,0,0,1-.33-2.2c0-1.17-.52-2.27-.36-3.44,0,0,0-.08,0-.11-.08-.34-.16-.67-.21-1-.09-.51-.15-1-.21-1.53-.11-.81-.21-1.63-.3-2.44s-.16-1.52-.25-2.28c0-.34-.15-.45-.47-.46s-.57,0-.86,0a.4.4,0,0,0-.42.38,5,5,0,0,0,.06,1.63c.17.78.3,1.57.41,2.36s.13,1.4.19,2.1.15,1.33.18,2A14.07,14.07,0,0,0,37,31a1.73,1.73,0,0,1,0,.4,6.76,6.76,0,0,0,.37,2.67c0,.07,0,.18,0,.27s0,.26,0,.39.06.36.08.55c0,.54.06,1.1.13,1.64s.22,1.36.33,2,.16,1.14.26,1.7a12.24,12.24,0,0,1,.41,2.42.35.35,0,0,0,.31.4ZM30,33.48c.56-.06,1-.12,1.39-.13.72,0,1.45-.05,2.16,0s1.28.21,1.93.3c.47.06.61-.06.56-.52-.1-.75,0-1.51-.13-2.27a30,30,0,0,1-.22-3c0-.5,0-1,0-1.49-.15-1.24-.35-2.48-.51-3.72-.08-.62-.1-1.25-.17-1.87,0-.09-.1-.18-.19-.35-.18.19-.37.31-.44.48-.29.71-.56,1.42-.81,2.14s-.43,1.42-.68,2.11c-.32.92-.69,1.82-1,2.72-.17.44-.34.88-.49,1.33-.22.65-.42,1.31-.62,2S30.29,32.62,30,33.48ZM25,43c.66.27,1,.09,1.18-.57.34-1.3.69-2.61,1.07-3.9S28,36,28.42,34.77c.2-.59.44-1.17.63-1.77.49-1.48.93-3,1.46-4.44a14.09,14.09,0,0,1,1.13-2.93.42.42,0,0,0,0-.1c.26-.78.52-1.55.79-2.32.18-.53.4-1,.58-1.56s.37-1.24.58-1.85.08-.67-.46-.71c-.36,0-.72,0-1.08,0s-.59.13-.64.55a3.48,3.48,0,0,1-.13.73c-.54,1.58-1.13,3.15-1.64,4.75-.26.83-.36,1.71-.55,2.57-.11.46-.24.91-.36,1.37s-.25.78-.34,1.18-.07.57-.14.84c-.24,1-.5,2-.76,3-.19.77-.36,1.56-.59,2.32s-.56,1.7-.87,2.54-.49,1.92-.91,2.82a.86.86,0,0,0,0,.17C25.08,42.29,25,42.63,25,43Z"/><path class="cls-2" d="M54.44,57.06a15.85,15.85,0,0,1-4.75-.66,5.77,5.77,0,0,1-2.27-1.16,2.17,2.17,0,0,1-.48-.57,6.33,6.33,0,0,1-.88-3.28,4.55,4.55,0,0,1,.37-1.66,7,7,0,0,1,2.45-3.1,2.34,2.34,0,0,1,.77-.35c.68-.17,1.38-.29,2.07-.45.41-.1.41-.14.37-.55S52,44.44,52,44a.5.5,0,0,0-.36-.52c-.11,0-.21-.13-.31-.15a6.66,6.66,0,0,1-1.87-1,2.4,2.4,0,0,1-.86-.9,9.22,9.22,0,0,1-1.2-3.62,8.36,8.36,0,0,1,.16-2,3.76,3.76,0,0,1,.86-2,14.33,14.33,0,0,1,1.79-1.78,5.6,5.6,0,0,1,1.23-.59A7.77,7.77,0,0,1,55.37,31a3,3,0,0,1,1.6.82s.09.11.08.15c-.1.4.25.51.46.7a9,9,0,0,1,1.94,2.09A3.89,3.89,0,0,1,60,37.27a9.8,9.8,0,0,1-.26,1.86,5.38,5.38,0,0,1-1.7,2.72A7.41,7.41,0,0,1,56.54,43a10.51,10.51,0,0,1-2.19.62c-.26.06-.54.06-.79.14a.43.43,0,0,0-.33.62.88.88,0,0,0,.59.71c.92.26,1.83.52,2.73.84a14.32,14.32,0,0,1,1.62.8,5.25,5.25,0,0,1,1.58,1.31,4.39,4.39,0,0,1,1.16,2.67,11.78,11.78,0,0,1-.11,2.45,3.82,3.82,0,0,1-.36,1.08,5,5,0,0,1-1.44,2,1.29,1.29,0,0,1-.39.23c-.82.18-1.63.4-2.46.51A12.18,12.18,0,0,1,54.44,57.06Zm.41-9.72c-.47,0-.86,0-1.26,0l-1.2.06a2,2,0,0,0-2,1.74,23.63,23.63,0,0,0-.17,3.37,2.64,2.64,0,0,0,2,2.64,1.16,1.16,0,0,1,.5.27,1.24,1.24,0,0,0,1,.33c.59,0,1.18,0,1.77,0a.69.69,0,0,0,.7-.41c.15-.33.33-.65.45-1A5.6,5.6,0,0,0,57,51.6a15.16,15.16,0,0,0-.59-2.27,1.91,1.91,0,0,0-1-1.17A1.11,1.11,0,0,1,54.85,47.34Zm-4-8.77A10.11,10.11,0,0,0,51.5,41a1.71,1.71,0,0,0,.27.56,1,1,0,0,0,.44.42,3.29,3.29,0,0,0,2.08.09.86.86,0,0,0,.46-.32,6,6,0,0,0,1-2.84c0-.61,0-1.21,0-1.82a12.62,12.62,0,0,0-.1-1.36c0-.34-.06-.68-.12-1a3.22,3.22,0,0,0-.27-1c-.17-.31-.32-.78-.79-.72a3.58,3.58,0,0,0-2.18.9c-.22.21-.34.51-.55.73a2.8,2.8,0,0,0-.68,1.78c0,.48-.09,1-.14,1.43C50.88,38.08,50.85,38.33,50.83,38.57Zm5.53,2.8a1.41,1.41,0,0,0,.36-.11,7,7,0,0,0,1.73-1.86A5.29,5.29,0,0,0,59,37.22a2.73,2.73,0,0,0-.19-1.16,5.24,5.24,0,0,0-1.6-1.9.27.27,0,0,0-.46.14,1.44,1.44,0,0,0-.07.5l.12,2.39A8.72,8.72,0,0,1,56.42,41,1.72,1.72,0,0,0,56.36,41.37Zm1.22,14a1.42,1.42,0,0,0,1.27-.47,3.11,3.11,0,0,0,.68-1.43,4.34,4.34,0,0,0-1.26-4.72c-.18-.16-.31-.41-.62-.36a.44.44,0,0,0,0,.15A4.78,4.78,0,0,0,58,50.31a.89.89,0,0,1,.12.43,8.09,8.09,0,0,1,.06,1.3,8,8,0,0,1-.45,2.69A3.08,3.08,0,0,0,57.58,55.32ZM49,48.8c-.27-.08-.4.11-.52.27a5.09,5.09,0,0,0-.39.63,4.41,4.41,0,0,0-.62,2.51,6.33,6.33,0,0,0,.48,1.45c.22.64.79.8,1.39,1.15a1.67,1.67,0,0,0,0-.49A2.57,2.57,0,0,1,49,53c0-.3,0-.61,0-.91,0-.48,0-1,0-1.43a7.53,7.53,0,0,1,0-1A1.62,1.62,0,0,0,49,48.8Zm.67-8.93c0-.11.07-.17.06-.21a11.63,11.63,0,0,1,.2-3.06,4.91,4.91,0,0,1,.14-1,4.82,4.82,0,0,1,.79-1.76c.23-.31.41-.66.61-1a1.43,1.43,0,0,0-.65.21,6.68,6.68,0,0,0-1.6,1.71,2.88,2.88,0,0,0-.61,2.15c.13.88.35,1.75.55,2.63C49.16,39.77,49.34,39.88,49.62,39.87Z"/><path class="cls-3" d="M60.56,68.46a8.09,8.09,0,0,0,.45.71c.77,1,1.55,2,2.32,3a9.41,9.41,0,0,1,.5.82,5.63,5.63,0,0,0,.55.85,3.29,3.29,0,0,1,.54,1.43c.09.29.14.59.21.88a.73.73,0,0,1,0,.74c-.38.09-.57-.15-.74-.45-.31-.55-.6-1.11-.95-1.62-.51-.74-1.07-1.44-1.6-2.16a33.3,33.3,0,0,0-2.66-3.15,2.88,2.88,0,0,0-.34-.27.71.71,0,0,0-.33.72c0,1,0,1.9.05,2.85a1.06,1.06,0,0,1-.12.42c-.13.23-.29.44-.43.66s-.26.24-.46.08a1.21,1.21,0,0,1-.43-1.18,15,15,0,0,0,0-3.54,3.57,3.57,0,0,1,0-.57c0-.8.13-1.6.13-2.4s-.08-1.82-.15-2.74a1.22,1.22,0,0,1,.26-1,.43.43,0,0,0,.14-.45c-.09-.54.07-.86.6-1a12.8,12.8,0,0,1,1.75-.17,2.63,2.63,0,0,1,1.23.17,4.63,4.63,0,0,1,2.44,2.21,1.76,1.76,0,0,1,0,1.22A7.24,7.24,0,0,1,61.34,68C61.11,68.13,60.86,68.27,60.56,68.46Zm-2.22-5.91c0,.34,0,.66,0,1a19.47,19.47,0,0,1,.11,3.24,1.25,1.25,0,0,0,.09.37c.24,0,.44.08.65.1a.81.81,0,0,0,.22,0,3.6,3.6,0,0,0,2.83-2.31,1.16,1.16,0,0,0-.15-1.14,2.57,2.57,0,0,0-1.1-1A4.29,4.29,0,0,0,58.34,62.55Z"/><path class="cls-4" d="M73.52,89.21,74.7,90a3.91,3.91,0,0,1,1.2,1.36,2.82,2.82,0,0,1,.18,2.17,3.56,3.56,0,0,1-.45,1,2.67,2.67,0,0,1-2.35,1.19,4.65,4.65,0,0,1-3.17-1,1.91,1.91,0,0,1-.74-1.36A4,4,0,0,1,70.55,90a1.3,1.3,0,0,0,.19-.22c.29-.36.29-.49,0-.86s-.63-.9-.94-1.36a4.38,4.38,0,0,1-.62-1.82.53.53,0,0,1,0-.28,3.73,3.73,0,0,1,1.55-2.39,4.66,4.66,0,0,1,1.56-.54c.82-.15,1.66-.21,2.5-.31a.64.64,0,0,1,.63.32,4.1,4.1,0,0,1,.46.91,5.35,5.35,0,0,1,0,2.78A3,3,0,0,1,74.67,88a6.88,6.88,0,0,0-.82.7A2.94,2.94,0,0,0,73.52,89.21Zm0-5.73a3,3,0,0,0-2,.56,1.93,1.93,0,0,0-.89,1.86,4.38,4.38,0,0,0,1.1,2,.46.46,0,0,0,.67,0,13.56,13.56,0,0,0,2.27-1.81A2.13,2.13,0,0,0,75,83.94a.43.43,0,0,0-.4-.36C74.23,83.56,73.83,83.51,73.53,83.48ZM73,94.55a2.29,2.29,0,0,0,1.83-.83,1,1,0,0,0,.24-1.06,3.94,3.94,0,0,0-2.53-2.3.65.65,0,0,0-.72.22,4.89,4.89,0,0,0-1.17,1.94,1.23,1.23,0,0,0,.8,1.65A11.31,11.31,0,0,0,73,94.55Z"/><path class="cls-5" d="M53.24,89.71a4.21,4.21,0,0,0-.42-.28c-.46-.24-.93-.46-1.38-.7a2.22,2.22,0,0,1-1.16-1.47,2.91,2.91,0,0,1,0-1.91,4,4,0,0,1,3-2.56,4.81,4.81,0,0,1,1.65,0,2.16,2.16,0,0,1,1.26.6c.27.27.54.54.79.83a2.55,2.55,0,0,1,.31,2.53c-.21.45-.33.93-.51,1.39s-.35.79-.56,1.24c.15.18.33.42.53.65a2.62,2.62,0,0,1,.6,1.74c0,.11,0,.22,0,.34a3.3,3.3,0,0,1-1.6,2.86,1.93,1.93,0,0,1-.74.3,3.52,3.52,0,0,1-3.46-1.17,1.91,1.91,0,0,1-.39-1.51,2.56,2.56,0,0,1,1.11-2C52.55,90.28,52.85,90,53.24,89.71Zm1.26-5.85a3.3,3.3,0,0,0-3,1.92,1.64,1.64,0,0,0,.91,1.94c.55.19,1.13.35,1.67.58A.93.93,0,0,0,55.25,88a4.42,4.42,0,0,0,1-2,1.09,1.09,0,0,0-.43-1.39c-.35-.26-.72-.5-1.09-.73A.63.63,0,0,0,54.5,83.86Zm-.34,10.22a2.16,2.16,0,0,0,1.86-1,2,2,0,0,0-.65-2.53c-.49-.34-.6-.33-1,0s-.84.71-1.26,1.08a2.27,2.27,0,0,0-.42.46,1,1,0,0,0,.1,1.38A1.83,1.83,0,0,0,54.16,94.08Z"/><path class="cls-6" d="M60.52,88.28c.32.2.42,0,.56,0a4.75,4.75,0,0,1,.89-.62,4.13,4.13,0,0,1,3.85.25,8.26,8.26,0,0,1,1.35,1.3.15.15,0,0,1,0,.1,5.09,5.09,0,0,1-.56,3.86,6.11,6.11,0,0,1-2.84,2.11,2.57,2.57,0,0,1-1.48.06,4.4,4.4,0,0,1-2.15-1.13,3.21,3.21,0,0,1-1-2.19,6.3,6.3,0,0,1,0-1.3,8.06,8.06,0,0,0,0-1s0-.11,0-.16a10.15,10.15,0,0,1,.67-2.71,2.17,2.17,0,0,0,.17-.42,7.22,7.22,0,0,1,1.94-3,2.62,2.62,0,0,1,3-.48L65,83a.76.76,0,0,1,.42.69.73.73,0,0,1-.7.4c-.14,0-.27,0-.4-.06a2.29,2.29,0,0,0-2,.69,6.38,6.38,0,0,0-.76,1.13,7.25,7.25,0,0,0-.51,1C60.86,87.28,60.7,87.79,60.52,88.28Zm3,.29-.17,0a2.65,2.65,0,0,0-2.22,1.3c-.28.32-.33.84-.66,1.18,0,0,0,.14-.05.21a2.26,2.26,0,0,0,1.42,2.23,6.47,6.47,0,0,0,1,.3,1.92,1.92,0,0,0,.79-.06,5.67,5.67,0,0,0,.83-.39,4.22,4.22,0,0,0,1.73-1.84,1.87,1.87,0,0,0-.1-1.78A3.1,3.1,0,0,0,63.51,88.57Z"/><path class="cls-7" d="M21,89.77a13.27,13.27,0,0,1,.48-2.44c.12-.4.25-.8.34-1.21A3.64,3.64,0,0,1,24,83.73a4.72,4.72,0,0,1,3.79-.11,3.72,3.72,0,0,1,2.1,1.75A5.36,5.36,0,0,1,30.51,89a6.18,6.18,0,0,0-.07.62,5.84,5.84,0,0,1-3,4.62,4,4,0,0,1-3.31.43c-.2,0-.4-.12-.61-.16a2.81,2.81,0,0,1-2.08-2.08A8.66,8.66,0,0,1,21,89.77Zm4.17,3.42a2.94,2.94,0,0,0,2.38-.73,13.89,13.89,0,0,0,1.24-1.41,2.13,2.13,0,0,0,.53-1.47,2.16,2.16,0,0,1,.09-.62,3.78,3.78,0,0,0-.77-3.18,2.54,2.54,0,0,0-1.62-1,12.2,12.2,0,0,0-1.71,0,2.56,2.56,0,0,0-1.86.87,1.86,1.86,0,0,0-.57,1c-.16.8-.33,1.61-.48,2.42a2.15,2.15,0,0,0,0,.62A8.54,8.54,0,0,0,22.56,91,7.3,7.3,0,0,0,23,92.24a1.25,1.25,0,0,0,.71.62A3.57,3.57,0,0,0,25.18,93.19Z"/><path class="cls-8" d="M36.72,91.59l-.83-.09c-.56-.07-.68-.3-.74-.72a.86.86,0,0,1,.72-.9,2.28,2.28,0,0,1,.69,0c.63.06.77,0,1-.62.25-.82.54-1.63.81-2.44a4,4,0,0,0,.35-1.57,8.47,8.47,0,0,0-.88,0,14.57,14.57,0,0,1-4.26-.39,1.49,1.49,0,0,1-.51-.24.7.7,0,0,1,.27-1.26,3.56,3.56,0,0,1,.8,0l1.64.13c.12,0,.23,0,.34,0a12.52,12.52,0,0,0,1.36.07c.71,0,1.41-.11,2.12-.13a1.37,1.37,0,0,1,.65.17.32.32,0,0,1,.13.49,1.46,1.46,0,0,0-.19.76,8.54,8.54,0,0,1-.3,1.33c-.3.93-.63,1.84-.93,2.77a4.68,4.68,0,0,0-.12.67c.82.51,1.8.32,2.64.65-.11.8-.18.9-.88,1s-1.22.13-1.83.17c-.42,0-.58.12-.71.52-.19.62-.42,1.23-.58,1.85A3,3,0,0,1,36.69,95a.5.5,0,0,1-.63.09.49.49,0,0,1-.32-.54,2.55,2.55,0,0,1,.21-.81A9.06,9.06,0,0,0,36.72,91.59Z"/><path class="cls-9" d="M53.85,63.74l-.4-.16a2,2,0,0,0-1.24-.13,5.77,5.77,0,0,1-1,.09.59.59,0,0,0-.63.48c-.1.44-.21.89-.27,1.34s-.06.87-.09,1.31.1.74.6.86l1.45.34a2,2,0,0,1,.47.21c.3.21.58.44.87.66a.47.47,0,0,1,.21.55c-.08.24-.29.19-.48.18-.86-.07-1.71-.14-2.57-.19-.59,0-.67,0-.69.61s0,1.45,0,2.18a1,1,0,0,0,0,.17c.08.37.14.41.5.36.7-.09,1.41-.17,2.11-.24a.88.88,0,0,1,1,.66c.09.7-.14,1.06-.77,1.16a3,3,0,0,1-.52,0,8.75,8.75,0,0,0-2.44.27.93.93,0,0,1-1.27-1c0-1.51.06-3,.11-4.53,0-.54.13-1.09.19-1.63a2.67,2.67,0,0,0,0-.4A8.29,8.29,0,0,1,49.36,64a1.44,1.44,0,0,0,0-1c-.25-.61,0-1.06.72-1.12s1.22-.07,1.83-.11a2.52,2.52,0,0,1,1.32.3A1.26,1.26,0,0,1,53.85,63.74Z"/><path class="cls-10" d="M45.3,62.68c0-.55.31-.85.71-.79a.32.32,0,0,1,.31.34c0,.15,0,.36,0,.44a.87.87,0,0,1,.12.91c-.13.47-.27,1-.41,1.42-.08.31-.15.63-.26.93-.38,1.08-.78,2.15-1.15,3.23-.15.41-.24.83-.38,1.25a16.65,16.65,0,0,1-1.43,3,5.77,5.77,0,0,0-.29.55c-.15.33-.28.42-.62.33a.78.78,0,0,1-.68-.63,19.29,19.29,0,0,1-.45-2c-.08-.54-.33-1.06-.45-1.6-.26-1.18-.46-2.38-.74-3.57s-.59-2.36-.91-3.54c-.13-.45-.07-.73.28-.93a.48.48,0,0,1,.76.2,8.48,8.48,0,0,1,.89,2.53c.36,1.65.67,3.32,1,5a6.71,6.71,0,0,0,.4,1.14c.12.31.35.32.55,0a2,2,0,0,0,.23-.46c.16-.49.29-1,.47-1.47.42-1.18.87-2.35,1.27-3.55.28-.84.48-1.72.72-2.58A.39.39,0,0,0,45.3,62.68Z"/><path class="cls-11" d="M23.51,69.22c-.07.3-.13.59-.19.88a.35.35,0,0,0,0,.17,3.08,3.08,0,0,1-.61,1.81,2.94,2.94,0,0,1-4.28,1.23,2.44,2.44,0,0,1-1.16-1.76.57.57,0,0,1,.2-.61.61.61,0,0,1,.65,0,1.18,1.18,0,0,1,.61.65c.1.24.17.57.36.68a2,2,0,0,0,1,.29,1.71,1.71,0,0,0,1.29-.64,3.48,3.48,0,0,0,1-1.9,1.55,1.55,0,0,0-.27-1.14,3.7,3.7,0,0,0-1.39-1.24c-.61-.31-1.22-.6-1.86-.87a5.08,5.08,0,0,1-2.45-1.87,1.35,1.35,0,0,1-.21-.87,7.14,7.14,0,0,1,.6-2.12,2,2,0,0,1,1.09-1,2.81,2.81,0,0,1,1.07-.38,2.35,2.35,0,0,1,2.18.52c.14.15.26.3.18.5a.46.46,0,0,1-.54.24c-.24,0-.48-.13-.72-.16a1.94,1.94,0,0,0-2,.85l-.38.5a1,1,0,0,0,.06,1.3,3.23,3.23,0,0,0,1.51,1,9.65,9.65,0,0,1,2.63,1.48A4.53,4.53,0,0,1,23,68,2.07,2.07,0,0,1,23.51,69.22Z"/><path class="cls-12" d="M9.21,17.14l-2.56.13a.69.69,0,0,1-.7-.91,3.64,3.64,0,0,1,.34-.65c.31-.49.63-1,1-1.43S8,13.21,8.31,12.66s.63-1.13.95-1.69.59-1,.91-1.51a.58.58,0,0,1,1-.09.55.55,0,0,0,.55.18.5.5,0,0,1,.65.57,9.58,9.58,0,0,1-.31,2.77A.45.45,0,0,0,12,13c0,1-.08,1.94-.11,2.91,0,.55-.05,1.11,0,1.66,0,.9.08,1.79.2,2.68a1.67,1.67,0,0,1-.25,1c-.09.19-.29.22-.49.1a1,1,0,0,1-.5-.6,7.75,7.75,0,0,1-.21-2c0-.34,0-.68,0-1s-.1-.49-.46-.53-.64,0-1-.05Zm1.72-6.48a16,16,0,0,0-2.94,5,5.11,5.11,0,0,0,.55.05l1.43,0c.64,0,.75-.1.84-.75.07-.47.13-.94.17-1.41,0-.76.08-1.52.1-2.27A1.78,1.78,0,0,0,10.93,10.66Z"/><path class="cls-13" d="M17.73,16.74c-.29,0-.48,0-.67,0a.94.94,0,0,1-.85-.91.47.47,0,0,1,.14-.29,1.1,1.1,0,0,1,.89-.32,4.43,4.43,0,0,0,.51.06.74.74,0,0,0,.77-.48,20.57,20.57,0,0,0,1.12-3.6c.1-.56,0-.68-.57-.72l-2.74-.16c-.27,0-.53-.07-.79-.1a.77.77,0,0,1-.65-.57.48.48,0,0,1,.3-.7A2.34,2.34,0,0,1,16,8.81c1.39,0,2.79.09,4.18.15a1.31,1.31,0,0,1,.34,0A.58.58,0,0,1,21,9.7a9,9,0,0,1-.46,2.46c-.17.49-.26,1-.4,1.49-.08.25-.22.49-.3.74a4.67,4.67,0,0,0-.13.65c.72.34,1.51.19,2.17.52a.58.58,0,0,1-.37.63,3.81,3.81,0,0,1-1.65.42.93.93,0,0,0-1,.8c-.16.68-.37,1.36-.54,2a1.08,1.08,0,0,0,0,.4,2.35,2.35,0,0,1-.61,1.58.36.36,0,0,1-.31.07.63.63,0,0,1-.49-.82c.25-1.11.51-2.23.76-3.35C17.69,17.17,17.7,17,17.73,16.74Z"/><path class="cls-14" d="M15.26,85.21c-.95.51-1.8,1-2.67,1.42a3.2,3.2,0,0,1-.9.31.52.52,0,0,1-.6-.35.54.54,0,0,1,.33-.64c.85-.48,1.72-.93,2.54-1.44a15.27,15.27,0,0,0,1.36-1,1.79,1.79,0,0,1,.31-.25c.39-.23.52-.17.66.25a13.06,13.06,0,0,1,.48,3.79c0,1.65,0,3.31.16,5a9.83,9.83,0,0,1-.07,1.71c0,.1-.09.2-.15.29s-.26.38-.37.58-.32.35-.58.13a4.59,4.59,0,0,1-.48-.5,3.15,3.15,0,0,0,.3-1.78c-.05-1.26-.05-2.52-.09-3.78,0-1-.06-2.09-.1-3.13A4.33,4.33,0,0,0,15.26,85.21Z"/><path class="cls-15" d="M32.36,72.18c.63.06,1.22.08,1.8.19a3.07,3.07,0,0,1,.92.39c.32.18.25.48.17.76s-.34.3-.56.31c-1,0-1.94,0-2.92,0A.74.74,0,0,1,31,73c0-.62,0-1.25.07-1.88.05-.87.09-1.75.16-2.62.1-1.19.23-2.38.31-3.57.07-.87.1-1.75.11-2.62,0-.29,0-.55.29-.69s.4-.18.52-.11.48.28.45.61,0,.45,0,.68c-.06.6-.17,1.19-.18,1.79a45.75,45.75,0,0,1-.35,5,2.6,2.6,0,0,0,0,.4c0,.49,0,1,0,1.47C32.27,71.66,32.32,71.9,32.36,72.18Z"/><path class="cls-16" d="M27.21,67.18c0,.23.05.46.06.69a1.74,1.74,0,0,1,0,.56,10.53,10.53,0,0,0-.14,2.44.46.46,0,0,0,0,.17c.38.58-.05.92-.4,1.26a.51.51,0,0,1-.89-.23,1.59,1.59,0,0,1-.1-.94c.07-.41.06-.84.09-1.25.07-1.15.13-2.29.21-3.43s.19-2.31.28-3.47a2.26,2.26,0,0,0,0-.45.67.67,0,0,1,.67-.78c.42,0,.64.2.66.68a1.93,1.93,0,0,1,0,.34c-.14,1.13-.3,2.26-.43,3.39a8.68,8.68,0,0,0,0,1Z"/><path class="cls-17" d="M66.9,100.84l2.85.18a2,2,0,0,0,.23,0c.68-.18,1.26.2,1.88.34.18,0,.34.09.33.32a.43.43,0,0,1-.3.44,1.4,1.4,0,0,1-.28.06c-.7.07-1.41.09-2.11.21a12.72,12.72,0,0,1-3.54,0,.9.9,0,0,1-.78-1.16.58.58,0,0,1,.63-.4c.36,0,.72,0,1.08,0Z"/><path class="cls-18" d="M77.38,100.57l2.86.17a.62.62,0,0,0,.23,0c.68-.18,1.26.2,1.88.34.18,0,.34.1.33.33a.45.45,0,0,1-.3.44,1.37,1.37,0,0,1-.28,0c-.71.07-1.42.1-2.11.22a13.11,13.11,0,0,1-3.54,0,.89.89,0,0,1-.78-1.15.57.57,0,0,1,.62-.41c.36,0,.73,0,1.09,0Z"/><path class="cls-19" d="M48.89,99.85l1.59.27a1,1,0,0,0,.33.06c.53-.13.84.27,1.22.49a.21.21,0,0,1-.06.39,2.85,2.85,0,0,1-.51.08c-.59.06-1.18.1-1.76.17-1.14.13-2.27.3-3.4.43a4.71,4.71,0,0,1-.75,0,.73.73,0,0,1-.59-.38c-.36-.52-.19-.94.43-1C46.52,100.14,47.65,100,48.89,99.85Z"/><path class="cls-20" d="M80,9A1,1,0,0,1,79.42,8c0-1.11.07-2.21.1-3.32,0-.48-.07-.57-.58-.64-.23,0-.46-.06-.68-.11s-.3-.06-.36-.15a1.18,1.18,0,0,1-.3-.64c0-.25.31-.32.54-.34l2-.13a.32.32,0,0,1,.39.27,11.54,11.54,0,0,1,.16,1.18c0,.74,0,1.49,0,2.23a9.16,9.16,0,0,1,0,1.48A1.47,1.47,0,0,1,80,9Z"/><path class="cls-21" d="M62,101.07c.13.67.09.78-.54.82-1.12.07-2.25.09-3.37.12-.59,0-1.19,0-1.78-.05a.84.84,0,0,1-.83-1,.54.54,0,0,1,.25-.35,2.29,2.29,0,0,1,.76-.22,16.93,16.93,0,0,1,3.76.27C60.82,100.72,61.38,100.91,62,101.07Z"/><path class="cls-22" d="M41.17,100.8a1.16,1.16,0,0,1-.77.83,10.09,10.09,0,0,1-3.79.3c-.28,0-.57,0-.85,0a1,1,0,0,1-1.16-.62.53.53,0,0,1,.28-.71,2.5,2.5,0,0,1,.7-.23,6.64,6.64,0,0,1,3.22.2,8.69,8.69,0,0,0,1.86.22C40.79,100.81,40.92,100.8,41.17,100.8Z"/><path class="cls-23" d="M83.55,65a.84.84,0,0,1-.92-.91c0-.45-.16-.9-.19-1.35A16.36,16.36,0,0,1,82.5,59c.07-.5.37-.72.82-.63a.7.7,0,0,1,.5.85,15.22,15.22,0,0,0,0,4.21A2.17,2.17,0,0,1,83.55,65Z"/><path class="cls-24" d="M26.09,99.87a14,14,0,0,1,2.89.43,4,4,0,0,1,1.34.47,1.62,1.62,0,0,1,.44.5c.14.27,0,.43-.29.47H30.3a20.67,20.67,0,0,0-4.16-.15,1.46,1.46,0,0,1-1.08-.28c-.5-.41-.47-.89.11-1.17A4.64,4.64,0,0,1,26.09,99.87Z"/><path class="cls-25" d="M37.64,1.14c1,0,2.13.05,3.23.12a3.47,3.47,0,0,1,1,.27c.12.05.18.22.27.33-.12.06-.24.18-.36.19-.85.1-1.7.18-2.56.26-.28,0-.56,0-.85.06-.82,0-1.64.08-2.46.09A.76.76,0,0,1,35.09,2c-.15-.47,0-.69.46-.75a7.11,7.11,0,0,1,1-.05Z"/><path class="cls-26" d="M66.13,2.56a6.6,6.6,0,0,1-1.75.4,21.26,21.26,0,0,1-4.22-.06,1.63,1.63,0,0,1-.73-.27.67.67,0,0,1-.28-.83.77.77,0,0,1,.76-.38l3.49.63a1.35,1.35,0,0,0,.4,0,4.44,4.44,0,0,1,2.13.32C66,2.39,66,2.47,66.13,2.56Z"/><path class="cls-27" d="M2,95.86l.06.51a2.66,2.66,0,0,1,0,.69,10.35,10.35,0,0,0-.15,2.78.48.48,0,0,1-.23.4.49.49,0,0,1-.45-.1,1.73,1.73,0,0,1-.36-.7,8.6,8.6,0,0,1-.05-1c0-.89-.1-1.77-.16-2.66,0-.41-.08-.83-.08-1.24a.75.75,0,0,1,.21-.46.56.56,0,0,1,1,.23c.12.51.18,1,.26,1.56Z"/><path class="cls-28" d="M.54,87.22a24.27,24.27,0,0,1,.35-3.71A.7.7,0,0,1,2,83a.31.31,0,0,1,.16.38,18.08,18.08,0,0,0-.29,2.94c0,.47,0,.93,0,1.4a7.94,7.94,0,0,1-.14,1.46.32.32,0,0,1-.52.24,1.12,1.12,0,0,1-.43-.56C.64,88.32.6,87.77.54,87.22Z"/><path class="cls-29" d="M83.31,48.39c0,.28.06.57.08.85a7.31,7.31,0,0,1,0,.8c0,1-.07,1.9-.11,2.86,0,.5-.12.68-.35.7a1,1,0,0,1-.69-.61,4.39,4.39,0,0,1-.13-1.19,29.63,29.63,0,0,0,0-3.65,4.24,4.24,0,0,1,0-.62.62.62,0,0,1,.49-.56.6.6,0,0,1,.58.46,7.48,7.48,0,0,1,.13,1Z"/><path class="cls-30" d="M83,85.4C83,85,83,84.49,83,84a.94.94,0,0,0,0-.29,4.79,4.79,0,0,1,.11-1.92.65.65,0,0,1,.59-.61c.26,0,.39.11.47.36a4.24,4.24,0,0,1-.07,1.91,5.72,5.72,0,0,0,.07,2.37,2.32,2.32,0,0,1,0,1.23c-.08.3-.32.42-.57.25S83,87,83,86.55V85.4Z"/><path class="cls-31" d="M20.71,100.55c-.12.09-.22.23-.35.28a4.86,4.86,0,0,1-1.57.3c-.89,0-1.79.12-2.68.16a1.08,1.08,0,0,1-.64-.17.67.67,0,0,1-.28-.81.8.8,0,0,1,.83-.58c.69.08,1.37-.19,2.05.06a5,5,0,0,0,.79.09,4.84,4.84,0,0,1,.65.19l.72.2.42.12Z"/><path class="cls-32" d="M81.29,15.3c0,.61,0,1.22,0,1.83s-.13,1.13-.22,1.7c0,.11-.15.2-.23.3a1.61,1.61,0,0,1-.28-.24,3.83,3.83,0,0,1-.51-2.12A15.57,15.57,0,0,1,80,14.84a5.19,5.19,0,0,1,.21-1.24.55.55,0,0,1,.64-.45c.3,0,.46.23.47.6,0,.52,0,1,0,1.55Z"/><path class="cls-33" d="M83.9,92.24a2.69,2.69,0,0,0-.1.41,4.14,4.14,0,0,0,0,.61c0,.37.1.74.14,1.12,0,.59.08,1.18.14,1.76a1.06,1.06,0,0,1-.23.91c-.17.18-.32.39-.61.33a.75.75,0,0,1-.56-.68c0-1,0-2,0-3,0-.25,0-.5,0-.75C82.66,92.18,83.07,91.89,83.9,92.24Z"/><path class="cls-34" d="M81.22,38.78c-.07-.66-.15-1.32-.21-2s.28-.95.78-.86a.53.53,0,0,1,.52.57c0,.52,0,1,0,1.55s0,.94,0,1.41,0,.88,0,1.31a3,3,0,0,1-.21.88.42.42,0,0,1-.32.23.42.42,0,0,1-.32-.27A13.86,13.86,0,0,1,81.19,40c0-.41,0-.84,0-1.26Z"/><path class="cls-35" d="M53.44,1.66a5.42,5.42,0,0,1-.71.26,6.75,6.75,0,0,1-1.18.19,13.51,13.51,0,0,1-3.24,0,2.38,2.38,0,0,1-.69-.25.56.56,0,0,1-.26-.64A.48.48,0,0,1,47.89.9c.57,0,1.14,0,1.71,0,1,.06,1.93.13,2.9.22A1.53,1.53,0,0,1,53.44,1.66Z"/><path class="cls-36" d="M83.86,72.52c0,1,0,2.06,0,3.08a1.21,1.21,0,0,1-.1.5c-.07.17-.18.36-.42.31s-.52-.1-.55-.4a4.18,4.18,0,0,1-.07-1.31,15.37,15.37,0,0,0,.06-3.18,1,1,0,0,1,.3-.83.44.44,0,0,1,.79.25,5.17,5.17,0,0,1,.1.79,5.27,5.27,0,0,1-.07.79Z"/><path class="cls-37" d="M.5,77.21c0-1,.05-1.94.08-2.91,0-.3,0-.6,0-.9a.78.78,0,0,1,.47-.73.68.68,0,0,1,.8.1.61.61,0,0,1,.24.76,6.87,6.87,0,0,0-.39,1.84c-.13.62-.19,1.26-.29,1.9s-.25.79-.58.76S.53,77.83.5,77.21Z"/><path class="cls-38" d="M73.19,3.67H70.9a.76.76,0,0,1-.67-.37c-.3-.44-.15-.8.38-.91a6.6,6.6,0,0,1,3.65.34,2,2,0,0,1,.65.44.51.51,0,0,1,.11.4c0,.19-.21.25-.41.24-.47,0-1-.06-1.42-.09Z"/><path class="cls-39" d="M82,28c0,.8-.08,1.53-.12,2.25a1,1,0,0,1,0,.17c0,.2,0,.44-.32.47a.55.55,0,0,1-.58-.44,6.69,6.69,0,0,1-.22-1.4c0-1,.08-2,.13-3,0-.38.15-.5.52-.53s.44.06.48.47C81.91,26.71,81.94,27.42,82,28Z"/><path class="cls-40" d="M9.83,100.53c-.13.21-.18.39-.3.47a1.5,1.5,0,0,1-.72.32c-1,.06-2,.07-3,.08a1.16,1.16,0,0,1-.65-.15,1,1,0,0,1-.36-.61c-.05-.27.19-.44.44-.52a2.17,2.17,0,0,1,.56-.13,7.18,7.18,0,0,1,2.61.19Z"/><path class="cls-41" d="M9.67.91a.8.8,0,0,1-.6.52,5.85,5.85,0,0,1-1,.21,11.28,11.28,0,0,1-2.78.17,2.68,2.68,0,0,1-.77-.21A.49.49,0,0,1,4.23,1,.47.47,0,0,1,4.72.59c.38,0,.77,0,1.15,0C6.65.58,7.43.54,8.21.5A2.49,2.49,0,0,1,9.67.91Z"/><path class="cls-42" d="M30.68,1.59a5.74,5.74,0,0,1-1.17.34c-1.22.08-2.44.11-3.66.15a.74.74,0,0,1-.73-.35c-.21-.37-.07-.74.35-.78A16.7,16.7,0,0,1,27.34.88c.61,0,1.22.05,1.83.07a9.81,9.81,0,0,1,1.52.44A1.41,1.41,0,0,0,30.68,1.59Z"/><path class="cls-43" d="M19.83,2A18.34,18.34,0,0,1,18,2.2c-.95,0-1.9-.09-2.86-.15a1.83,1.83,0,0,1-.6-.15.63.63,0,0,1-.3-.69.49.49,0,0,1,.53-.35,13.3,13.3,0,0,1,1.55.07,12.22,12.22,0,0,1,2.81.52C19.35,1.54,19.69,1.52,19.83,2Z"/><path class="cls-44" d="M.73,67.2a5.72,5.72,0,0,1-.12-.83c0-.64.05-1.28.09-1.92,0-.42.11-.83.09-1.25s.25-.47.49-.61a.47.47,0,0,1,.66.15.57.57,0,0,1,.11.4c-.15,1.13-.32,2.25-.48,3.38a2.26,2.26,0,0,0,0,.45,2.93,2.93,0,0,1,0,.29c0,.32-.11.58-.31.59A.59.59,0,0,1,.73,67.2Z"/><path class="cls-45" d="M1.82,28.56a1,1,0,0,1-.77-1,10.36,10.36,0,0,1-.16-2.08A.82.82,0,0,0,.72,25a1,1,0,0,1-.1-1c.19-.1.4-.21.6-.3a.67.67,0,0,1,.92.65L2,25.77C2,26.68,1.89,27.59,1.82,28.56Z"/><path class="cls-46" d="M.83,7c0-1-.09-2-.11-3.07a5,5,0,0,1,.09-1,.41.41,0,0,1,.3-.27c.1,0,.26.15.31.26a2,2,0,0,1,.13.67A1.71,1.71,0,0,0,1.9,4.76.25.25,0,0,1,2,4.93c-.05,1-.1,1.93-.16,2.9,0,.17,0,.44-.26.43A.73.73,0,0,1,1.1,8,1.05,1.05,0,0,1,.83,7Z"/><path class="cls-47" d="M2.09,53.73a6.71,6.71,0,0,0-.54,2.93,2,2,0,0,1-.24,1.15.75.75,0,0,1-.52-.75,4.37,4.37,0,0,1-.11-1.17,4.65,4.65,0,0,0-.1-1.45c-.06-.92.38-1.25,1.22-.87Z"/><path class="cls-48" d="M1.32,48.29a3.45,3.45,0,0,1-.21-.67C1,46.54.91,45.47.81,44.39a4.36,4.36,0,0,1,0-.51.56.56,0,0,1,.53-.57.51.51,0,0,1,.53.48,2.4,2.4,0,0,1,0,.46,10.59,10.59,0,0,1,0,1.13c-.11,1-.25,1.91-.38,2.87Z"/><path class="cls-49" d="M1.67,13.07c0,.7.07,1.42.08,2.13s0,1.41,0,2.11c0,.2,0,.44-.26.42s-.29-.2-.39-.34a.75.75,0,0,1,0-.34,11.09,11.09,0,0,0-.14-1.63,8.68,8.68,0,0,1,.17-2.09C1.13,13.1,1.32,12.93,1.67,13.07Z"/><path class="cls-50" d="M1.77,38.19c-.49,0-.75-.17-.73-.65A8.08,8.08,0,0,1,1,35c0-.13,0-.3,0-.45a3.47,3.47,0,0,1,.07-.79.52.52,0,0,1,.4-.24c.19,0,.25.16.24.37,0,.85,0,1.71,0,2.56C1.7,37,1.74,37.58,1.77,38.19Z"/><path class="cls-51" d="M44.63,93.77a.78.78,0,0,1,.41-.69.67.67,0,0,1,.7.11.45.45,0,0,1,.22.58,3,3,0,0,1-.18.41c-.12.25-.27.49-.59.44S44.63,94.11,44.63,93.77Z"/><path class="cls-52" d="M27.67,58a.68.68,0,0,1-.71-.78c0-.26.31-.49.66-.49a.59.59,0,0,1,.57.59C28.19,57.76,28,58,27.67,58Z"/></g></g></svg>