<svg xmlns="http://www.w3.org/2000/svg" viewBox="0 0 185.45 548.06"><defs><style>.cls-1{fill:#834f9f;}.cls-2{fill:#7bc142;}.cls-3,.cls-4{fill:#fff;}.cls-4{font-size:24px;font-family:MyriadPro-Regular, Myriad Pro;}.cls-5{letter-spacing:-0.01em;}</style></defs><g id="Layer_2" data-name="Layer 2"><g id="Layer_1-2" data-name="Layer 1"><rect class="cls-1" x="40.95" y="324.29" width="102.64" height="96.2"/><rect class="cls-2" x="34.21" y="298.79" width="115.8" height="80.29"/><rect class="cls-1" x="15.86" y="296.32" width="45.86" height="27.96"/><rect class="cls-2" x="3.78" y="296.32" width="13.34" height="89.26"/><rect class="cls-1" y="385.58" width="20" height="9.04"/><rect class="cls-1" y="385.58" width="4.11" height="17.15"/><rect class="cls-1" x="16.5" y="385.58" width="4.11" height="17.15"/><rect class="cls-1" x="123.73" y="296.32" width="45.86" height="27.96"/><rect class="cls-2" x="168.33" y="296.32" width="13.34" height="89.26"/><rect class="cls-1" x="165.45" y="385.58" width="20" height="9.04"/><rect class="cls-1" x="181.35" y="385.58" width="4.11" height="17.15"/><rect class="cls-1" x="164.85" y="385.58" width="4.11" height="17.15"/><rect class="cls-2" x="23.58" y="287.67" width="137.38" height="62.8"/><rect class="cls-1" x="69.26" y="259.71" width="45.86" height="27.97"/><ellipse class="cls-2" cx="91.73" cy="219.95" rx="64.76" ry="45.29"/><rect class="cls-2" x="63.62" y="259.59" width="57.15" height="14.1"/><ellipse class="cls-3" cx="70.06" cy="211.69" rx="15" ry="13.13"/><ellipse class="cls-1" cx="70.07" cy="211.69" rx="11.37" ry="9.95"/><ellipse class="cls-3" cx="110.43" cy="211.69" rx="15" ry="13.13"/><ellipse class="cls-1" cx="110.43" cy="211.69" rx="11.37" ry="9.95"/><rect class="cls-2" x="79.05" y="164.96" width="25.36" height="24.1"/><rect class="cls-3" x="70.06" y="240.04" width="40.36" height="7.42"/><rect class="cls-2" x="58.7" y="420.48" width="20.35" height="111.04"/><rect class="cls-1" x="58.7" y="469.59" width="20.35" height="20.29"/><path class="cls-2" d="M74.22,527.78H63.52c-6.83,0-12.37,9.08-12.37,20.28H86.59c0-11.21-5.54-20.29-12.37-20.29Z"/><rect class="cls-2" x="107.27" y="420.48" width="20.35" height="111.04"/><rect class="cls-1" x="107.27" y="469.59" width="20.35" height="20.29"/><path class="cls-2" d="M122.8,527.78H112.1c-6.83,0-12.37,9.08-12.37,20.28h35.44c0-11.21-5.54-20.29-12.37-20.29Z"/><path class="cls-2" d="M30,2v93c18.43-4.82,52.81,6.86,61.76.52L77.86,119l23.66-2.67-30,27.72,64.65-32.52-34.64-4.27,11.57-12.25c21.93,0,43.32-6.45,65.78,0V2C125.81-5.55,75.41,11.15,30,2Z"/><text class="cls-4" transform="translate(40.95 42.66)"><tspan class="cls-5">C</tspan><tspan x="13.66" y="0">ool </tspan><tspan x="0" y="28.8">happenings!</tspan></text></g></g></svg>