<svg xmlns="http://www.w3.org/2000/svg" viewBox="0 0 703.09 9.86"><defs><style>.cls-1{fill:#7bc142;}</style></defs><g id="Layer_2" data-name="Layer 2"><g id="Layer_1-2" data-name="Layer 1"><path class="cls-1" d="M2.28,7c3.2-1.55,7.18-1.82,10.66-2.12a135.83,135.83,0,0,1,15-.42A103.63,103.63,0,0,1,42.2,5.55a28.29,28.29,0,0,1,4.9,1.12C48.05,7,49.06,7.91,50,8c1.25.14,3.25-.61,4.47-.84,1.62-.3,3.25-.58,4.87-.86,4-.66,7.9-1.25,11.88-1.73a169.05,169.05,0,0,1,23.8-1.3c7.66.17,15.1,1.53,22.68,2.46a109,109,0,0,0,23.12,0c7.2-.64,14.37-1.67,21.59-2a49.52,49.52,0,0,1,9,.18c2.74.36,4.77,1.59,7.27,2.56,6,2.32,13.34,1.12,19.5.32,8-1,16-2.39,24.13-2.18,14.37.36,28.38,5.59,42.83,3,5.53-1,10.63-3.61,16.24-4.29,6.84-.83,12.93.72,19.47,2.34,15.36,3.83,32.23,1,47.77-.21a170.25,170.25,0,0,1,19.95-.26,93.31,93.31,0,0,1,9.45.78,26.26,26.26,0,0,1,2.94.55,6.36,6.36,0,0,0,1.11.32,2.92,2.92,0,0,1,.49.19c.48.37.53.07.15-.88a1.52,1.52,0,0,0,1.06,2.56c8.28.9,15-2.36,22.89-4.12,10-2.24,20-.45,29.85,1.73,8.41,1.87,17.19,3.62,25.77,1.8,4.1-.87,7.72-2.77,12-3.21a64.11,64.11,0,0,1,14.12.29A83.74,83.74,0,0,1,501.83,7.8c1.16.33,2.82,1.28,4,1.22s2.79-1.24,3.95-1.7c9.38-3.65,20.91-4.93,30.72-2.57,3.83.92,7.47,2.23,11.4,2.77a94.29,94.29,0,0,0,12.23.78c10,.09,20-.7,30-1.51a269.29,269.29,0,0,1,28.12-1c4.17.1,8.36.28,12.5.79a31.48,31.48,0,0,1,4.73.86c.6.17,1.78.79,1.8.54a1.51,1.51,0,0,0,2.26,1.29c3.24-2,7.54-2.55,11.24-3.09A119.15,119.15,0,0,1,672.4,5a113.65,113.65,0,0,1,17.38,1.27c3.31.53,8,1,10.68,3.21,1.47,1.24,3.61-.87,2.13-2.12-2.71-2.27-6.61-3-10-3.63A110.66,110.66,0,0,0,673.73,2a126.69,126.69,0,0,0-19.17,1.16c-4.16.59-8.88,1.21-12.52,3.47l2.26,1.3c.3-3.77-7.26-4.12-9.53-4.4a168.88,168.88,0,0,0-24.84-.75c-19.39.57-39.4,4.79-58.73,1.61-4.27-.7-8.29-2.39-12.55-3.08a57,57,0,0,0-16.13-.12,58.6,58.6,0,0,0-13.13,3.08c-1.06.4-2.76,1.56-3.78,1.61-1.33.06-3.73-1.21-5.12-1.56C491.7,2.1,482.13.82,473.08,2c-4.05.53-7.59,2.34-11.54,3.18-5.38,1.14-11.11.7-16.48-.22-10.69-1.84-21-5.15-32-4.35-10.07.72-19,6.16-29.25,5.05l1.06,2.56c4.21-4.46-7.89-5.46-9.72-5.64a175.08,175.08,0,0,0-31.14.2c-12.45,1-25.44,2.6-37.89.81-4.87-.7-9.47-2.56-14.35-3.2a40.31,40.31,0,0,0-16,1C271,2.7,266.53,4.55,261.55,5.06,255,5.73,248.4,5,241.9,3.94a161.38,161.38,0,0,0-17.65-2.3A109.77,109.77,0,0,0,203.93,3c-6.22.84-12.62,2-18.93,1.61-4.94-.35-8.83-3.19-13.73-3.75C159.65-.49,147.62,2.33,136,3.1a104.11,104.11,0,0,1-22.52-1,143.4,143.4,0,0,0-21-1.89C78.11.21,63.75,2.31,49.63,5.07l1.46.39c-2.29-2-5.83-2.45-8.71-2.9A114,114,0,0,0,27.5,1.41a129.13,129.13,0,0,0-16,.56c-3.61.38-7.44.8-10.75,2.4C-1,5.21.55,7.8,2.28,7Z"/></g></g></svg>