<svg xmlns="http://www.w3.org/2000/svg" xmlns:xlink="http://www.w3.org/1999/xlink" viewBox="0 0 42.82 88.6"><defs><style>.cls-1{stroke:#fff;stroke-miterlimit:10;fill:url(#Ñóïåðìÿãêàÿ_åðíàÿ_âèíüåòêà);}</style><radialGradient id="Ñóïåðìÿãêàÿ_åðíàÿ_âèíüåòêà" cx="20.88" cy="44.34" r="34.34" gradientTransform="translate(-23.7 64.28) rotate(-88.92)" gradientUnits="userSpaceOnUse"><stop offset="0.57" stop-color="#130c0e"/><stop offset="0.8" stop-color="#130c0e"/><stop offset="1" stop-color="#130c0e"/></radialGradient></defs><g id="Layer_2" data-name="Layer 2"><g id="final"><path class="cls-1" d="M32.1,72.23c-.21.22-.35.38-.51.52a1.88,1.88,0,0,0-.38,2.8c.62.88.64.91-.31,1.5a1.08,1.08,0,0,0-.51,1.32c.49,2.22.74,2-1.47,3-.59.27-1,.55-1,1.26,0,.32-.23.63-.26.95-.21,2.42-1.87,3.5-3.89,4.2s-3.81,0-5.53-.89a3.16,3.16,0,0,1-1.06-1.5c-.58-1.28-1-2.61-1.6-3.9a2.83,2.83,0,0,0-.7-1c-1-1-1.11-1.13-.61-2.47.19-.51-.08-.75-.41-1-.92-.77-.92-.81-.24-1.77.28-.39.51-.8.78-1.22-.32-.43-.61-.81-.88-1.2-.48-.72-.46-.78,0-1.47.3-.41.55-.85.89-1.38-.45-.38-.82-.72-1.21-1-.55-.42-.61-.76-.16-1.29.31-.36.65-.69,1.06-1.12-.53-.83-1-1.66-1.55-2.42a3.09,3.09,0,0,1-.72-1.58c-.08-.89-.19-1.77-.32-2.65a26.41,26.41,0,0,1-.06-5.76,6.45,6.45,0,0,0-.33-2.71,19.45,19.45,0,0,1-1-6.32A8,8,0,0,0,7.28,39,20.46,20.46,0,0,1,.9,28a17.43,17.43,0,0,1-.4-4.16,34.18,34.18,0,0,1,1.09-8A22.49,22.49,0,0,1,6.5,6.33,19.54,19.54,0,0,1,10.87,2.6a3.19,3.19,0,0,1,.7-.33A32.28,32.28,0,0,1,17.66,1.1C19.35,1,21,.75,22.72.62Q24.66.49,26.59.5A6.56,6.56,0,0,1,28.2.86a14.16,14.16,0,0,0,1.47.5,11.59,11.59,0,0,1,4.53,2,17.1,17.1,0,0,1,3.88,3.43,15.36,15.36,0,0,1,3.24,7.89c.26,2.2.66,4.39.86,6.6a30.87,30.87,0,0,1-.73,10.13,17.09,17.09,0,0,1-3.92,7.83c-.57.63-1.12,1.27-1.66,1.93A5.31,5.31,0,0,0,34.77,44a7.29,7.29,0,0,0-.05,1.55,22.41,22.41,0,0,1-.84,6.57,4,4,0,0,1-.69,1.5,4.07,4.07,0,0,0-.82,2.69c.07,1.48.1,2.95.1,4.43A5.94,5.94,0,0,1,31,65.1c.21,1,.41,2,.6,2.91a11.1,11.1,0,0,0-.83,1.42,1.16,1.16,0,0,0,.27,1.23A14.26,14.26,0,0,1,32.1,72.23ZM13.77,52.88a4.22,4.22,0,0,0,.69,1,11.75,11.75,0,0,0,6.81,2.91,20.78,20.78,0,0,0,6.8-.82,6.45,6.45,0,0,0,4.85-5.12,22.51,22.51,0,0,0,.69-5.72,12,12,0,0,1,0-2,5,5,0,0,1,1.44-3.29,17.28,17.28,0,0,0,5.31-9.28,25.84,25.84,0,0,0,.74-7.38c-.22-2.76-.43-5.54-.86-8.27a20.94,20.94,0,0,0-1.41-4.54,13.27,13.27,0,0,0-4.8-5.56,10.61,10.61,0,0,0-4.92-2.21,13,13,0,0,1-1.25-.41c-1.25-.29-2.48-.75-3.79-.15a3,3,0,0,1-1.2.1c-.52,0-1-.09-1.55,0-1.77.14-3.53.36-5.29.48a11,11,0,0,0-7,2.94,20.21,20.21,0,0,0-4.67,6A27.74,27.74,0,0,0,2,20.24a28.1,28.1,0,0,0-.28,4.29A15.14,15.14,0,0,0,3,29.92a28.38,28.38,0,0,0,2.19,4.46,16.49,16.49,0,0,0,2.72,2.89,9.37,9.37,0,0,1,3.4,6.93,25.81,25.81,0,0,0,.43,4.39,6.21,6.21,0,0,0,1.42,3.28c1-.51,1.85-.94,2.71-1.43a1,1,0,0,0,.47-.63,14.46,14.46,0,0,0-.14-3.09,45.33,45.33,0,0,1-.8-8.69,11.32,11.32,0,0,0-.08-1.43c-.21-1.51-.46-3-.67-4.5-.24-1.79-.47-3.58-.67-5.38a33,33,0,0,1-.33-4.31,55,55,0,0,0-.67-6.91c0-.51-.21-1,.29-1.39,1.06.19,1.47,1,1.78,1.81a2.56,2.56,0,0,0,1.38,1.52.7.7,0,0,0,1.08-.73,2.32,2.32,0,0,1-.06-.44,15.82,15.82,0,0,1,.26-2.07,1.82,1.82,0,0,1,1.58-1c.6.12,1,.74.87,1.56a3.92,3.92,0,0,1-.23,1c-.27.64-.58,1.26-.92,2a8.16,8.16,0,0,0,.95.68,1.43,1.43,0,0,0,1.5-.44,1.07,1.07,0,0,0,.08-.9c-.79-1.35-.33-2.45.55-3.52a1,1,0,0,1,1.34-.41c.65,1.33.66,1.55.09,2.83-.1.23-.24.46-.32.7a.86.86,0,0,0,.52,1.18A1,1,0,0,0,25,17.58c-.08-.5-.21-1-.24-1.52a3,3,0,0,1,1-2.68c.65-.52,1.27-.34,1.39.46a6.09,6.09,0,0,1-.11,1.85,12.59,12.59,0,0,1-.54,1.64c.81.48,1.15.47,1.52-.16a12.92,12.92,0,0,0,.82-1.91c.12-.31.11-.67.53-.75l1.45-.32a2.14,2.14,0,0,1,.39,1.68c0,1.14,0,2.28,0,3.42,0,1.78.21,3.56.1,5.32-.19,3.21-.56,6.4-.83,9.61-.09,1.06-.11,2.13-.19,3.2s-.18,2.43-.3,3.64-.27,2.27-.41,3.4c-.06.47-.13.95-.18,1.42-.1.84-.19,1.69-.27,2.53,0,.28,0,.57,0,.91a9.64,9.64,0,0,1,1,.43c.54.31,1.05.65,1.57,1,.35.23.55.56.33.94s-.65.19-1,.1c-.77-.2-1.54-.42-2.4-.66-.16,1-.31,1.86-.44,2.68-.81.06-1-.37-1-.9s.11-1.3.18-2.09l-1.25-.1a16.93,16.93,0,0,1-.41,1.75c-.38,1.12-.8,2.28-2.12,2.63a4,4,0,0,1-3.67-.7,4.39,4.39,0,0,1-1.77-2.92c-.52,0-.63.25-.57.66s.12.87.16,1.31-.08.74-.49.7c-.2,0-.47-.34-.54-.57-.16-.52-.22-1.06-.36-1.77Zm.66-35.73a4.5,4.5,0,0,0-.09.82c.14,1.91.28,3.83.44,5.74.12,1.43.24,2.87.42,4.29a22.44,22.44,0,0,1,.47,4.4,7.06,7.06,0,0,0,.16,1.44,34.4,34.4,0,0,1,.55,4.27,93.18,93.18,0,0,0,.77,9.59,14.72,14.72,0,0,0,.24,1.64.71.71,0,0,0,.54.41c.17,0,.39-.27.48-.48a1.75,1.75,0,0,0,0-.65c0-1.08,0-2.15,0-3.23,0-2-.07-4-.09-6a22.11,22.11,0,0,1,.08-4c.44-2.49.81-5,2.52-7.13a6.74,6.74,0,0,0,.74-1.69,10.61,10.61,0,0,1-2.19-.91c-1-.75-.86-1.64.28-2.21.56-.27,1.1-.59,1.66-.87a3.77,3.77,0,0,1,3,0,1,1,0,0,1,.54.53A2.56,2.56,0,0,1,25,25.19a11.29,11.29,0,0,1-.75,1.47,2.26,2.26,0,0,0-.3,2q.75,2.5,1.4,5a35.22,35.22,0,0,1,.79,7.93c0,1.92.11,3.85.17,5.77,0,.47.09.94.14,1.42l1.27,0c.1-.44.19-.79.25-1.15.29-1.72.65-3.42.82-5.15.32-3.12.53-6.26.78-9.39.06-.81.13-1.62.18-2.43.1-1.44.17-2.88.27-4.32.06-.88.23-1.76.23-2.64,0-1.77,0-3.54-.09-5.31,0-.86-.1-1.72-.16-2.83-.65,1-1.11,1.72-1.63,2.43s-.89.93-1.88.62a1.58,1.58,0,0,0-1.37.07,2,2,0,0,1-2,0,1.21,1.21,0,0,0-1.52.14,2.18,2.18,0,0,1-2.68,0,3.57,3.57,0,0,1-.56-.36,1.05,1.05,0,0,0-1.11-.25,2.09,2.09,0,0,1-2.05-.55C15,17.59,14.8,17.44,14.43,17.15ZM12.84,54.78a1.91,1.91,0,0,0-.19.58c0,1.4.11,2.8.21,4.2.05.66.19,1.31.29,2a3.1,3.1,0,0,0,1.59,2.37A18.49,18.49,0,0,0,19,65.61a12.89,12.89,0,0,0,3.35.64,14.64,14.64,0,0,0,7.18-1.94,2.92,2.92,0,0,0,1.67-2.56c0-.85.14-1.69.14-2.53s-.1-1.88-.16-3c-3,1.79-6.23,2.06-9.47,2.1C18.32,58.39,15.56,56.76,12.84,54.78Zm2.73,11.59c-.34.69-.63,1.26-.93,1.85A17.49,17.49,0,0,0,19.19,71a26.76,26.76,0,0,0,7.41,1.74c.76.06,1.52.22,2.27.33-.12.91-.35,1.22-1.06,1.21A20.64,20.64,0,0,1,24.29,74c-1.34-.26-2.63-.76-3.94-1.13A14.9,14.9,0,0,1,16.21,71c-.18-.11-.38-.18-.7-.33-.26.53-.5,1-.74,1.5.33.25.55.45.79.6,1.33.81,2.65,1.62,4,2.39a9.76,9.76,0,0,0,4,1.34c1,.09,2,.25,3,.34a1.09,1.09,0,0,1,1.16.84,5.87,5.87,0,0,1-1,.29,8.4,8.4,0,0,1-1.66.08c-2.08-.12-4.14-.31-5.9-1.62a17.46,17.46,0,0,0-1.87-1.2,16.29,16.29,0,0,0-1.53-.72c-.87,1.4-.86,1.55.38,2.3a16.53,16.53,0,0,0,4.77,2A3.44,3.44,0,0,1,22.71,80c-.57.13-1,.38-1.38.28-1.45-.41-3-.54-4.28-1.47a7.18,7.18,0,0,0-1.22-.59c-.42.4-.42.68-.1,1a6.3,6.3,0,0,0,2.06,1.24,8.91,8.91,0,0,0,4.29,1A16.7,16.7,0,0,0,28.2,80c.91-.41,1-.62.7-1.62,0-.21,0-.44-.07-.65-.13-.81.49-1.26.9-1.82-.56-1.46-.64-2.84.52-4a3.57,3.57,0,0,0-.24-.45,2.76,2.76,0,0,1-.2-3.22,2.45,2.45,0,0,0,0-2.18l-3,1.24c0,.08,0,.16,0,.24l1.86.48a1.14,1.14,0,0,1-1.5.66c-.6-.16-1.17-.42-1.75-.63a2.49,2.49,0,0,0-.83-.26c-1.13.05-2.25.16-3.56.25.29.23.43.42.61.47,1.66.48,3.33,1,5,1.38.53.14,1.11,0,1.65.14.21,0,.56.29.54.4a.94.94,0,0,1-.43.65,2.45,2.45,0,0,1-1.08.15A20.39,20.39,0,0,1,21,69.56a39,39,0,0,1-3.64-1.87,1.55,1.55,0,0,1-.7-.66A1.09,1.09,0,0,0,15.57,66.37Zm7-38.73L20.69,31a2,2,0,0,0-.13.42c-.21.86-.44,1.71-.62,2.57a16.91,16.91,0,0,0-.5,3c0,2.75.11,5.51.18,8.26,0,1.28.05,2.55.07,3.95l5.4-.69c0-.55,0-1.1,0-1.64,0-1.63-.07-3.25,0-4.87a25.67,25.67,0,0,0-1.34-9.79C23.22,30.8,23,29.27,22.53,27.64ZM25,50.52a11.08,11.08,0,0,0-5.08.48,2.92,2.92,0,0,0,3.43,2.89,1.54,1.54,0,0,0,.94-.68A7.32,7.32,0,0,0,25,50.52ZM17.26,82a1.62,1.62,0,0,0,1.22,1.64,13.34,13.34,0,0,0,5.36.49c.55,0,1.1,0,1.65,0,.23,0,.59,0,.67-.17a1.74,1.74,0,0,0,.29-1.68A13.7,13.7,0,0,1,17.26,82ZM23,26.19a16.71,16.71,0,0,0,1.05-1.73.85.85,0,0,0-.2-.77c-.16-.15-.65-.22-.76-.1-.27.29-.52.14-.8.16a2.94,2.94,0,0,0-2.22.74,1.22,1.22,0,0,0,1.21.71A1.52,1.52,0,0,1,23,26.19Zm1.33,59.39c-1.84.36-3.61-.23-5.49-.41C20.37,86.52,23.1,86.73,24.37,85.58ZM18.48,16.3a2,2,0,0,0,.88-1.61.58.58,0,0,0-.25-.41c-.07,0-.31,0-.37.12A2,2,0,0,0,18.48,16.3Zm4.34-1.75c-1,.74-1,.74-.39,1.54C22.93,15.42,22.93,15.42,22.82,14.55Zm3.1.93.32.07.1-.73-.21,0Z"/></g></g></svg>