<svg xmlns="http://www.w3.org/2000/svg" viewBox="0 0 185.46 548.06"><defs><style>.cls-1{fill:#9abc46;}.cls-2{fill:#f06194;}.cls-3,.cls-4{fill:#fff;}.cls-4{font-size:24px;font-family:MyriadPro-Regular, Myriad Pro;}.cls-5{letter-spacing:-0.01em;}.cls-6{letter-spacing:0.01em;}</style></defs><g id="Layer_2" data-name="Layer 2"><g id="Layer_1-2" data-name="Layer 1"><rect class="cls-1" x="40.96" y="324.29" width="102.64" height="96.2"/><rect class="cls-2" x="34.22" y="298.79" width="115.8" height="80.29"/><rect class="cls-1" x="15.87" y="296.32" width="45.86" height="27.96"/><rect class="cls-2" x="3.79" y="296.32" width="13.34" height="89.26"/><rect class="cls-1" y="385.58" width="20" height="9.04"/><rect class="cls-1" x="16.5" y="385.58" width="4.1" height="17.15"/><rect class="cls-1" x="123.74" y="296.32" width="45.86" height="27.96"/><rect class="cls-2" x="168.34" y="296.32" width="13.34" height="89.26"/><rect class="cls-1" x="165.46" y="385.58" width="20" height="9.04"/><rect class="cls-1" x="181.36" y="385.58" width="4.1" height="17.15"/><rect class="cls-1" x="164.86" y="385.58" width="4.11" height="17.15"/><rect class="cls-2" x="23.58" y="287.67" width="137.38" height="62.8"/><rect class="cls-1" x="69.27" y="259.71" width="45.86" height="27.97"/><ellipse class="cls-2" cx="91.74" cy="219.95" rx="64.76" ry="45.29"/><rect class="cls-2" x="63.63" y="259.59" width="57.15" height="14.1"/><ellipse class="cls-3" cx="70.07" cy="211.69" rx="15" ry="13.13"/><ellipse class="cls-1" cx="70.08" cy="211.69" rx="11.37" ry="9.95"/><ellipse class="cls-3" cx="110.44" cy="211.69" rx="15" ry="13.13"/><ellipse class="cls-1" cx="110.44" cy="211.69" rx="11.37" ry="9.95"/><rect class="cls-2" x="79.06" y="164.96" width="25.36" height="24.1"/><rect class="cls-3" x="70.07" y="240.04" width="40.36" height="7.42"/><rect class="cls-2" x="58.7" y="420.48" width="20.35" height="111.04"/><rect class="cls-1" x="58.7" y="469.59" width="20.35" height="20.29"/><path class="cls-2" d="M74.23,527.78H63.53c-6.83,0-12.37,9.08-12.37,20.28H86.6c0-11.21-5.54-20.29-12.37-20.29Z"/><rect class="cls-2" x="107.28" y="420.48" width="20.35" height="111.04"/><rect class="cls-1" x="107.28" y="469.59" width="20.35" height="20.29"/><path class="cls-2" d="M122.81,527.78h-10.7c-6.83,0-12.37,9.08-12.37,20.28h35.44c0-11.21-5.54-20.29-12.37-20.29Z"/><path class="cls-2" d="M25.92,2v93c18.44-4.82,52.82,6.86,61.77.52L73.83,119l23.67-2.67-30,27.72,64.65-32.52L97.49,107.3l11.57-12.25c21.93,0,43.32-6.45,65.78,0V2c-53-7.59-103.45,9.11-148.92,0Z"/><text class="cls-4" transform="translate(74.47 42.92)"><tspan class="cls-5">C</tspan><tspan x="13.66" y="0">ool </tspan><tspan x="0" y="28.8">fa</tspan><tspan class="cls-6" x="18.58" y="28.8">c</tspan><tspan x="29.64" y="28.8">ts!</tspan></text></g></g></svg>