<svg xmlns="http://www.w3.org/2000/svg" xmlns:xlink="http://www.w3.org/1999/xlink" viewBox="0 0 1920 1080"><defs><style>.cls-1{fill:#00aeef;}.cls-2{fill:#ddbca6;}.cls-3{fill:#fff;}.cls-4,.cls-5,.cls-9{fill:none;stroke-miterlimit:10;}.cls-4{stroke:#000;}.cls-4,.cls-5{stroke-width:0.25px;}.cls-5{stroke:#bcbec0;}.cls-6{fill:#efcab0;}.cls-7{fill:#6d6e71;}.cls-8{opacity:0.6;}.cls-13,.cls-8{isolation:isolate;}.cls-9{stroke:#fff;}.cls-10{fill:#ed1c24;}.cls-11{fill:#00aad4;}.cls-12{fill:#0cf;}.cls-13{opacity:0.3;fill:url(#linear-gradient);}.cls-14{fill:url(#linear-gradient-2);}.cls-15{fill:#666;}.cls-16{fill:url(#linear-gradient-3);}.cls-17{fill:#37c837;}.cls-18{fill:url(#linear-gradient-4);}.cls-19{fill:url(#linear-gradient-5);}.cls-20{fill:#d45500;}.cls-21{fill:url(#linear-gradient-6);}.cls-22{fill:url(#linear-gradient-7);}.cls-23{fill:#0055d4;}.cls-24{fill:url(#linear-gradient-8);}.cls-25{fill:url(#linear-gradient-9);}.cls-26{fill:#0a4;}.cls-27{fill:url(#linear-gradient-10);}</style><linearGradient id="linear-gradient" x1="1534.19" y1="-398.22" x2="1787.74" y2="-398.22" gradientTransform="matrix(0.99, 0, 0, -0.99, -442.01, 230.91)" gradientUnits="userSpaceOnUse"><stop offset="0" stop-color="#4d4d4d"/><stop offset="1" stop-color="#4d4d4d" stop-opacity="0"/></linearGradient><linearGradient id="linear-gradient-2" x1="1534.37" y1="76.52" x2="1565.31" y2="76.52" gradientTransform="matrix(0.99, 0, 0, -0.99, -442.01, 481.71)" gradientUnits="userSpaceOnUse"><stop offset="0" stop-color="#00aad4"/><stop offset="1" stop-color="#0096d4"/></linearGradient><linearGradient id="linear-gradient-3" x1="1533.88" y1="-175.84" x2="1564.81" y2="-175.84" gradientTransform="matrix(0.99, 0, 0, -0.99, -425.46, 230.91)" gradientUnits="userSpaceOnUse"><stop offset="0" stop-color="#2ca02c"/><stop offset="1" stop-color="#2c962c"/></linearGradient><linearGradient id="linear-gradient-4" x1="1619.12" y1="76.52" x2="1650.06" y2="76.52" gradientTransform="matrix(0.99, 0, 0, -0.99, -425.46, 481.71)" xlink:href="#linear-gradient-3"/><linearGradient id="linear-gradient-5" x1="1940" y1="-425.61" x2="1978.7" y2="-425.61" gradientTransform="matrix(0.65, -0.19, -0.28, -0.95, -128.84, 386.04)" gradientUnits="userSpaceOnUse"><stop offset="0" stop-color="#d44500"/><stop offset="1" stop-color="#d44b00"/></linearGradient><linearGradient id="linear-gradient-6" x1="2023.94" y1="-425.56" x2="2062.64" y2="-425.56" xlink:href="#linear-gradient-5"/><linearGradient id="linear-gradient-7" x1="426" y1="-467.85" x2="458.29" y2="-467.85" gradientTransform="matrix(0, -0.99, -0.99, 0, 311.42, 1060.95)" gradientUnits="userSpaceOnUse"><stop offset="0" stop-color="#04a"/><stop offset="1" stop-color="#002e9d"/></linearGradient><linearGradient id="linear-gradient-8" x1="514.98" y1="-215.49" x2="547.27" y2="-215.49" gradientTransform="matrix(0, -0.99, -0.99, 0, 562.22, 1060.95)" xlink:href="#linear-gradient-7"/><linearGradient id="linear-gradient-9" x1="504.73" y1="-467.85" x2="537.02" y2="-467.85" gradientTransform="matrix(0, -0.99, -0.99, 0, 311.42, 1046.34)" gradientUnits="userSpaceOnUse"><stop offset="0" stop-color="#008033"/><stop offset="1" stop-color="#006d33"/></linearGradient><linearGradient id="linear-gradient-10" x1="612.4" y1="-467.85" x2="644.69" y2="-467.85" xlink:href="#linear-gradient-9"/></defs><g id="Layer_2" data-name="Layer 2"><g id="Layer_1-2" data-name="Layer 1"><rect class="cls-1" width="1920" height="1080"/><path class="cls-2" d="M1850.5,1080s-154-120-174.4-139.3-34-39.6-28.3-72.5,69.1-191.4,36.2-249.1S1601.3,464,1583.2,462.8s-7.9,0-7.9,0V783.2s0,26-26,26h-81.5s-26,48.7,22.6,150.6l57.7,120h302.4Z"/><path class="cls-3" d="M1564.5,804.3H468.8a16.52,16.52,0,0,1-16.5-16.5V51.4a16.52,16.52,0,0,1,16.5-16.5H1564.5A16.52,16.52,0,0,1,1581,51.4V787.9A16.5,16.5,0,0,1,1564.5,804.3Z"/><rect class="cls-1" x="529.1" y="76.6" width="964.7" height="673.8"/><circle class="cls-4" cx="1534.6" cy="425.4" r="30.2"/><path class="cls-5" d="M1548.7,440.3h-28.2a2.26,2.26,0,0,1-2.3-2.3V409.8a2.26,2.26,0,0,1,2.3-2.3h28.2a2.26,2.26,0,0,1,2.3,2.3V438A2.33,2.33,0,0,1,1548.7,440.3Z"/><path class="cls-2" d="M178.9,1080s154-120,174.4-139.3,34-39.6,28.3-72.5-69.1-191.4-36.2-249.1S428,464,446.1,462.9s7.9,0,7.9,0V783.3s0,26,26,26h81.5s26,48.7-22.6,150.6l-57.7,120H178.9Z"/><path class="cls-6" d="M380.5,862.9S369.2,756.2,436,691.7a633.9,633.9,0,0,0,0-72.5c-2.3-39.6-22.6-138.7,45.3-139,0,0,41.9-3.7,39.6,118.6,0,0,.2,112.1.1,115.5,13.5,23.8,66.9,116.4,40.8,184.6,0,0-38.6,109.8-80.5,181.1H178.9L380.5,862.9Z"/><path class="cls-3" d="M500.1,549.3H444.8V502.1a8.07,8.07,0,0,1,8.1-8.1H492a8.07,8.07,0,0,1,8.1,8.1v47.2Z"/><path class="cls-6" d="M1649,862.9s11.3-106.7-55.5-171.2a633.9,633.9,0,0,1,0-72.5c2.3-39.6,22.6-138.7-45.3-139,0,0-41.9-3.7-39.6,118.6,0,0-.2,112.1-.1,115.5-13.5,23.8-66.9,116.4-40.8,184.6,0,0,38.6,109.8,80.5,181.1h302.3Z"/><path class="cls-3" d="M1529.3,549.3h55.3V502.1a8.07,8.07,0,0,0-8.1-8.1h-39.1a8.07,8.07,0,0,0-8.1,8.1v47.2Z"/><circle class="cls-7" cx="500.1" cy="432.2" r="11.1"/><rect class="cls-8" x="1405.7" y="77.6" width="88.1" height="672.8"/><circle class="cls-9" cx="1445.9" cy="431.5" r="37.4"/><circle class="cls-10" cx="1445.9" cy="431.5" r="17.3"/><path class="cls-11" d="M998.13,636.21l30.74-19V175.11l-30.74,18.95Z"/><path class="cls-12" d="M1000.31,194.06h82.33V636.21h-82.33Z"/><path class="cls-13" d="M1082.67,636.4,1093,616.93h241.63l-10.36,19.47Z"/><path class="cls-14" d="M1082.85,636.21l30.74-19V175.11l-30.74,18.95Z"/><path class="cls-3" d="M1006.3,194.06l24.86-16.33h78l-26,16.33Z"/><path class="cls-15" d="M1046.83,177.69l-10.4,6.91h1.32l10.4-6.91Zm6.24,0-6,3.95h1.32l6.05-3.95Zm29.31,0-3,2h1.33l3-2Zm10.4,0-11,7.31h1.33l11-7.31Z"/><path class="cls-16" d="M1098.9,636.21l30.75-19V175.11l-30.75,18.95Z"/><path class="cls-17" d="M1101.08,194.06h82.34V636.21h-82.34Z"/><path class="cls-18" d="M1183.62,636.21l30.75-19V175.11l-30.75,18.95Z"/><path class="cls-3" d="M1107.07,194.06l24.86-16.33h78l-26,16.33Z"/><path class="cls-15" d="M1147.6,177.69l-10.4,6.91h1.32l10.41-6.91Zm6.24,0-6,3.95h1.33l6.05-3.95Zm29.31,0-3,2h1.32l3-2Zm10.4,0-11,7.31h1.32l11-7.31Z"/><path class="cls-19" d="M1324.81,639.9,1340,615.52,1220.68,191.26l-15.14,24.39Z"/><path class="cls-20" d="M1207,215.21l54.23-16.61,119.26,424.26-54.23,16.6Z"/><path class="cls-3" d="M1210.92,214l12-20.69,51.4-15.74-12.74,20.92Z"/><path class="cls-15" d="M1233.2,190.12l-5,8.72.87-.26,5-8.73Zm4.11-1.26-2.92,5,.87-.27,2.93-5Zm19.31-5.92-1.46,2.51.87-.27,1.46-2.5Zm6.85-2.09-5.25,9.22.87-.27,5.25-9.22Z"/><path class="cls-21" d="M1379.74,623.74l15.14-24.39L1275.61,175.1l-15.13,24.38Z"/><path class="cls-22" d="M997.25,637.6l-18.16-32.09H555.5l18.15,32.09Z"/><path class="cls-23" d="M573.65,635.32V549.38h423.6v85.94Z"/><path class="cls-24" d="M997.25,549.17l-18.16-32.09H555.5l18.15,32.09Z"/><path class="cls-3" d="M573.65,629.07l-15.64-26V521.67l15.64,27.17Z"/><path class="cls-15" d="M558,586.77l6.62,10.85v-1.38L558,585.38Zm0-6.52,3.78,6.32v-1.38L558,578.87Zm0-30.59,1.89,3.15v-1.38L558,548.27Zm0-10.86,7,11.45v-1.38l-7-11.45Z"/><path class="cls-25" d="M997.25,544.74l-18.16-32.09H555.5l18.15,32.09Z"/><path class="cls-26" d="M573.65,542.46V437.72h423.6V542.46Z"/><path class="cls-3" d="M573.65,536.21,558,504.5V404.94l15.64,33.21Z"/><path class="cls-27" d="M997.25,437.74l-18.16-32.09H555.5l18.15,32.09Z"/><path class="cls-15" d="M558,493.91l6.62,10.85v-1.38L558,492.53Zm0-6.52,3.78,6.32v-1.38L558,486Zm0-30.59,1.89,3.16v-1.39L558,455.42Zm0-10.86,7,11.45V456l-7-11.45Z"/></g></g></svg>