<svg xmlns="http://www.w3.org/2000/svg" xmlns:xlink="http://www.w3.org/1999/xlink" viewBox="0 0 140 130"><defs><style>.cls-1{isolation:isolate;}.cls-2{fill:#d2cbbe;}.cls-3{fill:url(#linear-gradient);}.cls-4{fill:#26598a;}.cls-110,.cls-27,.cls-4{opacity:0.25;}.cls-100,.cls-104,.cls-106,.cls-109,.cls-11,.cls-110,.cls-114,.cls-116,.cls-119,.cls-13,.cls-16,.cls-18,.cls-21,.cls-25,.cls-29,.cls-30,.cls-37,.cls-38,.cls-4,.cls-44,.cls-47,.cls-50,.cls-51,.cls-53,.cls-55,.cls-59,.cls-6,.cls-62,.cls-65,.cls-67,.cls-69,.cls-70,.cls-71,.cls-76,.cls-79,.cls-8,.cls-85,.cls-86,.cls-92,.cls-96{mix-blend-mode:multiply;}.cls-5,.cls-81{fill:#fff;}.cls-30,.cls-31,.cls-32,.cls-5,.cls-54,.cls-69,.cls-70,.cls-85{opacity:0.32;}.cls-107,.cls-120,.cls-27,.cls-28,.cls-31,.cls-5,.cls-64,.cls-81{mix-blend-mode:overlay;}.cls-6{fill:#d4cec2;}.cls-7,.cls-8{fill:#f9f6ef;}.cls-106,.cls-109,.cls-110,.cls-9{fill:#94ca00;}.cls-10,.cls-11{fill:#6ea001;}.cls-106,.cls-11,.cls-21,.cls-25,.cls-47,.cls-67,.cls-76{opacity:0.35;}.cls-12{fill:#bcde01;}.cls-13{fill:#abc201;}.cls-107,.cls-13,.cls-65,.cls-90,.cls-92,.cls-98{opacity:0.65;}.cls-14{fill:#c6eeea;}.cls-15{fill:#c7eeeb;}.cls-16,.cls-29,.cls-61{opacity:0.75;}.cls-16{fill:url(#linear-gradient-2);}.cls-17{fill:#a1e2dd;}.cls-18{fill:#b4d9e4;}.cls-103,.cls-109,.cls-18,.cls-28,.cls-53,.cls-59,.cls-71,.cls-81,.cls-86,.cls-95{opacity:0.55;}.cls-19{fill:#e9f8f7;}.cls-20,.cls-21{fill:#cd7e3f;}.cls-22{fill:#c36419;}.cls-23{fill:url(#radial-gradient);}.cls-24,.cls-25{fill:#d98638;}.cls-26{fill:#a94900;}.cls-27{fill:url(#linear-gradient-3);}.cls-28{fill:url(#linear-gradient-4);}.cls-29{fill:url(#linear-gradient-5);}.cls-30{fill:#b4e8e4;}.cls-31{fill:url(#linear-gradient-6);}.cls-103,.cls-32,.cls-54,.cls-61,.cls-90,.cls-95,.cls-98{mix-blend-mode:screen;}.cls-33{fill:#d6f2f0;}.cls-34{fill:#fbfbef;}.cls-35{fill:#8fb9c2;}.cls-36{fill:url(#linear-gradient-7);}.cls-37{fill:#ba7403;opacity:0.27;}.cls-38,.cls-39{fill:#cd8803;}.cls-120,.cls-38,.cls-55,.cls-56{opacity:0.5;}.cls-40{fill:#b77200;}.cls-41{fill:#7aa600;}.cls-42{fill:#60a400;}.cls-43{fill:#7abf00;}.cls-44{fill:#a6cc71;}.cls-45,.cls-47{fill:#d39621;}.cls-46{fill:#dcaa4c;}.cls-48{fill:#ddb27b;}.cls-49{fill:#d8bb81;}.cls-50{fill:#ead9b1;}.cls-51{fill:#e1d2b1;}.cls-52,.cls-53,.cls-55{fill:#df3c01;}.cls-54{fill:#ea8d57;}.cls-57{fill:#ebe2c7;}.cls-58,.cls-59,.cls-61{fill:#8a9a93;}.cls-60,.cls-62,.cls-95,.cls-96{fill:#abb6b1;}.cls-62{opacity:0.33;}.cls-63{fill:url(#linear-gradient-8);}.cls-64{fill:#eaeceb;opacity:0.42;}.cls-65{fill:url(#linear-gradient-9);}.cls-66,.cls-67{fill:#627976;}.cls-68{fill:url(#linear-gradient-10);}.cls-69{fill:url(#linear-gradient-11);}.cls-70{fill:url(#linear-gradient-12);}.cls-71{fill:#95a39d;}.cls-72{fill:#8b9a93;}.cls-73{fill:#4b5d5b;}.cls-74{fill:#384c4a;}.cls-75{fill:#596a68;}.cls-76{fill:#0f2724;}.cls-77{fill:#a5aead;}.cls-78{fill:#b8bfbe;}.cls-79{fill:#869190;opacity:0.23;}.cls-80{fill:url(#linear-gradient-13);}.cls-82{fill:#0d1917;}.cls-83{fill:#323c3a;}.cls-84,.cls-85,.cls-86{fill:#6c7372;}.cls-87{fill:#2f3a38;}.cls-88{fill:#616a68;}.cls-89,.cls-92{fill:#75817c;}.cls-90{fill:#8a9490;}.cls-91{fill:#53625c;}.cls-93{fill:#85958e;}.cls-94{fill:#cbd2cf;}.cls-97,.cls-98{fill:#4c5553;}.cls-99{fill:#959e9a;}.cls-100,.cls-105{fill:#c6d1d0;}.cls-101{fill:#b4c2c1;}.cls-102{fill:#d2dbda;}.cls-103{fill:#eef1f1;}.cls-108{fill:#d1e2d5;}.cls-111{fill:#71af00;}.cls-112{fill:#599500;}.cls-113{fill:#faf3e9;}.cls-114{fill:#e2e2c9;}.cls-115,.cls-116{fill:#a4a4a4;}.cls-117{fill:#7cc4e6;}.cls-118{fill:#299ace;}.cls-119{fill:#d1d1d1;}.cls-120{fill:url(#radial-gradient-2);}</style><linearGradient id="linear-gradient" x1="71.02" y1="76.2" x2="71.74" y2="-20.9" gradientUnits="userSpaceOnUse"><stop offset="0.05" stop-color="#98d2ef"/><stop offset="1" stop-color="#336d9d"/></linearGradient><linearGradient id="linear-gradient-2" x1="108.23" y1="92.79" x2="123.45" y2="92.79" gradientUnits="userSpaceOnUse"><stop offset="0" stop-color="#98d2ef"/><stop offset="1" stop-color="#fff"/></linearGradient><radialGradient id="radial-gradient" cx="96.64" cy="67.63" r="6.6" gradientTransform="translate(-1.58 -1.2) scale(1.02 1.02)" gradientUnits="userSpaceOnUse"><stop offset="0" stop-color="#b94405"/><stop offset="1" stop-color="#833100"/></radialGradient><linearGradient id="linear-gradient-3" x1="89.52" y1="65.91" x2="104.68" y2="65.91" xlink:href="#linear-gradient-2"/><linearGradient id="linear-gradient-4" x1="77.8" y1="95.24" x2="117.56" y2="34.47" xlink:href="#linear-gradient-2"/><linearGradient id="linear-gradient-5" x1="78.89" y1="96.15" x2="117.06" y2="37.82" xlink:href="#linear-gradient-2"/><linearGradient id="linear-gradient-6" x1="76.05" y1="94.67" x2="111.15" y2="41.02" xlink:href="#linear-gradient-2"/><linearGradient id="linear-gradient-7" x1="52.24" y1="67.9" x2="31.9" y2="101.21" gradientUnits="userSpaceOnUse"><stop offset="0" stop-color="#cd8803"/><stop offset="0.93" stop-color="#a66400"/></linearGradient><linearGradient id="linear-gradient-8" x1="83.68" y1="104.23" x2="46.95" y2="93.81" gradientUnits="userSpaceOnUse"><stop offset="0" stop-color="#d6dcd9"/><stop offset="1" stop-color="#a4b0aa"/></linearGradient><linearGradient id="linear-gradient-9" x1="84.13" y1="107.44" x2="43.17" y2="95.82" xlink:href="#linear-gradient-8"/><linearGradient id="linear-gradient-10" x1="73.63" y1="53.43" x2="77.17" y2="101.14" gradientUnits="userSpaceOnUse"><stop offset="0.07" stop-color="#abb6b1"/><stop offset="1" stop-color="#95a39d"/></linearGradient><linearGradient id="linear-gradient-11" x1="76.2" y1="53.24" x2="79.75" y2="100.95" xlink:href="#linear-gradient-10"/><linearGradient id="linear-gradient-12" x1="77.14" y1="51.94" x2="80.83" y2="101.64" xlink:href="#linear-gradient-10"/><linearGradient id="linear-gradient-13" x1="75.98" y1="87.02" x2="47.14" y2="77.62" xlink:href="#linear-gradient-8"/><radialGradient id="radial-gradient-2" cx="70" cy="65" r="66.18" gradientTransform="translate(-1.58 -1.2) scale(1.02 1.02)" gradientUnits="userSpaceOnUse"><stop offset="0" stop-color="#deb165"/><stop offset="1" stop-color="#713f20"/></radialGradient></defs><g class="cls-1"><g id="Layer_2" data-name="Layer 2"><g id="Layer_2-2" data-name="Layer 2"><path class="cls-2" d="M0,101.1s30-15,71.94-15c35.78,0,57,9.42,68.06,15.54,0,0-29.23,25.92-70.92,23.21C33.15,122.51,8.74,108.29,0,101.1Z"/><path class="cls-3" d="M66.86,95S-6.56,90,10.29,38s99.85-46.6,118.2-7.67c11.2,23.74,6.23,44.32-8.59,56.33C109.34,95.17,94,95.8,66.86,95Z"/><path class="cls-4" d="M21.77,48.23c.28,0,.56,0,.84,0a1.24,1.24,0,0,0,.06.46c.6,1.73,4.33,21.85,9.67,38.05A18,18,0,0,0,32,95.08c1.13.42,2.25.9,3.35,1.41l1.34.15c25,2.29,50,1.84,75.05,1.46a18.39,18.39,0,0,0,1.2-6.49c0-2.51,2-5,1-7.35l11.19-31.95a7.18,7.18,0,0,0,.79.38c.58.22,2.3,1,2.89.51,2.1-1.61-3-4.85-4-5.37s-6-2.82-5.87-.34a2,2,0,0,0,.87,1.45l-14,27.49a34.87,34.87,0,0,0-6.16-4.68l5.69-39.51c1.32,0,2.58-.23,2.81-1.32.55-2.54-5.41-2.83-6.77-2.87s-5.87.47-4,2.71A5.13,5.13,0,0,0,100.32,32L93.61,68.72A52.77,52.77,0,0,0,85,66.07l1.28-36.25c1.13-.13,2.06-.52,2.32-1.47.3-1.13-1.65-2.1-2.51-2.4a18.41,18.41,0,0,0-6.23-.75c-1.53.06-3.19.2-4.26,1.36-.77.82-1,1.55.1,2.15a5.58,5.58,0,0,0,2.25.56l.89,39.44c-.9,0-5.59-4-6.5-4-2,0-4,.1-5.9.28L62.72,32c1.16-.26,2.2-.68,2.41-1.6.53-2.31-5.24-1.85-6.32-1.65S53,30,54,32c.33.68,1.78.73,3.11.64L59.86,66c-1.52.32-3,.7-4.42,1.13L48,28.52a5,5,0,0,0,2.63-1.8,1.79,1.79,0,0,0-.47-2.52c-1.08-1-2.19-1-3.61-1a21,21,0,0,0-9.91,2.52c-1.9,1.08-3.8,3.74-.67,4.58a8.68,8.68,0,0,0,2.81.24l6.57,41a33.89,33.89,0,0,0-7.19,5.55L30.77,45.39a2.11,2.11,0,0,0,.84-1.75c-.3-2-3.78-1.54-5.15-1.28a14.45,14.45,0,0,0-6.22,2.7C18.35,46.72,19.57,48.16,21.77,48.23Z"/><path class="cls-5" d="M92.12,7.91a1.77,1.77,0,0,1-3.52,0,1.77,1.77,0,0,1,3.52,0Z"/><path class="cls-5" d="M101.6,19a1.48,1.48,0,1,1-1.48-1.47A1.47,1.47,0,0,1,101.6,19Z"/><path class="cls-5" d="M112.34,26.34a1.22,1.22,0,1,1-1.22-1.17A1.2,1.2,0,0,1,112.34,26.34Z"/><path class="cls-5" d="M79.48,18.74a1.31,1.31,0,1,1-1.31-1.21A1.27,1.27,0,0,1,79.48,18.74Z"/><ellipse class="cls-5" cx="126.11" cy="40.59" rx="1.04" ry="1.03"/><path class="cls-5" d="M50.32,13a1.18,1.18,0,1,1-1.17-1.14A1.15,1.15,0,0,1,50.32,13Z"/><path class="cls-5" d="M25.47,26a1.37,1.37,0,1,1-1.36-1.2A1.29,1.29,0,0,1,25.47,26Z"/><path class="cls-5" d="M132.57,58.86a1.37,1.37,0,1,1-1.36-1.19A1.28,1.28,0,0,1,132.57,58.86Z"/><path class="cls-5" d="M31.72,33.65a.9.9,0,1,1-.9-.84A.87.87,0,0,1,31.72,33.65Z"/><ellipse class="cls-5" cx="14.61" cy="50.21" rx="0.9" ry="0.84"/><path class="cls-5" d="M124.25,66.55a.9.9,0,1,1-.9-.84A.87.87,0,0,1,124.25,66.55Z"/><path class="cls-5" d="M16.56,58.52a1.9,1.9,0,0,1-2,1.8,1.8,1.8,0,1,1,0-3.59A1.9,1.9,0,0,1,16.56,58.52Z"/><path class="cls-6" d="M67.77,116.6s21.71,7.76,29.5,13.4c0,0,21-15.38,33.18-19.59,0,0-17.45-9-26.12-11.84C104.33,98.57,77.28,109.65,67.77,116.6Z"/><path class="cls-7" d="M69.1,115.35S89.77,123,97.55,128.64c0,0,21.26-15,33.42-19.27,0,0-17.45-9-26.13-11.83C104.84,97.54,78.61,108.39,69.1,115.35Z"/><path class="cls-8" d="M95.68,101.42a52.5,52.5,0,0,1,10.93,1c4.17,1,8.56,2.77,11.74,5.73A17.51,17.51,0,0,1,122,113a65.39,65.39,0,0,1,8.09-3.6s-17.45-9-26.13-11.83c0,0-3.78,1.57-9,3.88Z"/><path class="cls-8" d="M87,115.46A31,31,0,0,1,89.23,109c-1.5-.76-3-1.57-4.37-2.45a110.37,110.37,0,0,0-15.12,8.51s9.44,3.5,18,7.51A12.38,12.38,0,0,1,87,115.46Z"/><path class="cls-8" d="M106.92,121.77c3-1.92,6.39-4,9.85-6l-1-.15c-4.29-.73-6.44.09-10.65-1-2.84-.72-7.69-3.36-10.56-4-.14,3,0,5.66,10,6.62C106.17,117.42,106.07,120.43,106.92,121.77Z"/><path class="cls-6" d="M124,103.3l0,0,.09-.18h0a1.42,1.42,0,0,0,.08-.18v0h0a1.42,1.42,0,0,0,0-.16h0a1.77,1.77,0,0,0,.07-.68h0s0-.92,0-.92c-6.5,3.57-12.37-2.22-18-3.4-.35-.07-.72-.13-1.11-.19-.58-.08-1.21-.14-1.86-.18l-.67,0c-.66,0-1.36,0-2.06,0s-1.42.08-2.13.17a22.75,22.75,0,0,0-4.16.87,15.68,15.68,0,0,0-2.48,1,7.94,7.94,0,0,0-4.05,4.36h0q-.09.27-.15.51a.31.31,0,0,0,0,.08c0,.16-.07.31-.1.45s0,.06,0,.09,0,.28,0,.42v.08a2.41,2.41,0,0,0,0,.38v.06c0,.11,0,.22,0,.33a.19.19,0,0,1,0,.08,2.81,2.81,0,0,0,.08.31l0,.1c0,.09.06.18.1.27l0,.1a2.12,2.12,0,0,0,.11.21l.07.12.12.17c1,1.27,2.85,1.75,4.33,1.92A18.72,18.72,0,0,0,89.86,111c-.18,1.15,1.34.89,1.34.89s1.2-.81,3.07-1.87c-.2,2,2,3,4.7,3.22a20.5,20.5,0,0,0,5.67-.42,16.05,16.05,0,0,0,4.4-1.63l.56-.32c3-1.87,5.21-5,9.76-5.49l.61-.08.16,0,.49-.08.07,0c.17,0,.34-.08.49-.12l.13,0,.36-.12.09,0,.12,0h0l.27-.11.09,0,.28-.13.08,0a2.91,2.91,0,0,0,.3-.17l.06,0,.21-.15.06,0,.22-.19,0,0a1.29,1.29,0,0,0,.16-.17l0,0A2.7,2.7,0,0,0,124,103.3Z"/><path class="cls-9" d="M32.56,88.84S13,93.07,11,85.84s-2.16-8.18-3.29-8.9c0,0,3.15,1.4,8.43-.92S35.49,80.06,32.56,88.84Z"/><path class="cls-10" d="M31.7,87s-12.18,1.9-18.9-6.33c0,0,3.57,5.51,18.88,5.89Z"/><path class="cls-11" d="M28.38,78.91C24.47,76.06,19,74.76,16.17,76a16.3,16.3,0,0,1-2.46.87c.21,1.83,1.48,6.81,3.11,9.25,2.77,4.17,9.87,2,12.51,2l1.24,1,1.56-.29-1.72-1.42C31.2,84.71,29.83,81.45,28.38,78.91Z"/><path class="cls-12" d="M32.84,86s-11,.12-14.33-4.9S17.39,72.39,14.61,70a28.45,28.45,0,0,0,7,.72c4-.06,6.69,1.65,8,3.73C31.42,77.21,34.47,82.18,32.84,86Z"/><path class="cls-13" d="M22.43,81.12c3.3.54,7.14.15,9.85-1.88.94,2.23,1.45,4.68.56,6.8,0,0-11,.12-14.33-4.9a12.58,12.58,0,0,1-1.27-2.46A11.35,11.35,0,0,0,22.43,81.12Z"/><path class="cls-10" d="M34.41,88s-9.9-8-15.34-14.2L35.2,87.11Z"/><path class="cls-6" d="M130.79,100.25c-4.12,3.76-18.57-1.67-21.83-3h0L108.3,97a3.64,3.64,0,0,1,.3-1.28l-.37-.58.83-.22a6.87,6.87,0,0,1,2.29-1.87A7.88,7.88,0,0,1,113.14,91a117.67,117.67,0,0,1,20,7.12Z"/><path class="cls-9" d="M108,90.88s17.84,11.35,22.48,4.9,5.17-7.34,6.56-7.63c0,0-3.65.23-8-4S108.35,81.08,108,90.88Z"/><path class="cls-10" d="M109.57,89.33S121,95.67,130.68,90c0,0-5.59,4.16-20.93-1.07Z"/><path class="cls-11" d="M115.83,82.54c4.94-1.4,10.82-.7,13.2,1.6a17.58,17.58,0,0,0,2.12,1.77c-.89,1.73-3.49,5.63-6.3,7-4.93,2.32-10.72-.58-13.38-1.46l-1.61.58-1.45-.86,2.23-.78C110.9,87.27,113.46,84.54,115.83,82.54Z"/><path class="cls-12" d="M110.68,87.72s11,3.63,16-.37,3.95-8.47,7.52-10A29.74,29.74,0,0,1,127,75.85c-4-1.32-7.29-.46-9.33,1.21C115,79.26,110.28,83.31,110.68,87.72Z"/><path class="cls-13" d="M117.63,77.06a7.89,7.89,0,0,1,2.76-1.45,18.78,18.78,0,0,0-.11,2.6c.1,2.21,1.15,4.6,3.57,5.12a11.13,11.13,0,0,0,5.7,0c.23-.08.45-.18.67-.28a13.13,13.13,0,0,1-3.5,4.28c-5,4-16,.37-16,.37C110.28,83.31,115,79.26,117.63,77.06Z"/><path class="cls-10" d="M108.45,89.23s12.56-4.88,20.06-9.44L108,88.05Z"/><path class="cls-9" d="M51.49,97.76s2.92-13.69,10.13-16.43,11.27,1,15-1.75a36,36,0,0,0-2.85,8.49c-1,5-3.94,7.85-6.92,9C62.94,98.46,55.86,100.86,51.49,97.76Z"/><path class="cls-10" d="M48.55,99.16S61.3,89.08,70.62,84.06L49.49,100.39Z"/><polygon class="cls-14" points="86.19 34.49 75.48 38.87 113.15 40.59 122.54 35.75 86.19 34.49"/><polygon class="cls-15" points="108.23 102.16 113.15 40.59 122.54 35.75 116.56 95.93 108.23 102.16"/><path class="cls-16" d="M109,92.68l-.72,9.48,8.33-6.23,1.24-12.5C116.58,87.54,114.78,91.24,109,92.68Z"/><polygon class="cls-17" points="79.48 101.2 108.23 102.16 113.15 40.59 75.48 38.87 79.48 101.2"/><polygon class="cls-18" points="79.48 101.2 108.23 102.16 116.48 95.92 88.33 94.58 79.48 101.2"/><polygon class="cls-19" points="82.7 63.56 111.32 63.56 111.36 63.05 82.7 63.05 82.7 63.56"/><polygon class="cls-19" points="110.54 73.25 82.7 73.25 82.7 73.77 110.5 73.77 110.54 73.25"/><path class="cls-19" d="M116.29,60.5l-4.77.37,0,.51,4.73-.36C116.23,60.84,116.26,60.67,116.29,60.5Z"/><path class="cls-19" d="M115.25,70.71l-4.55.37,0,.51,4.53-.37C115.2,71.05,115.22,70.88,115.25,70.71Z"/><path class="cls-20" d="M97.92,61.92c.14-1.3,1.4-2.84.86-4.18s-2.62-1.36-3.79-.86c-1.7.72-1.37,2.43-1.45,4s-1.05,2.34-1.8,3.6L98,62.78A2.24,2.24,0,0,1,97.92,61.92Z"/><path class="cls-21" d="M97.92,61.92a4.68,4.68,0,0,1,.31-1.13c-.81-.09-1.94.5-2.68.21s-1.26-1.58-1.94-2.14c-.07.63,0,1.33-.07,2-.07,1.5-1.05,2.34-1.8,3.6L98,62.78A2.24,2.24,0,0,1,97.92,61.92Z"/><path class="cls-22" d="M94.37,72c-.63,0-1.77-.21-2.27.18-.08.77.13,1.58.09,2.38s-.19,1.45-.27,2.2-.21,1.64.72,1.8,1.91-.67,2.54-1.18A5.57,5.57,0,0,0,97,75c.23-.63.6-1.71.19-2.28S95.1,72.07,94.37,72Z"/><path class="cls-23" d="M101.16,64.53c-.81-1.69-3.8-2.26-5.42-2.16a6.43,6.43,0,0,0-5.13,3.24c-1,1.67-1.56,4.07-.54,5.87A7.13,7.13,0,0,0,94.61,75c2.37.54,5.24.53,7.26-1a5.06,5.06,0,0,0,1.87-6.14,6.65,6.65,0,0,0-1.33-2.23C102.05,65.27,101.4,65,101.16,64.53Z"/><path class="cls-24" d="M101.64,71.36c2-.48,3.54-2.36,2.57-4.37a4.28,4.28,0,0,0-5.34-2.09c-2.06.76-3.91,3.44-2.48,5.5,1.2,1.72,3.82,1.4,5.49.9h.06Z"/><path class="cls-25" d="M102.16,71.2c-1.2-.46-3.15-.9-4-1.82s-.58-2.21-.93-3.4c-1.21,1.18-1.85,3-.83,4.42,1.15,1.66,3.63,1.42,5.3.95h0A3.13,3.13,0,0,0,102.16,71.2Z"/><path class="cls-24" d="M96.76,57.76c.28.16.56.33.83.51A20.4,20.4,0,0,1,99.05,56c.44-.52,1.4-1.92,2.21-1.88.35,0,.63.77,1,.37s-.21-.8-.54-.84c-.82-.12-1.84.83-2.41,1.32A12.78,12.78,0,0,0,96.76,57.76Z"/><path class="cls-24" d="M94.48,58.24c.92-.61.39-1.37,0-2.22a7.24,7.24,0,0,0-1.41-2.17c-.43-.41-2.29-1.26-2.19,0,.07.76.63.35,1,.17s.58-.36,1,.08C93.76,55,94.24,57,94.48,58.24Z"/><path class="cls-26" d="M99.32,71.88A4.33,4.33,0,0,1,97,71.32a2.87,2.87,0,0,1-1.1-3,4.82,4.82,0,0,1,5-3.95,3.94,3.94,0,0,1,3.86,4.15c0,.67-.39,2.28-3,2.86a3.49,3.49,0,0,1-1.1.37A8.52,8.52,0,0,1,99.32,71.88Zm1.13-7.14a4.48,4.48,0,0,0-4.23,3.66,2.51,2.51,0,0,0,1,2.62,5.23,5.23,0,0,0,3.37.4,3.16,3.16,0,0,0,2.29-1.64,2.55,2.55,0,0,0,0-2.6,1.92,1.92,0,0,0-2-.49,2.24,2.24,0,0,0-1.64,1.36.88.88,0,0,0,.38.91,2,2,0,0,0,1.61.32,1,1,0,0,0,.72-.56.5.5,0,0,0,0-.56.54.54,0,0,0-.57-.09.62.62,0,0,0-.39.6.17.17,0,0,1-.18.17.18.18,0,0,1-.18-.18,1,1,0,0,1,.61-.92.89.89,0,0,1,1,.17.84.84,0,0,1,.11.94,1.33,1.33,0,0,1-1,.78,2.39,2.39,0,0,1-1.93-.39,1.21,1.21,0,0,1-.5-1.27,2.5,2.5,0,0,1,1.9-1.62,2.25,2.25,0,0,1,2.33.59,2.86,2.86,0,0,1,.06,3,3.8,3.8,0,0,1-.61.82,2.49,2.49,0,0,0,1.77-2.23,3.59,3.59,0,0,0-3.53-3.79Z"/><path class="cls-27" d="M101.1,64.44a4.64,4.64,0,0,0-3.18-1.88,3.42,3.42,0,0,1,0-.64c0-.09,0-.17,0-.26a.24.24,0,0,0,0-.08c0-.06,0-.13,0-.2a.19.19,0,0,0,0-.07c0-.07,0-.14.07-.21l0-.06.09-.25c.39-1,.94-2.08.55-3a1.65,1.65,0,0,0-.47-.65A8.1,8.1,0,0,1,99.05,56c.44-.52,1.4-1.92,2.21-1.88.35,0,.63.77,1,.37s-.21-.8-.54-.84c-.82-.12-1.84.83-2.41,1.32a20.09,20.09,0,0,0-1.79,1.7,3.94,3.94,0,0,0-2.57.18l-.1,0c-.11-.29-.28-.6-.43-.91a7.24,7.24,0,0,0-1.41-2.17c-.43-.41-2.29-1.26-2.19,0,.07.76.63.35,1,.17s.58-.36,1,.08a7.22,7.22,0,0,1,1.44,3.22,2.83,2.83,0,0,0-.71,2h0c0,.16,0,.33,0,.49h0v.54c0,.16,0,.31,0,.46a5.53,5.53,0,0,1-1.38,3,7,7,0,0,0-1.55,1.81c-1,1.67-1.56,4.07-.54,5.87a7.48,7.48,0,0,0,2.1,2.4,5.77,5.77,0,0,1,0,.72c0,.75-.19,1.45-.27,2.2s-.21,1.64.72,1.8,1.91-.67,2.54-1.18a5.63,5.63,0,0,0,1.66-2.09,7.75,7.75,0,0,0,5-1.29,5.14,5.14,0,0,0,2.24-4,2.67,2.67,0,0,0,.57-1.51A3.89,3.89,0,0,0,101.1,64.44Z"/><path class="cls-28" d="M86.19,34.49,75.48,38.87l4,62.33,28.75,1,8.33-6.23,6-60.18Zm0,.87,33,1.12-6.51,3.42-34-1.56Zm20.68,65.35-26.3-.87L77.06,40.52l34.47,1.57Zm8.79-5.86-6.57,5.21,4.94-58.17L121.67,38Z"/><path class="cls-29" d="M100.89,92C85,82.63,86.11,60.5,76.16,49.49l3.32,51.71,28.75,1,.71-8.88A11.59,11.59,0,0,1,100.89,92Z"/><polygon class="cls-30" points="116.58 95.68 88.41 94.41 86.44 34.5 86.19 34.49 86.01 34.56 88.05 94.5 79.47 100.98 79.48 101.2 79.77 101.21 88.3 94.77 116.31 96.09 116.56 95.93 116.58 95.68"/><polygon class="cls-31" points="79.48 101.2 108.23 102.16 113.15 40.59 75.48 38.87 79.48 101.2"/><g class="cls-32"><circle class="cls-33" cx="84.18" cy="45.31" r="0.15"/><circle class="cls-33" cx="101.34" cy="51.54" r="0.04"/><circle class="cls-33" cx="91.41" cy="59.66" r="0.14"/><circle class="cls-33" cx="102.39" cy="72.91" r="0.25"/><path class="cls-33" d="M86.34,84.1a.11.11,0,0,1-.11.11.11.11,0,0,1-.12-.11.12.12,0,0,1,.12-.12A.11.11,0,0,1,86.34,84.1Z"/><path class="cls-33" d="M92.93,69.07a.27.27,0,0,1-.28.28.28.28,0,1,1,0-.55A.27.27,0,0,1,92.93,69.07Z"/><path class="cls-33" d="M80.43,68.88a.13.13,0,0,1-.13.14.14.14,0,0,1-.14-.14.13.13,0,0,1,.14-.13A.13.13,0,0,1,80.43,68.88Z"/><path class="cls-33" d="M102,65.64a.27.27,0,1,1-.27-.27A.27.27,0,0,1,102,65.64Z"/><circle class="cls-33" cx="84.97" cy="55.14" r="0.61"/><path class="cls-33" d="M97,67a.2.2,0,1,1-.19-.19A.2.2,0,0,1,97,67Z"/><circle class="cls-33" cx="91.48" cy="51.41" r="0.32"/><path class="cls-33" d="M92.06,77.57a.2.2,0,1,1-.2-.2A.2.2,0,0,1,92.06,77.57Z"/><circle class="cls-33" cx="96.98" cy="86.04" r="0.55"/><circle class="cls-33" cx="97.87" cy="95.42" r="0.32"/><path class="cls-33" d="M82.34,91.61a.08.08,0,0,1-.08.07.07.07,0,0,1,0-.14A.08.08,0,0,1,82.34,91.61Z"/><path class="cls-33" d="M105.17,83.1a.33.33,0,1,1-.33-.33A.33.33,0,0,1,105.17,83.1Z"/><path class="cls-33" d="M87.85,75.88a.42.42,0,0,1-.84,0,.42.42,0,1,1,.84,0Z"/><path class="cls-33" d="M83.89,69.07a.37.37,0,0,1-.37.37.37.37,0,0,1,0-.73A.37.37,0,0,1,83.89,69.07Z"/><path class="cls-33" d="M110.31,60.72a.11.11,0,1,1-.22,0,.11.11,0,1,1,.22,0Z"/><circle class="cls-33" cx="107.47" cy="46.32" r="0.21"/><circle class="cls-33" cx="93.69" cy="46.84" r="0.32"/><path class="cls-33" d="M103.18,59.39a.58.58,0,1,1-.58-.58A.58.58,0,0,1,103.18,59.39Z"/><circle class="cls-33" cx="97.04" cy="57.44" r="0.33"/><path class="cls-33" d="M97.1,50.73a.13.13,0,1,1-.26,0,.13.13,0,1,1,.26,0Z"/><path class="cls-33" d="M101,49a.21.21,0,0,1-.21.21.21.21,0,0,1-.22-.21.22.22,0,0,1,.22-.22A.21.21,0,0,1,101,49Z"/><path class="cls-33" d="M108.16,52.89a.13.13,0,0,1-.26,0,.13.13,0,1,1,.26,0Z"/><circle class="cls-33" cx="103.45" cy="54.17" r="0.35"/><path class="cls-33" d="M79.31,47a.31.31,0,1,1-.31-.31A.31.31,0,0,1,79.31,47Z"/><path class="cls-33" d="M83.79,61.57a.47.47,0,1,1-.46-.46A.47.47,0,0,1,83.79,61.57Z"/><path class="cls-33" d="M78.81,58.16a.11.11,0,1,1-.11-.11A.11.11,0,0,1,78.81,58.16Z"/><path class="cls-33" d="M83.51,51.19a.09.09,0,0,1-.1.1.1.1,0,0,1-.1-.1.11.11,0,0,1,.1-.1A.1.1,0,0,1,83.51,51.19Z"/><path class="cls-33" d="M85.11,46.48a.41.41,0,1,1-.41-.41A.4.4,0,0,1,85.11,46.48Z"/><path class="cls-33" d="M91.54,41.13a.17.17,0,0,1-.17.17.17.17,0,0,1,0-.34A.17.17,0,0,1,91.54,41.13Z"/><path class="cls-33" d="M101.54,39.94a.13.13,0,1,1-.26,0,.13.13,0,0,1,.26,0Z"/><path class="cls-33" d="M102.78,42.22a.11.11,0,0,1-.12.11.11.11,0,0,1,0-.22A.11.11,0,0,1,102.78,42.22Z"/><path class="cls-33" d="M106.77,65.47a.39.39,0,0,1-.77,0,.39.39,0,1,1,.77,0Z"/><circle class="cls-33" cx="102.12" cy="81.4" r="0.42"/><circle class="cls-33" cx="92.65" cy="83.68" r="0.18"/><path class="cls-33" d="M102.38,92.44a.45.45,0,0,1-.45.45.45.45,0,1,1,0-.89A.45.45,0,0,1,102.38,92.44Z"/><path class="cls-33" d="M98.94,92.82a.24.24,0,0,1-.48,0,.24.24,0,0,1,.48,0Z"/><path class="cls-33" d="M86.34,91.24a.47.47,0,0,1-.46.46.46.46,0,0,1-.46-.46.45.45,0,0,1,.46-.46A.46.46,0,0,1,86.34,91.24Z"/><path class="cls-33" d="M90.41,91.81a.26.26,0,0,1-.52,0,.26.26,0,0,1,.52,0Z"/><path class="cls-33" d="M107.18,88.84a.07.07,0,0,1-.07.07.07.07,0,0,1-.08-.07.07.07,0,0,1,.08-.08A.07.07,0,0,1,107.18,88.84Z"/><path class="cls-33" d="M106.11,76.39a.37.37,0,0,1-.37.37.38.38,0,1,1,0-.75A.37.37,0,0,1,106.11,76.39Z"/><path class="cls-33" d="M96.88,75.93a.27.27,0,0,1-.27.27.27.27,0,1,1,0-.54A.27.27,0,0,1,96.88,75.93Z"/><circle class="cls-33" cx="81.62" cy="79.56" r="0.06"/><path class="cls-33" d="M79.7,77.74a.14.14,0,0,1-.14.14.15.15,0,0,1-.15-.14.15.15,0,0,1,.15-.15A.15.15,0,0,1,79.7,77.74Z"/><path class="cls-33" d="M113.79,72.73a.11.11,0,0,1-.11.11.11.11,0,0,1-.12-.11.12.12,0,0,1,.12-.12A.11.11,0,0,1,113.79,72.73Z"/><path class="cls-33" d="M95.07,72.08a.29.29,0,0,1-.28.28.28.28,0,0,1-.28-.28.27.27,0,0,1,.28-.28A.28.28,0,0,1,95.07,72.08Z"/></g><path class="cls-34" d="M84,41.64s-1.37,7.32,1.39,8S101.86,51,103.8,50.73s3-1.37,3.67-7.85Z"/><path class="cls-35" d="M90.56,43.94l-.13,0c-.35,0-.72.51-.75,1,0,.2.06.3.18.31A.7.7,0,0,0,90.3,45a1.47,1.47,0,0,0,.34-.86,1,1,0,0,0,0-.19c.06,0,.15.08.14.3a1.27,1.27,0,0,1-.47.89.86.86,0,0,1-.52.18c-.23,0-.35-.17-.34-.47,0-.47.4-1.12.78-1.09a.23.23,0,0,1,.11,0C90.44,43.8,90.56,43.9,90.56,43.94Z"/><path class="cls-35" d="M91.57,44.66a1.75,1.75,0,0,0,.33.64.27.27,0,0,1-.18.11c-.11,0-.19-.22-.29-.75h-.08l0,0a3.42,3.42,0,0,0-.3.73.29.29,0,0,1-.2-.18c0-.06.06-.1.37-.72a2.2,2.2,0,0,0,.18-.43.93.93,0,0,0-.3.14A.41.41,0,0,1,91,44a1.46,1.46,0,0,1,.71-.13c.3,0,.48.16.46.38A.57.57,0,0,1,91.57,44.66Zm-.19-.15c.39,0,.68-.11.69-.32S92,44,91.8,44h-.14l0,0C91.64,44.06,91.5,44.3,91.38,44.51Z"/><path class="cls-35" d="M92.75,44a.61.61,0,0,0-.36.39.19.19,0,0,1-.12-.16.58.58,0,0,1,.64-.36.64.64,0,0,1,.67.66.94.94,0,0,1-.92.9.44.44,0,0,1-.42-.27C92.37,44.92,92.69,44.19,92.75,44Zm.06,0a1,1,0,0,1,.21.13,4,4,0,0,0-.32.55,1.77,1.77,0,0,0-.24.56.42.42,0,0,0,.14,0,.85.85,0,0,0,.82-.84c0-.27-.15-.43-.43-.45Z"/><path class="cls-35" d="M94.18,44a.46.46,0,0,1,.2.13,3.09,3.09,0,0,0-.54,1.34v0c-.11,0-.08-.07-.13-.1s0-.13,0-.17A3.22,3.22,0,0,1,94.18,44Z"/><path class="cls-35" d="M94.2,45.38a4.21,4.21,0,0,1,.6-1.3V44a.78.78,0,0,1,.29.14c0,.06,0,.2,0,.34a2.52,2.52,0,0,0,0,.82,3.51,3.51,0,0,1,.48-1.24.28.28,0,0,1,.16.14c-.25.09-.56,1.08-.58,1.38h0a.34.34,0,0,1-.25-.1,5.75,5.75,0,0,1-.08-1.24,3.22,3.22,0,0,0-.42,1.21s0,.07,0,.09C94.23,45.48,94.19,45.45,94.2,45.38Z"/><path class="cls-35" d="M95.45,45.48a2.23,2.23,0,0,1,.29-.57h-.15s.09-.07.21-.08a2.09,2.09,0,0,1,.72-.69s0,0,0,0,.26.1.26.14a2.53,2.53,0,0,0-.27.85,2.9,2.9,0,0,0,0,.39c0,.06,0,.12,0,.18h0a.34.34,0,0,1-.21-.09v-.1a3,3,0,0,1,.07-.5l-.41,0a1.79,1.79,0,0,0-.18.33,1.3,1.3,0,0,0-.1.36C95.49,45.56,95.45,45.53,95.45,45.48Zm1-1.16a1.49,1.49,0,0,0-.51.49h.37l.09-.31Z"/><path class="cls-35" d="M97.57,45a1.73,1.73,0,0,0,.33.65.25.25,0,0,1-.18.1c-.11,0-.18-.22-.29-.75h-.08s0,0,0,0a3.1,3.1,0,0,0-.31.74.31.31,0,0,1-.19-.18l.36-.72a2.85,2.85,0,0,0,.18-.43.93.93,0,0,0-.3.13.35.35,0,0,1-.1-.2,1.46,1.46,0,0,1,.71-.14c.31,0,.48.16.46.38A.55.55,0,0,1,97.57,45Zm-.18-.14c.38,0,.67-.12.68-.33s-.08-.2-.27-.21h-.14l0,0A4.94,4.94,0,0,0,97.39,44.86Z"/><path class="cls-35" d="M98.68,44.26a.39.39,0,0,1,.2.13,3.09,3.09,0,0,0-.54,1.34s0,0,0,0-.09-.08-.14-.1,0-.13,0-.17A3.31,3.31,0,0,1,98.68,44.26Z"/><path class="cls-35" d="M99.09,45.44c0,.2,0,.29.18.3s.3-.11.42-.31a2.21,2.21,0,0,0,.26-1v-.17a.67.67,0,0,1,.19.06,2.81,2.81,0,0,1-.39,1.14.63.63,0,0,1-.56.32c-.23,0-.36-.16-.35-.44a2.94,2.94,0,0,1,.4-1.14.53.53,0,0,1,.29.14A2,2,0,0,0,99.09,45.44Z"/><path class="cls-35" d="M101.4,44.57a.21.21,0,0,1-.12.19.63.63,0,0,0-.48-.22c-.18,0-.33,0-.34.12s.26.25.46.36.37.22.36.44a.45.45,0,0,1-.51.44c-.28,0-.71-.23-.7-.45a.42.42,0,0,1,.12-.21.41.41,0,0,0,.22.29.78.78,0,0,0,.42.14c.29,0,.36-.15.37-.2s-.19-.2-.4-.31-.45-.27-.44-.45a.38.38,0,0,1,.27-.33.9.9,0,0,1,.28,0,1.17,1.17,0,0,1,.48.15A.32.32,0,0,1,101.4,44.57Z"/><path class="cls-35" d="M89.07,46.89c-.07,0-.09,0-.14-.07a3.8,3.8,0,0,0-.29.71.32.32,0,0,1-.2-.18c.06-.1.16-.29.37-.72A2.85,2.85,0,0,0,89,46.2a.93.93,0,0,0-.3.13.3.3,0,0,1-.1-.2,1.57,1.57,0,0,1,.72-.14c.29,0,.46.19.45.41A.62.62,0,0,1,89.07,46.89Zm.21-.74,0,0a4,4,0,0,0-.31.52c.4,0,.68-.12.7-.32s-.08-.23-.26-.24Z"/><path class="cls-35" d="M89.55,47.45a1.79,1.79,0,0,1,.29-.57h-.16s.1-.06.22-.07a2.07,2.07,0,0,1,.71-.69.08.08,0,0,0,0,0,.5.5,0,0,1,.27.14,2.49,2.49,0,0,0-.28.85,2.9,2.9,0,0,0,0,.39v.18h0c-.07,0-.2-.06-.21-.1v-.1a2.89,2.89,0,0,1,.07-.49l-.41,0a2.68,2.68,0,0,0-.18.33,1.89,1.89,0,0,0-.1.35C89.58,47.54,89.54,47.51,89.55,47.45Zm1-1.15a1.4,1.4,0,0,0-.51.49h.37c0-.1.06-.21.1-.32A1.08,1.08,0,0,0,90.56,46.3Z"/><path class="cls-35" d="M91.67,47a1.88,1.88,0,0,0,.32.65.25.25,0,0,1-.17.1c-.11,0-.19-.22-.3-.75h-.07l0,0a4.16,4.16,0,0,0-.31.73.28.28,0,0,1-.19-.18c0-.06.06-.1.36-.72a1.72,1.72,0,0,0,.18-.43.93.93,0,0,0-.3.14.37.37,0,0,1-.09-.2,1.29,1.29,0,0,1,.7-.14c.31,0,.48.16.47.38A.58.58,0,0,1,91.67,47Zm-.19-.15c.38,0,.67-.11.68-.32s-.08-.21-.27-.22h-.13l0,0A4.84,4.84,0,0,0,91.48,46.83Z"/><path class="cls-35" d="M92.42,46.28a.24.24,0,0,1,0-.08.54.54,0,0,0,.19,0c.26,0,.71,0,.77,0s.13.08.14.2l-.18,0h-.25c-.08.14-.2.42-.27.59a5.12,5.12,0,0,0-.25.77.33.33,0,0,1-.21-.18c.06-.16.14-.36.3-.73l.17-.43h-.28A.14.14,0,0,1,92.42,46.28Z"/><path class="cls-35" d="M93.63,47.44c0,.2,0,.29.18.3s.3-.11.42-.31a2.21,2.21,0,0,0,.26-1,.87.87,0,0,0,0-.17.67.67,0,0,1,.19.06,2.81,2.81,0,0,1-.39,1.14.63.63,0,0,1-.55.32c-.24,0-.37-.16-.35-.44a2.82,2.82,0,0,1,.39-1.14.53.53,0,0,1,.29.14A2.05,2.05,0,0,0,93.63,47.44Z"/><path class="cls-35" d="M95.4,47.19a1.73,1.73,0,0,0,.33.65.25.25,0,0,1-.18.1c-.11,0-.19-.22-.29-.75h-.08s0,0,0,0a3.1,3.1,0,0,0-.31.74.35.35,0,0,1-.2-.18c0-.07.06-.1.37-.72a2.85,2.85,0,0,0,.18-.43.93.93,0,0,0-.3.13.35.35,0,0,1-.1-.2,1.46,1.46,0,0,1,.71-.14c.31,0,.48.17.46.38A.55.55,0,0,1,95.4,47.19Zm-.19-.14c.39,0,.68-.12.69-.33s-.08-.2-.27-.21h-.14l0,0A4.43,4.43,0,0,0,95.21,47.05Z"/><path class="cls-35" d="M96.51,46.45a.39.39,0,0,1,.2.13,3.09,3.09,0,0,0-.54,1.34v0c-.11,0-.08-.07-.13-.1s0-.13,0-.17A3.15,3.15,0,0,1,96.51,46.45Z"/><path class="cls-35" d="M97.51,47.19s0,.05,0,.06h-.13a1.77,1.77,0,0,0-.33,0,2.23,2.23,0,0,0-.23.58,4.51,4.51,0,0,1,.65-.05.19.19,0,0,1,0,.15V48l-.27,0a3.15,3.15,0,0,0-.51,0,.41.41,0,0,1-.16-.18c0-.09.13-.27.27-.58a.18.18,0,0,1-.11-.1.69.69,0,0,1,.18,0,3.47,3.47,0,0,0,.16-.43c-.09,0-.14-.06-.14-.13a.24.24,0,0,1,0-.08l.17,0c.32,0,.58,0,.66,0s.11.07.12.18l-.16,0-.36,0a2.27,2.27,0,0,0-.23.41,1.12,1.12,0,0,1,.25,0A.11.11,0,0,1,97.51,47.19Z"/><path class="cls-35" d="M97.7,47.9a4.78,4.78,0,0,1,.6-1.31v-.08a.6.6,0,0,1,.3.14,1.22,1.22,0,0,0,0,.33,2.9,2.9,0,0,0,0,.83,3.25,3.25,0,0,1,.49-1.24.31.31,0,0,1,.16.14c-.25.08-.56,1.07-.58,1.38h0c-.12,0-.22,0-.24-.09a5.8,5.8,0,0,1-.09-1.25A3.53,3.53,0,0,0,97.88,48v.08C97.74,48,97.7,48,97.7,47.9Z"/><path class="cls-35" d="M99.33,46.67l0-.07a.39.39,0,0,0,.18,0c.27,0,.71,0,.78,0s.13.09.14.21l-.18,0a1,1,0,0,0-.25,0,3.43,3.43,0,0,0-.27.58,4.72,4.72,0,0,0-.25.77A.29.29,0,0,1,99.3,48a7,7,0,0,1,.3-.74c.06-.14.13-.31.17-.43h-.28C99.38,46.82,99.33,46.76,99.33,46.67Z"/><path class="cls-35" d="M100.74,46.69a.5.5,0,0,1,.21.13,3,3,0,0,0-.54,1.35v0c-.11,0-.08-.08-.13-.1a.26.26,0,0,1,0-.18A3.37,3.37,0,0,1,100.74,46.69Z"/><path class="cls-35" d="M102.12,46.93a.22.22,0,0,1-.11.19.64.64,0,0,0-.49-.23c-.18,0-.33,0-.33.13s.25.25.45.36.37.21.36.44a.46.46,0,0,1-.51.44c-.28,0-.71-.23-.7-.45a.44.44,0,0,1,.12-.22.43.43,0,0,0,.22.3.87.87,0,0,0,.42.14c.29,0,.36-.15.37-.21s-.19-.2-.4-.3-.45-.27-.44-.45a.39.39,0,0,1,.28-.34.61.61,0,0,1,.27,0,1.17,1.17,0,0,1,.48.15A.25.25,0,0,1,102.12,46.93Z"/><path class="cls-36" d="M29.37,64.39l6.17,36.92a29.21,29.21,0,0,0,22-1.14l.6-35S37.83,68.16,29.37,64.39Z"/><path class="cls-37" d="M50.33,66V97c0,1.06.05,2.13,0,3.21a12.83,12.83,0,0,1-.32,2.41,27.23,27.23,0,0,0,7.55-2.4l.6-35S54.85,65.67,50.33,66Z"/><path class="cls-37" d="M38.83,86.7a153.6,153.6,0,0,1-2.64-20.51,15.24,15.24,0,0,1-6.82-1.8l6.17,36.92a29.18,29.18,0,0,0,10.91,1.62C43.56,100.23,39.74,90.87,38.83,86.7Z"/><path class="cls-38" d="M44.1,72.05c2.66-.18,5.25,0,7.91,0a34.68,34.68,0,0,1,6,.54l.12-7.44s-20.33,3-28.79-.8l1.71,10.25C34.82,71.92,39.57,72.36,44.1,72.05Z"/><path class="cls-38" d="M50.3,91.38a12.17,12.17,0,0,1-7.63-2.68,19.61,19.61,0,0,1-3.08-3.42,35.19,35.19,0,0,1-4.35-7.82,34.18,34.18,0,0,1-2.88-12.1,17.2,17.2,0,0,1-3-1l6.17,36.92a29.21,29.21,0,0,0,22-1.14l.2-11.29A11.71,11.71,0,0,1,50.3,91.38Z"/><path class="cls-39" d="M26.55,61.68s14.94-9.13,34.53-1.78C61.08,59.9,47.21,68.59,26.55,61.68Z"/><path class="cls-40" d="M28.46,61.57s12.67-7.26,31-1.56A59.18,59.18,0,0,1,28.46,61.57Z"/><path class="cls-41" d="M47.28,56.89S47,64,36.19,61.59C36.19,61.59,38.81,52.61,47.28,56.89Z"/><path class="cls-42" d="M45,50.84s8.91-13.55,10.6-11.09S51.85,48.26,45,50.84Z"/><path class="cls-42" d="M41.55,50.84a6.54,6.54,0,0,0-1.8-8c-4.21-3.42-3.19-2.76-4-3.84,0,0-5.36,2.34-1.87,9.53S40.87,54.14,41.55,50.84Z"/><path class="cls-9" d="M37,56.8S36,44,42.34,42.53s7.23-1.62,7.89-2.58c0,0-1.33,2.7.54,7.34S44.56,59.62,37,56.8Z"/><path class="cls-13" d="M50.18,45.53l-.15.18a11.52,11.52,0,0,1-4.49,3,9.65,9.65,0,0,1-5.3.27,6.7,6.7,0,0,1-2.47-1A28.83,28.83,0,0,0,37,56.8c7.58,2.82,15.66-4.86,13.79-9.51A15.82,15.82,0,0,1,50.18,45.53Z"/><path class="cls-10" d="M40.72,60.41S39.44,49.8,46.84,44.23c0,0-4.92,2.92-5.73,16.18Z"/><path class="cls-12" d="M42.58,58.63S42,51,46.45,48.3s7.68-.7,9.85-3a24.44,24.44,0,0,0-.84,6c-.08,3.44-1.66,5.75-3.52,6.85A10.2,10.2,0,0,1,42.58,58.63Z"/><path class="cls-13" d="M50.74,55a8.52,8.52,0,0,1-7-3.56,16.38,16.38,0,0,0-1.17,7.16,10.2,10.2,0,0,0,9.36-.48,7.25,7.25,0,0,0,3.22-4.6A7.43,7.43,0,0,1,50.74,55Z"/><path class="cls-10" d="M39.93,61.86s4.42-6,6.52-7.22c3-1.73,5.89-4.48,6.37-5.63,0,0-.86,2.73-6.26,6.48-1.58,1.1-5.85,7.08-5.85,7.08Z"/><path class="cls-12" d="M39.15,58.37s-7,.21-9.78-6.54,1.9-5.54,0-10.43c0,0,6,4.34,8,4.73S44.5,52.84,39.15,58.37Z"/><path class="cls-13" d="M34.37,51.85a8.63,8.63,0,0,1-5.69-2.11,13.64,13.64,0,0,0,.69,2.09c2.74,6.75,9.78,6.54,9.78,6.54a7.44,7.44,0,0,0,1.17-9.45A7.76,7.76,0,0,1,34.37,51.85Z"/><path class="cls-10" d="M40.32,61.68S38.74,51.36,33,47c0,0,5.58,7.5,6.92,14.89Z"/><path class="cls-43" d="M47.56,61.28S54,54.4,59,55.06,59.8,58.15,47.56,61.28Z"/><path class="cls-43" d="M39.84,61.84a15.06,15.06,0,0,0-8-5.37c-5.65-1.75-11.24-5.25-7-.37S33.32,57.57,39.84,61.84Z"/><path class="cls-42" d="M42.27,64.06s-9.24,2.84-7.43-8C34.84,56.05,46.09,55.4,42.27,64.06Z"/><path class="cls-44" d="M37.56,61.44a8.93,8.93,0,0,1-2.64-.4c1.44,4.83,7.35,3,7.35,3,.92-2.08,1-3.62.51-4.77A7.57,7.57,0,0,1,37.56,61.44Z"/><path class="cls-42" d="M48.12,62.57s.48-9.61,10.1-4.22C58.22,58.35,55,69.11,48.12,62.57Z"/><path class="cls-44" d="M54.3,60.42a8.69,8.69,0,0,1-5-1.57,8.79,8.79,0,0,0-1.16,3.72c5.42,5.16,8.57-.45,9.67-3A7.41,7.41,0,0,1,54.3,60.42Z"/><path class="cls-12" d="M36,64.29s-6.22,4.18-8.75-6.53C27.23,57.76,36.16,54.83,36,64.29Z"/><path class="cls-13" d="M32.63,61.32a8.67,8.67,0,0,1-4.77-1.41c2.79,8,8.12,4.38,8.12,4.38a9.84,9.84,0,0,0-.51-3.55A7.32,7.32,0,0,1,32.63,61.32Z"/><path class="cls-12" d="M52.82,58.41s-.31,7.09-11.09,4.7C41.73,63.11,44.36,54.13,52.82,58.41Z"/><path class="cls-13" d="M47.07,61.38a8.79,8.79,0,0,1-4-1,11,11,0,0,0-1.33,2.7c9.42,2.09,10.85-3.06,11.06-4.39A7.7,7.7,0,0,1,47.07,61.38Z"/><path class="cls-45" d="M28.19,68l-1.64-6.27a74.66,74.66,0,0,0,16,1.06c5.37-.17,11.74-.31,18.53-2.84L60.75,67s-10.59,1.68-15.46,2.1A68.57,68.57,0,0,1,28.19,68Z"/><path class="cls-46" d="M42.52,63.53c5.38-.17,11.74-.31,18.52-2.69l0-.94c-6.79,2.53-13.16,2.67-18.53,2.84a74.66,74.66,0,0,1-16-1.06l.24.9A80.79,80.79,0,0,0,42.52,63.53Z"/><path class="cls-47" d="M41.73,62.76a73.15,73.15,0,0,1-15.18-1.08L28.19,68a68.57,68.57,0,0,0,17.1,1.17c.34,0,.71-.06,1.11-.11A8.13,8.13,0,0,1,41.73,62.76Z"/><path class="cls-6" d="M86.54,105.34c-1.63-.23,0,1.89-1.53,1.41-.92-.28-1.84-.58-2.76-.84l-3.61,2.15L69.58,115c-1.77-.38-7.56-2.69-13.21-5.1.05-.13.11-.26.15-.4.29-1-.19-2.06-1.86-2.68h0a18.34,18.34,0,0,0-5.42-.82H47.57c-1.55-.73-2.75-1.33-3.38-1.7,0,0-.5.62-1.22,1.57l-1-.06v-.12c-.27-8-21.2-10.32-26.41-2.51C11,110.41,26.42,115.6,37.09,111a8.28,8.28,0,0,0,1.72,1.37c-.76,1.63-1.1,3-.43,3.68,1.79,1.72,21.4,5.94,27.47,7.21a4.22,4.22,0,0,0,3.27-.65c4.48-3.05,19.45-12.31,22-14.54C91.08,108.08,86.58,105.94,86.54,105.34Z"/><path class="cls-48" d="M35.72,93.2s2.44,1.44,7.47.23S52,93.06,52.52,98c.58,5.51-2.92,11.55-9.46,10-6-1.4-4.91-5.37-8.7-8C27.64,95.34,35.72,93.2,35.72,93.2Z"/><path class="cls-49" d="M41.44,101.27c-.69-.4-1.38-.77-2-1.19h0c-.58-.25-1.17-.48-1.73-.76a9.71,9.71,0,0,1-4.51-3.65c-.18-.33-.34-.67-.48-1-1.36,1.08-2,2.8,1.69,5.38s2.69,6.62,8.7,8c4.89,1.13,8.16-2.06,9.19-6.13C48.71,102.83,44.59,103.05,41.44,101.27Z"/><path class="cls-50" d="M44.34,93.72a7.28,7.28,0,0,1,.82-.67,19.42,19.42,0,0,0-2,.38c-5,1.21-7.47-.23-7.47-.23s-8.08,2.14-1.36,6.84c3.07,2.14,2.93,5.16,6,7A13.87,13.87,0,0,1,44.34,93.72Z"/><path class="cls-51" d="M49.68,93.42a9.6,9.6,0,0,1-2.93,6.06c-2.68,2.32-6.34,3.39-9.56,1.87a15.11,15.11,0,0,1-2.79-1.73l-.35-.28-.26-.12a4.44,4.44,0,0,1-1.2-.68,10.77,10.77,0,0,0,1.77,1.5c3.79,2.65,2.69,6.62,8.7,8,6.54,1.52,10-4.52,9.46-10C52.26,95.56,51.25,94.12,49.68,93.42Z"/><path class="cls-52" d="M37.27,88.82l-.14-.18c-.55-.69-5-5.86-13.76-.37C14.18,94,17.3,107.92,25.86,109,35.51,110.14,46.2,99.46,37.27,88.82Z"/><path class="cls-53" d="M28.18,104.07c3.86-2,6.13-5.24,7.71-9.12a15.35,15.35,0,0,0,1.4-6.11c8.9,10.63-1.78,21.3-11.43,20.13A8.56,8.56,0,0,1,20,105.38,12.81,12.81,0,0,0,28.18,104.07Z"/><path class="cls-54" d="M35.52,88.5a.47.47,0,0,1-.1-.1C35.05,88,32,85.21,26,88.32c-6.3,3.26-3.83,10.62,1.95,11C34.33,99.73,41.35,94.06,35.52,88.5Z"/><path class="cls-54" d="M33.29,89.87l0-.05c-.15-.16-1.44-1.38-4,0a2.39,2.39,0,0,0,.89,4.63C32.76,94.52,35.66,92.18,33.29,89.87Z"/><path class="cls-55" d="M27.72,101.07c-4.25-1-7.8-2.8-9.08-7.35C16,100,19.41,108.18,25.86,109c7.07.86,14.81-4.74,14.67-12.24A13.68,13.68,0,0,1,27.72,101.07Z"/><g class="cls-56"><path class="cls-57" d="M26.67,90.88c-.41-.64-2.82,1.12-1.31,1.68.93.36,1.76-1.32,1.14-1.85Z"/><path class="cls-57" d="M30,90.55c-.58-.07-1.23.8-1.2,1.31.05.87.7.74,1.26.27s1.2-.42.71-1c-.28-.36-.57-.73-1.06-.56Z"/><path class="cls-57" d="M34.3,88.59c0-1-2.16-.65-1.53.08a2.65,2.65,0,0,0,1.15.37c.37,0,.66-.57.29-.64Z"/><path class="cls-57" d="M34.88,91.09c-.7.33-.36.83-.42,1.36,0,.18-.21.47-.13.64s.61.1.85-.07a1,1,0,0,0,.3-1.39c0-.06-.15,0-.2-.1s-.09-.23-.15-.29a.42.42,0,0,0-.56-.13Z"/><path class="cls-57" d="M38.46,94.16a3.73,3.73,0,0,0-1.13,1.58c-.18.82.74.92,1.26.46a2.2,2.2,0,0,0,.66-1.62C39.17,94.2,38.78,93.85,38.46,94.16Z"/><path class="cls-57" d="M34.22,94.6c-.2,0-.29.15-.46.25s-.4.15-.59.25c-.34.2-.32.39-.33.78,0,.85.22,1.26,1.1.86s.79-.53.7-1.24c0-.39-.11-1.22-.77-.84Z"/><path class="cls-57" d="M30.1,89.07c.07-.18,0-.29-.09-.45s0-.39-.05-.57c-.08-.34-.26-.35-.62-.42-.79-.14-1.23,0-1.14.86s.25.79.94.82c.37,0,1.17.09,1-.56Z"/><path class="cls-57" d="M28.07,94.64a1.06,1.06,0,0,0-.77.52.55.55,0,0,0,.45.73c.34,0,.68-.42.72-.74s-.24-.5-.58-.54Z"/><path class="cls-57" d="M19,96.24a1,1,0,0,0-.75.51.53.53,0,0,0,.41.72c.32,0,.66-.41.7-.73s-.21-.49-.53-.52Z"/><path class="cls-57" d="M26.12,88.67a1.06,1.06,0,0,0-.75.51.51.51,0,0,0,.44.68c.33,0,.65-.41.69-.72s-.22-.47-.56-.49Z"/><path class="cls-57" d="M24.36,95.13a.84.84,0,0,0-.9,1.12c.3.66.84.33,1.38.16.25-.08.4,0,.53-.31s0-.46-.22-.63c-.35-.32-.66-.28-1.07-.43Z"/><path class="cls-57" d="M21.89,94.91c-1-.1-1.26,1.79-.2,1.22.28-.15.73-.42.66-.76a.76.76,0,0,0-.64-.49Z"/><path class="cls-57" d="M21.22,99.34c-.35,0-1,.12-1.09.56a.63.63,0,0,0,.67.73c.34,0,.93-.46.9-.85A.44.44,0,0,0,21.22,99.34Z"/><path class="cls-57" d="M24,100.37c-.38.1-1.63.92-.82,1.28s1.32-1.37.56-1.23Z"/><path class="cls-57" d="M23.73,102.72c-.29-.34-1.16,0-1.43.3s-.41,1,.23,1.09a1.41,1.41,0,0,0,1.31-.77c.14-.4,0-.72-.44-.65Z"/><path class="cls-57" d="M29.58,98.21a2,2,0,0,0-1.5.38c-.56.54-.2,1,.31,1.32a.82.82,0,0,0,1.25-.63c.09-.4.23-1.26-.37-1Z"/><path class="cls-57" d="M22.05,91.2a1.93,1.93,0,0,0-1.4.38c-.54.52-.21,1,.26,1.22a.79.79,0,0,0,1.17-.61c.1-.37.25-1.17-.31-.94Z"/><path class="cls-57" d="M32.16,99.13c-.34,0-.81,0-1,.43s.15.63.47.64c.73,0,1.16-1.14.27-1.14Z"/><path class="cls-57" d="M34.83,101.06c-.7,0-1.4-.09-1.41.78,0,.68.32.75,1,.67a.84.84,0,0,0,.82-.94c0-.47-.18-.67-.66-.54Z"/><path class="cls-57" d="M38.29,99.9c-.71-.05-1.26.79-.41,1,.7.2.63-.64.61-1.1a.65.65,0,0,0-.56.05Z"/><path class="cls-57" d="M30.18,104.75a1.36,1.36,0,0,0-1.87-.1c-.82.64.23,1.56.84,1.69s2.19-.17,2.31-1c.16-1-1.34-.36-1.51-.87Z"/><path class="cls-57" d="M27.77,102.09a1.17,1.17,0,0,0-1.05-.08c-.38.2-.29.58.07.72s1.25-.17.94-.75a.33.33,0,0,0-.14,0Z"/><path class="cls-57" d="M24.93,105.5c-.68-.36-1.19.87-.24,1s.65-1.25,0-1.08Z"/></g><path class="cls-6" d="M103.08,113h0l-.28-.13h0l-.38-.15-28,10.9s-1.62,1.5-2.76,2.66c-.66.67-1.44,1.44-1.44,1.44l.6,0h.24l.16,0h0l.18,0h0l.2,0h.6c1.08-.11,2.43-.29,3.34-.41l.22,0h.07l.2,0h0l.19,0h0l.15,0,28-11.25S105.06,115.2,103.08,113Z"/><path class="cls-58" d="M39,102.2s1.21,9.48,3.45,11.63,27.52,6.07,27.52,6.07,3.19-6.45,2.49-9.05C72.43,110.85,42.66,104.4,39,102.2Z"/><path class="cls-59" d="M71.16,116.51c-4,0-8.52.58-12.41-.8-3.66-1.29-7.56-2.52-10.34-5.4a13.38,13.38,0,0,1-3.42-6,34,34,0,0,1-6-2.06s1.21,9.48,3.45,11.63,27.52,6.07,27.52,6.07.76-1.53,1.45-3.4Z"/><path class="cls-60" d="M89.1,107.42s3.27-7.6,2.7-9.79l-10.23,5.82-9.69,7.4a34.69,34.69,0,0,1-1.94,9.05S84.11,109.71,89.1,107.42Z"/><path class="cls-61" d="M91.8,97.63l-10.23,5.82L72,110.76l-.91-.2c-5.82-1.28-28.9-6.44-32.12-8.36l.09.65a134.91,134.91,0,0,0,30.83,8.5c.81.1,1.5.17,1.37,1a28.18,28.18,0,0,1-1.72,7.52l.4.06.56-.4A48,48,0,0,0,72.18,112a2.08,2.08,0,0,1,1.08-1.44c2.6-1.81,5.21-3.63,7.87-5.34s10.72-6.66,10.73-6.77A3,3,0,0,0,91.8,97.63Z"/><path class="cls-62" d="M85.41,107.32c-1.08.88-10.36,7.42-14.4,9.09a24.2,24.2,0,0,1-1.07,3.49s14.17-10.19,19.16-12.48a54.62,54.62,0,0,0,2.45-7A22,22,0,0,1,85.41,107.32Z"/><path class="cls-63" d="M39,102.2s12.56,6.13,32.91,8.65c0,0,15.28-10.67,19.92-12.93,0,0-.42-1.18-3.85-1.62s-5-1.9-5.37-4l-8.36-1.25s-2.25,1.86-3.9.86-2.54-1.76-6.61-.49S45.22,98.46,39,102.2Z"/><path class="cls-64" d="M75.66,96.22a93.91,93.91,0,0,1,.14,11.93c1.08-.74,2.32-1.59,3.63-2.47-1.18-2.07-2.56-6.52-3.45-9.6Z"/><path class="cls-65" d="M68.81,102.77c3.76-2.9,5-4.38,6.29-6.47a10.37,10.37,0,0,1-1.94.18A13.08,13.08,0,0,1,67,95c-3.93,1.41-7.26,2.89-7.26,2.89A67.17,67.17,0,0,0,51,96.37c-6,2.7-9.63,4.44-12,5.83,4.61,2,17.27,6.89,30.16,8.37,0,0,2.9-3.59,3.42-5.53C72.55,105,68.6,103.23,68.81,102.77Z"/><path class="cls-64" d="M84.81,102.12c2.86-1.85,5.48-3.47,7-4.2,0,0-.42-1.18-3.85-1.62s-5-1.9-5.37-4l-4.13-.62c.16,1.25.35,2.49.54,3.74A74.17,74.17,0,0,1,84.81,102.12Z"/><path class="cls-66" d="M73.69,98.46a16.72,16.72,0,0,1-6-.48c-3.43-.81-4.05-1.93-4.05-1.93s1.62-7.5,4.93-11.31,2.47-14.08,2.47-14.08L64.6,61.93l.78-5.3S72.14,64.89,77,69.71c0,0,.9,10-1.51,15.67S72.61,95.23,73.69,98.46Z"/><path class="cls-67" d="M76.45,82.36A11.88,11.88,0,0,1,70.87,84a11.47,11.47,0,0,1-1.66-.06,5.88,5.88,0,0,1-.6.85c-3.31,3.81-4.93,11.31-4.93,11.31s.62,1.12,4.05,1.93a16.72,16.72,0,0,0,6,.48c-1.08-3.23-.57-7.35,1.84-13.08A16.42,16.42,0,0,0,76.45,82.36Z"/><path class="cls-68" d="M83.08,93.72s-1.45-4.25.58-10.32S82.46,65,82.46,65s-14-10.12-15.63-22.56L65.07,58.76s8.11,7.42,11.79,10.84c0,0,.51,9.59-.82,13S71.53,94.1,73.69,98.46C73.69,98.46,77.5,96.25,83.08,93.72Z"/><path class="cls-69" d="M76.86,69.6c-1.23-1.15-3-2.75-4.73-4.37a17.41,17.41,0,0,0,1.92.49,26.29,26.29,0,0,0,8.58-.06c.65,2.7,2.78,12.52,1,17.74-2,6.07-.58,10.32-.58,10.32-5.58,2.53-9.39,4.74-9.39,4.74C71.53,94.1,74.7,86,76,82.59S76.86,69.6,76.86,69.6Z"/><path class="cls-70" d="M82.84,86.68a9.16,9.16,0,0,0-2.32.53l-.66.25c-1.93-.22-3.25-.85-5.21-1.1.5-1.5,1-2.82,1.39-3.77a16.91,16.91,0,0,0,.77-4.43A33,33,0,0,1,81,77.28a3,3,0,0,0,1.82,1.29A3.32,3.32,0,0,0,84.27,80a14,14,0,0,1-.61,3.36A21.23,21.23,0,0,0,82.84,86.68Z"/><path class="cls-71" d="M84.2,80.76a12,12,0,0,1-7.61,3.07c-.34,0-.69,0-1,0-1.47,3.85-3.8,10.75-1.87,14.65,0,0,3.81-2.21,9.39-4.74,0,0-1.45-4.25.58-10.32A12.09,12.09,0,0,0,84.2,80.76Z"/><path class="cls-72" d="M70.34,61.89a15.84,15.84,0,0,1,2.22-6.8c-2.73-3.62-5.12-8-5.73-12.7L65.07,58.76s2.37,2.16,5.12,4.69Q70.25,62.67,70.34,61.89Z"/><path class="cls-73" d="M81,77.28S75.6,81.14,79.7,87.46l7.38-.93.63-5.62Z"/><path class="cls-74" d="M81,77.28S75.6,81.14,79.7,87.46l7.38-.93.63-5.62Z"/><path class="cls-75" d="M80.21,78a3.27,3.27,0,0,0-.24.27l6.65,3.34.14-.16Z"/><path class="cls-75" d="M79.36,79.06l-.13.21,6.93,3.17.09-.23Z"/><path class="cls-75" d="M86,83.08l-7.46-2.3c-.05.12-.08.25-.12.38l7.52,2.23a1.85,1.85,0,0,1,0-.23A.24.24,0,0,1,86,83.08Z"/><path class="cls-75" d="M78.18,83.26c0,.12,0,.25,0,.37l7.7.63,0-.26Z"/><path class="cls-75" d="M78.52,85c0,.13.09.26.14.39L86.1,85a1.55,1.55,0,0,1-.08-.23Z"/><path class="cls-75" d="M79.17,86.55c.06.1.11.2.16.3l7.19-1-.15-.25Z"/><path class="cls-76" d="M80.65,83.39a10.25,10.25,0,0,1-2.44-1.31,8.11,8.11,0,0,0,1.49,5.38l7.38-.93.28-2.45C84.76,84.11,83.21,84.24,80.65,83.39Z"/><path class="cls-77" d="M87.08,86.53A4,4,0,0,1,86,83.16c.43-2.1,1.76-2.25,1.76-2.25s1.16.79.66,3.1A4.39,4.39,0,0,1,87.08,86.53Z"/><path class="cls-78" d="M87.1,86a3.19,3.19,0,0,1-.9-2.68c.35-1.66,1.41-1.78,1.41-1.78s.91.63.52,2.46A3.49,3.49,0,0,1,87.1,86Z"/><path class="cls-79" d="M85.94,83.23a4,4,0,0,0,1.14,3.3,4.34,4.34,0,0,0,1.28-2.48A1.84,1.84,0,0,1,85.94,83.23Z"/><path class="cls-60" d="M67.1,88.32a5.89,5.89,0,0,1-1.46,0,10.08,10.08,0,0,1-1,3.45c.65.05,1.53.43,2.24.48a92.06,92.06,0,0,0,10-6.12,39.23,39.23,0,0,0,.94-4.93S67.86,88,67.1,88.32Z"/><path class="cls-58" d="M67.13,90a12.94,12.94,0,0,0-.07-1.68c-6.2-1.55-11.61-4.87-23.13-6A42.8,42.8,0,0,0,45,87.17c.34.71,13.28,4.47,21.88,5C66.9,92.22,67.07,91.12,67.13,90Z"/><path class="cls-80" d="M58.6,79s-10.45,1.29-14.67,3.35c0,0,7.26,4.58,23.17,5.95,0,0,9.41-5.5,10.7-7.15C77.8,81.17,63,79.3,58.6,79Z"/><path class="cls-61" d="M77.8,81.17l-.21,0C75.73,83,67.1,88.06,67.1,88.06c-15.5-1.39-22.83-5.76-22.92-5.81l-.25.12v0a1.19,1.19,0,0,0,0,.26S51,87.29,66.25,88.46a.68.68,0,0,1,.62.67,22.82,22.82,0,0,1-.23,3.07l.26,0,.2-.11a9.13,9.13,0,0,0,.23-3.21.92.92,0,0,1,.45-.9c1.89-1.14,8.39-5,10-6.6Z"/><path class="cls-81" d="M75.84,82.8l-2.69,5.85,3.6-2.47.11-.08a39.23,39.23,0,0,0,.94-4.93A13,13,0,0,1,75.84,82.8Z"/><path class="cls-82" d="M60.43,17.36S63.81,20.87,71,18.87C71,18.87,66.93,14.2,60.43,17.36Z"/><path class="cls-83" d="M63.25,17.41l-.74.06c-.87,6.11-3,20.26-4.19,22.79L66,41.52s1.64-15.8,3.11-23A12.42,12.42,0,0,0,63.25,17.41Z"/><path class="cls-84" d="M63,8.55l-2.59,8.81A10.88,10.88,0,0,1,71,18.87v-9A7.35,7.35,0,0,0,63,8.55Z"/><path class="cls-85" d="M69.67,8.83c-.17,1.73-.36,3.45-.61,5.16-.07.49-.14,1-.19,1.47v.12c-.06.66-.1,1.32-.16,2A13.24,13.24,0,0,1,71,18.87v-9A6.86,6.86,0,0,0,69.67,8.83Z"/><path class="cls-86" d="M65.1,12.48a30.48,30.48,0,0,0,1.14-4.59v0A7.47,7.47,0,0,0,63,8.55l-2.59,8.81a9.56,9.56,0,0,1,3.71-.74C64.43,15.23,64.73,13.85,65.1,12.48Z"/><path class="cls-87" d="M51.6,68.15s4.91,6.61,13.77,1.9A17.57,17.57,0,0,0,51.6,68.15Z"/><path class="cls-87" d="M54.57,76.39l1.84,3a1.72,1.72,0,0,0,1.81.23L60.86,77Z"/><path class="cls-88" d="M56.14,79l.27.44a1.72,1.72,0,0,0,1.81.23l.29-.29A3.6,3.6,0,0,1,56.14,79Z"/><path class="cls-89" d="M54.89,69.62l-.32,6.77s3.5,1.44,6.29.56l1.26-6.45S58.1,68.41,54.89,69.62Z"/><path class="cls-90" d="M58.91,69.43c-.28,1.49-.57,3-.77,4.48-.14,1.09-.31,2.17-.52,3.24a10.55,10.55,0,0,0,1.14.08c.29-1.42.61-2.84.94-4.31.24-1,.43-2.08.72-3.1A11,11,0,0,0,58.91,69.43Z"/><path class="cls-91" d="M56.52,73.39c.18-1.32.33-2.64.52-4l0-.19a6.3,6.3,0,0,0-2.18.38l-.32,6.77a12.47,12.47,0,0,0,1.43.45C56.19,75.69,56.36,74.54,56.52,73.39Z"/><path class="cls-92" d="M55,72.39a9.11,9.11,0,0,1,6.28,2.48l.85-4.37s-4-2.09-7.23-.88l-.13,2.78Z"/><path class="cls-60" d="M51.6,68.15l3.67-35s5.77-3,15.92,1.5L65.37,70.05S61.35,68,51.6,68.15Z"/><path class="cls-93" d="M55.27,33.17l4.27-3.54a10.91,10.91,0,0,1,9.05,1s2.44,2.84,2.6,4.08Z"/><path class="cls-60" d="M51.6,68.15l3.67-35s5.77-3,15.92,1.5L65.37,70.05S61.35,68,51.6,68.15Z"/><path class="cls-94" d="M51.73,66.91l-.13,1.24c9.75-.14,13.77,1.9,13.77,1.9l.23-1.44A17.74,17.74,0,0,0,59,66.71,26.48,26.48,0,0,0,51.73,66.91Z"/><path class="cls-95" d="M62.94,32.31c-.12.75-5.24,35.79-5.28,36.06a37.53,37.53,0,0,1,4.59.7c.5-3.75,4.93-35.33,5-35.51s0-.24,0-.37A25.91,25.91,0,0,0,62.94,32.31Z"/><path class="cls-96" d="M60.36,32.18a12.33,12.33,0,0,0-5.09,1l-3.67,35c1.56,0,3,0,4.24.09C57.19,49.38,60.22,33.45,60.36,32.18Z"/><path class="cls-95" d="M71,36l.23-1.37c-10.15-4.53-15.92-1.5-15.92-1.5l-.11,1.12C57,33.77,62.92,32.64,71,36Z"/><path class="cls-83" d="M67.9,38.89s-3.76,1.66-4,7.71a13.38,13.38,0,0,0,1.45,6.75l3.44,1,2.38-15Z"/><path class="cls-97" d="M68.81,54.31s-3.34-3-2.36-9c.77-4.72,3.43-6,4.74-6,0,0,3.33,1.36,3,7.12C74,51.11,71.38,54.55,68.81,54.31Z"/><path class="cls-98" d="M67.67,45.37a54.64,54.64,0,0,0,5.12-4.71,4.46,4.46,0,0,0-1.6-1.37c-1.31,0-4,1.26-4.74,6-.06.38-.1.75-.13,1.11C66.77,46.05,67.23,45.72,67.67,45.37Z"/><path class="cls-98" d="M69.58,50.82c1.41-1.08,3.52-2.35,4.6-3.94,0-.16,0-.31,0-.47a12.53,12.53,0,0,0-.08-2.26A46.61,46.61,0,0,1,70,47.84c-1.1.86-2.27,1.64-3.41,2.46a10,10,0,0,0,.83,2.12C68.17,51.9,68.88,51.37,69.58,50.82Z"/><path class="cls-99" d="M69.4,51.24A6,6,0,0,1,68,45.9c.45-2.79,2-3.52,2.8-3.53,0,0,2,.8,1.79,4.2C72.45,49.35,70.92,51.38,69.4,51.24Z"/><polygon class="cls-100" points="59.23 80.62 50.05 82.89 50.04 83.16 65.19 85.67 70.06 82.19 70.08 82 59.23 80.62"/><polygon class="cls-101" points="59.23 80.67 50.05 82.67 50.05 82.94 65.2 85.5 70.08 82.04 70.1 81.84 59.23 80.67"/><polygon class="cls-102" points="59.24 80.43 50.05 82.67 65.22 85.25 70.1 81.84 59.24 80.43"/><polygon class="cls-103" points="68.44 81.64 67.05 81.46 58.04 84.03 63.27 84.92 68.44 81.64"/><g class="cls-104"><path class="cls-105" d="M61.17,82.93l0,.07h0a.75.75,0,0,1-.1-.14,5.76,5.76,0,0,0-.89-.46,5.28,5.28,0,0,0-.77-.24A7.94,7.94,0,0,0,56,82.1l-2.86.58,3.44.48A14,14,0,0,0,61.19,83h0A.18.18,0,0,1,61.17,82.93Z"/><path class="cls-105" d="M57.55,82.53a4.29,4.29,0,0,1-.77-.55c-.28,0-.55.07-.83.12l-2.86.58,3.44.48a13.89,13.89,0,0,0,2.81.1A5.17,5.17,0,0,1,57.55,82.53Z"/></g><path class="cls-12" d="M61.28,82.74l0,.07h0a.75.75,0,0,1-.1-.14,5.76,5.76,0,0,0-.89-.46,5.28,5.28,0,0,0-.77-.24,7.79,7.79,0,0,0-3.53,0l-2.86.57,3.44.48a14.09,14.09,0,0,0,4.67-.15h0Z"/><path class="cls-13" d="M57.66,82.34a4.29,4.29,0,0,1-.77-.55,7.94,7.94,0,0,0-.83.13l-2.86.57,3.44.48a13.89,13.89,0,0,0,2.81.1A5.17,5.17,0,0,1,57.66,82.34Z"/><path class="cls-9" d="M96.56,105.76s-8.94-.06-5.29-8S106,89.94,110.9,92.06s8.21,10.83,14.71,7.17c0,0-.42,3.42-5.11,3.62-4.07.16-6.85,3.77-10,5.79a15.21,15.21,0,0,1-10.41,2.15C97.28,110.37,95.28,108.69,96.56,105.76Z"/><path class="cls-106" d="M118.06,100.92l-.84-.28a13.52,13.52,0,0,1-2.76-.21l-.53-.13c-2.22.47-4.42,1-6.69,1.3-1.08.14-2.16.16-3.24.21a10.66,10.66,0,0,1-4.67,1.73,9,9,0,0,1-3.06,2.21h.29c-1.28,2.93.72,4.61,3.51,5a15.21,15.21,0,0,0,10.41-2.15c3.17-2,6-5.63,10-5.79,2.9-.12,4.17-1.48,4.72-2.5A10.31,10.31,0,0,1,118.06,100.92Z"/><g class="cls-107"><path class="cls-108" d="M91.5,98.47c3.64-7.94,14.76-7.82,19.62-5.69s8,10.32,14.16,7.45a3.41,3.41,0,0,0,.33-1c-6.5,3.66-9.85-5-14.71-7.17s-16-2.25-19.63,5.69c-1,2.27-1,3.89-.55,5A6.94,6.94,0,0,1,91.5,98.47Z"/></g><path class="cls-109" d="M98.39,109c3.6.55,6.12,0,10.46-3,2.68-1.84,5.2-4.68,8.44-5.55-.69,0-1.47,0-2.6,0a36.49,36.49,0,0,0-6.21.61c-3,.66-5.93,1-8.7,2.37a2.8,2.8,0,0,1-.8.24,11.45,11.45,0,0,1-1.67,1.2,11.3,11.3,0,0,1-1.61.77,7.14,7.14,0,0,0,.86.07,4.12,4.12,0,0,0-.38,1.67S97.53,108.87,98.39,109Z"/><path class="cls-109" d="M96.06,105.73h0Z"/><path class="cls-109" d="M96.23,105.74h0Z"/><path class="cls-109" d="M96.39,105.75h0Z"/><path class="cls-109" d="M96.51,105.76h0Z"/><path class="cls-110" d="M97.31,104.92a11.45,11.45,0,0,0,1.67-1.2,2.8,2.8,0,0,0,.8-.24c2.77-1.35,5.73-1.71,8.7-2.37a36.49,36.49,0,0,1,6.21-.61c.85,0,1.51,0,2.08,0-1.06-.46-3.5-.64-4.56-1.17-3.47-1.73-6.46-4.43-10.5-3.45A15.81,15.81,0,0,0,96,98.37a5.83,5.83,0,0,0-1.1,7.19c.3.06.58.1.82.13A11.3,11.3,0,0,0,97.31,104.92Z"/><path class="cls-109" d="M95.78,105.7h0Z"/><path class="cls-109" d="M121.87,102.67l-.14,0Z"/><path class="cls-109" d="M122.39,102.54l-.12,0Z"/><path class="cls-109" d="M122.75,102.42h0Z"/><path class="cls-109" d="M121.29,102.77l-.15,0Z"/><path class="cls-111" d="M114,102.85a10.87,10.87,0,0,0-3.12-1.64,68.12,68.12,0,0,1,7.36-.74,39.61,39.61,0,0,0-9.76.23,16.89,16.89,0,0,1,2.66-4.38,11.3,11.3,0,0,0-3.23,4.48c-1.11.18-2.16.4-3.17.64-.47-3.42,2.15-6.86,2.15-6.86a9.23,9.23,0,0,0-2.6,7c-1.14.3-2.22.63-3.22,1a15,15,0,0,1,.08-8c-1.44,2.15-.88,6.55-.62,8.16-1,.35-1.84.72-2.66,1.09A12.6,12.6,0,0,0,95.78,98c.8,1.33,1.4,5.14,1.54,6.09a31.12,31.12,0,0,0-5.62,3.31l1.13,1.23a61.71,61.71,0,0,1,5.61-3.26c1.09.61,4.81,2.75,5.46,3.66a10.82,10.82,0,0,0-4.79-4c.73-.37,1.5-.73,2.29-1.07,1.3.25,4.78,1,6.76,2.77,0,0-1.49-2.18-5.66-3.23a31.72,31.72,0,0,1,3.1-1.08,12.48,12.48,0,0,1,5.45,2.23s-.9-1.67-4.18-2.56c1-.26,2.1-.48,3.1-.66A15.88,15.88,0,0,1,114,102.85Z"/><path class="cls-109" d="M114,102.85a10.87,10.87,0,0,0-3.12-1.64c1.89-.3,3.67-.48,5-.59a25.52,25.52,0,0,0-2.77,0,29,29,0,0,0-8,1.57c-4.46,1.47-8.61,3.06-12.37,5.93l.14.46a61.71,61.71,0,0,1,5.61-3.26c1.09.61,4.81,2.75,5.46,3.66a10.82,10.82,0,0,0-4.79-4c.73-.37,1.5-.73,2.29-1.07,1.3.25,4.78,1,6.76,2.77,0,0-1.49-2.18-5.66-3.23a31.72,31.72,0,0,1,3.1-1.08,12.48,12.48,0,0,1,5.45,2.23s-.9-1.67-4.18-2.56c1-.26,2.1-.48,3.1-.66A15.88,15.88,0,0,1,114,102.85Z"/><path class="cls-112" d="M92.83,108.6s-1.58.21-1.13-1.23C91.7,107.37,93.24,107.07,92.83,108.6Z"/><path class="cls-113" d="M74.54,122.23s-4,3.72-3.84,4,5-.48,5.92-.57l0,0a2.08,2.08,0,0,0-1.74-3.37Z"/><path class="cls-114" d="M73.88,125.17a22.89,22.89,0,0,1-2.6,1.06c1.36-.06,4.64-.54,5.34-.61l0,0a2,2,0,0,0,.27-2.12A17.24,17.24,0,0,1,73.88,125.17Z"/><path class="cls-115" d="M72.31,125.37c0-.13-.48-.54-.52-.5l-1.45,1.45s1.72-.11,2.1-.19A1.54,1.54,0,0,0,72.31,125.37Z"/><path class="cls-116" d="M72.3,125.35a2.53,2.53,0,0,1-.59.54,4.28,4.28,0,0,1-.77.39c.54,0,1.26-.1,1.5-.15a1.54,1.54,0,0,0-.13-.76S72.3,125.36,72.3,125.35Z"/><path class="cls-117" d="M102.5,111.33l-28,10.9a3.37,3.37,0,0,1,2.08,3.39l27.55-11a3,3,0,0,0,0-2.07C103.94,112.05,103.56,111.72,102.5,111.33Z"/><path class="cls-118" d="M75.66,123l28-11.07a4.41,4.41,0,0,0-1.16-.58l-28,10.9a3.83,3.83,0,0,1,1.12.74Z"/><path class="cls-118" d="M104.32,113l-27.78,11.4h0a2.61,2.61,0,0,1,.08.5.28.28,0,0,1,0,.09,1.34,1.34,0,0,1,0,.2,1.63,1.63,0,0,1,0,.38l27.55-11a4.58,4.58,0,0,0,.17-.68A3.12,3.12,0,0,0,104.32,113Z"/><path class="cls-119" d="M104.32,113h0l-.06-.23c-1.58,1-3.18,2-4.83,2.87-2.4,1.21-22.17,9-23.15,9.47a27.13,27.13,0,0,1-3.2.91c.92-.1,1.93-.24,2.66-.33l.22,0H76l.2,0h0l.19,0h.17l27.55-11a3.26,3.26,0,0,0,.19-.88v0A3.22,3.22,0,0,0,104.32,113Z"/><path class="cls-120" d="M129.94,108.84a82.07,82.07,0,0,0,10.06-7.2c-2-1.09-4.26-2.28-6.9-3.51h0l-.11,0c-.61-.28-1.23-.57-1.88-.85l-.15-.07-1.26-.55a4,4,0,0,0,.8-.83c4.65-6.45,5.17-7.34,6.56-7.63,0,0-2.6.15-6-2.34-.25-.18-.5-.37-.75-.58L130,85l-.62-.57v0l.15-.22c.13-.21.26-.42.38-.63a1.62,1.62,0,0,0,.1-.18c.07-.11.13-.23.19-.34h0c1.33-2.53,1.72-4.74,4-5.72a28,28,0,0,1-5.38-.94c7.31-12,8.11-28.16-.37-46.14C110.14-8.65,27.14-14.08,10.29,38,4.93,54.51,8.71,66.3,16.36,74.69c.05.39.1.79.16,1.2l-.35.13c-.4.18-.79.33-1.16.46l-.3.1-.85.27c-3.87,1.08-6.12.09-6.12.09,1.13.72,1.3,1.68,3.29,8.9.91,3.29,5.43,4.2,10.1,4.23a11.51,11.51,0,0,0-2.46,3.74.94.94,0,0,0,0-.09c-.05.13-.09.26-.14.4a131.1,131.1,0,0,0-18.5,7c8.74,7.19,33.15,21.41,69.08,23.75.88.05,1.75.08,2.62.11-.64.65-1.36,1.36-1.36,1.36l.6,0h0l.33,0h.13l.27,0h0l-.06.06c-.66.67-1.44,1.44-1.44,1.44l.6,0h.24l.16,0h0l.18,0h0l.2,0h.6c1.08-.11,2.43-.29,3.34-.41l.22,0h.07l.2,0h0l.19,0h0l.15,0,5.56-2.23c1.6-.12,3.18-.27,4.74-.46A67.73,67.73,0,0,1,97.27,130s21-15.38,33.18-19.59l-.94-.49c.5-.2,1-.38,1.46-.55Z"/></g></g></g></svg>