<svg xmlns="http://www.w3.org/2000/svg" viewBox="0 0 702.88 12.5"><defs><style>.cls-1{fill:#3699d5;}</style></defs><g id="Layer_2" data-name="Layer 2"><g id="Layer_1-2" data-name="Layer 1"><path class="cls-1" d="M3.27,8c-.68-.73,4.25-2.34,4.81-2.5a25.6,25.6,0,0,1,11.84-1c4.56.88,11.4,1.82,14.66,5.53a1.53,1.53,0,0,0,1.82.24c5.72-3.12,12.27-4.71,18.6-6s15,1.77,20.06,6a1.52,1.52,0,0,0,2.51-.66c.47-1.82,4.9-2.59,6.36-3A65.5,65.5,0,0,1,97,4.88a72,72,0,0,1,14.45.63,32.75,32.75,0,0,1,5.38,1.22c.45.15,1.79.42,1.93.83-.18-.52-1,.1-1.55.27-1.56.46-1.34,3.06.4,2.94,14.4-.93,30.23-2.09,43.6-8h-1.51L170,7.39c3.26,1.47,5.3,2.77,8.86,2.38C185.6,9,192.34,8.06,199,6.67c2.62-.54,5.23-1.16,7.81-1.89a31.83,31.83,0,0,1,3.79-1.16c1.79-.24,3.93.61,5.64,1,3.09.78,6.15,1.66,9.15,2.73,2.5.9,5,2.72,7.51,3.41,1.6.45,3.21-.74,4.73-1.28a83.23,83.23,0,0,1,8-2.39c2.85-.72,5.72-1.33,8.61-1.86,3.93-.74,9-2.29,12.92-1.49,3.43.7,6.88,2.3,10.21,3.41L288.81,11c2.6.87,3,.94,5.36-.1a42.48,42.48,0,0,1,7.22-2.32,86.81,86.81,0,0,1,22.44-2.19,78.48,78.48,0,0,1,11.36,1,29,29,0,0,1,3.91.87,8.53,8.53,0,0,0,1.3.46l.42.21c.45.39.49.22.12-.52A1.52,1.52,0,0,0,342,11c7.77-.07,14.35-2.29,21.58-4.79a32.6,32.6,0,0,1,11-2,29.77,29.77,0,0,1,12.06,2.81c4.89,2,10.58,2.27,15.81,2.45a122.07,122.07,0,0,0,19.86-.84c3.3-.42,9.95-.7,11.5-4.39l-1.84,1,19.29,5.38a20.52,20.52,0,0,0,4.25,1.13,22.63,22.63,0,0,0,4.37-.71c2.94-.51,5.88-1.05,8.8-1.65,5.5-1.13,11-2.43,16.36-4s12.48,1,17.86,2.39c2.34.63,4.67,1.33,6.95,2.16,1.84.67,3.58,1.83,5.52,1.83,5.56,0,11.72-1.73,17.12-2.94,2.46-.56,4.91-1.17,7.33-1.9a21.58,21.58,0,0,1,3.36-1.09c1.51-.19,3.2.59,4.63,1l20.61,5.58a1.54,1.54,0,0,0,1.84-1c.63-1.54,8.61-2.09,10.42-2.27a127.32,127.32,0,0,1,17.79-.49,53.5,53.5,0,0,1,13.68,2c3.19,1,7.44-.84,10.72-1.52l15.62-3.26-1.9-1.45c-.05,2.84,4.61,3.16,6.52,3.42a89,89,0,0,0,17.27.46c7.06-.44,14.07-1.38,21.13-1.72a77.46,77.46,0,0,1,10.88.13c1.55.15,3.1.33,4.63.63a11.18,11.18,0,0,0,1.93.44l.63.19c.51.28.61,0,.29-.9-1.79.67-1,3.57.8,2.89,3.51-1.31,2.54-4-.59-5-6.42-2-13.86-1.7-20.47-1.3-7.85.49-15.65,1.64-23.52,1.8a95.52,95.52,0,0,1-10.15-.33,37.56,37.56,0,0,1-4.11-.54,12,12,0,0,0-1.53-.35c-.82-.07-.69-.8-.71.16A1.52,1.52,0,0,0,637.67,3L620.75,6.53c-1.9.39-5.34,1.74-7.11,1.54a19.52,19.52,0,0,1-2.52-.9c-5.28-1.45-11-1.57-16.48-1.62a114.17,114.17,0,0,0-18.29,1.11c-2.8.43-7.74.85-9,3.94l1.85-1L549.26,4.16c-2.8-.76-4.94-1.82-7.7-.88-2.07.71-4.18,1.31-6.31,1.86a142.89,142.89,0,0,1-17,3.29c-1.85.25-3.15.46-4.86-.26-.9-.38-1.8-.73-2.72-1.06-2.28-.83-4.6-1.53-6.94-2.16q-4.12-1.1-8.31-1.93c-2.49-.5-5.59-1.56-8.12-1.38-2.26.17-4.84,1.46-7,2.05-2.72.74-5.46,1.4-8.22,2C466.07,7,458.6,9.66,452.68,8L432.75,2.45a1.55,1.55,0,0,0-1.85,1c-.37.88-4.88,1.59-6.11,1.81a89.77,89.77,0,0,1-11.1,1.13c-7.4.37-15.26.53-22.54-1.08C388,4.64,385.2,2.82,382,2a33.27,33.27,0,0,0-13.66-.24c-3.77.69-7.28,2.19-10.87,3.48A46.73,46.73,0,0,1,342,8l1.06,2.56c5.49-5-11.84-6.7-13.54-6.84-10.92-.93-22.66-.29-33.12,3.16-1.33.44-3.53,1.93-4.89,2-1.14,0-3.33-1.21-4.46-1.59L282,5.58l-8.93-3c-3.32-1.11-5.9-2.31-9.4-1.84-10.38,1.4-21.11,3.19-30.75,7.46h1.51A55.21,55.21,0,0,0,223.18,3.5C219,2.19,213.25-.38,209,1a111.6,111.6,0,0,1-13.49,3.33c-5.75,1.1-12.09,2.68-18,2.59-3,0-6.36-2.26-9-3.47-2.17-1-5.3-3.13-7.61-3.42-1.38-.17-2.85.87-4.13,1.32C154.87,2,153,2.56,151,3.06c-10.9,2.8-22.19,4-33.39,4.71l.4,3c2.5-.74,5.74-2.86,2.79-5.38-3.78-3.22-11.37-3.25-16-3.48A77.08,77.08,0,0,0,83.56,3.61c-2.83.67-8,1.79-8.88,5.16l2.5-.66a28.61,28.61,0,0,0-7.72-4.42C65.87,2.21,61.22,0,57.32.68c-7.62,1.42-15.57,3.24-22.43,7l1.82.23c-2.13-2.41-5.57-3.56-8.55-4.49C23,1.79,17.81.55,12.44,1.44,9.61,1.91-4,4.49,1.15,10.08,2.46,11.5,4.58,9.37,3.27,8Z"/></g></g></svg>