<svg xmlns="http://www.w3.org/2000/svg" viewBox="0 0 185.47 548.57"><defs><style>.cls-1{fill:#db3092;}.cls-2{fill:#3699d5;}.cls-3,.cls-4{fill:#fff;}.cls-4{font-size:24px;font-family:MyriadPro-Regular, Myriad Pro;}.cls-5{letter-spacing:-0.01em;}.cls-6{letter-spacing:-0.01em;}.cls-7{letter-spacing:0em;}</style></defs><g id="Layer_2" data-name="Layer 2"><g id="Layer_1-2" data-name="Layer 1"><rect class="cls-1" x="40.95" y="324.8" width="102.64" height="96.2"/><rect class="cls-2" x="34.21" y="299.31" width="115.8" height="80.3"/><rect class="cls-1" x="15.87" y="296.83" width="45.86" height="27.97"/><rect class="cls-2" x="3.79" y="296.83" width="13.34" height="89.26"/><rect class="cls-1" y="386.09" width="20" height="9.04"/><rect class="cls-1" y="386.09" width="4.11" height="17.15"/><rect class="cls-1" x="16.5" y="386.09" width="4.11" height="17.15"/><rect class="cls-1" x="123.73" y="296.83" width="45.86" height="27.97"/><rect class="cls-2" x="168.33" y="296.83" width="13.34" height="89.26"/><rect class="cls-1" x="165.46" y="386.09" width="20" height="9.04"/><rect class="cls-1" x="181.36" y="386.09" width="4.11" height="17.15"/><rect class="cls-1" x="164.86" y="386.09" width="4.11" height="17.15"/><rect class="cls-2" x="23.58" y="288.18" width="137.38" height="62.8"/><rect class="cls-1" x="69.27" y="260.22" width="45.86" height="27.97"/><ellipse class="cls-2" cx="91.73" cy="220.46" rx="64.76" ry="45.3"/><rect class="cls-2" x="63.62" y="260.1" width="57.15" height="14.1"/><ellipse class="cls-3" cx="70.07" cy="212.2" rx="15" ry="13.13"/><ellipse class="cls-1" cx="70.07" cy="212.2" rx="11.37" ry="9.95"/><ellipse class="cls-3" cx="110.43" cy="212.2" rx="15" ry="13.13"/><ellipse class="cls-1" cx="110.43" cy="212.2" rx="11.37" ry="9.95"/><rect class="cls-2" x="79.05" y="165.47" width="25.36" height="24.1"/><rect class="cls-3" x="70.07" y="240.55" width="40.36" height="7.42"/><rect class="cls-2" x="58.7" y="420.99" width="20.35" height="111.04"/><rect class="cls-1" x="58.7" y="470.11" width="20.35" height="20.29"/><path class="cls-2" d="M74.23,528.29H63.53c-6.83,0-12.37,9.08-12.37,20.28H86.6c0-11.2-5.54-20.28-12.37-20.28Z"/><rect class="cls-2" x="107.28" y="420.99" width="20.35" height="111.04"/><rect class="cls-1" x="107.28" y="470.11" width="20.35" height="20.29"/><path class="cls-2" d="M122.8,528.29H112.1c-6.83,0-12.37,9.08-12.37,20.28h35.44c0-11.2-5.53-20.28-12.37-20.28Z"/><path class="cls-2" d="M32.82,2v93c18.43-4.82,52.81,6.86,61.76.52L80.73,119l23.66-2.67-30,27.72L139,111.57l-34.64-4.27L116,95.05c21.93,0,43.32-6.45,65.78,0V2C128.68-5.55,78.28,11.15,32.82,2Z"/><text class="cls-4" transform="translate(40.95 54.28)">Explo<tspan class="cls-5" x="55.42" y="0">r</tspan><tspan x="63.02" y="0">e n</tspan><tspan class="cls-6" x="93.45" y="0">o</tspan><tspan class="cls-7" x="106.46" y="0">w!</tspan></text></g></g></svg>