<?xml version="1.0" encoding="UTF-8"?>
<svg viewBox="0 0 744.09 1052.4" xmlns="http://www.w3.org/2000/svg">
 <g fill-rule="evenodd">
  <g transform="matrix(-1 0 0 .8152 755.45 306.94)" fill="#484e4e">
   <path d="m357.86-121.57s25.478 18.883 29.643 31.071c5.1264 15.003 0.42157 42.182-5.7143 52.143-6.0527 9.8254-23.634 31.864-16.429 26.071 4.9346-3.9672 12.081-15.314 18.393-23.036 3.347-4.0947 13.815-40.78 8.3929-55.893-4.8614-13.55-34.286-33.571-34.286-33.571v3.2143z"/>
   <path d="m366.96-118.17s38.17 14.353 39.464 32.679c0.49484 7.0087-3.5373 48.604-6.4719 53.214-2.7599 4.3356-20.037 32.449-13.885 26.071 4.8651-5.0437 12.081-17.099 17.5-25.357 2.9016-4.4215 6.5645-47.907 6.0714-54.464-1.5915-21.343-42.679-35.357-42.679-35.357v3.2143z"/>
   <path d="m427.83-105.04s27.564 20.414 28.858 38.739c0.49484 7.0087 6.6681 34.279 2.6195 43.87-4.4665 10.581-21.587 35.784-13.885 29.86 7.3436-5.6491 14.194-19.838 17.5-29.145 5.427-15.281-3.032-38.311-3.02-45.12 0.03919-21.402-32.072-41.418-32.072-41.418v3.2143z"/>
   <path d="m394.74-114.64s34.89 14.311 38.707 36.214c3.3742 19.366 4.2387 52.273-5.2092 63.821-10.575 12.925-41.557 48.875-33.078 42.486 8.4406-6.3602 25.785-25.147 36.945-40.762 12.734-17.817 7.517-45.335 4.5562-66.081-4.0982-28.716-41.921-38.893-41.921-38.893v3.2143z"/>
   <path d="m380.1-117.67s38.17 14.353 39.464 32.679c0.49484 7.0087-1.9392 49.862-2.9364 55.235-0.99213 5.3458-11.274 43.78-6.0566 33.395 2.9842-5.9398 8.5454-28.211 9.6713-32.681 1.2919-5.1284 3.029-49.928 2.5359-56.485-1.5915-21.343-42.679-35.357-42.679-35.357v3.2143z"/>
   <path d="m418.73-106.56s25.291 11.827 26.585 30.153c0.49484 7.0087 3.2812 42.796-2.4313 61.296-1.5164 4.9107-22.699 57.259-14.895 52.335 5.2078-3.286 14.963-40.803 18.51-51.621 8.5147-25.97 2.5239-55.989 2.0308-62.546-1.5915-21.343-29.799-32.832-29.799-32.832v3.2143z"/>
  </g>
  <path d="m313.57 240.58c11.365 1.6634 28.018 5.9878 36.429 7.1429 8.5478 1.174 36.603 3.2332 52.143 5.7143 8.2173 1.312 18.909 4.5093 27.143 5.7143 6.3829 0.93413 15.491-0.73482 21.429 1.7857 10.623 4.5092 18.393 20.647 28.929 25.357 11.331 5.0661 28.834 2.9214 41.071 5 13.84 2.3509 27.149-6.9335 45.714 8.5714-2.025-6.5527-5.3643-10.411-11.429-12.857-9.0512-3.6516-24.112-5.6834-31.429-12.143-4.6731-4.1256-3.0587-11.789-6.7857-16.786-17.211-23.075-48.672-51.348-75.357-62.143-20.335-8.2261-37.279-1.489-65.357-4.6429-25.951-2.9149-96.398-9.3512-107.5 14.286-4.1196 8.7713-6.3265 17.087-4.2857 29.643 2.3263 14.313 34.938 3.2571 49.286 5.3571z" fill="#1e2020"/>
  <path d="m566.43 299.86c-2.025-6.5527-5.3643-10.411-11.429-12.857-9.0512-3.6516-24.112-5.6834-31.429-12.143-4.6731-4.1256-3.0587-11.789-6.7857-16.786-17.211-23.075-48.672-51.348-75.357-62.143-20.335-8.2261-37.279-1.489-65.357-4.6429-25.951-2.9149-96.398-9.3512-107.5 14.286-4.1196 8.7713-6.3265 17.087-4.2857 29.643 22.565-18.111 98.038-40.213 154.12-24.553 56.081 15.66 92.77 69.082 102.42 70.697 32.732 5.4793 38.565 10.859 45.605 18.499z" fill="#373737"/>
  <path d="m457.19 197.05c-3.6713-5.3636-9.3225 0.14313-7.1899 9.412 1.6396 7.1263 12.452 11.334 15.357 18.045 1.8903 4.3663 0.71429 14.286 2.1429 15.714 1.4286 1.4286 13.803 4.0869 19.643 6.0714 10.496 3.5668 25.043 12.343 36.071 9.6429 4.6935-1.1493-5.66-14.229-9.8595-16.62-11.159-6.3523-12.453-5.2943-20.14-10.523-13.977-9.5071-28.379-20.573-36.024-31.742z" fill="#5a6060"/>
  <path d="m441.07 200.84c-2.0938-1.7826-2.6512 6.1556-0.98215 7.8572 1.4672 1.4957 2.5652 0.4687 2.9464-1.875 0-2.1112 0.2381-4.1071-1.9643-5.9822z" fill="#252827"/>
  <path d="m432.32 197.18c-2.434-0.06827-4.6855 2.6547-4.7322 5.0893-0.06071 3.171 2.4585 4.5544 5.1786 7.3214 1.7519 1.7821 2.7978-2.861 4.375-5.8929 1.2906-2.4809-2.026-6.4394-4.8214-6.5178z" fill="#252827"/>
  <path d="m417.32 194.33c-1.437-1.3663-3.6069 1.8568-4.1964 3.75-0.59954 1.9254 0.36209 4.5132 2.2321 5.2678 1.5344 0.61924 3.2373-1.4431 3.9286-2.9464 1.0051-2.186 0.02855-4.1767-1.9643-6.0714z" fill="#252827"/>
  <path d="m398.04 193.43c-5.6517 3.6815-6.1487 5.4496-8.0357 8.2143-2.0055 2.9384-7.0911 12.366-4.2857 10.179 5.7868-4.5128 7.546-12.436 14.464-15.714 0.92994-0.44069-1.2806-3.2402-2.1429-2.6786z" fill="#252827"/>
  <path d="m386.79 193.79c-5.2867 5.458-9.7088 10.892-12.411 17.411-0.92756 2.238-1.789 6.8637-0.26786 4.8214 5.2314-7.0237 11.116-16.284 16.25-21.696 0.7456-0.78605-2.8176-1.3139-3.5714-0.53572z" fill="#252827"/>
  <path d="m375.54 194.06c-2.7262 1.7145-15.629 19.911-10.893 16.518 3.987-2.856 7.5166-11.184 13.214-15.446 1.1491-0.85954-0.81425-2.0193-2.3214-1.0714z" fill="#252827"/>
  <path d="m316.75 188.48c-22.243 0.98119-42.631 5.2814-48.182 17.1-4.1196 8.7713-6.3265 17.087-4.2857 29.643 1.1632 7.1565 9.8976 7.9707 20.135 7.2584-3.629-22.566-2.5124-30.081 32.332-54.001z" fill="#1e2020"/>
  <path d="m480.51 237.64c7.9925 3.7052 7.2381-3.6291 17.24 2.5928 6.3639 2.3514 9.7173 0.76933 15.605-0.91606-11.159-6.3523-12.453-5.2943-20.14-10.523-6.9885-4.7536-14.083-9.8969-20.387-15.248 1.5814 7.7584 2.6227 14.801 7.6819 24.094z" fill="#373737"/>
  <path d="m283.57 304.86c-6.2116-1.1924-10.656 2.5548-18.929 3.5714-8.1079 0.99638-4.5042 20.078-9.6428 26.429-3.0768 3.8022-9.5035 6.8303-14.286 7.8572-2.6272 0.56412-6.3217-0.06256-8.9286-0.71429s-8.2143-3.5714-8.2143-3.5714 4.6058 5.2638 6.0714 7.8571c1.0181 1.8015 1.1317 3.8577 2.8571 5 2.9495 1.9527 8.3737 0.576 11.786-0.35715 5.7819-1.5813 7.8908-5.0864 14.286-7.5 6.1833-2.3337 3.8652-16.431 10.357-21.429 4.6719-3.5963 13.055-4.3473 18.571-6.4286 2.3828-0.89902 3.3445-3.5348 3.5714-6.0714 0.37335-4.1742-3.3842-3.8528-7.5-4.6429z" fill="#484e4e"/>
  <path d="m283.57 309.86c-6.2116-1.1924-7.7984 2.5548-16.071 3.5714-8.1079 0.99638-3.0756 15.436-8.2143 21.786-3.0768 3.8022-9.5035 8.2589-14.286 9.2857-2.6272 0.56412-7.036 3.5089-9.6429 2.8571s-11.786-8.9286-11.786-8.9286 4.6058 5.2638 6.0714 7.8571c1.0181 1.8015 1.1317 3.8577 2.8571 5 2.9495 1.9527 8.3737 0.576 11.786-0.35715 5.7819-1.5813 7.8908-5.0864 14.286-7.5 6.1833-2.3337 3.8652-16.431 10.357-21.429 4.6719-3.5963 13.055-4.3473 18.571-6.4286 2.3828-0.89902 3.3445-3.5348 3.5714-6.0714 0.37335-4.1742-3.3842 1.1472-7.5 0.35714z" fill="#373737"/>
 </g>
 <g fill-rule="evenodd">
  <path d="m438.27 256.27c-13.015 11.71-32.285 14.355-48.752 18.622-7.2521 1.8793-16.319 6.8201-22.735 10.332-2.3962 1.3115-7.1366 1.4185-8.2143 3.9286-4.9324 11.489 10.763 27.757 14.643 39.643 4.8998 15.009 13.915 39.208 16.411 54.798 0.64354 4.0202-0.43494 7.7555 0 11.804 0.5388 5.0148 2.1988 8.3699 1.8037 13.398-0.1621 2.0629-1.3348 4.7186-2.5 6.4286-1.0674 1.5665-3.5653 2.5203-4.8954 5.5484 2.0614 0.63941 5.3956-2.7559 5.2525-1.2627-0.6061 6.3254-4.6793 11.803-7.5 16.429-3.3366 5.4718-11.303 11.832-13.972 15.776-6.3679 9.4096-14.292 9.563-19.242 14.939-1.993 2.1641-5.3571 8.2143-5.3571 8.2143l5.7143-3.5714 4.347 0.41843c-0.12001 0.1 7.2674-4.3934 12.02-7.9005 3.4996-2.5823 6.3599-6.2194 6.3599-6.2194l5.5484-2.6584s-6.199 9.4596-7.6226 14.531c-0.8692 3.0964-1.3673 11.472-1.3673 11.472s6.5153-7.6898 9.347-10.278c3.2512-2.9716 10.653-8.2935 10.653-8.2935l-0.29587-5.671 6.0102-3.6148 0.19126-9.9821 4.0511-5.6889 2.5433 10.804 2.3087 9.3619 5.5484 12.648 3.5714 4.6428 0.41842-19.408-0.77557-5.9489-0.71428-8.5714s-2.1429-8.5714-0.71429-11.429 0.40933-10.844 1.4286-15.357c0.75414-3.3394 4.1206-7.2961 3.9286-10.714-0.0806-1.4352-2.3468-2.8628-2.1429-4.2857 0.29043-2.0262 5.3952-3.0963 4.6429-5-5.639-14.269-10.747-20.745-13.553-29.686-3.6515-11.631-4.4828-24.757-5.8981-36.865-0.66754-5.711-0.5484-15.949-0.5484-17.735 0-1.7857 3.774-5.4995 2.5-7.5-1.5064-2.3653-6.8934 0.3915-9.2857-1.0714-1.3183-0.80614-2.1491-2.9122-2.8571-4.2857-1.1033-2.1401-3.6047-5.2112-2.8571-7.5 1.4671-4.4917 10.714-7.8571 13.214-8.5714 2.5-0.71428 13.28 0.95701 17.255 0.81889 3.5739-0.12418 4.4312-0.18911 7.7451-1.5332 0.8541-0.34641 0.15538-2.6533 2.5-1.7857 6.5231 2.4138 9.7861-1.9159 13.214-4.2857 2.8217-1.9505 11.436-18.778 11.436-18.778s-9.9433-1.6808-12.806 0.89503z" fill="#373737"/>
  <path d="m373.19 292.02c1.4014 1.9578 7.1429 3.9286 8.5714 3.9286s0.59597-2.2699 1.4286-2.5c1.8958-0.52393 3.9091 2.5074 4.1072 4.4643 0.21412 2.1159-2.8398 1.4707-3.75 3.3929-1.6514 3.4874-0.00111 12.465-3.5714 13.929-3.4356 1.4083-4.1088-8.4878-7.5-10-2.6493-1.1814-3.2201 0.34082-9.8214-1.25-2.4317-0.58599-2.8366-6.036-1.6071-8.2143 1.0171-1.802 6.6699-0.7831 7.5-2.6786 1.5476-0.35714 3.0952-0.71428 4.6429-1.0714z" fill="#252827"/>
  <path d="m343.77 277.16c12.085-8.9549 19.904-25.091 29.294-35.355 4.6292-5.0599 12.842-11.062 16.794-16.668 3.6506-5.1785 4.4718-14.542 9.4702-18.435 1.7115-1.3332 5.0059-2.18 7.0711-1.5152 5.2587 1.6926 12.003 8.1252 12.374 13.637 0.19786 2.9354-2.1661 7.7752-4.663 9.3312-31.259 19.48-49.183 38.145-66.3 59.359-1.5409 1.9097-0.22438 5.8579-1.2627 8.0812-0.68156 1.4594-3.4588 2.4317-3.5355 4.0406-0.2533 5.3135 13.319 11.219 13.211 16.538-0.13436 6.6367-9.9682 14.067-16.494 15.282-7.9502 1.4802-19.574 0.65053-25.254-4.5457-7.4175-6.7863-10.354-31.567-8.8388-32.325 1.5152-0.75761 3.3227-3.9969 4.0406-6.0609 1.2236-3.5179-0.91364-9.185 1.0102-12.374 1.5306-2.5375 5.3748-5.1406 8.3338-5.3033 4.9732-0.27351 9.9971 6.4451 14.9 7.3236 2.9236 0.52392 7.4626 0.75818 9.849-1.0102z" fill="#484e4e"/>
  <path d="m357.86 198.43s25.478 18.883 29.643 31.071c5.1264 15.003 0.42157 42.182-5.7143 52.143-6.0527 9.8254-23.634 31.864-16.429 26.071 4.9346-3.9672 12.081-15.314 18.393-23.036 3.347-4.0947 13.815-40.78 8.3929-55.893-4.8614-13.55-34.286-33.571-34.286-33.571v3.2143z" fill="#484e4e"/>
  <path d="m366.96 201.83s38.17 14.353 39.464 32.679c0.49484 7.0087-3.5373 48.604-6.4719 53.214-2.7599 4.3356-20.037 32.449-13.885 26.071 4.8651-5.0437 12.081-17.099 17.5-25.357 2.9016-4.4215 6.5645-47.907 6.0714-54.464-1.5915-21.343-42.679-35.357-42.679-35.357v3.2143z" fill="#484e4e"/>
  <path d="m427.83 214.96s27.564 20.414 28.858 38.739c0.49484 7.0087 6.6681 34.279 2.6195 43.87-4.4665 10.581-21.587 35.784-13.885 29.86 7.3436-5.6491 14.194-19.838 17.5-29.145 5.427-15.281-3.032-38.311-3.02-45.12 0.03919-21.402-32.072-41.418-32.072-41.418v3.2143z" fill="#484e4e"/>
  <path d="m394.74 205.36s34.89 14.311 38.707 36.214c3.3742 19.366 4.2387 52.273-5.2092 63.821-10.575 12.925-41.557 48.875-33.078 42.486 8.4406-6.3602 25.785-25.147 36.945-40.762 12.734-17.817 7.517-45.335 4.5562-66.081-4.0982-28.716-41.921-38.893-41.921-38.893v3.2143z" fill="#484e4e"/>
  <path d="m380.1 202.33s38.17 14.353 39.464 32.679c0.49484 7.0087-1.9392 49.862-2.9364 55.235-0.99213 5.3458-11.274 43.78-6.0566 33.395 2.9842-5.9398 8.5454-28.211 9.6713-32.681 1.2919-5.1284 3.029-49.928 2.5359-56.485-1.5915-21.343-42.679-35.357-42.679-35.357v3.2143z" fill="#484e4e"/>
  <path d="m418.73 213.44s25.291 11.827 26.585 30.153c0.49484 7.0087 3.2812 42.796-2.4313 61.296-1.5164 4.9107-22.699 57.259-14.895 52.335 5.2078-3.286 14.963-40.803 18.51-51.621 8.5147-25.97 2.5239-55.989 2.0308-62.546-1.5915-21.343-29.799-32.832-29.799-32.832v3.2143z" fill="#484e4e"/>
  <path d="m432.83 214.96s27.564 20.414 28.858 38.739c0.49484 7.0087 5.9971 34.261 1.9485 43.852-4.4665 10.581-11.736 30.184-6.8142 21.778 3.2952-5.628 6.3657-11.504 9.6713-20.811 5.427-15.281-1.6034-38.546-1.5914-45.355 0.03919-21.402-32.072-41.418-32.072-41.418v3.2143z" fill="#484e4e"/>
  <path d="m439.08 215.85s24.528 16.306 25.822 34.632c0.49484 7.0087 7.0685 37.476 3.02 47.067-4.4665 10.581-9.7714 24.112-4.8499 15.707 3.2952-5.628 4.4014-5.4325 7.707-14.74 5.427-15.281-2.6748-41.76-2.6628-48.569 0.03919-21.402-29.036-37.311-29.036-37.311v3.2143z" fill="#484e4e"/>
  <path d="m446.4 217.87s20.803 11.635 22.097 29.96c0.49484 7.0087 6.9839 37.482 3.967 47.446-3.2038 10.581-9.5188 23.102-4.5974 14.697 3.2952-5.628 4.1489-4.4224 7.4545-13.73 5.427-15.281-4.19-41.76-4.178-48.569 0.03919-21.402-24.743-33.018-24.743-33.018v3.2143z" fill="#484e4e"/>
  <path d="m450.95 216.1s18.275 11.026 20.961 28.698c0.99173 6.5264 2.3724 18.519 2.842 13.655 0.76598-7.9343 0.52015-9.353-0.00652-13.812-2.5031-21.191-23.291-30.24-23.291-30.24l-0.50508 1.699z" fill="#484e4e"/>
  <path d="m346.45 282.34c16.478-13.563 24.239-26.137 58.879-57.509 3.9096-3.5408 3.0743-3.3034 13.446-6.0058 0.19786 2.9354-2.1661 7.7752-4.663 9.3312-31.259 19.48-49.183 38.145-66.3 59.359-1.5409 1.9097-0.22438 5.8579-1.2627 8.0812-0.68156 1.4594-3.4588 2.4317-3.5355 4.0406-3.6055-6.4506-0.8309-12.775 3.4362-17.297z" fill="#252827"/>
  <path d="m343.77 277.16c12.085-8.9549 19.904-25.091 29.294-35.355 4.6292-5.0599 12.842-11.062 16.794-16.668 3.6506-5.1785 4.4718-14.542 9.4702-18.435 1.7115-1.3332 5.0059-2.18 7.0711-1.5152-17.602 26.83-49.429 63.479-59.144 72.772-13.348 14.554-24.477 6.1356-36.568-1.8087 1.5306-2.5375 5.3748-5.1406 8.3338-5.3033 4.9732-0.27351 9.9971 6.4451 14.9 7.3236 2.9236 0.52392 7.4626 0.75818 9.849-1.0102z" fill="#5a6060"/>
  <path d="m343.02 299.63c-5.9958 17.865-9.0195 20.29-28.537 27.274-3.7087-3.3931-6.2972-11.285-7.7692-18.423 13.025-9.7929 16.713-12.587 21.911-13.018 6.692-2.1186 6.9471 1.3438 14.395 4.1669z" fill="#373737"/>
  <path d="m318.21 221.29c1.6494-2.3548 7.1428-3.5714 8.5714-4.2857 1.4286-0.71429 5.3428-5.2782 8.2143-5 3.3214 0.32182 7.0348 4.3785 8.2143 7.5 1.7524 4.6376-1.7857 14.286-1.7857 16.429s1.8015 16.742-3.2143 20.357c-1.5861 1.1432-5.6738 0.73217-6.4286-1.0714-3.5265-8.4264-7.1306-15.876-12.857-23.929-1.6252-2.2852-2.323-7.7032-0.71428-10z" fill="#484e4e"/>
  <path d="m318.21 221.29c1.6494-2.3548 7.1428-3.5714 8.5714-4.2857 1.4286-0.71429 5.3428-5.2782 8.2143-5-4.563 6.9929-8.1765 11.435-8.2143 17.857-0.04064 7.2586 5.7548 27.161 5 25.357-3.5265-8.4264-7.1306-15.876-12.857-23.929-1.6252-2.2852-2.323-7.7032-0.71428-10z" fill="#5a6060"/>
  <path d="m477.8 255.86c3.2101-4.9386 6.4056-1.9516 9.3439-3.283 1.9616-0.88881 3.3249-3.6923 5.3033-3.283 7.3236 1.5152 10.822 9.6759 9.5964 16.162-2.3772 12.586-2.3102 30.044-2.0203 41.921 0.17204 7.0482 0.79 17.732 2.7779 24.496 1.7786 6.0519 12.39 16.354 8.0812 20.961 2.6106 2.3565 4.1997 4.5566 4.2932 11.112 0.04557 3.1961 1.4487 5.7419 6.566 10.859 0.01558 5.0663 8.9166 11.035 13.132 16.162 3.7919 4.6127 8.6215 12.628 12.627 14.395 3.0269 1.335-3.3723 12.535-0.50508 27.274 1.742 8.955-3.8917 21.285-2.5254 30.305 1.2727 8.4016 9.507 14.215 9.0914 25.001-13.336-6.9335-14.964-23.194-18.349-20.152-4.0236 3.6151-6.7323 13.636-9.9356 18.385-2.1237 3.148-5.0133 4.9406-6.8185 6.8185 1.0304-9.2457 7.0362-20.73 8.9614-28.313 1.9737-7.7743-8.6268 5.1677-23.609 18.211-3.2323 2.8141-6.7471 7.3653-11.364 11.869-0.46816-8.1061 8.3972-17.204 12.627-20.961 5.3949-4.792 7.3428-5.7388 11.112-11.364 4.6139-6.8868 8.9547-17.983 8.5863-26.264-0.20516-4.6113-3.6904-9.1561-6.0609-14.142-1.6317-3.432-1.081-8.8274-1.0102-12.627 0.04834-2.5932 0.4936-9.4711-1.5152-11.112-5.8704-4.7943-6.198-8.4584-12.122-12.122-2.9744-1.8395-6.3119-1.8071-8.2075-6.0609-3.0481-6.8402-8.0824-7.0953-9.9753-13.637-0.63173-2.1833 0.75233-5.4314 0-7.5761-0.32115-0.91553-1.6589-1.625-2.0203-2.5254-2.5499-6.3528-1.2895-13.484-1.2627-20.329 0.01845-4.7191 0.72616-13.337 0.75762-18.056 0.02433-3.6491 0.68539-10.493 0.63135-14.142-0.12585-8.4965 0.72909-17.81-0.12627-26.264-0.72509-7.1667-9.3439-16.668-6.0609-21.718z" fill="#484e4e"/>
  <path d="m477.8 255.86c3.2101-4.9386 6.4056-1.9516 9.3439-3.283 1.9616-0.88881 3.3249-3.6923 5.3033-3.283 7.3236 1.5152 0.16223 4.9211-3.6178 10.805-3.3111 5.1542-1.2388 22.544-0.94887 34.421-0.12624 10.607-2.6362 35.008-1.9993 64.375-0.32115-0.91553-1.6589-1.625-2.0203-2.5254-2.5499-6.3528-1.2895-13.484-1.2627-20.329 0.01845-4.7191 0.72616-13.337 0.75762-18.056 0.02433-3.6491 0.68539-10.493 0.63135-14.142-0.12585-8.4965 0.72909-17.81-0.12627-26.264-0.72509-7.1667-9.3439-16.668-6.0609-21.718z" fill="#252827"/>
  <path d="m490.36 328.43c5.3768-0.77005 6.4286 14.643 6.7857 16.786 0.35714 2.1428-1.3902 7.559 0.35714 10 1.4014 1.9578 6.0714 2.8571 7.5 2.8571s0.59597-2.2699 1.4286-2.5c1.8958-0.52393 5.5163 1.2574 5.7143 3.2143 0.21412 2.1159-4.447 2.7207-5.3572 4.6429-1.6514 3.4874 3.2132 11.394-0.35714 12.857-3.4356 1.4083-5.5374-7.0592-8.9286-8.5714-2.6493-1.1814-7.4934 1.2337-9.6429-0.71429-1.8534-1.6797-2.658-6.036-1.4286-8.2143 1.0171-1.802 5.5985-0.60453 6.4286-2.5 1.293-2.9525-3.4081-6.8191-3.9286-10-0.34646-2.1174 0.19678-5.0033 0.35714-7.1428 0.24145-3.2213-2.1263-10.256 1.0714-10.714z" fill="#252827"/>
  <path d="m521.07 420.58c1.7857-1.4286 2.1429-4.6429 5-5.3571 2.8571-0.71429 3.5138-0.95447 5-1.4286 1.8402-0.58702 2.1429-2.1428 6.0714-2.1428s7.8058 3.0147 8.5714 6.0714c0.34926 1.3944-0.85156 3.6542-2.1429 4.2857-2.9446 1.4402-7.444-1.9187-10.714-2.1429-3.5339-0.24221-11.786 0.71429-11.786 0.71429z" fill="#252827"/>
  <path d="m524.64 454.15c0-2.1429 5-30.357 5-30.357s0.29204 14.497-0.35714 16.161c-1.4286 3.6607-5 15.268-4.6429 14.196z" fill="#252827"/>
  <path d="m535.71 427.01s-0.65738 22.213-5 30.357c-0.77287 1.4495 3.1285 4.586 3.5714 3.2143 4.1151-12.744 1.4286-33.571 1.4286-33.571z" fill="#252827"/>
  <path d="m541.43 427.01c0.35714 2.1429-1.2058 16.943-1.0714 33.214 0.0071 0.86379 2.8442 0.50657 2.8572-0.35715 0.25838-17.218-1.7857-32.857-1.7857-32.857z" fill="#252827"/>
  <path d="m498.74 486.22c1.1675-1.4342 20.055-17.724 20.055-17.724s-7.6932 9.8541-9.056 10.631c-2.9988 1.7091-11.834 7.625-10.999 7.0932z" fill="#252827"/>
  <path d="m520.22 491.53c0.58064-1.5652 12.505-21.017 12.505-21.017s-3.6783 10.657-4.6847 11.722c-2.2146 2.3435-8.4166 9.9958-7.8206 9.2958z" fill="#252827"/>
  <path d="m550.19 486.18c-0.58064-1.4325-12.505-19.236-12.505-19.236s3.6783 9.7532 4.6847 10.728c2.2146 2.1448 8.4166 9.1484 7.8206 8.5077z" fill="#252827"/>
  <path d="m389.64 404.15c1.7857-1.4286 2.1429-4.6429 5-5.3571 2.8571-0.71429 3.5138-0.95447 5-1.4286 1.8402-0.58702 2.1429-2.1428 6.0714-2.1428s7.8058 3.0147 8.5714 6.0714c0.34926 1.3944-0.85156 3.6542-2.1429 4.2857-2.9446 1.4402-7.444-1.9187-10.714-2.1429-3.5339-0.24221-11.786 0.71429-11.786 0.71429z" fill="#252827"/>
  <path d="m381.38 445.44c0.64294-2.0908 13.878-28.465 13.878-28.465s-4.0712 14.212-5.1895 15.686c-2.4611 3.242-9.3506 13.743-8.6884 12.78z" fill="#252827"/>
  <path d="m403.03 409.76s-5.4526 21.543-11.456 28.554c-1.0684 1.2477 2.061 5.1547 2.7905 3.9115 6.7775-11.55 8.6655-32.465 8.6655-32.465z" fill="#252827"/>
  <path d="m406.13 406.37c0.35714 2.3836-1.2058 18.847-1.0714 36.947 0.0071 0.96086 2.8442 0.5635 2.8572-0.39728 0.25838-19.153-1.7857-36.549-1.7857-36.549z" fill="#252827"/>
  <path d="m353.04 471.15c1.2357-1.3758 20.891-16.73 20.891-16.73s-8.1624 9.4692-9.5612 10.179c-3.0782 1.5615-12.19 7.0418-11.33 6.5511z" fill="#252827"/>
  <path d="m372.33 475.27c0.85513-1.4338 16.113-18.398 16.113-18.398s-5.5518 9.8119-6.7348 10.676c-2.6033 1.9026-10.091 8.3018-9.3782 7.7216z" fill="#252827"/>
  <path d="m409.89 469.88c-0.27398-1.5212-8.2872-21.394-8.2872-21.394s1.5964 10.301 2.3811 11.461c1.7268 2.554 6.3579 10.682 5.9062 9.9328z" fill="#252827"/>
  <path d="m277.03 338.69c4.3954-4.1367 4.0847-21.576 4.7982-28.537 0.56155-5.4785 1.5498-11.509-1.2627-19.698-0.4006-1.1664-1.7197-1.6756-3.283-5.0508-0.68069-1.4696 1.3606-9.0852 2.0203-11.364 2.7223-9.4049 12.332-18.233 16.415-33.588l-6.8185-3.5355c-5.3472 18.45-14.526 28.614-17.93 43.184-1.0873 4.653-2.7779 11.364-2.7779 18.435 0 4.5768-1.1018 10.977-0.75761 14.9 0.31243 3.56 1.0635 6.5332 2.5254 9.0914s5.2536 17.873 7.0711 16.162z" fill="#484e4e"/>
  <path d="m273.5 305.86c2.0433-12.47-1.0086-15.607 3.5355-32.072 2.7223-9.4049 10.059-16.212 14.142-31.567l-2.2728-5.3033c-5.3472 18.45-14.526 28.614-17.93 43.184-1.0873 4.653-2.7779 11.364-2.7779 18.435 0 4.5768-1.1018 10.977-0.75761 14.9 0.31243 3.56 1.0635 6.5332 2.5254 9.0914s1.7181-14.957 3.5355-16.668z" fill="#373737"/>
 </g>
 <g>
  <path d="m283.75 110.04c-9.7854-2.8992-9.673 2.7268-31.607 3.75-8.3385 0.38901-15.183 1.2464-26.25 7.3214-9.8059 5.3826-12.495 16.406-13.929 27.5-0.28974 2.2415-0.31882 12.379-1.9643 13.929-1.1726 1.1042-3.9206 2.1508-4.8214 3.9286-0.87174 1.7203 1.1408 4.776 0.53571 6.6071-1.2977 3.9269-6.3996 8.1562-7.5 12.143-0.85953 3.1139-1.3726 6.9147 0.35714 9.6428 2.9751 4.6923 7.2521 2.9451 8.3928 5.5357 0.57605 1.3083-1.4777 2.3388-1.25 3.75 0.45961 2.8481 3.8718 5.5591 5 8.2143 4.2889 10.093 6.8613 22.619 9.2857 35.357 0.30579 1.6066 4.4004 3.1038 5 5.5357 1.5771 6.3964-0.28252 10.885 3.5714 15.179 4.1465 4.6199 10.772 3.4746 18.571 7.1429 3.5597 1.6742 7.1461-4.1863 11.071-3.9286 0.53457 0.0351 3.0358-0.34637 3.5714-0.35714 3.7308-0.07501 6.9621-7.1187 10-9.2857 2.9772-2.1237 6.7283-3.366 10-5 3.7025-1.8491 9.7859-2.226 12.857-5 4.0182-3.6294 3.7303-13.387 6.7857-17.857 5.0962-7.456 15.766-13.679 21.429-20.714 1.8275-2.2705 5.2686-4.9768 5.7143-7.8571 0.25906-1.6742-2.3282-3.7523-1.7857-5.3572 1.0372-3.0686 9.0245-3.7873 8.3929-6.9643-0.9279-4.6674-4.2947-6.7972-4.4643-10.536-0.07677-1.6923 1.2631-3.4954 1.0714-5.1786-0.25575-2.2457-2.2794-4.5363-2.5-6.7857-0.2118-2.1591 2.2006-4.4777 1.7857-6.6071-0.30459-1.5634-3.0682-2.4174-3.5714-3.9286-0.71405-2.1444 1.1901-5.2905 0.71429-7.5-0.36368-1.6889-2.4974-3.3102-2.8572-5-0.44838-2.1064-0.04239-4.6894-0.53571-6.7857-0.78309-3.3276-3.6882-6.2309-5.5357-9.1071-2.0075-3.1254-3.1284-8.9834-6.0714-11.25-2.9528-2.2741-8.8041-1.6924-11.786-3.9286-1.3553-1.0164-1.5942-2.7189-3.2143-3.2143-3.6358-1.1118-5.806-0.8276-14.464-3.3929z" fill="none"/>
  <path d="m247.04 236.54c-3.4524 10.595-3.6688 16.778-4.935 25.862 2.5-0.11905 3.8636-0.74317 6.3636-0.86222-1.5476-9.7619-3.0952-15.595-1.4286-25z" fill="#a79d91" fill-rule="evenodd"/>
  <path d="m248.89 231.54c3.4524 10.595 3.6688 16.778 4.935 25.862-2.5-0.11905-3.8636-0.74317-6.3636-0.86222 1.5476-9.7619 3.0952-15.595 1.4286-25z" fill="#a79d91" fill-rule="evenodd"/>
  <path d="m253.89 225.83c3.4524 10.595 3.6688 16.778 4.935 25.862-2.5-0.11905-3.8636-0.74317-6.3636-0.86222 1.5476-9.7619 3.0952-15.595 1.4286-25z" fill="#a79d91" fill-rule="evenodd"/>
  <path d="m258.49 224.32c-1.0843 11.091 0.03892 17.175 0.76308 26.318 2.4154-0.65581 3.6121-1.5595 6.0275-2.2153-3.618-9.1978-6.3882-14.56-6.7906-24.102z" fill="#a79d91" fill-rule="evenodd"/>
  <path d="m262.42 222.18c-1.0843 11.091 0.03892 17.175 0.76308 26.318 2.4154-0.65581 3.6121-1.5595 6.0275-2.2153-3.618-9.1978-6.3882-14.56-6.7906-24.102z" fill="#a79d91" fill-rule="evenodd"/>
  <path d="m266.35 221.11c-1.0843 11.091 0.03892 17.175 0.76308 26.318 2.4154-0.65581 3.6121-1.5595 6.0275-2.2153-3.618-9.1978-6.3882-14.56-6.7906-24.102z" fill="#a79d91" fill-rule="evenodd"/>
  <path d="m269.92 218.61c-1.0843 11.091 0.03892 17.175 0.76308 26.318 2.4154-0.65581 3.6121-1.5595 6.0275-2.2153-3.618-9.1978-6.3882-14.56-6.7906-24.102z" fill="#a79d91" fill-rule="evenodd"/>
  <path d="m273.49 218.61c-1.0843 11.091 0.03892 17.175 0.76308 26.318 2.4154-0.65581 3.6121-1.5595 6.0275-2.2153-3.618-9.1978-6.3882-14.56-6.7906-24.102z" fill="#a79d91" fill-rule="evenodd"/>
  <path d="m277.42 220.39c-1.0843 11.091 0.03892 17.175 0.76308 26.318 2.4154-0.65581 3.6121-1.5595 6.0275-2.2153-3.618-9.1978-6.3882-14.56-6.7906-24.102z" fill="#a79d91" fill-rule="evenodd"/>
  <path d="m248.89 231.54c3.4524 10.595 3.6688 16.778 4.935 25.862-2.5-0.11905-3.8636-0.74317-6.3636-0.86222 1.5476-9.7619 3.0952-15.595 1.4286-25z" fill="#a79d91" fill-rule="evenodd"/>
  <path d="m198.57 194.86c2.9751 4.6923 7.2521 2.9451 8.3928 5.5357 0.57605 1.3083-1.4777 2.3388-1.25 3.75 0.45961 2.8481 3.8718 5.5591 5 8.2143 4.2889 10.093 6.8613 22.619 9.2857 35.357 0.30579 1.6066 4.4004 3.1038 5 5.5357 1.5771 6.3964-0.28252 10.885 3.5714 15.179 4.1465 4.6199 10.772 3.4746 18.571 7.1429 3.5597 1.6742 7.1461-4.1863 11.071-3.9286 0.53457 0.0351 3.0358-0.34637 3.5714-0.35714 3.7308-0.07501 6.9621-7.1187 10-9.2857 2.9772-2.1237 6.7283-3.366 10-5 3.7025-1.8491 9.7859-2.226 12.857-5 4.0182-3.6294 3.7303-13.387 6.7857-17.857 5.0962-7.456 15.766-13.679 21.429-20.714 1.8275-2.2705 5.2686-4.9768 5.7143-7.8571 0.25906-1.6742-2.3282-3.7523-1.7857-5.3572 0 0-14.98-18.291-20.088-15.512-5.108 2.779-6.1853 21.838-12.283 27.338-7.741 6.9832-12.01 16.851-19.646 21.358s-14.266 4.5213-19.322 7.9769c-3.6442 2.4905-7.0118 8.8157-11.339 7.9464-3.9968-0.80283-5.2722-8.0908-6.317-12.031-1.5307-5.7733-1.9382-12.142-7.3884-17.031-3.4858-3.1273 4.4785-7.4693 6.5402-11.674 2.5884-5.279 13.354-9.9841 10.112-14.888-7.868-11.9-48.482 1.1607-48.482 1.1607z" fill="#2e2e2e" fill-rule="evenodd"/>
  <path d="m239.18 234.75c-3.4524 10.595-3.6688 16.778-4.935 25.862 2.5-0.11905 3.8636-0.74317 6.3636-0.86222-1.5476-9.7619-3.0952-15.595-1.4286-25z" fill="#a79d91" fill-rule="evenodd"/>
  <path d="m233.82 231.54c-3.4524 10.595-3.6688 16.778-4.935 25.862 2.5-0.11905 3.8636-0.74317 6.3636-0.86222-1.5476-9.7619-3.0952-15.595-1.4286-25z" fill="#a79d91" fill-rule="evenodd"/>
  <path d="m229.54 229.4c-3.4524 10.595-3.6688 16.778-4.935 25.862 2.5-0.11905 3.8636-0.74317 6.3636-0.86222-1.5476-9.7619-3.0952-15.595-1.4286-25z" fill="#a79d91" fill-rule="evenodd"/>
  <path d="m227.04 224.4c-3.4524 10.595-3.6688 16.778-4.935 25.862 2.5-0.11905 3.8636-0.74317 6.3636-0.86222-1.5476-9.7619-3.0952-15.595-1.4286-25z" fill="#a79d91" fill-rule="evenodd"/>
  <path d="m224.89 220.47c-3.4524 10.595-3.6688 16.778-4.935 25.862 2.5-0.11905 3.8636-0.74317 6.3636-0.86222-1.5476-9.7619-3.0952-15.595-1.4286-25z" fill="#a79d91" fill-rule="evenodd"/>
  <path d="m198.57 194.86c2.9751 4.6923 7.2521 2.9451 8.3928 5.5357 0.57605 1.3083-1.4777 2.3388-1.25 3.75 0.45961 2.8481 3.8718 5.5591 5 8.2143 4.2889 10.093 6.8613 22.619 9.2857 35.357 0.30579 1.6066 4.4004 3.1038 5 5.5357 1.5771 6.3964-0.28252 10.885 3.5714 15.179 4.1465 4.6199 10.772 3.4746 18.571 7.1429 3.5597 1.6742 7.1461-4.1863 11.071-3.9286 0.53457 0.0351 3.0358-0.34637 3.5714-0.35714 3.7308-0.07501 6.9621-7.1187 10-9.2857 2.9772-2.1237 6.7283-3.366 10-5 3.7025-1.8491 9.7859-2.226 12.857-5 4.0182-3.6294 3.7303-13.387 6.7857-17.857 5.0962-7.456 15.766-13.679 21.429-20.714 1.8275-2.2705 5.2686-4.9768 5.7143-7.8571 0.25906-1.6742-2.3282-3.7523-1.7857-5.3572 0 0-14.98-18.291-20.088-15.512-5.108 2.779-6.1853 21.838-12.283 27.338-7.741 6.9832-12.01 16.851-19.646 21.358s-14.266 4.5213-19.322 7.9769c-3.6442 2.4905-7.0118 8.8157-11.339 7.9464-3.9968-0.80283-11.344-4.1622-12.388-8.1027-1.5307-5.7733-6.2239-8.9273-8.817-19.531-1.1124-4.549 3.7642-11.041 9.7545-14.888 4.9468-3.1774 17.64-8.1984 14.397-13.103-7.868-11.9-48.482 1.1607-48.482 1.1607z" fill="#484e4e" fill-rule="evenodd"/>
  <g fill="#a79d91" fill-rule="evenodd">
   <path d="m240.04 204.99c-3.4524-10.595-9.2246-11.98-10.491-21.064 2.5 0.11905 9.4194-4.055 11.919-3.936-1.5476 9.7619-3.0952 15.595-1.4286 25z"/>
   <path d="m248.4 215.09c3.4524-10.595 3.6688-16.778 4.935-25.862-2.5 0.11905-3.8636 0.74317-6.3636 0.86222 1.5476 9.7619 3.0952 15.595 1.4286 25z"/>
   <path d="m254.46 213.83c3.4524-10.595 3.6688-16.778 4.935-25.862-2.5 0.11905-3.8636 0.74317-6.3636 0.86222 1.5476 9.7619 3.0952 15.595 1.4286 25z"/>
   <path d="m261.03 213.83c3.4524-10.595 3.6688-16.778 4.935-25.862-2.5 0.11905-3.8636 0.74317-6.3636 0.86222 1.5476 9.7619 3.0952 15.595 1.4286 25z"/>
   <path d="m271.61 217.87c-3.4524-10.595-3.6688-16.778-4.935-25.862 2.5 0.11905 3.8636 0.74317 6.3636 0.86222-1.5476 9.7619-3.0952 15.595-1.4286 25z"/>
   <path d="m276.4 214.08c-3.4524-10.595-3.6688-16.778-4.935-25.862 2.5 0.11905 3.8636 0.74317 6.3636 0.86222-1.5476 9.7619-3.0952 15.595-1.4286 25z"/>
   <path d="m285.75 219.13c-5.4727-9.5851-7.2044-16.021-6.7028-27.883 2.5 0.11905 3.8636 0.74317 6.3636 0.86222-1.5476 9.7619-1.3275 17.616 0.3392 27.02z"/>
   <path d="m290.29 212.57c-3.4524-10.595-3.6688-16.778-4.935-25.862 2.5 0.11905 3.8636 0.74317 6.3636 0.86222-1.5476 9.7619-3.0952 15.595-1.4286 25z"/>
   <path d="m295.34 207.52c-3.4524-10.595-3.6688-16.778-4.935-25.862 2.5 0.11905 3.8636 0.74317 6.3636 0.86222-1.5476 9.7619-3.0952 15.595-1.4286 25z"/>
   <path d="m245.09 208.78c-3.4524-10.595-3.6688-16.778-4.935-25.862 2.5 0.11905 3.8636 0.74317 6.3636 0.86222-1.5476 9.7619-3.0952 15.595-1.4286 25z"/>
   <path d="m233.98 208.02c-3.4524-10.595-3.6688-16.778-4.935-25.862 2.5 0.11905 5.6314 1.5008 8.1314 1.6198-1.5476 9.7619-4.863 14.838-3.1963 24.242z"/>
   <path d="m229.43 209.28c-3.4524-10.595-3.6688-16.778-4.935-25.862 2.5 0.11905 3.8636 0.74317 6.3636 0.86222-1.5476 9.7619-3.0952 15.595-1.4286 25z"/>
   <path d="m225.14 213.58c-3.4524-10.595-5.9416-16.778-7.2078-25.862 2.5 0.11905 6.894 0.99571 9.394 1.1148-1.5476 9.7619-3.8528 15.343-2.1862 24.747z"/>
   <path d="m219.84 212.06c-3.4524-10.595-3.6688-16.778-4.935-25.862 2.5 0.11905 5.8839 1.7533 8.3839 1.8724-1.5476 9.7619-5.1156 14.585-3.4489 23.99z"/>
   <path d="m216.05 211.81c-3.4524-10.595-3.6688-16.778-4.935-25.862 2.5 0.11905 5.6314 1.7533 8.1314 1.8724-1.5476 9.7619-4.863 14.585-3.1963 23.99z"/>
   <path d="m213.78 213.07c-3.4524-10.595-3.6688-16.778-4.935-25.862 2.5 0.11905 3.106 0.99571 5.606 1.1148-1.5476 9.7619-2.3376 15.343-0.67096 24.747z"/>
  </g>
  <path d="m283.75 110.04c-9.7854-2.8992-9.673 2.7268-31.607 3.75-8.3385 0.38901-15.183 1.2464-26.25 7.3214-9.8059 5.3826-12.495 16.406-13.929 27.5-0.28974 2.2415-0.31882 12.379-1.9643 13.929-1.1726 1.1042-3.9206 2.1508-4.8214 3.9286-0.87174 1.7203 1.1408 4.776 0.53571 6.6071-1.2977 3.9269-6.3996 8.1562-7.5 12.143-0.85953 3.1139-1.3726 6.9147 0.35714 9.6428 2.9751 4.6923 7.2521 2.9451 8.3928 5.5357 23.536-3.6892 30.696-6.0646 43.393-5.8929 15.777 2.431 21.373 2.0441 34.154 1.6894 12.782-0.35479 31.679 1.1083 42.274 4.0249 1.0372-3.0686 9.0245-3.7873 8.3929-6.9643-0.9279-4.6674-4.2947-6.7972-4.4643-10.536-0.07677-1.6923 1.2631-3.4954 1.0714-5.1786-0.25575-2.2457-2.2794-4.5363-2.5-6.7857-0.2118-2.1591 2.2006-4.4777 1.7857-6.6071-0.30459-1.5634-3.0682-2.4174-3.5714-3.9286-0.71405-2.1444 1.1901-5.2905 0.71429-7.5-0.36368-1.6889-2.4974-3.3102-2.8572-5-0.44838-2.1064-0.04239-4.6894-0.53571-6.7857-0.78309-3.3276-3.6882-6.2309-5.5357-9.1071-2.0075-3.1254-3.1284-8.9834-6.0714-11.25-2.9528-2.2741-8.8041-1.6924-11.786-3.9286-1.3553-1.0164-1.5942-2.7189-3.2143-3.2143-3.6358-1.1118-5.806-0.8276-14.464-3.3929z" fill="#484e4e" fill-rule="evenodd"/>
  <path d="m279.09 109.22c-5.8474-0.13308-8.1059 5.7514-25.927 6.5828-8.3385 0.38901-14.172 0.76362-25.24 6.8387-9.8059 5.3826-14.524 14.891-15.958 25.985-0.28974 2.2415 1.0657 12.862-0.57979 14.411-1.1726 1.1042-3.9116 2.1598-4.8125 3.9375-0.87173 1.7203 1.1364 4.7626 0.53125 6.5938-1.1288 3.4159-9.0991 8.8173-5.7386 10.846 0 0-0.05608 0.67526 0.51983 0.74747 1.5744 0.1974 3.7884-2.477 5.0625-1.5312 1.0915 0.81021-2.5254 4.5312 0 4.5312s10.035-15.716 12.062-14.857c3.4796 1.4743-3.3246 16.055-1.9688 16.388 2.3821 0.58502 4.3127-1.9753 6.2048-3.5363 3.8936-3.2122 7.4513-9.3833 9.0938-14.156 2.129-6.1871-2.4554-1.6519-0.52538-10.102 0.57407-2.5134 9.066-2.5345 8.5938 0-1.9516 10.475 0.49413 14.664 0.49413 14.664-1e-5 -1e-5 7.0996 7.0836 9.625 8.0938 4.8731 0.85931 7.0485 2.2601 11.116 5.2009 3.2143 6.4286 11.082-2.1798 13.103-1.1696 2.0203 1.0102 5.8327 3.5978 8.5938 4.5312 2.6208 0.88606 9.0938 1.5312 9.0938 1.5312 1e-5 -1e-5 3.0422-4.5625 5.0625-4.5625s6.218 3.033 9.0938 3.0312c2.3925-0.00148 6.9261-0.22497 7.5625-2.5312 0.74271-2.6917-6.0625-7.0625-6.0625-7.0625 0-1e-5 12.636 1.5262 14.656 2.0312 2.0203 0.50506 9.9835 5.4312 9.9835 5.4312l0.25-0.34375c-1.2981-3.4282-2.1199-4.8324-2.2648-8.0249-0.07677-1.6923 0.11778-2.873-0.07392-4.5562-0.25575-2.2457-2.2794-4.5319-2.5-6.7812-0.21179-2.1591 2.1961-4.4643 1.7812-6.5938-0.3046-1.5634-3.0593-2.4263-3.5625-3.9375-0.71405-2.1444 1.1945-5.2905 0.71875-7.5-0.36368-1.6889-2.5153-3.3102-2.875-5-0.44839-2.1063-0.03793-5.6951-0.53125-7.7914-0.7831-3.3276-3.6837-6.2487-5.5312-9.125-2.0075-3.1254-5.6449-6.9632-8.5879-9.2297-2.9528-2.2741-8.7997-1.6701-11.781-3.9062-1.3552-1.0164-0.4623-3.3547-2.0823-3.8501-3.6358-1.1118-4.2953 0.16916-12.954-2.3961-1.8348-0.5436-2.2967-2.8021-3.6461-2.8328z" fill="#5a6060" fill-rule="evenodd"/>
  <path d="m283.3 124.42c0.67385 7.2498 6.5063 24.865 9.375 31.339 1.486 3.3539 2.9724 7.9268 5.3572 10.714 3.3018 3.8595 8.6874 7.1956 11.964 8.5714 1.0135 0.42552 3.6081 0.92002 5.1786 0.35715-5.1176-6.2014-6.101-8.389-8.75-10.714-2.9177-2.5612-11.882-2.3223-10.357-5.8928 0.52969-1.2405 3.2722-0.18985 5-0.26786-3.2754-4.2451-5.8242-3.6081-4.6429-5.5357 2.2319-3.6421 10.691-6.2797 11.071-9.5536 0.45452-3.9151-1.1755-13.363-4.4643-15.536-2.5729-1.6995-20.018-6.5524-19.732-3.4821z" fill="#373737" fill-rule="evenodd"/>
  <path d="m272.14 128.61c1.6071 1.25 3.461 4.6166 2.6786 6.6071-0.64878 1.6506-3.6934 1.8856-5.3571 2.5-0.93882 0.34673-1.7665 0.41714-2.3214 1.25-1.1974 1.7972-0.54602 4.6964 0 6.7857 1.1847 4.5333 3.4527 10.464 5.8928 14.464 0.77163 1.2649 2.5554 2.4228 3.2143 3.75 0.90173 1.8164 0.19256 4.9994 1.4286 6.6072 1.5771 2.0514 5.2488 3.0387 7.6786 3.9286 1.5497 0.56755 3.2606 1.129 4.4643 0 0.01366-3.0931 1.8037-1.8456 3.3928 0 0.61224 0.60937 1.7598 2.412 2.5 2.8571 1.4698 0.88393 5.7518 1.8933 5.7143 0.17857-0.0536-2.4497-2.975-2.9196-4.2857-4.1072-3.0727-2.7839-7.415-0.82576-8.3928-3.5714-0.38883-1.0918 1.0742-2.7659 2.1429-3.2143 2.1121-0.88621 7.3023 4.4387 6.4286 2.3214-1.9809-4.8-3.8531-8.1838-6.6071-10.714-5.5698-5.1175-6.3857-9.2268-8.0357-15-0.55961-1.958-5.1105-7.335-4.1071-9.1071 0.34414-0.60782 1.9091 0.38522 2.3214-0.17857 0.5523-0.75517 0.067-2.521-0.71429-3.0357-0.77227-0.50875-2.1246 0.69421-3.0357 0.53571-1.7021-0.29609-5-2.8571-5-2.8571z" fill="#252827" fill-rule="evenodd"/>
  <path d="m252.86 147.01c-2.7331 0.08017-5.7971 2.4878-7.8571 4.2857-1.257 1.0971-3.5265 2.4537-3.75 4.1072-0.47472 3.5125-1.7437 6.7019-0.89286 10 0.67246 2.6066 6.8818 0.6757 9.2857-0.53572 3.4884-1.7579 4.0876-4.6986 7.1429-7.6786 1.5383-1.5004 1.8375-6.2038 0.71429-8.0357-0.91722-1.496-2.8888-2.1943-4.6429-2.1428z" fill="#252827" fill-rule="evenodd"/>
  <path d="m232.5 148.08c-1.326-0.67614-3.3035 1.3816-4.2857 2.5-0.72874 0.82984-1.25 2.8571-0.71429 3.5714 0.53572 0.71429 2.4673 1.526 3.0357 2.8572 0.25333 0.59326 0.37427 1.8104-0.17857 2.1429-0.69929 0.42049-1.8042-1.4977-2.5-1.0714-0.68672 0.42072-0.93212 2.3944-0.17857 2.6786 2.5284 0.95356 3.8734 3.3677 5 2.1428 2.2603-2.4575 0.53357-4.297 1.25-6.4286 0.24437-0.72706 1.177-1.5617 1.0714-2.3214-0.13599-0.9784-1.7544-1.5918-2.1429-2.5-0.42342-0.99003 0.60213-3.0823-0.35714-3.5714z" fill="#252827" fill-rule="evenodd"/>
  <path d="m227.12 120.47c-0.40817 0.21578-0.79873 0.4257-1.2188 0.65625-9.8059 5.3826-12.504 16.406-13.938 27.5-0.14487 1.1208-0.14735 4.105-0.21875 7.0938 0.86576-0.03227 1.4986-0.0965 1.4688-0.15625 0-1e-5 5.9359-3.8949 8.75-5 1.5361-0.60323 3.9152-0.71429 5.3438-1.25 1.4286-0.53573 7.6477-6.8535 10.719-10 1.8023-1.8466 4.8259-5.3348 5.7188-6.4062 0.89286-1.0714 1.7091-5.7424 0.90625-8.0312-0.52662-1.5013-2.2546-3.2069-3.75-3.75-2.2748-0.82618-5.6464 0.82903-8.0625 0.6875-1.7763-0.10405-3.705-0.62458-5.7188-1.3438z" fill="#373737" fill-rule="evenodd"/>
  <path d="m285 133.43c0.67385 7.2498 4.8099 15.847 7.6786 22.321 1.486 3.3539 2.9724 7.9268 5.3572 10.714 3.3018 3.8595 8.6874 7.1956 11.964 8.5714 1.0135 0.42552 3.6081 0.92002 5.1786 0.35715-5.1176-6.2014-7.5296-7.6748-10.179-10-2.9177-2.5612-10.453-3.0366-8.9286-6.6071 0.52969-1.2405 2.5579-0.27914 4.2857-0.35715-3.2754-4.2451-6.5384-3.7866-5.3571-5.7143 2.2319-3.6421 6.5842-3.3333 6.9643-6.6072 0.45452-3.9151-3.497-9.0777-6.7857-11.25-2.5729-1.6995-10.464-4.4988-10.179-1.4286z" fill="#1e2020" fill-rule="evenodd"/>
  <path d="m237.86 117.54c9.3178 2.6996 8.3834 4.0457 12.143 5.3571 3.3984 1.1855 9.8214 2.1429 10.893 2.1429 6.9643 0 14.539 0.54082 19.643-4.2857 1.9867-1.8786 6.4513 0.29272 9.1072-0.35715 3.0493-0.74614 5.7731-1.5178 9.4643-4.4643 0.16392-1.7173-2.9177-3.3861-4.6428-3.3929-2.1111-0.00832-3.6414 3.7069-5.7143 4.1071-3.9548 0.76355-9.0411-2.6978-13.036-3.2143-3.4538-0.44651-8.8482 0.81664-12.321 1.0714-7.9579 0.58378-16.848 0.12053-25.536 3.0357z" fill="#20201f" fill-rule="evenodd"/>
  <path d="m309.64 122.18c-1.6648 1.0097-0.83841 5.0491 0.53571 6.4286 1.3367 1.3419 4.0144 0.09276 5.3571 1.4286 3.1098 3.0938 1.2884 10.162 2.1429 14.464 0.47324 2.3832-0.17857 5.7143 2.3214 6.9643 2.3958 1.1979 4.4608 0.07889 8.3929 3.2143 1.7565-2.0059-2.2956-5.7843-3.3929-8.2143-1.4001-3.1006-3.7092-7.0309-5-10.179-0.83561-2.0376-1.0114-5.194-2.3214-6.9643-2.0337-2.7483-5.1124-8.9158-8.0357-7.1429z" fill="#202221" fill-rule="evenodd"/>
  <path d="m233.21 250.22c0.39303 4.2385 0.26248 5.7495 0.35714 8.2143 0.12342 3.2137-1.5457 8.1215 0.35714 10.714 4.6289 3.3875 9.0252 4.9704 13.214 4.6428 3.1543-0.24663 6.2804-4.011 9.2857-5 1.4393-0.47365 3.6247-0.0784 5-0.71428 3.3759-1.5608 6.6303-5.6102 9.2857-8.2143 2.5986-2.5484 8.4296-5.2952 8.2143-8.9286-0.17535-2.9582-4.8355-5.1316-7.5-6.4286-3.4385-1.6738-6.9933-3.0255-10.714-2.1429-4.2334 1.0042-9.0664 7.2582-13.214 8.5714-4.0909 1.2952-8.3845 0.18993-14.286-0.71429z" fill="#5a6060" fill-rule="evenodd"/>
  <path d="m239.29 249.51c3.1548 1.6071 6.3095 1.4286 9.4643 0.35714-1.6071 5.0595-2.3214 13.512-3.2143 19.643-0.83334-8.8095-0.05953-15.655-6.25-20z" fill="#2d2d2a" fill-rule="evenodd"/>
  <path d="m225.54 148.43c4.3271-2.2972 6.7316-5.7032 10.536-9.1071 1.6446-1.4716 1.635-5.1738 2.1429-7.3214 0.34343-1.4523 2.7851-3.5346 1.7857-4.6429-2.7501-3.0497-9.8531 1.2122-13.214 3.5714-2.1409 1.5028-4.6566 4.5498-5 7.1429-0.43385 3.2759 0.83126 11.907 3.75 10.357z" fill="#1b1b1b" fill-rule="evenodd"/>
 </g>
 <g fill-rule="evenodd">
  <path d="m345.98 301.57c-1.8516 0.54978-4.4842 2.3711-4.2931 4.2932 0.44346 4.4608 15.093 4.9897 19.445 6.0609 4.493 1.1057 9.8057 0.16527 14.395 0.75761 2.9942 0.38649 8.1482 0.38145 9.5964 3.0305 3.2003 5.8536-2.9819 15.423-5.8084 21.466-0.3918 0.83769-0.98246 2.037-1.7678 2.5254-1.6924 1.0525-6.566 1.0102-6.566 1.0102s4.4545 1.1823 4.5457 2.7779c0.22483 3.9339-6.715 6.5702-10.354 8.0812-3.3847 1.4053-12.122 1.5152-12.122 1.5152s4.9 4.8684 12.122 2.7779c7.0306-2.0351 13.231-4.8628 15.657-9.0914 5.8308-10.161 9.47-17.279 13.385-27.527 0.73044-1.9122-0.49876-6.0519-1.5152-7.8287-1.6072-2.8093-6.6943-4.8327-9.849-5.5558-9.8291-2.2532-27.318-7.1295-36.871-4.2932z" fill="#484e4e"/>
  <path d="m347.49 301.06c-1.8516 0.54978-4.9893 2.3711-4.7982 4.2932 0.44346 4.4608 17.87-0.5661 22.223 0.50508 4.493 1.1057 8.7956 2.4381 13.385 3.0305 2.9942 0.38649 10.421 2.6543 11.869 5.3033 3.2003 5.8536-4.2446 17.948-7.0711 23.991-0.3918 0.83769-1.9926 2.037-2.7779 2.5254-1.6924 1.0525-6.3134-0.50508-6.3134-0.50508s3.6969 2.9501 3.7881 4.5457c0.22483 3.9339-6.9675 6.8228-10.607 8.3338-3.3847 1.4053-11.617 1.2627-11.617 1.2627s2.3747 3.6057 9.5964 1.5152c7.0306-2.0351 13.231-4.8628 15.657-9.0914 5.8308-10.161 9.47-17.279 13.385-27.527 0.73044-1.9122-0.49876-6.0519-1.5152-7.8287-1.6072-2.8093-6.6943-4.8327-9.849-5.5558-9.8291-2.2532-25.803-7.6346-35.355-4.7982z" fill="#373737"/>
 </g>
</svg>
